<svg width="68" height="26" viewBox="0 0 68 26" fill="none" xmlns="http://www.w3.org/2000/svg">
<g clip-path="url(#clip0_157_801)">
<path d="M8.8253 11.3105L13.3672 6.76868L17.909 11.3105L20.5206 8.69896L13.3672 1.54559L6.10019 8.69896L8.8253 11.3105ZM6.89501 13.2408L4.28344 10.6292L1.67188 13.2408L4.28344 15.8523L6.89501 13.2408ZM8.8253 15.0575L13.3672 19.5993L17.909 15.0575L20.5206 17.669L13.3672 24.8224L6.21373 17.669L8.8253 15.0575ZM22.4509 15.8523L25.0625 13.2408L22.4509 10.6292L19.8393 13.2408L22.4509 15.8523Z" fill="black"/>
<path d="M15.9795 13.2406L13.2544 10.5155L10.5293 13.2406L13.2544 15.9657L15.9795 13.2406ZM39.4836 13.3541H36.1908V11.5374H39.0295C39.4837 11.5374 39.9378 11.4239 40.2785 11.3103C40.6191 11.1968 40.8462 10.9697 40.9598 10.7426C41.0733 10.5155 41.1868 10.1749 41.1868 9.83422C41.1868 9.38004 41.0733 9.15295 40.9598 8.81231C40.8462 8.58522 40.6191 8.35813 40.2785 8.24458C39.9378 8.13104 39.5972 8.13104 39.0295 8.13104H37.2127V19.0314H34.4876V5.97367H39.0295C39.8243 5.97367 40.5056 6.08722 41.0733 6.20076C41.641 6.31431 42.2088 6.5414 42.5494 6.88204C43.0036 7.22267 43.2307 7.56331 43.4578 8.01749C43.6849 8.47167 43.7984 9.0394 43.7984 9.60713C43.7984 10.1749 43.6849 10.629 43.4578 11.0832C43.2307 11.5374 42.89 11.878 42.3223 12.2187C41.7546 12.5593 41.1868 12.6729 40.2785 12.6729L39.4836 13.3541ZM39.3701 19.0314H35.396L36.4179 16.9876H39.3701C39.8243 16.9876 40.2785 16.874 40.5056 16.7605C40.8462 16.6469 41.0733 16.4199 41.1868 16.0792C41.3004 15.8521 41.4139 15.5115 41.4139 15.1709C41.4139 14.8302 41.3004 14.4896 41.1868 14.1489C41.0733 13.9219 40.8462 13.6948 40.6191 13.4677C40.392 13.3541 39.9378 13.2406 39.4836 13.2406H36.8721V11.4239H40.0514L40.6191 12.1051C41.4139 12.1051 42.0952 12.2187 42.5494 12.5593C43.0036 12.8999 43.3442 13.2406 43.5713 13.6948C43.7984 14.1489 43.912 14.6031 43.912 15.1709C43.912 15.9657 43.6849 16.7605 43.3442 17.3282C43.0036 17.8959 42.4359 18.3501 41.7546 18.5772C41.1868 18.9179 40.392 19.0314 39.3701 19.0314ZM52.8821 15.625C52.8821 15.3979 52.8821 15.1709 52.7686 14.9438C52.655 14.7167 52.5415 14.6031 52.4279 14.376C52.2009 14.2625 51.9738 14.0354 51.6331 13.9219C51.2925 13.8083 50.8383 13.5812 50.3841 13.4677L48.6809 12.7864C48.1132 12.5593 47.659 12.2187 47.3184 11.9916C46.8642 11.6509 46.6371 11.3103 46.41 10.8561C46.1829 10.4019 46.0693 9.94776 46.0693 9.38004C46.0693 8.81231 46.1829 8.35813 46.41 7.90395C46.6371 7.44976 46.9777 7.10913 47.4319 6.76849C47.8861 6.42785 48.3403 6.20076 48.908 5.97367C49.4757 5.74658 50.157 5.74658 50.8383 5.74658C51.7467 5.74658 52.655 5.97367 53.3363 6.31431C54.0176 6.65495 54.5853 7.10913 55.0395 7.7904C55.2666 8.35813 55.4937 9.0394 55.4937 9.83422H52.8821C52.8821 9.49358 52.7686 9.15295 52.655 8.81231C52.4279 8.58522 52.2009 8.35813 51.8602 8.13104C51.5196 8.01749 51.1789 7.90395 50.6112 7.90395C50.157 7.90395 49.7028 8.01749 49.4757 8.13104C49.1351 8.24458 48.908 8.47167 48.7945 8.69876C48.6809 8.92586 48.5674 9.15295 48.5674 9.49358C48.5674 9.72067 48.5674 9.94776 48.6809 10.0613C48.7945 10.2884 48.908 10.4019 49.1351 10.5155C49.3622 10.629 49.5893 10.8561 49.9299 10.9697C50.2706 11.0832 50.6112 11.1968 51.0654 11.4239C51.7467 11.6509 52.428 11.878 52.8821 12.1051C53.4499 12.3322 53.9041 12.6729 54.2447 13.0135C54.5853 13.3541 54.926 13.6948 55.0395 14.1489C55.2666 14.6031 55.2666 15.0573 55.2666 15.625C55.2666 16.1928 55.1531 16.6469 54.926 17.1011C54.6989 17.5553 54.3582 17.8959 54.0176 18.2366C53.5634 18.5772 53.1092 18.8043 52.5415 18.9179C51.9738 19.0314 51.2925 19.1449 50.6112 19.1449C49.9299 19.1449 49.3622 19.0314 48.6809 18.9179C47.9996 18.6908 47.4319 18.4637 46.9777 18.123C46.5235 17.7824 46.0693 17.3282 45.7287 16.7605C45.3881 16.1928 45.2745 15.625 45.2745 14.8302H47.9996C47.9996 15.2844 48.1132 15.625 48.2267 15.8521C48.3403 16.0792 48.5674 16.3063 48.7945 16.5334C49.0215 16.7605 49.2486 16.874 49.5893 16.874C49.9299 16.9876 50.2706 16.9876 50.6112 16.9876C51.0654 16.9876 51.406 16.874 51.7467 16.7605C52.0873 16.6469 52.3144 16.4199 52.4279 16.1928C52.7686 16.1928 52.8821 15.9657 52.8821 15.625ZM64.9181 14.7167H67.6432C67.6432 15.625 67.3025 16.4199 66.9619 17.1011C66.5077 17.7824 65.94 18.3501 65.1452 18.6908C64.3503 19.0314 63.442 19.2585 62.42 19.2585C61.6252 19.2585 60.8304 19.1449 60.1491 18.8043C59.4678 18.4637 58.9001 18.123 58.4459 17.5553C57.9917 16.9876 57.6511 16.3063 57.424 15.625C57.1969 14.8302 57.0834 14.0354 57.0834 13.0135V12.1051C57.0834 11.1968 57.1969 10.2884 57.424 9.49358C57.6511 8.69876 57.9917 8.01749 58.5595 7.56331C59.0136 6.99558 59.5814 6.65495 60.2627 6.31431C60.9439 5.97367 61.6252 5.86013 62.5336 5.86013C63.6691 5.86013 64.5774 6.08722 65.2587 6.42786C66.0535 6.76849 66.6213 7.33622 66.9619 8.01749C67.4161 8.69876 67.6432 9.49358 67.7567 10.4019H65.0316C65.0316 9.83422 64.9181 9.38004 64.691 9.0394C64.4639 8.69876 64.2368 8.35813 63.8961 8.24458C63.5555 8.01749 63.1013 7.90395 62.42 7.90395C61.9658 7.90395 61.6252 8.01749 61.2846 8.13104C60.9439 8.24458 60.7168 8.58522 60.4897 8.92585C60.2627 9.26649 60.1491 9.72067 60.0356 10.1749C59.922 10.7426 59.922 11.3103 59.922 11.9916V12.8999C59.922 13.5812 59.922 14.1489 60.0356 14.7167C60.1491 15.1709 60.2627 15.625 60.4897 15.9657C60.7168 16.3063 60.9439 16.5334 61.2846 16.7605C61.6252 16.9876 62.0794 16.9876 62.5336 16.9876C63.1013 16.9876 63.5555 16.874 63.8961 16.7605C64.2368 16.5334 64.5774 16.3063 64.691 15.9657C64.691 15.7386 64.9181 15.2844 64.9181 14.7167Z" fill="black"/>
</g>
<defs>
<clipPath id="clip0_157_801">
<rect width="67.02" height="24.98" fill="white" transform="translate(0.75 0.409943)"/>
</clipPath>
</defs>
</svg>
