<svg width="97" height="24" viewBox="0 0 97 24" fill="none" xmlns="http://www.w3.org/2000/svg">
<path d="M52.5708 16.4617H55.1778V0.170349H52.5708V16.4617ZM35.408 7.0127C34.8649 7.12131 34.2131 7.44713 33.67 7.88157L33.2355 8.20739L33.1269 7.77296C33.1269 7.55574 33.0182 7.33852 33.0182 7.22991C33.0182 7.12131 32.6924 7.12131 31.8234 7.12131H30.7371V20.6974H33.3441V15.7014C33.3441 15.7014 33.5614 15.81 33.67 15.9186C34.2131 16.353 35.0821 16.6789 35.9511 16.6789C38.7754 16.6789 40.5134 14.8325 40.5134 11.9001C40.5134 9.83652 39.6444 8.20739 38.1236 7.33852C37.5805 7.0127 37.4719 7.0127 36.7115 7.0127H35.408ZM45.5101 7.0127C43.7721 7.22991 42.2514 8.53322 41.8169 10.0537C41.5996 10.7054 41.5996 10.9226 41.5996 11.9001C41.5996 12.769 41.5996 13.0948 41.8169 13.6378C42.1428 14.5067 42.4686 15.0497 43.1204 15.5928C44.098 16.353 45.0756 16.6789 46.5964 16.5703C48.2258 16.4617 49.5293 15.81 50.2896 14.2895C50.7241 13.4206 50.9414 12.6603 50.9414 11.4657C50.9414 10.4882 50.8328 10.3796 50.6155 9.72791C49.6379 7.77296 47.6826 6.68687 45.5101 7.0127ZM69.5163 7.0127C68.43 7.22991 67.1265 8.42461 66.4748 9.61931C65.2799 12.2259 66.5834 15.5928 69.1904 16.4617C69.6249 16.5703 69.9508 16.5703 70.6025 16.5703C71.6888 16.4617 72.3405 16.2444 72.9923 15.5928L73.4268 15.0497V15.9186C73.4268 17.0047 73.2095 17.4391 72.6664 17.8736C71.6888 18.6338 70.0594 18.5252 68.9731 17.4391L68.5386 17.1133L67.0179 19.0683L67.561 19.5027C68.5386 20.3716 69.7335 20.806 71.1457 20.806C72.2319 20.806 72.8837 20.6974 73.8613 20.1543C74.7303 19.7199 75.4906 18.851 75.9251 17.9822L76.1424 17.4391V7.44713H73.644L73.4268 8.09878L72.9923 7.77296C72.2319 7.12131 70.7111 6.79548 69.5163 7.0127ZM81.1392 7.12131C78.7494 7.77296 77.4459 9.94513 77.7718 12.5517C77.8804 13.6378 78.3149 14.5067 78.9667 15.1583C81.0305 17.4391 84.941 17.0047 86.4618 14.3981C87.2222 13.0948 87.3308 11.357 86.7877 9.83652C86.2445 8.53322 84.941 7.33852 83.6375 7.0127C82.9858 6.90409 81.6823 6.90409 81.1392 7.12131ZM93.7397 7.0127C92.8707 7.22991 92.1103 7.77296 91.5672 8.42461C91.2413 8.85905 91.2413 8.85905 91.1327 7.88157L91.024 7.33852H88.6343V16.353H91.1327V13.9637C91.1327 11.7915 91.2413 11.5743 91.3499 10.9226C91.7844 9.5107 92.9793 8.85905 93.8483 9.40209C94.3914 9.72791 94.3914 9.94513 94.3914 13.312V16.353H96.9984V12.769C96.9984 8.64183 96.9984 8.53322 96.3467 7.88157C95.9122 7.12131 94.8259 6.79548 93.7397 7.0127ZM56.3726 7.66435C56.3726 7.77296 57.2416 9.61931 58.1106 11.6829C59.0883 13.7464 59.8486 15.5928 59.9573 15.7014C60.0659 16.0272 60.0659 16.1358 59.0883 18.1994C58.5451 19.3941 58.1106 20.4802 58.1106 20.5888C58.1106 20.6974 58.3279 20.6974 59.3055 20.6974H60.609L63.216 14.1809C64.6281 10.5968 65.823 7.66435 65.9316 7.55574C66.0403 7.44713 65.9316 7.33852 64.8454 7.33852H63.6505L62.5643 9.94513C62.0211 11.357 61.478 12.5517 61.478 12.5517C61.478 12.5517 60.9349 11.4657 60.3918 10.0537L59.3055 7.44713H56.3726V7.66435ZM46.8136 9.40209C47.574 9.72791 48.1171 10.4882 48.2258 11.4657C48.3344 12.6603 47.8999 13.6378 47.1395 14.0723C46.705 14.2895 46.5964 14.2895 46.0533 14.2895C45.4015 14.1809 44.967 13.9637 44.6411 13.4206C44.098 12.5517 44.098 11.5743 44.4239 10.5968C44.6411 10.0537 44.8584 9.83652 45.2929 9.5107C45.836 9.29348 46.3791 9.18487 46.8136 9.40209ZM72.4492 9.61931C72.775 9.83652 72.9923 10.0537 73.2095 10.271C73.4268 10.7054 73.5354 10.7054 73.5354 11.9001V13.0948L73.2095 13.5292C72.775 14.0723 72.4492 14.2895 71.6888 14.3981C71.037 14.5067 70.6025 14.5067 70.0594 14.1809C68.9732 13.5292 68.5386 12.1173 69.0818 10.814C69.299 10.271 69.8421 9.72791 70.4939 9.5107C70.9284 9.18487 71.7974 9.29348 72.4492 9.61931ZM83.3117 9.61931C84.5065 10.271 84.7238 12.6603 83.7462 13.7464C83.203 14.2895 82.2254 14.5067 81.5737 14.0723C80.596 13.6378 80.0529 11.7915 80.596 10.5968C81.1392 9.5107 82.2254 9.07626 83.3117 9.61931ZM36.7115 9.72791C37.146 9.94513 37.4719 10.4882 37.6891 11.0312C37.7978 11.4657 37.7978 12.5517 37.6891 12.9862C37.4719 13.4206 37.146 13.855 36.7115 14.1809C36.3856 14.3981 36.1684 14.3981 35.5166 14.3981C34.6476 14.3981 34.1045 14.1809 33.7786 13.5292C33.5614 13.0948 33.5614 13.0948 33.5614 11.9001C33.5614 10.814 33.5614 10.7054 33.7786 10.3796C34.2131 9.72791 34.9735 9.40209 35.8425 9.40209C36.1684 9.40209 36.3856 9.5107 36.7115 9.72791ZM1.29973 3.86304C1.51698 3.64583 6.83961 0.387567 7.16549 0.278958C7.70861 0.0617404 8.03449 0.170349 10.8587 1.90809C12.3795 2.88557 13.683 3.75444 13.7916 3.86304C14.2261 4.18887 14.3347 4.62331 14.3347 6.03522V7.33852L11.945 8.85905V7.55574C11.945 6.14383 11.8364 5.818 11.4019 5.49218C11.2932 5.38357 10.5329 4.84052 9.66386 4.29748C7.49136 2.99418 7.70861 2.99418 5.53611 4.29748C4.55849 4.73191 3.79811 5.27496 3.68949 5.38357C3.58086 5.49218 3.47224 5.70939 3.36361 5.92661C3.25499 6.25244 3.25499 6.57826 3.25499 8.316C3.25499 10.0537 3.25499 10.3796 3.47224 10.7054C3.68949 11.2484 3.90674 11.357 5.64474 12.4431C7.16549 13.4206 7.16549 13.4206 7.81724 13.4206C8.36036 13.4206 8.36036 13.4206 9.98974 12.4431C10.8587 11.9001 12.3795 10.9226 13.3571 10.3796C14.3347 9.72791 15.8555 8.85905 16.7245 8.20739C18.3539 7.12131 18.7884 7.0127 19.2229 7.12131C19.6574 7.22991 25.0886 10.7054 25.3059 11.0312C25.7404 11.5743 25.7404 11.9001 25.7404 15.5928V19.0683L25.1972 19.5027C24.98 19.8285 24.5455 20.1543 22.0471 21.6749C19.4401 23.304 19.2229 23.4126 18.6797 23.5212H18.1366L15.421 21.7835C13.9002 20.806 12.4881 19.9371 12.3795 19.8285C12.0536 19.5027 11.945 19.1769 11.945 17.765V16.4617L13.1399 15.7014C13.7916 15.267 14.3347 14.9411 14.4434 14.9411C14.4434 14.9411 14.552 15.4842 14.552 16.2444C14.552 17.5477 14.552 17.6563 14.7692 17.9822C14.9865 18.308 15.421 18.6338 16.6159 19.3941C18.1366 20.3716 18.2452 20.3716 18.7884 20.3716C19.3315 20.3716 19.3315 20.3716 20.9609 19.2855C22.0471 18.6338 22.6989 18.0908 22.8075 17.8736C23.0247 17.5477 23.0247 17.4391 23.0247 15.1583C23.0247 12.769 23.0247 12.769 22.8075 12.4431C22.5902 12.1173 19.6574 10.1623 19.1142 10.0537C18.897 9.94513 18.6797 9.94513 18.4625 10.0537C18.2452 10.0537 15.8555 11.5743 13.1399 13.312L8.25174 16.4617H7.70861C7.16549 16.4617 7.16549 16.4617 4.34124 14.7239C2.82049 13.7464 1.40836 12.8776 1.29973 12.769C0.865234 12.3345 0.865234 12.2259 0.865234 8.316C0.865234 4.94913 0.865234 4.62331 1.08248 4.29748C1.08248 4.08026 1.19111 3.86304 1.29973 3.86304Z" fill="black"/>
</svg>
