<svg width="87" height="26" viewBox="0 0 87 26" fill="none" xmlns="http://www.w3.org/2000/svg">
<g clip-path="url(#clip0_157_816)">
<path d="M32.1357 9.70163C31.8728 9.57016 31.4784 9.57016 30.9525 9.57016C29.5063 9.57016 28.0601 10.7534 28.0601 12.0682V18.7733H24.9047V6.94068H28.0601V8.12394C28.7174 7.20363 30.0322 6.67773 31.6098 6.67773C32.0043 6.67773 32.3987 6.67773 32.6616 6.80921L32.1357 9.70163ZM35.6855 0.629944C36.8688 0.629944 37.7891 1.55026 37.7891 2.60205C37.7891 3.78531 36.8688 4.57415 35.6855 4.57415C34.5023 4.57415 33.5819 3.65384 33.5819 2.60205C33.5819 1.55026 34.5023 0.629944 35.6855 0.629944ZM37.3947 18.7733H34.2393V6.94068H37.3947V18.7733ZM46.8607 6.67773C45.546 6.67773 44.3627 7.07215 43.3109 7.861V6.94068H40.1556V24.6896H43.4424V17.9845C44.3627 18.6418 45.546 19.0363 46.7292 19.0363C48.5698 19.0363 50.279 18.2474 51.3308 17.0642C52.2511 16.0124 52.777 14.5662 52.777 12.857C52.777 9.30721 50.1475 6.67773 46.8607 6.67773ZM46.4663 16.1438C44.4942 16.1438 43.1795 14.8291 43.1795 12.857C43.1795 11.0164 44.4942 9.57016 46.4663 9.57016C48.1754 9.57016 49.6216 11.0164 49.6216 12.857C49.4902 14.6976 48.1754 16.1438 46.4663 16.1438ZM72.235 18.7733H69.0796V1.41879H72.235V18.7733ZM85.3822 16.8012C84.199 18.1159 82.3584 18.9048 80.3863 18.9048C76.8365 19.0363 74.2071 16.5383 74.2071 12.857C74.2071 9.57016 76.4421 6.67773 79.9919 6.67773C83.2787 6.67773 85.6452 9.43868 85.6452 12.7255C85.6452 12.9885 85.6452 13.3829 85.5137 13.6458H77.2309C77.3624 15.355 78.8086 16.4068 80.5178 16.4068C81.8325 16.4068 83.0157 15.6179 83.5416 15.0921L85.3822 16.8012ZM82.3584 11.2793C82.2269 10.2275 81.3066 9.17573 79.9919 9.17573C78.6771 9.17573 77.6254 10.2275 77.3624 11.2793H82.3584ZM61.3227 6.67773C60.008 6.67773 58.8247 7.07215 57.7729 7.861V6.94068H54.6176V24.6896H57.9044V17.9845C58.8247 18.6418 60.008 19.0363 61.1912 19.0363C63.0319 19.0363 64.741 18.2474 65.7928 17.0642C66.7131 16.0124 67.239 14.5662 67.239 12.857C67.1075 9.30721 64.4781 6.67773 61.3227 6.67773ZM60.9283 16.1438C58.9562 16.1438 57.6415 14.8291 57.6415 12.857C57.6415 11.0164 58.9562 9.57016 60.9283 9.57016C62.6374 9.57016 64.0836 11.0164 64.0836 12.857C63.9522 14.6976 62.6374 16.1438 60.9283 16.1438ZM18.0681 14.4347C17.2793 14.0403 16.4905 13.9088 15.7016 13.9088C15.0443 13.9088 13.9925 13.5144 13.9925 12.1996C13.9925 11.2793 14.7813 10.6219 15.7016 10.4905C16.4905 10.4905 17.2793 10.359 18.0681 9.96458C18.7255 9.57016 19.2514 9.04426 19.6458 8.38689C20.0402 7.72952 20.1717 7.07216 20.1717 6.28331C20.1717 5.49447 19.9088 4.8371 19.6458 4.17973C19.2514 3.52237 18.7255 2.99647 18.0681 2.60205C17.4108 2.20763 16.6219 2.07615 15.9646 2.07615C15.1757 2.07615 14.5184 2.20763 13.861 2.60205C13.2037 2.99647 12.6778 3.52237 12.2833 4.17973C11.8889 4.8371 11.7574 5.49447 11.7574 6.28331C11.626 7.07216 12.0204 7.861 12.4148 8.51837C12.6778 9.04426 12.9407 10.2275 11.7574 10.8849C10.9686 11.2793 9.91683 11.0164 9.39094 10.2275C8.99652 9.57016 8.47063 8.91279 7.81326 8.51837C7.1559 8.12394 6.36706 7.99247 5.57822 7.99247C4.78939 7.99247 4.13202 8.12394 3.47466 8.51837C2.8173 8.91279 2.2914 9.43868 1.89699 10.096C1.50257 10.7534 1.37109 11.4108 1.37109 12.1996C1.37109 12.9885 1.50257 13.6458 1.89699 14.3032C2.2914 14.9606 2.8173 15.4865 3.47466 15.8809C4.13202 16.2753 4.92086 16.4068 5.57822 16.4068C6.23559 16.4068 7.02443 16.2753 7.68179 15.8809C8.33916 15.4865 8.86505 14.8291 9.39094 14.1717C9.78536 13.6458 10.5742 12.857 11.7574 13.5144C12.5463 14.0403 12.8092 14.9606 12.4148 15.8809C12.0204 16.5383 11.7574 17.3271 11.7574 18.1159C11.7574 18.9048 12.0204 19.5622 12.2833 20.2195C12.6778 20.8769 13.2037 21.4028 13.861 21.7972C14.5184 22.1916 15.3072 22.3231 15.9646 22.3231C16.7534 22.3231 17.4108 22.1916 18.0681 21.7972C18.7255 21.4028 19.2514 20.8769 19.6458 20.2195C20.0402 19.5622 20.1717 18.9048 20.1717 18.1159C20.1717 17.3271 19.9088 16.6697 19.6458 16.0124C19.3829 15.355 18.7255 14.8291 18.0681 14.4347Z" fill="black"/>
</g>
<defs>
<clipPath id="clip0_157_816">
<rect width="85.5" height="24.98" fill="white" transform="translate(0.560547 0.629944)"/>
</clipPath>
</defs>
</svg>
