<svg width="74" height="26" viewBox="0 0 74 26" fill="none" xmlns="http://www.w3.org/2000/svg">
<g clip-path="url(#clip0_157_795)">
<path d="M13.8653 0.735832C13.7566 0.735832 13.648 0.84444 13.5394 0.953049C13.2135 1.27888 13.3222 1.71331 13.5394 1.93053C13.7566 2.03914 13.8653 2.14774 14.0825 2.14774C14.4084 2.14774 14.6256 1.93053 14.7343 1.71331C14.9515 1.27888 14.6256 0.735832 14.0825 0.735832C13.9739 0.627223 13.8653 0.735832 13.8653 0.735832ZM20.0568 1.38748C19.9482 1.38748 19.731 1.6047 19.731 1.71331V2.14774C19.8396 2.36496 20.0568 2.47357 20.2741 2.47357C20.6 2.47357 20.8172 2.25635 20.8172 1.93053C20.8172 1.6047 20.4913 1.27887 20.0568 1.38748ZM7.6737 1.38748C7.2392 1.49609 7.13058 2.03914 7.45645 2.36496C7.56507 2.47357 7.6737 2.47357 7.78232 2.47357C7.89094 2.47357 8.10819 2.36496 8.10819 2.36496C8.32544 2.14774 8.32544 1.82192 8.21682 1.6047C8.21682 1.38748 7.89094 1.27887 7.6737 1.38748ZM18.3189 3.88548C18.1016 3.99409 17.8844 4.1027 17.7757 4.31992V4.75435C17.7757 4.97157 17.7757 4.97157 17.8844 5.08018C17.993 5.2974 18.2102 5.40601 18.3189 5.51461H18.6447C18.862 5.51461 18.862 5.51461 18.9706 5.40601C19.5137 5.18879 19.6223 4.42853 19.1878 3.99409C18.9706 3.77688 18.862 3.77688 18.6447 3.77688C18.5361 3.88548 18.4275 3.88548 18.3189 3.88548ZM9.19443 3.88548C9.08581 3.99409 8.97719 3.99409 8.86856 4.1027C8.54269 4.42853 8.54269 4.97157 8.86856 5.2974C9.41168 5.84044 10.1721 5.62322 10.3893 4.97157V4.64574C10.3893 4.31992 10.1721 4.1027 9.84618 3.99409C9.73755 3.99409 9.62893 3.88548 9.52031 3.88548H9.19443ZM13.7566 4.64574C13.2135 4.86296 12.8877 5.40601 13.1049 5.94905C13.3221 6.38348 13.8653 6.70931 14.2998 6.6007C14.8429 6.49209 15.1688 5.73183 14.9515 5.18879C14.8429 4.97157 14.6256 4.75435 14.4084 4.64574C14.2998 4.53714 13.9739 4.53714 13.7566 4.64574ZM23.6414 6.27488C23.4242 6.27488 23.2069 6.49209 23.0983 6.70931C23.0983 6.81792 22.9897 6.81792 22.9897 7.03514V7.36096L23.3156 7.68679C23.5328 7.7954 23.7501 7.7954 23.9673 7.68679C24.1846 7.57818 24.4018 7.36096 24.4018 7.03514V6.70931C24.4018 6.49209 24.0759 6.27488 23.6414 6.27488ZM4.19772 6.38348C4.0891 6.38348 3.87185 6.49209 3.87185 6.6007C3.6546 6.92653 3.6546 7.36096 3.87185 7.57818C3.98048 7.68679 4.19772 7.7954 4.41497 7.7954C4.5236 7.7954 4.63222 7.7954 4.74085 7.68679L5.06672 7.36096C5.17534 7.25235 5.17534 6.92653 5.06672 6.70931C4.95809 6.6007 4.74085 6.49209 4.63222 6.38348C4.5236 6.38348 4.30635 6.27488 4.19772 6.38348ZM11.8014 7.36096C11.1497 7.46957 10.6065 7.90401 10.3893 8.55566C10.0634 9.64174 10.8238 10.7278 11.91 10.8364C12.2359 10.8364 12.5618 10.7278 12.8877 10.6192C12.9963 10.6192 13.1049 10.402 13.2135 10.2934C13.4308 10.1848 13.4308 10.0762 13.5394 9.85896C13.648 9.53314 13.7566 9.42453 13.7566 9.0987C13.7566 8.12122 12.9963 7.46957 12.1273 7.36096H11.8014ZM15.9291 7.36096C15.2774 7.46957 14.6256 8.01261 14.4084 8.66427V9.53314C14.517 10.0762 14.9515 10.5106 15.386 10.7278C15.8205 10.945 16.3636 10.945 16.7981 10.7278C17.7757 10.2934 18.2102 9.0987 17.6671 8.22983C17.3412 7.7954 16.9067 7.46957 16.3636 7.36096H15.9291ZM19.9482 8.12122C19.8396 8.12122 19.6223 8.22983 19.5137 8.44705C19.0792 8.88148 19.0792 9.53314 19.5137 9.85896C19.9482 10.2934 20.8172 10.1848 21.1431 9.53314C21.469 8.99009 21.1431 8.33844 20.6 8.12122H19.9482ZM7.6737 8.12122C7.2392 8.22983 6.91333 8.66427 6.91333 9.0987C6.91333 9.53314 7.13058 9.85896 7.45645 10.0762C7.6737 10.1848 7.78232 10.1848 7.89094 10.1848H8.21682C8.54269 10.0762 8.65131 9.85896 8.86856 9.64175C8.97719 9.42453 8.97719 9.42453 8.97719 9.0987C8.97719 8.88148 8.97719 8.88148 8.86856 8.66427C8.75994 8.44705 8.54269 8.22983 8.21682 8.12122H7.6737ZM9.73755 10.945C9.19443 11.0537 8.65131 11.3795 8.43406 11.9225C7.99957 12.9 8.54269 14.0947 9.62893 14.4205C9.84618 14.5291 10.1721 14.5291 10.3893 14.4205C11.041 14.3119 11.5842 13.7689 11.6928 13.1172C11.91 12.0311 11.1497 11.0537 10.0634 11.0537C9.9548 10.9451 9.84618 10.945 9.73755 10.945ZM17.8844 10.945C17.7757 10.945 17.5585 11.0537 17.4499 11.1623C17.0154 11.3795 16.6895 11.8139 16.5809 12.2484C16.4722 12.4656 16.4722 12.7914 16.5809 13.1172C16.6895 13.7689 17.2326 14.3119 17.8844 14.4205H18.7534C19.6223 14.2033 20.1655 13.443 20.0568 12.5742C20.0568 12.0311 19.731 11.4881 19.2965 11.2709C18.9706 11.0537 18.7534 10.945 18.3189 10.945H17.8844ZM22.9897 11.8139C22.8811 11.8139 22.7724 11.9225 22.6638 12.0311C22.2293 12.4656 22.4466 13.1172 22.8811 13.443C22.9897 13.5517 22.9897 13.5517 23.2069 13.5517C23.4242 13.5517 23.4242 13.5517 23.5328 13.443C23.8587 13.2258 24.0759 12.9 24.0759 12.4656C24.0759 12.357 23.9673 12.1397 23.8587 12.0311C23.6414 11.8139 23.3156 11.7053 22.9897 11.8139ZM4.63222 11.8139C3.87185 12.0311 3.87185 13.1172 4.5236 13.443C4.63222 13.443 4.63222 13.5517 4.84947 13.5517C5.06672 13.5517 5.06672 13.5517 5.17534 13.443C5.71846 13.2258 5.82709 12.4656 5.39259 12.0311C5.17534 11.8139 5.06672 11.8139 4.84947 11.7053C4.84947 11.8139 4.74085 11.8139 4.63222 11.8139ZM26.2484 12.1397C25.9225 12.357 25.8139 12.7914 26.1398 13.0086C26.2484 13.1172 26.357 13.1172 26.5743 13.1172C26.7915 13.1172 26.9002 13.1172 27.0088 12.9C27.1174 12.7914 27.1174 12.6828 27.1174 12.5742C27.1174 12.2484 26.5743 11.9225 26.2484 12.1397ZM1.59075 12.1397C1.3735 12.2484 1.15625 12.4656 1.15625 12.7914C1.15625 12.9 1.26487 13.1172 1.3735 13.2258C1.48212 13.3344 1.48212 13.3344 1.69937 13.3344C1.80799 13.3344 1.91662 13.3344 2.02524 13.2258C2.13387 13.1172 2.24249 13.0086 2.35111 12.7914C2.45974 12.4656 2.13387 12.1397 1.80799 12.1397H1.59075ZM11.8014 14.5291C11.5842 14.5291 11.4755 14.6377 11.2583 14.7464C10.1721 15.2894 9.9548 16.7013 10.8238 17.5702C11.1497 17.896 11.5842 18.1132 12.0187 18.1132C12.779 18.1132 13.4308 17.6788 13.648 16.8099V16.3755C13.648 16.0497 13.648 15.8324 13.4308 15.5066C13.2135 14.7464 12.5618 14.4205 11.8014 14.5291ZM15.9291 14.5291C15.2774 14.6377 14.7343 15.0722 14.517 15.7238C14.2998 16.4841 14.6256 17.4616 15.386 17.7874C15.6033 17.896 15.8205 18.0046 16.1464 18.0046H16.5809C17.2326 17.7874 17.6671 17.353 17.7757 16.7013C17.8844 16.4841 17.7757 16.0497 17.7757 15.8324C17.6671 15.5066 17.5585 15.2894 17.3412 15.0722C17.0154 14.6377 16.3636 14.4205 15.9291 14.5291ZM19.9482 15.1808C19.5137 15.2894 19.1878 15.7238 19.1878 16.1583C19.1878 16.4841 19.2965 16.7013 19.5137 16.9185C19.9482 17.353 20.7086 17.2444 21.0345 16.8099C21.1431 16.5927 21.2517 16.4841 21.2517 16.1583C21.2517 15.941 21.2517 15.9411 21.1431 15.7238C21.0345 15.5066 20.9258 15.398 20.7086 15.1808C20.4913 15.0722 20.4913 15.0722 20.2741 15.0722C20.0568 15.1808 19.9482 15.1808 19.9482 15.1808ZM7.78232 15.1808C7.45645 15.2894 7.2392 15.5066 7.13058 15.7238C7.02195 15.8324 7.02195 15.941 7.02195 16.0497C7.02195 16.4841 7.13058 16.8099 7.45645 16.9185C7.6737 17.0271 7.78232 17.0271 8.10819 17.0271C8.32544 17.0271 8.32544 17.0271 8.43406 16.9185C9.08581 16.5927 9.19443 15.8324 8.75994 15.2894C8.54269 15.2894 8.10819 15.1808 7.78232 15.1808ZM23.7501 17.5702C23.6414 17.5702 23.4242 17.6788 23.3156 17.7874C23.2069 17.896 23.0983 18.1132 23.0983 18.2218C23.0983 18.5477 23.3156 18.7649 23.6414 18.8735C23.9673 18.9821 24.2932 18.8735 24.5104 18.5477C24.6191 18.439 24.6191 18.3304 24.6191 18.2218C24.6191 17.896 24.5104 17.6788 24.1846 17.5702H23.7501ZM4.19772 17.6788C3.98048 17.7874 3.87185 17.896 3.76323 18.1132C3.6546 18.1132 3.6546 18.439 3.6546 18.5477C3.76323 18.6563 3.87185 18.8735 4.0891 18.9821C4.19772 19.0907 4.5236 19.0907 4.63222 18.9821C4.74085 18.8735 4.95809 18.7649 4.95809 18.6563C4.95809 18.5477 5.06672 18.5477 5.06672 18.3304C5.06672 18.1132 5.06672 18.1132 4.95809 18.0046C4.84947 17.896 4.74085 17.6788 4.63222 17.6788C4.5236 17.5702 4.30635 17.5702 4.19772 17.6788ZM13.7566 18.7649C13.3221 18.8735 12.9963 19.3079 12.9963 19.7424C12.9963 20.1768 13.2135 20.5026 13.5394 20.7198C13.648 20.8284 13.7566 20.8284 13.8653 20.8284C14.0825 20.8284 14.1911 20.8284 14.4084 20.7198C14.6256 20.6112 14.7343 20.5026 14.8429 20.2854C14.9515 20.1768 14.9515 20.0682 14.9515 19.9596V19.6337C14.8429 19.3079 14.6256 19.0907 14.2998 18.9821C14.1911 18.6563 13.9739 18.6563 13.7566 18.7649ZM18.4275 19.7424C18.2102 19.851 17.993 19.9596 17.8844 20.1768C17.7757 20.2854 17.7757 20.2854 17.7757 20.5026C17.7757 20.7198 17.7757 20.7198 17.8844 20.8284C18.1016 21.1543 18.4275 21.3715 18.862 21.3715C19.1878 21.3715 19.4051 21.1543 19.5137 20.8284C19.5137 20.7198 19.6223 20.7198 19.6223 20.5026C19.6223 20.2854 19.6223 20.2854 19.5137 20.1768C19.4051 19.9596 19.1879 19.851 19.0792 19.7424H18.4275ZM9.30306 19.7424C9.08581 19.851 8.86856 19.9596 8.75994 20.1768C8.54269 20.6112 8.75994 21.1543 9.19443 21.3715C9.30306 21.3715 9.30306 21.4801 9.52031 21.4801C9.73755 21.4801 9.73755 21.4801 9.84618 21.3715C10.0634 21.2629 10.1721 21.1543 10.2807 21.0457C10.3893 20.937 10.3893 20.8284 10.3893 20.6112C10.3893 20.394 10.3893 20.394 10.2807 20.2854C10.1721 20.0682 9.9548 19.9596 9.84618 19.851C9.73755 19.7424 9.41168 19.7424 9.30306 19.7424ZM20.1655 22.892C19.731 23.0006 19.6223 23.6523 20.0568 23.8695C20.4913 24.0867 21.0345 23.6523 20.8172 23.2178C20.8172 23.1092 20.6 22.892 20.4913 22.892C20.3827 22.7834 20.2741 22.7834 20.1655 22.892ZM7.78232 22.892C7.56507 22.892 7.45645 23.1092 7.34782 23.2178V23.6523C7.45645 23.9781 7.78232 24.0867 7.99957 23.9781C8.10819 23.9781 8.10819 23.8695 8.21682 23.8695C8.43406 23.6523 8.43407 23.435 8.32544 23.2178C8.32544 23.0006 8.10819 22.7834 7.78232 22.892ZM13.7566 23.2178C13.5394 23.3264 13.4308 23.435 13.3221 23.6523C13.2135 23.7609 13.2135 24.0867 13.3221 24.1953C13.4308 24.4125 13.648 24.6297 13.9739 24.6297C14.1911 24.6297 14.4084 24.6297 14.517 24.4125C14.8429 24.0867 14.7343 23.5437 14.2998 23.2178H13.7566ZM47.3215 19.1993H45.4749L44.28 16.2669H37.7626L36.5677 19.1993H34.7211L39.9351 6.16627H41.9989L47.3215 19.1993ZM43.8455 14.855L41.1299 7.7954L38.3057 14.855H43.8455ZM53.5131 19.1993H49.0595V6.16627H53.5131C55.4683 6.16627 57.0977 6.81792 58.2925 8.01261C59.4874 9.20731 60.1391 10.8364 60.1391 12.6828C60.1391 14.5291 59.4874 16.1583 58.2925 17.353C57.0977 18.5477 55.4683 19.1993 53.5131 19.1993ZM53.5131 17.7874C55.0338 17.7874 56.2287 17.353 57.2063 16.3755C58.0753 15.398 58.5098 14.2033 58.5098 12.7914C58.5098 11.3795 58.0753 10.0762 57.2063 9.20731C56.3373 8.22983 55.1424 7.7954 53.5131 7.7954H50.6888V17.7874H53.5131ZM73.174 19.1993H71.3274L70.1326 16.2669H63.6151L62.4202 19.1993H60.5736L65.7876 6.16627H67.8514L73.174 19.1993ZM69.5894 14.855L66.8738 7.7954L64.0496 14.855H69.5894Z" fill="black"/>
</g>
<defs>
<clipPath id="clip0_157_795">
<rect width="72.81" height="24.98" fill="white" transform="translate(0.380859 0.409943)"/>
</clipPath>
</defs>
</svg>
