<svg width="87" height="26" viewBox="0 0 87 26" fill="none" xmlns="http://www.w3.org/2000/svg">
<path d="M5.34836 7.03797L1.00391 12.9028L9.80144 15.8353L14.1459 14.4234C16.5353 13.6631 18.4904 13.0114 18.4904 12.9028C18.4904 12.9028 9.80143 1.1731 9.69282 1.1731C9.69282 1.2817 7.73782 3.88831 5.34836 7.03797ZM9.69282 11.4909C9.69282 11.4909 3.61058 12.1426 3.50197 12.1426C3.39336 12.1426 3.8278 11.4909 6.54309 7.90683L9.69282 3.6711V7.58101C9.80143 9.64457 9.80143 11.4909 9.69282 11.4909ZM1.11252 13.8803C1.22113 13.9889 3.17614 16.4869 5.45698 19.3107C7.73782 22.2432 9.69282 24.524 9.69282 24.524C9.80143 24.524 18.3817 13.6631 18.3817 13.6631C18.3817 13.6631 16.4267 14.4234 14.0373 15.5094L9.69282 17.3558L5.45698 15.5094C3.06752 14.532 1.11252 13.6631 1.11252 13.6631C1.00391 13.6631 1.00391 13.7717 1.11252 13.8803ZM7.84643 18.1161L9.80144 18.8763V20.6141C9.80144 22.026 9.80143 22.3518 9.69282 22.2432C9.58421 22.1346 5.78281 17.3558 5.78281 17.3558C5.6742 17.2472 5.45698 17.1386 7.84643 18.1161ZM35.7596 18.5505H27.5051V6.82075H35.7596V8.99292H30.0032V11.4909H35.651V13.6631H30.0032V16.2697H35.7596V18.5505ZM47.1638 18.5505H44.3399L42.059 14.4234H40.2126V18.5505H37.7146V6.82075H43.1452C44.3399 6.82075 45.3174 7.14657 45.9691 7.90683C46.7293 8.55849 47.0552 9.53596 47.0552 10.6221C47.0552 11.5995 46.8379 12.3598 46.2949 12.9028C45.7518 13.4459 45.2088 13.8803 44.4485 13.9889L47.1638 18.5505ZM42.8193 12.1426C43.3624 12.1426 43.7968 12.034 44.1227 11.7081C44.3399 11.4909 44.5571 11.0565 44.5571 10.6221C44.5571 10.1876 44.3399 9.75318 44.014 9.53596C43.6882 9.21014 43.2538 9.10153 42.7107 9.10153H40.104V12.2512H42.8193V12.1426ZM54.5494 18.7677C52.8116 18.7677 51.291 18.2247 50.0963 17.1386C48.9016 16.0525 48.3585 14.532 48.3585 12.7942C48.3585 11.0565 48.9016 9.53596 50.0963 8.44988C51.291 7.36379 52.8116 6.71214 54.5494 6.71214C56.7216 6.71214 58.3508 7.68962 59.4369 9.53596L57.2646 10.6221C57.0474 10.079 56.613 9.75318 56.1785 9.42736C55.6355 9.10153 55.201 8.88431 54.5494 8.88431C53.4632 8.88431 52.5943 9.21014 51.9427 9.9704C51.291 10.7307 50.8566 11.5995 50.8566 12.6856C50.8566 13.7717 51.1824 14.7492 51.9427 15.4008C52.5943 16.1611 53.4632 16.4869 54.5494 16.4869C55.0924 16.4869 55.6355 16.3783 56.1785 16.0525C56.7216 15.7267 57.0474 15.2922 57.2646 14.8578L59.4369 15.9439C58.3508 17.7902 56.7216 18.7677 54.5494 18.7677ZM64.5416 15.1836H60.3058V13.3373H64.5416V15.1836ZM74.6425 18.5505H65.8449V16.5955C68.343 14.7492 69.9722 13.4459 70.8411 12.6856C71.71 11.9254 72.0358 11.1651 72.0358 10.5134C72.0358 10.079 71.8186 9.64457 71.4928 9.42736C71.1669 9.21014 70.6238 8.99292 70.1894 8.99292C68.9947 8.99292 67.9086 9.42736 67.0397 10.2962L65.6277 8.6671C66.1708 8.01544 66.8224 7.58101 67.6913 7.25518C68.4516 6.92936 69.3205 6.71214 70.1894 6.71214C71.4927 6.71214 72.5789 7.03797 73.3391 7.68962C74.208 8.34127 74.6425 9.31875 74.6425 10.4048C74.6425 11.3823 74.3166 12.2512 73.5564 13.2287C72.7961 14.0975 71.6014 15.1836 69.9722 16.3783H74.7511V18.5505H74.6425ZM83.7658 17.8988C83.0056 18.4419 82.1367 18.7677 81.0506 18.7677C79.9644 18.7677 79.0955 18.4419 78.3353 17.8988C77.575 17.2472 77.0319 16.5955 76.7061 15.6181C76.3803 14.6406 76.163 13.7717 76.163 12.6856C76.163 11.5995 76.3803 10.6221 76.7061 9.75318C77.0319 8.88431 77.575 8.12405 78.3353 7.58101C79.0955 7.03797 79.9644 6.71214 81.0506 6.71214C82.1367 6.71214 83.0056 7.03797 83.7658 7.58101C84.5261 8.12405 85.0692 8.88431 85.395 9.75318C85.7208 10.6221 85.9381 11.5995 85.9381 12.6856C85.9381 13.7717 85.7208 14.7492 85.395 15.6181C84.9606 16.4869 84.4175 17.2472 83.7658 17.8988ZM79.2042 15.5094C79.53 16.1611 80.1817 16.5955 80.9419 16.5955C81.7022 16.5955 82.3539 16.2697 82.6797 15.5094C83.0056 14.8578 83.2228 13.8803 83.2228 12.6856C83.2228 11.4909 83.0056 10.6221 82.6797 9.9704C82.3539 9.31875 81.7022 8.88431 80.9419 8.88431C80.1817 8.88431 79.53 9.21014 79.2042 9.9704C78.8783 10.6221 78.6611 11.5995 78.6611 12.6856C78.6611 13.7717 78.8783 14.7492 79.2042 15.5094Z" fill="black"/>
</svg>
