<svg width="32" height="32" viewBox="0 0 32 32" fill="none" xmlns="http://www.w3.org/2000/svg">
<g clip-path="url(#clip0_33_3531)">
<path d="M24.7655 21.2986C25.9058 22.8125 27.0818 24.3616 28.2577 25.9107C25.9058 28.6569 22.9838 30.4172 19.4559 31.1566C15.5361 31.9664 11.8301 31.3678 8.23099 29.3962C11.4381 27.0374 14.574 24.7137 17.7455 22.39C18.4582 23.059 19.1352 23.7279 19.8123 24.3616C20.5606 25.0658 20.2755 25.101 21.2377 24.5729C22.5562 23.8335 23.6608 22.8125 24.5161 21.5803C24.5517 21.5098 24.623 21.4394 24.6586 21.369C24.623 21.369 24.6586 21.369 24.7655 21.2986ZM10.7611 24.3968C9.87019 25.0658 9.05059 25.6643 8.23099 26.298C7.6252 26.7557 7.01941 27.1782 6.41362 27.6359C6.16417 27.8471 5.986 27.8471 5.70092 27.6007C2.99268 25.2066 1.28221 22.2492 0.640787 18.7285C-0.000638634 15.1726 0.569517 11.7927 2.27999 8.58883C2.31562 8.51841 2.38689 8.41279 2.42252 8.34237C2.42252 8.30717 2.45816 8.30717 2.52943 8.27196C4.88132 11.335 7.26885 14.398 9.62074 17.461C9.54947 17.5666 9.51384 17.6371 9.44257 17.7075C8.72987 18.4468 8.01718 19.1862 7.26885 19.8903C7.05504 20.1016 7.01941 20.2776 7.16195 20.524C7.91027 21.9323 8.94368 23.0942 10.2265 24.0448C10.4047 24.1504 10.5472 24.256 10.7611 24.3968ZM24.0528 2.5332C22.9125 3.34296 21.7722 4.15273 20.6319 4.92728C18.672 6.30036 16.7121 7.70865 14.7878 9.08172C14.5383 9.25776 14.3602 9.29297 14.1464 9.04652C13.5049 8.37758 12.8279 7.77906 12.1864 7.11013C12.0083 6.93409 11.8301 6.89888 11.5807 7.0045C10.0484 7.77906 8.83678 8.87048 7.83901 10.2436C7.76774 10.314 7.69647 10.4196 7.6252 10.5252C7.05504 9.78587 6.52052 9.11693 5.986 8.41279C5.41584 7.67344 4.88132 6.93409 4.3468 6.22995C4.16863 5.9835 4.13299 5.80746 4.38244 5.56101C7.12631 2.56841 10.5116 0.80805 14.574 0.385564C17.7811 0.0334932 20.8457 0.667222 23.6965 2.18113C23.8034 2.25154 23.9103 2.28675 24.0172 2.35716C24.0172 2.46279 24.0172 2.49799 24.0528 2.5332ZM29.8613 23.6575C29.1129 22.7069 28.4359 21.8267 27.7588 20.9465C26.1909 18.9045 24.623 16.8273 23.0194 14.7853C22.8056 14.5036 22.8056 14.3276 23.055 14.0811C23.7321 13.4122 24.3735 12.7433 25.0506 12.0743C25.2288 11.8983 25.3 11.7223 25.1575 11.4758C24.3735 9.99711 23.3045 8.76486 21.9147 7.77906C21.8078 7.70865 21.7009 7.60303 21.5584 7.53261C21.6653 7.42699 21.7722 7.35658 21.8435 7.28616C23.1976 6.26515 24.5517 5.27935 25.9058 4.25835C26.1196 4.08231 26.2978 4.0119 26.5472 4.25835C29.9325 7.28616 31.7499 11.0533 31.9281 15.595C31.9994 18.2356 31.3936 20.7353 30.182 23.0942C30.0751 23.235 29.9682 23.411 29.8613 23.6575Z" fill="#231815"/>
</g>
<defs>
<clipPath id="clip0_33_3531">
<rect width="32" height="32" fill="white"/>
</clipPath>
</defs>
</svg>
