<svg width="20" height="18" viewBox="0 0 20 18" fill="none" xmlns="http://www.w3.org/2000/svg">
<path d="M0.459473 13.2024H19.4768V14.5608H0.459473V13.2024ZM0.459473 15.9192H19.4768V17.2775H0.459473V15.9192ZM15.4017 5.05211C15.133 5.05211 14.8704 5.13178 14.647 5.28104C14.4236 5.4303 14.2495 5.64245 14.1467 5.89066C14.0439 6.13887 14.017 6.412 14.0694 6.6755C14.1218 6.939 14.2512 7.18104 14.4411 7.37101C14.6311 7.56098 14.8732 7.69036 15.1367 7.74277C15.4002 7.79518 15.6733 7.76828 15.9215 7.66547C16.1697 7.56266 16.3819 7.38855 16.5311 7.16517C16.6804 6.94178 16.7601 6.67915 16.7601 6.41049C16.7601 6.05023 16.6169 5.70472 16.3622 5.44997C16.1074 5.19522 15.7619 5.05211 15.4017 5.05211ZM9.96814 9.12725C9.43082 9.12725 8.90556 8.96792 8.45879 8.6694C8.01202 8.37087 7.66381 7.94657 7.45818 7.45015C7.25256 6.95373 7.19875 6.40748 7.30358 5.88048C7.40841 5.35348 7.66716 4.86939 8.0471 4.48945C8.42705 4.1095 8.91113 3.85076 9.43813 3.74593C9.96513 3.6411 10.5114 3.6949 11.0078 3.90053C11.5042 4.10615 11.9285 4.45437 12.227 4.90114C12.5256 5.34791 12.6849 5.87317 12.6849 6.41049C12.684 7.13074 12.3975 7.82124 11.8882 8.33054C11.3789 8.83984 10.6884 9.12635 9.96814 9.12725ZM9.96814 5.05211C9.69948 5.05211 9.43685 5.13178 9.21347 5.28104C8.99008 5.4303 8.81598 5.64245 8.71316 5.89066C8.61035 6.13887 8.58345 6.412 8.63586 6.6755C8.68828 6.939 8.81765 7.18104 9.00762 7.37101C9.1976 7.56098 9.43964 7.69036 9.70314 7.74277C9.96664 7.79518 10.2398 7.76828 10.488 7.66547C10.7362 7.56266 10.9483 7.38855 11.0976 7.16517C11.2469 6.94178 11.3265 6.67915 11.3265 6.41049C11.3265 6.05023 11.1834 5.70472 10.9287 5.44997C10.6739 5.19522 10.3284 5.05211 9.96814 5.05211ZM4.53462 5.05211C4.26595 5.05211 4.00333 5.13178 3.77994 5.28104C3.55656 5.4303 3.38245 5.64245 3.27964 5.89066C3.17682 6.13887 3.14992 6.412 3.20234 6.6755C3.25475 6.939 3.38412 7.18104 3.5741 7.37101C3.76407 7.56098 4.00611 7.69036 4.26961 7.74277C4.53311 7.79518 4.80624 7.76828 5.05445 7.66547C5.30266 7.56266 5.51481 7.38855 5.66407 7.16517C5.81333 6.94178 5.893 6.67915 5.893 6.41049C5.893 6.05023 5.74988 5.70472 5.49514 5.44997C5.24039 5.19522 4.89488 5.05211 4.53462 5.05211Z" fill="black"/>
<path d="M18.1184 11.844H1.81785C1.45786 11.8431 1.11288 11.6997 0.858324 11.4451C0.603772 11.1906 0.460369 10.8456 0.459473 10.4856V2.33531C0.460369 1.97532 0.603772 1.63033 0.858324 1.37578C1.11288 1.12123 1.45786 0.977825 1.81785 0.976929H18.1184C18.4784 0.977825 18.8234 1.12123 19.078 1.37578C19.3325 1.63033 19.4759 1.97532 19.4768 2.33531V10.4856C19.4763 10.8457 19.333 11.1909 19.0784 11.4455C18.8237 11.7002 18.4785 11.8434 18.1184 11.844ZM18.1184 2.33531H1.81785V10.4856H18.1184V2.33531Z" fill="black"/>
</svg>
