<svg width="15" height="20" viewBox="0 0 15 20" fill="none" xmlns="http://www.w3.org/2000/svg">
<path d="M7.25201 15.2049C6.77747 15.205 6.31778 15.0395 5.95222 14.7369C5.58665 14.4344 5.33815 14.0137 5.24957 13.5475C3.91705 13.1357 2.7436 12.3237 1.88862 11.2217C1.24318 10.3906 0.799675 9.42081 0.593106 8.38894C0.386536 7.35706 0.422547 6.2913 0.698297 5.27573C0.974048 4.26015 1.482 3.32253 2.18207 2.53683C2.88215 1.75113 3.75522 1.13884 4.73239 0.748254C5.70957 0.357667 6.76414 0.199469 7.81291 0.286138C8.86168 0.372807 9.87597 0.701972 10.7758 1.24767C11.6756 1.79337 12.4363 2.54067 12.9979 3.43063C13.5595 4.3206 13.9066 5.32888 14.0119 6.37594C14.0486 6.74953 13.7402 7.05384 13.3653 7.05384C12.9903 7.05384 12.6901 6.74817 12.6453 6.37594C12.524 5.41525 12.1483 4.5044 11.5569 3.73765C10.9655 2.9709 10.18 2.37609 9.28165 2.01478C8.38327 1.65347 7.40466 1.53877 6.44708 1.68257C5.4895 1.82636 4.58774 2.22341 3.8351 2.83265C3.08246 3.44188 2.50628 4.24116 2.16619 5.14778C1.82609 6.05441 1.73443 7.03544 1.90069 7.98937C2.06695 8.94331 2.48509 9.83549 3.11185 10.5736C3.7386 11.3117 4.5512 11.8689 5.46557 12.1876C5.63844 11.8723 5.89169 11.6083 6.1996 11.4224C6.50751 11.2366 6.85912 11.1356 7.21871 11.1296C7.5783 11.1237 7.93306 11.213 8.24696 11.3885C8.56087 11.564 8.82273 11.8195 9.00596 12.1289C9.18918 12.4384 9.28725 12.7908 9.29018 13.1505C9.29312 13.5101 9.20083 13.8641 9.02269 14.1765C8.84454 14.4889 8.58689 14.7486 8.2759 14.9293C7.9649 15.1099 7.61165 15.205 7.25201 15.2049ZM1.81798 13.1671V13.1304C1.44652 12.7978 1.10637 12.4317 0.801817 12.0368C0.578635 12.3715 0.459516 12.7648 0.459473 13.1671V13.8464C0.459473 16.524 2.9863 19.2804 7.25201 19.2804C11.5177 19.2804 14.0445 16.524 14.0445 13.8464V13.1671C14.0445 12.6267 13.8299 12.1084 13.4477 11.7262C13.0655 11.3441 12.5472 11.1294 12.0068 11.1294H9.96902C10.2665 11.5233 10.4785 11.9852 10.5804 12.4879H12.0068C12.1869 12.4879 12.3597 12.5594 12.4871 12.6868C12.6145 12.8142 12.686 12.987 12.686 13.1671V13.8464C12.686 15.7999 10.7407 17.9219 7.25201 17.9219C3.76336 17.9219 1.81798 15.7999 1.81798 13.8464V13.1671ZM7.25201 9.77085C6.47469 9.77082 5.72088 10.0374 5.11644 10.5262C4.52249 10.1623 4.03209 9.65179 3.69237 9.04371C3.35264 8.43562 3.17499 7.75039 3.17649 7.05384C3.17669 6.34331 3.36264 5.64518 3.71591 5.02869C4.06917 4.41221 4.57747 3.89879 5.19039 3.53936C5.8033 3.17994 6.49953 2.987 7.21002 2.97968C7.92051 2.97236 8.62057 3.15092 9.24076 3.49764C9.86095 3.84436 10.3797 4.34719 10.7456 4.95627C11.1115 5.56535 11.3118 6.2595 11.3266 6.96987C11.3415 7.68024 11.1703 8.38215 10.8302 9.00598C10.4901 9.6298 9.99275 10.1539 9.38758 10.5262C8.78314 10.0374 8.02933 9.77082 7.25201 9.77085ZM4.53499 7.05384C4.53499 7.77443 4.82125 8.46552 5.33079 8.97506C5.84033 9.4846 6.53141 9.77085 7.25201 9.77085C7.97261 9.77085 8.66369 9.4846 9.17323 8.97506C9.68277 8.46552 9.96902 7.77443 9.96902 7.05384C9.96902 6.33324 9.68277 5.64216 9.17323 5.13262C8.66369 4.62308 7.97261 4.33682 7.25201 4.33682C6.53141 4.33682 5.84033 4.62308 5.33079 5.13262C4.82125 5.64216 4.53499 6.33324 4.53499 7.05384Z" fill="black"/>
</svg>
