<svg width="20" height="21" viewBox="0 0 20 21" fill="none" xmlns="http://www.w3.org/2000/svg">
<path d="M10.4927 6.16193V8.06366M10.4908 1.40759C7.63057 1.40759 5.77638 3.32739 3.58368 4.02723C2.69177 4.31249 2.24581 4.45417 2.06515 4.6548C1.88448 4.85449 1.83218 5.1483 1.72664 5.73404C0.595106 12.006 3.06736 17.8043 8.96274 20.0617C9.59506 20.3042 9.9117 20.4249 10.4936 20.4249C11.0756 20.4249 11.3932 20.3032 12.0264 20.0608C17.9209 17.8043 20.3903 12.006 19.2587 5.73404C19.1532 5.1483 19.0999 4.85449 18.9193 4.65385C18.7386 4.45322 18.2936 4.31154 17.4017 4.02723C15.208 3.32739 13.351 1.40759 10.4908 1.40759Z" stroke="black" stroke-width="0.950867" stroke-linecap="round" stroke-linejoin="round"/>
</svg>
