<svg width="44" height="44" viewBox="0 0 44 44" fill="none" xmlns="http://www.w3.org/2000/svg">
<g clip-path="url(#clip0_321_2614)">
<g clip-path="url(#clip1_321_2614)">
<path d="M22.5073 36.1043C17.8802 36.1046 13.2531 36.1045 8.62589 36.1045C6.13229 36.1045 4.60313 34.5773 4.603 32.0851C4.60288 25.905 4.60252 19.7254 4.60313 13.5456C4.60337 11.1103 6.14366 9.56308 8.56881 9.56284C17.731 9.5621 26.8932 9.56198 36.0554 9.56296C38.4523 9.56308 40.0001 11.113 40.0007 13.5194C40.0032 19.8683 40.0032 26.2173 40.0012 32.5658C40.0003 34.7787 38.6832 36.1022 36.4809 36.1031C31.8232 36.106 27.1651 36.1042 22.5073 36.1043ZM6.07826 12.7489C6.06494 13.0338 6.04966 13.2105 6.04942 13.387C6.0477 15.1245 6.04856 16.8621 6.04856 18.5996C6.04856 23.1665 6.0499 27.7339 6.04636 32.3007C6.04599 32.8698 6.1653 33.387 6.57466 33.8294C6.69164 33.7447 6.79261 33.6759 6.88783 33.5999C10.0532 31.0848 13.2179 28.5685 16.3831 26.054C16.744 25.7664 17.0972 25.4684 17.4735 25.2025C17.8138 24.9623 18.1488 25.0312 18.4199 25.3373C18.6736 25.6247 18.651 26.0035 18.3703 26.2948C18.2535 26.4146 18.1138 26.5154 17.9817 26.6201C14.7921 29.1539 11.6021 31.6882 8.41296 34.2224C8.27679 34.3315 8.14869 34.449 7.96533 34.607C17.7543 34.607 27.4508 34.607 37.2604 34.607C37.0513 34.4377 36.9379 34.3397 36.8184 34.2504C34.2739 32.3404 31.7286 30.4321 29.1832 28.5229C28.2369 27.8126 27.2855 27.1089 26.3458 26.389C25.9718 26.103 25.9116 25.715 26.1483 25.3781C26.3956 25.0261 26.7966 24.9742 27.2029 25.2448C27.2795 25.2958 27.3502 25.3554 27.424 25.4108C30.9418 28.0468 34.4602 30.6841 37.9785 33.3195C38.1075 33.416 38.2451 33.5003 38.389 33.5979C38.5838 33.0911 38.6309 13.32 38.4438 12.8098C38.294 12.9335 38.1531 13.0458 38.0176 13.1635C33.0246 17.474 28.0325 21.7854 23.041 26.096C22.4035 26.6472 22.2058 26.6484 21.5828 26.1098C16.5677 21.7784 11.5527 17.4469 6.53701 13.1162C6.41466 13.0121 6.28582 12.9154 6.07826 12.7489ZM37.7165 11.5246C37.2454 11.1134 36.7397 11.0055 36.1861 11.0059C30.5148 11.0096 24.8429 11.0084 19.1713 11.0084C15.5746 11.0084 11.978 11.0089 8.38142 11.0074C7.83442 11.0073 7.33215 11.1185 6.89284 11.528C12.0489 15.9802 17.172 20.4039 22.3046 24.8352C27.4614 20.3819 32.5659 15.9731 37.7165 11.5246Z" fill="url(#paint0_linear_321_2614)"/>
</g>
</g>
<defs>
<linearGradient id="paint0_linear_321_2614" x1="22.3027" y1="9.56226" x2="22.3027" y2="36.1048" gradientUnits="userSpaceOnUse">
<stop stop-color="#1CDEF8"/>
<stop offset="1" stop-color="#00A4D8"/>
</linearGradient>
<clipPath id="clip0_321_2614">
<rect width="42.7824" height="42.7824" fill="white" transform="translate(0.594727 0.802979)"/>
</clipPath>
<clipPath id="clip1_321_2614">
<rect width="42.7824" height="42.7824" fill="white" transform="translate(0.594727 0.802979)"/>
</clipPath>
</defs>
</svg>
