<svg width="172" height="57" viewBox="0 0 172 57" fill="none" xmlns="http://www.w3.org/2000/svg">
<path d="M0.581543 0.239761H151.313L171.63 15.4765V56.6786L18.5417 56.7602L0.581543 40.4972V0.239761Z" fill="url(#paint0_linear_19_18098)"/>
<path d="M58.9608 27.7677C59.9422 28.333 60.4328 29.1864 60.4328 30.3277C60.4328 31.277 60.0968 32.0557 59.4248 32.6637C58.7528 33.2717 57.9262 33.5757 56.9448 33.5757H52.1928V22.3757H56.6088C57.5688 22.3757 58.3742 22.6744 59.0248 23.2717C59.6862 23.8584 60.0168 24.6104 60.0168 25.5277C60.0168 26.4557 59.6648 27.2024 58.9608 27.7677ZM56.6088 24.4397H54.4008V26.9037H56.6088C56.9502 26.9037 57.2328 26.7864 57.4568 26.5517C57.6915 26.317 57.8088 26.0237 57.8088 25.6717C57.8088 25.3197 57.6968 25.0264 57.4728 24.7917C57.2488 24.557 56.9608 24.4397 56.6088 24.4397ZM56.9448 31.5117C57.3182 31.5117 57.6275 31.389 57.8728 31.1437C58.1182 30.8877 58.2408 30.5677 58.2408 30.1837C58.2408 29.8104 58.1182 29.501 57.8728 29.2557C57.6275 28.9997 57.3182 28.8717 56.9448 28.8717H54.4008V31.5117H56.9448ZM67.2362 25.5757H69.3002V33.5757H67.2362V32.6797C66.7349 33.4264 65.9402 33.7997 64.8522 33.7997C63.9775 33.7997 63.2522 33.5064 62.6762 32.9197C62.1109 32.333 61.8282 31.5224 61.8282 30.4877V25.5757H63.8922V30.2317C63.8922 30.765 64.0362 31.1757 64.3242 31.4637C64.6122 31.741 64.9962 31.8797 65.4762 31.8797C66.0095 31.8797 66.4362 31.7144 66.7562 31.3837C67.0762 31.053 67.2362 30.557 67.2362 29.8957V25.5757ZM76.4066 25.5757H78.6146L75.7026 33.5757C75.2866 34.7277 74.7319 35.5597 74.0386 36.0717C73.3559 36.5944 72.5026 36.829 71.4786 36.7757V34.8557C72.0332 34.8664 72.4706 34.749 72.7906 34.5037C73.1212 34.2584 73.3826 33.8637 73.5746 33.3197L70.2946 25.5757H72.5506L74.6306 30.9517L76.4066 25.5757ZM91.1008 22.3757V24.4877H88.0768V33.5757H85.8688V24.4877H82.8608V22.3757H91.1008ZM97.6003 32.5837C96.779 33.3944 95.7763 33.7997 94.5923 33.7997C93.4083 33.7997 92.4057 33.3944 91.5843 32.5837C90.7737 31.7624 90.3683 30.7597 90.3683 29.5757C90.3683 28.3917 90.7737 27.3944 91.5843 26.5837C92.4057 25.7624 93.4083 25.3517 94.5923 25.3517C95.7763 25.3517 96.779 25.7624 97.6003 26.5837C98.4217 27.3944 98.8323 28.3917 98.8323 29.5757C98.8323 30.7597 98.4217 31.7624 97.6003 32.5837ZM93.0403 31.1597C93.4563 31.5757 93.9737 31.7837 94.5923 31.7837C95.211 31.7837 95.7283 31.5757 96.1443 31.1597C96.5603 30.7437 96.7683 30.2157 96.7683 29.5757C96.7683 28.9357 96.5603 28.4077 96.1443 27.9917C95.7283 27.5757 95.211 27.3677 94.5923 27.3677C93.9737 27.3677 93.4563 27.5757 93.0403 27.9917C92.635 28.4077 92.4323 28.9357 92.4323 29.5757C92.4323 30.2157 92.635 30.7437 93.0403 31.1597ZM107.66 33.5757H105.26L102.348 29.9437V33.5757H100.284V22.3757H102.348V29.0957L105.1 25.5757H107.564L104.348 29.5277L107.66 33.5757ZM109.856 30.4237C110.134 31.4264 110.886 31.9277 112.112 31.9277C112.902 31.9277 113.499 31.661 113.904 31.1277L115.568 32.0877C114.779 33.229 113.616 33.7997 112.08 33.7997C110.758 33.7997 109.696 33.3997 108.896 32.5997C108.096 31.7997 107.696 30.7917 107.696 29.5757C107.696 28.3704 108.091 27.3677 108.88 26.5677C109.67 25.757 110.683 25.3517 111.92 25.3517C113.094 25.3517 114.059 25.757 114.816 26.5677C115.584 27.3784 115.968 28.381 115.968 29.5757C115.968 29.8424 115.942 30.125 115.888 30.4237H109.856ZM109.824 28.8237H113.904C113.787 28.2797 113.542 27.8744 113.168 27.6077C112.806 27.341 112.39 27.2077 111.92 27.2077C111.366 27.2077 110.907 27.3517 110.544 27.6397C110.182 27.917 109.942 28.3117 109.824 28.8237ZM121.857 25.3517C122.732 25.3517 123.452 25.645 124.017 26.2317C124.593 26.8184 124.881 27.629 124.881 28.6637V33.5757H122.817V28.9197C122.817 28.3864 122.673 27.981 122.385 27.7037C122.097 27.4157 121.713 27.2717 121.233 27.2717C120.7 27.2717 120.273 27.437 119.953 27.7677C119.633 28.0984 119.473 28.5944 119.473 29.2557V33.5757H117.409V25.5757H119.473V26.4717C119.975 25.725 120.769 25.3517 121.857 25.3517Z" fill="black"/>
<defs>
<linearGradient id="paint0_linear_19_18098" x1="0.635603" y1="51.6641" x2="168.602" y2="35.8114" gradientUnits="userSpaceOnUse">
<stop stop-color="#F6C478"/>
<stop offset="0.0001" stop-color="#A3743C"/>
<stop offset="0.492708" stop-color="#FAC579" stop-opacity="0.9"/>
<stop offset="1" stop-color="#A3743C"/>
</linearGradient>
</defs>
</svg>
