<svg width="141" height="114" viewBox="0 0 141 114" fill="none" xmlns="http://www.w3.org/2000/svg">
<g filter="url(#filter0_d_75_2858)">
<path d="M84.0078 43.7153H56.9924C49.5322 43.7153 43.4846 49.7354 43.4846 57.1616C43.4846 59.7486 44.2318 62.1574 45.5038 64.2081L43.4846 70.6078L49.9135 68.5978C51.9737 69.864 54.3927 70.6078 56.9924 70.6078H84.0078C91.468 70.6078 97.5156 64.5877 97.5156 57.1616C97.5156 49.7354 91.468 43.7153 84.0078 43.7153Z" fill="#1D1D1D"/>
</g>
<path d="M84.0078 43.7153H56.9924C49.5322 43.7153 43.4846 49.7354 43.4846 57.1616C43.4846 59.7486 44.2318 62.1574 45.5038 64.2081L43.4846 70.6078L49.9135 68.5978C51.9737 69.864 54.3927 70.6078 56.9924 70.6078H84.0078C91.468 70.6078 97.5156 64.5877 97.5156 57.1616C97.5156 49.7354 91.468 43.7153 84.0078 43.7153Z" stroke="#E3B36F" stroke-opacity="0.5" stroke-linecap="round" stroke-linejoin="round"/>
<path d="M84.0078 43.7153H56.9924C49.5322 43.7153 43.4846 49.7354 43.4846 57.1616C43.4846 59.7486 44.2318 62.1574 45.5038 64.2081L43.4846 70.6078L49.9135 68.5978C51.9737 69.864 54.3927 70.6078 56.9924 70.6078H84.0078C91.468 70.6078 97.5156 64.5877 97.5156 57.1616C97.5156 49.7354 91.468 43.7153 84.0078 43.7153Z" stroke="white" stroke-width="0.5" stroke-linecap="round" stroke-linejoin="round"/>
<path fill-rule="evenodd" clip-rule="evenodd" d="M49.2737 85.9748C49.2737 84.9137 48.4099 84.054 47.344 84.054C46.278 84.054 45.4143 84.9137 45.4143 85.9748C45.4143 87.0359 46.278 87.8957 47.344 87.8957C48.4099 87.8957 49.2737 87.0359 49.2737 85.9748Z" stroke="#E3B36F" stroke-linejoin="round"/>
<path fill-rule="evenodd" clip-rule="evenodd" d="M57.0073 85.9748C57.0073 84.9137 56.1436 84.054 55.0776 84.054C54.0124 84.054 53.1479 84.9137 53.1479 85.9748C53.1479 87.0359 54.0124 87.8957 55.0776 87.8957C56.1436 87.8957 57.0073 87.0359 57.0073 85.9748Z" stroke="#E3B36F" stroke-linejoin="round"/>
<path fill-rule="evenodd" clip-rule="evenodd" d="M64.7109 85.9748C64.7109 84.9137 63.8472 84.054 62.7812 84.054C61.7153 84.054 60.8516 84.9137 60.8516 85.9748C60.8516 87.0359 61.7153 87.8957 62.7812 87.8957C63.8472 87.8957 64.7109 87.0359 64.7109 85.9748Z" stroke="#E3B36F" stroke-linejoin="round"/>
<path d="M56.9923 36.0317C45.2691 36.0317 35.7659 45.4925 35.7659 57.1615" stroke="#E3B36F" stroke-linejoin="round"/>
<path d="M84.0078 78.2912C95.731 78.2912 105.234 68.8304 105.234 57.1614" stroke="#E3B36F" stroke-linejoin="round"/>
<g filter="url(#filter1_d_75_2858)">
<path d="M73.5506 62.924H67.4497V60.1979C67.4497 58.5214 68.8151 57.1614 70.5001 57.1614C72.1844 57.1614 73.5506 58.5214 73.5506 60.1979V62.924Z" fill="#1D1D1D"/>
</g>
<path d="M73.5506 62.924H67.4497V60.1979C67.4497 58.5214 68.8151 57.1614 70.5001 57.1614C72.1844 57.1614 73.5506 58.5214 73.5506 60.1979V62.924Z" stroke="#E3B36F" stroke-opacity="0.5" stroke-linecap="round" stroke-linejoin="round"/>
<path d="M73.5506 62.924H67.4497V60.1979C67.4497 58.5214 68.8151 57.1614 70.5001 57.1614C72.1844 57.1614 73.5506 58.5214 73.5506 60.1979V62.924Z" stroke="white" stroke-width="0.5" stroke-linecap="round" stroke-linejoin="round"/>
<g filter="url(#filter2_d_75_2858)">
<path d="M86.055 62.924H79.9541V60.1979C79.9541 58.5214 81.3195 57.1614 83.0045 57.1614C84.6888 57.1614 86.055 58.5214 86.055 60.1979V62.924Z" fill="#1D1D1D"/>
</g>
<path d="M86.055 62.924H79.9541V60.1979C79.9541 58.5214 81.3195 57.1614 83.0045 57.1614C84.6888 57.1614 86.055 58.5214 86.055 60.1979V62.924Z" stroke="#E3B36F" stroke-opacity="0.5" stroke-linecap="round" stroke-linejoin="round"/>
<path d="M86.055 62.924H79.9541V60.1979C79.9541 58.5214 81.3195 57.1614 83.0045 57.1614C84.6888 57.1614 86.055 58.5214 86.055 60.1979V62.924Z" stroke="white" stroke-width="0.5" stroke-linecap="round" stroke-linejoin="round"/>
<g filter="url(#filter3_d_75_2858)">
<path d="M61.0076 62.924H54.9067V60.1979C54.9067 58.5214 56.2722 57.1614 57.9572 57.1614C59.6414 57.1614 61.0076 58.5214 61.0076 60.1979V62.924Z" fill="#1D1D1D"/>
</g>
<path d="M61.0076 62.924H54.9067V60.1979C54.9067 58.5214 56.2722 57.1614 57.9572 57.1614C59.6414 57.1614 61.0076 58.5214 61.0076 60.1979V62.924Z" stroke="#E3B36F" stroke-opacity="0.5" stroke-linecap="round" stroke-linejoin="round"/>
<path d="M61.0076 62.924H54.9067V60.1979C54.9067 58.5214 56.2722 57.1614 57.9572 57.1614C59.6414 57.1614 61.0076 58.5214 61.0076 60.1979V62.924Z" stroke="white" stroke-width="0.5" stroke-linecap="round" stroke-linejoin="round"/>
<path fill-rule="evenodd" clip-rule="evenodd" d="M47.344 78.2913H62.7814C67.0444 78.2913 70.5001 81.732 70.5001 85.9748C70.5001 87.4539 70.0732 88.83 69.3461 90.0018L72.4297 95.5793L66.8267 92.5097C65.6489 93.2335 64.2664 93.6584 62.7814 93.6584H47.344C43.0809 93.6584 39.6252 90.2177 39.6252 85.9748C39.6252 81.732 43.0809 78.2913 47.344 78.2913Z" stroke="#E3B36F" stroke-linejoin="round"/>
<path fill-rule="evenodd" clip-rule="evenodd" d="M105.234 80.2121C105.234 79.151 104.37 78.2913 103.304 78.2913C102.238 78.2913 101.375 79.151 101.375 80.2121C101.375 81.2732 102.238 82.133 103.304 82.133C104.37 82.133 105.234 81.2732 105.234 80.2121Z" stroke="white" stroke-opacity="0.32" stroke-linejoin="round"/>
<path fill-rule="evenodd" clip-rule="evenodd" d="M83.8132 35.0713C83.8132 34.0102 82.9487 33.1504 81.8835 33.1504C80.8176 33.1504 79.9539 34.0102 79.9539 35.0713C79.9539 36.1324 80.8176 36.9922 81.8835 36.9922C82.9487 36.9922 83.8132 36.1324 83.8132 35.0713Z" stroke="white" stroke-opacity="0.32" stroke-linejoin="round"/>
<path fill-rule="evenodd" clip-rule="evenodd" d="M91.7265 93.6584C91.7265 92.5973 90.8628 91.7375 89.7969 91.7375C88.7309 91.7375 87.8672 92.5973 87.8672 93.6584C87.8672 94.7195 88.7309 95.5793 89.7969 95.5793C90.8628 95.5793 91.7265 94.7195 91.7265 93.6584Z" stroke="#E3B36F" stroke-linejoin="round"/>
<path d="M56.9922 32.1899V39.8735" stroke="white" stroke-opacity="0.64" stroke-linejoin="round"/>
<path d="M31.9065 57.1614H39.6252" stroke="white" stroke-opacity="0.64" stroke-linejoin="round"/>
<path d="M109.093 57.1614H101.375" stroke="white" stroke-opacity="0.32" stroke-linejoin="round"/>
<path d="M84.0078 82.133V74.4495" stroke="white" stroke-opacity="0.32" stroke-linejoin="round"/>
<path fill-rule="evenodd" clip-rule="evenodd" d="M39.6252 28.3481C39.6252 30.4696 37.8977 32.1892 35.7666 32.1899C37.8977 32.1907 39.6252 33.9103 39.6252 36.0317C39.6252 33.9103 41.3519 32.1907 43.4838 32.1899C41.3519 32.1892 39.6252 30.4696 39.6252 28.3481Z" stroke="#E3B36F" stroke-linejoin="round"/>
<g filter="url(#filter4_d_75_2858)">
<path d="M104.612 29.8202C103.783 28.9958 102.44 28.9958 101.611 29.8202C101.522 29.9086 101.445 30.0039 101.375 30.103C101.305 30.0039 101.228 29.9086 101.139 29.8202C100.31 28.9958 98.9661 28.9958 98.1371 29.8202C97.3081 30.6455 97.3081 31.9832 98.1371 32.8091L101.375 36.0316L104.612 32.8091C105.441 31.9832 105.441 30.6455 104.612 29.8202Z" fill="#1D1D1D"/>
</g>
<path d="M104.612 29.8202C103.783 28.9958 102.44 28.9958 101.611 29.8202C101.522 29.9086 101.445 30.0039 101.375 30.103C101.305 30.0039 101.228 29.9086 101.139 29.8202C100.31 28.9958 98.9661 28.9958 98.1371 29.8202C97.3081 30.6455 97.3081 31.9832 98.1371 32.8091L101.375 36.0316L104.612 32.8091C105.441 31.9832 105.441 30.6455 104.612 29.8202Z" stroke="#E3B36F" stroke-opacity="0.5" stroke-linecap="round" stroke-linejoin="round"/>
<path d="M104.612 29.8202C103.783 28.9958 102.44 28.9958 101.611 29.8202C101.522 29.9086 101.445 30.0039 101.375 30.103C101.305 30.0039 101.228 29.9086 101.139 29.8202C100.31 28.9958 98.9661 28.9958 98.1371 29.8202C97.3081 30.6455 97.3081 31.9832 98.1371 32.8091L101.375 36.0316L104.612 32.8091C105.441 31.9832 105.441 30.6455 104.612 29.8202Z" stroke="white" stroke-width="0.5" stroke-linecap="round" stroke-linejoin="round"/>
<path fill-rule="evenodd" clip-rule="evenodd" d="M91.7266 24.5063V39.8735H97.5156L101.375 43.7152L105.234 39.8735H111.023V24.5063H91.7266Z" stroke="#E3B36F" stroke-linejoin="round"/>
<g filter="url(#filter5_d_75_2858)">
<path d="M59.8867 29.3086C59.8867 27.7173 58.5907 26.4272 56.9922 26.4272C55.3936 26.4272 54.0977 27.7173 54.0977 29.3086C54.0977 30.8998 55.3936 32.1899 56.9922 32.1899C58.5907 32.1899 59.8867 30.8998 59.8867 29.3086Z" fill="#1D1D1D"/>
</g>
<path d="M59.8867 29.3086C59.8867 27.7173 58.5907 26.4272 56.9922 26.4272C55.3936 26.4272 54.0977 27.7173 54.0977 29.3086C54.0977 30.8998 55.3936 32.1899 56.9922 32.1899C58.5907 32.1899 59.8867 30.8998 59.8867 29.3086Z" stroke="#E3B36F" stroke-opacity="0.5" stroke-linecap="round" stroke-linejoin="round"/>
<path d="M59.8867 29.3086C59.8867 27.7173 58.5907 26.4272 56.9922 26.4272C55.3936 26.4272 54.0977 27.7173 54.0977 29.3086C54.0977 30.8998 55.3936 32.1899 56.9922 32.1899C58.5907 32.1899 59.8867 30.8998 59.8867 29.3086Z" stroke="white" stroke-width="0.5" stroke-linecap="round" stroke-linejoin="round"/>
<g filter="url(#filter6_d_75_2858)">
<path d="M29.0119 54.28C27.4134 54.28 26.1174 55.5701 26.1174 57.1614C26.1174 58.7526 27.4134 60.0427 29.0119 60.0427C30.6105 60.0427 31.9065 58.7526 31.9065 57.1614C31.9065 55.5701 30.6105 54.28 29.0119 54.28Z" fill="#1D1D1D"/>
</g>
<path d="M29.0119 54.28C27.4134 54.28 26.1174 55.5701 26.1174 57.1614C26.1174 58.7526 27.4134 60.0427 29.0119 60.0427C30.6105 60.0427 31.9065 58.7526 31.9065 57.1614C31.9065 55.5701 30.6105 54.28 29.0119 54.28Z" stroke="#E3B36F" stroke-opacity="0.5" stroke-linecap="round" stroke-linejoin="round"/>
<path d="M29.0119 54.28C27.4134 54.28 26.1174 55.5701 26.1174 57.1614C26.1174 58.7526 27.4134 60.0427 29.0119 60.0427C30.6105 60.0427 31.9065 58.7526 31.9065 57.1614C31.9065 55.5701 30.6105 54.28 29.0119 54.28Z" stroke="white" stroke-width="0.5" stroke-linecap="round" stroke-linejoin="round"/>
<g filter="url(#filter7_d_75_2858)">
<path d="M111.988 60.0427C113.587 60.0427 114.883 58.7526 114.883 57.1614C114.883 55.5701 113.587 54.28 111.988 54.28C110.389 54.28 109.094 55.5701 109.094 57.1614C109.094 58.7526 110.389 60.0427 111.988 60.0427Z" fill="#1D1D1D"/>
</g>
<path d="M111.988 60.0427C113.587 60.0427 114.883 58.7526 114.883 57.1614C114.883 55.5701 113.587 54.28 111.988 54.28C110.389 54.28 109.094 55.5701 109.094 57.1614C109.094 58.7526 110.389 60.0427 111.988 60.0427Z" stroke="#E3B36F" stroke-opacity="0.5" stroke-linecap="round" stroke-linejoin="round"/>
<path d="M111.988 60.0427C113.587 60.0427 114.883 58.7526 114.883 57.1614C114.883 55.5701 113.587 54.28 111.988 54.28C110.389 54.28 109.094 55.5701 109.094 57.1614C109.094 58.7526 110.389 60.0427 111.988 60.0427Z" stroke="white" stroke-width="0.5" stroke-linecap="round" stroke-linejoin="round"/>
<g filter="url(#filter8_d_75_2858)">
<path d="M81.1133 85.0144C81.1133 86.6057 82.4093 87.8957 84.0078 87.8957C85.6063 87.8957 86.9023 86.6057 86.9023 85.0144C86.9023 83.4231 85.6063 82.1331 84.0078 82.1331C82.4093 82.1331 81.1133 83.4231 81.1133 85.0144Z" fill="#1D1D1D"/>
</g>
<path d="M81.1133 85.0144C81.1133 86.6057 82.4093 87.8957 84.0078 87.8957C85.6063 87.8957 86.9023 86.6057 86.9023 85.0144C86.9023 83.4231 85.6063 82.1331 84.0078 82.1331C82.4093 82.1331 81.1133 83.4231 81.1133 85.0144Z" stroke="#E3B36F" stroke-opacity="0.5" stroke-linecap="round" stroke-linejoin="round"/>
<path d="M81.1133 85.0144C81.1133 86.6057 82.4093 87.8957 84.0078 87.8957C85.6063 87.8957 86.9023 86.6057 86.9023 85.0144C86.9023 83.4231 85.6063 82.1331 84.0078 82.1331C82.4093 82.1331 81.1133 83.4231 81.1133 85.0144Z" stroke="white" stroke-width="0.5" stroke-linecap="round" stroke-linejoin="round"/>
<g filter="url(#filter9_d_75_2858)">
<path d="M60.8515 54.28C60.8515 52.6887 59.5556 51.3987 57.957 51.3987C56.3585 51.3987 55.0625 52.6887 55.0625 54.28C55.0625 55.8713 56.3585 57.1613 57.957 57.1613C59.5556 57.1613 60.8515 55.8713 60.8515 54.28Z" fill="#1D1D1D"/>
</g>
<path d="M60.8515 54.28C60.8515 52.6887 59.5556 51.3987 57.957 51.3987C56.3585 51.3987 55.0625 52.6887 55.0625 54.28C55.0625 55.8713 56.3585 57.1613 57.957 57.1613C59.5556 57.1613 60.8515 55.8713 60.8515 54.28Z" stroke="#E3B36F" stroke-opacity="0.5" stroke-linecap="round" stroke-linejoin="round"/>
<path d="M60.8515 54.28C60.8515 52.6887 59.5556 51.3987 57.957 51.3987C56.3585 51.3987 55.0625 52.6887 55.0625 54.28C55.0625 55.8713 56.3585 57.1613 57.957 57.1613C59.5556 57.1613 60.8515 55.8713 60.8515 54.28Z" stroke="white" stroke-width="0.5" stroke-linecap="round" stroke-linejoin="round"/>
<g filter="url(#filter10_d_75_2858)">
<path d="M73.3945 54.28C73.3945 52.6887 72.0985 51.3987 70.5 51.3987C68.9014 51.3987 67.6055 52.6887 67.6055 54.28C67.6055 55.8713 68.9014 57.1613 70.5 57.1613C72.0985 57.1613 73.3945 55.8713 73.3945 54.28Z" fill="#1D1D1D"/>
</g>
<path d="M73.3945 54.28C73.3945 52.6887 72.0985 51.3987 70.5 51.3987C68.9014 51.3987 67.6055 52.6887 67.6055 54.28C67.6055 55.8713 68.9014 57.1613 70.5 57.1613C72.0985 57.1613 73.3945 55.8713 73.3945 54.28Z" stroke="#E3B36F" stroke-opacity="0.5" stroke-linecap="round" stroke-linejoin="round"/>
<path d="M73.3945 54.28C73.3945 52.6887 72.0985 51.3987 70.5 51.3987C68.9014 51.3987 67.6055 52.6887 67.6055 54.28C67.6055 55.8713 68.9014 57.1613 70.5 57.1613C72.0985 57.1613 73.3945 55.8713 73.3945 54.28Z" stroke="white" stroke-width="0.5" stroke-linecap="round" stroke-linejoin="round"/>
<g filter="url(#filter11_d_75_2858)">
<path d="M85.8989 54.28C85.8989 52.6887 84.6029 51.3987 83.0044 51.3987C81.4058 51.3987 80.1099 52.6887 80.1099 54.28C80.1099 55.8713 81.4058 57.1613 83.0044 57.1613C84.6029 57.1613 85.8989 55.8713 85.8989 54.28Z" fill="#1D1D1D"/>
</g>
<path d="M85.8989 54.28C85.8989 52.6887 84.6029 51.3987 83.0044 51.3987C81.4058 51.3987 80.1099 52.6887 80.1099 54.28C80.1099 55.8713 81.4058 57.1613 83.0044 57.1613C84.6029 57.1613 85.8989 55.8713 85.8989 54.28Z" stroke="#E3B36F" stroke-opacity="0.5" stroke-linecap="round" stroke-linejoin="round"/>
<path d="M85.8989 54.28C85.8989 52.6887 84.6029 51.3987 83.0044 51.3987C81.4058 51.3987 80.1099 52.6887 80.1099 54.28C80.1099 55.8713 81.4058 57.1613 83.0044 57.1613C84.6029 57.1613 85.8989 55.8713 85.8989 54.28Z" stroke="white" stroke-width="0.5" stroke-linecap="round" stroke-linejoin="round"/>
<defs>
<filter id="filter0_d_75_2858" x="19.4846" y="19.7153" width="102.031" height="74.8923" filterUnits="userSpaceOnUse" color-interpolation-filters="sRGB">
<feFlood flood-opacity="0" result="BackgroundImageFix"/>
<feColorMatrix in="SourceAlpha" type="matrix" values="0 0 0 0 0 0 0 0 0 0 0 0 0 0 0 0 0 0 127 0" result="hardAlpha"/>
<feOffset/>
<feGaussianBlur stdDeviation="12"/>
<feComposite in2="hardAlpha" operator="out"/>
<feColorMatrix type="matrix" values="0 0 0 0 1 0 0 0 0 1 0 0 0 0 1 0 0 0 0.32 0"/>
<feBlend mode="normal" in2="BackgroundImageFix" result="effect1_dropShadow_75_2858"/>
<feBlend mode="normal" in="SourceGraphic" in2="effect1_dropShadow_75_2858" result="shape"/>
</filter>
<filter id="filter1_d_75_2858" x="43.4497" y="33.1614" width="54.1008" height="53.7627" filterUnits="userSpaceOnUse" color-interpolation-filters="sRGB">
<feFlood flood-opacity="0" result="BackgroundImageFix"/>
<feColorMatrix in="SourceAlpha" type="matrix" values="0 0 0 0 0 0 0 0 0 0 0 0 0 0 0 0 0 0 127 0" result="hardAlpha"/>
<feOffset/>
<feGaussianBlur stdDeviation="12"/>
<feComposite in2="hardAlpha" operator="out"/>
<feColorMatrix type="matrix" values="0 0 0 0 1 0 0 0 0 1 0 0 0 0 1 0 0 0 0.32 0"/>
<feBlend mode="normal" in2="BackgroundImageFix" result="effect1_dropShadow_75_2858"/>
<feBlend mode="normal" in="SourceGraphic" in2="effect1_dropShadow_75_2858" result="shape"/>
</filter>
<filter id="filter2_d_75_2858" x="55.9541" y="33.1614" width="54.1008" height="53.7627" filterUnits="userSpaceOnUse" color-interpolation-filters="sRGB">
<feFlood flood-opacity="0" result="BackgroundImageFix"/>
<feColorMatrix in="SourceAlpha" type="matrix" values="0 0 0 0 0 0 0 0 0 0 0 0 0 0 0 0 0 0 127 0" result="hardAlpha"/>
<feOffset/>
<feGaussianBlur stdDeviation="12"/>
<feComposite in2="hardAlpha" operator="out"/>
<feColorMatrix type="matrix" values="0 0 0 0 1 0 0 0 0 1 0 0 0 0 1 0 0 0 0.32 0"/>
<feBlend mode="normal" in2="BackgroundImageFix" result="effect1_dropShadow_75_2858"/>
<feBlend mode="normal" in="SourceGraphic" in2="effect1_dropShadow_75_2858" result="shape"/>
</filter>
<filter id="filter3_d_75_2858" x="30.9067" y="33.1614" width="54.1008" height="53.7627" filterUnits="userSpaceOnUse" color-interpolation-filters="sRGB">
<feFlood flood-opacity="0" result="BackgroundImageFix"/>
<feColorMatrix in="SourceAlpha" type="matrix" values="0 0 0 0 0 0 0 0 0 0 0 0 0 0 0 0 0 0 127 0" result="hardAlpha"/>
<feOffset/>
<feGaussianBlur stdDeviation="12"/>
<feComposite in2="hardAlpha" operator="out"/>
<feColorMatrix type="matrix" values="0 0 0 0 1 0 0 0 0 1 0 0 0 0 1 0 0 0 0.32 0"/>
<feBlend mode="normal" in2="BackgroundImageFix" result="effect1_dropShadow_75_2858"/>
<feBlend mode="normal" in="SourceGraphic" in2="effect1_dropShadow_75_2858" result="shape"/>
</filter>
<filter id="filter4_d_75_2858" x="73.5154" y="5.2019" width="55.7188" height="54.8298" filterUnits="userSpaceOnUse" color-interpolation-filters="sRGB">
<feFlood flood-opacity="0" result="BackgroundImageFix"/>
<feColorMatrix in="SourceAlpha" type="matrix" values="0 0 0 0 0 0 0 0 0 0 0 0 0 0 0 0 0 0 127 0" result="hardAlpha"/>
<feOffset/>
<feGaussianBlur stdDeviation="12"/>
<feComposite in2="hardAlpha" operator="out"/>
<feColorMatrix type="matrix" values="0 0 0 0 1 0 0 0 0 1 0 0 0 0 1 0 0 0 0.32 0"/>
<feBlend mode="normal" in2="BackgroundImageFix" result="effect1_dropShadow_75_2858"/>
<feBlend mode="normal" in="SourceGraphic" in2="effect1_dropShadow_75_2858" result="shape"/>
</filter>
<filter id="filter5_d_75_2858" x="30.0977" y="2.42725" width="53.7891" height="53.7627" filterUnits="userSpaceOnUse" color-interpolation-filters="sRGB">
<feFlood flood-opacity="0" result="BackgroundImageFix"/>
<feColorMatrix in="SourceAlpha" type="matrix" values="0 0 0 0 0 0 0 0 0 0 0 0 0 0 0 0 0 0 127 0" result="hardAlpha"/>
<feOffset/>
<feGaussianBlur stdDeviation="12"/>
<feComposite in2="hardAlpha" operator="out"/>
<feColorMatrix type="matrix" values="0 0 0 0 1 0 0 0 0 1 0 0 0 0 1 0 0 0 0.32 0"/>
<feBlend mode="normal" in2="BackgroundImageFix" result="effect1_dropShadow_75_2858"/>
<feBlend mode="normal" in="SourceGraphic" in2="effect1_dropShadow_75_2858" result="shape"/>
</filter>
<filter id="filter6_d_75_2858" x="2.11743" y="30.28" width="53.7891" height="53.7627" filterUnits="userSpaceOnUse" color-interpolation-filters="sRGB">
<feFlood flood-opacity="0" result="BackgroundImageFix"/>
<feColorMatrix in="SourceAlpha" type="matrix" values="0 0 0 0 0 0 0 0 0 0 0 0 0 0 0 0 0 0 127 0" result="hardAlpha"/>
<feOffset/>
<feGaussianBlur stdDeviation="12"/>
<feComposite in2="hardAlpha" operator="out"/>
<feColorMatrix type="matrix" values="0 0 0 0 1 0 0 0 0 1 0 0 0 0 1 0 0 0 0.32 0"/>
<feBlend mode="normal" in2="BackgroundImageFix" result="effect1_dropShadow_75_2858"/>
<feBlend mode="normal" in="SourceGraphic" in2="effect1_dropShadow_75_2858" result="shape"/>
</filter>
<filter id="filter7_d_75_2858" x="85.0935" y="30.28" width="53.7891" height="53.7627" filterUnits="userSpaceOnUse" color-interpolation-filters="sRGB">
<feFlood flood-opacity="0" result="BackgroundImageFix"/>
<feColorMatrix in="SourceAlpha" type="matrix" values="0 0 0 0 0 0 0 0 0 0 0 0 0 0 0 0 0 0 127 0" result="hardAlpha"/>
<feOffset/>
<feGaussianBlur stdDeviation="12"/>
<feComposite in2="hardAlpha" operator="out"/>
<feColorMatrix type="matrix" values="0 0 0 0 1 0 0 0 0 1 0 0 0 0 1 0 0 0 0.32 0"/>
<feBlend mode="normal" in2="BackgroundImageFix" result="effect1_dropShadow_75_2858"/>
<feBlend mode="normal" in="SourceGraphic" in2="effect1_dropShadow_75_2858" result="shape"/>
</filter>
<filter id="filter8_d_75_2858" x="57.1133" y="58.1331" width="53.7891" height="53.7627" filterUnits="userSpaceOnUse" color-interpolation-filters="sRGB">
<feFlood flood-opacity="0" result="BackgroundImageFix"/>
<feColorMatrix in="SourceAlpha" type="matrix" values="0 0 0 0 0 0 0 0 0 0 0 0 0 0 0 0 0 0 127 0" result="hardAlpha"/>
<feOffset/>
<feGaussianBlur stdDeviation="12"/>
<feComposite in2="hardAlpha" operator="out"/>
<feColorMatrix type="matrix" values="0 0 0 0 1 0 0 0 0 1 0 0 0 0 1 0 0 0 0.32 0"/>
<feBlend mode="normal" in2="BackgroundImageFix" result="effect1_dropShadow_75_2858"/>
<feBlend mode="normal" in="SourceGraphic" in2="effect1_dropShadow_75_2858" result="shape"/>
</filter>
<filter id="filter9_d_75_2858" x="31.0625" y="27.3987" width="53.7891" height="53.7627" filterUnits="userSpaceOnUse" color-interpolation-filters="sRGB">
<feFlood flood-opacity="0" result="BackgroundImageFix"/>
<feColorMatrix in="SourceAlpha" type="matrix" values="0 0 0 0 0 0 0 0 0 0 0 0 0 0 0 0 0 0 127 0" result="hardAlpha"/>
<feOffset/>
<feGaussianBlur stdDeviation="12"/>
<feComposite in2="hardAlpha" operator="out"/>
<feColorMatrix type="matrix" values="0 0 0 0 1 0 0 0 0 1 0 0 0 0 1 0 0 0 0.32 0"/>
<feBlend mode="normal" in2="BackgroundImageFix" result="effect1_dropShadow_75_2858"/>
<feBlend mode="normal" in="SourceGraphic" in2="effect1_dropShadow_75_2858" result="shape"/>
</filter>
<filter id="filter10_d_75_2858" x="43.6055" y="27.3987" width="53.7891" height="53.7627" filterUnits="userSpaceOnUse" color-interpolation-filters="sRGB">
<feFlood flood-opacity="0" result="BackgroundImageFix"/>
<feColorMatrix in="SourceAlpha" type="matrix" values="0 0 0 0 0 0 0 0 0 0 0 0 0 0 0 0 0 0 127 0" result="hardAlpha"/>
<feOffset/>
<feGaussianBlur stdDeviation="12"/>
<feComposite in2="hardAlpha" operator="out"/>
<feColorMatrix type="matrix" values="0 0 0 0 1 0 0 0 0 1 0 0 0 0 1 0 0 0 0.32 0"/>
<feBlend mode="normal" in2="BackgroundImageFix" result="effect1_dropShadow_75_2858"/>
<feBlend mode="normal" in="SourceGraphic" in2="effect1_dropShadow_75_2858" result="shape"/>
</filter>
<filter id="filter11_d_75_2858" x="56.1099" y="27.3987" width="53.7891" height="53.7627" filterUnits="userSpaceOnUse" color-interpolation-filters="sRGB">
<feFlood flood-opacity="0" result="BackgroundImageFix"/>
<feColorMatrix in="SourceAlpha" type="matrix" values="0 0 0 0 0 0 0 0 0 0 0 0 0 0 0 0 0 0 127 0" result="hardAlpha"/>
<feOffset/>
<feGaussianBlur stdDeviation="12"/>
<feComposite in2="hardAlpha" operator="out"/>
<feColorMatrix type="matrix" values="0 0 0 0 1 0 0 0 0 1 0 0 0 0 1 0 0 0 0.32 0"/>
<feBlend mode="normal" in2="BackgroundImageFix" result="effect1_dropShadow_75_2858"/>
<feBlend mode="normal" in="SourceGraphic" in2="effect1_dropShadow_75_2858" result="shape"/>
</filter>
</defs>
</svg>
