<svg width="1095" height="253" viewBox="0 0 1095 253" fill="none" xmlns="http://www.w3.org/2000/svg">
<g opacity="0.1">
<path d="M1056.6 125.338C1071.34 133.708 1105.12 145.908 1089.77 166.018C1079.99 178.828 1063.35 184.928 1048.57 189.718C1009.64 202.358 969.18 202.208 929.32 209.428C903.49 214.108 880.45 227.698 855.48 235.428C832.79 242.428 810 244.498 786.41 245.718C756.34 247.258 730.79 247.098 701.41 238.878C669.09 229.878 637.46 218.348 604.34 217.758C533.8 216.498 472.52 264.398 398.54 249.508C354.23 240.588 311.62 226.018 266.4 221.298C243.56 218.918 212.06 221.898 191.23 210.298C174.9 201.228 166.13 194.088 145.98 190.618C103.2 183.258 58.5998 181.718 16.7298 169.758C7.86983 167.228 -4.53017 165.298 2.85983 156.758C12.0198 146.188 50.5298 147.838 63.7298 146.238C83.6698 143.818 112.21 144.738 130.63 135.648C142.05 130.008 140.63 127.378 131.5 119.648C124.35 113.648 85.9798 102.078 86.7798 90.6483C87.7798 76.1283 142.28 74.7083 151.55 74.3983C183.55 73.3283 215.7 78.5783 247.62 76.1483C310.23 71.4583 366 33.5883 429.16 28.3283C455.65 26.1083 484.77 35.8783 510 24.8283C532.38 15.0283 545.78 1.43825 570.44 1.44825C606.26 1.44825 636.12 27.6783 675.58 24.2483C705.84 21.6283 732.58 18.2483 763.06 22.6083C790.33 26.5883 817.23 32.9183 844.41 37.2983C865.75 40.7283 887.32 42.3582 908.67 45.6082C926.92 48.3782 944.17 54.8283 962.18 58.7383C981.51 62.9383 1001.13 65.7383 1020.54 69.5283C1035.4 72.4183 1067.76 74.6683 1077.14 88.5283C1061.75 99.0483 1034.51 84.0483 1016.93 89.0583C1006.1 92.1483 1007.93 89.9183 1012.93 99.1383C1018.8 109.858 1046.53 119.588 1056.6 125.338Z" stroke="#E3B36F" stroke-miterlimit="10"/>
<path d="M1047.73 123.248C1062.09 131.438 1099.41 144.838 1083.89 164.978C1074.31 177.398 1056.01 182.788 1041.73 186.978C1003.28 198.368 963.46 198.978 924.41 206.738C899.06 211.738 875.64 222.738 851.03 230.268C827.46 237.528 803.82 240.568 779.32 242.468C751.16 244.658 728.16 244.208 700.64 236.298C668.26 226.998 637.01 215.398 603.64 214.788C564.83 214.068 526.64 231.958 489.11 242.438C457.52 251.258 429.22 252.818 397.03 246.378C355.64 238.138 315.23 224.588 273.31 218.488C252 215.378 227.82 216.058 207.92 206.898C188.02 197.738 172.95 191.588 150.23 188.428C108.28 182.638 62.8098 181.958 22.2298 169.038C12.5798 165.968 0.739772 163.638 11.7798 156.038C26.6498 145.788 57.6798 147.738 75.1398 145.568C91.8398 143.488 123.96 144.728 138.48 134.568C148.53 127.568 142.25 124.128 133.91 118.048C129.1 114.548 89.2698 99.6382 92.3698 89.8882C97.1698 74.7682 151.48 75.5182 162.85 75.3882C192.59 75.0482 222.75 79.8082 252.41 76.9082C315 70.7982 370.14 32.1082 434.03 28.3382C459.03 26.8582 485.64 35.5082 509.6 25.3382C532.13 15.7882 545.9 1.91823 570.53 1.92823C606.88 1.92823 637.34 28.0482 677.53 24.4782C708.1 21.7582 735.23 18.7582 765.96 23.2382C793.27 27.2382 820.2 33.4482 847.45 37.7882C886.97 44.0982 925.05 51.5882 964.23 59.5882C984 63.5882 1003.99 66.4982 1023.75 70.5882C1034.38 72.7982 1069.12 76.5882 1071.98 89.3182C1055.2 93.8682 1026.18 81.0682 1011.36 89.1082C1001.8 94.2982 1003.96 88.1082 1006.64 97.5982C1009.23 106.738 1040.35 119.038 1047.73 123.248Z" stroke="#E3B36F" stroke-miterlimit="10"/>
<path d="M1039.09 121.158C1052.9 129.108 1093.17 143.778 1078.25 163.448C1069.25 175.368 1050.46 180.078 1036.9 183.818C998.16 194.528 957.9 195.268 918.97 204.248C868.47 215.898 821.79 234.328 769.8 239.468C744.07 242.018 722.48 240.728 697.53 233.308C665.67 223.828 635.09 212.308 602.1 211.658C565.82 210.968 530.1 226.908 495.25 237.418C463.07 247.118 433.93 250.418 400.78 244.328C360.36 236.918 321.03 224.238 280.9 215.718C261.12 211.528 240.9 210.428 222.08 202.638C200.44 193.688 180.85 189.378 157.24 186.638C115.11 181.748 65.4898 182.788 25.5298 167.448C12.7898 162.548 11.6198 159.198 24.7798 154.448C43.7798 147.578 66.8998 147.388 86.7198 144.818C94.9198 143.748 141.89 142.558 146.35 133.138C150.41 124.578 146.43 123.818 138.77 118.068C130.61 111.948 93.3298 101.288 99.4698 88.4082C105.76 75.2082 155.8 76.5882 166.53 76.4082C196.42 76.0282 227.12 81.0782 256.86 77.3582C315.92 69.9582 368.28 34.3582 428.55 29.1982C454.77 26.9282 482.94 36.1182 508.18 26.1982C531.33 17.1182 545.7 2.35817 570.64 2.36817C605.95 2.36817 636.28 27.3682 675.1 24.8982C703.27 23.0782 729.1 18.9482 757.43 22.2582C785.76 25.5682 813.57 32.1282 841.65 36.8282C879.1 43.0982 915.36 49.5082 952.36 57.6082C973.36 62.2082 994.77 65.1582 1015.86 69.4882C1030.86 72.5682 1057.51 74.6282 1067.59 87.6982C1056.54 97.3682 1025.53 86.8982 1011.41 88.9182C980.44 93.4082 1029.62 115.708 1039.09 121.158Z" stroke="#E3B36F" stroke-miterlimit="10"/>
<path d="M1030.72 119.088C1043.54 126.558 1084.39 142.218 1073.58 160.778C1066.31 173.268 1043.11 177.888 1030.5 181.078C991.88 190.868 951.5 191.638 913.14 201.818C862.87 215.138 813.63 230.078 761.85 236.328C704.69 243.228 655.31 209.408 599.78 208.328C531.92 207.008 473.71 254.138 402.78 241.868C364.02 235.158 326.62 223.868 288.99 212.978C244.53 200.098 201.09 188.388 154.83 183.978C132.23 181.838 109.6 179.808 87.0697 176.978C71.0697 174.978 47.3897 174.438 32.8297 166.738C20.4397 160.178 21.8297 157.928 35.5497 153.738C55.5497 147.668 77.9297 146.808 98.4097 144.008C111.24 142.248 172.63 140.058 145.12 118.678C139.03 113.948 99.9297 101.168 103.34 90.7384C107.67 77.4984 154.47 77.8484 165.41 77.5484C196.97 76.6784 229.66 82.6084 260.96 77.5484C320.35 68.0384 371.96 32.8484 433.45 29.4084C459.45 27.9484 486.21 35.9984 511.03 25.1684C532.82 15.6684 547.14 2.8584 570.78 2.8584C606.63 2.8584 637.59 27.7984 677.11 25.1284C705.64 23.1984 731.73 19.4484 760.42 22.8884C788.73 26.2784 816.63 32.7184 844.75 37.3984C881.76 43.5884 917.62 51.0784 954.23 58.5884C975.73 62.9884 997.51 65.9484 1018.94 70.7284C1030.46 73.2984 1058.19 76.0784 1062.53 88.6684C1045.04 95.2884 1024.33 85.0684 1006.44 89.2584C998.44 91.1384 995.14 89.0784 997.82 97.0484C1000.76 105.698 1023.76 115.038 1030.72 119.088Z" stroke="#E3B36F" stroke-miterlimit="10"/>
<path d="M1014.92 115.078C1026.09 121.868 1068.58 139.388 1062.92 156.218C1058.57 169.128 1027.29 173.798 1016.54 176.058C978.17 184.128 937.86 185.008 900.54 197.228C851.54 213.228 798.94 222.438 747.94 229.918C693.43 237.918 646.46 202.368 593.52 201.298C559.3 200.598 525.97 216.298 493.52 227.398C463.23 237.708 436.31 241.508 404.67 236.588C370.31 231.198 337.06 223.448 306.15 207.698C262.82 185.588 212.34 184.028 165.01 180.688C140.52 178.948 115.95 177.188 91.6099 173.878C79.9799 172.298 55.2399 172.628 46.4199 163.688C37.9599 155.108 53.9599 153.568 61.3299 151.778C81.0199 147.008 102.03 145.448 121.81 142.298C226.55 125.588 99.0699 113.188 118.55 88.8185C127.9 77.1185 166.64 79.5785 180.08 79.4285C209.17 79.0885 240.49 84.5285 269.22 78.1185C325.1 65.6585 374.07 33.8385 432.64 30.3285C459.64 28.7185 487.12 37.0285 512.84 25.2085C533.56 15.6985 548.71 3.94846 571.3 3.91846C594.82 3.91846 613.98 16.6685 637.3 23.0585C670.25 32.0585 704.09 20.3185 737.41 21.4785C769.09 22.5685 800.3 29.6885 831.41 35.2485C859.66 40.3085 888.01 44.0285 915.87 50.9485C937.03 56.1985 958.27 60.1985 979.73 64.0385C994.53 66.6785 1041 68.6085 1050.29 83.7085C1054.72 90.8985 1050.29 88.1885 1043.77 89.8385C1033.34 92.4585 1019.77 88.8385 1009.1 89.0685C1007.22 89.0685 989.59 88.0685 988.02 92.7685C985.51 100.198 1011.23 112.828 1014.92 115.078Z" stroke="#E3B36F" stroke-miterlimit="10"/>
<path d="M1000.53 111.328C1009.29 117.068 1054.68 137.048 1051.76 151.268C1049.11 164.218 1017.15 168.368 1007.76 170.208C967.29 178.208 925.36 178.208 886.55 193.008C839.02 211.098 785.29 216.118 735.24 223.698C681.8 231.778 637.78 195.458 585.82 193.978C524.57 192.218 474.37 240.428 410.26 231.648C378.94 227.358 348.39 222.338 323.47 202.588C283.8 171.138 214.7 180.178 167.87 177.398C144.77 176.028 121.52 174.588 98.6498 170.968C93.6998 170.188 66.8498 167.748 65.3998 160.608C63.0698 149.068 137.07 141.828 144.52 140.378C225.6 124.528 115.39 113.438 128.78 90.6682C135.99 78.4082 186.19 81.3082 196.29 81.2982C222.74 81.2982 250.64 85.0582 276.55 78.0382C332.85 62.7982 382.43 30.8382 442.8 30.9582C466.36 31.0082 489.37 35.5982 511.87 26.3182C533.5 17.4082 548.69 4.96822 571.92 4.92822C606.07 4.92822 637.83 28.3282 675.2 26.9282C704.15 25.7982 731.09 20.8282 760.2 23.8582C786.2 26.5782 811.97 31.9782 837.7 36.6082C872.7 42.9082 906.98 51.6882 941.88 58.2482C968.2 63.1982 1026.01 63.0482 1043.43 86.5382C1032.97 94.6882 1011.38 88.3382 998.43 89.2282C972.73 90.9582 984.23 100.588 1000.53 111.328Z" stroke="#E3B36F" stroke-miterlimit="10"/>
<path d="M987.69 107.908C996.23 113.528 1041.3 134.548 1038.8 147.998C1036.54 160.168 1006.34 163.378 998.16 164.908C955.91 172.838 912.87 171.698 872.92 188.848C827.23 208.498 772.42 211.788 723.46 218.108C670.73 224.908 627.23 186.498 578.13 186.588C523.79 186.728 474.95 233.258 416.24 226.588C386.82 223.218 359.81 220.178 340.63 197.588C330.43 185.588 316.13 182.978 300.76 180.588C261.01 174.438 219.57 177.168 179.48 175.168C169.76 174.688 88.4799 174.168 89.4799 157.808C90.1199 147.068 157.85 140.348 166.12 138.248C194.6 131.028 186.57 122.138 163.66 111.318C154.07 106.788 130.74 101.538 142.56 91.188C156.16 79.278 195.65 82.888 212.23 82.988C236.23 83.128 260.53 84.988 283.78 77.698C335.78 61.358 381.9 33.218 438.17 31.968C462.99 31.418 486.92 36.668 510.88 27.438C533.55 18.708 548.96 6.00801 572.82 5.95801C595.69 5.95801 614.89 17.108 637.96 23.508C666.61 31.508 694.84 24.638 723.84 23.358C782.34 20.788 844.93 36.208 901.38 50.808C921.27 55.948 941.51 59.078 961.74 62.518C981.16 65.808 1010.8 66.828 1026.5 79.448C1042.71 92.448 1018.87 89.018 1008.36 89.178C992.9 89.418 958.91 88.958 987.69 107.908Z" stroke="#E3B36F" stroke-miterlimit="10"/>
<path d="M981.87 106.338C991.61 113.008 1030.87 130.528 1031.63 144.418C1032.31 157.598 1002.88 160.618 993.63 162.298C950.52 170.138 906.88 168.618 866.45 186.788C820.45 207.438 763 210.788 713.57 216.178C664.14 221.568 620.64 182.848 574.57 183.018C522.05 183.218 475.07 229.918 418.14 223.888C401.07 222.088 376.86 220.608 361.79 211.188C354.42 206.578 353.79 201.268 348.72 195.068C339.45 183.708 327.11 180.998 312.72 178.838C270.4 172.478 226.22 176.218 183.55 174.078C178.81 173.848 100.44 172.188 101.93 158.078C103.23 145.818 167.1 139.838 176.35 137.078C202.24 129.378 187.95 120.078 169.76 111.528C160.1 106.968 136.1 102.388 148.76 91.4383C162.4 79.6483 198.4 83.7483 215.12 83.7483C239.51 83.7483 263.76 85.0783 287.28 77.4483C341.04 59.9883 388.44 31.0083 447.18 32.4483C469.89 33.0183 491.58 35.5683 513.1 26.6883C534.62 17.8083 550.49 6.5883 573.23 6.4783C594.79 6.4183 612.88 16.1483 634.48 22.6683C662.34 31.0883 689.64 26.1083 718.04 23.9983C776.92 19.6083 841.28 35.0883 897.84 50.6583C917.84 56.1583 938.27 58.9883 958.67 62.4383C975.83 65.3383 1008.02 67.1583 1021.82 79.4383C1036.29 92.3383 1013.96 88.9283 1002.71 89.0983C991.11 89.2683 957.23 89.4283 981.87 106.338Z" stroke="#E3B36F" stroke-miterlimit="10"/>
<path d="M971.45 103.488C981.7 111.638 1013.35 124.618 1017.34 138.688C1021.55 153.558 993.16 155.898 983.22 157.688C939.56 165.558 895.44 163.398 854.78 182.638C813.27 202.278 763.08 204.808 718.17 209.798C662.77 215.948 619.09 175.798 568.8 176.108C518.51 176.418 474.75 224.188 419.5 218.168C406.06 216.708 383.71 216.168 372.45 206.858C365.9 201.438 367.39 196.788 363.29 190.158C354.6 176.098 333.34 175.418 318.56 174.528C275.04 171.918 231.35 174.818 187.81 171.928C179.35 171.378 123.21 169.298 128.54 155.388C132.88 144.068 186.23 137.078 195.39 134.588C219.01 128.138 180.7 111.588 175.23 109.188C163.86 104.188 147.23 101.038 162.75 91.9983C178.47 82.8483 206.36 85.3083 223.83 85.1283C247.89 84.8883 271.29 84.9583 294.24 76.7483C343.74 59.0383 387.46 33.1683 442.02 33.3383C467.75 33.4183 491.88 36.3383 516.33 26.1883C537.13 17.5783 552.61 7.60833 574.33 7.52833C595.87 7.44833 614.43 17.0383 636.13 23.2883C664.06 31.2883 691.62 26.8283 720 24.7883C776.76 20.7183 836.69 34.9783 891 50.4983C910.76 56.1583 930.94 58.6883 951.17 62.0483C967.51 64.7483 999.05 66.0483 1011.93 78.3783C1023.39 89.3183 1012.48 88.2783 999.93 88.8083C994.8 89.0283 952.64 88.5883 971.45 103.488Z" stroke="#E3B36F" stroke-miterlimit="10"/>
<path d="M966.84 102.218C976.41 111.598 1005.9 123.138 1010.34 136.568C1015.1 150.988 992.52 152.658 981.94 154.728C937.17 163.518 891.39 160.588 849.59 180.588C807.17 200.818 754 205.178 707.76 208.288C656.84 211.708 613.53 172.538 566.86 172.918C516.86 173.318 473.98 222.208 418.86 215.248C406.86 213.728 386.2 213.448 376.86 204.118C371.86 199.118 373.17 193.318 369.7 187.808C360.78 173.618 338.48 173.938 323.81 173.298C281.81 171.458 239.81 174.298 197.81 171.358C187.81 170.638 138.44 170.358 142.99 153.888C145.57 144.668 195.14 136.688 204.23 133.248C223.81 125.808 184 110.628 179.37 108.658C167.51 103.608 153.37 100.588 169.57 92.2784C186 83.8284 211.85 86.0084 229.77 85.7284C253.11 85.3684 275.61 84.5984 297.77 76.3284C346.54 58.1084 389.6 33.2784 443.63 33.8284C469.1 34.0784 492.9 36.1984 517.06 26.3084C537.73 17.8484 553.49 8.12837 575 8.04837C596.35 7.96837 615 17.2384 636.49 23.4084C663.87 31.2584 690.95 27.5184 718.82 25.4084C775.14 21.0884 833.93 34.5584 887.68 50.4084C907.1 56.1284 926.87 58.5984 946.8 61.8184C963.69 64.5484 992.08 65.8184 1006 77.3684C1033.41 100.138 945.82 81.5884 966.84 102.218Z" stroke="#E3B36F" stroke-miterlimit="10"/>
<path d="M958.75 99.948C964.47 110.948 992.29 119.888 996.87 133.068C1001.45 146.248 982.54 148.228 972.54 150.438C928.87 160.118 881.64 155.868 840.83 176.288C802.4 195.528 754.83 200.668 712.51 202.618C659.37 205.078 614.03 166.488 565.7 166.988C519.05 167.478 478.7 214.168 427.53 210.298C417.12 209.508 394.47 208.298 386.67 199.418C382.4 194.528 383.38 188.148 379.67 183.058C369.57 169.118 340.5 171.588 325.86 171.438C285.48 171.038 244.69 174.058 204.47 169.268C196.39 168.268 161.58 165.198 169.18 151.858C176.49 139.038 213.18 139.618 220.18 130.448C229.66 117.978 150.18 105.308 182.84 92.718C221.25 77.908 265.18 91.128 304.45 75.358C355.23 54.968 397.77 33.678 454.35 35.278C475.52 35.868 495.99 35.228 515.96 27.508C537.11 19.328 554.26 9.21801 576.16 9.11801C597.42 9.01801 616.69 18.018 638.16 24.018C665.57 31.678 692.7 28.218 720.65 26.168C774.26 22.238 830.02 33.908 880.94 50.008C916.28 61.178 959.05 57.108 992.16 74.408C1030.38 94.358 951 85.028 958.75 99.948Z" stroke="#E3B36F" stroke-miterlimit="10"/>
<path d="M955.23 98.9383C960.71 115.588 1015.74 134.668 973.79 147.008C929.17 160.138 880.01 153.708 837.22 174.118C799.22 192.238 755.93 198.338 714.02 200.218C661.52 202.588 615.23 163.998 567.63 164.588C522.21 165.138 480.93 211.768 430.79 207.938C419.66 207.078 398.65 205.848 390.63 196.308C386.77 191.718 387.43 185.308 383.32 180.798C371.02 167.278 337.96 170.988 322.09 171.048C288.09 171.168 253.66 173.098 219.75 169.378C210.96 168.378 171.52 165.168 184.18 149.758C193.59 138.288 223.61 137.758 227.44 129.018C231.72 119.208 157.09 104.578 189.57 93.0183C227.57 79.4683 269.48 90.8183 307.83 74.8683C358.06 53.9983 399.73 34.4683 455.83 35.8683C476.73 36.3883 497.02 35.2183 516.73 27.6983C537.79 19.6983 555.18 9.81828 576.91 9.69828C598.06 9.61828 618.26 18.6983 639.77 24.5383C664.68 31.2983 689.34 28.9783 714.7 27.2983C770.45 23.6083 824.7 33.1283 877.7 49.9383C911.82 60.7583 951.8 57.5083 984.33 72.6683C1027.75 92.8783 950.91 85.8283 955.23 98.9383Z" stroke="#E3B36F" stroke-miterlimit="10"/>
<path d="M952.03 97.9982C954.23 112.888 1007.23 133.588 967.89 145.248C924.37 158.138 876.47 153.248 834.32 171.928C797.68 188.118 760.24 195.278 719.88 197.458C666.58 200.338 619.61 161.918 571.52 162.518C525.37 163.098 482.34 209.838 431.02 205.038C420.09 204.038 403.14 202.798 394.9 194.218C390.61 189.758 390.97 182.918 386.22 178.508C372.61 165.898 335.6 170.778 319.66 170.858C287.66 171.018 254.18 173.748 222.57 167.738C210.08 165.368 184.09 161.218 199.06 147.018C208.77 137.808 233 135.758 234.16 127.478C235.23 119.678 209.53 112.198 198.42 107.848C184.94 102.588 179.23 98.8781 196.23 93.1781C233.61 80.6581 273.83 90.2682 311.23 74.2282C360.89 52.9182 401.74 35.2282 457.23 36.2282C477.89 36.6282 497.99 35.0182 517.46 27.6882C538.46 19.7882 556.05 10.2281 577.63 10.1481C598.63 10.0581 618.77 18.8281 640.11 24.5781C664.46 31.1281 688.63 29.3782 713.46 27.7582C768.83 24.1282 821.87 32.5782 874.46 49.6582C907.83 60.5082 946.46 57.3881 978.46 71.7681C1022.05 91.4081 950.4 87.0582 952.03 97.9982Z" stroke="#E3B36F" stroke-miterlimit="10"/>
<path d="M946.29 96.2683C942.29 109.518 988.59 124.978 961.88 139.978C942 151.138 910.29 150.978 888.19 154.668C869.05 157.858 849.14 160.588 830.93 167.588C794.88 181.508 761.19 191.778 721.55 192.498C672.78 193.388 628.38 158.808 583.87 159.308C536.61 159.848 490.43 203.688 438.23 199.758C427.03 198.918 411.57 197.988 402.67 190.098C396.67 184.788 395.17 178.548 387.47 174.828C369.72 166.258 341.9 170.648 323.26 170.828C295.56 171.048 263.95 173.618 237.12 165.488C189.68 151.108 250.19 136.638 246.32 124.488C243.32 115.038 218.72 112.538 206.19 107.018C190.88 100.278 197.27 96.8583 211.26 93.0183C246.89 83.1483 283.14 89.0183 317.78 72.9083C364.1 51.3583 404.08 36.4683 456.13 37.1083C477.19 37.3683 497.75 35.5883 517.69 28.4783C539 20.8683 557.35 11.3983 579.11 11.3083C600.11 11.2183 620.61 19.7383 642.06 25.2583C663.16 30.6783 684.77 30.6683 706.39 29.2583C762.39 25.6583 814.82 30.8983 868.02 49.2583C900.32 60.4183 937.69 57.1283 968.66 71.1383C1008.6 89.2083 949.4 86.0483 946.29 96.2683Z" stroke="#E3B36F" stroke-miterlimit="10"/>
<path d="M943.62 95.4981C936.98 108.498 983.69 125.158 953.75 139.198C916.07 156.868 869.29 151.198 830.11 165.278C794.61 178.058 763.63 189.538 724.57 189.758C677.57 190.018 634.86 157.688 591.69 158.058C543.31 158.478 495.13 200.688 442.02 197.248C430.02 196.468 415.56 195.168 405.52 187.748C398.52 182.598 395.89 176.438 387.11 173.438C342.52 158.168 290.11 181.928 245.19 163.908C203.71 147.268 260.14 136.138 251.9 123.078C245.73 113.298 223.95 112.968 210.64 106.828C195.64 99.9081 205.06 96.5181 217.52 93.1081C252.32 83.5981 287.44 88.2381 321.07 72.1981C366.85 50.3581 406.16 37.1981 457.6 37.4881C478.43 37.5981 498.78 35.4881 518.5 28.5481C539.74 21.0881 558.28 11.8981 579.92 11.8181C600.78 11.7281 621.17 19.9181 642.45 25.3381C663.11 30.6081 684.19 30.8681 705.38 29.6681C760.92 26.5181 812.14 30.4681 864.84 49.0381C896.39 60.1581 932.58 57.1581 963 70.4181C1002.46 87.5881 948.69 85.5881 943.62 95.4981Z" stroke="#E3B36F" stroke-miterlimit="10"/>
<path d="M941.03 94.7884C932.15 107.138 973.17 121.228 950.38 136.268C934.93 146.448 910.92 147.468 893.17 150.268C871.93 153.588 850.17 155.948 829.69 162.798C793.75 174.798 763.24 188.148 723.69 187.328C680.34 186.428 640.56 156.658 600.18 156.928C550.38 157.258 500.1 197.628 445.85 194.698C433.06 194.008 418.94 192.398 407.85 185.378C399.99 180.378 395.96 174.628 386.42 172.188C343.89 161.288 293.68 183.188 253.04 162.188C218.49 144.298 269.81 134.738 257.14 121.788C248.23 112.588 228.91 113.818 215.92 106.958C202.93 100.098 208.58 97.5883 221.63 93.7083C255.99 83.5883 290.97 87.5083 324.33 71.5883C341.91 63.1983 358.33 53.9083 377.02 47.8883C405.78 38.6283 432.94 38.3083 462.81 37.8883C504.94 37.2483 541.94 12.5183 580.74 12.3883C621.06 12.2583 660.53 32.2483 704.42 30.0983C759.42 27.3983 809.55 30.0984 861.68 48.8484C892.51 59.9284 927.5 57.2884 957.4 69.7884C996.14 85.9584 948.1 84.9584 941.03 94.7884Z" stroke="#E3B36F" stroke-miterlimit="10"/>
<path d="M938.48 94.1281C928.33 105.768 962.74 117.998 945.34 134.128C933.15 145.458 903.81 146.568 888.66 148.768C868.66 151.668 848.48 154.048 829.14 160.008C815.74 164.138 803.89 171.548 790.57 175.718C772.45 181.408 752.15 184.188 733.18 184.608C689.47 185.608 649.64 155.658 608.98 155.788C558.45 155.958 507.63 192.268 453.22 192.118C438.62 192.118 422.08 190.118 409.22 182.578C400.7 177.578 395.49 173.008 385.39 171.028C346.39 163.398 294.27 183.868 259.3 159.368C236.68 143.508 276.79 130.858 262.1 120.458C251.97 113.278 189.1 105.048 227.67 93.6681C261.24 83.7581 295.19 86.6681 327.6 70.8181C344.87 62.3981 361.02 53.3581 379.51 47.5481C407.93 38.6081 434.84 38.8681 464.26 38.1281C505.92 37.1281 543.04 12.9881 581.62 12.8581C621.3 12.7281 660.5 32.1881 703.53 30.3981C757.84 28.1381 807.05 29.7081 858.53 48.5481C888.65 59.5481 922.46 57.3381 951.85 69.1081C958.28 71.6781 971.85 76.9081 967.73 84.8281C965.12 89.8781 941.95 90.1481 938.48 94.1281Z" stroke="#E3B36F" stroke-miterlimit="10"/>
<path d="M935.91 93.5082C923.76 104.288 955.74 118.138 938.46 133.018C926.08 143.688 904.77 144.138 889.46 146.328C869.02 149.268 848.14 151.178 828.26 157.068C814.26 161.208 802.26 169.068 788.57 173.698C770.86 179.748 750.45 181.948 731.88 181.848C691.88 181.648 655.55 154.708 617.78 154.768C565.61 154.848 512.69 189.168 456.9 189.468C441.26 189.548 424.62 187.468 410.57 180.198C401.39 175.468 395.18 171.458 384.57 169.928C350.71 165.038 295.4 183.688 267.44 157.678C252.53 143.818 282.53 127.778 266.69 119.348C254.81 113.038 194.07 105.398 233.46 93.6682C266.27 83.8882 299.24 85.8282 330.79 70.1282C347.79 61.6982 363.66 52.9182 381.92 47.3182C409.97 38.7282 436.69 39.4782 465.63 38.4782C506.86 37.0582 544.08 13.5882 582.44 13.4782C621.51 13.3482 660.44 32.2682 702.61 30.8182C756.21 28.9782 804.53 29.4982 855.38 48.3882C884.8 59.3182 917.44 57.5682 946.38 68.6382C951.82 70.7182 967.09 76.4782 963.49 84.2782C961.31 89.0282 939.47 90.3482 935.91 93.5082Z" stroke="#E3B36F" stroke-miterlimit="10"/>
<path d="M930.59 92.3484C917.26 100.018 936.69 116.738 927.65 128.538C918.8 140.098 896.65 139.948 883.87 141.618C864.68 144.108 845.37 145.818 826.56 150.498C792.89 158.878 767.65 178.308 731.08 176.198C697.31 174.198 666.96 152.468 634.23 152.378C577.83 152.228 519.68 184.188 459.9 184.038C432.11 183.968 410.65 169.338 383.9 167.448C358.23 165.638 302.07 180.128 284.09 155.108C275.44 143.108 292.95 123.108 275.18 117.308C262.61 113.238 204.81 105.648 244.6 93.3084C276.03 83.5884 307.23 84.0784 337.29 68.5884C353.62 60.1784 369.13 51.9484 386.94 46.8084C414.19 38.9484 440.64 40.4584 468.59 38.9884C509.02 36.8684 546.35 14.6484 584.3 14.5484C623.38 14.4384 662.68 32.4984 704.67 31.3184C755.48 29.8884 801.05 29.9284 849.21 47.9084C877.69 58.5484 909.46 57.3583 937.38 68.1683C942.15 70.0183 956.18 75.5484 954.71 82.6684C953.71 87.5884 933.91 90.4384 930.59 92.3484Z" stroke="#E3B36F" stroke-miterlimit="10"/>
<path d="M927.77 91.7982C913.5 98.8582 929.89 116.908 920.28 127.798C912.28 136.798 893.9 137.408 883.2 138.708C863.74 141.068 844.05 142.408 824.9 146.818C793.25 154.118 767.37 174.318 733.73 173.418C701.64 172.548 672.47 151.088 641.17 150.978C583.36 150.768 523.51 180.748 462.52 181.128C434.52 181.308 411.37 167.488 383.99 166.128C360.72 164.978 306.43 177.848 291.22 153.358C282.85 139.858 300.51 122.668 279.06 116.458C266.06 112.688 210.06 105.568 249.85 93.0582C280.68 83.3482 311.1 83.2482 340.51 67.8782C356.51 59.4982 371.87 51.5582 389.45 46.6582C416.27 39.1882 442.63 40.9482 470.08 39.2782C510.14 36.8382 547.47 15.2782 585.24 15.1582C623.73 15.0482 662.63 32.5682 703.83 31.6882C753.83 30.6282 798.7 29.8182 846.12 47.6882C873.99 58.2182 904.5 57.6882 932.06 67.7982C936.54 69.4382 951.29 74.9982 949.99 82.0082C948.99 87.4082 931.43 89.9882 927.77 91.7982Z" stroke="#E3B36F" stroke-miterlimit="10"/>
<path d="M921.7 90.7282C905.7 96.9382 916.82 112.348 908.84 122.568C903.01 130.048 887.59 131.378 879.37 132.448C859.83 134.988 840.13 135.218 820.7 138.878C790.21 144.618 761.7 167.178 730.41 166.578C718.1 166.338 709.53 161.858 698.47 157.318C682.36 150.698 667.58 147.318 650.87 147.228C592.1 146.938 530.47 173.178 468.78 174.888C440.08 175.678 414.17 163.608 385.57 162.888C366.57 162.408 316.12 172.028 304.97 149.468C296.83 133.018 312.35 120.938 286.05 114.878C270.92 111.398 220.23 104.518 261.15 92.1682C290.75 83.2282 319.15 81.1682 346.95 66.2782C389.14 43.7182 426.45 43.2182 473.14 39.6482C512.51 36.6482 549.78 16.3282 587.14 16.2382C625.63 16.1482 664.74 32.8181 705.75 32.1681C752.65 31.4381 795.47 29.7781 839.86 47.1681C865.86 57.3481 893.09 58.7482 919.54 66.6282C924.33 68.0582 940.65 72.8582 940.23 80.3382C939.93 86.8282 926.16 88.9982 921.7 90.7282Z" stroke="#E3B36F" stroke-miterlimit="10"/>
<path d="M918.42 90.2081C902.34 96.0281 910.2 110.298 902.23 120.758C897.14 127.428 881.87 128.478 874.66 129.408C855.8 131.828 836.73 131.568 817.91 134.698C787.34 139.768 758.73 161.918 727.91 162.328C716.41 162.478 708.84 158.658 698.55 154.408C683.09 148.008 669.1 144.908 653.02 144.838C594.8 144.588 533.47 169.588 472.46 171.778C443.38 172.778 416.27 161.598 387.17 160.998C369.48 160.628 321.97 168.508 311.61 147.448C303.18 130.288 316.72 119.448 289.2 114.228C282.2 112.888 254.88 112.288 250.73 105.648C245.35 97.0281 259.84 93.7481 267.23 91.5681C296.06 83.0881 323.23 80.0181 350.16 65.4981C391.53 43.1981 429 43.6481 474.7 39.8181C513.7 36.5481 550.96 16.8181 588.18 16.8181C625 16.7481 662.66 32.3781 701.68 32.4381C749.18 32.5181 791.68 29.6081 836.85 46.9681C861.6 56.4881 886.93 58.8181 912.23 65.8081C917.97 67.3881 935.98 71.7081 935.29 80.5181C934.82 86.3781 922.62 88.6881 918.42 90.2081Z" stroke="#E3B36F" stroke-miterlimit="10"/>
<path d="M911.36 89.1881C893.93 95.0881 899.72 108.488 888.74 117.598C872.38 131.188 830.6 123.788 811.03 126.178C779.82 129.998 753.59 148.068 723.28 152.558C699.67 156.058 673.85 140.208 651.33 139.968C597.93 139.408 540 161.968 483.33 165.378C452.61 167.218 422.81 157.248 392.01 156.578C376.27 156.228 332.67 161.218 323.61 142.648C321.16 137.648 324.36 131.278 322.13 126.208C317.79 116.358 304.38 114.578 294.84 113.078C288.14 112.028 262.84 111.758 259.21 104.698C254.76 96.1081 274.34 91.6981 280 90.0781C307 82.2581 331.59 77.4181 356.63 63.9581C396.47 42.5281 434.13 44.3781 477.94 40.1181C516.36 36.3881 553.37 17.9781 590.24 17.9181C624.84 17.8681 660.5 32.1681 696.86 32.9181C743.32 33.8681 786.38 28.9681 830.64 46.4381C854.27 55.7681 878.48 58.6681 902.72 65.5081C920.52 70.5281 935.23 81.1081 911.36 89.1881Z" stroke="#E3B36F" stroke-miterlimit="10"/>
<path d="M903.91 88.0681C896.36 90.4481 889.19 93.8081 884.46 100.598C881.21 105.258 882.09 109.798 877.19 113.598C870.5 118.848 855.75 117.098 848.19 117.168C832.91 117.298 817.68 116.548 802.4 117.628C769.98 119.898 745.22 134.288 714.77 142.438C691.84 148.568 666.09 137.108 644.15 136.938C594.23 136.588 540.23 157.648 487.45 159.638C458.07 160.738 428.53 152.518 399.01 151.248C383.34 150.568 344.62 154.808 334.63 139.178C331.73 134.638 334.63 127.908 331.76 123.508C326.23 114.938 308.23 113.398 299.39 112.068C293.81 111.228 270.65 110.218 269.17 102.668C267.46 93.928 289.34 89.4081 295.17 87.7381C319.5 80.7381 340.83 74.568 363.17 62.418C400.17 42.298 437.51 44.7681 478.17 40.6881C517.05 36.7881 554.84 19.1081 592.3 19.0481C626.91 18.9881 662.6 32.5381 698.87 33.3781C742.26 34.3781 783.07 30.0581 824.42 45.9881C845.88 54.2581 867.49 58.2081 889.54 64.2081C902.1 67.5881 929.49 79.9881 903.91 88.0681Z" stroke="#E3B36F" stroke-miterlimit="10"/>
<path d="M900.23 87.4384C893.31 89.4384 885.03 92.7684 880.03 98.8084C876.4 103.198 877.08 108.008 872.03 111.648C855.98 123.078 815.94 112.858 797.66 113.598C764.9 114.928 740.45 127.598 710.2 137.448C687.02 144.968 661.73 136.058 639.12 135.998C592.39 135.878 542.6 154.338 493.57 156.718C463.63 158.168 433.23 149.868 403.2 148.268C388.12 147.468 350.36 151.948 339.7 137.728C336.41 133.328 338.97 126.568 335.85 122.318C329.98 114.318 310.45 112.808 301.74 111.438C296.87 110.678 274.91 109.128 274.95 101.568C274.95 92.6584 295.43 88.6284 301.95 86.7084C325.12 79.8684 345.19 73.2184 366.5 61.7084C402.77 42.0984 440.29 45.0384 480.05 40.8184C518.61 36.7284 556.23 19.6684 593.47 19.6284C628.6 19.6284 664.86 32.8884 701.63 33.6284C742.94 34.4984 782.02 30.4884 821.34 45.7084C842.54 53.9284 863.88 58.0584 885.66 64.1384C895.15 66.8384 924.06 80.5884 900.23 87.4384Z" stroke="#E3B36F" stroke-miterlimit="10"/>
<path d="M892.55 86.0883C886.34 87.8383 878.26 90.6883 873.1 95.3483C868.74 99.2883 867.74 104.348 862.7 107.678C846.19 118.458 806.54 106.938 788.42 106.548C755.14 105.818 730.76 115.438 700.75 127.848C676.4 137.918 652.32 134.448 627.14 134.708C585.27 135.138 542.37 149.528 499.44 151.058C470.01 152.058 440.72 143.378 411.2 142.168C393.91 141.458 359.54 147.248 346.54 132.408C342.54 127.788 344.65 123.338 338.98 118.718C331.21 112.388 316.14 111.658 306.85 109.828C277.23 104.008 290.6 92.5883 312.23 85.4783C333.86 78.3683 352.7 71.0283 372.98 60.3083C407.8 41.8883 445.46 45.4983 483.41 40.9883C521.36 36.4783 558.71 20.8083 595.55 20.7483C628.66 20.6883 662.84 32.5383 697.29 33.8983C737.6 35.4883 776.5 30.8083 815.01 45.3183C834.08 52.4983 852.93 57.4183 872.52 62.8083C878.5 64.4483 914.59 79.8583 892.55 86.0883Z" stroke="#E3B36F" stroke-miterlimit="10"/>
<path d="M888.52 85.3681C875.34 89.9881 870.27 98.2181 859.52 105.228C842.69 116.228 803.16 104.678 784.91 103.708C750.09 101.848 725.29 110.838 694.09 124.368C669.9 134.848 646.37 133.778 620.73 134.208C580.6 134.888 540.17 147.998 499.5 148.378C470.86 148.648 442.79 140.038 413.96 139.468C397.57 139.138 362.53 144.898 349.96 131.018C345.53 126.138 346.91 122.218 341.08 117.658C333.32 111.598 319.32 110.948 309.91 108.848C279.76 102.108 303.57 89.4981 320.72 83.7781C340.6 77.1581 357.57 69.2581 376.13 59.6681C409.33 42.5181 445.92 45.4981 482.05 41.4581C520.81 37.1181 559.05 21.3881 596.61 21.3181C628.18 21.2581 660.8 32.2181 693.54 33.9781C733.63 36.1381 773.35 30.6081 811.71 45.0881C830.46 52.1581 849.21 57.1381 868.39 62.7681C874.38 64.5181 908.12 78.4981 888.52 85.3681Z" stroke="#E3B36F" stroke-miterlimit="10"/>
<path d="M884.29 84.5882C872.69 89.6582 866.12 97.0282 855.92 103.178C838.29 113.808 800.92 102.528 782.15 101.288C746.74 98.9582 721.54 105.848 689.78 120.228C664.78 131.558 641.63 133.058 614.42 133.678C577.49 134.508 541.16 145.188 504.21 145.678C474.77 146.048 445.79 137.468 416.1 137.068C398.1 136.828 366.48 142.378 352.25 128.328C348.25 124.328 348.48 120.428 343.06 116.578C335.18 110.988 322.45 109.818 313.42 107.728C284.42 101.008 317.29 86.1082 329.1 82.0582C347.25 75.8282 362.6 67.7082 379.59 59.0582C412.93 42.0082 450.96 45.7782 487.14 41.2582C524.48 36.5982 561.36 21.9882 597.72 21.9182C629.72 21.8582 662.88 32.6682 696.09 34.3382C734.31 36.2482 772.02 31.5582 808.61 44.9482C826.07 51.3482 843.38 56.6782 861.21 61.8882C866.03 63.2482 902.23 76.7982 884.29 84.5882Z" stroke="#E3B36F" stroke-miterlimit="10"/>
<path d="M875.15 83.0585C868.49 88.1885 858.31 94.2484 849.63 99.0584C831.18 109.258 797.98 99.1485 778.49 97.6285C742.98 94.8585 714.67 98.2884 682.35 113.018C655.66 125.188 631.8 131.408 602.77 132.318C571.65 133.318 539.84 140.468 508.26 140.108C478.11 139.758 448.48 133.108 418.08 132.988C399.67 132.898 370.85 137.988 356.08 124.328C345.08 114.188 336.29 109.918 321.81 105.108C300.81 98.1084 332.92 83.2285 339.75 80.5285C356.16 74.0485 370.5 65.5284 386.27 57.8584C418.27 42.2584 456.33 45.9885 490.87 41.3485C527.55 36.4185 564.06 23.0984 599.87 23.0184C630.87 22.9484 663.03 32.6484 695.11 34.5784C731.16 36.7484 767.42 32.3484 802.05 44.5784C812.72 48.2784 887.66 73.4185 875.15 83.0585Z" stroke="#E3B36F" stroke-miterlimit="10"/>
<path d="M864.96 81.3981C861.96 85.3981 850.66 91.3981 844.23 94.5981C824.88 104.218 797.78 96.6981 777.23 95.1581C742.49 92.5581 710.18 94.0981 677.6 107.158C649.09 118.618 624.52 128.788 594.09 129.828C567.3 130.738 539.29 134.698 511.8 134.348C480.32 133.958 449.05 130.038 417.52 129.748C399.05 129.578 375.08 133.428 359.76 121.598C356.17 118.828 354.17 113.718 349.86 110.678C344.63 106.998 337.44 105.438 332.43 101.928C318.84 92.4081 383.01 61.4481 393.14 56.8181C424.14 42.6381 461.81 46.0781 494.99 41.4881C530.99 36.4881 566.9 24.1981 602.19 24.1181C632.19 24.0481 663.19 32.8181 694.12 34.9081C728.12 37.2181 762.75 33.2081 795.54 44.1881C807.56 48.2681 872.79 71.0281 864.96 81.3981Z" stroke="#E3B36F" stroke-miterlimit="10"/>
<path d="M859.45 80.5884C850.28 99.0884 806.96 96.3384 777.23 94.3284C742.64 91.9984 709.4 93.3284 676.52 105.198C647.37 115.718 622.15 127.078 591.36 128.088C564.84 128.958 537.15 131.728 509.95 131.788C478.68 131.848 447.49 128.888 416.22 128.498C399.08 128.288 375.44 131.918 361.31 120.358C358.23 117.838 356.31 112.448 352.86 109.468C348.57 105.758 341.86 104.048 338.48 100.258C329.24 89.8384 385.36 61.2584 396.33 56.4884C426.08 43.5484 461.94 46.3684 493.62 42.1084C530.45 37.1084 567.18 24.8584 603.25 24.7784C633.74 24.6984 665.25 33.3684 696.68 35.3684C728.53 37.3684 761.26 33.9084 791.96 44.1184C805.93 48.7084 865.15 69.0184 859.45 80.5884Z" stroke="#E3B36F" stroke-miterlimit="10"/>
<path d="M847.6 78.7285C844.7 94.4185 799.04 93.8385 778.15 93.0385C744.42 91.7485 710.86 92.6285 678.15 101.598C648.08 109.828 620.79 122.028 589.75 122.958C531.68 124.708 472.47 128.078 413.09 126.148C396.09 125.598 374.51 128.538 363.83 114.588C360.23 109.888 353.42 100.938 352.34 96.3584C349.34 83.8084 389.92 61.0884 403.34 55.7084C434.29 43.2884 472.04 46.1685 504.71 41.2285C538.52 36.1185 572.28 25.9484 605.54 25.8584C633.05 25.7884 661.38 32.7585 689.54 35.1885C721.27 37.9285 754.37 34.3084 785.11 43.8384C801.43 48.9084 849.97 65.9285 847.6 78.7285Z" stroke="#E3B36F" stroke-miterlimit="10"/>
<path d="M834.77 76.788C837.19 92.498 788.88 92.018 779.77 92.038C746.52 92.118 713.31 93.038 680.59 99.428C648.59 105.708 617.89 117.088 585.73 118.088C527.9 119.878 469.17 128.038 409.89 124.088C395.42 123.088 374.41 125.688 369.38 111.148C368.15 107.608 367.43 95.378 368.05 92.148C370.9 77.198 395.34 60.608 410.34 55.238C438.6 45.118 472.45 46.658 502.03 42.428C537.42 37.368 572.85 27.158 607.67 27.038C635.15 26.948 663.46 33.448 691.6 35.818C720.32 38.238 750.29 35.818 778.27 43.728C796.03 48.718 832.09 59.458 834.77 76.788Z" stroke="#E3B36F" stroke-miterlimit="10"/>
<path d="M821.14 74.6882C827.05 90.5582 787.01 90.3782 780.14 90.8182C742.9 93.1882 705.97 94.0282 669.06 100.218C638.76 105.288 608.84 112.918 578.43 113.818C521.98 115.498 464.89 127.748 407.43 121.818C404.01 121.468 381.12 120.308 377.77 115.598C374.42 110.888 377.94 110.598 378.37 106.158C378.84 101.238 383.37 91.8782 385.37 87.5082C392.2 71.9182 399.23 60.6982 417.6 54.8782C447.9 45.2782 482.6 46.2482 513.82 41.3982C545.95 36.3982 578.18 28.1982 609.89 28.0782C636.39 27.9882 663.59 33.6282 690.67 36.0782C717.3 38.4682 745.07 36.6482 771.1 43.5782C789.39 48.4882 813.91 55.2482 821.14 74.6882Z" stroke="#E3B36F" stroke-miterlimit="10"/>
<path d="M807.05 72.3981C812.54 84.2681 783.13 87.9181 777.79 88.6681C740.79 93.8481 703.04 94.2181 665.89 99.0381C633.63 103.218 601.62 109.038 569.16 109.908C516.16 111.318 461.66 126.798 408.43 118.978C373.18 113.798 393.64 102.248 403.51 82.8181C411.87 66.3481 401.21 61.4381 425.09 54.8781C452.82 47.2681 482.65 46.8781 511 42.7281C544.76 37.7281 578.67 29.3981 612 29.2681C637.45 29.1681 663.54 34.1081 689.51 36.5181C714.2 38.8081 739.51 37.7581 763.68 43.5881C779.99 47.5281 800.83 58.9481 807.05 72.3981Z" stroke="#E3B36F" stroke-miterlimit="10"/>
<path d="M792.92 69.8581C795.6 79.7781 780.6 83.2881 771.92 85.1481C737.29 92.5981 700.52 93.2781 665.38 96.9881C630.08 100.718 594.7 105.198 559.38 106.088C513.55 107.238 459.23 125.898 413.63 114.588C384.17 107.278 419.03 91.3781 421.8 78.0381C424.57 64.6981 406.01 61.4081 433.23 54.7981C462.64 47.6581 493.71 46.3681 523.59 41.7181C553.84 37.0181 584.2 30.5181 614.11 30.3981C638.48 30.2881 663.55 34.5081 688.42 36.8881C711.08 39.0581 734.3 38.5381 756.56 43.6481C769.61 46.6481 789.91 58.7081 792.92 69.8581Z" stroke="#E3B36F" stroke-miterlimit="10"/>
<path d="M786.12 68.4781C787.12 78.1081 777.93 80.7581 766.78 83.0981C698.87 97.3381 623.29 102.338 554.84 104.098C529.84 104.748 505.01 108.308 479.92 111.528C461.76 113.858 435.28 119.528 417.57 112.108C394.18 102.288 430.93 87.1081 430.44 75.6681C429.92 63.8781 409.35 61.2981 437.44 54.6681C466.44 47.8781 496.76 46.2881 526.13 41.7281C555.86 37.1281 585.69 31.0081 615.13 30.8881C639 30.7881 663.5 34.6881 687.81 37.0381C709.53 39.1381 731.81 38.7881 753.13 43.6281C764.43 46.2581 784.95 57.4981 786.12 68.4781Z" stroke="#E3B36F" stroke-miterlimit="10"/>
<path d="M767.67 64.7282C758.67 76.8382 770.15 75.9882 746.07 79.2882C679.23 88.4582 610.43 95.7782 544.23 97.6582C521.88 98.2882 499.32 101.538 476.73 104.178C473.19 104.598 442.07 110.618 438.3 103.898C430.64 90.2582 463.78 80.4882 452.4 69.8982C447.4 65.2182 437.54 64.4182 430.52 60.9482C446.25 47.9982 482.71 49.3682 502.06 46.6982C540.72 41.3782 579.89 32.8282 618.06 32.6982C657.22 32.5382 704.06 34.9682 743.13 43.9782C751.71 45.8782 777.91 50.9582 767.67 64.7282Z" stroke="#E3B36F" stroke-miterlimit="10"/>
<path d="M762.01 63.6484C751.16 74.6484 760.57 75.9784 738.64 78.5984C673.56 86.3584 606.81 93.3684 542.38 95.1884C521.05 95.7984 499.56 98.5184 478.05 101.188C474.68 101.608 450.89 107.118 447.05 101.188C440.39 90.9784 476.47 77.8984 458.72 68.3084C451.44 64.3784 441.33 64.6984 434.2 60.4384C456.57 50.5184 484.37 49.6384 508.2 46.3284C545.2 41.1984 582.53 33.3284 619.11 33.2084C657.05 33.0184 702.25 35.2084 740.11 44.0284C747.99 45.8384 774.42 51.0984 762.01 63.6484Z" stroke="#E3B36F" stroke-miterlimit="10"/>
<path d="M751.46 61.7481C737.71 70.3881 743.72 75.7481 722.94 77.8881C662.94 83.9381 601.16 87.8881 542.2 89.9881C537.91 90.1381 468.45 101.658 465.8 95.9881C462.4 88.6481 496.62 72.5581 469.56 65.8481C460.84 63.6781 451.33 62.7881 442.24 61.0281C459.84 50.4781 487.24 50.3081 507.42 47.4681C545.21 42.1281 583.51 34.4681 620.99 34.3581C656.67 34.2281 698.52 35.9781 734.07 44.2981C740.61 45.7781 766.94 52.0081 751.46 61.7481Z" stroke="#E3B36F" stroke-miterlimit="10"/>
<path d="M737.52 59.4781C723.9 64.5881 718.9 75.4181 701.7 77.5881C651.91 83.7281 599.56 84.068 550.56 85.648C532.62 86.218 512.56 91.228 494.3 90.858C501.97 73.858 503.62 67.858 481.71 63.678C473.71 62.138 462.18 63.5381 454.8 60.3381C474.62 51.4681 499.73 50.168 520.88 47.148C555.07 42.248 589.63 36.1481 623.65 36.0081C656 35.8881 693.5 36.868 725.65 44.708C731.81 46.148 754.56 53.1281 737.52 59.4781Z" stroke="#E3B36F" stroke-miterlimit="10"/>
<path d="M729.71 58.3583C716.18 62.1983 705.54 74.4483 689.63 77.2083C647.47 84.5283 601.84 83.4283 559.78 84.4183C546.78 84.7283 524.78 90.0683 511.43 86.8383C519.23 68.0483 502.03 65.0583 486.43 63.0783C478.98 62.1383 470.79 62.4383 463.25 60.7083C479.32 51.4383 503.42 50.7083 521.57 48.0983C556.06 43.0983 590.93 37.1683 625.3 37.0983C655.5 36.9883 690.03 37.6783 719.98 44.9983C726.23 46.4783 746.56 53.5883 729.71 58.3583Z" stroke="#E3B36F" stroke-miterlimit="10"/>
<path d="M722.88 57.4883C708.98 60.7883 695.1 72.7283 679.73 76.2983C644.73 84.4483 605.73 83.3583 570.14 83.7983C557.61 83.9583 535.51 87.9783 526.29 80.5583C524.24 78.9083 522.73 72.0883 519.2 69.2483C511.83 63.3283 499.2 63.5383 490.38 62.6983C484.59 62.1583 476.75 62.7683 472.13 60.0483C489.67 52.0483 512.58 50.5483 531.36 47.8083C563.1 43.1883 595.18 38.2483 626.85 38.1383C654.77 38.0383 687.03 38.2483 714.85 45.2883C720.45 46.7183 739.23 53.5883 722.88 57.4883Z" stroke="#E3B36F" stroke-miterlimit="10"/>
<path d="M716.85 56.7983C702.22 60.1183 687.09 69.3683 671.78 74.3583C643.34 83.6283 609.29 82.9583 580.11 82.9883C564.01 82.9883 549.48 85.3683 536.68 76.5483C523 67.1183 511.91 63.1483 494.39 62.3683C489.76 62.1683 485.01 61.8183 480.86 60.1783C495.12 51.8583 518.81 50.8383 534.61 48.5083C565.72 43.9083 597.2 39.3183 628.28 39.2083C654.05 39.1183 683.86 39.1383 709.35 45.6383C714.74 47.0083 732.6 53.2183 716.85 56.7983Z" stroke="#E3B36F" stroke-miterlimit="10"/>
<path d="M711.45 56.2283C670.62 66.1783 632.14 81.4783 588.18 81.2283C570.09 81.1383 557.87 80.3383 542.12 72.4983C528.12 65.4983 514.17 62.4983 499.05 61.9583C495.968 61.9166 492.92 61.3204 490.05 60.1982C502.92 52.5882 523.77 51.3582 538.26 49.1382C568.56 44.4982 599.31 40.3383 629.61 40.2383C653.75 40.1583 680.52 39.9382 704.4 45.9482C709.86 47.3682 725.78 52.7383 711.45 56.2283Z" stroke="#E3B36F" stroke-miterlimit="10"/>
<path d="M706.53 55.7184C669.39 66.7184 630.74 78.0484 592.81 77.8784C562.72 77.7484 534.58 65.5584 504.81 61.5084C502.25 61.1584 500.42 61.3184 499.73 59.3684C536.9 42.6384 591.21 41.4684 630.73 41.3684C652.59 41.2984 677.33 40.7784 698.95 46.3684C703.9 47.6384 719.66 51.8384 706.53 55.7184Z" stroke="#E3B36F" stroke-miterlimit="10"/>
<path d="M701.89 55.2085C670.03 61.6885 628.89 72.8785 594 72.7485C567.21 72.6485 536.19 61.8485 512 60.8385C510.77 60.7885 509.72 60.4385 509.34 59.3085C543.34 42.9085 595.21 42.4885 631.74 42.3785C650.67 42.3085 690.33 37.7885 706.24 51.8785C705.65 53.8585 703.93 54.7885 701.89 55.2085Z" stroke="#E3B36F" stroke-miterlimit="10"/>
<path d="M697.37 54.648C673.95 67.818 629.37 68.568 597.98 68.458C573.51 68.368 524.81 65.818 520.83 59.928C518.14 55.928 620.4 43.438 632.63 43.408C650.53 43.348 670.83 42.588 688.54 47.068C693.78 48.398 703.56 51.168 697.37 54.648Z" stroke="#E3B36F" stroke-miterlimit="10"/>
</g>
</svg>
