<svg width="24" height="24" viewBox="0 0 24 24" fill="none" xmlns="http://www.w3.org/2000/svg">
<g clip-path="url(#clip0_108_15324)">
<path d="M2.028 5.50576L11.3258 0.179257C11.531 0.0616669 11.7634 -0.000198364 12 -0.000198364C12.2366 -0.000198364 12.469 0.0616669 12.6743 0.179257L21.972 5.50576C22.1793 5.62445 22.3515 5.79578 22.4713 6.00242C22.5911 6.20906 22.6541 6.44366 22.6541 6.68251V17.3171C22.6542 17.556 22.5911 17.7906 22.4713 17.9972C22.3515 18.2039 22.1793 18.3752 21.972 18.4939L12.6743 23.8208C12.469 23.9383 12.2366 24.0002 12 24.0002C11.7634 24.0002 11.531 23.9383 11.3258 23.8208L2.028 18.4943C1.82074 18.3756 1.6485 18.2042 1.52872 17.9976C1.40894 17.791 1.34587 17.5563 1.34588 17.3175V6.68288C1.34588 6.19651 1.60613 5.74763 2.028 5.50576Z" fill="white"/>
<path d="M3.21187 6.18413L11.3258 1.53563C11.531 1.41804 11.7634 1.35617 12 1.35617C12.2366 1.35617 12.469 1.41804 12.6743 1.53563L20.7881 6.18375C20.9954 6.30245 21.1676 6.47378 21.2874 6.68041C21.4072 6.88705 21.4703 7.12166 21.4703 7.3605V16.6388C21.4703 16.8776 21.4072 17.1122 21.2875 17.3189C21.1677 17.5255 20.9954 17.6968 20.7881 17.8155L12.6743 22.4644C12.469 22.582 12.2366 22.6438 12 22.6438C11.7634 22.6438 11.531 22.582 11.3258 22.4644L3.21187 17.8159C3.00461 17.6972 2.83238 17.5258 2.7126 17.3192C2.59282 17.1126 2.52974 16.878 2.52975 16.6391V7.36088C2.52975 6.8745 2.79 6.42563 3.21187 6.18413Z" fill="#3A3F99"/>
<path d="M7.26975 11.6479C7.34472 11.6479 7.4055 11.5871 7.4055 11.5121C7.4055 11.4372 7.34472 11.3764 7.26975 11.3764C7.19478 11.3764 7.134 11.4372 7.134 11.5121C7.134 11.5871 7.19478 11.6479 7.26975 11.6479Z" fill="#DBDBDB"/>
<path d="M8.89762 7.51087C9.01008 7.51087 9.10125 7.41971 9.10125 7.30725C9.10125 7.19479 9.01008 7.10362 8.89762 7.10362C8.78517 7.10362 8.694 7.19479 8.694 7.30725C8.694 7.41971 8.78517 7.51087 8.89762 7.51087Z" fill="#DBDBDB"/>
<path d="M16.8998 12.3259C16.9747 12.3259 17.0355 12.2651 17.0355 12.1901C17.0355 12.1152 16.9747 12.0544 16.8998 12.0544C16.8248 12.0544 16.764 12.1152 16.764 12.1901C16.764 12.2651 16.8248 12.3259 16.8998 12.3259Z" fill="#DBDBDB"/>
<path d="M14.3228 17.4795C14.4725 17.4795 14.5939 17.3581 14.5939 17.2084C14.5939 17.0586 14.4725 16.9373 14.3228 16.9373C14.173 16.9373 14.0516 17.0586 14.0516 17.2084C14.0516 17.3581 14.173 17.4795 14.3228 17.4795Z" fill="#DBDBDB"/>
<path opacity="0.1" d="M12 18.1035C15.3709 18.1035 18.1035 15.3709 18.1035 12C18.1035 8.62913 15.3709 5.8965 12 5.8965C8.62913 5.8965 5.8965 8.62913 5.8965 12C5.8965 15.3709 8.62913 18.1035 12 18.1035Z" fill="#F2F2F2"/>
<path opacity="0.2" d="M12 17.2316C14.8893 17.2316 17.2316 14.8893 17.2316 12C17.2316 9.11065 14.8893 6.76837 12 6.76837C9.11065 6.76837 6.76837 9.11065 6.76837 12C6.76837 14.8893 9.11065 17.2316 12 17.2316Z" fill="#F2F2F2"/>
<path opacity="0.3" d="M12 16.3597C14.4078 16.3597 16.3597 14.4078 16.3597 12C16.3597 9.59217 14.4078 7.64024 12 7.64024C9.59218 7.64024 7.64025 9.59217 7.64025 12C7.64025 14.4078 9.59218 16.3597 12 16.3597Z" fill="#F2F2F2"/>
<path d="M12 15.255C13.7977 15.255 15.255 13.7977 15.255 12C15.255 10.2023 13.7977 8.745 12 8.745C10.2023 8.745 8.745 10.2023 8.745 12C8.745 13.7977 10.2023 15.255 12 15.255Z" fill="#F2F2F2"/>
<path d="M12.1357 12.6784C12.4354 12.6784 12.6784 12.4354 12.6784 12.1357C12.6784 11.8361 12.4354 11.5931 12.1357 11.5931C11.8361 11.5931 11.5931 11.8361 11.5931 12.1357C11.5931 12.4354 11.8361 12.6784 12.1357 12.6784Z" fill="#EDEDED"/>
<path d="M12.1357 11.5931C12.1055 11.5931 12.0752 11.5956 12.0454 11.6006C12.1715 11.6223 12.2858 11.6879 12.3682 11.7858C12.4507 11.8836 12.4959 12.0074 12.4959 12.1354C12.4959 12.2633 12.4507 12.3871 12.3682 12.485C12.2858 12.5828 12.1715 12.6484 12.0454 12.6701C12.1196 12.6832 12.1958 12.6807 12.269 12.6627C12.3423 12.6447 12.4109 12.6116 12.4707 12.5656C12.5304 12.5196 12.5799 12.4617 12.616 12.3955C12.6521 12.3292 12.674 12.2562 12.6803 12.1811C12.6866 12.106 12.6772 12.0303 12.6526 11.959C12.6281 11.8878 12.5889 11.8224 12.5377 11.767C12.4864 11.7117 12.4242 11.6677 12.355 11.6377C12.2858 11.6078 12.2112 11.5926 12.1357 11.5931Z" fill="#DBDBDB"/>
<path d="M10.5079 14.0344C10.7326 14.0344 10.9147 13.8522 10.9147 13.6275C10.9147 13.4028 10.7326 13.2206 10.5079 13.2206C10.2832 13.2206 10.101 13.4028 10.101 13.6275C10.101 13.8522 10.2832 14.0344 10.5079 14.0344Z" fill="#EDEDED"/>
<path d="M10.5079 13.2206C10.4846 13.2206 10.4621 13.2225 10.44 13.2263C10.5349 13.2422 10.6211 13.2913 10.6832 13.3647C10.7454 13.4382 10.7795 13.5313 10.7795 13.6275C10.7795 13.7237 10.7454 13.8168 10.6832 13.8903C10.6211 13.9637 10.5349 14.0128 10.44 14.0288C10.4955 14.0381 10.5523 14.0358 10.6069 14.022C10.6614 14.0083 10.7125 13.9834 10.757 13.9489C10.8014 13.9144 10.8382 13.871 10.865 13.8216C10.8919 13.7721 10.9082 13.7176 10.9129 13.6616C10.9176 13.6055 10.9106 13.5491 10.8924 13.4958C10.8742 13.4426 10.8451 13.3937 10.8071 13.3523C10.769 13.3108 10.7228 13.2777 10.6713 13.2551C10.6198 13.2324 10.5641 13.2207 10.5079 13.2206Z" fill="#DBDBDB"/>
<path d="M12.678 14.4413C12.8277 14.4413 12.9491 14.3199 12.9491 14.1701C12.9491 14.0204 12.8277 13.899 12.678 13.899C12.5283 13.899 12.4069 14.0204 12.4069 14.1701C12.4069 14.3199 12.5283 14.4413 12.678 14.4413Z" fill="#EDEDED"/>
<path d="M12.678 13.899C12.6628 13.8991 12.6476 13.9004 12.6326 13.9028C12.6959 13.9134 12.7533 13.9461 12.7947 13.995C12.8361 14.044 12.8588 14.106 12.8588 14.1701C12.8588 14.2342 12.8361 14.2963 12.7947 14.3452C12.7533 14.3942 12.6959 14.4269 12.6326 14.4375C12.6696 14.4437 12.7074 14.4422 12.7438 14.433C12.7801 14.4239 12.8142 14.4073 12.8438 14.3843C12.8734 14.3613 12.8979 14.3324 12.9158 14.2995C12.9337 14.2665 12.9446 14.2302 12.9477 14.1929C12.9509 14.1555 12.9462 14.1179 12.9341 14.0825C12.922 14.047 12.9027 14.0144 12.8773 13.9868C12.852 13.9592 12.8212 13.9371 12.7869 13.922C12.7526 13.9069 12.7155 13.8991 12.678 13.899Z" fill="#DBDBDB"/>
<path d="M12.1357 9.69412C12.2855 9.69412 12.4069 9.57273 12.4069 9.423C12.4069 9.27326 12.2855 9.15187 12.1357 9.15187C11.986 9.15187 11.8646 9.27326 11.8646 9.423C11.8646 9.57273 11.986 9.69412 12.1357 9.69412Z" fill="#EDEDED"/>
<path d="M12.1358 9.15187C12.1206 9.15199 12.1054 9.15324 12.0904 9.15562C12.1536 9.16625 12.211 9.19894 12.2524 9.24789C12.2938 9.29684 12.3166 9.35888 12.3166 9.423C12.3166 9.48711 12.2938 9.54915 12.2524 9.5981C12.211 9.64705 12.1536 9.67974 12.0904 9.69037C12.1273 9.69658 12.1652 9.69506 12.2015 9.6859C12.2379 9.67675 12.272 9.66015 12.3016 9.63716C12.3312 9.61418 12.3557 9.5853 12.3736 9.55235C12.3915 9.51941 12.4023 9.48311 12.4055 9.44576C12.4086 9.40841 12.404 9.37081 12.3919 9.33533C12.3798 9.29986 12.3604 9.26729 12.3351 9.23967C12.3097 9.21205 12.2789 9.18999 12.2446 9.17488C12.2103 9.15977 12.1732 9.15193 12.1358 9.15187Z" fill="#DBDBDB"/>
<path d="M13.2206 10.9147C13.3704 10.9147 13.4918 10.7934 13.4918 10.6436C13.4918 10.4939 13.3704 10.3725 13.2206 10.3725C13.0709 10.3725 12.9495 10.4939 12.9495 10.6436C12.9495 10.7934 13.0709 10.9147 13.2206 10.9147Z" fill="#EDEDED"/>
<path d="M13.2206 10.3725C13.2054 10.3726 13.1903 10.3739 13.1752 10.3762C13.2385 10.3869 13.2959 10.4196 13.3373 10.4685C13.3787 10.5175 13.4014 10.5795 13.4014 10.6436C13.4014 10.7077 13.3787 10.7698 13.3373 10.8187C13.2959 10.8677 13.2385 10.9004 13.1752 10.911C13.2122 10.9172 13.2501 10.9157 13.2864 10.9065C13.3228 10.8974 13.3568 10.8808 13.3864 10.8578C13.4161 10.8348 13.4406 10.8059 13.4585 10.773C13.4763 10.74 13.4872 10.7037 13.4904 10.6664C13.4935 10.629 13.4889 10.5914 13.4767 10.556C13.4646 10.5205 13.4453 10.4879 13.4199 10.4603C13.3946 10.4327 13.3638 10.4106 13.3295 10.3955C13.2952 10.3804 13.2581 10.3726 13.2206 10.3725Z" fill="#DBDBDB"/>
<path d="M13.4921 13.1531C13.6046 13.1531 13.6957 13.062 13.6957 12.9495C13.6957 12.837 13.6046 12.7459 13.4921 12.7459C13.3797 12.7459 13.2885 12.837 13.2885 12.9495C13.2885 13.062 13.3797 13.1531 13.4921 13.1531Z" fill="#EDEDED"/>
<path d="M13.4921 12.7459C13.4808 12.7459 13.4695 12.7469 13.4584 12.7489C13.506 12.7566 13.5493 12.781 13.5806 12.8178C13.6119 12.8545 13.6291 12.9012 13.6291 12.9495C13.6291 12.9978 13.6119 13.0444 13.5806 13.0812C13.5493 13.118 13.506 13.1424 13.4584 13.1501C13.4862 13.1549 13.5148 13.1539 13.5422 13.1471C13.5696 13.1403 13.5953 13.1279 13.6177 13.1106C13.64 13.0933 13.6586 13.0716 13.6721 13.0468C13.6856 13.022 13.6938 12.9946 13.6961 12.9664C13.6985 12.9383 13.6949 12.9099 13.6857 12.8832C13.6765 12.8565 13.6619 12.832 13.6427 12.8112C13.6235 12.7905 13.6002 12.774 13.5743 12.7627C13.5484 12.7515 13.5204 12.7457 13.4921 12.7459Z" fill="#DBDBDB"/>
<path d="M14.0344 14.3737C14.1468 14.3737 14.238 14.2826 14.238 14.1701C14.238 14.0577 14.1468 13.9665 14.0344 13.9665C13.9219 13.9665 13.8307 14.0577 13.8307 14.1701C13.8307 14.2826 13.9219 14.3737 14.0344 14.3737Z" fill="#EDEDED"/>
<path d="M14.0344 13.9665C14.0231 13.9665 14.0118 13.9675 14.0006 13.9695C14.0483 13.9772 14.0916 14.0017 14.1229 14.0384C14.1541 14.0752 14.1713 14.1219 14.1713 14.1701C14.1713 14.2184 14.1541 14.2651 14.1229 14.3018C14.0916 14.3386 14.0483 14.363 14.0006 14.3707C14.0285 14.3756 14.057 14.3746 14.0844 14.3678C14.1119 14.361 14.1376 14.3485 14.1599 14.3312C14.1823 14.314 14.2008 14.2922 14.2143 14.2674C14.2278 14.2426 14.236 14.2152 14.2384 14.1871C14.2407 14.1589 14.2372 14.1306 14.228 14.1038C14.2188 14.0771 14.2041 14.0526 14.1849 14.0319C14.1657 14.0111 14.1425 13.9946 14.1165 13.9833C14.0906 13.9721 14.0626 13.9663 14.0344 13.9665Z" fill="#DBDBDB"/>
<path d="M9.69413 13.3564C9.7691 13.3564 9.82987 13.2956 9.82987 13.2206C9.82987 13.1456 9.7691 13.0849 9.69413 13.0849C9.61915 13.0849 9.55838 13.1456 9.55838 13.2206C9.55838 13.2956 9.61915 13.3564 9.69413 13.3564Z" fill="#EDEDED"/>
<path d="M9.69412 13.0849C9.68659 13.0849 9.67906 13.0855 9.67163 13.0867C9.70369 13.0916 9.73296 13.1077 9.75411 13.1323C9.77527 13.1569 9.7869 13.1882 9.7869 13.2206C9.7869 13.253 9.77527 13.2844 9.75411 13.309C9.73296 13.3335 9.70369 13.3497 9.67163 13.3545C9.69014 13.3576 9.7091 13.3568 9.72731 13.3522C9.74552 13.3477 9.76257 13.3393 9.7774 13.3278C9.79223 13.3163 9.8045 13.3018 9.81345 13.2853C9.8224 13.2688 9.82783 13.2506 9.82939 13.2319C9.83095 13.2132 9.82861 13.1944 9.82252 13.1766C9.81644 13.1588 9.80673 13.1425 9.79402 13.1287C9.7813 13.1149 9.76586 13.1039 9.74867 13.0963C9.73147 13.0888 9.7129 13.0849 9.69412 13.0849Z" fill="#DBDBDB"/>
<path d="M10.101 11.4574C10.2507 11.4574 10.3721 11.336 10.3721 11.1863C10.3721 11.0365 10.2507 10.9151 10.101 10.9151C9.95126 10.9151 9.82987 11.0365 9.82987 11.1863C9.82987 11.336 9.95126 11.4574 10.101 11.4574Z" fill="#EDEDED"/>
<path d="M10.101 10.9151C10.0858 10.9152 10.0706 10.9165 10.0556 10.9189C10.1189 10.9295 10.1763 10.9622 10.2177 11.0111C10.2591 11.0601 10.2818 11.1221 10.2818 11.1863C10.2818 11.2504 10.2591 11.3124 10.2177 11.3614C10.1763 11.4103 10.1189 11.443 10.0556 11.4536C10.0926 11.4598 10.1304 11.4583 10.1668 11.4492C10.2031 11.44 10.2372 11.4234 10.2668 11.4004C10.2964 11.3774 10.321 11.3486 10.3388 11.3156C10.3567 11.2827 10.3676 11.2464 10.3707 11.209C10.3739 11.1717 10.3692 11.1341 10.3571 11.0986C10.345 11.0631 10.3257 11.0305 10.3003 11.0029C10.275 10.9753 10.2442 10.9532 10.2099 10.9381C10.1756 10.923 10.1385 10.9152 10.101 10.9151Z" fill="#DBDBDB"/>
<path d="M14.577 11.661C14.6895 11.661 14.7806 11.5698 14.7806 11.4574C14.7806 11.3449 14.6895 11.2538 14.577 11.2538C14.4645 11.2538 14.3734 11.3449 14.3734 11.4574C14.3734 11.5698 14.4645 11.661 14.577 11.661Z" fill="#EDEDED"/>
<path d="M14.577 11.2541C14.5657 11.2542 14.5544 11.2552 14.5433 11.2571C14.5909 11.2649 14.6342 11.2893 14.6655 11.326C14.6968 11.3628 14.7139 11.4095 14.7139 11.4577C14.7139 11.506 14.6968 11.5527 14.6655 11.5895C14.6342 11.6262 14.5909 11.6506 14.5433 11.6584C14.5711 11.6632 14.5996 11.6622 14.6271 11.6554C14.6545 11.6486 14.6802 11.6362 14.7026 11.6189C14.7249 11.6016 14.7434 11.5799 14.7569 11.555C14.7704 11.5302 14.7786 11.5028 14.781 11.4747C14.7833 11.4465 14.7798 11.4182 14.7706 11.3915C14.7614 11.3647 14.7467 11.3402 14.7276 11.3195C14.7084 11.2987 14.6851 11.2822 14.6592 11.271C14.6332 11.2597 14.6053 11.254 14.577 11.2541Z" fill="#DBDBDB"/>
<path d="M9.96563 10.5083C10.0406 10.5083 10.1014 10.4475 10.1014 10.3725C10.1014 10.2975 10.0406 10.2368 9.96563 10.2368C9.89065 10.2368 9.82987 10.2975 9.82987 10.3725C9.82987 10.4475 9.89065 10.5083 9.96563 10.5083Z" fill="#EDEDED"/>
<path d="M9.96563 10.2368C9.95809 10.2368 9.95056 10.2374 9.94312 10.2386C9.97519 10.2434 10.0045 10.2596 10.0256 10.2842C10.0468 10.3087 10.0584 10.3401 10.0584 10.3725C10.0584 10.4049 10.0468 10.4363 10.0256 10.4608C10.0045 10.4854 9.97519 10.5016 9.94312 10.5064C9.96164 10.5095 9.9806 10.5087 9.99881 10.5041C10.017 10.4995 10.0341 10.4912 10.0489 10.4797C10.0637 10.4682 10.076 10.4537 10.085 10.4372C10.0939 10.4207 10.0993 10.4025 10.1009 10.3838C10.1025 10.3651 10.1001 10.3462 10.094 10.3285C10.0879 10.3107 10.0782 10.2944 10.0655 10.2806C10.0528 10.2668 10.0374 10.2557 10.0202 10.2482C10.003 10.2407 9.9844 10.2368 9.96563 10.2368Z" fill="#DBDBDB"/>
<path d="M14.8481 12C14.9231 12 14.9839 11.9392 14.9839 11.8643C14.9839 11.7893 14.9231 11.7285 14.8481 11.7285C14.7732 11.7285 14.7124 11.7893 14.7124 11.8643C14.7124 11.9392 14.7732 12 14.8481 12Z" fill="#EDEDED"/>
<path d="M14.8481 11.7289C14.8406 11.7289 14.8331 11.7295 14.8256 11.7308C14.8577 11.7356 14.887 11.7517 14.9081 11.7763C14.9293 11.8009 14.9409 11.8322 14.9409 11.8646C14.9409 11.8971 14.9293 11.9284 14.9081 11.953C14.887 11.9775 14.8577 11.9937 14.8256 11.9985C14.8441 12.0016 14.8631 12.0009 14.8813 11.9963C14.8995 11.9917 14.9166 11.9833 14.9314 11.9718C14.9462 11.9603 14.9585 11.9458 14.9675 11.9293C14.9764 11.9128 14.9818 11.8946 14.9834 11.8759C14.9849 11.8572 14.9826 11.8384 14.9765 11.8206C14.9704 11.8029 14.9607 11.7865 14.948 11.7727C14.9353 11.7589 14.9199 11.7479 14.9027 11.7403C14.8855 11.7328 14.8669 11.7289 14.8481 11.7289Z" fill="#DBDBDB"/>
<path d="M13.4921 9.82988C13.5671 9.82988 13.6279 9.7691 13.6279 9.69413C13.6279 9.61916 13.5671 9.55838 13.4921 9.55838C13.4172 9.55838 13.3564 9.61916 13.3564 9.69413C13.3564 9.7691 13.4172 9.82988 13.4921 9.82988Z" fill="#EDEDED"/>
<path d="M13.4921 9.55875C13.4846 9.55878 13.4771 9.55941 13.4696 9.56062C13.5017 9.56543 13.531 9.58159 13.5521 9.60616C13.5733 9.63073 13.5849 9.66207 13.5849 9.6945C13.5849 9.72692 13.5733 9.75826 13.5521 9.78283C13.531 9.8074 13.5017 9.82356 13.4696 9.82837C13.4881 9.83148 13.5071 9.83072 13.5253 9.82612C13.5435 9.82153 13.5606 9.81321 13.5754 9.80169C13.5902 9.79017 13.6025 9.7757 13.6115 9.75919C13.6204 9.74268 13.6258 9.7245 13.6274 9.70579C13.6289 9.68707 13.6266 9.66824 13.6205 9.65048C13.6144 9.63272 13.6047 9.61641 13.592 9.60259C13.5793 9.58877 13.5639 9.57774 13.5467 9.57019C13.5295 9.56265 13.5109 9.55875 13.4921 9.55875Z" fill="#DBDBDB"/>
<path opacity="0.25" d="M12 8.745C11.8151 8.745 11.634 8.76112 11.4574 8.79075C12.9967 9.04912 14.1701 10.3871 14.1701 12C14.1701 13.6129 12.9967 14.9509 11.4574 15.2092C11.9241 15.2882 12.4024 15.2643 12.859 15.1394C13.3156 15.0145 13.7394 14.7915 14.101 14.4859C14.4625 14.1804 14.7531 13.7997 14.9524 13.3704C15.1517 12.941 15.255 12.4734 15.255 12C15.255 11.1367 14.9121 10.3088 14.3016 9.69836C13.6912 9.08793 12.8633 8.745 12 8.745Z" fill="#CECECE"/>
<path d="M4.55737 7.03612C4.63235 7.03612 4.69313 6.97534 4.69313 6.90037C4.69313 6.8254 4.63235 6.76462 4.55737 6.76462C4.4824 6.76462 4.42163 6.8254 4.42163 6.90037C4.42163 6.97534 4.4824 7.03612 4.55737 7.03612Z" fill="#DBDBDB"/>
<path d="M20.2905 11.1731C20.403 11.1731 20.4941 11.082 20.4941 10.9695C20.4941 10.857 20.403 10.7659 20.2905 10.7659C20.178 10.7659 20.0869 10.857 20.0869 10.9695C20.0869 11.082 20.178 11.1731 20.2905 11.1731Z" fill="#DBDBDB"/>
<path d="M17.1709 7.57838C17.3206 7.57838 17.442 7.457 17.442 7.30726C17.442 7.15752 17.3206 7.03613 17.1709 7.03613C17.0211 7.03613 16.8997 7.15752 16.8997 7.30726C16.8997 7.457 17.0211 7.57838 17.1709 7.57838Z" fill="#DBDBDB"/>
<path d="M6.04913 17.2084C6.19886 17.2084 6.32025 17.087 6.32025 16.9372C6.32025 16.7875 6.19886 16.6661 6.04913 16.6661C5.89939 16.6661 5.778 16.7875 5.778 16.9372C5.778 17.087 5.89939 17.2084 6.04913 17.2084Z" fill="#DBDBDB"/>
<path d="M13.3733 3.64537C13.523 3.64537 13.6444 3.52398 13.6444 3.37424C13.6444 3.22451 13.523 3.10312 13.3733 3.10312C13.2235 3.10312 13.1021 3.22451 13.1021 3.37424C13.1021 3.52398 13.2235 3.64537 13.3733 3.64537Z" fill="#DBDBDB"/>
<path d="M20.2905 16.8019C20.3655 16.8019 20.4262 16.7411 20.4262 16.6661C20.4262 16.5912 20.3655 16.5304 20.2905 16.5304C20.2155 16.5304 20.1547 16.5912 20.1547 16.6661C20.1547 16.7411 20.2155 16.8019 20.2905 16.8019Z" fill="#DBDBDB"/>
<path d="M3.60788 13.9534C3.68285 13.9534 3.74363 13.8926 3.74363 13.8176C3.74363 13.7426 3.68285 13.6819 3.60788 13.6819C3.5329 13.6819 3.47213 13.7426 3.47213 13.8176C3.47213 13.8926 3.5329 13.9534 3.60788 13.9534Z" fill="#DBDBDB"/>
<path d="M12.2884 20.7349C12.3633 20.7349 12.4241 20.6741 12.4241 20.5991C12.4241 20.5242 12.3633 20.4634 12.2884 20.4634C12.2134 20.4634 12.1526 20.5242 12.1526 20.5991C12.1526 20.6741 12.2134 20.7349 12.2884 20.7349Z" fill="#DBDBDB"/>
</g>
<defs>
<clipPath id="clip0_108_15324">
<rect width="24" height="24" fill="white"/>
</clipPath>
</defs>
</svg>
