<svg width="22" height="26" viewBox="0 0 27 27" fill="none" xmlns="http://www.w3.org/2000/svg">
<path d="M21.7128 9.62194L21.4757 9.39515L24.0426 6.83861C24.174 6.67837 24.2412 6.47496 24.2311 6.26792C24.2209 6.06087 24.134 5.86502 23.9875 5.71844C23.841 5.57186 23.6451 5.48505 23.4381 5.47488C23.231 5.46472 23.0275 5.53192 22.8673 5.66342L20.1974 8.34368C18.2561 6.97781 15.9394 6.24651 13.5657 6.2502C11.192 6.25388 8.8776 6.99239 6.94049 8.36429L4.24992 5.66342C4.08968 5.53192 3.88627 5.46472 3.67923 5.47488C3.47219 5.48505 3.27633 5.57186 3.12975 5.71844C2.98317 5.86502 2.89636 6.06087 2.88619 6.26792C2.87603 6.47496 2.94323 6.67837 3.07473 6.83861L5.66221 9.41577C4.50837 10.5091 3.58964 11.8263 2.96218 13.2869C2.33474 14.7474 2.01174 16.3205 2.01294 17.91V20.2708C2.01294 20.7083 2.18672 21.1278 2.49603 21.437C2.80536 21.7464 3.22489 21.9202 3.66233 21.9202H23.4549C23.8924 21.9202 24.3119 21.7464 24.6213 21.437C24.9305 21.1278 25.1043 20.7083 25.1043 20.2708V17.7967C25.109 16.2774 24.8115 14.7723 24.2293 13.3688C23.6471 11.9654 22.7917 10.6918 21.7128 9.62194ZM9.84752 17.7967C9.60286 17.7967 9.36369 17.7242 9.16026 17.5882C8.95683 17.4522 8.79828 17.2591 8.70464 17.033C8.61102 16.8071 8.58651 16.5582 8.63425 16.3183C8.68198 16.0783 8.7998 15.8579 8.9728 15.685C9.14581 15.5119 9.36623 15.3942 9.60619 15.3464C9.84615 15.2987 10.0949 15.3232 10.3209 15.4168C10.5469 15.5104 10.7402 15.669 10.8761 15.8723C11.012 16.0758 11.0846 16.3149 11.0846 16.5596C11.0846 16.8877 10.9542 17.2024 10.7222 17.4344C10.4902 17.6664 10.1756 17.7967 9.84752 17.7967ZM17.2697 17.7967C17.025 17.7967 16.7859 17.7242 16.5824 17.5882C16.3791 17.4522 16.2205 17.2591 16.1269 17.033C16.0333 16.8071 16.0088 16.5582 16.0565 16.3183C16.1041 16.0783 16.222 15.8579 16.3951 15.685C16.568 15.5119 16.7884 15.3942 17.0284 15.3464C17.2683 15.2987 17.5172 15.3232 17.7431 15.4168C17.9692 15.5104 18.1623 15.669 18.2983 15.8723C18.4343 16.0758 18.5068 16.3149 18.5068 16.5596C18.5068 16.8877 18.3765 17.2024 18.1445 17.4344C17.9125 17.6664 17.5978 17.7967 17.2697 17.7967Z" fill="white"/>
</svg>
