<svg width="22" height="26" viewBox="0 0 26 26" fill="none" xmlns="http://www.w3.org/2000/svg">
<path d="M22.8496 3.759L21.8089 2.71833C21.7696 2.67906 21.7206 2.66187 21.6689 2.66187C21.6174 2.66187 21.5684 2.68151 21.5291 2.71833L19.6613 4.58615C18.8492 4.036 17.8906 3.74268 16.9098 3.74428C15.6531 3.74428 14.3964 4.22289 13.4368 5.18258L10.9357 7.68366C10.8992 7.72055 10.8787 7.77039 10.8787 7.82233C10.8787 7.87427 10.8992 7.9241 10.9357 7.96101L17.6045 14.6297C17.6437 14.669 17.6928 14.6862 17.7443 14.6862C17.7935 14.6862 17.845 14.6665 17.8842 14.6297L20.3854 12.1286C22.0765 10.4351 22.2753 7.8162 20.9818 5.90663L22.8496 4.03881C22.9256 3.96027 22.9256 3.8351 22.8496 3.759ZM14.5339 13.5252C14.497 13.4887 14.4472 13.4681 14.3953 13.4681C14.3433 13.4681 14.2935 13.4887 14.2566 13.5252L12.6219 15.1599L10.4055 12.9435L12.0427 11.3064C12.1187 11.2303 12.1187 11.1051 12.0427 11.0291L11.1492 10.1356C11.1123 10.0991 11.0625 10.0786 11.0106 10.0786C10.9586 10.0786 10.9088 10.0991 10.8719 10.1356L9.23478 11.7727L8.17937 10.7173C8.16105 10.699 8.13921 10.6846 8.11517 10.6749C8.09113 10.6652 8.06538 10.6604 8.03946 10.6609C7.99038 10.6609 7.93883 10.6805 7.89956 10.7173L5.40094 13.2184C3.70983 14.9095 3.51103 17.5308 4.80451 19.4405L2.93668 21.3083C2.90015 21.3452 2.87964 21.395 2.87964 21.4469C2.87964 21.4989 2.90015 21.5487 2.93668 21.5856L3.97737 22.6263C4.01664 22.6656 4.06572 22.6827 4.11727 22.6827C4.16881 22.6827 4.2179 22.6631 4.25717 22.6263L6.125 20.7585C6.95215 21.3206 7.91429 21.6003 8.87643 21.6003C10.1331 21.6003 11.3898 21.1218 12.3495 20.162L14.8506 17.661C14.9266 17.5849 14.9266 17.4597 14.8506 17.3835L13.7951 16.3282L15.4323 14.6911C15.5083 14.615 15.5083 14.4898 15.4323 14.4138L14.5339 13.5252Z" fill="white"/>
</svg>
