<svg width="25" height="25" viewBox="0 0 25 25" fill="none" xmlns="http://www.w3.org/2000/svg">
<g clip-path="url(#clip0_12_2483)">
<g clip-path="url(#clip1_12_2483)">
<mask id="mask0_12_2483" style="mask-type:luminance" maskUnits="userSpaceOnUse" x="0" y="0" width="25" height="25">
<path d="M24.4099 0.410156H0.409912V24.4102H24.4099V0.410156Z" fill="white"/>
</mask>
<g mask="url(#mask0_12_2483)">
<path fill-rule="evenodd" clip-rule="evenodd" d="M16.7661 19.0064C17.3825 19.7873 18.1222 20.6708 18.1222 20.6708C22.6633 20.527 24.4099 17.5475 24.4099 17.5475C24.4099 10.9311 21.451 5.56803 21.451 5.56803C18.4921 3.34886 15.677 3.41033 15.677 3.41033L15.3894 3.73927C18.8825 4.80776 20.5058 6.34886 20.5058 6.34886C18.3688 5.17762 16.2729 4.60228 14.3209 4.37625C12.8414 4.21187 11.4236 4.25297 10.1702 4.41735C10.0626 4.41735 9.97059 4.43301 9.86694 4.45066C9.85186 4.45323 9.83653 4.45584 9.82087 4.45845C9.10169 4.52009 7.35512 4.78721 5.15648 5.75297C4.39621 6.10228 3.94416 6.34886 3.94416 6.34886C3.94416 6.34886 5.64964 4.72557 9.34826 3.65707L9.14279 3.41033C9.14279 3.41033 6.32772 3.34886 3.36881 5.56803C3.36881 5.56803 0.409912 10.9311 0.409912 17.5475C0.409912 17.5475 2.13594 20.527 6.67703 20.6708C6.67703 20.6708 7.43731 19.7462 8.05375 18.9653C5.44416 18.1845 4.45786 16.5407 4.45786 16.5407C4.45786 16.5407 4.66333 16.6845 5.0332 16.89C5.05374 16.9105 5.0743 16.9311 5.11539 16.9516C5.14621 16.9722 5.17703 16.9876 5.20785 17.003C5.23868 17.0184 5.2695 17.0338 5.30032 17.0544C5.81402 17.342 6.32772 17.5681 6.80032 17.753C7.64279 18.0818 8.64964 18.4105 9.82087 18.6366C11.362 18.9242 13.1702 19.027 15.1428 18.6571C16.1085 18.4927 17.0948 18.2051 18.1222 17.7736C18.8414 17.5064 19.6428 17.116 20.4852 16.5612C20.4852 16.5612 19.4578 18.2462 16.7661 19.0064ZM6.47155 13.3558C6.47155 12.1023 7.39621 11.0749 8.56744 11.0749C9.73868 11.0749 10.6839 12.1023 10.6633 13.3558C10.6633 14.6092 9.73868 15.6366 8.56744 15.6366C7.41676 15.6366 6.47155 14.6092 6.47155 13.3558ZM13.9715 13.3558C13.9715 12.1023 14.8962 11.0749 16.0674 11.0749C17.2387 11.0749 18.1633 12.1023 18.1633 13.3558C18.1633 14.6092 17.2387 15.6366 16.0674 15.6366C14.9167 15.6366 13.9715 14.6092 13.9715 13.3558Z" fill="#CFD9F0"/>
</g>
</g>
</g>
<defs>
<clipPath id="clip0_12_2483">
<rect width="24" height="24" fill="white" transform="translate(0.409912 0.410156)"/>
</clipPath>
<clipPath id="clip1_12_2483">
<rect width="24" height="24" fill="white" transform="translate(0.409912 0.410156)"/>
</clipPath>
</defs>
</svg>
