<svg width="25" height="25" viewBox="0 0 25 25" fill="none" xmlns="http://www.w3.org/2000/svg">
<g clip-path="url(#clip0_12_2479)">
<g clip-path="url(#clip1_12_2479)">
<path fill-rule="evenodd" clip-rule="evenodd" d="M21.9551 7.17086C21.963 7.38492 21.967 7.59298 21.967 7.81105C21.967 14.4191 17.0141 22.0435 7.95941 22.0435C5.1776 22.0435 2.58886 21.2152 0.409912 19.7928C0.796055 19.8388 1.18614 19.8628 1.5841 19.8628C3.89308 19.8628 6.0149 19.0645 7.70132 17.7241C5.54601 17.6861 3.72759 16.2357 3.10109 14.2511C3.40055 14.3051 3.70986 14.3371 4.02705 14.3371C4.47624 14.3371 4.91163 14.2791 5.32536 14.165C3.07154 13.7049 1.3733 11.6843 1.3733 9.26149C1.3733 9.24149 1.3733 9.22548 1.37724 9.19948C2.0392 9.57759 2.79967 9.79966 3.60347 9.82767C2.28349 8.92939 1.41467 7.40093 1.41467 5.66239C1.41467 4.74811 1.657 3.88785 2.08057 3.14963C4.50776 6.17055 8.13672 8.15916 12.2286 8.37122C12.1439 8.00711 12.1045 7.62099 12.1045 7.23287C12.1045 4.47003 14.3052 2.23535 17.0259 2.23535C18.4424 2.23535 19.723 2.84553 20.6194 3.80983C21.7424 3.58776 22.7944 3.17363 23.7479 2.60346C23.3795 3.76781 22.5974 4.74811 21.5808 5.3663C22.5777 5.24827 23.5293 4.98219 24.4099 4.57206C23.7499 5.58437 22.9146 6.46264 21.9551 7.17086Z" fill="#CFD9F0"/>
</g>
</g>
<defs>
<clipPath id="clip0_12_2479">
<rect width="24" height="24" fill="white" transform="translate(0.409912 0.410156)"/>
</clipPath>
<clipPath id="clip1_12_2479">
<rect width="24" height="24" fill="white" transform="translate(0.409912 0.410156)"/>
</clipPath>
</defs>
</svg>
