<svg width="30" height="29" viewBox="0 0 30 29" fill="none" xmlns="http://www.w3.org/2000/svg">
<path d="M25.8105 21.416C26.4551 21.7285 27.0312 22.1191 27.5391 22.5879C28.0469 23.0566 28.4863 23.584 28.8574 24.1699C29.2285 24.7559 29.5117 25.3809 29.707 26.0449C29.9023 26.709 30 27.4023 30 28.125H28.125C28.125 27.3535 27.9785 26.626 27.6855 25.9424C27.3926 25.2588 26.9873 24.6631 26.4697 24.1553C25.9521 23.6475 25.3564 23.2471 24.6826 22.9541C24.0088 22.6611 23.2812 22.5098 22.5 22.5C21.7285 22.5 21.001 22.6465 20.3174 22.9395C19.6338 23.2324 19.0381 23.6377 18.5303 24.1553C18.0225 24.6729 17.6221 25.2686 17.3291 25.9424C17.0361 26.6162 16.8848 27.3438 16.875 28.125H15C15 27.4121 15.0977 26.7236 15.293 26.0596C15.4883 25.3955 15.7666 24.7705 16.1279 24.1846C16.4893 23.5986 16.9287 23.0713 17.4463 22.6025C17.9639 22.1338 18.5449 21.7383 19.1895 21.416C18.457 20.8887 17.8906 20.2295 17.4902 19.4385C17.0898 18.6475 16.8848 17.793 16.875 16.875C16.875 16.1035 17.0215 15.376 17.3145 14.6924C17.6074 14.0088 18.0078 13.4131 18.5156 12.9053C19.0234 12.3975 19.6191 11.9922 20.3027 11.6895C20.9863 11.3867 21.7188 11.2402 22.5 11.25C23.2715 11.25 23.999 11.3965 24.6826 11.6895C25.3662 11.9824 25.9619 12.3828 26.4697 12.8906C26.9775 13.3984 27.3828 13.999 27.6855 14.6924C27.9883 15.3857 28.1348 16.1133 28.125 16.875C28.125 17.7832 27.9248 18.6328 27.5244 19.4238C27.124 20.2148 26.5527 20.8789 25.8105 21.416ZM22.5 20.625C23.0176 20.625 23.501 20.5273 23.9502 20.332C24.3994 20.1367 24.7998 19.8682 25.1514 19.5264C25.5029 19.1846 25.7715 18.7891 25.957 18.3398C26.1426 17.8906 26.2402 17.4023 26.25 16.875C26.25 16.3574 26.1523 15.874 25.957 15.4248C25.7617 14.9756 25.4932 14.5752 25.1514 14.2236C24.8096 13.8721 24.4141 13.6035 23.9648 13.418C23.5156 13.2324 23.0273 13.1348 22.5 13.125C21.9824 13.125 21.499 13.2227 21.0498 13.418C20.6006 13.6133 20.2002 13.8818 19.8486 14.2236C19.4971 14.5654 19.2285 14.9609 19.043 15.4102C18.8574 15.8594 18.7598 16.3477 18.75 16.875C18.75 17.3926 18.8477 17.876 19.043 18.3252C19.2383 18.7744 19.5068 19.1748 19.8486 19.5264C20.1904 19.8779 20.5859 20.1465 21.0352 20.332C21.4844 20.5176 21.9727 20.6152 22.5 20.625ZM30 0V15C30 14.5312 29.9561 14.1211 29.8682 13.7695C29.7803 13.418 29.6582 13.0908 29.502 12.7881C29.3457 12.4854 29.1504 12.1924 28.916 11.9092C28.6816 11.626 28.418 11.3184 28.125 10.9863V1.875H1.875V18.75H5.625V22.6611L9.53613 18.75H15.249C15.3271 19.082 15.4297 19.4043 15.5566 19.7168C15.6836 20.0293 15.835 20.332 16.0107 20.625H10.3125L3.75 27.1875V20.625H0V0H30Z" fill="black"/>
</svg>
