<svg width="25" height="32" viewBox="0 0 25 32" fill="none" xmlns="http://www.w3.org/2000/svg">
<path d="M9.57129 17.0714V1" stroke="black" stroke-width="2" stroke-linecap="round" stroke-linejoin="round"/>
<path d="M18.1431 16C19.7771 16.9803 21.1294 18.3671 22.0682 20.0253C23.007 21.6835 23.5004 23.5565 23.5002 25.4621V31" stroke="black" stroke-width="2" stroke-linecap="round" stroke-linejoin="round"/>
<path d="M4.21429 6.35715H2.07143C1.78727 6.35715 1.51475 6.47003 1.31381 6.67096C1.11288 6.87189 1 7.14442 1 7.42858V25.6429" stroke="black" stroke-width="2" stroke-linecap="round" stroke-linejoin="round"/>
<path d="M15.0544 31L12.0732 26.4464C11.7236 25.8315 11.6314 25.1033 11.8167 24.4207C12.0021 23.7381 12.4499 23.1565 13.0624 22.8028C13.675 22.4492 14.4025 22.3521 15.0864 22.5329C15.7702 22.7137 16.3548 23.1577 16.7125 23.7679L18.1428 25.9522V7.42858C18.1428 7.14442 18.03 6.87189 17.829 6.67096C17.6281 6.47003 17.3556 6.35715 17.0714 6.35715H14.9286" stroke="black" stroke-width="2" stroke-linecap="round" stroke-linejoin="round"/>
<path d="M5.28564 12.7857L9.57136 17.0714L13.8571 12.7857" stroke="black" stroke-width="2" stroke-linecap="round" stroke-linejoin="round"/>
</svg>
