<svg width="25" height="32" viewBox="0 0 25 32" fill="none" xmlns="http://www.w3.org/2000/svg">
<path d="M9.57129 16V1" stroke="black" stroke-width="2" stroke-linecap="round" stroke-linejoin="round"/>
<path d="M5.28564 5.28571L9.57136 1L13.8571 5.28571" stroke="black" stroke-width="2" stroke-linecap="round" stroke-linejoin="round"/>
<path d="M18.1431 16C19.7771 16.9803 21.1294 18.3671 22.0682 20.0253C23.007 21.6835 23.5004 23.5565 23.5002 25.4621V31" stroke="black" stroke-width="2" stroke-linecap="round" stroke-linejoin="round"/>
<path d="M4.21429 10.6429H2.07143C1.78727 10.6429 1.51475 10.7557 1.31381 10.9567C1.11288 11.1576 1 11.4301 1 11.7143V25.6429" stroke="black" stroke-width="2" stroke-linecap="round" stroke-linejoin="round"/>
<path d="M15.0544 31L12.0732 26.4464C11.7236 25.8315 11.6314 25.1033 11.8167 24.4207C12.0021 23.7381 12.4499 23.1565 13.0624 22.8028C13.675 22.4492 14.4025 22.3521 15.0864 22.5329C15.7702 22.7137 16.3548 23.1577 16.7125 23.7679L18.1428 25.9522V11.7143C18.1428 11.4301 18.03 11.1576 17.829 10.9567C17.6281 10.7557 17.3556 10.6429 17.0714 10.6429H14.9286" stroke="black" stroke-width="2" stroke-linecap="round" stroke-linejoin="round"/>
</svg>
