<?xml version="1.0" encoding="utf-8"?>
<!-- Generator: Adobe Illustrator 26.2.1, SVG Export Plug-In . SVG Version: 6.00 Build 0)  -->
<svg version="1.1" id="Layer_1" xmlns="http://www.w3.org/2000/svg" xmlns:xlink="http://www.w3.org/1999/xlink" x="0px" y="0px"
	 viewBox="0 0 141.7 26.9" style="enable-background:new 0 0 141.7 26.9;" xml:space="preserve">
<style type="text/css">
	.st0{clip-path:url(#SVGID_00000122000749434482585380000002235379259076686767_);fill:#FFFFFF;}
	.st1{fill:#FFFFFF;}
	.st2{clip-path:url(#SVGID_00000087371562056156186930000013605109429707237543_);fill:#FFFFFF;}
</style>
<g>
	<defs>
		<rect id="SVGID_1_" x="2" y="1.5" width="139" height="24.3"/>
	</defs>
	<clipPath id="SVGID_00000065064449876704068840000002142078384655099564_">
		<use xlink:href="#SVGID_1_"  style="overflow:visible;"/>
	</clipPath>
	<path style="clip-path:url(#SVGID_00000065064449876704068840000002142078384655099564_);fill:#FFFFFF;" d="M26.9,9.7h-3.2L16.1,25
		c-0.1,0.3,0,0.6,0.3,0.8c0.1,0,0.1,0.1,0.2,0.1h3.2l7.5-15.4c0.1-0.3,0-0.6-0.3-0.8C27,9.7,27,9.7,26.9,9.7"/>
	<path style="clip-path:url(#SVGID_00000065064449876704068840000002142078384655099564_);fill:#FFFFFF;" d="M12.8,1.5H9.6L2.1,16.9
		c-0.1,0.3,0,0.6,0.3,0.8c0.1,0,0.1,0.1,0.2,0.1h3.2c0.1,0,0.2-0.1,0.2-0.2l7.2-15.2C13.3,2,13.2,1.7,12.8,1.5"/>
	<path style="clip-path:url(#SVGID_00000065064449876704068840000002142078384655099564_);fill:#FFFFFF;" d="M14.9,9.7h-3.2L4.1,25
		c-0.1,0.3,0,0.6,0.3,0.8c0.1,0,0.1,0.1,0.2,0.1h3.2l7.6-15.4c0.1-0.3,0-0.6-0.3-0.8C15,9.7,15,9.7,14.9,9.7"/>
	<path style="clip-path:url(#SVGID_00000065064449876704068840000002142078384655099564_);fill:#FFFFFF;" d="M17.8,17.7l7.5-15.4
		c0.1-0.3,0-0.6-0.3-0.8c-0.1,0-0.1-0.1-0.2-0.1h-3.2L14,16.9c-0.1,0.3,0,0.6,0.3,0.8c0.1,0,0.1,0.1,0.2,0.1h3.2H17.8z"/>
	<path style="clip-path:url(#SVGID_00000065064449876704068840000002142078384655099564_);fill:#FFFFFF;" d="M33.5,1.6l-7.4,15.3
		c-0.1,0.3,0,0.6,0.3,0.8c0.1,0.1,0.2,0.1,0.2,0.1h3.2l7.5-15.3c0.1-0.3,0-0.6-0.3-0.8c-0.1,0-0.1-0.1-0.2-0.1h-3.2H33.5z"/>
	<path style="clip-path:url(#SVGID_00000065064449876704068840000002142078384655099564_);fill:#FFFFFF;" d="M49,5.6l0.3,1.2
		l2.5,10.6c0.1,0.4,0.2,0.8,0.2,1.2c0.1-0.4,0.1-0.8,0.2-1.2l3.2-11.8h2.9l3.2,11.8c0.1,0.4,0.2,0.8,0.2,1.2
		c0.1-0.4,0.2-0.8,0.4-1.2l2.7-11.8h2.9l-4.1,16.1h-3.2L57.3,10c-0.1-0.4-0.2-0.7-0.2-1.1c0,0.4-0.1,0.7-0.2,1.1l-3.2,11.7h-3.2
		L46.2,5.6H49z"/>
	<path style="clip-path:url(#SVGID_00000065064449876704068840000002142078384655099564_);fill:#FFFFFF;" d="M78.3,15.5l-1.8-5
		c-0.4-0.8-0.7-1.7-0.9-2.6c-0.2,0.9-0.5,1.8-0.9,2.6l-1.8,5l-1,2.3l-1.5,3.9h-3l6.4-16.1h3.2l6.4,16.1h-2.9l-1.5-3.9"/>
</g>
<polygon class="st1" points="85.8,5.6 88.7,5.6 88.7,19.2 96.7,19.2 96.7,21.7 85.8,21.7 "/>
<polygon class="st1" points="99.1,5.6 102,5.6 102,19.2 110,19.2 110,21.7 99.1,21.7 "/>
<polygon class="st1" points="124.1,19.3 124.1,21.7 112.5,21.7 112.5,5.6 124,5.6 124,8 115.4,8 115.4,12.3 123.5,12.3 123.5,14.6 
	115.4,14.6 115.4,19.3 "/>
<g>
	<defs>
		<rect id="SVGID_00000083775716755158920830000018444975676894772900_" x="2" y="1.5" width="139" height="24.3"/>
	</defs>
	<clipPath id="SVGID_00000066485665594425771700000011032663290747202180_">
		<use xlink:href="#SVGID_00000083775716755158920830000018444975676894772900_"  style="overflow:visible;"/>
	</clipPath>
	<path style="clip-path:url(#SVGID_00000066485665594425771700000011032663290747202180_);fill:#FFFFFF;" d="M131.5,13.4L126,5.6
		h3.2l3.4,5c0.2,0.3,0.4,0.6,0.5,1c0.1-0.4,0.4-0.6,0.5-1l3.6-5h3.2l-5.5,7.9l5.9,8.3h-3.4l-3.7-5.4c-0.3-0.4-0.6-0.8-0.8-1.2
		c-0.2,0.4-0.4,0.8-0.7,1.1l-3.6,5.4h-3.2L131.5,13.4z"/>
</g>
<polygon class="st1" points="80.7,19.2 70.8,19.2 71.7,16.9 80.7,16.9 "/>
</svg>
