<svg width="32" height="32" viewBox="0 0 32 32" fill="none" xmlns="http://www.w3.org/2000/svg">
<g clip-path="url(#clip0_33_3495)">
<path d="M32.0684 16C32.0684 19.1645 31.13 22.2579 29.3719 24.8891C27.6138 27.5203 25.1149 29.5711 22.1913 30.7821C19.2677 31.9931 16.0506 32.3099 12.9469 31.6926C9.84322 31.0752 6.9923 29.5514 4.75466 27.3137C2.51702 25.0761 0.993165 22.2251 0.375802 19.1214C-0.241561 16.0177 0.0752919 12.8007 1.28629 9.87707C2.4973 6.95345 4.54806 4.45459 7.17924 2.69649C9.81043 0.938384 12.9039 0 16.0684 0C20.3118 0 24.3815 1.68571 27.3821 4.68629C30.3827 7.68687 32.0684 11.7565 32.0684 16Z" fill="#43A047"/>
<path fill-rule="evenodd" clip-rule="evenodd" d="M11.4266 7.3062L15.1037 8.29092L15.927 5.2262L17.7656 5.72511L16.9743 8.66183L18.4725 9.06474L19.2623 6.09747L21.1328 6.59638L20.327 9.5811C20.327 9.5811 23.3816 10.2575 24.1016 12.7418C24.8216 15.2262 22.5234 16.5324 21.8179 16.5818C21.8179 16.5818 24.4957 18.0495 23.5765 20.9367C22.6572 23.824 19.8339 24.3404 16.8666 23.6786L16.0594 26.7753L14.1888 26.2764L15.0121 23.2218L13.527 22.8233L12.7008 25.8909L10.8463 25.392L11.6681 22.3375L7.89355 21.3193L8.84628 19.2073C8.84628 19.2073 9.90956 19.4982 10.3139 19.5942C10.7183 19.6902 10.9743 19.2713 11.0877 18.8524C11.2012 18.4335 12.9103 11.4909 13.0717 10.9193C13.2332 10.3476 13.1677 9.9011 12.4899 9.7251C11.8121 9.5491 10.8899 9.27419 10.8899 9.27419L11.4266 7.3062ZM15.1357 16.5004L14.1176 20.5484C14.1176 20.5484 19.1648 22.3709 19.8106 19.8066C20.4565 17.2422 15.1357 16.5004 15.1357 16.5004ZM15.6041 14.5804L16.6034 10.8713C16.6034 10.8713 20.9263 11.6451 20.3939 13.7091C19.8616 15.7731 17.3088 14.9818 15.6041 14.5804Z" fill="white"/>
</g>
<defs>
<clipPath id="clip0_33_3495">
<rect width="32" height="32" fill="white"/>
</clipPath>
</defs>
</svg>
