<svg width="21" height="21" viewBox="0 0 21 21" fill="none" xmlns="http://www.w3.org/2000/svg">
<path d="M18.892 0.546265H3.04425C2.62394 0.546265 2.22085 0.713232 1.92364 1.01044C1.62644 1.30764 1.45947 1.71073 1.45947 2.13104V17.9788C1.45947 18.3991 1.62644 18.8022 1.92364 19.0994C2.22085 19.3966 2.62394 19.5636 3.04425 19.5636H18.892C19.3123 19.5636 19.7154 19.3966 20.0126 19.0994C20.3098 18.8022 20.4768 18.3991 20.4768 17.9788V2.13104C20.4768 1.71073 20.3098 1.30764 20.0126 1.01044C19.7154 0.713232 19.3123 0.546265 18.892 0.546265Z" stroke="black" stroke-width="0.950867" stroke-linecap="round" stroke-linejoin="round"/>
<path d="M9.38385 13.7527L12.0251 15.8657L16.2512 10.5831M5.68604 5.30054H16.2512M5.68604 9.52661H9.91211" stroke="black" stroke-width="0.950867" stroke-linecap="round" stroke-linejoin="round"/>
</svg>
