<?xml version="1.0" encoding="utf-8"?>
<!-- Generator: Adobe Illustrator 23.0.2, SVG Export Plug-In . SVG Version: 6.00 Build 0)  -->
<svg version="1.1" id="Ebene_1" xmlns="http://www.w3.org/2000/svg" xmlns:xlink="http://www.w3.org/1999/xlink" x="0px" y="0px"
	 viewBox="0 0 32 32" style="enable-background:new 0 0 32 32;" xml:space="preserve">
<style type="text/css">
	.st0{fill:#FFFFFF;}
	.st1{fill:#CF142B;}
	.st2{fill:#00247D;}
</style>
<g>
	<path class="st0" d="M32,16c0-1.5-0.2-2.9-0.6-4.2l-7.2,0l4.9-4.9c-1.1-1.6-2.4-2.9-4-4l-4.9,4.9l0-7.2C18.9,0.2,17.5,0,16,0
		c-1.5,0-2.9,0.2-4.2,0.6l0,7.2L6.9,2.9C5.3,4,4,5.3,2.9,6.9l4.9,4.9l-7.1,0C0.2,13.1,0,14.5,0,16c0,1.4,0.2,2.8,0.6,4.2l7.2,0
		l-4.9,4.9c1.1,1.6,2.4,2.9,4,4l4.9-4.9l0,7.2c1.4,0.4,2.8,0.6,4.3,0.6c1.5,0,2.9-0.2,4.2-0.6l0-7.2l4.9,4.9c1.6-1.1,2.9-2.4,4-4
		l-4.9-4.9l7.2,0C31.8,18.9,32,17.5,32,16z"/>
	<g>
		<path class="st1" d="M31.7,13.2l-12.9,0l0-12.9C17.9,0.1,17,0,16,0c-0.9,0-1.9,0.1-2.8,0.3l0,12.9l-12.9,0C0.1,14.1,0,15,0,16
			c0,0.9,0.1,1.9,0.3,2.8l12.9,0l0,12.9C14.1,31.9,15,32,16,32c0.9,0,1.9-0.1,2.8-0.3l0-12.9l12.9,0C31.9,17.9,32,17,32,16
			C32,15,31.9,14.1,31.7,13.2z"/>
		<path class="st1" d="M27.5,4.9c-0.4-0.5-0.9-0.9-1.4-1.3l-5.9,5.9l0,2.3l0.4,0L27.5,4.9z"/>
		<path class="st1" d="M11.8,11.7l0-0.4L4.9,4.5C4.4,4.9,4,5.4,3.6,5.9l5.9,5.9L11.8,11.7z"/>
		<path class="st1" d="M3.6,26.1c0.4,0.5,0.8,0.9,1.3,1.4l6.9-6.9l0-0.4l-2.2,0L3.6,26.1z"/>
		<path class="st1" d="M20.2,20.2l0,2.3l5.9,5.9c0.5-0.4,0.9-0.8,1.4-1.3l-6.9-6.9L20.2,20.2z"/>
	</g>
	<g>
		<path class="st2" d="M3.5,6C3.7,5.8,3.9,5.6,4,5.4C3.9,5.6,3.7,5.8,3.5,6z"/>
		<path class="st2" d="M0.6,11.9c-0.1,0.5-0.2,1-0.3,1.5C0.3,12.9,0.4,12.4,0.6,11.9z"/>
		<path class="st2" d="M4.3,5.1c0.2-0.2,0.4-0.4,0.6-0.6C4.7,4.7,4.5,4.9,4.3,5.1z"/>
		<path class="st2" d="M0.6,11.7c0,0.1,0,0.1,0,0.2C0.6,11.9,0.6,11.8,0.6,11.7L0.6,11.7z"/>
		<path class="st2" d="M4.9,4.5C5,4.4,5.1,4.3,5.2,4.2C5.1,4.3,5,4.4,4.9,4.5z"/>
		<path class="st2" d="M3.3,6.4C3.3,6.2,3.4,6.1,3.5,6C3.4,6.1,3.3,6.2,3.3,6.4z"/>
		<path class="st2" d="M2.9,6.9L2.9,6.9C3,6.7,3.1,6.5,3.3,6.4C3.1,6.5,3,6.7,2.9,6.9z"/>
		<path class="st2" d="M11.8,0.6C10,1.1,8.4,1.9,6.9,2.9l4.9,4.9L11.8,0.6z"/>
		<path class="st2" d="M5.2,4.2c0.4-0.4,0.9-0.8,1.4-1.2C6.1,3.4,5.6,3.8,5.2,4.2z"/>
		<path class="st2" d="M2.9,6.9c-1,1.5-1.8,3.1-2.3,4.8l7.1,0L2.9,6.9z"/>
		<path class="st2" d="M6.9,2.9C6.8,2.9,6.7,3,6.7,3C6.8,3,6.8,2.9,6.9,2.9L6.9,2.9z"/>
		<path class="st2" d="M6.6,3.1c0,0,0.1-0.1,0.1-0.1C6.7,3,6.6,3.1,6.6,3.1z"/>
		<path class="st2" d="M4,5.4c0.1-0.1,0.2-0.2,0.3-0.3C4.2,5.2,4.1,5.3,4,5.4z"/>
		<path class="st2" d="M26.9,4.3c-0.4-0.3-0.8-0.7-1.2-1C26.1,3.6,26.5,3.9,26.9,4.3z"/>
		<path class="st2" d="M25.7,3.3c-0.1-0.1-0.2-0.2-0.3-0.3C25.4,3.1,25.6,3.2,25.7,3.3z"/>
		<path class="st2" d="M28.5,6.1c-0.2-0.2-0.3-0.4-0.5-0.6C28.2,5.6,28.3,5.8,28.5,6.1z"/>
		<path class="st2" d="M24.2,11.8l7.2,0c-0.5-1.8-1.3-3.4-2.3-4.9L24.2,11.8z"/>
		<path class="st2" d="M28.8,6.4c-0.1-0.1-0.2-0.2-0.3-0.4C28.6,6.2,28.7,6.3,28.8,6.4z"/>
		<path class="st2" d="M20.3,7.8l4.9-4.9c-1.5-1-3.1-1.8-4.8-2.3L20.3,7.8z"/>
		<path class="st2" d="M31.4,11.8c0,0.1,0,0.1,0.1,0.2C31.4,11.9,31.4,11.9,31.4,11.8L31.4,11.8z"/>
		<path class="st2" d="M31.8,13.4c-0.1-0.5-0.2-1-0.3-1.4C31.6,12.5,31.7,13,31.8,13.4z"/>
		<path class="st2" d="M28.8,6.4c0.1,0.2,0.2,0.3,0.3,0.5l0,0C29,6.7,28.9,6.6,28.8,6.4z"/>
		<path class="st2" d="M26.9,4.3c0.1,0.1,0.2,0.2,0.3,0.3C27,4.4,26.9,4.4,26.9,4.3z"/>
		<path class="st2" d="M27.1,4.5c0.2,0.2,0.4,0.4,0.5,0.6C27.5,4.9,27.3,4.7,27.1,4.5z"/>
		<path class="st2" d="M25.1,2.9c0.1,0,0.1,0.1,0.2,0.1C25.3,3,25.2,2.9,25.1,2.9L25.1,2.9z"/>
		<path class="st2" d="M28,5.4c-0.1-0.1-0.2-0.2-0.3-0.3C27.8,5.2,27.9,5.3,28,5.4z"/>
		<path class="st2" d="M25.4,28.9c0,0-0.1,0.1-0.1,0.1C25.4,29,25.4,28.9,25.4,28.9z"/>
		<path class="st2" d="M26.8,27.7c-0.4,0.4-0.9,0.8-1.4,1.2C25.9,28.5,26.4,28.2,26.8,27.7z"/>
		<path class="st2" d="M25.1,29.1c0.1,0,0.1-0.1,0.2-0.1C25.3,29,25.2,29.1,25.1,29.1L25.1,29.1z"/>
		<path class="st2" d="M27.1,27.5c-0.1,0.1-0.2,0.2-0.3,0.2C26.9,27.7,27,27.6,27.1,27.5z"/>
		<path class="st2" d="M20.2,31.4c1.8-0.5,3.5-1.3,4.9-2.3l-4.9-4.9L20.2,31.4z"/>
		<path class="st2" d="M29.1,25.1c1-1.5,1.8-3.1,2.3-4.9l-7.2,0L29.1,25.1z"/>
		<path class="st2" d="M29.1,25.1L29.1,25.1c-0.1,0.2-0.3,0.3-0.4,0.5C28.9,25.5,29,25.3,29.1,25.1z"/>
		<path class="st2" d="M28.5,26c-0.2,0.2-0.3,0.4-0.5,0.6C28.1,26.4,28.3,26.2,28.5,26z"/>
		<path class="st2" d="M28.7,25.6c-0.1,0.1-0.2,0.2-0.3,0.3C28.6,25.9,28.7,25.8,28.7,25.6z"/>
		<path class="st2" d="M31.4,20.3c0-0.1,0-0.1,0-0.2C31.4,20.1,31.4,20.2,31.4,20.3L31.4,20.3z"/>
		<path class="st2" d="M31.5,20c0.1-0.5,0.2-1,0.3-1.5C31.7,19.1,31.6,19.6,31.5,20z"/>
		<path class="st2" d="M27.7,26.9c-0.2,0.2-0.4,0.4-0.6,0.6C27.3,27.3,27.5,27.1,27.7,26.9z"/>
		<path class="st2" d="M28,26.6c-0.1,0.1-0.2,0.2-0.3,0.3C27.8,26.8,27.9,26.7,28,26.6z"/>
		<path class="st2" d="M6.7,29c-0.1-0.1-0.2-0.2-0.3-0.3C6.4,28.8,6.5,28.9,6.7,29z"/>
		<path class="st2" d="M6.9,29.1L6.9,29.1C6.8,29.1,6.7,29,6.7,29C6.7,29,6.8,29.1,6.9,29.1z"/>
		<path class="st2" d="M0.5,20c-0.1-0.5-0.2-1-0.3-1.4C0.3,19,0.4,19.5,0.5,20z"/>
		<path class="st2" d="M3.5,25.9c-0.1-0.1-0.2-0.2-0.3-0.4C3.3,25.7,3.4,25.8,3.5,25.9z"/>
		<path class="st2" d="M2.9,25.1c0.1,0.2,0.2,0.3,0.3,0.5C3.1,25.4,3,25.3,2.9,25.1L2.9,25.1z"/>
		<path class="st2" d="M0.6,20.2c0.5,1.8,1.3,3.5,2.3,4.9l4.9-4.9L0.6,20.2z"/>
		<path class="st2" d="M11.7,24.2l-4.9,4.9c1.5,1,3.1,1.8,4.8,2.3L11.7,24.2z"/>
		<path class="st2" d="M0.6,20.2L0.6,20.2c0-0.1,0-0.1,0-0.2C0.5,20,0.6,20.1,0.6,20.2z"/>
		<path class="st2" d="M5.1,27.7c-0.1-0.1-0.2-0.2-0.3-0.2C4.9,27.5,5,27.6,5.1,27.7z"/>
		<path class="st2" d="M4,26.5c-0.2-0.2-0.3-0.4-0.5-0.6C3.7,26.2,3.8,26.4,4,26.5z"/>
		<path class="st2" d="M6.3,28.7c-0.4-0.3-0.8-0.7-1.2-1C5.5,28.1,5.9,28.4,6.3,28.7z"/>
		<path class="st2" d="M4.9,27.5c-0.2-0.2-0.4-0.4-0.5-0.6C4.5,27.1,4.7,27.3,4.9,27.5z"/>
		<path class="st2" d="M4.3,26.9c-0.1-0.1-0.2-0.2-0.3-0.3C4.1,26.7,4.2,26.8,4.3,26.9z"/>
	</g>
</g>
</svg>
