<?xml version="1.0" encoding="utf-8"?>
<!-- Generator: Adobe Illustrator 23.0.2, SVG Export Plug-In . SVG Version: 6.00 Build 0)  -->
<svg version="1.1" id="Ebene_1" xmlns="http://www.w3.org/2000/svg" xmlns:xlink="http://www.w3.org/1999/xlink" x="0px" y="0px"
	 viewBox="0 0 32 32" style="enable-background:new 0 0 32 32;" xml:space="preserve">
<style type="text/css">
	.st0{fill:#2E3687;}
	.st1{fill:#F9DC27;}
</style>
<g>
	<g>
		<circle class="st0" cx="16" cy="16" r="16"/>
	</g>
	<g>
		<polygon class="st1" points="16,2.6 15.6,4 14.2,4 15.3,4.8 14.9,6.1 16,5.3 17.1,6.1 16.7,4.8 17.8,4 16.4,4 		"/>
		<polygon class="st1" points="16.4,27.2 16,25.9 15.6,27.2 14.2,27.2 15.3,28 14.9,29.4 16,28.5 17.1,29.4 16.7,28 17.8,27.2 		"/>
		<polygon class="st1" points="4.4,16.9 5.5,17.8 5.1,16.4 6.2,15.6 4.8,15.6 4.4,14.2 4,15.6 2.5,15.6 3.7,16.4 3.2,17.8 		"/>
		<polygon class="st1" points="10.2,4.2 9.8,5.5 8.4,5.5 9.5,6.4 9.1,7.7 10.2,6.9 11.3,7.7 10.9,6.4 12,5.5 10.6,5.5 		"/>
		<polygon class="st1" points="5.9,8.4 5.5,9.8 4.1,9.8 5.2,10.6 4.8,11.9 5.9,11.1 7.1,11.9 6.6,10.6 7.8,9.8 6.4,9.8 		"/>
		<polygon class="st1" points="6.4,21.4 5.9,20.1 5.5,21.4 4.1,21.4 5.2,22.2 4.8,23.6 5.9,22.7 7.1,23.6 6.6,22.2 7.8,21.4 		"/>
		<polygon class="st1" points="10.6,25.6 10.2,24.3 9.8,25.6 8.4,25.6 9.5,26.5 9.1,27.8 10.2,27 11.3,27.8 10.9,26.5 12,25.6 		"/>
		<polygon class="st1" points="29.5,15.6 28,15.6 27.6,14.2 27.2,15.6 25.8,15.6 26.9,16.4 26.5,17.8 27.6,16.9 28.8,17.8 
			28.3,16.4 		"/>
		<polygon class="st1" points="21.8,4.2 21.4,5.5 20,5.5 21.1,6.4 20.7,7.7 21.8,6.9 22.9,7.7 22.5,6.4 23.6,5.5 22.2,5.5 		"/>
		<polygon class="st1" points="25.4,10.6 24.9,11.9 26.1,11.1 27.2,11.9 26.8,10.6 27.9,9.8 26.5,9.8 26.1,8.4 25.6,9.8 24.2,9.8 		
			"/>
		<polygon class="st1" points="26.5,21.4 26.1,20.1 25.6,21.4 24.2,21.4 25.4,22.2 24.9,23.6 26.1,22.7 27.2,23.6 26.8,22.2 
			27.9,21.4 		"/>
		<polygon class="st1" points="22.2,25.6 21.8,24.3 21.4,25.6 20,25.6 21.1,26.5 20.7,27.8 21.8,27 22.9,27.8 22.5,26.5 23.6,25.6 
					"/>
	</g>
</g>
</svg>
