<svg width="20" height="21" viewBox="0 0 20 21" fill="none" xmlns="http://www.w3.org/2000/svg">
<path d="M8.65503 14.715C8.59668 14.715 8.54072 14.7382 8.49946 14.7794C8.45821 14.8207 8.43503 14.8766 8.43503 14.935V16.039C8.43503 16.161 8.53403 16.259 8.65503 16.259H12.16C12.218 16.2585 12.2735 16.2351 12.3143 16.1939C12.3551 16.1527 12.378 16.097 12.378 16.039V14.935C12.378 14.877 12.3551 14.8213 12.3143 14.7801C12.2735 14.7389 12.218 14.7155 12.16 14.715H11.612V9.089H12.16C12.218 9.08847 12.2735 9.06506 12.3143 9.02386C12.3551 8.98266 12.378 8.927 12.378 8.869V7.764C12.378 7.70599 12.3551 7.65034 12.3143 7.60914C12.2735 7.56793 12.218 7.54452 12.16 7.544H8.65503C8.59668 7.544 8.54072 7.56717 8.49946 7.60843C8.45821 7.64969 8.43503 7.70565 8.43503 7.764V8.867C8.43503 8.989 8.53403 9.088 8.65503 9.088H9.20203V14.714H8.65503V14.715ZM1.64603 17.031V17.914C1.64603 18.036 1.74403 18.134 1.86603 18.134H18.948C19.0064 18.134 19.0623 18.1108 19.1036 18.0696C19.1449 18.0283 19.168 17.9723 19.168 17.914V17.031C19.168 16.9726 19.1449 16.9167 19.1036 16.8754C19.0623 16.8342 19.0064 16.811 18.948 16.811H1.86603C1.80768 16.811 1.75172 16.8342 1.71047 16.8754C1.66921 16.9167 1.64603 16.9726 1.64603 17.031ZM2.74103 14.715C2.68286 14.7153 2.62715 14.7386 2.58611 14.7798C2.54507 14.821 2.52203 14.8768 2.52203 14.935V16.039C2.52203 16.161 2.62003 16.259 2.74203 16.259H6.24503C6.3032 16.2587 6.3589 16.2354 6.39995 16.1942C6.44099 16.153 6.46403 16.0972 6.46403 16.039V14.935C6.46403 14.8766 6.44085 14.8207 6.39959 14.7794C6.35833 14.7382 6.30238 14.715 6.24403 14.715H5.69703V9.089H6.24503C6.3032 9.08873 6.3589 9.06544 6.39995 9.02421C6.44099 8.98298 6.46403 8.92717 6.46403 8.869V7.764C6.46403 7.70565 6.44085 7.64969 6.39959 7.60843C6.35833 7.56717 6.30238 7.544 6.24403 7.544H2.74003C2.68186 7.54426 2.62615 7.56756 2.58511 7.60879C2.54407 7.65002 2.52103 7.70582 2.52103 7.764V8.867C2.52103 8.989 2.61903 9.088 2.74103 9.088H3.28803V14.714H2.74003L2.74103 14.715ZM14.568 14.715C14.5099 14.7153 14.4542 14.7386 14.4131 14.7798C14.3721 14.821 14.349 14.8768 14.349 14.935V16.039C14.349 16.161 14.447 16.259 14.569 16.259H18.073C18.1312 16.2587 18.1869 16.2354 18.2279 16.1942C18.269 16.153 18.292 16.0972 18.292 16.039V14.935C18.292 14.8766 18.2688 14.8207 18.2276 14.7794C18.1863 14.7382 18.1304 14.715 18.072 14.715H17.525V9.089H18.073C18.1312 9.08873 18.1869 9.06544 18.2279 9.02421C18.269 8.98298 18.292 8.92717 18.292 8.869V7.764C18.292 7.70565 18.2688 7.64969 18.2276 7.60843C18.1863 7.56717 18.1304 7.544 18.072 7.544H14.569C14.5109 7.54426 14.4552 7.56756 14.4141 7.60879C14.3731 7.65002 14.35 7.70582 14.35 7.764V8.867C14.35 8.989 14.448 9.088 14.57 9.088H15.117V14.714H14.569L14.568 14.715ZM19.715 18.686H1.09903C1.07005 18.686 1.04137 18.6917 1.01461 18.7028C0.987852 18.714 0.963552 18.7303 0.94311 18.7508C0.922668 18.7713 0.906484 18.7957 0.895487 18.8225C0.88449 18.8493 0.878899 18.878 0.879031 18.907V19.789C0.879031 19.911 0.978028 20.009 1.09903 20.009H19.715C19.7732 20.0087 19.8289 19.9854 19.8699 19.9442C19.911 19.903 19.934 19.8472 19.934 19.789V18.907C19.934 18.8486 19.9109 18.7927 19.8696 18.7514C19.8283 18.7102 19.7724 18.687 19.714 18.687L19.715 18.686ZM1.53703 6.993H19.277C19.3352 6.99273 19.3909 6.96944 19.4319 6.92821C19.473 6.88698 19.496 6.83117 19.496 6.773V5.018C19.4928 4.95262 19.4733 4.88908 19.4392 4.83319C19.4052 4.77729 19.3577 4.73081 19.301 4.698L10.603 0.263996C10.5413 0.236657 10.4745 0.222534 10.407 0.222534C10.3395 0.222534 10.2728 0.236657 10.211 0.263996L1.51303 4.697C1.45645 4.72988 1.40899 4.77638 1.37493 4.83226C1.34088 4.88814 1.32132 4.95164 1.31803 5.017V6.771C1.31803 6.893 1.41603 6.993 1.53703 6.993ZM10.407 1.529C10.7025 1.53004 10.9949 1.58928 11.2675 1.70332C11.54 1.81737 11.7875 1.98398 11.9957 2.19366C12.2039 2.40333 12.3687 2.65196 12.4808 2.92535C12.5929 3.19873 12.6501 3.49152 12.649 3.787C12.6501 4.08247 12.5929 4.37526 12.4808 4.64864C12.3687 4.92203 12.2039 5.17066 11.9957 5.38033C11.7875 5.59001 11.54 5.75662 11.2675 5.87067C10.9949 5.98471 10.7025 6.04395 10.407 6.045C10.1116 6.04395 9.81918 5.98471 9.5466 5.87067C9.27402 5.75662 9.02657 5.59001 8.81838 5.38033C8.61019 5.17066 8.44534 4.92203 8.33324 4.64864C8.22113 4.37526 8.16398 4.08247 8.16503 3.787C8.16398 3.49152 8.22113 3.19873 8.33324 2.92535C8.44534 2.65196 8.61019 2.40333 8.81838 2.19366C9.02657 1.98398 9.27402 1.81737 9.5466 1.70332C9.81918 1.58928 10.1116 1.53004 10.407 1.529Z" fill="#65656C"/>
<path fill-rule="evenodd" clip-rule="evenodd" d="M11.2 3.01999C11.1942 3.01423 11.1874 3.00974 11.1798 3.00681C11.1722 3.00389 11.1641 3.00258 11.156 3.00299H10.836C10.8173 2.90496 10.7762 2.81257 10.716 2.73299H11.152C11.1601 2.7334 11.1682 2.73209 11.1758 2.72916C11.1834 2.72624 11.1902 2.72175 11.196 2.71599C11.2014 2.71025 11.2056 2.70349 11.2083 2.69611C11.2111 2.68872 11.2123 2.68086 11.212 2.67299V2.48199C11.2123 2.47412 11.2111 2.46626 11.2083 2.45887C11.2056 2.45149 11.2014 2.44473 11.196 2.43899C11.1902 2.43328 11.1833 2.42883 11.1757 2.4259C11.1682 2.42298 11.1601 2.42164 11.152 2.42199H9.59397C9.58602 2.42172 9.5781 2.42309 9.5707 2.42602C9.5633 2.42894 9.55658 2.43336 9.55097 2.43899C9.54534 2.44461 9.54092 2.45132 9.538 2.45872C9.53507 2.46612 9.5337 2.47404 9.53397 2.48199V2.73199C9.53397 2.74699 9.53997 2.76199 9.55197 2.77299C9.55738 2.77868 9.5639 2.78321 9.57112 2.7863C9.57834 2.78939 9.58611 2.79099 9.59397 2.79099H9.86597C10.129 2.79099 10.296 2.86099 10.368 3.00299H9.59397C9.58602 3.00272 9.5781 3.00409 9.5707 3.00702C9.5633 3.00994 9.55658 3.01436 9.55097 3.01999C9.54534 3.02561 9.54092 3.03232 9.538 3.03972C9.53507 3.04712 9.5337 3.05504 9.53397 3.06299V3.25399C9.53397 3.27099 9.53997 3.28599 9.55097 3.29699C9.55658 3.30262 9.5633 3.30704 9.5707 3.30996C9.5781 3.31288 9.58602 3.31426 9.59397 3.31399H10.394C10.3805 3.36443 10.3564 3.41141 10.3233 3.45177C10.2902 3.49213 10.2488 3.52494 10.202 3.54799C10.0778 3.6066 9.94117 3.63406 9.80397 3.62799H9.59397C9.58604 3.62812 9.57822 3.62987 9.571 3.63314C9.56377 3.63641 9.5573 3.64112 9.55197 3.64699C9.54628 3.65241 9.54175 3.65892 9.53866 3.66614C9.53556 3.67336 9.53397 3.68113 9.53397 3.68899V3.92699C9.53397 3.94299 9.53997 3.95699 9.55097 3.96699C9.79097 4.22299 10.101 4.57899 10.484 5.03699C10.4893 5.04443 10.4964 5.05042 10.5046 5.05444C10.5128 5.05845 10.5218 5.06036 10.531 5.05999H10.896C10.922 5.05999 10.94 5.04899 10.95 5.02699C10.963 5.00399 10.96 4.98299 10.943 4.96299C10.6672 4.61884 10.3803 4.28367 10.083 3.95799C10.272 3.94247 10.4521 3.87073 10.6 3.75199C10.7318 3.64079 10.818 3.48482 10.842 3.31399H11.156C11.1639 3.31426 11.1718 3.31288 11.1792 3.30996C11.1866 3.30704 11.1934 3.30262 11.199 3.29699C11.2046 3.29137 11.209 3.28465 11.2119 3.27726C11.2149 3.26986 11.2162 3.26194 11.216 3.25399V3.06299C11.2162 3.05504 11.2149 3.04712 11.2119 3.03972C11.209 3.03232 11.2056 3.02561 11.2 3.01999Z" fill="#65656C"/>
</svg>
