<svg width="60" height="60" viewBox="0 0 60 60" fill="none" xmlns="http://www.w3.org/2000/svg">
<circle cx="30" cy="30" r="30" fill="#866BDA"/>
<path d="M14 39C14.201 38.3321 19.3408 22.1203 22.0112 16.8075C22.3271 16.2003 22.9588 15.0163 24.1935 14.1359C26.6055 12.4054 29.2472 13.134 29.6779 13.2555C31.5156 13.7716 32.6642 15.0163 33.1236 15.5627C34.4157 17.2021 35.7079 18.8415 37 20.4506C36.1673 23.0007 35.3059 25.5509 34.4732 28.1011C32.3483 25.6116 30.1948 23.0918 28.0699 20.572C26.0599 26.2188 24.0212 31.8352 22.0112 37.482C19.3408 37.9981 16.6704 38.4839 14 39Z" fill="white"/>
<path d="M47 20C46.8077 20.6679 41.8914 36.8797 39.3371 42.1925C39.035 42.7997 38.4307 43.9837 37.2497 44.8641C34.9426 46.5946 32.4157 45.866 32.0037 45.7445C30.2459 45.2284 29.1473 44.0141 28.7079 43.4373C27.4719 41.7979 26.236 40.1585 25 38.5494C25.7965 35.9993 26.6205 33.4491 27.417 30.8989C29.4494 33.4187 31.5094 35.9385 33.5418 38.4584C35.4644 32.8116 37.4145 27.1648 39.3371 21.5483C41.8914 21.0322 44.4457 20.5161 47 20Z" fill="white"/>
</svg>
