<svg width="457" height="58" viewBox="0 0 457 58" fill="none" xmlns="http://www.w3.org/2000/svg">
<path d="M375.812 16.1901C375.812 14.2441 377.452 12.6231 379.487 12.6231H382.703V10.7421C382.703 9.76909 381.915 8.99009 380.931 8.99009H365.903C364.656 8.99009 364 8.01709 364 8.01709V22.3531C364.656 23.5201 365.837 23.5201 365.837 23.5201H380.931C381.915 23.5201 382.703 22.7421 382.703 21.7691V19.7581H379.487C377.453 19.7581 375.812 18.1361 375.812 16.1901Z" fill="#65656C"/>
<path d="M382.833 13.4011H379.421C377.846 13.4011 376.599 14.6341 376.599 16.1261C376.599 17.6171 377.846 18.8501 379.421 18.8501H382.767C382.957 18.8496 383.14 18.7744 383.275 18.6409C383.41 18.5073 383.487 18.326 383.489 18.1361V14.1151C383.555 13.7251 383.227 13.4011 382.833 13.4011ZM380.143 17.2281C380.006 17.2308 379.869 17.2058 379.741 17.1548C379.613 17.1037 379.497 17.0275 379.399 16.9308C379.301 16.834 379.224 16.7186 379.171 16.5914C379.119 16.4642 379.092 16.3277 379.093 16.1901C379.093 15.6071 379.552 15.1531 380.143 15.1531C380.733 15.1531 381.193 15.6071 381.193 16.1901C381.195 16.3277 381.168 16.4642 381.116 16.5914C381.063 16.7186 380.985 16.834 380.888 16.9308C380.79 17.0275 380.673 17.1037 380.546 17.1548C380.418 17.2058 380.281 17.2308 380.143 17.2281ZM369.971 6.8501C370.233 7.3041 370.627 7.6931 371.086 8.0171H365.442C364.786 7.8871 364.917 6.8501 366.952 6.8501H369.971ZM377.321 6.8501H380.602C381.521 6.8501 382.308 7.5631 382.308 8.4711V8.6661C381.98 8.1471 381.127 8.0171 381.127 8.0171H376.205C376.665 7.6931 377.058 7.3041 377.321 6.8501Z" fill="#65656C"/>
<path d="M373.705 8.24199C371.67 8.24199 370.03 6.62099 370.03 4.60999C370.03 2.59899 371.67 1.04199 373.705 1.04199C375.739 1.04199 377.38 2.66399 377.38 4.60999C377.38 6.55599 375.74 8.24199 373.705 8.24199ZM374.033 4.15599V3.70199H375.083V3.05199H372.261V3.70199H373.311V4.15599C372.458 4.22099 371.801 4.34999 371.801 4.54499C371.801 4.73899 372.458 4.93399 373.245 4.93399V6.36099H373.967V4.93399C374.886 4.93399 375.477 4.73899 375.477 4.54399C375.477 4.34999 374.886 4.22099 374.033 4.15599ZM374.033 4.80399H373.245C372.523 4.80399 371.933 4.67399 371.933 4.47999C371.933 4.34999 372.458 4.21999 373.245 4.15599V4.67499H374.033V4.22099C374.755 4.22099 375.345 4.35099 375.345 4.54499C375.345 4.67499 374.755 4.80399 374.033 4.80399Z" fill="#65656C"/>
<path d="M154.789 39.9371L155.593 38.9891C156.157 39.5171 156.913 39.8771 157.645 39.8771C158.521 39.8771 159.013 39.4811 159.013 38.8691C159.013 38.2211 158.509 38.0171 157.789 37.7171L156.721 37.2491C155.941 36.9251 155.137 36.3131 155.137 35.1611C155.137 33.9131 156.241 32.9531 157.765 32.9531C158.689 32.9531 159.577 33.3371 160.189 33.9491L159.469 34.8371C158.977 34.4171 158.437 34.1651 157.765 34.1651C157.021 34.1651 156.541 34.5131 156.541 35.0891C156.541 35.7011 157.141 35.9291 157.789 36.1931L158.845 36.6371C159.781 37.0331 160.429 37.6211 160.429 38.7611C160.429 40.0331 159.373 41.0891 157.609 41.0891C156.555 41.0881 155.543 40.6746 154.789 39.9371ZM161.341 38.0051C161.341 36.0851 162.673 34.9091 164.053 34.9091C165.649 34.9091 166.489 36.0611 166.489 37.7051C166.489 37.9691 166.465 38.2091 166.429 38.3531H162.685C162.805 39.4211 163.477 40.0211 164.425 40.0211C164.929 40.0211 165.361 39.8651 165.793 39.5891L166.261 40.4531C165.697 40.8251 164.989 41.0891 164.245 41.0891C162.613 41.0891 161.341 39.9491 161.341 38.0051ZM162.673 37.4771H165.289C165.289 36.5411 164.893 35.9771 164.089 35.9771C163.393 35.9771 162.793 36.4931 162.673 37.4771ZM167.809 39.4331V32.4731H169.189V39.5051C169.189 39.8411 169.345 39.9611 169.489 39.9611C169.549 39.9611 169.597 39.9611 169.705 39.9371L169.885 40.9691C169.717 41.0411 169.477 41.0891 169.153 41.0891C168.169 41.0891 167.809 40.4531 167.809 39.4331ZM171.061 39.4331V32.4731H172.441V39.5051C172.441 39.8411 172.597 39.9611 172.741 39.9611C172.801 39.9611 172.849 39.9611 172.957 39.9371L173.137 40.9691C172.969 41.0411 172.729 41.0891 172.405 41.0891C171.421 41.0891 171.061 40.4531 171.061 39.4331ZM173.929 38.0051C173.929 36.0851 175.261 34.9091 176.641 34.9091C178.237 34.9091 179.077 36.0611 179.077 37.7051C179.077 37.9691 179.053 38.2091 179.017 38.3531H175.273C175.393 39.4211 176.065 40.0211 177.013 40.0211C177.517 40.0211 177.949 39.8651 178.381 39.5891L178.849 40.4531C178.285 40.8251 177.577 41.0891 176.833 41.0891C175.201 41.0891 173.929 39.9491 173.929 38.0051ZM175.261 37.4771H177.877C177.877 36.5411 177.481 35.9771 176.677 35.9771C175.981 35.9771 175.381 36.4931 175.261 37.4771ZM180.397 40.9451V35.0531H181.537L181.633 36.0971H181.681C182.101 35.3291 182.725 34.9091 183.349 34.9091C183.649 34.9091 183.841 34.9451 184.021 35.0291L183.781 36.2291C183.584 36.1643 183.377 36.1318 183.169 36.1331C182.701 36.1331 182.137 36.4571 181.777 37.3451V40.9451H180.397ZM186.949 38.0051C186.949 36.0371 188.329 34.9091 189.901 34.9091C190.657 34.9091 191.233 35.2091 191.629 35.5931L190.969 36.4691C190.657 36.1931 190.345 36.0371 189.973 36.0371C189.025 36.0371 188.365 36.8171 188.365 38.0051C188.365 39.1811 189.013 39.9611 189.937 39.9611C190.417 39.9611 190.825 39.7211 191.149 39.4571L191.725 40.3331C191.194 40.8106 190.508 41.0792 189.793 41.0891C188.185 41.0891 186.949 39.9611 186.949 38.0051ZM192.493 38.0051C192.493 36.0371 193.825 34.9091 195.289 34.9091C196.765 34.9091 198.097 36.0371 198.097 38.0051C198.097 39.9611 196.765 41.0891 195.289 41.0891C193.825 41.0891 192.493 39.9611 192.493 38.0051ZM193.909 38.0051C193.909 39.1811 194.425 39.9611 195.289 39.9611C196.153 39.9611 196.681 39.1811 196.681 38.0051C196.681 36.8171 196.153 36.0371 195.289 36.0371C194.425 36.0371 193.909 36.8171 193.909 38.0051ZM199.465 40.9451V35.0531H200.605L200.701 35.8451H200.749C201.277 35.3291 201.877 34.9091 202.681 34.9091C203.941 34.9091 204.493 35.7611 204.493 37.2491V40.9451H203.113V37.4291C203.113 36.4571 202.837 36.0971 202.189 36.0971C201.673 36.0971 201.337 36.3491 200.845 36.8291V40.9451H199.465ZM209.461 32.5331L209.197 33.5651C208.994 33.4731 208.773 33.424 208.549 33.4211C208.069 33.4211 207.805 33.7331 207.805 34.4171V35.0531H208.957V36.1451H207.805V40.9451H206.425V36.1451H205.633V35.1131L206.425 35.0531V34.4411C206.425 33.2171 206.989 32.3291 208.381 32.3291C208.801 32.3291 209.197 32.4251 209.461 32.5331ZM210.685 34.0211C210.193 34.0211 209.833 33.6971 209.833 33.2411C209.833 32.7731 210.193 32.4491 210.685 32.4491C211.177 32.4491 211.537 32.7731 211.537 33.2411C211.537 33.6971 211.177 34.0211 210.685 34.0211ZM209.989 40.9451V35.0531H211.369V40.9451H209.989ZM213.133 40.9451V35.0531H214.273L214.369 36.0971H214.417C214.837 35.3291 215.461 34.9091 216.085 34.9091C216.385 34.9091 216.577 34.9451 216.757 35.0291L216.517 36.2291C216.32 36.1643 216.113 36.1318 215.905 36.1331C215.437 36.1331 214.873 36.4571 214.513 37.3451V40.9451H213.133ZM217.609 40.9451V35.0531H218.749L218.845 35.8571H218.893C219.385 35.3291 219.961 34.9091 220.693 34.9091C221.557 34.9091 222.049 35.3051 222.325 35.9651C222.889 35.3651 223.477 34.9091 224.221 34.9091C225.469 34.9091 226.045 35.7611 226.045 37.2491V40.9451H224.653V37.4291C224.653 36.4571 224.365 36.0971 223.753 36.0971C223.381 36.0971 222.973 36.3371 222.517 36.8291V40.9451H221.137V37.4291C221.137 36.4571 220.849 36.0971 220.225 36.0971C219.865 36.0971 219.445 36.3371 218.989 36.8291V40.9451H217.609ZM227.137 40.2731L227.785 39.3851C228.313 39.7931 228.817 40.0451 229.417 40.0451C230.053 40.0451 230.353 39.7451 230.353 39.3371C230.353 38.8451 229.717 38.6291 229.093 38.3891C228.313 38.1011 227.437 37.6571 227.437 36.6731C227.437 35.6411 228.265 34.9091 229.585 34.9091C230.401 34.9091 231.061 35.2451 231.541 35.6171L230.905 36.4571C230.497 36.1571 230.077 35.9531 229.609 35.9531C229.021 35.9531 228.745 36.2291 228.745 36.6011C228.745 37.0571 229.333 37.2491 229.969 37.4771C230.773 37.7771 231.661 38.1611 231.661 39.2651C231.661 40.2731 230.857 41.0891 229.369 41.0891C228.565 41.0891 227.713 40.7411 227.137 40.2731ZM172.285 54.4411L172.321 55.4251V57.2731H170.941V49.0531H172.081L172.177 49.6771H172.225C172.717 49.2571 173.353 48.9091 174.001 48.9091C175.465 48.9091 176.317 50.0851 176.317 51.9091C176.317 53.9251 175.105 55.0891 173.797 55.0891C173.281 55.0891 172.765 54.8491 172.285 54.4411ZM172.321 53.4571C172.753 53.8171 173.161 53.9491 173.509 53.9491C174.289 53.9491 174.889 53.2531 174.889 51.9211C174.889 50.7451 174.505 50.0491 173.617 50.0491C173.185 50.0491 172.777 50.2651 172.321 50.7091V53.4571ZM177.457 53.3611C177.457 52.1011 178.513 51.4411 180.925 51.1771C180.913 50.5531 180.649 50.0251 179.857 50.0251C179.269 50.0251 178.717 50.2891 178.201 50.6011L177.697 49.6771C178.345 49.2691 179.173 48.9091 180.109 48.9091C181.585 48.9091 182.305 49.8091 182.305 51.4531V54.9451H181.177L181.069 54.2971H181.033C180.505 54.7411 179.905 55.0891 179.209 55.0891C178.177 55.0891 177.457 54.3931 177.457 53.3611ZM178.801 53.2531C178.801 53.7811 179.149 54.0091 179.641 54.0091C180.121 54.0091 180.493 53.7691 180.925 53.3611V52.0411C179.329 52.2451 178.801 52.6651 178.801 53.2531ZM183.865 56.1691C183.973 56.2051 184.141 56.2531 184.285 56.2531C184.909 56.2531 185.269 55.8331 185.461 55.2451L185.569 54.8731L183.253 49.0531H184.657L185.677 51.9451C185.845 52.4611 186.013 53.0491 186.193 53.6011H186.241C186.385 53.0611 186.541 52.4731 186.685 51.9451L187.573 49.0531H188.905L186.769 55.2091C186.277 56.5411 185.665 57.3691 184.381 57.3691C184.12 57.3731 183.861 57.3326 183.613 57.2491L183.865 56.1691ZM189.925 54.9451V49.0531H191.065L191.161 49.8571H191.209C191.701 49.3291 192.277 48.9091 193.009 48.9091C193.873 48.9091 194.365 49.3051 194.641 49.9651C195.205 49.3651 195.793 48.9091 196.537 48.9091C197.785 48.9091 198.361 49.7611 198.361 51.2491V54.9451H196.969V51.4291C196.969 50.4571 196.681 50.0971 196.069 50.0971C195.697 50.0971 195.289 50.3371 194.833 50.8291V54.9451H193.453V51.4291C193.453 50.4571 193.165 50.0971 192.541 50.0971C192.181 50.0971 191.761 50.3371 191.305 50.8291V54.9451H189.925ZM199.657 52.0051C199.657 50.0851 200.989 48.9091 202.369 48.9091C203.965 48.9091 204.805 50.0611 204.805 51.7051C204.805 51.9691 204.781 52.2091 204.745 52.3531H201.001C201.121 53.4211 201.793 54.0211 202.741 54.0211C203.245 54.0211 203.677 53.8651 204.109 53.5891L204.577 54.4531C204.013 54.8251 203.305 55.0891 202.561 55.0891C200.929 55.0891 199.657 53.9491 199.657 52.0051ZM200.989 51.4771H203.605C203.605 50.5411 203.209 49.9771 202.405 49.9771C201.709 49.9771 201.109 50.4931 200.989 51.4771ZM206.125 54.9451V49.0531H207.265L207.361 49.8451H207.409C207.937 49.3291 208.537 48.9091 209.341 48.9091C210.601 48.9091 211.153 49.7611 211.153 51.2491V54.9451H209.773V51.4291C209.773 50.4571 209.497 50.0971 208.849 50.0971C208.333 50.0971 207.997 50.3491 207.505 50.8291V54.9451H206.125ZM213.049 52.9531V50.1451H212.209V49.1131L213.121 49.0531L213.289 47.4451H214.441V49.0531H215.941V50.1451H214.441V52.9531C214.441 53.6491 214.705 53.9851 215.269 53.9851C215.473 53.9851 215.713 53.9251 215.881 53.8531L216.121 54.8731C215.736 55.0098 215.331 55.0828 214.921 55.0891C213.553 55.0891 213.049 54.2251 213.049 52.9531Z" fill="#263238" fill-opacity="0.87"/>
<path d="M184.286 11.4C183.944 11.4 183.038 10.462 183.038 10.08L183.662 2.584C183.662 2.202 183.942 1.89 184.286 1.89H188.378L202.56 1C202.839 1 203.609 2.162 203.609 2.54V10.714C203.609 11.091 203.381 11.4 203.103 11.4H184.286Z" fill="#65656C"/>
<path d="M201.542 10.6682H183.636C183.306 10.6682 183.038 10.3562 183.038 9.97322V1.8532C183.038 1.4712 183.307 1.1582 183.636 1.1582H196.306L196.311 1.1832L202.391 1.1582C202.657 1.1582 202.874 1.4662 202.874 1.8412V9.98522C202.874 10.3612 202.657 10.6682 202.391 10.6682H201.542Z" fill="#D9D9D9" stroke="#65656C" stroke-width="0.5"/>
<path d="M195.758 3.18786C195.866 2.25086 196.698 1.52686 197.718 1.52686C198.812 1.52686 199.691 2.35886 199.691 3.39686C199.691 4.32986 198.977 5.09686 198.034 5.23986V8.64886C198.034 8.89886 197.816 9.10386 197.552 9.10386H187.898C187.633 9.10386 187.416 8.89886 187.416 8.64886V3.64286C187.416 3.39286 187.633 3.18786 187.898 3.18786H195.758ZM197.348 5.23086C196.575 5.09286 195.965 4.53286 195.794 3.81086H189.026C189.026 4.27786 188.609 4.65986 188.1 4.65986V7.63186C188.609 7.63186 189.025 8.01385 189.025 8.48085H196.425H196.423C196.423 8.01385 196.839 7.63086 197.348 7.63086V5.23086ZM192.725 7.39086C191.999 7.39086 191.41 6.83285 191.41 6.14585C191.41 5.45785 191.999 4.90086 192.725 4.90086C193.451 4.90086 194.04 5.45785 194.04 6.14585C194.04 6.83285 193.451 7.39086 192.725 7.39086Z" fill="#65656C"/>
<path fill-rule="evenodd" clip-rule="evenodd" d="M198.857 2.80895C198.893 2.77495 198.893 2.72395 198.857 2.69895L198.732 2.57895C198.715 2.56246 198.693 2.55322 198.669 2.55322C198.646 2.55322 198.623 2.56246 198.606 2.57895H198.597L197.396 3.76095C197.388 3.76919 197.376 3.77381 197.365 3.77381C197.353 3.77381 197.342 3.76919 197.333 3.76095L196.839 3.26095L196.831 3.25095C196.814 3.23446 196.792 3.22522 196.768 3.22522C196.745 3.22522 196.722 3.23446 196.705 3.25095L196.58 3.37095C196.564 3.38682 196.554 3.40825 196.553 3.43095C196.554 3.45329 196.564 3.47432 196.58 3.48995L196.597 3.50695L197.297 4.21995C197.306 4.23695 197.333 4.24495 197.36 4.24495C197.372 4.24543 197.383 4.24345 197.394 4.23914C197.405 4.23483 197.414 4.22828 197.422 4.21995L198.857 2.80895Z" fill="white"/>
<path d="M196.86 20.0717H190.724L187.697 17.1017C187.626 17.0323 187.57 16.9494 187.531 16.858C187.493 16.7666 187.473 16.6684 187.473 16.5692C187.473 16.4701 187.493 16.3719 187.531 16.2805C187.57 16.189 187.626 16.1062 187.697 16.0367L188.016 15.7237C188.161 15.5829 188.356 15.5042 188.558 15.5042C188.761 15.5042 188.955 15.5829 189.101 15.7237L189.955 16.5607V10.3887C189.957 10.1873 190.039 9.99513 190.183 9.85399C190.326 9.71289 190.52 9.63443 190.722 9.63576H191.029C191.23 9.63443 191.424 9.71289 191.567 9.85399C191.711 9.99513 191.793 10.1873 191.796 10.3887V13.3207C191.868 13.226 191.96 13.1492 192.067 13.0963C192.173 13.0434 192.291 13.0158 192.41 13.0157H192.716C192.859 13.0155 193 13.0555 193.122 13.1311C193.244 13.2068 193.343 13.315 193.407 13.4437C193.47 13.3152 193.569 13.207 193.691 13.1314C193.813 13.0558 193.953 13.0157 194.097 13.0157H194.404C194.547 13.0155 194.688 13.0555 194.81 13.1311C194.932 13.2068 195.031 13.315 195.095 13.4437C195.158 13.3152 195.257 13.207 195.379 13.1314C195.501 13.0558 195.641 13.0157 195.785 13.0157H196.093C196.294 13.0144 196.488 13.093 196.632 13.2343C196.776 13.3756 196.857 13.5682 196.86 13.7697V20.0717ZM197.369 23.3677C197.368 23.4349 197.34 23.4991 197.292 23.5461C197.244 23.5932 197.18 23.6193 197.113 23.6187H190.361C190.294 23.619 190.229 23.5929 190.182 23.5461C190.134 23.4993 190.107 23.4356 190.106 23.3687V21.3187C190.106 21.1787 190.22 21.0667 190.361 21.0667H197.113C197.253 21.0667 197.369 21.1797 197.369 21.3177V23.3677Z" fill="#65656C"/>
<path d="M13.842 40.9447V33.0967H16.482C18.198 33.0967 19.458 33.6967 19.458 35.5207C19.458 37.2607 18.162 38.0647 16.482 38.0647H15.234V40.9447H13.842ZM15.234 36.9487H16.362C17.538 36.9487 18.09 36.4807 18.09 35.5207C18.09 34.5367 17.502 34.2127 16.362 34.2127H15.234V36.9487ZM20.538 39.3607C20.538 38.1007 21.594 37.4407 24.006 37.1767C23.994 36.5527 23.73 36.0247 22.938 36.0247C22.35 36.0247 21.798 36.2887 21.282 36.6007L20.778 35.6767C21.426 35.2687 22.254 34.9087 23.19 34.9087C24.666 34.9087 25.386 35.8087 25.386 37.4527V40.9447H24.258L24.15 40.2967H24.114C23.586 40.7407 22.986 41.0887 22.29 41.0887C21.258 41.0887 20.538 40.3927 20.538 39.3607ZM21.882 39.2527C21.882 39.7807 22.23 40.0087 22.722 40.0087C23.202 40.0087 23.574 39.7687 24.006 39.3607V38.0407C22.41 38.2447 21.882 38.6647 21.882 39.2527ZM26.946 42.1687C27.054 42.2047 27.222 42.2527 27.366 42.2527C27.99 42.2527 28.35 41.8327 28.542 41.2447L28.65 40.8727L26.334 35.0527H27.738L28.758 37.9447C28.926 38.4607 29.094 39.0487 29.274 39.6007H29.322C29.466 39.0607 29.622 38.4727 29.766 37.9447L30.654 35.0527H31.986L29.85 41.2087C29.358 42.5407 28.746 43.3687 27.462 43.3687C27.201 43.3728 26.9413 43.3322 26.694 43.2487L26.946 42.1687ZM35.106 38.0047C35.106 36.0847 36.318 34.9087 37.602 34.9087C38.274 34.9087 38.694 35.1607 39.15 35.5567L39.102 34.6087V32.4727H40.482V40.9447H39.342L39.246 40.3087H39.198C38.766 40.7407 38.166 41.0887 37.53 41.0887C36.054 41.0887 35.106 39.9487 35.106 38.0047ZM36.534 37.9927C36.534 39.2647 37.014 39.9487 37.866 39.9487C38.322 39.9487 38.706 39.7447 39.102 39.2887V36.5407C38.694 36.1807 38.298 36.0487 37.902 36.0487C37.146 36.0487 36.534 36.7567 36.534 37.9927ZM42.93 34.0207C42.438 34.0207 42.078 33.6967 42.078 33.2407C42.078 32.7727 42.438 32.4487 42.93 32.4487C43.422 32.4487 43.782 32.7727 43.782 33.2407C43.782 33.6967 43.422 34.0207 42.93 34.0207ZM42.234 40.9447V35.0527H43.614V40.9447H42.234ZM45.378 40.9447V35.0527H46.518L46.614 36.0967H46.662C47.082 35.3287 47.706 34.9087 48.33 34.9087C48.63 34.9087 48.822 34.9447 49.002 35.0287L48.762 36.2287C48.5645 36.1639 48.3578 36.1315 48.15 36.1327C47.682 36.1327 47.118 36.4567 46.758 37.3447V40.9447H45.378ZM49.47 38.0047C49.47 36.0847 50.802 34.9087 52.182 34.9087C53.778 34.9087 54.618 36.0607 54.618 37.7047C54.618 37.9687 54.594 38.2087 54.558 38.3527H50.814C50.934 39.4207 51.606 40.0207 52.554 40.0207C53.058 40.0207 53.49 39.8647 53.922 39.5887L54.39 40.4527C53.826 40.8247 53.118 41.0887 52.374 41.0887C50.742 41.0887 49.47 39.9487 49.47 38.0047ZM50.802 37.4767H53.418C53.418 36.5407 53.022 35.9767 52.218 35.9767C51.522 35.9767 50.922 36.4927 50.802 37.4767ZM55.554 38.0047C55.554 36.0367 56.934 34.9087 58.506 34.9087C59.262 34.9087 59.838 35.2087 60.234 35.5927L59.574 36.4687C59.262 36.1927 58.95 36.0367 58.578 36.0367C57.63 36.0367 56.97 36.8167 56.97 38.0047C56.97 39.1807 57.618 39.9607 58.542 39.9607C59.022 39.9607 59.43 39.7207 59.754 39.4567L60.33 40.3327C59.7987 40.8102 59.1123 41.0788 58.398 41.0887C56.79 41.0887 55.554 39.9607 55.554 38.0047ZM61.686 38.9527V36.1447H60.846V35.1127L61.758 35.0527L61.926 33.4447H63.078V35.0527H64.578V36.1447H63.078V38.9527C63.078 39.6487 63.342 39.9847 63.906 39.9847C64.11 39.9847 64.35 39.9247 64.518 39.8527L64.758 40.8727C64.3724 41.0095 63.9671 41.0824 63.558 41.0887C62.19 41.0887 61.686 40.2247 61.686 38.9527ZM65.814 39.4327V32.4727H67.194V39.5047C67.194 39.8407 67.35 39.9607 67.494 39.9607C67.554 39.9607 67.602 39.9607 67.71 39.9367L67.89 40.9687C67.722 41.0407 67.482 41.0887 67.158 41.0887C66.174 41.0887 65.814 40.4527 65.814 39.4327ZM68.946 42.1687C69.054 42.2047 69.222 42.2527 69.366 42.2527C69.99 42.2527 70.35 41.8327 70.542 41.2447L70.65 40.8727L68.334 35.0527H69.738L70.758 37.9447C70.926 38.4607 71.094 39.0487 71.274 39.6007H71.322C71.466 39.0607 71.622 38.4727 71.766 37.9447L72.654 35.0527H73.986L71.85 41.2087C71.358 42.5407 70.746 43.3687 69.462 43.3687C69.201 43.3728 68.9413 43.3322 68.694 43.2487L68.946 42.1687ZM77.67 38.9527V36.1447H76.83V35.1127L77.742 35.0527L77.91 33.4447H79.062V35.0527H80.562V36.1447H79.062V38.9527C79.062 39.6487 79.326 39.9847 79.89 39.9847C80.094 39.9847 80.334 39.9247 80.502 39.8527L80.742 40.8727C80.3564 41.0095 79.9511 41.0824 79.542 41.0887C78.174 41.0887 77.67 40.2247 77.67 38.9527ZM81.414 38.0047C81.414 36.0367 82.746 34.9087 84.21 34.9087C85.686 34.9087 87.018 36.0367 87.018 38.0047C87.018 39.9607 85.686 41.0887 84.21 41.0887C82.746 41.0887 81.414 39.9607 81.414 38.0047ZM82.83 38.0047C82.83 39.1807 83.346 39.9607 84.21 39.9607C85.074 39.9607 85.602 39.1807 85.602 38.0047C85.602 36.8167 85.074 36.0367 84.21 36.0367C83.346 36.0367 82.83 36.8167 82.83 38.0047ZM0 54.2727L0.648 53.3847C1.176 53.7927 1.68 54.0447 2.28 54.0447C2.916 54.0447 3.216 53.7447 3.216 53.3367C3.216 52.8447 2.58 52.6287 1.956 52.3887C1.176 52.1007 0.3 51.6567 0.3 50.6727C0.3 49.6407 1.128 48.9087 2.448 48.9087C3.264 48.9087 3.924 49.2447 4.404 49.6167L3.768 50.4567C3.36 50.1567 2.94 49.9527 2.472 49.9527C1.884 49.9527 1.608 50.2287 1.608 50.6007C1.608 51.0567 2.196 51.2487 2.832 51.4767C3.636 51.7767 4.524 52.1607 4.524 53.2647C4.524 54.2727 3.72 55.0887 2.232 55.0887C1.428 55.0887 0.576 54.7407 0 54.2727ZM5.376 52.0047C5.376 50.0847 6.708 48.9087 8.088 48.9087C9.68399 48.9087 10.524 50.0607 10.524 51.7047C10.524 51.9687 10.5 52.2087 10.464 52.3527H6.72C6.84 53.4207 7.512 54.0207 8.46 54.0207C8.964 54.0207 9.396 53.8647 9.82799 53.5887L10.296 54.4527C9.73199 54.8247 9.024 55.0887 8.28 55.0887C6.648 55.0887 5.376 53.9487 5.376 52.0047ZM6.708 51.4767H9.324C9.324 50.5407 8.928 49.9767 8.124 49.9767C7.428 49.9767 6.828 50.4927 6.708 51.4767ZM11.844 53.4327V46.4727H13.224V53.5047C13.224 53.8407 13.38 53.9607 13.524 53.9607C13.584 53.9607 13.632 53.9607 13.74 53.9367L13.92 54.9687C13.752 55.0407 13.512 55.0887 13.188 55.0887C12.204 55.0887 11.844 54.4527 11.844 53.4327ZM15.096 53.4327V46.4727H16.476V53.5047C16.476 53.8407 16.632 53.9607 16.776 53.9607C16.836 53.9607 16.884 53.9607 16.992 53.9367L17.172 54.9687C17.004 55.0407 16.764 55.0887 16.44 55.0887C15.456 55.0887 15.096 54.4527 15.096 53.4327ZM17.964 52.0047C17.964 50.0847 19.296 48.9087 20.676 48.9087C22.272 48.9087 23.112 50.0607 23.112 51.7047C23.112 51.9687 23.088 52.2087 23.052 52.3527H19.308C19.428 53.4207 20.1 54.0207 21.048 54.0207C21.552 54.0207 21.984 53.8647 22.416 53.5887L22.884 54.4527C22.32 54.8247 21.612 55.0887 20.868 55.0887C19.236 55.0887 17.964 53.9487 17.964 52.0047ZM19.296 51.4767H21.912C21.912 50.5407 21.516 49.9767 20.712 49.9767C20.016 49.9767 19.416 50.4927 19.296 51.4767ZM24.432 54.9447V49.0527H25.572L25.668 50.0967H25.716C26.136 49.3287 26.76 48.9087 27.384 48.9087C27.684 48.9087 27.876 48.9447 28.056 49.0287L27.816 50.2287C27.6185 50.1639 27.4119 50.1315 27.204 50.1327C26.736 50.1327 26.172 50.4567 25.812 51.3447V54.9447H24.432ZM31.368 54.9447V46.4727H32.748V48.6567L32.712 49.6407C33.204 49.2087 33.816 48.9087 34.416 48.9087C35.892 48.9087 36.744 50.0847 36.744 51.8967C36.744 53.9247 35.532 55.0887 34.224 55.0887C33.684 55.0887 33.108 54.8247 32.616 54.3447H32.58L32.46 54.9447H31.368ZM32.748 53.4567C33.168 53.8167 33.588 53.9487 33.936 53.9487C34.716 53.9487 35.316 53.2527 35.316 51.9207C35.316 50.7447 34.932 50.0487 34.044 50.0487C33.612 50.0487 33.204 50.2647 32.748 50.7087V53.4567ZM37.884 53.3607C37.884 52.1007 38.94 51.4407 41.352 51.1767C41.34 50.5527 41.076 50.0247 40.284 50.0247C39.696 50.0247 39.144 50.2887 38.628 50.6007L38.124 49.6767C38.772 49.2687 39.6 48.9087 40.536 48.9087C42.012 48.9087 42.732 49.8087 42.732 51.4527V54.9447H41.604L41.496 54.2967H41.46C40.932 54.7407 40.332 55.0887 39.636 55.0887C38.604 55.0887 37.884 54.3927 37.884 53.3607ZM39.228 53.2527C39.228 53.7807 39.576 54.0087 40.068 54.0087C40.548 54.0087 40.92 53.7687 41.352 53.3607V52.0407C39.756 52.2447 39.228 52.6647 39.228 53.2527ZM44.412 54.9447V49.0527H45.552L45.648 49.8447H45.696C46.224 49.3287 46.824 48.9087 47.628 48.9087C48.888 48.9087 49.44 49.7607 49.44 51.2487V54.9447H48.06V51.4287C48.06 50.4567 47.784 50.0967 47.136 50.0967C46.62 50.0967 46.284 50.3487 45.792 50.8287V54.9447H44.412ZM51.132 54.9447V46.4727H52.488V51.7647H52.524L54.708 49.0527H56.22L54.204 51.4527L56.424 54.9447H54.924L53.412 52.3887L52.488 53.4447V54.9447H51.132ZM59.604 53.3607C59.604 52.1007 60.66 51.4407 63.072 51.1767C63.06 50.5527 62.796 50.0247 62.004 50.0247C61.416 50.0247 60.864 50.2887 60.348 50.6007L59.844 49.6767C60.492 49.2687 61.32 48.9087 62.256 48.9087C63.732 48.9087 64.452 49.8087 64.452 51.4527V54.9447H63.324L63.216 54.2967H63.18C62.652 54.7407 62.052 55.0887 61.356 55.0887C60.324 55.0887 59.604 54.3927 59.604 53.3607ZM60.948 53.2527C60.948 53.7807 61.296 54.0087 61.788 54.0087C62.268 54.0087 62.64 53.7687 63.072 53.3607V52.0407C61.476 52.2447 60.948 52.6647 60.948 53.2527ZM65.748 52.0047C65.748 50.0367 67.128 48.9087 68.7 48.9087C69.456 48.9087 70.032 49.2087 70.428 49.5927L69.768 50.4687C69.456 50.1927 69.144 50.0367 68.772 50.0367C67.824 50.0367 67.164 50.8167 67.164 52.0047C67.164 53.1807 67.812 53.9607 68.736 53.9607C69.216 53.9607 69.624 53.7207 69.948 53.4567L70.524 54.3327C69.9927 54.8102 69.3063 55.0788 68.592 55.0887C66.984 55.0887 65.748 53.9607 65.748 52.0047ZM71.292 52.0047C71.292 50.0367 72.672 48.9087 74.244 48.9087C75 48.9087 75.576 49.2087 75.972 49.5927L75.312 50.4687C75 50.1927 74.688 50.0367 74.316 50.0367C73.368 50.0367 72.708 50.8167 72.708 52.0047C72.708 53.1807 73.356 53.9607 74.28 53.9607C74.76 53.9607 75.168 53.7207 75.492 53.4567L76.068 54.3327C75.5367 54.8102 74.8503 55.0788 74.136 55.0887C72.528 55.0887 71.292 53.9607 71.292 52.0047ZM76.836 52.0047C76.836 50.0367 78.168 48.9087 79.632 48.9087C81.108 48.9087 82.44 50.0367 82.44 52.0047C82.44 53.9607 81.108 55.0887 79.632 55.0887C78.168 55.0887 76.836 53.9607 76.836 52.0047ZM78.252 52.0047C78.252 53.1807 78.768 53.9607 79.632 53.9607C80.496 53.9607 81.024 53.1807 81.024 52.0047C81.024 50.8167 80.496 50.0367 79.632 50.0367C78.768 50.0367 78.252 50.8167 78.252 52.0047ZM83.748 52.7487V49.0527H85.128V52.5687C85.128 53.5407 85.404 53.9007 86.04 53.9007C86.556 53.9007 86.904 53.6607 87.348 53.0847V49.0527H88.728V54.9447H87.6L87.492 54.0807H87.456C86.94 54.6927 86.364 55.0887 85.56 55.0887C84.3 55.0887 83.748 54.2367 83.748 52.7487ZM90.48 54.9447V49.0527H91.62L91.716 49.8447H91.764C92.292 49.3287 92.892 48.9087 93.696 48.9087C94.956 48.9087 95.508 49.7607 95.508 51.2487V54.9447H94.128V51.4287C94.128 50.4567 93.852 50.0967 93.204 50.0967C92.688 50.0967 92.352 50.3487 91.86 50.8287V54.9447H90.48ZM97.404 52.9527V50.1447H96.564V49.1127L97.476 49.0527L97.644 47.4447H98.796V49.0527H100.296V50.1447H98.796V52.9527C98.796 53.6487 99.06 53.9847 99.624 53.9847C99.8276 53.9847 100.068 53.9247 100.236 53.8527L100.476 54.8727C100.091 55.0095 99.6846 55.0824 99.276 55.0887C97.908 55.0887 97.404 54.2247 97.404 52.9527Z" fill="#263238" fill-opacity="0.87"/>
<path d="M47.3385 15.6599C47.2802 15.6599 47.2242 15.6831 47.1829 15.7244C47.1417 15.7656 47.1185 15.8216 47.1185 15.8799V16.9839C47.1185 17.1059 47.2175 17.2039 47.3385 17.2039H50.8435C50.9015 17.2034 50.957 17.18 50.9978 17.1388C51.0386 17.0976 51.0615 17.0419 51.0615 16.9839V15.8799C51.0615 15.8219 51.0386 15.7663 50.9978 15.7251C50.957 15.6839 50.9015 15.6604 50.8435 15.6599H50.2955V10.0339H50.8435C50.9015 10.0334 50.957 10.01 50.9978 9.96882C51.0386 9.9276 51.0615 9.87194 51.0615 9.81394V8.70894C51.0615 8.65094 51.0386 8.59528 50.9978 8.55408C50.957 8.51288 50.9015 8.48947 50.8435 8.48894H47.3385C47.2802 8.48894 47.2242 8.51212 47.1829 8.55337C47.1417 8.59463 47.1185 8.65059 47.1185 8.70894V9.81194C47.1185 9.93394 47.2175 10.0329 47.3385 10.0329H47.8855V15.6589H47.3385V15.6599ZM40.3295 17.9759V18.8589C40.3295 18.9809 40.4275 19.0789 40.5495 19.0789H57.6315C57.6899 19.0789 57.7458 19.0557 57.7871 19.0145C57.8283 18.9732 57.8515 18.9173 57.8515 18.8589V17.9759C57.8515 17.9176 57.8283 17.8616 57.7871 17.8204C57.7458 17.7791 57.6899 17.7559 57.6315 17.7559H40.5495C40.4912 17.7559 40.4352 17.7791 40.3939 17.8204C40.3527 17.8616 40.3295 17.9176 40.3295 17.9759ZM41.4245 15.6599C41.3663 15.6602 41.3106 15.6835 41.2696 15.7247C41.2285 15.7659 41.2055 15.8217 41.2055 15.8799V16.9839C41.2055 17.1059 41.3035 17.2039 41.4255 17.2039H44.9285C44.9867 17.2037 45.0424 17.1804 45.0834 17.1391C45.1245 17.0979 45.1475 17.0421 45.1475 16.9839V15.8799C45.1475 15.8216 45.1243 15.7656 45.0831 15.7244C45.0418 15.6831 44.9859 15.6599 44.9275 15.6599H44.3805V10.0339H44.9285C44.9867 10.0337 45.0424 10.0104 45.0834 9.96912C45.1245 9.92792 45.1475 9.87211 45.1475 9.81394V8.70894C45.1475 8.65059 45.1243 8.59463 45.0831 8.55337C45.0418 8.51212 44.9859 8.48894 44.9275 8.48894H41.4235C41.3653 8.4892 41.3096 8.5125 41.2686 8.55373C41.2275 8.59496 41.2045 8.65076 41.2045 8.70894V9.81194C41.2045 9.93394 41.3025 10.0329 41.4245 10.0329H41.9715V15.6589H41.4235L41.4245 15.6599ZM53.2515 15.6599C53.1933 15.6602 53.1376 15.6835 53.0966 15.7247C53.0555 15.7659 53.0325 15.8217 53.0325 15.8799V16.9839C53.0325 17.1059 53.1305 17.2039 53.2525 17.2039H56.7565C56.8147 17.2037 56.8704 17.1804 56.9114 17.1391C56.9525 17.0979 56.9755 17.0421 56.9755 16.9839V15.8799C56.9755 15.8216 56.9523 15.7656 56.9111 15.7244C56.8698 15.6831 56.8139 15.6599 56.7555 15.6599H56.2085V10.0339H56.7565C56.8147 10.0337 56.8704 10.0104 56.9114 9.96912C56.9525 9.92792 56.9755 9.87211 56.9755 9.81394V8.70894C56.9755 8.65059 56.9523 8.59463 56.9111 8.55337C56.8698 8.51212 56.8139 8.48894 56.7555 8.48894H53.2525C53.1943 8.4892 53.1386 8.5125 53.0976 8.55373C53.0565 8.59496 53.0335 8.65076 53.0335 8.70894V9.81194C53.0335 9.93394 53.1315 10.0329 53.2535 10.0329H53.8005V15.6589H53.2525L53.2515 15.6599ZM58.3985 19.6309H39.7825C39.7535 19.6309 39.7248 19.6366 39.6981 19.6478C39.6713 19.6589 39.647 19.6752 39.6266 19.6957C39.6061 19.7162 39.59 19.7406 39.579 19.7674C39.568 19.7942 39.5624 19.8229 39.5625 19.8519V20.7339C39.5625 20.8559 39.6615 20.9539 39.7825 20.9539H58.3985C58.4567 20.9537 58.5124 20.9304 58.5534 20.8891C58.5945 20.8479 58.6175 20.7921 58.6175 20.7339V19.8519C58.6175 19.7936 58.5943 19.7376 58.5531 19.6964C58.5118 19.6551 58.4559 19.6319 58.3975 19.6319L58.3985 19.6309ZM40.2205 7.93794H57.9605C58.0187 7.93767 58.0744 7.91438 58.1154 7.87315C58.1565 7.83192 58.1795 7.77611 58.1795 7.71794V5.96294C58.1763 5.89756 58.1568 5.83402 58.1227 5.77813C58.0887 5.72223 58.0411 5.67576 57.9845 5.64294L49.2865 1.20894C49.2248 1.1816 49.158 1.16748 49.0905 1.16748C49.023 1.16748 48.9562 1.1816 48.8945 1.20894L40.1965 5.64194C40.1399 5.67482 40.0925 5.72132 40.0584 5.7772C40.0244 5.83308 40.0048 5.89658 40.0015 5.96194V7.71594C40.0015 7.83794 40.0995 7.93794 40.2205 7.93794ZM49.0905 2.47394C49.386 2.47499 49.6784 2.53422 49.9509 2.64827C50.2235 2.76231 50.471 2.92893 50.6792 3.1386C50.8873 3.34828 51.0522 3.5969 51.1643 3.87029C51.2764 4.14367 51.3336 4.43646 51.3325 4.73194C51.3336 5.02741 51.2764 5.3202 51.1643 5.59359C51.0522 5.86697 50.8873 6.1156 50.6792 6.32528C50.471 6.53495 50.2235 6.70157 49.9509 6.81561C49.6784 6.92965 49.386 6.98889 49.0905 6.98994C48.795 6.98889 48.5027 6.92965 48.2301 6.81561C47.9575 6.70157 47.71 6.53495 47.5019 6.32528C47.2937 6.1156 47.1288 5.86697 47.0167 5.59359C46.9046 5.3202 46.8475 5.02741 46.8485 4.73194C46.8475 4.43646 46.9046 4.14367 47.0167 3.87029C47.1288 3.5969 47.2937 3.34828 47.5019 3.1386C47.71 2.92893 47.9575 2.76231 48.2301 2.64827C48.5027 2.53422 48.795 2.47499 49.0905 2.47394Z" fill="#65656C"/>
<path fill-rule="evenodd" clip-rule="evenodd" d="M49.8828 3.96475C49.8771 3.95899 49.8702 3.9545 49.8626 3.95157C49.8551 3.94864 49.8469 3.94734 49.8388 3.94775H49.5188C49.5001 3.84972 49.4591 3.75733 49.3988 3.67775H49.8348C49.843 3.67816 49.8511 3.67685 49.8586 3.67392C49.8662 3.67099 49.8731 3.66651 49.8788 3.66075C49.8842 3.65501 49.8884 3.64825 49.8912 3.64087C49.8939 3.63348 49.8952 3.62562 49.8948 3.61775V3.42675C49.8952 3.41888 49.8939 3.41101 49.8912 3.40363C49.8884 3.39624 49.8842 3.38948 49.8788 3.38375C49.8731 3.37804 49.8662 3.37358 49.8586 3.37066C49.851 3.36773 49.8429 3.3664 49.8348 3.36675H48.2768C48.2689 3.36648 48.261 3.36785 48.2536 3.37078C48.2462 3.3737 48.2395 3.37812 48.2338 3.38375C48.2282 3.38937 48.2238 3.39608 48.2209 3.40348C48.2179 3.41088 48.2166 3.4188 48.2168 3.42675V3.67675C48.2168 3.69175 48.2228 3.70675 48.2348 3.71775C48.2403 3.72344 48.2468 3.72796 48.254 3.73106C48.2612 3.73415 48.269 3.73575 48.2768 3.73575H48.5488C48.8118 3.73575 48.9788 3.80575 49.0508 3.94775H48.2768C48.2689 3.94748 48.261 3.94885 48.2536 3.95178C48.2462 3.9547 48.2395 3.95912 48.2338 3.96475C48.2282 3.97037 48.2238 3.97708 48.2209 3.98448C48.2179 3.99188 48.2166 3.9998 48.2168 4.00775V4.19875C48.2168 4.21575 48.2228 4.23075 48.2338 4.24175C48.2395 4.24738 48.2462 4.25179 48.2536 4.25472C48.261 4.25764 48.2689 4.25902 48.2768 4.25875H49.0768C49.0634 4.30919 49.0393 4.35617 49.0062 4.39653C48.973 4.43689 48.9317 4.46969 48.8848 4.49275C48.7606 4.55136 48.624 4.57882 48.4868 4.57275H48.2768C48.2689 4.57288 48.2611 4.57463 48.2539 4.5779C48.2466 4.58116 48.2402 4.58588 48.2348 4.59175C48.2291 4.59717 48.2246 4.60368 48.2215 4.6109C48.2184 4.61812 48.2168 4.62589 48.2168 4.63375V4.87175C48.2168 4.88775 48.2228 4.90175 48.2338 4.91175C48.4738 5.16775 48.7838 5.52375 49.1668 5.98175C49.1721 5.98918 49.1792 5.99518 49.1874 5.9992C49.1956 6.00321 49.2047 6.00512 49.2138 6.00475H49.5788C49.6048 6.00475 49.6228 5.99375 49.6328 5.97175C49.6458 5.94875 49.6428 5.92775 49.6258 5.90775C49.35 5.5636 49.0632 5.22843 48.7658 4.90275C48.9549 4.88723 49.1349 4.81549 49.2828 4.69675C49.4147 4.58555 49.5009 4.42958 49.5248 4.25875H49.8388C49.8468 4.25902 49.8547 4.25764 49.8621 4.25472C49.8695 4.25179 49.8762 4.24738 49.8818 4.24175C49.8875 4.23613 49.8919 4.22941 49.8948 4.22202C49.8977 4.21462 49.8991 4.2067 49.8988 4.19875V4.00775C49.8991 3.9998 49.8977 3.99188 49.8948 3.98448C49.8919 3.97708 49.8885 3.97037 49.8828 3.96475Z" fill="#65656C"/>
<path opacity="0.2" d="M92.1836 12.4448H150.029M232.184 12.4448H346" stroke="black" stroke-linecap="square" stroke-dasharray="5 5"/>
<path d="M379.055 40.8267V35.3835H380.197L380.293 36.348H380.342C380.762 35.6385 381.387 35.2505 382.012 35.2505C382.313 35.2505 382.505 35.2837 382.686 35.3613L382.445 36.4699C382.248 36.4101 382.041 36.3801 381.832 36.3812C381.363 36.3812 380.798 36.6805 380.438 37.5009V40.8267H379.055ZM383.155 38.1106C383.155 36.3369 384.489 35.2505 385.871 35.2505C387.47 35.2505 388.312 36.3147 388.312 37.8335C388.312 38.0774 388.288 38.2991 388.252 38.4321H384.501C384.621 39.4188 385.294 39.9731 386.244 39.9731C386.749 39.9731 387.182 39.829 387.614 39.574L388.083 40.3722C387.518 40.7159 386.809 40.9597 386.064 40.9597C384.429 40.9597 383.155 39.9066 383.155 38.1106ZM384.489 37.6229H387.11C387.11 36.7581 386.713 36.2371 385.907 36.2371C385.21 36.2371 384.609 36.7138 384.489 37.6229ZM389.634 39.4299V33H391.016V39.4964C391.016 39.8068 391.173 39.9177 391.317 39.9177C391.377 39.9177 391.425 39.9177 391.533 39.8955L391.714 40.8489C391.545 40.9154 391.305 40.9597 390.98 40.9597C389.995 40.9597 389.634 40.3722 389.634 39.4299ZM392.507 38.1106C392.507 36.3369 393.841 35.2505 395.224 35.2505C396.823 35.2505 397.664 36.3147 397.664 37.8335C397.664 38.0774 397.64 38.2991 397.604 38.4321H393.853C393.974 39.4188 394.647 39.9731 395.597 39.9731C396.101 39.9731 396.534 39.829 396.967 39.574L397.436 40.3722C396.871 40.7159 396.162 40.9597 395.416 40.9597C393.781 40.9597 392.507 39.9066 392.507 38.1106ZM393.841 37.6229H396.462C396.462 36.7581 396.065 36.2371 395.26 36.2371C394.563 36.2371 393.962 36.7138 393.841 37.6229ZM398.734 39.3634C398.734 38.1993 399.792 37.5896 402.208 37.3457C402.196 36.7692 401.932 36.2815 401.138 36.2815C400.549 36.2815 399.996 36.5253 399.479 36.8136L398.975 35.96C399.624 35.583 400.453 35.2505 401.391 35.2505C402.869 35.2505 403.591 36.0819 403.591 37.6007V40.8267H402.461L402.352 40.2281H402.316C401.787 40.6382 401.186 40.9597 400.489 40.9597C399.455 40.9597 398.734 40.3168 398.734 39.3634ZM400.08 39.2636C400.08 39.7514 400.429 39.962 400.922 39.962C401.403 39.962 401.775 39.7403 402.208 39.3634V38.1439C400.609 38.3324 400.08 38.7204 400.08 39.2636ZM404.685 40.2059L405.334 39.3855C405.863 39.7625 406.368 39.9953 406.969 39.9953C407.606 39.9953 407.906 39.7181 407.906 39.3412C407.906 38.8867 407.269 38.6871 406.644 38.4654C405.863 38.1993 404.985 37.7891 404.985 36.8801C404.985 35.9267 405.815 35.2505 407.137 35.2505C407.954 35.2505 408.616 35.5609 409.096 35.9045L408.459 36.6805C408.051 36.4034 407.63 36.2149 407.161 36.2149C406.572 36.2149 406.295 36.4699 406.295 36.8136C406.295 37.2348 406.885 37.4122 407.522 37.6229C408.327 37.9 409.217 38.2548 409.217 39.2747C409.217 40.2059 408.411 40.9597 406.921 40.9597C406.115 40.9597 405.262 40.6382 404.685 40.2059ZM410.07 38.1106C410.07 36.3369 411.404 35.2505 412.787 35.2505C414.386 35.2505 415.227 36.3147 415.227 37.8335C415.227 38.0774 415.203 38.2991 415.167 38.4321H411.417C411.537 39.4188 412.21 39.9731 413.16 39.9731C413.665 39.9731 414.097 39.829 414.53 39.574L414.999 40.3722C414.434 40.7159 413.725 40.9597 412.979 40.9597C411.344 40.9597 410.07 39.9066 410.07 38.1106ZM411.404 37.6229H414.025C414.025 36.7581 413.628 36.2371 412.823 36.2371C412.126 36.2371 411.525 36.7138 411.404 37.6229ZM415.961 40.2059L416.61 39.3855C417.139 39.7625 417.644 39.9953 418.245 39.9953C418.882 39.9953 419.182 39.7181 419.182 39.3412C419.182 38.8867 418.545 38.6871 417.92 38.4654C417.139 38.1993 416.261 37.7891 416.261 36.8801C416.261 35.9267 417.091 35.2505 418.413 35.2505C419.23 35.2505 419.892 35.5609 420.372 35.9045L419.735 36.6805C419.327 36.4034 418.906 36.2149 418.437 36.2149C417.848 36.2149 417.571 36.4699 417.571 36.8136C417.571 37.2348 418.16 37.4122 418.798 37.6229C419.603 37.9 420.493 38.2548 420.493 39.2747C420.493 40.2059 419.687 40.9597 418.197 40.9597C417.391 40.9597 416.538 40.6382 415.961 40.2059ZM424.195 39.4299V33H425.578V39.4964C425.578 39.8068 425.734 39.9177 425.878 39.9177C425.938 39.9177 425.986 39.9177 426.094 39.8955L426.275 40.8489C426.107 40.9154 425.866 40.9597 425.542 40.9597C424.556 40.9597 424.195 40.3722 424.195 39.4299ZM427.068 38.1106C427.068 36.2925 428.403 35.2505 429.869 35.2505C431.348 35.2505 432.682 36.2925 432.682 38.1106C432.682 39.9177 431.348 40.9597 429.869 40.9597C428.403 40.9597 427.068 39.9177 427.068 38.1106ZM428.487 38.1106C428.487 39.1971 429.004 39.9177 429.869 39.9177C430.735 39.9177 431.264 39.1971 431.264 38.1106C431.264 37.0131 430.735 36.2925 429.869 36.2925C429.004 36.2925 428.487 37.0131 428.487 38.1106ZM433.668 38.1106C433.668 36.2925 435.05 35.2505 436.625 35.2505C437.382 35.2505 437.959 35.5276 438.356 35.8824L437.695 36.6916C437.382 36.4367 437.07 36.2925 436.697 36.2925C435.748 36.2925 435.086 37.0131 435.086 38.1106C435.086 39.1971 435.736 39.9177 436.661 39.9177C437.142 39.9177 437.551 39.6959 437.875 39.452L438.452 40.2613C437.92 40.7025 437.232 40.9507 436.517 40.9597C434.906 40.9597 433.668 39.9177 433.668 38.1106ZM439.606 40.8267V33H440.965V37.8889H441.001L443.189 35.3835H444.703L442.684 37.6007L444.908 40.8267H443.405L441.89 38.4654L440.965 39.441V40.8267H439.606ZM445.497 38.1106C445.497 36.3369 446.831 35.2505 448.214 35.2505C449.812 35.2505 450.654 36.3147 450.654 37.8335C450.654 38.0774 450.63 38.2991 450.594 38.4321H446.843C446.963 39.4188 447.637 39.9731 448.586 39.9731C449.091 39.9731 449.524 39.829 449.957 39.574L450.426 40.3722C449.861 40.7159 449.151 40.9597 448.406 40.9597C446.771 40.9597 445.497 39.9066 445.497 38.1106ZM446.831 37.6229H449.452C449.452 36.7581 449.055 36.2371 448.25 36.2371C447.552 36.2371 446.951 36.7138 446.831 37.6229ZM451.616 38.1106C451.616 36.3369 452.83 35.2505 454.116 35.2505C454.789 35.2505 455.21 35.4833 455.667 35.8491L455.619 34.9733V33H457.001V40.8267H455.859L455.763 40.2392H455.715C455.282 40.6382 454.681 40.9597 454.044 40.9597C452.565 40.9597 451.616 39.9066 451.616 38.1106ZM453.046 38.0996C453.046 39.2747 453.527 39.9066 454.381 39.9066C454.837 39.9066 455.222 39.7181 455.619 39.2968V36.7581C455.21 36.4256 454.813 36.3036 454.417 36.3036C453.659 36.3036 453.046 36.9577 453.046 38.0996ZM318.061 51.6762V47.6076H319.455V51.776C319.455 53.3502 320.104 53.8712 321.054 53.8712C322.016 53.8712 322.677 53.3502 322.677 51.776V47.6076H324.023V51.6762C324.023 54.0597 322.869 54.9909 321.054 54.9909C319.227 54.9909 318.061 54.0597 318.061 51.6762ZM325.406 53.9267L326.211 53.0509C326.776 53.5386 327.533 53.8712 328.267 53.8712C329.144 53.8712 329.637 53.5054 329.637 52.94C329.637 52.3414 329.132 52.1529 328.411 51.8757L327.341 51.4434C326.56 51.1441 325.754 50.5787 325.754 49.5144C325.754 48.3615 326.86 47.4746 328.387 47.4746C329.312 47.4746 330.202 47.8294 330.815 48.3947L330.094 49.2151C329.601 48.8271 329.06 48.5943 328.387 48.5943C327.642 48.5943 327.161 48.9158 327.161 49.4479C327.161 50.0133 327.762 50.2239 328.411 50.4678L329.469 50.878C330.406 51.2438 331.056 51.7871 331.056 52.8402C331.056 54.0153 329.998 54.9909 328.231 54.9909C327.175 54.99 326.161 54.608 325.406 53.9267ZM332.462 54.8579V47.6076H334.554C336.958 47.6076 338.389 48.8049 338.389 51.1995C338.389 53.6052 336.958 54.8579 334.626 54.8579H332.462ZM333.857 53.8158H334.458C336.044 53.8158 336.958 52.9843 336.958 51.1995C336.958 49.4257 336.044 48.6497 334.458 48.6497H333.857V53.8158ZM341.538 54.8579V48.6941H339.266V47.6076H345.193V48.6941H342.933V54.8579H341.538ZM349.039 53.0176V50.4235H348.198V49.4701L349.112 49.4147L349.28 47.9291H350.434V49.4147H351.937V50.4235H350.434V53.0176C350.434 53.6606 350.698 53.971 351.263 53.971C351.468 53.971 351.708 53.9156 351.876 53.8491L352.117 54.7914C351.731 54.9177 351.324 54.9851 350.915 54.9909C349.544 54.9909 349.039 54.1927 349.039 53.0176ZM352.79 52.1418C352.79 50.3237 354.124 49.2816 355.591 49.2816C357.07 49.2816 358.404 50.3237 358.404 52.1418C358.404 53.9488 357.07 54.9909 355.591 54.9909C354.124 54.9909 352.79 53.9488 352.79 52.1418ZM354.209 52.1418C354.209 53.2282 354.725 53.9488 355.591 53.9488C356.457 53.9488 356.985 53.2282 356.985 52.1418C356.985 51.0443 356.457 50.3237 355.591 50.3237C354.725 50.3237 354.209 51.0443 354.209 52.1418ZM362.119 55.9887C362.227 56.0219 362.395 56.0663 362.539 56.0663C363.164 56.0663 363.525 55.6782 363.717 55.135L363.826 54.7914L361.505 49.4147H362.912L363.934 52.0864C364.102 52.5631 364.27 53.1063 364.451 53.6162H364.499C364.643 53.1174 364.799 52.5742 364.944 52.0864L365.833 49.4147H367.167L365.028 55.1018C364.535 56.3323 363.922 57.0973 362.635 57.0973C362.374 57.101 362.114 57.0635 361.866 56.9864L362.119 55.9887ZM367.805 52.1418C367.805 50.3237 369.139 49.2816 370.606 49.2816C372.084 49.2816 373.419 50.3237 373.419 52.1418C373.419 53.9488 372.084 54.9909 370.606 54.9909C369.139 54.9909 367.805 53.9488 367.805 52.1418ZM369.223 52.1418C369.223 53.2282 369.74 53.9488 370.606 53.9488C371.471 53.9488 372 53.2282 372 52.1418C372 51.0443 371.471 50.3237 370.606 50.3237C369.74 50.3237 369.223 51.0443 369.223 52.1418ZM374.729 52.8291V49.4147H376.111V52.6629C376.111 53.5608 376.388 53.8934 377.025 53.8934C377.542 53.8934 377.89 53.6717 378.335 53.1396V49.4147H379.718V54.8579H378.588L378.479 54.0597H378.443C377.926 54.6251 377.349 54.9909 376.544 54.9909C375.282 54.9909 374.729 54.2038 374.729 52.8291ZM381.473 54.8579V49.4147H382.615L382.711 50.3791H382.759C383.18 49.6696 383.805 49.2816 384.43 49.2816C384.731 49.2816 384.923 49.3149 385.103 49.3925L384.863 50.5011C384.665 50.4412 384.458 50.4113 384.25 50.4124C383.781 50.4124 383.216 50.7117 382.855 51.5321V54.8579H381.473ZM388.169 53.3945C388.169 52.2305 389.227 51.6208 391.643 51.3769C391.631 50.8004 391.366 50.3126 390.573 50.3126C389.984 50.3126 389.431 50.5565 388.914 50.8448L388.409 49.9911C389.058 49.6142 389.888 49.2816 390.825 49.2816C392.304 49.2816 393.025 50.1131 393.025 51.6319V54.8579H391.895L391.787 54.2592H391.751C391.222 54.6694 390.621 54.9909 389.924 54.9909C388.89 54.9909 388.169 54.3479 388.169 53.3945ZM389.515 53.2948C389.515 53.7825 389.864 53.9932 390.356 53.9932C390.837 53.9932 391.21 53.7715 391.643 53.3945V52.1751C390.044 52.3635 389.515 52.7515 389.515 53.2948ZM394.324 52.1418C394.324 50.3237 395.706 49.2816 397.281 49.2816C398.038 49.2816 398.615 49.5588 399.012 49.9135L398.351 50.7228C398.038 50.4678 397.726 50.3237 397.353 50.3237C396.403 50.3237 395.742 51.0443 395.742 52.1418C395.742 53.2282 396.391 53.9488 397.317 53.9488C397.798 53.9488 398.206 53.7271 398.531 53.4832L399.108 54.2925C398.576 54.7337 397.888 54.9819 397.173 54.9909C395.562 54.9909 394.324 53.9488 394.324 52.1418ZM399.877 52.1418C399.877 50.3237 401.26 49.2816 402.835 49.2816C403.592 49.2816 404.169 49.5588 404.566 49.9135L403.904 50.7228C403.592 50.4678 403.279 50.3237 402.907 50.3237C401.957 50.3237 401.296 51.0443 401.296 52.1418C401.296 53.2282 401.945 53.9488 402.871 53.9488C403.351 53.9488 403.76 53.7271 404.085 53.4832L404.662 54.2925C404.13 54.7337 403.442 54.9819 402.726 54.9909C401.116 54.9909 399.877 53.9488 399.877 52.1418ZM405.431 52.1418C405.431 50.3237 406.766 49.2816 408.232 49.2816C409.711 49.2816 411.045 50.3237 411.045 52.1418C411.045 53.9488 409.711 54.9909 408.232 54.9909C406.766 54.9909 405.431 53.9488 405.431 52.1418ZM406.85 52.1418C406.85 53.2282 407.367 53.9488 408.232 53.9488C409.098 53.9488 409.627 53.2282 409.627 52.1418C409.627 51.0443 409.098 50.3237 408.232 50.3237C407.367 50.3237 406.85 51.0443 406.85 52.1418ZM412.355 52.8291V49.4147H413.738V52.6629C413.738 53.5608 414.014 53.8934 414.652 53.8934C415.168 53.8934 415.517 53.6717 415.962 53.1396V49.4147H417.344V54.8579H416.214L416.106 54.0597H416.07C415.553 54.6251 414.976 54.9909 414.171 54.9909C412.908 54.9909 412.355 54.2038 412.355 52.8291ZM419.099 54.8579V49.4147H420.241L420.338 50.1463H420.386C420.915 49.6696 421.516 49.2816 422.321 49.2816C423.583 49.2816 424.136 50.0687 424.136 51.4434V54.8579H422.754V51.6097C422.754 50.7117 422.477 50.3791 421.828 50.3791C421.311 50.3791 420.975 50.6119 420.482 51.0554V54.8579H419.099ZM426.036 53.0176V50.4235H425.194V49.4701L426.108 49.4147L426.276 47.9291H427.43V49.4147H428.933V50.4235H427.43V53.0176C427.43 53.6606 427.695 53.971 428.26 53.971C428.464 53.971 428.704 53.9156 428.873 53.8491L429.113 54.7914C428.727 54.9177 428.321 54.9851 427.911 54.9909C426.541 54.9909 426.036 54.1927 426.036 53.0176Z" fill="#263238" fill-opacity="0.87"/>
<path d="M287.215 41V33.4497H289.513C291.196 33.4497 292.396 34.0241 292.396 35.7373C292.396 37.389 291.196 38.1378 289.554 38.1378H288.416V41H287.215ZM288.416 37.1838H289.442C290.642 37.1838 291.216 36.7222 291.216 35.7373C291.216 34.732 290.601 34.414 289.39 34.414H288.416V37.1838ZM294.598 41.1436C293.633 41.1436 292.946 40.4973 292.946 39.5022C292.946 38.2917 293.972 37.6659 296.311 37.4095C296.301 36.7529 296.065 36.1784 295.244 36.1784C294.649 36.1784 294.085 36.4554 293.613 36.7632L293.172 35.9528C293.746 35.5937 294.546 35.2141 295.449 35.2141C296.854 35.2141 297.501 36.1066 297.501 37.6147V41H296.526L296.434 40.364H296.393C295.88 40.8051 295.275 41.1436 294.598 41.1436ZM294.967 40.1998C295.459 40.1998 295.849 39.9741 296.311 39.5433V38.1686C294.639 38.3635 294.085 38.7841 294.085 39.4202C294.085 39.9741 294.464 40.1998 294.967 40.1998ZM299.165 41V35.3578H300.129L300.232 36.1477H300.262C300.775 35.6347 301.36 35.2141 302.129 35.2141C303.33 35.2141 303.863 36.0246 303.863 37.4505V41H302.673V37.6044C302.673 36.6196 302.386 36.24 301.729 36.24C301.206 36.24 300.847 36.5067 300.355 36.9991V41H299.165ZM307.464 41.1436C306.202 41.1436 305.751 40.3434 305.751 39.1637V36.3016H304.93V35.4193L305.812 35.3578L305.946 33.7984H306.931V35.3578H308.408V36.3016H306.931V39.174C306.931 39.8408 307.177 40.1998 307.762 40.1998C307.957 40.1998 308.192 40.128 308.367 40.0562L308.582 40.9282C308.264 41.0308 307.885 41.1436 307.464 41.1436ZM309.634 41V32.8341H310.824V34.9884L310.772 36.1066C311.255 35.6347 311.829 35.2141 312.598 35.2141C313.799 35.2141 314.332 36.0246 314.332 37.4505V41H313.142V37.6044C313.142 36.6196 312.855 36.24 312.198 36.24C311.675 36.24 311.316 36.5067 310.824 36.9991V41H309.634ZM318.365 41.1436C316.826 41.1436 315.615 40.0459 315.615 38.1891C315.615 36.3528 316.877 35.2141 318.19 35.2141C319.678 35.2141 320.488 36.2913 320.488 37.8916C320.488 38.1276 320.468 38.3533 320.437 38.4969H316.775C316.867 39.5741 317.544 40.2101 318.519 40.2101C319.021 40.2101 319.442 40.0562 319.862 39.7895L320.273 40.5486C319.75 40.8974 319.103 41.1436 318.365 41.1436ZM316.754 37.6762H319.462C319.462 36.7016 319.032 36.1477 318.211 36.1477C317.503 36.1477 316.877 36.6914 316.754 37.6762ZM321.816 41V35.3578H322.78L322.883 36.3734H322.913C323.314 35.645 323.909 35.2141 324.514 35.2141C324.791 35.2141 324.965 35.2552 325.14 35.3372L324.934 36.3631C324.739 36.3016 324.596 36.2708 324.36 36.2708C323.909 36.2708 323.355 36.5991 323.006 37.4916V41H321.816ZM328.42 41V33.4497H332.893V34.455H329.62V36.5478H332.38V37.5634H329.62V39.9947H333.006V41H328.42ZM333.29 41L335.105 38.066L333.423 35.3578H334.695L335.372 36.4862C335.536 36.8145 335.721 37.1222 335.906 37.4403H335.947C336.1 37.1222 336.254 36.8145 336.418 36.4862L337.003 35.3578H338.234L336.552 38.1891L338.368 41H337.085L336.347 39.81C336.162 39.4715 335.957 39.1329 335.762 38.8149H335.711C335.526 39.1329 335.362 39.4715 335.177 39.81L334.531 41H333.29ZM341.445 41.1436C339.927 41.1436 338.757 40.0562 338.757 38.1891C338.757 36.3016 340.06 35.2141 341.548 35.2141C342.266 35.2141 342.789 35.5014 343.189 35.8707L342.615 36.6298C342.307 36.3631 341.989 36.199 341.609 36.199C340.645 36.199 339.978 36.9889 339.978 38.1891C339.978 39.3791 340.624 40.1691 341.568 40.1691C342.04 40.1691 342.461 39.9434 342.799 39.6561L343.281 40.446C342.769 40.8974 342.102 41.1436 341.445 41.1436ZM344.447 41V32.8341H345.637V34.9884L345.586 36.1066C346.068 35.6347 346.642 35.2141 347.412 35.2141C348.612 35.2141 349.145 36.0246 349.145 37.4505V41H347.955V37.6044C347.955 36.6196 347.668 36.24 347.012 36.24C346.488 36.24 346.129 36.5067 345.637 36.9991V41H344.447ZM352.152 41.1436C351.188 41.1436 350.5 40.4973 350.5 39.5022C350.5 38.2917 351.526 37.6659 353.865 37.4095C353.855 36.7529 353.619 36.1784 352.798 36.1784C352.203 36.1784 351.639 36.4554 351.167 36.7632L350.726 35.9528C351.301 35.5937 352.101 35.2141 353.004 35.2141C354.409 35.2141 355.055 36.1066 355.055 37.6147V41H354.081L353.988 40.364H353.947C353.434 40.8051 352.829 41.1436 352.152 41.1436ZM352.521 40.1998C353.014 40.1998 353.404 39.9741 353.865 39.5433V38.1686C352.193 38.3635 351.639 38.7841 351.639 39.4202C351.639 39.9741 352.019 40.1998 352.521 40.1998ZM356.719 41V35.3578H357.683L357.786 36.1477H357.817C358.33 35.6347 358.914 35.2141 359.684 35.2141C360.884 35.2141 361.418 36.0246 361.418 37.4505V41H360.228V37.6044C360.228 36.6196 359.94 36.24 359.284 36.24C358.761 36.24 358.402 36.5067 357.909 36.9991V41H356.719ZM365.06 43.5339C363.706 43.5339 362.721 43.0312 362.721 42.0566C362.721 41.5745 363.018 41.1334 363.541 40.8256V40.7743C363.244 40.5897 363.028 40.2922 363.028 39.8305C363.028 39.3894 363.336 39.0098 363.654 38.7841V38.7431C363.275 38.4559 362.905 37.9122 362.905 37.2453C362.905 35.963 363.931 35.2141 365.09 35.2141C365.419 35.2141 365.706 35.2757 365.921 35.3578H367.912V36.2503H366.845C367.06 36.4759 367.214 36.8453 367.214 37.2761C367.214 38.5174 366.28 39.215 365.09 39.215C364.844 39.215 364.557 39.1637 364.301 39.0509C364.126 39.2047 363.993 39.3689 363.993 39.6459C363.993 39.9741 364.229 40.1896 364.937 40.1896H365.983C367.317 40.1896 368.014 40.5999 368.014 41.5642C368.014 42.6516 366.865 43.5339 365.06 43.5339ZM365.09 38.4559C365.675 38.4559 366.157 37.9942 366.157 37.2453C366.157 36.4862 365.685 36.0553 365.09 36.0553C364.506 36.0553 364.034 36.4862 364.034 37.2453C364.034 37.9942 364.516 38.4559 365.09 38.4559ZM365.234 42.7542C366.219 42.7542 366.865 42.2721 366.865 41.7591C366.865 41.2872 366.496 41.1334 365.809 41.1334H364.957C364.69 41.1334 364.444 41.1128 364.208 41.0513C363.87 41.3078 363.726 41.595 363.726 41.8822C363.726 42.4259 364.301 42.7542 365.234 42.7542ZM371.201 41.1436C369.662 41.1436 368.451 40.0459 368.451 38.1891C368.451 36.3528 369.713 35.2141 371.026 35.2141C372.514 35.2141 373.324 36.2913 373.324 37.8916C373.324 38.1276 373.304 38.3533 373.273 38.4969H369.611C369.703 39.5741 370.38 40.2101 371.355 40.2101C371.857 40.2101 372.278 40.0562 372.698 39.7895L373.109 40.5486C372.586 40.8974 371.939 41.1436 371.201 41.1436ZM369.59 37.6762H372.298C372.298 36.7016 371.867 36.1477 371.047 36.1477C370.339 36.1477 369.713 36.6914 369.59 37.6762Z" fill="#252F35"/>
</svg>
