<svg width="20" height="20" viewBox="0 0 20 20" fill="none" xmlns="http://www.w3.org/2000/svg">
<path d="M10.299 19.9997H10.199C8.82753 19.9892 7.47192 19.7053 6.21156 19.1644C4.95121 18.6235 3.81144 17.8366 2.859 16.8497C1.09284 14.961 0.088882 12.485 0.0408676 9.8996C-0.00714684 7.31421 0.904191 4.80267 2.599 2.84968C3.69088 1.62603 5.06353 0.685762 6.599 0.109681C6.77816 0.0407394 6.97338 0.024824 7.16135 0.0638352C7.34931 0.102846 7.52207 0.195136 7.659 0.329681C7.78582 0.459003 7.87513 0.620341 7.9174 0.796466C7.95967 0.97259 7.95331 1.15689 7.899 1.32968C7.35096 2.83062 7.24238 4.45673 7.586 6.0172C7.92962 7.57768 8.71119 9.00778 9.839 10.1397C10.9773 11.264 12.4108 12.043 13.9735 12.3863C15.5362 12.7296 17.1642 12.6233 18.669 12.0797C18.8481 12.0166 19.0415 12.0059 19.2265 12.0487C19.4115 12.0915 19.5804 12.1861 19.7136 12.3214C19.8469 12.4567 19.9388 12.6271 19.9787 12.8128C20.0186 12.9984 20.0048 13.1916 19.939 13.3697C19.4282 14.7334 18.6301 15.9714 17.599 16.9997C16.6398 17.956 15.5012 18.7133 14.2484 19.2282C12.9956 19.743 11.6534 20.0052 10.299 19.9997ZM5.459 2.91968C4.95668 3.27198 4.49693 3.68138 4.089 4.13968C2.71354 5.71582 1.97242 7.7466 2.00937 9.83819C2.04633 11.9298 2.85872 13.9331 4.289 15.4597C5.05753 16.2579 5.97826 16.8939 6.9968 17.3302C8.01533 17.7664 9.11098 17.9941 10.219 17.9997H10.299C11.6252 17.9989 12.9321 17.6819 14.1112 17.0749C15.2904 16.468 16.3078 15.5886 17.079 14.5097C15.5073 14.7133 13.9099 14.554 12.4094 14.0441C10.9089 13.5341 9.54529 12.687 8.42322 11.5678C7.30116 10.4487 6.45053 9.0872 5.93668 7.58803C5.42283 6.08886 5.25942 4.49185 5.459 2.91968Z" fill="white"/>
</svg>
