<svg width="25" height="25" viewBox="0 0 25 25" fill="none" xmlns="http://www.w3.org/2000/svg">
<path d="M16.6557 21.6782C16.6557 21.9748 16.5379 22.2592 16.3282 22.4688C16.1185 22.6785 15.8341 22.7963 15.5376 22.7963H9.57464C9.27811 22.7963 8.99373 22.6785 8.78406 22.4688C8.57438 22.2592 8.45658 21.9748 8.45658 21.6782C8.45658 21.3817 8.57438 21.0973 8.78406 20.8877C8.99373 20.678 9.27811 20.5602 9.57464 20.5602H15.5376C15.8341 20.5602 16.1185 20.678 16.3282 20.8877C16.5379 21.0973 16.6557 21.3817 16.6557 21.6782ZM21.5304 18.137C21.3688 18.4217 21.1343 18.6582 20.8509 18.8221C20.5675 18.986 20.2456 19.0714 19.9182 19.0694H5.194C4.86663 19.0714 4.54465 18.986 4.26126 18.8221C3.97787 18.6582 3.74332 18.4216 3.58177 18.1369C3.41864 17.8522 3.33319 17.5297 3.33399 17.2015C3.33479 16.8734 3.42181 16.5513 3.58633 16.2674C4.11648 15.3553 4.74865 13.6139 4.74865 10.4977V10.125C4.74617 8.05187 5.56732 6.06265 7.03146 4.59493C8.4956 3.12721 10.4828 2.30121 12.5559 2.29861L12.6156 2.2988C16.8882 2.33057 20.3643 5.87919 20.3643 10.2092V10.4977C20.3643 13.6141 20.996 15.3556 21.526 16.2678C21.6905 16.5516 21.7774 16.8737 21.7782 17.2018C21.779 17.5299 21.6935 17.8524 21.5304 18.137ZM19.2986 16.8333C18.3401 14.8255 18.1282 12.3195 18.1282 10.4977V10.2092C18.1282 7.10309 15.6478 4.55746 12.599 4.53491C12.5848 4.5348 12.5706 4.53474 12.5564 4.53473C11.8235 4.53595 11.098 4.68151 10.4214 4.96311C9.74472 5.24471 9.13017 5.65683 8.61279 6.17594C8.09542 6.69504 7.68535 7.31097 7.40601 7.98855C7.12668 8.66613 6.98353 9.3921 6.98476 10.125V10.4977C6.98476 12.3195 6.7727 14.8256 5.81359 16.8333H19.2986Z" fill="#23262F"/>
</svg>
