<svg width="21" height="21" viewBox="0 0 21 21" fill="none" xmlns="http://www.w3.org/2000/svg">
<path d="M19.5349 10.5C19.5349 12.8962 18.583 15.1943 16.8886 16.8886C15.1943 18.583 12.8962 19.5349 10.5 19.5349V21C16.2989 21 21 16.2989 21 10.5H19.5349ZM10.5 19.5349C8.1038 19.5349 5.80574 18.583 4.11137 16.8886C2.417 15.1943 1.46512 12.8962 1.46512 10.5H0C0 16.2989 4.70107 21 10.5 21V19.5349ZM1.46512 10.5C1.46512 8.1038 2.417 5.80574 4.11137 4.11137C5.80574 2.417 8.1038 1.46512 10.5 1.46512V0C4.70107 0 0 4.70107 0 10.5H1.46512ZM13.9186 12.6977C12.4291 12.6977 11.0006 12.106 9.9473 11.0527C8.89404 9.99945 8.30233 8.57093 8.30233 7.0814H6.83721C6.83721 8.9595 7.58328 10.7607 8.9113 12.0887C10.2393 13.4167 12.0405 14.1628 13.9186 14.1628V12.6977ZM18.7291 9.98135C18.2296 10.8105 17.5241 11.4964 16.6812 11.9724C15.8383 12.4483 14.8866 12.6982 13.9186 12.6977V14.1628C15.139 14.1634 16.3388 13.8486 17.4016 13.2487C18.4644 12.6488 19.354 11.7844 19.9842 10.7393L18.7291 9.98135ZM8.30233 7.0814C8.3019 6.11341 8.5518 5.16177 9.02775 4.31888C9.50371 3.47599 10.1895 2.7705 11.0187 2.27093L10.2607 1.01679C9.21566 1.64678 8.35127 2.53626 7.75141 3.59888C7.15156 4.6615 6.83664 5.86116 6.83721 7.0814H8.30233ZM10.5 1.46512C10.4009 1.46278 10.3068 1.42135 10.2382 1.34986C10.1963 1.30907 10.1683 1.25609 10.1581 1.19847C10.1542 1.16819 10.1562 1.08028 10.2607 1.01679L11.0187 2.27093C11.51 1.974 11.6682 1.42995 11.6106 1.00214C11.55 0.557721 11.2003 0 10.5 0V1.46512ZM19.9842 10.7393C19.9197 10.8438 19.8318 10.8458 19.8015 10.8419C19.7439 10.8317 19.6909 10.8037 19.6501 10.7618C19.5787 10.6932 19.5372 10.5991 19.5349 10.5H21C21 9.79967 20.4423 9.45 19.9979 9.38944C19.57 9.33181 19.026 9.49005 18.7291 9.98135L19.9842 10.7393Z" fill="url(#paint0_linear_68_712)"/>
<defs>
<linearGradient id="paint0_linear_68_712" x1="0.006637" y1="19.1066" x2="20.7917" y2="18.4583" gradientUnits="userSpaceOnUse">
<stop stop-color="#F6C478"/>
<stop offset="0.0001" stop-color="#A3743C"/>
<stop offset="0.492708" stop-color="#FAC579" stop-opacity="0.9"/>
<stop offset="1" stop-color="#A3743C"/>
</linearGradient>
</defs>
</svg>
