<svg width="172" height="58" viewBox="0 0 172 58" fill="none" xmlns="http://www.w3.org/2000/svg">
<path d="M0.484231 1.41587H150.643L170.674 16.4379V56.9959L18.1803 57.0772L0.484231 41.0532V1.41587Z" stroke="url(#paint0_linear_55_2683)" stroke-width="0.859086"/>
<path d="M42.4941 32.9907L48.4687 32.9907L48.4687 35.6641L39.6992 35.6641L39.6992 21.4871L48.3674 21.4871L48.3674 24.1605L42.4941 24.1605L42.4941 27.1781L47.8611 27.1781L47.8611 29.811L42.4941 29.811L42.4941 32.9907ZM59.6538 35.6641L56.6361 35.6641L54.4488 32.5856L52.2413 35.6641L49.2236 35.6641L52.9298 30.4996L49.3856 25.5377L52.4033 25.5377L54.4488 28.3933L56.4943 25.5377L59.4917 25.5377L55.9475 30.4794L59.6538 35.6641ZM65.066 35.9476C63.5403 35.9476 62.2644 35.4345 61.2382 34.4084C60.2256 33.3823 59.7193 32.1131 59.7193 30.6009C59.7193 29.0887 60.2256 27.8195 61.2382 26.7933C62.2644 25.7672 63.5403 25.2541 65.066 25.2541C66.0516 25.2541 66.9495 25.4904 67.7596 25.963C68.5697 26.4355 69.1841 27.0701 69.6026 27.8667L67.3546 29.1832C67.152 28.7646 66.8415 28.4338 66.4229 28.1908C66.0179 27.9478 65.5588 27.8262 65.0458 27.8262C64.2627 27.8262 63.6146 28.0895 63.1015 28.6161C62.5884 29.1292 62.3319 29.7908 62.3319 30.6009C62.3319 31.3975 62.5884 32.0591 63.1015 32.5856C63.6146 33.0987 64.2626 33.3552 65.0458 33.3552C65.5723 33.3552 66.0381 33.2405 66.4432 33.011C66.8618 32.7679 67.1723 32.4371 67.3748 32.0186L69.6431 33.3147C69.1976 34.1114 68.5697 34.7527 67.7596 35.2388C66.9495 35.7113 66.0516 35.9476 65.066 35.9476ZM76.6552 25.2541C77.7623 25.2541 78.6737 25.6254 79.3893 26.368C80.1184 27.1106 80.483 28.1368 80.483 29.4465L80.483 35.6641L77.8704 35.6641L77.8704 29.7705C77.8704 29.0954 77.6881 28.5823 77.3235 28.2313C76.959 27.8667 76.4729 27.6845 75.8653 27.6845C75.1902 27.6845 74.6502 27.8938 74.2451 28.3123C73.8401 28.7309 73.6375 29.3587 73.6375 30.1958L73.6375 35.6641L71.0249 35.6641L71.0249 21.4871L73.6375 21.4871L73.6375 26.6718C74.2721 25.7267 75.278 25.2541 76.6552 25.2541ZM90.4098 25.5377L93.0224 25.5377L93.0224 35.6641L90.4098 35.6641L90.4098 34.4692C89.6267 35.4548 88.5263 35.9476 87.1086 35.9476C85.7584 35.9476 84.5973 35.4345 83.6252 34.4084C82.6665 33.3688 82.1872 32.0996 82.1872 30.6009C82.1872 29.1022 82.6665 27.8397 83.6252 26.8136C84.5973 25.774 85.7584 25.2541 87.1086 25.2541C88.5263 25.2541 89.6267 25.747 90.4098 26.7326L90.4098 25.5377ZM85.5897 32.6667C86.1162 33.1932 86.7846 33.4565 87.5947 33.4565C88.4048 33.4565 89.0732 33.1932 89.5997 32.6667C90.1398 32.1266 90.4098 31.438 90.4098 30.6009C90.4098 29.7638 90.1398 29.0819 89.5997 28.5553C89.0732 28.0153 88.4048 27.7452 87.5947 27.7452C86.7846 27.7452 86.1162 28.0153 85.5897 28.5553C85.0631 29.0819 84.7998 29.7638 84.7998 30.6009C84.7998 31.438 85.0631 32.1266 85.5897 32.6667ZM101.022 25.2541C102.129 25.2541 103.04 25.6254 103.756 26.368C104.485 27.1106 104.85 28.1368 104.85 29.4465L104.85 35.6641L102.237 35.6641L102.237 29.7705C102.237 29.0954 102.055 28.5824 101.69 28.2313C101.326 27.8668 100.84 27.6845 100.232 27.6845C99.5569 27.6845 99.0168 27.8938 98.6117 28.3123C98.2067 28.7309 98.0042 29.3587 98.0042 30.1958L98.0042 35.6641L95.3915 35.6641L95.3915 25.5377L98.0042 25.5377L98.0042 26.6718C98.6387 25.7267 99.6446 25.2541 101.022 25.2541ZM114.837 25.5377L117.389 25.5377L117.389 35.178C117.389 36.7442 116.869 37.9391 115.83 38.7628C114.803 39.5864 113.561 39.9982 112.103 39.9982C111.009 39.9982 110.044 39.7889 109.207 39.3703C108.383 38.9518 107.749 38.3374 107.303 37.5273L109.531 36.2514C110.044 37.1965 110.928 37.6691 112.184 37.6691C113.008 37.6691 113.656 37.4531 114.128 37.021C114.601 36.589 114.837 35.9746 114.837 35.178L114.837 34.0844C114.068 35.1105 112.987 35.6236 111.597 35.6236C110.166 35.6236 108.964 35.124 107.992 34.1249C107.033 33.1122 106.554 31.8836 106.554 30.4389C106.554 29.0077 107.04 27.7857 108.012 26.7731C108.984 25.7605 110.179 25.2541 111.597 25.2541C112.987 25.2541 114.068 25.7672 114.837 26.7934L114.837 25.5377ZM109.956 32.4439C110.496 32.957 111.178 33.2135 112.002 33.2135C112.825 33.2135 113.501 32.957 114.027 32.4439C114.567 31.9173 114.837 31.249 114.837 30.4389C114.837 29.6422 114.567 28.9874 114.027 28.4743C113.501 27.9478 112.825 27.6845 112.002 27.6845C111.178 27.6845 110.496 27.9478 109.956 28.4743C109.43 28.9874 109.166 29.6422 109.166 30.4389C109.166 31.249 109.43 31.9173 109.956 32.4439ZM121.966 31.6743C122.317 32.9435 123.269 33.578 124.821 33.578C125.821 33.578 126.577 33.2405 127.09 32.5654L129.196 33.7806C128.197 35.2253 126.725 35.9476 124.781 35.9476C123.107 35.9476 121.763 35.4413 120.751 34.4287C119.738 33.416 119.232 32.1401 119.232 30.6009C119.232 29.0752 119.731 27.806 120.73 26.7934C121.729 25.7672 123.012 25.2541 124.578 25.2541C126.064 25.2541 127.285 25.7672 128.244 26.7934C129.216 27.8195 129.702 29.0887 129.702 30.6009C129.702 30.9384 129.669 31.2962 129.601 31.6743L121.966 31.6743ZM121.925 29.649L127.09 29.649C126.941 28.9604 126.631 28.4473 126.158 28.1098C125.699 27.7722 125.172 27.6035 124.578 27.6035C123.876 27.6035 123.296 27.7857 122.837 28.1503C122.378 28.5013 122.074 29.0009 121.925 29.649Z" fill="url(#paint1_linear_55_2683)"/>
<defs>
<linearGradient id="paint0_linear_55_2683" x1="-49.4329" y1="57.5068" x2="168.183" y2="38.2749" gradientUnits="userSpaceOnUse">
<stop stop-color="#A3743C"/>
<stop offset="0.492708" stop-color="#FAC579" stop-opacity="0.9"/>
<stop offset="1" stop-color="#A3743C"/>
</linearGradient>
<linearGradient id="paint1_linear_55_2683" x1="11.7655" y1="42.664" x2="128.379" y2="30.1322" gradientUnits="userSpaceOnUse">
<stop stop-color="#A3743C"/>
<stop offset="0.492708" stop-color="#FAC579" stop-opacity="0.9"/>
<stop offset="1" stop-color="#A3743C"/>
</linearGradient>
</defs>
</svg>
