<svg width="41" height="35" viewBox="0 0 41 35" fill="none" xmlns="http://www.w3.org/2000/svg">
<path d="M28.5828 4.95279C28.5828 4.61361 28.6528 4.29298 28.7645 3.99267L20.2084 0.849121L11.6514 3.99267C11.763 4.29298 11.834 4.61361 11.834 4.95279C11.834 6.38633 10.7411 7.55224 9.34326 7.70417C10.4512 14.8189 14.6171 20.6935 20.2084 23.399C25.7987 20.6935 29.9655 14.8189 31.0735 7.70417C29.6748 7.55224 28.5828 6.38633 28.5828 4.95279Z" stroke="#E3B36F" stroke-linecap="round" stroke-linejoin="round"/>
<path d="M28.5828 4.95279C28.5828 4.61361 28.6528 4.29298 28.7645 3.99267L20.2084 0.849121L11.6514 3.99267C11.763 4.29298 11.834 4.61361 11.834 4.95279C11.834 6.38633 10.7411 7.55224 9.34326 7.70417C10.4512 14.8189 14.6171 20.6935 20.2084 23.399C25.7987 20.6935 29.9655 14.8189 31.0735 7.70417C29.6748 7.55224 28.5828 6.38633 28.5828 4.95279Z" stroke="#E3B36F" stroke-opacity="0.5" stroke-width="0.5" stroke-linecap="round" stroke-linejoin="round"/>
<path d="M5.13989 33.9993V29.5839H12.2308V34.0002" stroke="#E3B36F" stroke-linecap="round" stroke-linejoin="round"/>
<path d="M5.13989 33.9993V29.5839H12.2308V34.0002" stroke="#E3B36F" stroke-opacity="0.5" stroke-width="0.5" stroke-linecap="round" stroke-linejoin="round"/>
<path d="M5.13989 31.3552H12.2308" stroke="#E3B36F" stroke-linecap="round" stroke-linejoin="round"/>
<path d="M5.13989 31.3552H12.2308" stroke="#E3B36F" stroke-opacity="0.5" stroke-width="0.5" stroke-linecap="round" stroke-linejoin="round"/>
<path d="M28.1855 33.9993V29.5839H35.2765V34.0002" stroke="#E3B36F" stroke-linecap="round" stroke-linejoin="round"/>
<path d="M28.1855 33.9993V29.5839H35.2765V34.0002" stroke="#E3B36F" stroke-opacity="0.5" stroke-width="0.5" stroke-linecap="round" stroke-linejoin="round"/>
<path d="M28.1855 31.3552H35.2765" stroke="#E3B36F" stroke-linecap="round" stroke-linejoin="round"/>
<path d="M28.1855 31.3552H35.2765" stroke="#E3B36F" stroke-opacity="0.5" stroke-width="0.5" stroke-linecap="round" stroke-linejoin="round"/>
<path d="M23.7555 8.28314L19.9867 13.6543L17.6511 11.7173" stroke="#E3B36F" stroke-linecap="round" stroke-linejoin="round"/>
<path d="M23.7555 8.28314L19.9867 13.6543L17.6511 11.7173" stroke="#E3B36F" stroke-opacity="0.5" stroke-width="0.5" stroke-linecap="round" stroke-linejoin="round"/>
<path d="M4.80327 16.3331V10.8683C4.80327 10.2279 4.28209 9.70856 3.64036 9.70856C3.04294 9.70856 2.54215 10.1599 2.48276 10.7526L0.708252 20.7494L6.91282 27.8164L6.02646 29.583H10.4583L11.451 25.1658L9.23511 20.7627L5.34218 18.4352C5.02575 18.2462 4.61979 18.2957 4.35831 18.5563C4.00908 18.9043 4.05252 19.4793 4.4505 19.7708L7.01919 21.6539" stroke="#E3B36F" stroke-linecap="round" stroke-linejoin="round"/>
<path d="M4.80327 16.3331V10.8683C4.80327 10.2279 4.28209 9.70856 3.64036 9.70856C3.04294 9.70856 2.54215 10.1599 2.48276 10.7526L0.708252 20.7494L6.91282 27.8164L6.02646 29.583H10.4583L11.451 25.1658L9.23511 20.7627L5.34218 18.4352C5.02575 18.2462 4.61979 18.2957 4.35831 18.5563C4.00908 18.9043 4.05252 19.4793 4.4505 19.7708L7.01919 21.6539" stroke="#E3B36F" stroke-opacity="0.5" stroke-width="0.5" stroke-linecap="round" stroke-linejoin="round"/>
<path d="M35.6133 16.3331V10.8683C35.6133 10.2279 36.1345 9.70856 36.7762 9.70856C37.3737 9.70856 37.8745 10.1599 37.9338 10.7526L39.7084 20.7494L33.5038 27.8164L34.3901 29.583H29.9583L28.9656 25.1658L31.1815 20.7627L35.0744 18.4352C35.3909 18.2462 35.7968 18.2957 36.0583 18.5563C36.4075 18.9043 36.3641 19.4793 35.9661 19.7708L33.3974 21.6539" stroke="#E3B36F" stroke-linecap="round" stroke-linejoin="round"/>
<path d="M35.6133 16.3331V10.8683C35.6133 10.2279 36.1345 9.70856 36.7762 9.70856C37.3737 9.70856 37.8745 10.1599 37.9338 10.7526L39.7084 20.7494L33.5038 27.8164L34.3901 29.583H29.9583L28.9656 25.1658L31.1815 20.7627L35.0744 18.4352C35.3909 18.2462 35.7968 18.2957 36.0583 18.5563C36.4075 18.9043 36.3641 19.4793 35.9661 19.7708L33.3974 21.6539" stroke="#E3B36F" stroke-opacity="0.5" stroke-width="0.5" stroke-linecap="round" stroke-linejoin="round"/>
</svg>
