<svg width="63" height="64" viewBox="0 0 63 64" fill="none" xmlns="http://www.w3.org/2000/svg">
<g filter="url(#filter0_d_19_16747)">
<path d="M38.474 39.9719V39.5806C38.474 37.3941 36.683 35.6212 34.4735 35.6212H28.0851C25.8764 35.6212 24.0854 37.3941 24.0854 39.5806V39.9719H38.474ZM27.2825 28.8931C27.2825 26.7074 29.0718 24.936 31.2797 24.936C33.4868 24.936 35.277 26.7074 35.277 28.8931C35.277 31.0787 33.4868 32.8501 31.2797 32.8501C29.0718 32.8501 27.2825 31.0787 27.2825 28.8931Z" fill="#030303" fill-opacity="0.01" shape-rendering="crispEdges"/>
</g>
<path d="M38.474 39.9719V39.5806C38.474 37.3941 36.683 35.6212 34.4735 35.6212H28.0851C25.8764 35.6212 24.0854 37.3941 24.0854 39.5806V39.9719H38.474ZM27.2825 28.8931C27.2825 26.7074 29.0718 24.936 31.2797 24.936C33.4868 24.936 35.277 26.7074 35.277 28.8931C35.277 31.0787 33.4868 32.8501 31.2797 32.8501C29.0718 32.8501 27.2825 31.0787 27.2825 28.8931Z" stroke="#E3B36F" stroke-linecap="round" stroke-linejoin="round"/>
<path d="M38.474 39.9719V39.5806C38.474 37.3941 36.683 35.6212 34.4735 35.6212H28.0851C25.8764 35.6212 24.0854 37.3941 24.0854 39.5806V39.9719H38.474ZM27.2825 28.8931C27.2825 26.7074 29.0718 24.936 31.2797 24.936C33.4868 24.936 35.277 26.7074 35.277 28.8931C35.277 31.0787 33.4868 32.8501 31.2797 32.8501C29.0718 32.8501 27.2825 31.0787 27.2825 28.8931Z" stroke="#E3B36F" stroke-width="0.5" stroke-linecap="round" stroke-linejoin="round"/>
<path d="M43.2834 23.2138C43.2834 22.7314 43.3835 22.2743 43.5427 21.8465L31.2796 17.3706L19.0166 21.8465C19.1758 22.2743 19.2758 22.7314 19.2758 23.2138C19.2758 25.2545 17.7114 26.915 15.7075 27.1312C17.2952 37.2618 23.2659 45.6266 31.2796 49.4783C39.2934 45.6266 45.264 37.2618 46.8518 27.1312C44.8479 26.915 43.2834 25.2545 43.2834 23.2138Z" stroke="#E3B36F" stroke-linecap="round" stroke-linejoin="round"/>
<path d="M43.2834 23.2138C43.2834 22.7314 43.3835 22.2743 43.5427 21.8465L31.2796 17.3706L19.0166 21.8465C19.1758 22.2743 19.2758 22.7314 19.2758 23.2138C19.2758 25.2545 17.7114 26.915 15.7075 27.1312C17.2952 37.2618 23.2659 45.6266 31.2796 49.4783C39.2934 45.6266 45.264 37.2618 46.8518 27.1312C44.8479 26.915 43.2834 25.2545 43.2834 23.2138Z" stroke="#E3B36F" stroke-width="0.5" stroke-linecap="round" stroke-linejoin="round"/>
<defs>
<filter id="filter0_d_19_16747" x="0.0854492" y="0.936035" width="62.3884" height="63.0359" filterUnits="userSpaceOnUse" color-interpolation-filters="sRGB">
<feFlood flood-opacity="0" result="BackgroundImageFix"/>
<feColorMatrix in="SourceAlpha" type="matrix" values="0 0 0 0 0 0 0 0 0 0 0 0 0 0 0 0 0 0 127 0" result="hardAlpha"/>
<feOffset/>
<feGaussianBlur stdDeviation="12"/>
<feComposite in2="hardAlpha" operator="out"/>
<feColorMatrix type="matrix" values="0 0 0 0 1 0 0 0 0 1 0 0 0 0 1 0 0 0 0.32 0"/>
<feBlend mode="normal" in2="BackgroundImageFix" result="effect1_dropShadow_19_16747"/>
<feBlend mode="normal" in="SourceGraphic" in2="effect1_dropShadow_19_16747" result="shape"/>
</filter>
</defs>
</svg>
