<svg width="41" height="45" viewBox="0 0 41 45" fill="none" xmlns="http://www.w3.org/2000/svg">
<path d="M5.21143 44.499V40.0835H12.3024V44.4998" stroke="#E3B36F" stroke-linecap="round" stroke-linejoin="round"/>
<path d="M5.21143 44.499V40.0835H12.3024V44.4998" stroke="#E3B36F" stroke-opacity="0.5" stroke-width="0.5" stroke-linecap="round" stroke-linejoin="round"/>
<path d="M5.21143 41.8549H12.3024" stroke="#E3B36F" stroke-linecap="round" stroke-linejoin="round"/>
<path d="M5.21143 41.8549H12.3024" stroke="#E3B36F" stroke-opacity="0.5" stroke-width="0.5" stroke-linecap="round" stroke-linejoin="round"/>
<path d="M28.2571 44.499V40.0835H35.348V44.4998" stroke="#E3B36F" stroke-linecap="round" stroke-linejoin="round"/>
<path d="M28.2571 44.499V40.0835H35.348V44.4998" stroke="#E3B36F" stroke-opacity="0.5" stroke-width="0.5" stroke-linecap="round" stroke-linejoin="round"/>
<path d="M28.2571 41.8549H35.348" stroke="#E3B36F" stroke-linecap="round" stroke-linejoin="round"/>
<path d="M28.2571 41.8549H35.348" stroke="#E3B36F" stroke-opacity="0.5" stroke-width="0.5" stroke-linecap="round" stroke-linejoin="round"/>
<path d="M4.8748 26.8328V21.368C4.8748 20.7276 4.35362 20.2083 3.71189 20.2083C3.11448 20.2083 2.61368 20.6596 2.55429 21.2523L0.779785 31.2491L6.98436 38.3161L6.09799 40.0827H10.5298L11.5226 35.6654L9.30664 31.2624L5.41371 28.9349C5.09728 28.7459 4.69133 28.7954 4.42985 29.056C4.08062 29.404 4.12405 29.979 4.52203 30.2704L7.09072 32.1536" stroke="#E3B36F" stroke-linecap="round" stroke-linejoin="round"/>
<path d="M4.8748 26.8328V21.368C4.8748 20.7276 4.35362 20.2083 3.71189 20.2083C3.11448 20.2083 2.61368 20.6596 2.55429 21.2523L0.779785 31.2491L6.98436 38.3161L6.09799 40.0827H10.5298L11.5226 35.6654L9.30664 31.2624L5.41371 28.9349C5.09728 28.7459 4.69133 28.7954 4.42985 29.056C4.08062 29.404 4.12405 29.979 4.52203 30.2704L7.09072 32.1536" stroke="#E3B36F" stroke-opacity="0.5" stroke-width="0.5" stroke-linecap="round" stroke-linejoin="round"/>
<path d="M35.6849 26.8328V21.368C35.6849 20.7276 36.206 20.2083 36.8478 20.2083C37.4452 20.2083 37.946 20.6596 38.0054 21.2523L39.7799 31.2491L33.5753 38.3161L34.4617 40.0827H30.0298L29.0371 35.6654L31.253 31.2624L35.146 28.9349C35.4624 28.7459 35.8683 28.7954 36.1298 29.056C36.4791 29.404 36.4356 29.979 36.0376 30.2704L33.4689 32.1536" stroke="#E3B36F" stroke-linecap="round" stroke-linejoin="round"/>
<path d="M35.6849 26.8328V21.368C35.6849 20.7276 36.206 20.2083 36.8478 20.2083C37.4452 20.2083 37.946 20.6596 38.0054 21.2523L39.7799 31.2491L33.5753 38.3161L34.4617 40.0827H30.0298L29.0371 35.6654L31.253 31.2624L35.146 28.9349C35.4624 28.7459 35.8683 28.7954 36.1298 29.056C36.4791 29.404 36.4356 29.979 36.0376 30.2704L33.4689 32.1536" stroke="#E3B36F" stroke-opacity="0.5" stroke-width="0.5" stroke-linecap="round" stroke-linejoin="round"/>
<g filter="url(#filter0_d_19_16651)">
<path fill-rule="evenodd" clip-rule="evenodd" d="M21.3181 8.3439C21.2026 8.23757 21.1429 8.23555 21.1329 8.23555C21.1229 8.23555 21.0633 8.23757 20.9477 8.3439C20.8291 8.45306 20.6873 8.6414 20.5346 8.932C20.2296 9.51203 19.9378 10.3887 19.6862 11.52C19.4034 12.7921 19.1799 14.347 19.0389 16.0876C19.7199 16.4172 20.4203 16.7754 21.1328 17.1601C21.8453 16.7754 22.5458 16.4171 23.227 16.0875C23.086 14.347 22.8625 12.7921 22.5796 11.52C22.3281 10.3887 22.0362 9.51203 21.7313 8.932C21.5785 8.6414 21.4368 8.45306 21.3181 8.3439ZM20.5367 17.4867C20.0135 17.2087 19.498 16.9457 18.9933 16.6986C18.955 17.259 18.9252 17.8366 18.9045 18.4284C19.1715 18.2685 19.4423 18.1093 19.7168 17.9509C19.9913 17.7926 20.2647 17.6378 20.5367 17.4867ZM18.4894 15.826C18.8981 11.053 19.9276 7.66626 21.1329 7.66626C22.3383 7.66626 23.3677 11.0529 23.7765 15.8259C28.1168 13.7932 31.5663 12.9909 32.1689 14.0341C32.7716 15.0773 30.3516 17.6616 26.4199 20.4019C30.3516 23.1421 32.7716 25.7264 32.1689 26.7696C31.5663 27.8128 28.1168 27.0105 23.7765 24.9778C23.3677 29.7508 22.3383 33.1374 21.1329 33.1374C19.9276 33.1374 18.8981 29.7507 18.4894 24.9777C14.1489 27.0104 10.6992 27.8128 10.0966 26.7696C9.49388 25.7264 11.9139 23.1421 15.8456 20.4019C11.9139 17.6616 9.49388 15.0774 10.0966 14.0341C10.6992 12.9909 14.1489 13.7933 18.4894 15.826ZM16.3472 20.057C14.9093 19.0646 13.6735 18.0936 12.7125 17.2126C11.8579 16.4293 11.2441 15.7383 10.8939 15.1844C10.7185 14.9068 10.6262 14.69 10.5909 14.5328C10.5566 14.3797 10.5846 14.3273 10.5895 14.3189C10.5944 14.3104 10.6259 14.2598 10.7759 14.2129C10.9299 14.1648 11.164 14.1363 11.4923 14.1494C12.1475 14.1755 13.0533 14.3612 14.1594 14.7092C15.4033 15.1004 16.8625 15.6845 18.4413 16.4327C18.3864 17.1868 18.3467 17.972 18.3238 18.7808C17.6341 19.2052 16.9734 19.6322 16.3472 20.057ZM16.3472 20.7467C14.9093 21.7392 13.6735 22.7101 12.7125 23.5911C11.8579 24.3744 11.2441 25.0654 10.8939 25.6193C10.7185 25.8969 10.6262 26.1138 10.5909 26.2709C10.5566 26.424 10.5846 26.4764 10.5895 26.4848C10.5944 26.4933 10.6259 26.5439 10.7759 26.5908C10.9299 26.6389 11.164 26.6674 11.4923 26.6544C12.1475 26.6282 13.0533 26.4425 14.1594 26.0945C15.4033 25.7033 16.8625 25.1193 18.4413 24.371C18.3864 23.6169 18.3467 22.8317 18.3238 22.0228C17.6341 21.5985 16.9734 21.1715 16.3472 20.7467ZM18.3087 21.3437C17.8061 21.0298 17.3204 20.7152 16.8539 20.4019C17.3204 20.0885 17.8061 19.7739 18.3087 19.46C18.3037 19.771 18.3011 20.0851 18.3011 20.4019C18.3011 20.7186 18.3037 21.0327 18.3087 21.3437ZM18.885 21.6987C18.8754 21.2726 18.8704 20.84 18.8704 20.4019C18.8704 19.9637 18.8754 19.5311 18.885 19.105C19.2494 18.8836 19.6217 18.663 20.0013 18.444C20.3811 18.2249 20.7586 18.0128 21.1328 17.8081C21.5069 18.0128 21.8844 18.2249 22.2642 18.444C22.6439 18.6631 23.0164 18.8838 23.3808 19.1052C23.3905 19.5312 23.3955 19.9638 23.3955 20.4019C23.3955 20.8399 23.3905 21.2725 23.3808 21.6985C23.0164 21.9199 22.6439 22.1406 22.2642 22.3597C21.8844 22.5788 21.5069 22.7909 21.1328 22.9956C20.7586 22.7909 20.3811 22.5788 20.0013 22.3597C19.6217 22.1407 19.2494 21.9201 18.885 21.6987ZM18.9045 22.3753C18.9252 22.9671 18.955 23.5448 18.9933 24.1051C19.498 23.858 20.0135 23.595 20.5367 23.317C20.2647 23.1659 19.9913 23.0112 19.7168 22.8528C19.4423 22.6944 19.1715 22.5352 18.9045 22.3753ZM21.1328 23.6436C20.4203 24.0283 19.7199 24.3865 19.0389 24.716C19.1799 26.4567 19.4034 28.0116 19.6862 29.2837C19.9378 30.415 20.2296 31.2917 20.5346 31.8717C20.6873 32.1623 20.8291 32.3507 20.9477 32.4598C21.0633 32.5661 21.1229 32.5682 21.1329 32.5682C21.1429 32.5682 21.2026 32.5661 21.3181 32.4598C21.4368 32.3507 21.5785 32.1623 21.7313 31.8717C22.0362 31.2917 22.3281 30.415 22.5796 29.2837C22.8625 28.0116 23.086 26.4567 23.227 24.7162C22.5458 24.3866 21.8453 24.0283 21.1328 23.6436ZM23.8245 24.3712C25.4032 25.1193 26.8623 25.7033 28.1061 26.0945C29.2122 26.4425 30.118 26.6282 30.7732 26.6544C31.1014 26.6674 31.3356 26.6389 31.4896 26.5908C31.6396 26.5439 31.6711 26.4933 31.676 26.4848C31.6809 26.4764 31.709 26.424 31.6746 26.2709C31.6393 26.1138 31.547 25.8969 31.3716 25.6193C31.0214 25.0654 30.4076 24.3744 29.553 23.5911C28.592 22.7101 27.3562 21.7392 25.9183 20.7467C25.2922 21.1714 24.6316 21.5984 23.9421 22.0226C23.9192 22.8316 23.8795 23.6169 23.8245 24.3712ZM25.9183 20.057C27.3562 19.0646 28.592 18.0936 29.553 17.2126C30.4076 16.4293 31.0214 15.7383 31.3716 15.1844C31.547 14.9068 31.6393 14.69 31.6746 14.5328C31.709 14.3797 31.6809 14.3273 31.676 14.3189C31.6711 14.3104 31.6396 14.2598 31.4896 14.2129C31.3356 14.1648 31.1014 14.1363 30.7732 14.1494C30.118 14.1755 29.2122 14.3612 28.1061 14.7092C26.8623 15.1004 25.4032 15.6844 23.8245 16.4325C23.8795 17.1868 23.9192 17.9721 23.9421 18.7811C24.6316 19.2053 25.2922 19.6323 25.9183 20.057ZM23.9571 19.4602C24.4596 19.774 24.9452 20.0886 25.4116 20.4019C24.9452 20.7151 24.4596 21.0297 23.9571 21.3435C23.9622 21.0326 23.9648 20.7186 23.9648 20.4019C23.9648 20.0852 23.9622 19.7711 23.9571 19.4602ZM23.3613 18.4286C23.3406 17.8366 23.3108 17.2589 23.2726 16.6984C22.7677 16.9456 22.2522 17.2086 21.7288 17.4867C22.0008 17.6378 22.2742 17.7926 22.5487 17.9509C22.8233 18.1094 23.0943 18.2687 23.3613 18.4286ZM23.2726 24.1053C22.7677 23.8582 22.2522 23.5951 21.7288 23.317C22.0008 23.1659 22.2742 23.0112 22.5487 22.8528C22.8233 22.6943 23.0943 22.535 23.3613 22.3751C23.3406 22.9671 23.3108 23.5448 23.2726 24.1053Z" fill="#E3B36F"/>
<path fill-rule="evenodd" clip-rule="evenodd" d="M12.9927 16.8353C13.4874 16.8353 13.8883 17.2365 13.8883 17.7313C13.8883 18.2262 13.4874 18.6273 12.9927 18.6273C12.4981 18.6273 12.0972 18.2262 12.0972 17.7313C12.0972 17.2365 12.4981 16.8353 12.9927 16.8353Z" fill="#E3B36F"/>
<path fill-rule="evenodd" clip-rule="evenodd" d="M27.2261 13.767C27.7209 13.767 28.1221 14.1681 28.1221 14.663C28.1221 15.1578 27.7209 15.559 27.2261 15.559C26.7312 15.559 26.3301 15.1578 26.3301 14.663C26.3301 14.1681 26.7312 13.767 27.2261 13.767Z" fill="#E3B36F"/>
<path fill-rule="evenodd" clip-rule="evenodd" d="M19.3281 27.8303C19.823 27.8303 20.2242 28.2313 20.2242 28.7259C20.2242 29.2205 19.823 29.6215 19.3281 29.6215C18.8333 29.6215 18.4321 29.2205 18.4321 28.7259C18.4321 28.2313 18.8333 27.8303 19.3281 27.8303Z" fill="#E3B36F"/>
<path fill-rule="evenodd" clip-rule="evenodd" d="M21.0829 18.8782C21.9207 18.8782 22.5999 19.5574 22.5999 20.3952C22.5999 21.233 21.9207 21.9121 21.0829 21.9121C20.2451 21.9121 19.5659 21.233 19.5659 20.3952C19.5659 19.5574 20.2451 18.8782 21.0829 18.8782Z" fill="#E3B36F"/>
</g>
<defs>
<filter id="filter0_d_19_16651" x="-0.484375" y="-1.17212" width="43.1479" height="43.1478" filterUnits="userSpaceOnUse" color-interpolation-filters="sRGB">
<feFlood flood-opacity="0" result="BackgroundImageFix"/>
<feColorMatrix in="SourceAlpha" type="matrix" values="0 0 0 0 0 0 0 0 0 0 0 0 0 0 0 0 0 0 127 0" result="hardAlpha"/>
<feOffset/>
<feGaussianBlur stdDeviation="3.5"/>
<feComposite in2="hardAlpha" operator="out"/>
<feColorMatrix type="matrix" values="0 0 0 0 1 0 0 0 0 1 0 0 0 0 1 0 0 0 0.44 0"/>
<feBlend mode="normal" in2="BackgroundImageFix" result="effect1_dropShadow_19_16651"/>
<feBlend mode="normal" in="SourceGraphic" in2="effect1_dropShadow_19_16651" result="shape"/>
</filter>
</defs>
</svg>
