<svg width="33" height="34" viewBox="0 0 33 34" fill="none" xmlns="http://www.w3.org/2000/svg">
<path d="M28.2119 6.45334C28.2119 5.9709 28.3119 5.5138 28.4712 5.08601L16.2081 0.610107L3.94503 5.08601C4.10428 5.5138 4.20431 5.9709 4.20431 6.45334C4.20431 8.49404 2.63982 10.1545 0.635986 10.3708C2.22369 20.5014 8.19437 28.8661 16.2081 32.7178C24.2218 28.8661 30.1925 20.5014 31.7802 10.3708C29.7764 10.1545 28.2119 8.49404 28.2119 6.45334Z" stroke="#E3B36F" stroke-linecap="round" stroke-linejoin="round"/>
<path d="M28.2119 6.45334C28.2119 5.9709 28.3119 5.5138 28.4712 5.08601L16.2081 0.610107L3.94503 5.08601C4.10428 5.5138 4.20431 5.9709 4.20431 6.45334C4.20431 8.49404 2.63982 10.1545 0.635986 10.3708C2.22369 20.5014 8.19437 28.8661 16.2081 32.7178C24.2218 28.8661 30.1925 20.5014 31.7802 10.3708C29.7764 10.1545 28.2119 8.49404 28.2119 6.45334Z" stroke="#E3B36F" stroke-width="0.5" stroke-linecap="round" stroke-linejoin="round"/>
<path d="M9.82544 23.2958H23.3588V13.1021H9.82544V23.2958Z" stroke="#E3B36F" stroke-linecap="round" stroke-linejoin="round"/>
<path d="M11.5171 13.1022V9.70699C11.5171 6.8917 13.7893 4.61011 16.5921 4.61011C19.3949 4.61011 21.6671 6.8917 21.6671 9.70699V13.1022" stroke="#E3B36F" stroke-linecap="round" stroke-linejoin="round"/>
<path d="M11.5171 13.1022V9.70699C11.5171 6.8917 13.7893 4.61011 16.5921 4.61011C19.3949 4.61011 21.6671 6.8917 21.6671 9.70699V13.1022" stroke="#E3B36F" stroke-width="0.5" stroke-linecap="round" stroke-linejoin="round"/>
<path d="M16.592 17.3491V19.8976" stroke="#E3B36F" stroke-linecap="round" stroke-linejoin="round"/>
<path d="M16.592 17.3491V19.8976" stroke="#E3B36F" stroke-width="0.5" stroke-linecap="round" stroke-linejoin="round"/>
<path d="M17.438 16.4999C17.438 16.9692 17.0591 17.3494 16.5922 17.3494C16.1253 17.3494 15.7463 16.9692 15.7463 16.4999C15.7463 16.0305 16.1253 15.6504 16.5922 15.6504C17.0591 15.6504 17.438 16.0305 17.438 16.4999Z" stroke="#E3B36F" stroke-linecap="round" stroke-linejoin="round"/>
<path d="M17.438 16.4999C17.438 16.9692 17.0591 17.3494 16.5922 17.3494C16.1253 17.3494 15.7463 16.9692 15.7463 16.4999C15.7463 16.0305 16.1253 15.6504 16.5922 15.6504C17.0591 15.6504 17.438 16.0305 17.438 16.4999Z" stroke="#E3B36F" stroke-width="0.5" stroke-linecap="round" stroke-linejoin="round"/>
</svg>
