<svg width="90" height="100" viewBox="0 0 90 100" fill="none" xmlns="http://www.w3.org/2000/svg">
<g clip-path="url(#clip0_75_2484)">
<path d="M13.5046 35.0331L9.8269 31.3086L13.5046 27.5842" stroke="#E3B36F" stroke-linejoin="round"/>
<path d="M24.5376 20.1355L28.2153 23.8599L24.5376 27.5843" stroke="#E3B36F" stroke-linejoin="round"/>
<g filter="url(#filter0_d_75_2484)">
<path d="M29.1347 70.8984C30.6581 70.8984 31.893 69.6478 31.893 68.1051C31.893 66.5624 30.6581 65.3118 29.1347 65.3118C27.6114 65.3118 26.3765 66.5624 26.3765 68.1051C26.3765 69.6478 27.6114 70.8984 29.1347 70.8984Z" fill="#212121"/>
</g>
<path d="M29.1347 70.8984C30.6581 70.8984 31.893 69.6478 31.893 68.1051C31.893 66.5624 30.6581 65.3118 29.1347 65.3118C27.6114 65.3118 26.3765 66.5624 26.3765 68.1051C26.3765 69.6478 27.6114 70.8984 29.1347 70.8984Z" stroke="#F2F2F9" stroke-linecap="round" stroke-linejoin="round"/>
<path d="M29.1347 70.8984C30.6581 70.8984 31.893 69.6478 31.893 68.1051C31.893 66.5624 30.6581 65.3118 29.1347 65.3118C27.6114 65.3118 26.3765 66.5624 26.3765 68.1051C26.3765 69.6478 27.6114 70.8984 29.1347 70.8984Z" stroke="white" stroke-width="0.5" stroke-linecap="round" stroke-linejoin="round"/>
<g filter="url(#filter1_d_75_2484)">
<path d="M49.3618 71.8295C50.8851 71.8295 52.12 70.5789 52.12 69.0362C52.12 67.4935 50.8851 66.2429 49.3618 66.2429C47.8384 66.2429 46.6035 67.4935 46.6035 69.0362C46.6035 70.5789 47.8384 71.8295 49.3618 71.8295Z" fill="#212121"/>
</g>
<path d="M49.3618 71.8295C50.8851 71.8295 52.12 70.5789 52.12 69.0362C52.12 67.4935 50.8851 66.2429 49.3618 66.2429C47.8384 66.2429 46.6035 67.4935 46.6035 69.0362C46.6035 70.5789 47.8384 71.8295 49.3618 71.8295Z" stroke="#F2F2F9" stroke-linecap="round" stroke-linejoin="round"/>
<path d="M49.3618 71.8295C50.8851 71.8295 52.12 70.5789 52.12 69.0362C52.12 67.4935 50.8851 66.2429 49.3618 66.2429C47.8384 66.2429 46.6035 67.4935 46.6035 69.0362C46.6035 70.5789 47.8384 71.8295 49.3618 71.8295Z" stroke="white" stroke-width="0.5" stroke-linecap="round" stroke-linejoin="round"/>
<path d="M31.8928 68.105H46.6035" stroke="#F2F2F9" stroke-linecap="round" stroke-linejoin="round"/>
<path d="M31.8928 68.105H46.6035" stroke="white" stroke-width="0.5" stroke-linecap="round" stroke-linejoin="round"/>
<g filter="url(#filter2_d_75_2484)">
<path d="M30.5136 65.6856L32.0031 63.5304L25.0155 39.4875H21.5217" fill="#212121"/>
</g>
<path d="M30.5136 65.6856L32.0031 63.5304L25.0155 39.4875H21.5217" stroke="#F2F2F9" stroke-linecap="round" stroke-linejoin="round"/>
<path d="M30.5136 65.6856L32.0031 63.5304L25.0155 39.4875H21.5217" stroke="white" stroke-width="0.5" stroke-linecap="round" stroke-linejoin="round"/>
<g filter="url(#filter3_d_75_2484)">
<path d="M55.0621 57.8734V46.5591H27.1118L32.0031 63.5305L55.0621 57.8734Z" fill="#212121"/>
</g>
<path d="M55.0621 57.8734V46.5591H27.1118L32.0031 63.5305L55.0621 57.8734Z" stroke="#F2F2F9" stroke-linecap="round" stroke-linejoin="round"/>
<path d="M55.0621 57.8734V46.5591H27.1118L32.0031 63.5305L55.0621 57.8734Z" stroke="white" stroke-width="0.5" stroke-linecap="round" stroke-linejoin="round"/>
<g filter="url(#filter4_d_75_2484)">
<path d="M66.3895 26.6885H55.3564V37.8617H66.3895V26.6885Z" fill="#212121"/>
</g>
<path d="M66.3895 26.6885H55.3564V37.8617H66.3895V26.6885Z" stroke="#F2F2F9" stroke-linecap="round" stroke-linejoin="round"/>
<path d="M66.3895 26.6885H55.3564V37.8617H66.3895V26.6885Z" stroke="white" stroke-width="0.5" stroke-linecap="round" stroke-linejoin="round"/>
<g filter="url(#filter5_d_75_2484)">
<path d="M59.0342 26.6884V22.964C59.0342 21.9355 59.8575 21.1018 60.873 21.1018C61.8886 21.1018 62.7119 21.9355 62.7119 22.964V26.6884" fill="#212121"/>
</g>
<path d="M59.0342 26.6884V22.964C59.0342 21.9355 59.8575 21.1018 60.873 21.1018C61.8886 21.1018 62.7119 21.9355 62.7119 22.964V26.6884" stroke="#F2F2F9" stroke-linecap="round" stroke-linejoin="round"/>
<path d="M59.0342 26.6884V22.964C59.0342 21.9355 59.8575 21.1018 60.873 21.1018C61.8886 21.1018 62.7119 21.9355 62.7119 22.964V26.6884" stroke="white" stroke-width="0.5" stroke-linecap="round" stroke-linejoin="round"/>
<path d="M66.8307 84.865C71.9085 84.865 76.0248 80.6963 76.0248 75.554C76.0248 70.4116 71.9085 66.2429 66.8307 66.2429C61.7528 66.2429 57.6365 70.4116 57.6365 75.554C57.6365 80.6963 61.7528 84.865 66.8307 84.865Z" stroke="#E3B36F" stroke-linejoin="round"/>
<g filter="url(#filter6_d_75_2484)">
<path d="M68.6697 71.8293C69.6852 71.8293 70.5085 72.6631 70.5085 73.6916C70.5085 74.72 69.6852 75.5538 68.6697 75.5538" fill="#212121"/>
</g>
<path d="M68.6697 71.8293C69.6852 71.8293 70.5085 72.6631 70.5085 73.6916C70.5085 74.72 69.6852 75.5538 68.6697 75.5538" stroke="#F2F2F9" stroke-linecap="round" stroke-linejoin="round"/>
<path d="M68.6697 71.8293C69.6852 71.8293 70.5085 72.6631 70.5085 73.6916C70.5085 74.72 69.6852 75.5538 68.6697 75.5538" stroke="white" stroke-width="0.5" stroke-linecap="round" stroke-linejoin="round"/>
<g filter="url(#filter7_d_75_2484)">
<path d="M68.6697 75.554C69.6852 75.554 70.5085 76.3877 70.5085 77.4162C70.5085 78.4446 69.6852 79.2784 68.6697 79.2784" fill="#212121"/>
</g>
<path d="M68.6697 75.554C69.6852 75.554 70.5085 76.3877 70.5085 77.4162C70.5085 78.4446 69.6852 79.2784 68.6697 79.2784" stroke="#F2F2F9" stroke-linecap="round" stroke-linejoin="round"/>
<path d="M68.6697 75.554C69.6852 75.554 70.5085 76.3877 70.5085 77.4162C70.5085 78.4446 69.6852 79.2784 68.6697 79.2784" stroke="white" stroke-width="0.5" stroke-linecap="round" stroke-linejoin="round"/>
<path d="M63.1531 71.8293H68.6696" stroke="#F2F2F9" stroke-linecap="round" stroke-linejoin="round"/>
<path d="M63.1531 71.8293H68.6696" stroke="white" stroke-width="0.5" stroke-linecap="round" stroke-linejoin="round"/>
<path d="M64.9919 75.554H68.6696" stroke="#F2F2F9" stroke-linecap="round" stroke-linejoin="round"/>
<path d="M64.9919 75.554H68.6696" stroke="white" stroke-width="0.5" stroke-linecap="round" stroke-linejoin="round"/>
<path d="M63.1531 79.2783H68.6696" stroke="#F2F2F9" stroke-linecap="round" stroke-linejoin="round"/>
<path d="M63.1531 79.2783H68.6696" stroke="white" stroke-width="0.5" stroke-linecap="round" stroke-linejoin="round"/>
<path d="M64.9919 69.9673V81.0619" stroke="#F2F2F9" stroke-linecap="round" stroke-linejoin="round"/>
<path d="M64.9919 69.9673V81.0619" stroke="white" stroke-width="0.5" stroke-linecap="round" stroke-linejoin="round"/>
<path d="M68.6697 69.9673V71.8295" stroke="#F2F2F9" stroke-linecap="round" stroke-linejoin="round"/>
<path d="M68.6697 69.9673V71.8295" stroke="white" stroke-width="0.5" stroke-linecap="round" stroke-linejoin="round"/>
<path d="M68.6697 79.2783V81.1405" stroke="#F2F2F9" stroke-linecap="round" stroke-linejoin="round"/>
<path d="M68.6697 79.2783V81.1405" stroke="white" stroke-width="0.5" stroke-linecap="round" stroke-linejoin="round"/>
<path d="M9.82684 77.4161C11.858 77.4161 13.5045 75.7486 13.5045 73.6917C13.5045 71.6348 11.858 69.9673 9.82684 69.9673C7.79572 69.9673 6.14917 71.6348 6.14917 73.6917C6.14917 75.7486 7.79572 77.4161 9.82684 77.4161Z" stroke="#E3B36F" stroke-linejoin="round"/>
<path d="M39.2482 36.4474C41.2794 36.4474 42.9259 34.7799 42.9259 32.723C42.9259 30.666 41.2794 28.9985 39.2482 28.9985C37.2171 28.9985 35.5706 30.666 35.5706 32.723C35.5706 34.7799 37.2171 36.4474 39.2482 36.4474Z" stroke="white" stroke-opacity="0.32" stroke-linejoin="round"/>
<path d="M48.4424 85.796C49.4579 85.796 50.2812 84.9622 50.2812 83.9337C50.2812 82.9053 49.4579 82.0715 48.4424 82.0715C47.4268 82.0715 46.6035 82.9053 46.6035 83.9337C46.6035 84.9622 47.4268 85.796 48.4424 85.796Z" stroke="#FFCA42" stroke-opacity="0.32" stroke-linejoin="round"/>
<path d="M68.6696 53.2073C69.6852 53.2073 70.5085 52.3736 70.5085 51.3451C70.5085 50.3166 69.6852 49.4829 68.6696 49.4829C67.6541 49.4829 66.8308 50.3166 66.8308 51.3451C66.8308 52.3736 67.6541 53.2073 68.6696 53.2073Z" stroke="#E3B36F" stroke-linejoin="round"/>
<path d="M20.8598 56.9317C21.8754 56.9317 22.6987 56.098 22.6987 55.0695C22.6987 54.041 21.8754 53.2073 20.8598 53.2073C19.8443 53.2073 19.021 54.041 19.021 55.0695C19.021 56.098 19.8443 56.9317 20.8598 56.9317Z" stroke="white" stroke-opacity="0.32" stroke-linejoin="round"/>
<path d="M46.6772 46.5591V59.2877M42.4846 46.5591V60.7019M38.2921 46.5591V62.1162M34.0995 46.5591V63.5305M29.907 46.5591V56.4591M50.8697 46.5591V59.2877" stroke="white" stroke-opacity="0.64" stroke-linejoin="round"/>
<path d="M9.8269 31.3088H20.8599" stroke="#E3B36F" stroke-linejoin="round"/>
<path d="M28.2151 23.8599H17.1821" stroke="#E3B36F" stroke-linejoin="round"/>
</g>
<defs>
<filter id="filter0_d_75_2484" x="2.37646" y="41.3118" width="53.5166" height="53.5867" filterUnits="userSpaceOnUse" color-interpolation-filters="sRGB">
<feFlood flood-opacity="0" result="BackgroundImageFix"/>
<feColorMatrix in="SourceAlpha" type="matrix" values="0 0 0 0 0 0 0 0 0 0 0 0 0 0 0 0 0 0 127 0" result="hardAlpha"/>
<feOffset/>
<feGaussianBlur stdDeviation="12"/>
<feComposite in2="hardAlpha" operator="out"/>
<feColorMatrix type="matrix" values="0 0 0 0 1 0 0 0 0 1 0 0 0 0 1 0 0 0 0.32 0"/>
<feBlend mode="normal" in2="BackgroundImageFix" result="effect1_dropShadow_75_2484"/>
<feBlend mode="normal" in="SourceGraphic" in2="effect1_dropShadow_75_2484" result="shape"/>
</filter>
<filter id="filter1_d_75_2484" x="22.6035" y="42.2429" width="53.5166" height="53.5867" filterUnits="userSpaceOnUse" color-interpolation-filters="sRGB">
<feFlood flood-opacity="0" result="BackgroundImageFix"/>
<feColorMatrix in="SourceAlpha" type="matrix" values="0 0 0 0 0 0 0 0 0 0 0 0 0 0 0 0 0 0 127 0" result="hardAlpha"/>
<feOffset/>
<feGaussianBlur stdDeviation="12"/>
<feComposite in2="hardAlpha" operator="out"/>
<feColorMatrix type="matrix" values="0 0 0 0 1 0 0 0 0 1 0 0 0 0 1 0 0 0 0.32 0"/>
<feBlend mode="normal" in2="BackgroundImageFix" result="effect1_dropShadow_75_2484"/>
<feBlend mode="normal" in="SourceGraphic" in2="effect1_dropShadow_75_2484" result="shape"/>
</filter>
<filter id="filter2_d_75_2484" x="-2.47827" y="15.4875" width="58.4814" height="74.198" filterUnits="userSpaceOnUse" color-interpolation-filters="sRGB">
<feFlood flood-opacity="0" result="BackgroundImageFix"/>
<feColorMatrix in="SourceAlpha" type="matrix" values="0 0 0 0 0 0 0 0 0 0 0 0 0 0 0 0 0 0 127 0" result="hardAlpha"/>
<feOffset/>
<feGaussianBlur stdDeviation="12"/>
<feComposite in2="hardAlpha" operator="out"/>
<feColorMatrix type="matrix" values="0 0 0 0 1 0 0 0 0 1 0 0 0 0 1 0 0 0 0.32 0"/>
<feBlend mode="normal" in2="BackgroundImageFix" result="effect1_dropShadow_75_2484"/>
<feBlend mode="normal" in="SourceGraphic" in2="effect1_dropShadow_75_2484" result="shape"/>
</filter>
<filter id="filter3_d_75_2484" x="3.11182" y="22.5591" width="75.9502" height="64.9714" filterUnits="userSpaceOnUse" color-interpolation-filters="sRGB">
<feFlood flood-opacity="0" result="BackgroundImageFix"/>
<feColorMatrix in="SourceAlpha" type="matrix" values="0 0 0 0 0 0 0 0 0 0 0 0 0 0 0 0 0 0 127 0" result="hardAlpha"/>
<feOffset/>
<feGaussianBlur stdDeviation="12"/>
<feComposite in2="hardAlpha" operator="out"/>
<feColorMatrix type="matrix" values="0 0 0 0 1 0 0 0 0 1 0 0 0 0 1 0 0 0 0.32 0"/>
<feBlend mode="normal" in2="BackgroundImageFix" result="effect1_dropShadow_75_2484"/>
<feBlend mode="normal" in="SourceGraphic" in2="effect1_dropShadow_75_2484" result="shape"/>
</filter>
<filter id="filter4_d_75_2484" x="31.3564" y="2.68848" width="59.033" height="59.1733" filterUnits="userSpaceOnUse" color-interpolation-filters="sRGB">
<feFlood flood-opacity="0" result="BackgroundImageFix"/>
<feColorMatrix in="SourceAlpha" type="matrix" values="0 0 0 0 0 0 0 0 0 0 0 0 0 0 0 0 0 0 127 0" result="hardAlpha"/>
<feOffset/>
<feGaussianBlur stdDeviation="12"/>
<feComposite in2="hardAlpha" operator="out"/>
<feColorMatrix type="matrix" values="0 0 0 0 1 0 0 0 0 1 0 0 0 0 1 0 0 0 0.32 0"/>
<feBlend mode="normal" in2="BackgroundImageFix" result="effect1_dropShadow_75_2484"/>
<feBlend mode="normal" in="SourceGraphic" in2="effect1_dropShadow_75_2484" result="shape"/>
</filter>
<filter id="filter5_d_75_2484" x="35.0342" y="-2.89819" width="51.6777" height="53.5867" filterUnits="userSpaceOnUse" color-interpolation-filters="sRGB">
<feFlood flood-opacity="0" result="BackgroundImageFix"/>
<feColorMatrix in="SourceAlpha" type="matrix" values="0 0 0 0 0 0 0 0 0 0 0 0 0 0 0 0 0 0 127 0" result="hardAlpha"/>
<feOffset/>
<feGaussianBlur stdDeviation="12"/>
<feComposite in2="hardAlpha" operator="out"/>
<feColorMatrix type="matrix" values="0 0 0 0 1 0 0 0 0 1 0 0 0 0 1 0 0 0 0.32 0"/>
<feBlend mode="normal" in2="BackgroundImageFix" result="effect1_dropShadow_75_2484"/>
<feBlend mode="normal" in="SourceGraphic" in2="effect1_dropShadow_75_2484" result="shape"/>
</filter>
<filter id="filter6_d_75_2484" x="44.6697" y="47.8293" width="49.8389" height="51.7244" filterUnits="userSpaceOnUse" color-interpolation-filters="sRGB">
<feFlood flood-opacity="0" result="BackgroundImageFix"/>
<feColorMatrix in="SourceAlpha" type="matrix" values="0 0 0 0 0 0 0 0 0 0 0 0 0 0 0 0 0 0 127 0" result="hardAlpha"/>
<feOffset/>
<feGaussianBlur stdDeviation="12"/>
<feComposite in2="hardAlpha" operator="out"/>
<feColorMatrix type="matrix" values="0 0 0 0 1 0 0 0 0 1 0 0 0 0 1 0 0 0 0.32 0"/>
<feBlend mode="normal" in2="BackgroundImageFix" result="effect1_dropShadow_75_2484"/>
<feBlend mode="normal" in="SourceGraphic" in2="effect1_dropShadow_75_2484" result="shape"/>
</filter>
<filter id="filter7_d_75_2484" x="44.6697" y="51.554" width="49.8389" height="51.7244" filterUnits="userSpaceOnUse" color-interpolation-filters="sRGB">
<feFlood flood-opacity="0" result="BackgroundImageFix"/>
<feColorMatrix in="SourceAlpha" type="matrix" values="0 0 0 0 0 0 0 0 0 0 0 0 0 0 0 0 0 0 127 0" result="hardAlpha"/>
<feOffset/>
<feGaussianBlur stdDeviation="12"/>
<feComposite in2="hardAlpha" operator="out"/>
<feColorMatrix type="matrix" values="0 0 0 0 1 0 0 0 0 1 0 0 0 0 1 0 0 0 0.32 0"/>
<feBlend mode="normal" in2="BackgroundImageFix" result="effect1_dropShadow_75_2484"/>
<feBlend mode="normal" in="SourceGraphic" in2="effect1_dropShadow_75_2484" result="shape"/>
</filter>
<clipPath id="clip0_75_2484">
<rect width="90" height="99" fill="white" transform="translate(0 0.17041)"/>
</clipPath>
</defs>
</svg>
