<svg width="106" height="98" viewBox="0 0 106 98" fill="none" xmlns="http://www.w3.org/2000/svg">
<g clip-path="url(#clip0_75_4161)">
<g filter="url(#filter0_d_75_4161)">
<path d="M46.3225 64.3868L53.5463 68.0293L59.5662 69.2435L60.7702 65.601L48.7304 58.3159L36.6907 59.5301V70.4577H41.5066L55.9543 75.3144L76.4219 65.601L75.2179 63.1726L60.2639 67.1333" fill="#1D1D1D"/>
</g>
<path d="M46.3225 64.3868L53.5463 68.0293L59.5662 69.2435L60.7702 65.601L48.7304 58.3159L36.6907 59.5301V70.4577H41.5066L55.9543 75.3144L76.4219 65.601L75.2179 63.1726L60.2639 67.1333" stroke="#F2F2F9" stroke-linecap="round" stroke-linejoin="round"/>
<path d="M46.3225 64.3868L53.5463 68.0293L59.5662 69.2435L60.7702 65.601L48.7304 58.3159L36.6907 59.5301V70.4577H41.5066L55.9543 75.3144L76.4219 65.601L75.2179 63.1726L60.2639 67.1333" stroke="white" stroke-width="0.5" stroke-linecap="round" stroke-linejoin="round"/>
<g filter="url(#filter1_d_75_4161)">
<path d="M24.6509 72.8863H36.6906V57.1021H24.6509V72.8863Z" fill="#1D1D1D"/>
</g>
<path d="M24.6509 72.8863H36.6906V57.1021H24.6509V72.8863Z" stroke="#F2F2F9" stroke-linecap="round" stroke-linejoin="round"/>
<path d="M24.6509 72.8863H36.6906V57.1021H24.6509V72.8863Z" stroke="white" stroke-width="0.5" stroke-linecap="round" stroke-linejoin="round"/>
<path fill-rule="evenodd" clip-rule="evenodd" d="M83.8056 78.1069C83.8056 80.1182 82.1881 81.7494 80.1937 81.7494C78.1987 81.7494 76.5818 80.1182 76.5818 78.1069C76.5818 76.095 78.1987 74.4644 80.1937 74.4644C82.1881 74.4644 83.8056 76.095 83.8056 78.1069Z" stroke="#E3B36F" stroke-opacity="0.5" stroke-linejoin="round"/>
<path fill-rule="evenodd" clip-rule="evenodd" d="M84.5202 27.0685C84.5202 28.4095 83.4421 29.4968 82.1123 29.4968C80.7825 29.4968 79.7043 28.4095 79.7043 27.0685C79.7043 25.7274 80.7825 24.6401 82.1123 24.6401C83.4421 24.6401 84.5202 25.7274 84.5202 27.0685Z" stroke="#E3B36F" stroke-opacity="0.5" stroke-linejoin="round"/>
<path fill-rule="evenodd" clip-rule="evenodd" d="M84.5202 27.0685C84.5202 28.4095 83.4421 29.4968 82.1123 29.4968C80.7825 29.4968 79.7043 28.4095 79.7043 27.0685C79.7043 25.7274 80.7825 24.6401 82.1123 24.6401C83.4421 24.6401 84.5202 25.7274 84.5202 27.0685Z" stroke="#E3B36F" stroke-opacity="0.5" stroke-linejoin="round"/>
<path fill-rule="evenodd" clip-rule="evenodd" d="M21.7815 81.6085C21.7815 82.9496 20.7033 84.0369 19.3735 84.0369C18.0437 84.0369 16.9656 82.9496 16.9656 81.6085C16.9656 80.2675 18.0437 79.1802 19.3735 79.1802C20.7033 79.1802 21.7815 80.2675 21.7815 81.6085Z" stroke="#E3B36F" stroke-opacity="0.5" stroke-linejoin="round"/>
<path fill-rule="evenodd" clip-rule="evenodd" d="M30.9866 68.5849C30.9866 69.7562 30.0449 70.7058 28.8834 70.7058C27.722 70.7058 26.7803 69.7562 26.7803 68.5849C26.7803 67.4135 27.722 66.4639 28.8834 66.4639C30.0449 66.4639 30.9866 67.4135 30.9866 68.5849Z" stroke="white" stroke-opacity="0.32" stroke-linejoin="round"/>
<path fill-rule="evenodd" clip-rule="evenodd" d="M36.0784 32.0375C36.0784 37.0666 34.0569 41.1438 31.5635 41.1438C29.0701 41.1438 27.0486 37.0666 27.0486 32.0375C27.0486 27.0084 29.0701 22.9312 31.5635 22.9312C34.0569 22.9312 36.0784 27.0084 36.0784 32.0375Z" stroke="white" stroke-opacity="0.32" stroke-linejoin="round"/>
<g filter="url(#filter2_d_75_4161)">
<path d="M40.5933 32.0375C40.5933 37.0666 36.5504 41.1438 31.5635 41.1438C26.5766 41.1438 22.5337 37.0666 22.5337 32.0375C22.5337 27.0084 26.5766 22.9312 31.5635 22.9312C36.5504 22.9312 40.5933 27.0084 40.5933 32.0375Z" fill="#1D1D1D"/>
</g>
<path d="M40.5933 32.0375C40.5933 37.0666 36.5504 41.1438 31.5635 41.1438C26.5766 41.1438 22.5337 37.0666 22.5337 32.0375C22.5337 27.0084 26.5766 22.9312 31.5635 22.9312C36.5504 22.9312 40.5933 27.0084 40.5933 32.0375Z" stroke="#F2F2F9" stroke-linecap="round" stroke-linejoin="round"/>
<path d="M40.5933 32.0375C40.5933 37.0666 36.5504 41.1438 31.5635 41.1438C26.5766 41.1438 22.5337 37.0666 22.5337 32.0375C22.5337 27.0084 26.5766 22.9312 31.5635 22.9312C36.5504 22.9312 40.5933 27.0084 40.5933 32.0375Z" stroke="white" stroke-width="0.5" stroke-linecap="round" stroke-linejoin="round"/>
<g filter="url(#filter3_d_75_4161)">
<path d="M49.1807 52.5488H82.29V37.3716H49.1807V52.5488Z" fill="#1D1D1D"/>
</g>
<path d="M49.1807 52.5488H82.29V37.3716H49.1807V52.5488Z" stroke="#F2F2F9" stroke-linecap="round" stroke-linejoin="round"/>
<path d="M49.1807 52.5488H82.29V37.3716H49.1807V52.5488Z" stroke="white" stroke-width="0.5" stroke-linecap="round" stroke-linejoin="round"/>
<path fill-rule="evenodd" clip-rule="evenodd" d="M76.27 49.5131C76.27 47.8363 77.6172 46.4776 79.2799 46.4776V43.4422C77.6172 43.4422 76.27 42.0835 76.27 40.4067H55.2004C55.2004 42.0835 53.8525 43.4422 52.1904 43.4422V46.4776C53.8525 46.4776 55.2004 47.8363 55.2004 49.5131H76.27Z" stroke="#E3B36F" stroke-opacity="0.5" stroke-linejoin="round"/>
<path fill-rule="evenodd" clip-rule="evenodd" d="M70.2503 44.9599C70.2503 47.4751 68.2288 49.5131 65.7354 49.5131C63.2419 49.5131 61.2205 47.4751 61.2205 44.9599C61.2205 42.4447 63.2419 40.4067 65.7354 40.4067C68.2288 40.4067 70.2503 42.4447 70.2503 44.9599Z" stroke="#E3B36F" stroke-opacity="0.5" stroke-linejoin="round"/>
<path fill-rule="evenodd" clip-rule="evenodd" d="M55.5239 19.8022C55.5239 22.5356 53.3269 24.7512 50.6165 24.7522C53.3269 24.7532 55.5239 26.9688 55.5239 29.7022C55.5239 26.9688 57.7199 24.7532 60.4313 24.7522C57.7199 24.7512 55.5239 22.5356 55.5239 19.8022Z" stroke="#E3B36F" stroke-linejoin="round"/>
<path d="M23.0476 29.002H40.0797" stroke="white" stroke-opacity="0.32" stroke-linejoin="round"/>
<path d="M23.0476 35.0728H40.0797" stroke="white" stroke-opacity="0.32" stroke-linejoin="round"/>
</g>
<defs>
<filter id="filter0_d_75_4161" x="12.6907" y="34.3159" width="87.7312" height="64.9985" filterUnits="userSpaceOnUse" color-interpolation-filters="sRGB">
<feFlood flood-opacity="0" result="BackgroundImageFix"/>
<feColorMatrix in="SourceAlpha" type="matrix" values="0 0 0 0 0 0 0 0 0 0 0 0 0 0 0 0 0 0 127 0" result="hardAlpha"/>
<feOffset/>
<feGaussianBlur stdDeviation="12"/>
<feComposite in2="hardAlpha" operator="out"/>
<feColorMatrix type="matrix" values="0 0 0 0 1 0 0 0 0 1 0 0 0 0 1 0 0 0 0.32 0"/>
<feBlend mode="normal" in2="BackgroundImageFix" result="effect1_dropShadow_75_4161"/>
<feBlend mode="normal" in="SourceGraphic" in2="effect1_dropShadow_75_4161" result="shape"/>
</filter>
<filter id="filter1_d_75_4161" x="0.650879" y="33.1021" width="60.0398" height="63.7842" filterUnits="userSpaceOnUse" color-interpolation-filters="sRGB">
<feFlood flood-opacity="0" result="BackgroundImageFix"/>
<feColorMatrix in="SourceAlpha" type="matrix" values="0 0 0 0 0 0 0 0 0 0 0 0 0 0 0 0 0 0 127 0" result="hardAlpha"/>
<feOffset/>
<feGaussianBlur stdDeviation="12"/>
<feComposite in2="hardAlpha" operator="out"/>
<feColorMatrix type="matrix" values="0 0 0 0 1 0 0 0 0 1 0 0 0 0 1 0 0 0 0.32 0"/>
<feBlend mode="normal" in2="BackgroundImageFix" result="effect1_dropShadow_75_4161"/>
<feBlend mode="normal" in="SourceGraphic" in2="effect1_dropShadow_75_4161" result="shape"/>
</filter>
<filter id="filter2_d_75_4161" x="-1.46631" y="-1.06885" width="66.0596" height="66.2124" filterUnits="userSpaceOnUse" color-interpolation-filters="sRGB">
<feFlood flood-opacity="0" result="BackgroundImageFix"/>
<feColorMatrix in="SourceAlpha" type="matrix" values="0 0 0 0 0 0 0 0 0 0 0 0 0 0 0 0 0 0 127 0" result="hardAlpha"/>
<feOffset/>
<feGaussianBlur stdDeviation="12"/>
<feComposite in2="hardAlpha" operator="out"/>
<feColorMatrix type="matrix" values="0 0 0 0 1 0 0 0 0 1 0 0 0 0 1 0 0 0 0.32 0"/>
<feBlend mode="normal" in2="BackgroundImageFix" result="effect1_dropShadow_75_4161"/>
<feBlend mode="normal" in="SourceGraphic" in2="effect1_dropShadow_75_4161" result="shape"/>
</filter>
<filter id="filter3_d_75_4161" x="25.1807" y="13.3716" width="81.1094" height="63.1772" filterUnits="userSpaceOnUse" color-interpolation-filters="sRGB">
<feFlood flood-opacity="0" result="BackgroundImageFix"/>
<feColorMatrix in="SourceAlpha" type="matrix" values="0 0 0 0 0 0 0 0 0 0 0 0 0 0 0 0 0 0 127 0" result="hardAlpha"/>
<feOffset/>
<feGaussianBlur stdDeviation="12"/>
<feComposite in2="hardAlpha" operator="out"/>
<feColorMatrix type="matrix" values="0 0 0 0 1 0 0 0 0 1 0 0 0 0 1 0 0 0 0.32 0"/>
<feBlend mode="normal" in2="BackgroundImageFix" result="effect1_dropShadow_75_4161"/>
<feBlend mode="normal" in="SourceGraphic" in2="effect1_dropShadow_75_4161" result="shape"/>
</filter>
<clipPath id="clip0_75_4161">
<rect width="106" height="97" fill="white" transform="translate(0 0.430664)"/>
</clipPath>
</defs>
</svg>
