<?xml version="1.0" encoding="utf-8"?>
<!-- Generator: Adobe Illustrator 16.0.0, SVG Export Plug-In . SVG Version: 6.00 Build 0)  -->
<!DOCTYPE svg PUBLIC "-//W3C//DTD SVG 1.1//EN" "http://www.w3.org/Graphics/SVG/1.1/DTD/svg11.dtd">
<svg version="1.1" id="Layer_1" xmlns="http://www.w3.org/2000/svg" xmlns:xlink="http://www.w3.org/1999/xlink" x="0px" y="0px"
	 width="120px" height="95px" viewBox="-20 -0.875 120 95" enable-background="new -20 -0.875 120 95" xml:space="preserve">
<path fill-rule="evenodd" clip-rule="evenodd" fill="#9B9B9B" d="M50.948,22.807c13.551,0,27.101-0.001,40.649,0
	c4.682,0,7.148,2.442,7.149,7.097c0.003,17.534,0.004,35.066,0.001,52.599c-0.001,4.124-2.609,6.714-6.749,6.721
	c-3.767,0.004-7.531,0.005-11.299-0.005c-1.85-0.004-2.521-0.627-2.654-2.418c-0.253-3.342-2.959-5.888-6.264-5.889
	c-3.303-0.003-6.028,2.551-6.275,5.877c-0.135,1.796-0.806,2.429-2.644,2.43c-8.226,0.007-16.45,0.002-24.676,0.002
	c-2.505,0-2.901-0.348-3.219-2.824c-0.366-2.851-2.66-5.15-5.445-5.459c-2.971-0.329-5.752,1.407-6.688,4.229
	c-0.216,0.648-0.298,1.347-0.394,2.028c-0.181,1.294-0.821,2.001-2.097,2.013c-3.766,0.031-7.537,0.113-11.298-0.031
	c-3.414-0.132-5.798-2.952-5.801-6.579c-0.008-13.16-0.004-26.321-0.004-39.48c0-4.546-0.006-9.091,0.003-13.637
	c0.008-4.024,2.642-6.665,6.665-6.667C23.589,22.804,37.269,22.809,50.948,22.807z M81.972,85.148c3.388,0,6.76,0.007,10.13-0.002
	c1.835-0.006,2.572-0.756,2.572-2.618c0.005-17.701,0.005-35.401,0.001-53.101c-0.001-1.774-0.755-2.543-2.517-2.544
	c-27.437-0.005-54.875-0.005-82.312-0.001c-1.773,0.001-2.529,0.758-2.529,2.53c-0.007,17.744-0.007,35.487-0.002,53.23
	c0.001,1.743,0.78,2.497,2.558,2.505c2.51,0.013,5.021-0.03,7.53,0.022c0.865,0.019,1.252-0.201,1.538-1.098
	c1.374-4.322,5.334-7.204,9.747-7.228c4.505-0.025,8.443,2.811,9.874,7.218c0.278,0.856,0.643,1.113,1.527,1.107
	c6.794-0.039,13.589-0.042,20.383,0.003c0.918,0.007,1.232-0.31,1.497-1.141c1.369-4.284,5.355-7.178,9.774-7.19
	c4.432-0.014,8.403,2.859,9.841,7.122C81.708,84.33,81.825,84.697,81.972,85.148z"/>
<path fill-rule="evenodd" clip-rule="evenodd" fill="#9B9B9B" d="M40.613,12.417c13.72,0,27.439-0.007,41.159,0.003
	c3.398,0.002,5.87,2.007,6.484,5.193c0.3,1.554-0.295,2.699-1.543,2.977c-1.22,0.271-2.141-0.556-2.437-2.191
	c-0.241-1.333-1.014-1.908-2.626-1.908c-11.513-0.004-23.024-0.004-34.537-0.004c-15.709,0-31.42,0-47.131,0.001
	c-2.473,0-3.061,0.586-3.062,3.044c-0.001,17.484-0.001,34.97,0,52.454c0,1.905,0.438,2.431,2.292,2.79
	c1.209,0.235,1.994,1.208,1.836,2.278c-0.161,1.101-1.124,1.821-2.353,1.764c-3.269-0.153-5.831-2.943-5.84-6.438
	c-0.02-7.66-0.008-15.321-0.008-22.981c0-10.04-0.001-20.081,0.003-30.122c0.001-4.279,2.582-6.859,6.862-6.859
	C13.348,12.417,26.981,12.418,40.613,12.417z"/>
<path fill-rule="evenodd" clip-rule="evenodd" fill="#9B9B9B" d="M30.238,2.027C43.957,2.026,57.677,2.021,71.396,2.03
	c3.391,0.002,5.865,2.02,6.474,5.208c0.294,1.55-0.313,2.684-1.56,2.971c-0.921,0.21-2.385-0.54-2.457-2.214
	c-0.055-1.216-0.936-1.87-2.219-1.886c-2.078-0.028-4.155-0.011-6.232-0.011c-25.231,0-50.462,0-75.694,0
	c-2.639,0-3.177,0.541-3.177,3.189c0,17.354,0,34.709,0,52.065c0,2.22,0.261,2.546,2.437,3.056c1.107,0.258,1.849,1.255,1.691,2.271
	c-0.17,1.098-1.137,1.813-2.367,1.749c-3.271-0.167-5.816-2.954-5.826-6.451c-0.018-7.66-0.007-15.321-0.007-22.981
	c0-10.041-0.001-20.082,0.002-30.123c0.002-4.27,2.587-6.844,6.877-6.845C2.972,2.026,16.605,2.027,30.238,2.027z"/>
<path fill-rule="evenodd" clip-rule="evenodd" fill="#9B9B9B" d="M33.608,62.883c1.145-1.086,2.097-1.895,2.938-2.811
	c0.935-1.017,1.966-1.25,3.273-0.868c1.615,0.471,3.266,0.821,4.9,1.227c2.786,0.691,3.751,1.714,4.119,4.585
	c0.177,1.369,0.218,2.761,0.231,4.143c0.018,1.434-0.83,2.383-2.006,2.39c-1.196,0.008-1.973-0.913-2.032-2.354
	c-0.05-1.209-0.052-2.432-0.256-3.614c-0.081-0.46-0.659-0.833-1.015-1.242c-0.022-0.024-0.082-0.017-0.125-0.025
	c-1.471-0.338-3.078-1.201-4.374-0.864c-1.293,0.338-2.291,1.857-3.386,2.891c-1.79,1.691-2.717,1.827-4.274-0.127
	c-1.959-2.46-4.007-3.263-7.061-2.025c-2.297,0.933-2.417,0.67-2.75,3.134c-0.109,0.812-0.118,1.637-0.177,2.455
	c-0.083,1.174-0.762,1.818-1.879,1.96c-1.037,0.132-2.079-0.704-2.109-1.846c-0.061-2.338,0.103-4.671,1.13-6.84
	c0.551-1.163,1.468-1.899,2.726-2.209c2.305-0.566,4.619-1.11,6.912-1.725c1.005-0.271,1.788-0.017,2.457,0.708
	C31.755,60.807,32.639,61.807,33.608,62.883z"/>
<path fill-rule="evenodd" clip-rule="evenodd" fill="#9B9B9B" d="M25.464,45.77c-0.375-4.953,2.492-8.228,7.354-8.403
	c5.07-0.183,8.519,2.957,8.5,7.836c-0.013,3.033-0.647,5.92-2.416,8.474c-3.791,5.466-9.215,3.6-11.521-0.847
	c-1.106-2.135-1.547-4.617-2.289-6.941C25.217,45.848,25.341,45.81,25.464,45.77z M37.264,46.006
	c0.019-2.854-0.725-4.043-2.727-4.416c-0.982-0.183-2.097-0.16-3.041,0.129c-0.673,0.205-1.403,0.905-1.692,1.565
	c-1.027,2.345,0.267,7.306,2.197,8.999c1.064,0.934,1.938,0.891,2.919-0.13C36.716,50.287,37.125,47.937,37.264,46.006z"/>
<path fill-rule="evenodd" clip-rule="evenodd" fill="#9B9B9B" d="M70.743,68.44c-3.63-0.001-7.262,0.006-10.893-0.004
	c-1.622-0.004-2.608-0.825-2.566-2.09c0.041-1.219,0.988-1.973,2.555-1.974c7.261-0.008,14.522-0.008,21.785-0.001
	c1.618,0.001,2.609,0.828,2.567,2.093c-0.041,1.216-0.999,1.97-2.557,1.975C78.005,68.447,74.373,68.441,70.743,68.44z"/>
<path fill-rule="evenodd" clip-rule="evenodd" fill="#9B9B9B" d="M70.606,47.659c-3.588-0.001-7.176,0.005-10.763-0.003
	c-1.568-0.005-2.518-0.751-2.56-1.969c-0.045-1.267,0.942-2.094,2.563-2.096c7.262-0.008,14.523-0.008,21.784-0.001
	c1.615,0.001,2.606,0.837,2.561,2.101c-0.045,1.216-1.002,1.963-2.563,1.967C77.954,47.666,74.28,47.66,70.606,47.659z"/>
<path fill-rule="evenodd" clip-rule="evenodd" fill="#9B9B9B" d="M70.833,53.978c3.545,0,7.09-0.003,10.634,0.001
	c1.746,0.003,2.747,0.771,2.725,2.068c-0.022,1.253-1.004,2.002-2.659,2.002c-7.175,0.003-14.35,0.001-21.525,0.001
	c-0.086,0-0.173,0-0.259-0.001c-1.523-0.033-2.487-0.839-2.464-2.066c0.023-1.225,0.973-1.995,2.526-2
	C63.485,53.971,67.159,53.979,70.833,53.978z"/>
</svg>
