<?xml version="1.0" encoding="utf-8"?>
<!-- Generator: Adobe Illustrator 16.0.0, SVG Export Plug-In . SVG Version: 6.00 Build 0)  -->
<!DOCTYPE svg PUBLIC "-//W3C//DTD SVG 1.1//EN" "http://www.w3.org/Graphics/SVG/1.1/DTD/svg11.dtd">
<svg version="1.1" id="Layer_1" xmlns="http://www.w3.org/2000/svg" xmlns:xlink="http://www.w3.org/1999/xlink" x="0px" y="0px"
	 width="124px" height="124px" viewBox="0 0 124 124" enable-background="new 0 0 124 124" xml:space="preserve">
<circle id="Ellipse_4" fill="#F7931E" cx="62.379" cy="62.879" r="52.061"/>
<g id="Group_2" transform="translate(119.667 43.474)">
	<path id="Path_14" fill="#FFFFFF" d="M-41.824,23.514c-1.837,3.273-6.684,8.145-12.508,8.145
		c-5.956,0.068-10.843-4.7-10.915-10.656c-0.002-0.155,0-0.313,0.005-0.469c0-7.504,4.18-12.181,10.91-12.181
		c7.007,0,12.602,8.254,12.649,8.343l1.3,1.95L-22.09,1.358l-0.987-1.396c-4.983-7.593-12.565-13.104-21.326-15.492v-11.965h-3.943
		v13.589v1.751l1.754,0.199c0.107,0,10.446,1.317,19.276,12.803l-12.49,11.802c-2.418-2.926-7.754-8.257-14.53-8.257
		c-8.885,0-14.856,6.479-14.856,16.124c-0.076,4.18,1.609,8.201,4.641,11.078c2.787,2.562,6.43,3.983,10.215,3.988
		c5.844-0.332,11.213-3.313,14.59-8.096l12.508,11.599c-4.828,6.728-11.829,11.585-19.822,13.759l-1.437,0.406v13.035h3.943V56.207
		c8.984-2.669,16.675-8.551,21.596-16.524l0.708-1.339L-40.612,21.33L-41.824,23.514z"/>
	<path id="Path_15" fill="#FFFFFF" d="M-33.171,40.952l1.183-1.417l-6.542-6.272l-1.535-1.462l-1.354,1.633
		c-3.37,3.487-8.066,5.374-12.908,5.193c-8.757,0-18.166-5.531-18.166-17.678c0-12.847,9.006-19.571,17.917-19.571
		c9.332,0,13.118,5.202,13.261,5.409l1.378,2.001l8.442-8.876l-1.251-1.357c-5.169-4.762-11.823-7.595-18.84-8.018v-18.032h-3.943
		v17.821c-1.064,0-2.167,0.021-3.31,0.093v-17.914h-3.941V-5.23l2.186-0.251c12.952-1.417,20.618,3.18,23.568,5.482l-2.628,2.774
		c-4.1-3.639-9.444-5.555-14.922-5.35c-4.061-0.004-8.045,1.123-11.505,3.253v-28.173h-3.942v14.034
		c-3.834,1.516-7.394,3.65-10.537,6.317c-7.806,6.605-12.192,16.398-11.925,26.623c-0.131,10.445,4.176,20.452,11.849,27.541
		c3.144,2.947,6.721,5.395,10.607,7.257v12.005h3.942V39.55c3.602,1.979,7.647,3.009,11.759,2.999
		c5.277,0.094,10.412-1.729,14.448-5.135l2.423,2.32c-8.257,7.843-22.954,5.609-23.107,5.585l-2.282-0.366v21.328h3.941V49.468
		c0.88,0.067,1.982,0.128,3.238,0.128v16.686h3.943V49.454C-44.658,49.185-37.988,46.127-33.171,40.952z M-70.028,36.697v4.778
		c-4.003-1.944-11.477-7.398-11.477-21.012c-0.327-6.849,2.2-13.523,6.976-18.442c1.349-1.321,2.862-2.463,4.503-3.396v5.23
		c-4.327,4.62-6.633,10.774-6.406,17.098c-0.205,5.922,2.126,11.644,6.406,15.737L-70.028,36.697z M-88.54,19.486
		c-0.292-9.017,3.544-17.676,10.418-23.515c2.447-2.084,5.171-3.813,8.099-5.139v3.382c-2.629,1.199-5.033,2.842-7.108,4.854
		c-5.637,5.662-8.649,13.423-8.31,21.406c0,11.092,4.548,17.512,8.362,20.923c2.073,1.866,4.464,3.342,7.058,4.358v4.104
		c-11.356-5.883-18.497-17.594-18.525-30.38L-88.54,19.486z"/>
</g>
</svg>
