<?xml version="1.0" encoding="utf-8"?>
<!-- Generator: Adobe Illustrator 16.0.0, SVG Export Plug-In . SVG Version: 6.00 Build 0)  -->
<!DOCTYPE svg PUBLIC "-//W3C//DTD SVG 1.1//EN" "http://www.w3.org/Graphics/SVG/1.1/DTD/svg11.dtd">
<svg version="1.1" id="Layer_1" xmlns="http://www.w3.org/2000/svg" xmlns:xlink="http://www.w3.org/1999/xlink" x="0px" y="0px"
	 width="350px" height="350px" viewBox="0 0 350 350" enable-background="new 0 0 350 350" xml:space="preserve">
<path fill="#F7841E" d="M177.542,212.168c41.624,0,83.252,0.297,124.871-0.136c18.569-0.192,34.881,14.358,34.494,34.563
	c-0.351,18.055-0.065,36.117-0.074,54.184c-0.01,19.691-14.302,34.059-33.918,34.061c-83.665,0.008-167.33,0.006-250.994,0
	c-19.647-0.002-33.933-14.34-33.94-34.027c-0.006-18.269-0.009-36.537,0.001-54.807c0.011-19.55,14.235-33.826,33.752-33.834
	C93.67,212.157,135.605,212.168,177.542,212.168z M177.736,232.648c-41.625,0-83.245-0.006-124.867,0.004
	c-9.646,0.002-14.403,4.707-14.411,14.246c-0.016,17.959-0.016,35.916,0.001,53.871c0.008,8.412,5.165,13.586,13.58,13.586
	c83.452,0.012,166.904,0.012,250.355,0.002c8.882,0,13.939-5.027,13.949-13.854c0.021-18.063,0.021-36.122,0.001-54.183
	c-0.007-8.646-5.067-13.678-13.745-13.68C260.979,232.646,219.357,232.648,177.736,232.648z"/>
<path fill="#F7841E" d="M224.488,44.201c-5.94,3.239-11.723,6.394-17.713,9.661c-5.312-8.741-12.672-14.574-22.67-16.7
	c-7.363-1.565-14.464-0.577-21.208,2.7c-13.24,6.432-21.093,21.575-18.284,35.664c32.966,0,66.017,0,99.222,0
	c0,34.299,0,68.185,0,102.242c-44.335,0-88.498,0-132.848,0c0-34.021,0-67.91,0-102.25c2.66,0,5.217,0.022,7.773-0.006
	c5.579-0.062,4.878,0.549,4.881-4.76c0.014-17.875,6.943-32.482,20.968-43.495c24.941-19.584,61.882-12.8,78.438,14.24
	C223.525,42.274,223.909,43.108,224.488,44.201z M131.519,96.209c0,20.456,0,40.718,0,60.957c30.756,0,61.29,0,91.76,0
	c0-20.464,0-40.65,0-60.957C192.59,96.209,162.133,96.209,131.519,96.209z"/>
<path fill="#F7841E" d="M182.238,288.661c-1.754,2.358-3.199,4.38-4.723,6.341c-2.942,3.787-7.625,4.52-11.282,1.807
	c-3.497-2.599-4.141-7.334-1.478-11.139c1.28-1.829,2.628-3.611,4.173-5.729c-1.854-0.506-3.443-0.922-5.022-1.375
	c-4.602-1.32-7.144-5.469-5.983-9.743c1.192-4.392,5.229-6.677,9.948-5.585c2.011,0.464,3.998,1.027,6.612,1.703
	c0-2.861-0.235-5.41,0.056-7.899c0.424-3.61,3.456-6.19,7.045-6.437c3.697-0.254,6.985,1.774,8.065,5.175
	c0.384,1.194,0.429,2.521,0.484,3.794c0.078,1.654,0.021,3.314,0.021,5.351c2.3-0.61,4.197-1.146,6.111-1.626
	c4.935-1.232,9.166,1.098,10.318,5.658c1.107,4.375-1.511,8.334-6.396,9.68c-1.44,0.397-2.879,0.82-4.621,1.32
	c1.438,1.971,2.711,3.689,3.947,5.432c2.885,4.055,2.293,8.82-1.41,11.498c-3.732,2.698-8.377,1.813-11.396-2.188
	C185.283,292.791,183.873,290.865,182.238,288.661z"/>
<path fill="#F7841E" d="M94.314,264.938c2.221-0.604,4.058-1.125,5.909-1.602c4.865-1.252,9.197,0.92,10.413,5.199
	c1.31,4.607-1.257,8.691-6.367,10.124c-1.372,0.384-2.742,0.776-4.568,1.295c1.379,1.887,2.584,3.53,3.783,5.178
	c3.035,4.168,2.552,8.976-1.174,11.726c-3.738,2.765-8.411,1.828-11.547-2.315c-1.401-1.854-2.768-3.729-4.384-5.914
	c-1.516,2.058-2.904,3.955-4.314,5.838c-3.149,4.205-7.759,5.183-11.527,2.45c-3.827-2.771-4.302-7.604-1.176-11.9
	c1.16-1.6,2.311-3.199,3.681-5.104c-1.961-0.521-3.566-0.928-5.153-1.391c-4.544-1.316-6.958-5.467-5.77-9.858
	c1.132-4.188,5.312-6.521,9.832-5.438c2.086,0.493,4.154,1.063,6.53,1.678c0-2.396-0.04-4.465,0.009-6.539
	c0.102-4.371,3.325-7.646,7.581-7.758c4.427-0.115,7.938,2.977,8.218,7.387C94.427,260.134,94.314,262.302,94.314,264.938z"/>
<path fill="#F7841E" d="M270.096,288.661c-1.6,2.146-3.059,4.139-4.553,6.106c-2.995,3.94-7.786,4.803-11.412,2.063
	c-3.641-2.744-4.158-7.508-1.247-11.545c1.208-1.678,2.443-3.333,3.896-5.313c-1.825-0.521-3.326-0.957-4.834-1.385
	c-4.781-1.354-7.262-5.318-6.146-9.857c1.06-4.313,5.421-6.637,10.252-5.438c1.933,0.479,3.851,1.013,6.123,1.61
	c0-2.27-0.026-4.244,0.009-6.223c0.082-4.777,3.41-8.129,8.016-8.095c4.473,0.033,7.729,3.369,7.813,8.031
	c0.033,1.979,0.008,3.969,0.008,6.288c2.112-0.559,3.881-1.021,5.646-1.485c5.187-1.362,9.587,0.808,10.728,5.288
	c1.192,4.702-1.334,8.542-6.561,9.979c-1.311,0.357-2.605,0.742-4.354,1.242c1.457,2.021,2.813,3.846,4.104,5.711
	c2.175,3.141,2.176,6.859,0.053,9.637c-3.156,4.129-9.174,4.199-12.494,0.08C273.424,293.246,271.857,291.018,270.096,288.661z"/>
<path fill="#F7841E" d="M167.368,126.655c0-2.484-0.244-5,0.051-7.449c0.598-4.957,4.864-8.497,9.903-8.54
	c5.001-0.041,9.592,3.456,10.013,8.384c0.429,5.039,0.411,10.164,0.021,15.207c-0.381,4.919-4.957,8.573-9.875,8.611
	c-5.038,0.039-9.505-3.712-10.084-8.761c-0.282-2.454-0.048-4.965-0.048-7.452C167.352,126.655,167.36,126.655,167.368,126.655z"/>
</svg>
