<?xml version="1.0" encoding="utf-8"?>
<!-- Generator: Adobe Illustrator 16.0.0, SVG Export Plug-In . SVG Version: 6.00 Build 0)  -->
<!DOCTYPE svg PUBLIC "-//W3C//DTD SVG 1.1//EN" "http://www.w3.org/Graphics/SVG/1.1/DTD/svg11.dtd">
<svg version="1.1" id="Layer_1" xmlns="http://www.w3.org/2000/svg" xmlns:xlink="http://www.w3.org/1999/xlink" x="0px" y="0px"
	 width="90.532px" height="31.645px" viewBox="0 0 90.532 31.645" enable-background="new 0 0 90.532 31.645" xml:space="preserve">
<path id="Line_1" fill="none" stroke="#2DC6EA" stroke-width="2" stroke-linecap="round" d="M1.263,16.271
	c0,0,1.778-5.391,3.557-5.391C6.599,10.881,6.599,1,8.377,1s1.779,19.764,3.557,19.764s1.779-2.695,3.557-2.695
	c1.778,0,1.778,2.695,3.557,2.695c1.779,0,1.778-13.476,3.557-13.476c2.668,0,2.668,8.982,4.446,8.982
	c1.778,0,1.779-8.982,3.557-8.982c1.778,0,1.779,23.355,3.557,23.355s1.778-7.187,3.557-7.187c1.779,0,1.779-4.492,3.557-4.492
	c1.778,0,1.778,8.983,3.557,8.983c2.668,0,2.668-23.356,4.446-23.356c1.778,0,1.779,25.153,3.557,25.153
	c1.779,0,1.779-23.355,3.559-23.355s1.777,9.881,3.559,9.881c1.776,0,1.777-5.391,3.557-5.391c1.777,0,1.777,1.801,3.557,1.801
	c2.668,0,2.668-0.899,4.446-0.899s1.778-2.695,3.558-2.695c1.778,0,1.777,14.373,3.557,14.373c1.781,0,1.779-20.661,3.558-20.661
	s1.776,14.373,3.558,14.373c1.779,0,3.557-6.288,3.557-6.288"/>
</svg>
