<?xml version="1.0" encoding="utf-8"?>
<!-- Generator: Adobe Illustrator 25.3.0, SVG Export Plug-In . SVG Version: 6.00 Build 0)  -->
<svg version="1.1" id="Layer_1" xmlns="http://www.w3.org/2000/svg" xmlns:xlink="http://www.w3.org/1999/xlink" x="0px" y="0px"
	 viewBox="0 0 350 350" style="enable-background:new 0 0 350 350;" xml:space="preserve">
<style type="text/css">
	.st0{fill:#f8be49;}
</style>
<path class="st0" d="M179.3,288.8c-37.9,0-75.7,0-113.6,0c-20.4,0-32.9-12.5-32.9-32.9c0-50.6,0-101.1,0-151.7
	c0-19.9,12.6-32.6,32.4-32.6c75,0,149.9,0,224.9,0c19.6,0,32.3,12.7,32.3,32.4c0,51.9,0,103.9,0,155.8c0,18.1-10.8,28.9-28.8,28.9
	C255.5,288.8,217.4,288.8,179.3,288.8z M44.9,97.7c-0.1,2.3-0.2,3.8-0.2,5.2c0,14.2,0,28.4,0,42.6c0,37.4,0,74.7,0,112.1
	c0,4.7,1,8.9,4.3,12.5c1-0.7,1.8-1.3,2.6-1.9c25.9-20.6,51.8-41.2,77.7-61.7c3-2.4,5.8-4.8,8.9-7c2.8-2,5.5-1.4,7.7,1.1
	c2.1,2.3,1.9,5.4-0.4,7.8c-1,1-2.1,1.8-3.2,2.7c-26.1,20.7-52.2,41.5-78.3,62.2c-1.1,0.9-2.2,1.9-3.7,3.1c80.1,0,159.4,0,239.7,0
	c-1.7-1.4-2.6-2.2-3.6-2.9c-20.8-15.6-41.6-31.2-62.5-46.9c-7.7-5.8-15.5-11.6-23.2-17.5c-3.1-2.3-3.6-5.5-1.6-8.3
	c2-2.9,5.3-3.3,8.6-1.1c0.6,0.4,1.2,0.9,1.8,1.4c28.8,21.6,57.6,43.1,86.3,64.7c1.1,0.8,2.2,1.5,3.4,2.3c1.6-4.1,2-165.9,0.5-170.1
	c-1.2,1-2.4,1.9-3.5,2.9c-40.8,35.3-81.7,70.5-122.5,105.8c-5.2,4.5-6.8,4.5-11.9,0.1c-41-35.4-82.1-70.9-123.1-106.3
	C47.6,99.9,46.6,99.1,44.9,97.7z M303.7,87.7c-3.9-3.4-8-4.2-12.5-4.2c-46.4,0-92.8,0-139.2,0c-29.4,0-58.8,0-88.3,0
	c-4.5,0-8.6,0.9-12.2,4.3c42.2,36.4,84.1,72.6,126.1,108.9C219.8,160.2,261.6,124.1,303.7,87.7z"/>
</svg>
