<?xml version="1.0" encoding="utf-8"?>
<!-- Generator: Adobe Illustrator 16.0.0, SVG Export Plug-In . SVG Version: 6.00 Build 0)  -->
<!DOCTYPE svg PUBLIC "-//W3C//DTD SVG 1.1//EN" "http://www.w3.org/Graphics/SVG/1.1/DTD/svg11.dtd">
<svg version="1.1" id="Layer_1" xmlns="http://www.w3.org/2000/svg" xmlns:xlink="http://www.w3.org/1999/xlink" x="0px" y="0px"
	 width="100px" height="100px" viewBox="0 0 100 100" enable-background="new 0 0 100 100" xml:space="preserve">
<circle id="Ellipse_4" fill="#F7931E" cx="50.635" cy="51.134" r="47.837"/>
<g id="Group_2" transform="translate(119.667 43.474)">
	<path id="Path_14" fill="#FFFFFF" d="M-54.823,11.437c-1.688,3.007-6.142,7.483-11.493,7.483
		c-5.473,0.063-9.964-4.319-10.029-9.792c-0.002-0.143,0-0.287,0.004-0.431c0-6.896,3.84-11.193,10.025-11.193
		c6.438,0,11.579,7.584,11.623,7.666l1.194,1.792l16.81-15.886l-0.907-1.282c-4.58-6.977-11.546-12.041-19.597-14.235v-10.994
		h-3.623v12.486v1.61l1.611,0.183c0.099,0,9.599,1.21,17.713,11.764L-52.97,1.453c-2.221-2.688-7.124-7.587-13.352-7.587
		c-8.164,0-13.65,5.954-13.65,14.816c-0.069,3.841,1.479,7.536,4.264,10.18c2.561,2.354,5.909,3.66,9.386,3.665
		c5.37-0.306,10.304-3.045,13.407-7.438l11.492,10.657c-4.437,6.182-10.869,10.646-18.214,12.643l-1.319,0.373v11.978h3.623v-9.262
		c8.256-2.452,15.322-7.856,19.844-15.183l0.65-1.23L-53.709,9.429L-54.823,11.437z"/>
	<path id="Path_15" fill="#FFFFFF" d="M-46.871,27.46l1.086-1.302l-6.012-5.764l-1.41-1.344l-1.244,1.5
		c-3.096,3.204-7.411,4.938-11.86,4.771c-8.047,0-16.692-5.081-16.692-16.243c0-11.804,8.275-17.983,16.463-17.983
		c8.575,0,12.054,4.781,12.186,4.971l1.266,1.839l7.758-8.156l-1.149-1.247c-4.75-4.375-10.864-6.979-17.312-7.367v-16.569h-3.624
		v16.375c-0.978,0-1.991,0.02-3.041,0.086v-16.46h-3.622v20.458l2.009-0.23c11.901-1.303,18.945,2.922,21.656,5.038l-2.414,2.549
		c-3.768-3.344-8.679-5.105-13.712-4.916c-3.73-0.003-7.392,1.032-10.571,2.989v-25.888h-3.622v12.895
		c-3.523,1.394-6.793,3.354-9.683,5.805c-7.172,6.069-11.203,15.067-10.957,24.462c-0.121,9.598,3.837,18.793,10.888,25.307
		c2.888,2.708,6.175,4.958,9.747,6.669v11.03h3.623V26.172c3.309,1.818,7.026,2.766,10.805,2.756
		c4.849,0.086,9.567-1.59,13.275-4.718l2.228,2.132c-7.587,7.206-21.092,5.154-21.233,5.132l-2.097-0.336v19.597h3.622V35.285
		c0.809,0.063,1.821,0.117,2.975,0.117v15.332h3.623V35.271C-57.427,35.025-51.299,32.214-46.871,27.46z M-80.739,23.549v4.391
		c-3.678-1.786-10.545-6.798-10.545-19.307c-0.3-6.293,2.021-12.426,6.41-16.946c1.239-1.214,2.629-2.263,4.138-3.121v4.806
		c-3.976,4.245-6.095,9.9-5.887,15.711c-0.188,5.441,1.954,10.698,5.887,14.461L-80.739,23.549z M-97.75,7.735
		c-0.268-8.285,3.257-16.242,9.574-21.607c2.248-1.915,4.751-3.504,7.441-4.722v3.107c-2.416,1.102-4.625,2.611-6.531,4.46
		c-5.18,5.203-7.948,12.334-7.636,19.67c0,10.192,4.179,16.091,7.684,19.226c1.905,1.715,4.102,3.07,6.485,4.004v3.771
		c-10.435-5.406-16.996-16.167-17.022-27.916L-97.75,7.735z"/>
</g>
</svg>
