<?xml version="1.0" encoding="utf-8"?>
<!-- Generator: Adobe Illustrator 16.0.0, SVG Export Plug-In . SVG Version: 6.00 Build 0)  -->
<!DOCTYPE svg PUBLIC "-//W3C//DTD SVG 1.1//EN" "http://www.w3.org/Graphics/SVG/1.1/DTD/svg11.dtd">
<svg version="1.1" id="Layer_1" xmlns="http://www.w3.org/2000/svg" xmlns:xlink="http://www.w3.org/1999/xlink" x="0px" y="0px"
	 width="80px" height="70px" viewBox="20 12.5 80 70" enable-background="new 20 12.5 80 70" xml:space="preserve">
<g>
	<path fill="#3B4551" d="M52.914,49.894c0.257,2.024,0.544,3.93,0.725,5.848c0.393,4.307,0.136,8.537-1.314,12.662
		c-0.741,2.13-0.982,4.352-0.892,6.618c0.045,1.178,0.045,2.372-0.106,3.535c-0.182,1.391-1.164,2.115-2.568,2.115
		c-4.608,0-9.217,0-13.825,0c-1.602,0-2.629-1.027-2.644-2.645c-0.015-1.661-0.045-3.324,0-4.985
		c0.061-2.161-0.664-4.154-1.163-6.211c-1.314-5.362-2.644-10.728-4.034-16.076c-0.529-2.04-0.151-3.989,0.272-5.968
		c1.209-5.726,3.46-11.074,6.12-16.242c0.695-1.36,1.074-2.705,0.998-4.245c-0.076-1.632-0.061-3.278,0.044-4.911
		c0.197-3.113,2.312-5.046,5.455-5.061c4.729,0,9.473,0,14.202,0c11.105,0,22.21,0,33.315,0c2.978,0,4.97,1.617,5.575,4.487
		c0.06,0.272,0.076,0.544,0.076,0.816c0,8.28,0,16.575,0,24.855c0,2.9-2.176,5.197-5.063,5.364c-0.348,0.015-0.709,0.03-1.057,0.03
		c-11.074,0-22.164,0-33.24,0C53.487,49.894,53.2,49.894,52.914,49.894z M54.153,47.174c0.031-0.12,0.046-0.227,0.061-0.317
		c0.242-2.613,1.632-4.412,3.944-5.575c1.375-0.695,2.705-1.466,4.034-2.221c0.981-0.544,1.148-1.254,0.528-2.191
		c-0.573-0.891-1.177-1.753-1.753-2.644c-1.026-1.571-1.676-3.294-1.178-5.152c0.408-1.556,0.482-3.098,0.469-4.684
		c0-2.146,0.967-3.703,2.9-4.639c3.067-1.495,6.12-1.419,9.157,0.091c1.39,0.696,2.311,1.798,2.537,3.354
		c0.137,0.937,0.106,1.904,0.151,2.856c0.031,0.499-0.091,1.073,0.121,1.496c0.559,1.178,0.423,2.417,0.378,3.626
		c-0.015,0.574-0.197,1.193-0.484,1.692c-0.724,1.284-1.556,2.523-2.356,3.777c-0.74,1.164-0.574,1.844,0.635,2.523
		c1.603,0.907,3.219,1.783,4.805,2.689c1.527,0.877,2.434,2.221,2.795,3.943c0.091,0.454,0.137,0.938,0.213,1.375
		c2.401,0,4.744,0.046,7.07-0.015c1.27-0.031,2.191-1.089,2.266-2.402c0.046-0.756,0.046-1.511,0.031-2.267
		c-0.015-1.104-0.137-1.224-1.224-1.42c-1.964-0.363-3.099-1.481-3.128-3.399c-0.076-3.733-0.076-7.449,0-11.181
		c0.029-1.844,1.073-2.932,2.824-3.339c0.227-0.046,0.439-0.076,0.665-0.121c0.543-0.105,0.846-0.408,0.831-0.982
		c0-0.649,0.031-1.314,0.015-1.963c-0.06-2.267-0.997-3.159-3.293-3.159c-13.825,0-27.65,0-41.475,0c-0.272,0-0.544,0-0.847,0
		c0,4.411,0,8.733,0,13.1c0.348-0.121,0.665-0.242,0.999-0.348c1.103-0.362,2.175-0.302,3.248,0.152
		c2.403,1.028,3.385,2.947,3.399,5.454c0.016,3.672,0,7.358,0,11.029c0,0.273,0,0.545,0,0.848
		C53.08,47.174,53.579,47.174,54.153,47.174z M34.466,32.851c-0.182,0.227-0.242,0.272-0.257,0.333
		c-1.737,3.792-3.278,7.675-4.201,11.754c-0.408,1.798-0.801,3.565-0.302,5.424c1.269,4.698,2.479,9.429,3.703,14.142
		c0.756,2.975,1.511,5.952,1.465,9.051c-0.015,1.449,0,2.899,0,4.352c4.714,0,9.277,0,13.871,0c0-1.179-0.015-2.313,0-3.444
		c0.016-2.011,0.03-4.05,0.741-5.953c1.783-4.744,1.995-9.611,1.285-14.564c-0.423-2.962-1.013-5.894-0.967-8.915
		c0.046-3.203,0.03-6.392,0.03-9.594c0-0.333,0.015-0.665-0.046-0.982c-0.181-1.103-0.77-1.904-1.873-2.251
		c-0.937-0.287-1.828-0.045-2.371,0.71c-0.394,0.544-0.681,1.314-0.696,1.994c-0.06,4.307-0.03,8.612-0.03,12.918
		c0,0.757-0.03,1.512-0.136,2.252c-0.499,3.566-4.985,5.424-7.888,3.278c-1.692-1.255-2.326-2.961-2.326-4.985
		c0-4.835,0-9.67,0-14.505C34.466,33.606,34.466,33.32,34.466,32.851z M78.357,47.174c-0.03-1.511-0.726-2.538-1.964-3.233
		c-1.542-0.861-3.081-1.708-4.624-2.554c-2.402-1.314-2.976-3.928-1.39-6.149c0.694-0.983,1.375-1.979,2.01-3.006
		c0.573-0.937,0.664-1.964,0.394-3.052c-0.227-0.862-0.379-1.753-0.455-2.645c-0.074-0.741,0-1.51,0-2.266
		c0-0.892-0.392-1.526-1.163-1.964c-1.859-1.058-3.777-1.27-5.815-0.574c-2.025,0.681-2.494,1.36-2.434,3.49
		c0.045,1.436,0.076,2.856-0.438,4.246c-0.303,0.786-0.197,1.662,0.258,2.402c0.725,1.209,1.494,2.388,2.266,3.566
		c1.466,2.25,0.77,4.774-1.617,6.029c-1.588,0.831-3.143,1.707-4.685,2.599c-1.148,0.68-1.828,1.662-1.782,3.111
		C64.079,47.174,71.165,47.174,78.357,47.174z M42.08,47.325c0-10.183,0-20.23,0-30.369c-0.544,0-1.042,0.015-1.526,0
		c-2.388-0.045-3.444,0.982-3.444,3.339c0,7.675,0,15.35,0,23.025c0,0.499-0.015,1.013,0.03,1.511
		c0.122,1.285,0.861,2.146,2.025,2.281C40.101,47.22,41.053,47.249,42.08,47.325z M90.385,38.502c0-4.276,0-8.522,0-12.752
		c-1.284-0.091-1.617,0.105-1.633,1.27c-0.044,3.323-0.044,6.632-0.015,9.957C88.752,38.291,88.843,38.335,90.385,38.502z
		 M37.292,49.546c0.06,1.286,1.389,2.116,2.387,2.101c1.103-0.015,2.069-0.785,2.16-1.647
		C40.328,49.863,38.832,49.698,37.292,49.546z"/>
</g>
</svg>
