<svg width="22" height="22" viewBox="0 0 22 22" fill="none" xmlns="http://www.w3.org/2000/svg">
<g id="Group 5424">
<g id="Group">
<path id="Vector" fill-rule="evenodd" clip-rule="evenodd" d="M16.1756 21.0231C16.0368 21.0231 15.9238 20.9101 15.9238 20.7713V17.4873C15.9238 17.3485 16.0368 17.2345 16.1756 17.2345C16.3145 17.2345 16.4274 17.3465 16.4274 17.4854V20.7713C16.4274 20.9101 16.3144 21.0231 16.1756 21.0231Z" fill="black"/>
<path id="Vector_2" fill-rule="evenodd" clip-rule="evenodd" d="M13.6248 20.4064C13.486 20.4064 13.373 20.2934 13.373 20.1546V19.1559C13.373 19.0171 13.486 18.9041 13.6248 18.9041C13.7637 18.9041 13.8766 19.0171 13.8766 19.1559V20.1546C13.8766 20.2934 13.7637 20.4064 13.6248 20.4064Z" fill="black"/>
<path id="Vector_3" fill-rule="evenodd" clip-rule="evenodd" d="M18.7284 20.4054C18.5895 20.4054 18.4766 20.2924 18.4766 20.1536V19.1559C18.4766 19.0171 18.5895 18.9041 18.7284 18.9041C18.8682 18.9041 18.9802 19.0171 18.9802 19.1559V20.1536C18.9802 20.2924 18.8681 20.4054 18.7284 20.4054Z" fill="black"/>
<path id="Vector_4" fill-rule="evenodd" clip-rule="evenodd" d="M12.2162 19.3705C12.0773 19.3705 11.9644 19.2585 11.9644 19.1187V18.7357C11.9644 18.0416 12.4009 17.4135 13.0511 17.1732C13.0539 17.1722 13.0568 17.1713 13.0597 17.1703L14.898 16.5681V15.961C14.898 15.8222 15.011 15.7092 15.1498 15.7092C15.2886 15.7092 15.4016 15.8222 15.4016 15.961V16.75C15.4016 16.8591 15.3317 16.9558 15.2283 16.9893L13.2215 17.6471C12.7705 17.8156 12.468 18.2532 12.468 18.7358V19.1187C12.468 19.2585 12.355 19.3705 12.2162 19.3705ZM20.1361 19.3705C19.9973 19.3705 19.8843 19.2575 19.8843 19.1187V18.7357C19.8843 18.2532 19.5818 17.8156 19.1308 17.6462L17.124 16.9884C17.0206 16.9539 16.9507 16.8572 16.9507 16.749V15.9802C16.9507 15.8414 17.0637 15.7284 17.2025 15.7284C17.3413 15.7284 17.4543 15.8414 17.4543 15.9802V16.5671L19.2926 17.1703C19.2955 17.1712 19.2983 17.1722 19.3012 17.1732C19.9513 17.4144 20.3879 18.0425 20.3879 18.7367V19.1197C20.3879 19.2585 20.275 19.3715 20.1361 19.3715L20.1361 19.3705Z" fill="black"/>
<path id="Vector_5" fill-rule="evenodd" clip-rule="evenodd" d="M17.1868 18.433C17.1083 18.433 17.0289 18.409 16.9599 18.3592L16.0293 17.6919C16.0264 17.69 16.0235 17.6881 16.0207 17.6861L15.0029 16.9556C14.8899 16.8742 14.8641 16.7172 14.9454 16.6042C15.0268 16.4912 15.1838 16.4654 15.2968 16.5468L16.3223 17.2821C16.3251 17.284 16.328 17.2859 16.3309 17.2878L17.1734 17.892L18.1089 16.9307C18.2056 16.8311 18.3655 16.8292 18.465 16.9259C18.5646 17.0226 18.5665 17.1825 18.4698 17.2821L17.4654 18.3151C17.3898 18.3927 17.2893 18.4329 17.1878 18.4329L17.1868 18.433Z" fill="black"/>
<path id="Vector_6" fill-rule="evenodd" clip-rule="evenodd" d="M15.1668 18.433C15.0653 18.433 14.9647 18.3928 14.8891 18.3143L13.8847 17.2821C13.788 17.1825 13.7899 17.0226 13.8895 16.926C13.9891 16.8293 14.148 16.8312 14.2457 16.9307L15.1811 17.892L16.0304 17.2831C16.0323 17.2812 16.0351 17.2793 16.038 17.2773L17.0567 16.5458C17.1697 16.4645 17.3267 16.4903 17.4081 16.6033C17.4895 16.7163 17.4637 16.8733 17.3507 16.9547L16.3252 17.691C16.3224 17.6929 16.3195 17.6948 16.3176 17.6967L15.3936 18.3593C15.3247 18.409 15.2462 18.433 15.1668 18.433Z" fill="black"/>
<path id="Vector_7" fill-rule="evenodd" clip-rule="evenodd" d="M18.0879 16.6091H17.2032C17.0644 16.6091 16.9514 16.4961 16.9514 16.3573C16.9514 16.2185 17.0644 16.1055 17.2032 16.1055H18.0888C18.2698 16.1055 18.4163 15.9743 18.4163 15.8116V12.5926C18.4163 12.5121 18.4096 12.4413 18.3943 12.3752C18.2803 11.863 17.8274 11.7883 17.8227 11.7873C17.769 11.7787 17.7202 11.7538 17.6819 11.7155C16.7206 10.7437 15.745 10.9189 15.0958 11.2378C14.821 11.3728 14.5711 11.5585 14.3729 11.7749C14.0933 12.0794 13.9392 12.4739 13.9392 12.8836V15.8105C13.9392 15.9723 14.0857 16.1044 14.2666 16.1044H15.1513C15.2901 16.1044 15.4031 16.2174 15.4031 16.3562C15.4031 16.495 15.2901 16.608 15.1513 16.608H14.2666C13.808 16.608 13.4355 16.2499 13.4355 15.8105V12.8836C13.4355 12.3474 13.6366 11.8323 14.0014 11.434C14.2417 11.1717 14.5433 10.9476 14.8737 10.7858C15.5171 10.4698 16.7694 10.1242 17.9883 11.3095C18.2018 11.3689 18.7332 11.5815 18.8864 12.2651C18.9093 12.3666 18.9199 12.4738 18.9199 12.5925V15.8115C18.9199 16.251 18.5474 16.6091 18.0888 16.6091L18.0879 16.6091Z" fill="black"/>
<path id="Vector_8" fill-rule="evenodd" clip-rule="evenodd" d="M14.6169 14.4799C14.659 15.3378 15.379 16.0616 16.191 16.0616C17.0019 16.0616 17.721 15.3387 17.7641 14.4827V13.4592C17.4012 13.4123 17.1503 13.1873 17.0019 13.0063C16.0617 13.6162 15.0889 13.5875 14.5949 13.5176L14.6159 14.4799L14.6169 14.4799ZM16.191 16.5652C15.0985 16.5652 14.1679 15.6394 14.1133 14.5V14.4942L14.0845 13.2151C14.0826 13.1346 14.12 13.059 14.1832 13.0092C14.2464 12.9604 14.3297 12.9451 14.4072 12.968C14.4197 12.9719 15.7553 13.3395 16.9147 12.452C16.975 12.406 17.0516 12.3897 17.1253 12.407C17.199 12.4242 17.2603 12.473 17.2938 12.541C17.3034 12.5592 17.538 13.0149 17.9861 12.9594C18.0579 12.9498 18.1297 12.9728 18.1833 13.0207C18.2379 13.0685 18.2685 13.1375 18.2685 13.2093V14.4885V14.5C18.2149 15.6384 17.2825 16.5652 16.191 16.5652Z" fill="black"/>
<path id="Vector_9" fill-rule="evenodd" clip-rule="evenodd" d="M16.1345 7.78812H0.252188C0.145911 7.78812 0.0511228 7.72205 0.0147387 7.62248C-0.0206869 7.5229 0.00899397 7.41088 0.0903771 7.34291L5.14012 3.12041C5.2464 3.03137 5.40533 3.04573 5.49437 3.15201C5.58342 3.25828 5.57001 3.41721 5.46278 3.50626L0.946394 7.2834H15.4404L10.9241 3.50626C10.8178 3.41722 10.8034 3.25829 10.8925 3.15201C10.9815 3.04573 11.1404 3.03137 11.2467 3.12041L16.2965 7.34193C16.3769 7.40991 16.4075 7.52193 16.3721 7.6215C16.3357 7.72107 16.2409 7.78714 16.1346 7.78714L16.1345 7.78812Z" fill="black"/>
<path id="Vector_10" fill-rule="evenodd" clip-rule="evenodd" d="M2.50327 16.7287C2.36443 16.7287 2.25146 16.6157 2.25146 16.4769V7.53607C2.25146 7.39724 2.36445 7.28427 2.50327 7.28427C2.6421 7.28427 2.75507 7.39725 2.75507 7.53607V16.4769C2.75507 16.6158 2.64209 16.7287 2.50327 16.7287Z" fill="black"/>
<path id="Vector_11" fill-rule="evenodd" clip-rule="evenodd" d="M4.83969 16.7287C4.6999 16.7287 4.58789 16.6157 4.58789 16.4769V7.53607C4.58789 7.39724 4.69991 7.28427 4.83969 7.28427C4.97852 7.28427 5.09149 7.39725 5.09149 7.53607V16.4769C5.09149 16.6158 4.97851 16.7287 4.83969 16.7287Z" fill="black"/>
<path id="Vector_12" fill-rule="evenodd" clip-rule="evenodd" d="M11.5482 12.3437C11.4094 12.3437 11.2964 12.2307 11.2964 12.0919V7.53632C11.2964 7.39748 11.4094 7.28452 11.5482 7.28452C11.687 7.28452 11.8 7.3975 11.8 7.53632V12.0919C11.8 12.2307 11.687 12.3437 11.5482 12.3437Z" fill="black"/>
<path id="Vector_13" fill-rule="evenodd" clip-rule="evenodd" d="M13.8836 10.3684C13.7448 10.3684 13.6318 10.2564 13.6318 10.1166V7.53632C13.6318 7.39748 13.7448 7.28452 13.8836 7.28452C14.0234 7.28452 14.1354 7.3975 14.1354 7.53632V10.1166C14.1354 10.2564 14.0234 10.3684 13.8836 10.3684Z" fill="black"/>
<path id="Vector_14" fill-rule="evenodd" clip-rule="evenodd" d="M11.5556 18.567H1.45248C1.3127 18.567 1.20068 18.455 1.20068 18.3152V16.4769C1.20068 16.3371 1.31271 16.2251 1.45248 16.2251H10.7505C10.8893 16.2251 11.0023 16.3371 11.0023 16.4769C11.0023 16.6158 10.8893 16.7287 10.7505 16.7287H1.70446V18.0634H11.5556C11.6945 18.0634 11.8074 18.1764 11.8074 18.3152C11.8074 18.455 11.6945 18.567 11.5556 18.567Z" fill="black"/>
<path id="Vector_15" fill-rule="evenodd" clip-rule="evenodd" d="M9.65539 16.7287C9.51656 16.7287 9.40359 16.6157 9.40359 16.4769V11.1095H6.98505V16.4769C6.98505 16.6158 6.87207 16.7287 6.73325 16.7287C6.59443 16.7287 6.48145 16.6157 6.48145 16.4769V10.8575C6.48145 10.7187 6.59443 10.6057 6.73325 10.6057H9.65544C9.79427 10.6057 9.90724 10.7187 9.90724 10.8575V16.4769C9.90724 16.6158 9.79421 16.7287 9.65539 16.7287Z" fill="black"/>
<path id="Vector_16" fill-rule="evenodd" clip-rule="evenodd" d="M16.1763 9.8772C13.2426 9.8772 10.8558 12.2642 10.8558 15.1988C10.8558 18.1325 13.2427 20.5194 16.1763 20.5194C19.11 20.5194 21.4969 18.1324 21.4969 15.1988C21.4969 12.2651 19.11 9.8772 16.1763 9.8772ZM16.1763 21.0231C12.9649 21.0231 10.3511 18.4102 10.3511 15.1988C10.3511 11.9874 12.9639 9.3735 16.1754 9.3735C19.3868 9.3735 22.0006 11.9874 22.0006 15.1988C22.0006 18.4102 19.3878 21.024 16.1763 21.0231Z" fill="black"/>
<path id="Vector_17" fill-rule="evenodd" clip-rule="evenodd" d="M8.2225 2.08246C8.08367 2.08246 7.9707 1.96947 7.9707 1.83065V1.36053C7.9707 1.2217 8.08368 1.10873 8.2225 1.10873C8.36134 1.10873 8.4743 1.22171 8.4743 1.36053V1.83065C8.4743 1.96949 8.36132 2.08246 8.2225 2.08246Z" fill="black"/>
<path id="Vector_18" fill-rule="evenodd" clip-rule="evenodd" d="M8.16489 5.19046C8.02605 5.19046 7.91309 5.07748 7.91309 4.93866V4.46854C7.91309 4.3297 8.02607 4.21674 8.16489 4.21674C8.30372 4.21674 8.41669 4.32972 8.41669 4.46854V4.93866C8.41669 5.07749 8.30371 5.19046 8.16489 5.19046Z" fill="black"/>
<path id="Vector_19" fill-rule="evenodd" clip-rule="evenodd" d="M8.12599 4.72131C8.10971 4.72131 8.09344 4.72131 8.0762 4.72035C7.698 4.7012 7.2595 4.44747 7.26619 3.79256C7.26715 3.65469 7.38013 3.54363 7.51799 3.54363H7.52086C7.65969 3.54459 7.77171 3.65852 7.7698 3.79737C7.76692 4.06449 7.87894 4.20621 8.10204 4.21672C8.3347 4.22821 8.57694 4.08076 8.59226 3.91992C8.59226 3.91705 8.59226 3.91322 8.59322 3.91035C8.63534 3.58577 8.16141 3.39618 8.06567 3.36172C7.43949 3.13384 7.18193 2.78628 7.30161 2.32959C7.45576 1.73787 7.95461 1.53107 8.35291 1.58948C8.82112 1.65842 9.13706 2.04333 9.11888 2.52587C9.11409 2.6647 8.99632 2.77385 8.85845 2.76811C8.71962 2.76332 8.61047 2.64651 8.61525 2.50768C8.62483 2.2348 8.44004 2.11129 8.27919 2.08737C8.10397 2.06151 7.86939 2.1429 7.78801 2.45599C7.76599 2.54216 7.72386 2.7011 8.23705 2.8878C8.46014 2.96822 9.1792 3.2861 9.09302 3.97069C9.04802 4.43027 8.56738 4.72131 8.12599 4.72131Z" fill="black"/>
<path id="Vector_20" fill-rule="evenodd" clip-rule="evenodd" d="M8.1936 0.50468C6.73539 0.50468 5.54911 1.69096 5.54911 3.14916C5.54911 4.60737 6.73539 5.79365 8.1936 5.79365C9.6518 5.79365 10.8391 4.60737 10.8391 3.14916C10.8391 1.69096 9.6518 0.50468 8.1936 0.50468ZM8.1936 6.29833C6.45773 6.29833 5.04443 4.88608 5.04443 3.14916C5.04443 1.4133 6.45668 0 8.1936 0C9.93052 0 11.3428 1.41225 11.3428 3.14916C11.3428 4.88503 9.93052 6.29833 8.1936 6.29833Z" fill="black"/>
</g>
</g>
</svg>
