<svg width="15" height="16" viewBox="0 0 15 16" fill="none" xmlns="http://www.w3.org/2000/svg">
<g id="Group 5417">
<g id="Group">
<g id="Group_2">
<path id="Vector" d="M10.9531 5.48438C10.8328 5.48438 10.7344 5.38594 10.7344 5.26562V3.1875C10.7344 2.225 9.94688 1.4375 8.98438 1.4375H5.04688C4.68594 1.4375 4.39062 1.73281 4.39062 2.09375V5.26562C4.39062 5.38594 4.29219 5.48438 4.17188 5.48438C4.05156 5.48438 3.95312 5.38594 3.95312 5.26562V2.09375C3.95312 1.49219 4.44531 1 5.04688 1H8.98438C10.1875 1 11.1719 1.98438 11.1719 3.1875V5.26562C11.1719 5.38594 11.0734 5.48438 10.9531 5.48438Z" fill="black" stroke="black" stroke-width="0.2"/>
<path id="Vector_2" d="M10.9531 3.40625H10.1875C9.4 3.40625 8.76562 2.77188 8.76562 1.98438V1.21875C8.76562 1.09844 8.86406 1 8.98438 1C9.10469 1 9.20312 1.09844 9.20312 1.21875V1.98438C9.20312 2.53125 9.64062 2.96875 10.1875 2.96875H10.9531C11.0734 2.96875 11.1719 3.06719 11.1719 3.1875C11.1719 3.30781 11.0734 3.40625 10.9531 3.40625Z" fill="black" stroke="black" stroke-width="0.2"/>
<g id="Group_3">
<path id="Vector_3" d="M2.53125 7.34375C2.41094 7.34375 2.3125 7.24531 2.3125 7.125V5.15625C2.3125 4.19375 3.1 3.40625 4.0625 3.40625C4.18281 3.40625 4.28125 3.50469 4.28125 3.625C4.28125 3.74531 4.18281 3.84375 4.0625 3.84375C3.34063 3.84375 2.75 4.43438 2.75 5.15625V7.125C2.75 7.24531 2.65156 7.34375 2.53125 7.34375Z" fill="black" stroke="black" stroke-width="0.2"/>
<path id="Vector_4" d="M12.5938 7.34375C12.4734 7.34375 12.375 7.24531 12.375 7.125V5.15625C12.375 4.43438 11.7844 3.84375 11.0625 3.84375C10.9422 3.84375 10.8438 3.74531 10.8438 3.625C10.8438 3.50469 10.9422 3.40625 11.0625 3.40625C12.025 3.40625 12.8125 4.19375 12.8125 5.15625V7.125C12.8125 7.24531 12.7141 7.34375 12.5938 7.34375Z" fill="black" stroke="black" stroke-width="0.2"/>
</g>
<path id="Vector_5" d="M7.5623 7.99999C6.93887 7.99999 6.35918 7.75936 5.91074 7.32186L2.82637 4.22655C2.73887 4.13905 2.73887 4.0078 2.82637 3.9203C2.91387 3.8328 3.04512 3.8328 3.13262 3.9203L6.21699 7.00468C6.57793 7.36561 7.05918 7.56249 7.5623 7.56249C8.06543 7.56249 8.54668 7.36561 8.89668 7.00468L11.9811 3.9203C12.0686 3.8328 12.1998 3.8328 12.2873 3.9203C12.3748 4.0078 12.3748 4.13905 12.2873 4.22655L9.20293 7.31093C8.76543 7.75936 8.18574 7.99999 7.5623 7.99999Z" fill="black" stroke="black" stroke-width="0.2"/>
<path id="Vector_6" d="M9.85938 5.375H5.26562C5.14531 5.375 5.04688 5.27656 5.04688 5.15625C5.04688 5.03594 5.14531 4.9375 5.26562 4.9375H9.85938C9.97969 4.9375 10.0781 5.03594 10.0781 5.15625C10.0781 5.27656 9.97969 5.375 9.85938 5.375Z" fill="black" stroke="black" stroke-width="0.2"/>
<path id="Vector_7" d="M8.54688 3.84375H5.26562C5.14531 3.84375 5.04688 3.74531 5.04688 3.625C5.04688 3.50469 5.14531 3.40625 5.26562 3.40625H8.54688C8.66719 3.40625 8.76562 3.50469 8.76562 3.625C8.76562 3.74531 8.66719 3.84375 8.54688 3.84375Z" fill="black" stroke="black" stroke-width="0.2"/>
</g>
<g id="Group_4">
<path id="Vector_8" d="M1.98438 10.9531C1.79844 10.9531 1.60156 10.8766 1.45938 10.7344L1.21875 10.4937C1.07656 10.3516 1 10.1656 1 9.96874C1 9.77186 1.07656 9.58592 1.21875 9.44374L3.75625 6.90624C4.05156 6.61093 4.52188 6.61093 4.81719 6.90624L5.05781 7.14686C5.2 7.28905 5.27656 7.47499 5.27656 7.67186C5.27656 7.86874 5.2 8.05468 5.05781 8.19686L2.50937 10.7344C2.36719 10.8766 2.17031 10.9531 1.98438 10.9531ZM4.28125 7.12499C4.20469 7.12499 4.12813 7.1578 4.0625 7.21249L1.525 9.74999C1.47031 9.80468 1.4375 9.88124 1.4375 9.96874C1.4375 10.0562 1.47031 10.1328 1.525 10.1875L1.76563 10.4281C1.88594 10.5484 2.08281 10.5484 2.20313 10.4281L4.74062 7.89061C4.79531 7.83593 4.82813 7.75936 4.82813 7.67186C4.82813 7.58436 4.79531 7.5078 4.74062 7.45311L4.5 7.21249C4.43438 7.1578 4.35781 7.12499 4.28125 7.12499Z" fill="black" stroke="black" stroke-width="0.2"/>
<path id="Vector_9" d="M13.1404 10.9531C12.9436 10.9531 12.7576 10.8766 12.6154 10.7344L10.0779 8.19688C9.78262 7.90156 9.78262 7.43125 10.0779 7.13594L10.3186 6.89531C10.6139 6.6 11.0842 6.6 11.3795 6.89531L13.917 9.43281C14.0592 9.575 14.1357 9.76094 14.1357 9.95781C14.1357 10.1547 14.0592 10.3406 13.917 10.4828L13.6764 10.7234C13.5232 10.8766 13.3373 10.9531 13.1404 10.9531ZM10.8436 7.125C10.767 7.125 10.6904 7.15781 10.6248 7.2125L10.3842 7.45312C10.2639 7.57344 10.2639 7.77031 10.3842 7.89062L12.9217 10.4281C13.042 10.5484 13.2389 10.5484 13.3592 10.4281L13.5998 10.1875C13.6545 10.1328 13.6873 10.0562 13.6873 9.96875C13.6873 9.88125 13.6545 9.80469 13.5998 9.75L11.0623 7.2125C10.9967 7.15781 10.9201 7.125 10.8436 7.125Z" fill="black" stroke="black" stroke-width="0.2"/>
<path id="Vector_10" d="M3.51563 11.8281C3.46094 11.8281 3.40625 11.8062 3.3625 11.7625L2.26875 10.6688C2.18125 10.5813 2.18125 10.45 2.26875 10.3625C2.35625 10.275 2.4875 10.275 2.575 10.3625L3.66875 11.4563C3.75625 11.5438 3.75625 11.675 3.66875 11.7625C3.625 11.8062 3.57031 11.8281 3.51563 11.8281Z" fill="black" stroke="black" stroke-width="0.2"/>
<path id="Vector_11" d="M8.19688 15C8.01094 15 7.84688 14.9344 7.71563 14.8031L6.97188 14.0594C6.88438 13.9719 6.88438 13.8407 6.97188 13.7532C7.05938 13.6657 7.19063 13.6657 7.27813 13.7532L8.02187 14.4969C8.10938 14.5844 8.27344 14.5844 8.36094 14.4969L8.47031 14.3875C8.51406 14.3438 8.54688 14.2782 8.54688 14.2125C8.54688 14.1469 8.525 14.0813 8.47031 14.0375L7.97813 13.5453C7.89063 13.4578 7.89063 13.3266 7.97813 13.2391C8.06563 13.1516 8.19688 13.1516 8.28438 13.2391L8.77656 13.7313C8.90781 13.8625 8.97344 14.0266 8.97344 14.2125C8.97344 14.3985 8.90781 14.5625 8.77656 14.6938L8.66719 14.8031C8.54688 14.9344 8.37188 15 8.19688 15Z" fill="black" stroke="black" stroke-width="0.2"/>
<path id="Vector_12" d="M9.72813 15C9.54219 15 9.37813 14.9344 9.24688 14.8031L7.13594 12.6922C7.04844 12.6047 7.04844 12.4734 7.13594 12.3859C7.22344 12.2984 7.35469 12.2984 7.44219 12.3859L9.55313 14.4969C9.64062 14.5844 9.80469 14.5844 9.89219 14.4969L10.0016 14.3875C10.0453 14.3437 10.0781 14.2781 10.0781 14.2125C10.0781 14.1469 10.0563 14.0812 10.0016 14.0375L7.78125 11.8172C7.69375 11.7297 7.69375 11.5984 7.78125 11.5109C7.86875 11.4234 8 11.4234 8.0875 11.5109L10.3078 13.7312C10.4391 13.8625 10.5047 14.0266 10.5047 14.2125C10.5047 14.3984 10.4391 14.5625 10.3078 14.6937L10.1984 14.8031C10.0781 14.9344 9.90313 15 9.72813 15Z" fill="black" stroke="black" stroke-width="0.2"/>
<path id="Vector_13" d="M10.2754 14.0157C10.0895 14.0157 9.92539 13.95 9.79414 13.8188C9.70664 13.7313 9.70664 13.6 9.79414 13.5125C9.88164 13.425 10.0129 13.425 10.1004 13.5125C10.1879 13.6 10.352 13.6 10.4395 13.5125L10.5488 13.4031C10.5926 13.3594 10.6254 13.2938 10.6254 13.2282C10.6254 13.1625 10.6035 13.0969 10.5488 13.0531L10.0566 12.561C9.96914 12.4735 9.96914 12.3422 10.0566 12.2547C10.1441 12.1672 10.2754 12.1672 10.3629 12.2547L10.8551 12.7469C10.9863 12.8781 11.052 13.0422 11.052 13.2282C11.052 13.4141 10.9863 13.5781 10.8551 13.7094L10.7457 13.8188C10.6254 13.95 10.4504 14.0157 10.2754 14.0157Z" fill="black" stroke="black" stroke-width="0.2"/>
<path id="Vector_14" d="M5.62637 14.2344C5.44043 14.2344 5.27637 14.1687 5.14512 14.0375L5.03574 13.9281C4.90449 13.7969 4.83887 13.6328 4.83887 13.4469C4.83887 13.2609 4.90449 13.0969 5.03574 12.9656L5.52793 12.4734C5.79043 12.2109 6.22793 12.2109 6.49043 12.4734L6.5998 12.5828C6.73105 12.7141 6.79668 12.8781 6.79668 13.0641C6.79668 13.25 6.73105 13.4141 6.5998 13.5453L6.10762 14.0375C5.97637 14.1687 5.80137 14.2344 5.62637 14.2344ZM6.00918 12.7031C5.94356 12.7031 5.88887 12.725 5.83418 12.7687L5.34199 13.2609C5.29824 13.3047 5.26543 13.3703 5.26543 13.4359C5.26543 13.5016 5.2873 13.5672 5.34199 13.6109L5.45137 13.7203C5.53887 13.8078 5.70293 13.8078 5.79043 13.7203L6.28262 13.2281C6.32637 13.1844 6.35918 13.1187 6.35918 13.0531C6.35918 12.9875 6.33731 12.9219 6.28262 12.8781L6.17324 12.7687C6.12949 12.725 6.06387 12.7031 6.00918 12.7031Z" fill="black" stroke="black" stroke-width="0.2"/>
<path id="Vector_15" d="M4.86074 13.4687C4.67481 13.4687 4.51074 13.4031 4.37949 13.2719L4.27012 13.1625C4.13887 13.0312 4.07324 12.8672 4.07324 12.6812C4.07324 12.4953 4.13887 12.3312 4.27012 12.2L4.98106 11.4891C5.24356 11.2266 5.68105 11.2266 5.94355 11.4891L6.05293 11.5984C6.18418 11.7297 6.2498 11.8937 6.2498 12.0797C6.2498 12.2656 6.18418 12.4297 6.05293 12.5609L5.34199 13.2719C5.21074 13.4031 5.03574 13.4687 4.86074 13.4687ZM5.46231 11.7187C5.39668 11.7187 5.34199 11.7406 5.2873 11.7844L4.57637 12.4953C4.53262 12.5391 4.4998 12.6047 4.4998 12.6703C4.4998 12.7359 4.52168 12.8016 4.57637 12.8453L4.68574 12.9547C4.77324 13.0422 4.93731 13.0422 5.02481 12.9547L5.73574 12.2437C5.77949 12.2 5.8123 12.1344 5.8123 12.0687C5.8123 12.0031 5.79043 11.9375 5.73574 11.8937L5.62637 11.7844C5.58262 11.7406 5.51699 11.7187 5.46231 11.7187Z" fill="black" stroke="black" stroke-width="0.2"/>
<path id="Vector_16" d="M4.09512 12.7031C3.90918 12.7031 3.74512 12.6375 3.61387 12.5062L3.50449 12.3969C3.37324 12.2656 3.30762 12.1016 3.30762 11.9156C3.30762 11.7297 3.37324 11.5656 3.50449 11.4344L3.99668 10.9422C4.25918 10.6797 4.69668 10.6797 4.95918 10.9422L5.06855 11.0516C5.1998 11.1828 5.26543 11.3469 5.26543 11.5328C5.26543 11.7187 5.1998 11.8828 5.06855 12.014L4.57637 12.5062C4.44512 12.6375 4.27012 12.7031 4.09512 12.7031ZM4.47793 11.1719C4.41231 11.1719 4.35762 11.1937 4.30293 11.2375L3.81074 11.7297C3.76699 11.7734 3.73418 11.839 3.73418 11.9047C3.73418 11.9703 3.75605 12.0359 3.81074 12.0797L3.92012 12.1891C4.00762 12.2766 4.17168 12.2766 4.25918 12.1891L4.75137 11.6969C4.79512 11.6531 4.82793 11.5875 4.82793 11.5219C4.82793 11.4562 4.80606 11.3906 4.75137 11.3469L4.64199 11.2375C4.59824 11.1937 4.53262 11.1719 4.47793 11.1719Z" fill="black" stroke="black" stroke-width="0.2"/>
<path id="Vector_17" d="M6.39199 15C6.20606 15 6.04199 14.9344 5.91074 14.8031L5.80137 14.6937C5.67012 14.5625 5.60449 14.3984 5.60449 14.2125C5.60449 14.0266 5.67012 13.8625 5.80137 13.7312L6.07481 13.4578C6.33731 13.1953 6.7748 13.1953 7.0373 13.4578L7.14668 13.5672C7.27793 13.6984 7.34355 13.8625 7.34355 14.0484C7.34355 14.2344 7.27793 14.3984 7.14668 14.5297L6.87324 14.8031C6.74199 14.9344 6.56699 15 6.39199 15ZM6.55606 13.6875C6.49043 13.6875 6.43574 13.7094 6.38105 13.7531L6.10762 14.0266C6.06387 14.0703 6.03105 14.1359 6.03105 14.2016C6.03105 14.2672 6.05293 14.3328 6.10762 14.3766L6.21699 14.4859C6.30449 14.5734 6.46856 14.5734 6.55606 14.4859L6.82949 14.2125C6.87324 14.1687 6.90605 14.1031 6.90605 14.0375C6.90605 13.9719 6.88418 13.9062 6.82949 13.8625L6.72012 13.7531C6.67637 13.7094 6.61074 13.6875 6.55606 13.6875Z" fill="black" stroke="black" stroke-width="0.2"/>
<path id="Vector_18" d="M10.2092 12.6156C10.1545 12.6156 10.0998 12.5938 10.0561 12.55L8.28418 10.7781C8.18574 10.6797 8.04356 10.6141 7.90137 10.6141H7.44199C7.29981 10.6141 7.15762 10.6688 7.05918 10.7781L6.76387 11.0734C6.63262 11.2047 6.46856 11.2703 6.28262 11.2703C6.09668 11.2703 5.93262 11.2047 5.80137 11.0734L5.58262 10.8547C5.45137 10.7234 5.38574 10.5594 5.38574 10.3734C5.38574 10.1875 5.45137 10.0234 5.58262 9.89219L5.99824 9.47656C6.2498 9.225 6.57793 9.09375 6.92793 9.09375H8.19668C8.72168 9.09375 9.21387 8.88594 9.58574 8.51406L10.1436 7.95625C10.2311 7.86875 10.3623 7.86875 10.4498 7.95625C10.5373 8.04375 10.5373 8.175 10.4498 8.2625L9.89199 8.82031C9.43262 9.27969 8.83105 9.52031 8.18574 9.52031H6.91699C6.6873 9.52031 6.46856 9.60781 6.29356 9.77187L5.87793 10.1875C5.83418 10.2313 5.80137 10.2969 5.80137 10.3625C5.80137 10.4281 5.82324 10.4937 5.87793 10.5375L6.09668 10.7562C6.18418 10.8437 6.34824 10.8437 6.43574 10.7562L6.73106 10.4609C6.91699 10.275 7.16856 10.1766 7.43106 10.1766H7.89043C8.15293 10.1766 8.40449 10.275 8.59043 10.4609L10.3623 12.2328C10.4498 12.3203 10.4498 12.4516 10.3623 12.5391C10.3295 12.5937 10.2639 12.6156 10.2092 12.6156Z" fill="black" stroke="black" stroke-width="0.2"/>
<path id="Vector_19" d="M10.5703 12.8672C10.5156 12.8672 10.4609 12.8453 10.4172 12.8016C10.3297 12.7141 10.3297 12.5828 10.4172 12.4953L12.55 10.3625C12.6375 10.275 12.7687 10.275 12.8562 10.3625C12.9437 10.45 12.9437 10.5813 12.8562 10.6688L10.7234 12.8016C10.6797 12.8453 10.625 12.8672 10.5703 12.8672Z" fill="black" stroke="black" stroke-width="0.2"/>
<path id="Vector_20" d="M6.90625 9.53125H6.66563C6.19531 9.53125 5.75781 9.34531 5.42969 9.01719L4.675 8.2625C4.5875 8.175 4.5875 8.04375 4.675 7.95625C4.7625 7.86875 4.89375 7.86875 4.98125 7.95625L5.73594 8.71094C5.9875 8.9625 6.31563 9.09375 6.66563 9.09375H6.90625C7.02656 9.09375 7.125 9.19219 7.125 9.3125C7.125 9.43281 7.02656 9.53125 6.90625 9.53125Z" fill="black" stroke="black" stroke-width="0.2"/>
</g>
</g>
</g>
</svg>
