<svg width="13" height="13" viewBox="0 0 13 13" fill="none" xmlns="http://www.w3.org/2000/svg">
<path fill-rule="evenodd" clip-rule="evenodd" d="M3 0C2.17157 0 1.5 0.671573 1.5 1.5V2.5H1C0.447715 2.5 0 2.94772 0 3.5V11.5C0 12.0523 0.447715 12.5 1 12.5H9C9.55229 12.5 10 12.0523 10 11.5V11H11C11.8284 11 12.5 10.3284 12.5 9.5V1.5C12.5 0.671573 11.8284 0 11 0H3ZM10 10H11C11.2761 10 11.5 9.77614 11.5 9.5V1.5C11.5 1.22386 11.2761 1 11 1H3C2.72386 1 2.5 1.22386 2.5 1.5V2.5H9C9.55228 2.5 10 2.94772 10 3.5V10ZM1 3.5H9V10V11V11.5H1V3.5Z" fill="#757575"/>
</svg>
