<svg width="16" height="14" viewBox="0 0 16 14" fill="none" xmlns="http://www.w3.org/2000/svg">
<g id="Group 5330">
<g id="Group 5415">
<g id="Vector">
<path d="M2.67837 13.7255H5.94687C6.0442 13.7255 6.12246 13.6472 6.12246 13.5505C6.12246 13.4532 6.04421 13.375 5.94687 13.375H4.09881C4.19548 13.2112 4.24809 13.0251 4.25138 12.835C4.27966 11.8545 3.16034 10.776 3.113 10.7306C3.08012 10.697 3.0354 10.6786 2.9887 10.6786C2.94201 10.6786 2.89663 10.697 2.86375 10.7306C2.79601 10.799 2.79601 10.9094 2.86375 10.9778C2.87427 10.9884 3.91598 11.9932 3.89297 12.8193H3.89363C3.88968 13.0298 3.79893 13.2291 3.6424 13.3698H2.67829C1.94435 13.3691 1.3505 12.7739 1.3505 12.0407V10.7043C1.3505 10.2756 1.55767 9.87308 1.90622 9.62383L3.61606 8.41376C3.88767 9.2266 4.64856 9.77508 5.50621 9.77508C6.36311 9.77508 7.12402 9.2266 7.39568 8.41376L8.29008 9.05234C8.04741 9.23253 7.87511 9.49165 7.80277 9.78496L7.22931 12.1176C7.13395 12.5062 7.22274 12.9179 7.46936 13.2329C7.71664 13.5479 8.09477 13.7321 8.49529 13.7327H12.0571C12.6575 13.7334 13.181 13.3237 13.323 12.7404L13.8965 10.4064V10.4058C13.9912 10.0171 13.9024 9.60672 13.6551 9.29171C13.4085 8.97735 13.0304 8.79322 12.6305 8.79256H9.06539C8.91741 8.79256 8.7701 8.81755 8.63003 8.86622L7.29896 7.91395C7.01486 7.70943 6.67287 7.5996 6.32235 7.60025H4.66838C4.31851 7.5996 3.97718 7.70942 3.69374 7.91395L1.70106 9.33775C1.26175 9.65408 1.00066 10.1624 1 10.7043V12.046C1.00066 12.9726 1.75108 13.7235 2.67837 13.7255ZM9.06552 9.1364H12.6307C12.9233 9.13574 13.1995 9.2699 13.3804 9.50008C13.5612 9.73027 13.6263 10.0308 13.5566 10.3149L12.9832 12.6488C12.8793 13.0757 12.4965 13.3762 12.0572 13.3749H8.49206C8.19941 13.3749 7.9232 13.2401 7.74235 13.0099C7.56216 12.779 7.49771 12.4785 7.56741 12.1944L8.14087 9.86045C8.24478 9.43431 8.62687 9.13509 9.06552 9.1364ZM4.66853 7.95066H6.32581C6.59807 7.95066 6.8631 8.03484 7.08539 8.1907C6.89795 8.91412 6.24491 9.41853 5.49848 9.41853C4.75139 9.41853 4.09901 8.91412 3.91092 8.1907C4.13255 8.03484 4.39757 7.95066 4.66853 7.95066ZM10.561 12.4207C11.0339 12.4247 11.4614 12.1425 11.6448 11.7072C11.8283 11.2718 11.7303 10.7687 11.3976 10.4333C11.0648 10.0979 10.5624 9.99662 10.1257 10.1762C9.68898 10.3564 9.40357 10.7825 9.40357 11.2547C9.40357 11.8953 9.92049 12.4161 10.561 12.4207ZM10.561 10.4391C10.8918 10.4359 11.1917 10.6318 11.3206 10.9363C11.4502 11.2408 11.3824 11.5933 11.1496 11.8281C10.9175 12.0629 10.5656 12.1346 10.2598 12.0089C9.95403 11.8833 9.75476 11.5854 9.75476 11.2546C9.75476 10.8074 10.1145 10.4438 10.561 10.4391ZM2.47988 6.06387C2.88828 6.0619 3.25985 5.82976 3.44135 5.4641C3.82082 6.25328 4.6192 6.75572 5.49582 6.75572C6.3718 6.75572 7.17019 6.25328 7.55029 5.4641C7.77388 5.91196 8.27567 6.14674 8.76298 6.03231C9.25029 5.91788 9.59556 5.48383 9.59687 4.98336V3.93112C9.59622 3.35174 9.13783 2.87626 8.55845 2.85456C8.16649 2.10485 7.51345 1.52546 6.72301 1.22491C5.93252 0.92503 5.05917 0.92503 4.2687 1.22491C3.47755 1.52546 2.82451 2.10485 2.43259 2.85456C1.85386 2.87692 1.39615 3.35174 1.39482 3.93112V4.98336C1.39482 5.27074 1.5099 5.54564 1.71311 5.74886C1.91698 5.95141 2.19315 6.06453 2.47988 6.06387ZM5.50173 6.39665C4.71649 6.39731 4.00821 5.92511 3.70704 5.19973C3.40583 4.47434 3.57156 3.63914 4.12662 3.08347C4.68168 2.52776 5.51688 2.36137 6.2422 2.66192C6.96824 2.96247 7.44109 3.6701 7.44109 4.45527C7.44043 5.52658 6.57312 6.3948 5.50173 6.39665ZM9.25105 3.92784V4.98007C9.25105 5.38255 8.92486 5.7094 8.52173 5.7094C8.1186 5.7094 7.7924 5.38255 7.7924 4.98007V3.92784C7.7924 3.52471 8.1186 3.19786 8.52173 3.19786C8.92486 3.19786 9.25105 3.52471 9.25105 3.92784ZM5.50173 1.34793C6.04692 1.34727 6.58225 1.49064 7.05444 1.7629C7.52663 2.03582 7.91793 2.42777 8.1902 2.89997C7.91399 2.99138 7.68578 3.18934 7.55557 3.4491C7.17546 2.65926 6.37707 2.15747 5.50111 2.15747C4.62447 2.15747 3.82609 2.65926 3.44664 3.4491C3.31708 3.18801 3.08822 2.99071 2.81136 2.89997C3.08363 2.42712 3.47558 2.03516 3.94843 1.7629C4.42062 1.48997 4.95654 1.34725 5.50173 1.34793ZM1.75056 3.92784C1.75056 3.52471 2.07741 3.19786 2.47988 3.19786C2.88301 3.19786 3.20986 3.52471 3.20986 3.92784V4.98007C3.20986 5.38255 2.88301 5.7094 2.47988 5.7094C2.07741 5.7094 1.75056 5.38255 1.75056 4.98007V3.92784ZM12.6938 2.64083V2.64017C11.7586 2.63951 10.9156 3.20312 10.559 4.06793C10.2032 4.93207 10.4038 5.92643 11.068 6.5847C10.9207 6.84249 10.7155 7.06281 10.4683 7.22788C10.344 7.28773 10.269 7.41859 10.2808 7.55604C10.2966 7.656 10.3736 7.79082 10.6577 7.86974C10.8208 7.91249 10.9891 7.93288 11.1575 7.93156C11.7901 7.94471 12.4011 7.69941 12.8483 7.25089C14.0886 7.16671 15.0396 6.11579 14.9987 4.87284C14.9586 3.62989 13.9406 2.64278 12.6969 2.64009L12.6938 2.64083ZM12.755 6.90431V6.90366C12.705 6.90497 12.6576 6.92799 12.6254 6.96679C12.1802 7.51067 11.4344 7.57183 11.2226 7.57906C11.0444 7.58892 10.8662 7.56525 10.6965 7.51066C11.0188 7.28575 11.2812 6.98454 11.4594 6.63337C11.4995 6.56168 11.4844 6.47093 11.4226 6.41634C10.7163 5.79683 10.5499 4.76302 11.026 3.95344C11.5028 3.14387 12.4879 2.78808 13.3719 3.10507C14.2558 3.42271 14.7898 4.32369 14.6425 5.25162C14.4958 6.1789 13.7099 6.87141 12.7708 6.90035L12.755 6.90431ZM14.1702 4.89061C14.1709 5.08659 14.1288 5.28059 14.0459 5.45881C14.017 5.51932 13.9558 5.55812 13.8881 5.55877C13.8624 5.55877 13.8361 5.55351 13.8124 5.54299C13.725 5.50156 13.6875 5.39699 13.7283 5.30953C13.9387 4.85379 13.775 4.31319 13.3481 4.05013C13.308 4.0258 13.2798 3.987 13.2686 3.94162C13.258 3.89624 13.2653 3.84823 13.2903 3.80812C13.3409 3.72657 13.4481 3.70026 13.5303 3.75024C13.9289 3.9916 14.1722 4.42434 14.1702 4.89061Z" fill="black"/>
<path d="M5.50173 6.39731V6.39665M5.50173 6.39665C4.71649 6.39731 4.00821 5.92511 3.70704 5.19973C3.40583 4.47434 3.57156 3.63914 4.12662 3.08347C4.68168 2.52776 5.51688 2.36137 6.2422 2.66192C6.96824 2.96247 7.44109 3.6701 7.44109 4.45527C7.44043 5.52658 6.57312 6.3948 5.50173 6.39665ZM14.1702 4.89126V4.89061M14.1702 4.89061C14.1709 5.08659 14.1288 5.28059 14.0459 5.45881C14.017 5.51932 13.9558 5.55812 13.8881 5.55877C13.8624 5.55877 13.8361 5.55351 13.8124 5.54299C13.725 5.50156 13.6875 5.39699 13.7283 5.30953C13.9387 4.85379 13.775 4.31319 13.3481 4.05013C13.308 4.0258 13.2798 3.987 13.2686 3.94162C13.258 3.89624 13.2653 3.84823 13.2903 3.80812C13.3409 3.72657 13.4481 3.70026 13.5303 3.75024C13.9289 3.9916 14.1722 4.42434 14.1702 4.89061ZM2.67837 13.7255H5.94687C6.0442 13.7255 6.12246 13.6472 6.12246 13.5505C6.12246 13.4532 6.04421 13.375 5.94687 13.375H4.09881C4.19548 13.2112 4.24809 13.0251 4.25138 12.835C4.27966 11.8545 3.16034 10.776 3.113 10.7306C3.08012 10.697 3.0354 10.6786 2.9887 10.6786C2.94201 10.6786 2.89663 10.697 2.86375 10.7306C2.79601 10.799 2.79601 10.9094 2.86375 10.9778C2.87427 10.9884 3.91598 11.9932 3.89297 12.8193H3.89363C3.88968 13.0298 3.79893 13.2291 3.6424 13.3698H2.67829C1.94435 13.3691 1.3505 12.7739 1.3505 12.0407V10.7043C1.3505 10.2756 1.55767 9.87308 1.90622 9.62383L3.61606 8.41376C3.88767 9.2266 4.64856 9.77508 5.50621 9.77508C6.36311 9.77508 7.12402 9.2266 7.39568 8.41376L8.29008 9.05234C8.04741 9.23253 7.87511 9.49165 7.80277 9.78496L7.22931 12.1176C7.13395 12.5062 7.22274 12.9179 7.46936 13.2329C7.71664 13.5479 8.09477 13.7321 8.49529 13.7327H12.0571C12.6575 13.7334 13.181 13.3237 13.323 12.7404L13.8965 10.4064V10.4058C13.9912 10.0171 13.9024 9.60672 13.6551 9.29171C13.4085 8.97735 13.0304 8.79322 12.6305 8.79256H9.06539C8.91741 8.79256 8.7701 8.81755 8.63003 8.86622L7.29896 7.91395C7.01486 7.70943 6.67287 7.5996 6.32235 7.60025H4.66838C4.31851 7.59959 3.97718 7.70942 3.69374 7.91395L1.70106 9.33775C1.26175 9.65408 1.00066 10.1624 1 10.7043V12.046C1.00066 12.9726 1.75108 13.7235 2.67837 13.7255ZM9.06552 9.1364H12.6307C12.9233 9.13574 13.1995 9.2699 13.3804 9.50008C13.5612 9.73027 13.6263 10.0308 13.5566 10.3149L12.9832 12.6488C12.8793 13.0757 12.4965 13.3762 12.0572 13.3749H8.49206C8.19941 13.3749 7.9232 13.2401 7.74235 13.0099C7.56216 12.779 7.49771 12.4785 7.56741 12.1944L8.14087 9.86045C8.24478 9.43431 8.62687 9.13508 9.06552 9.1364ZM4.66853 7.95066H6.32581C6.59807 7.95066 6.8631 8.03484 7.08539 8.1907C6.89795 8.91412 6.24491 9.41853 5.49848 9.41853C4.75139 9.41853 4.09901 8.91412 3.91092 8.1907C4.13255 8.03484 4.39757 7.95066 4.66853 7.95066ZM10.561 12.4207C11.0339 12.4247 11.4614 12.1425 11.6448 11.7072C11.8283 11.2718 11.7303 10.7687 11.3976 10.4333C11.0648 10.0979 10.5624 9.99662 10.1257 10.1762C9.68898 10.3564 9.40357 10.7825 9.40357 11.2547C9.40357 11.8953 9.92049 12.4161 10.561 12.4207ZM10.561 10.4391C10.8918 10.4359 11.1917 10.6318 11.3206 10.9363C11.4502 11.2408 11.3824 11.5933 11.1496 11.8281C10.9175 12.0629 10.5656 12.1346 10.2598 12.0089C9.95403 11.8833 9.75476 11.5854 9.75476 11.2546C9.75476 10.8074 10.1145 10.4438 10.561 10.4391ZM2.47988 6.06387C2.88828 6.0619 3.25985 5.82976 3.44135 5.4641C3.82082 6.25328 4.6192 6.75572 5.49582 6.75572C6.3718 6.75572 7.17019 6.25328 7.55029 5.4641C7.77388 5.91196 8.27567 6.14674 8.76298 6.03231C9.25029 5.91788 9.59556 5.48383 9.59687 4.98336V3.93112C9.59622 3.35174 9.13783 2.87626 8.55845 2.85456C8.16649 2.10485 7.51345 1.52546 6.72301 1.22491C5.93252 0.92503 5.05917 0.92503 4.2687 1.22491C3.47755 1.52546 2.82451 2.10485 2.43259 2.85456C1.85386 2.87692 1.39615 3.35174 1.39482 3.93112V4.98336C1.39482 5.27074 1.5099 5.54564 1.71311 5.74886C1.91698 5.95141 2.19315 6.06453 2.47988 6.06387ZM9.25105 3.92784V4.98007C9.25105 5.38255 8.92486 5.7094 8.52173 5.7094C8.1186 5.7094 7.7924 5.38255 7.7924 4.98007V3.92784C7.7924 3.52471 8.1186 3.19786 8.52173 3.19786C8.92486 3.19786 9.25105 3.52471 9.25105 3.92784ZM5.50173 1.34793C6.04692 1.34727 6.58225 1.49064 7.05444 1.7629C7.52663 2.03582 7.91793 2.42777 8.1902 2.89997C7.91399 2.99138 7.68578 3.18934 7.55557 3.4491C7.17546 2.65926 6.37707 2.15747 5.50111 2.15747C4.62447 2.15747 3.82609 2.65926 3.44664 3.4491C3.31708 3.18801 3.08822 2.99071 2.81136 2.89997C3.08363 2.42712 3.47558 2.03516 3.94843 1.7629C4.42062 1.48997 4.95654 1.34725 5.50173 1.34793ZM1.75056 3.92784C1.75056 3.52471 2.07741 3.19786 2.47988 3.19786C2.88301 3.19786 3.20986 3.52471 3.20986 3.92784V4.98007C3.20986 5.38255 2.88301 5.7094 2.47988 5.7094C2.07741 5.7094 1.75056 5.38255 1.75056 4.98007V3.92784ZM12.6938 2.64083V2.64017C11.7586 2.63951 10.9156 3.20313 10.559 4.06793C10.2032 4.93207 10.4038 5.92643 11.068 6.5847C10.9207 6.84249 10.7155 7.06281 10.4683 7.22788C10.344 7.28773 10.269 7.4186 10.2808 7.55604C10.2966 7.656 10.3736 7.79082 10.6577 7.86974C10.8208 7.91249 10.9891 7.93288 11.1575 7.93156C11.7901 7.94471 12.4011 7.69941 12.8483 7.25089C14.0886 7.16671 15.0396 6.11579 14.9987 4.87284C14.9586 3.62989 13.9406 2.64278 12.6969 2.64009L12.6938 2.64083ZM12.755 6.90431V6.90366C12.705 6.90497 12.6576 6.92799 12.6254 6.96679C12.1802 7.51067 11.4344 7.57183 11.2226 7.57906C11.0444 7.58892 10.8662 7.56525 10.6965 7.51066C11.0188 7.28575 11.2812 6.98454 11.4594 6.63337C11.4995 6.56168 11.4844 6.47093 11.4226 6.41634C10.7163 5.79683 10.5499 4.76302 11.026 3.95344C11.5028 3.14387 12.4879 2.78808 13.3719 3.10507C14.2558 3.42271 14.7898 4.32369 14.6425 5.25162C14.4958 6.1789 13.7099 6.87141 12.7708 6.90035L12.755 6.90431Z" stroke="black" stroke-width="0.2"/>
</g>
</g>
</g>
</svg>
