<svg width="22" height="22" viewBox="0 0 22 22" fill="none" xmlns="http://www.w3.org/2000/svg">
<g id="Group 5421">
<path id="Vector" d="M11 0C4.93471 0 0 4.93471 0 11C0 17.0653 4.93471 22 11 22C17.0653 22 22 17.0653 22 11C22 4.93471 17.0653 0 11 0ZM11 1.0926C15.4364 1.0926 19.2014 4.02375 20.4593 8.05138L12.3097 16.2054C12.0973 16.4183 12.0965 16.7625 12.3078 16.976L12.8871 17.5611H7.80374V12.4661L8.59851 13.2576C8.81065 13.4689 9.15312 13.47 9.36693 13.2603L12.8194 9.87191L14.156 11.2138C14.3122 11.3705 14.5473 11.4179 14.7517 11.3333C14.9561 11.2487 15.0895 11.0496 15.0895 10.8283L15.0884 3.90284C15.0884 3.60113 14.8441 3.35654 14.5421 3.35654H7.61129C7.39 3.35654 7.19061 3.48993 7.10631 3.6943C7.02173 3.89868 7.06915 4.13384 7.22583 4.28996L8.34116 5.40058L1.21073 12.5282C1.13308 12.0296 1.09287 11.5197 1.09287 11C1.0926 5.53702 5.53702 1.0926 11 1.0926ZM11 20.9074C6.50566 20.9074 2.70154 17.8986 1.49331 13.7906L9.50059 5.78604C9.60347 5.68344 9.66115 5.54423 9.66088 5.39892C9.66088 5.25389 9.60292 5.11468 9.50004 5.01235L8.93405 4.44886H13.9958L13.9966 9.50531L13.2104 8.71581C13.2029 8.7086 13.1952 8.70222 13.1874 8.69501C13.1819 8.6903 13.1766 8.68475 13.1705 8.68004C13.1625 8.67338 13.153 8.667 13.1444 8.66063C13.1386 8.65619 13.1331 8.65147 13.127 8.64759C13.1178 8.64177 13.1084 8.63622 13.0989 8.63068C13.0928 8.62707 13.0867 8.62319 13.0806 8.61958C13.0712 8.61431 13.0612 8.61043 13.0515 8.60572C13.0454 8.60294 13.0391 8.59989 13.0327 8.59712C13.0227 8.59296 13.0127 8.58963 13.0022 8.58575C12.9961 8.58381 12.9894 8.58104 12.983 8.5791C12.9731 8.57605 12.9628 8.57383 12.9523 8.57133C12.9456 8.56967 12.9389 8.56773 12.9323 8.56634C12.9223 8.5644 12.912 8.56329 12.9018 8.56163C12.8948 8.56052 12.8876 8.55913 12.8804 8.55858C12.871 8.55774 12.8613 8.55747 12.8516 8.55691C12.8438 8.55663 12.8361 8.5558 12.8283 8.5558C12.8197 8.55552 12.8108 8.55608 12.8025 8.55663C12.7934 8.55691 12.7848 8.55691 12.7759 8.55774C12.769 8.55802 12.762 8.55968 12.7554 8.56052C12.7448 8.56163 12.7343 8.56301 12.724 8.56495C12.721 8.56523 12.7182 8.56606 12.7154 8.56689C12.6722 8.57577 12.6295 8.58963 12.589 8.60905C12.584 8.61126 12.5793 8.61293 12.5746 8.61542C12.5671 8.61931 12.5593 8.62402 12.5518 8.62846C12.5441 8.63317 12.5355 8.63761 12.528 8.64232C12.5224 8.64593 12.5174 8.64981 12.5122 8.65341C12.5025 8.66007 12.4928 8.667 12.4833 8.67449C12.4797 8.67726 12.4767 8.68031 12.4733 8.68309C12.4628 8.69196 12.4525 8.70056 12.4423 8.71054L8.97676 12.0909L7.64346 10.7629C7.48705 10.6068 7.25217 10.5605 7.04835 10.6456C6.84453 10.7299 6.7117 10.929 6.7117 11.15V18.1074C6.7117 18.4089 6.95629 18.6537 7.25828 18.6537H14.1968C14.4173 18.6537 14.6161 18.5212 14.7007 18.3179C14.7858 18.1144 14.7403 17.8797 14.585 17.7231L13.4675 16.593L20.761 9.29566C20.8575 9.84917 20.9082 10.4185 20.9082 10.9994C20.9077 16.463 16.463 20.9074 11 20.9074Z" fill="black"/>
</g>
</svg>
