<svg width="22" height="21" viewBox="0 0 22 21" fill="none" xmlns="http://www.w3.org/2000/svg">
<g id="Group 5419">
<g id="Group">
<path id="Vector" d="M1.94329 0C0.872083 0 0 0.874017 0 1.94551V14.6165C0 15.688 0.872083 16.562 1.94329 16.562H7.5183L9.67126 19.973C10.2797 20.9343 11.7173 20.9343 12.3258 19.973L14.4795 16.562H20.0545C21.1257 16.562 22 15.688 22 14.6165V1.94551C22 0.874017 21.1257 0 20.0545 0H1.94329ZM1.94329 0.758647H20.0545C20.7183 0.758647 21.2414 1.28093 21.2414 1.94551V14.6165C21.2414 15.2811 20.7183 15.8034 20.0545 15.8034H14.272C14.2078 15.8031 14.1445 15.8191 14.0881 15.85C14.0318 15.8808 13.9841 15.9254 13.9498 15.9797L11.6849 19.567C11.358 20.0835 10.6398 20.0835 10.3128 19.567L8.04728 15.9797C8.01316 15.9259 7.96602 15.8815 7.91021 15.8507C7.8544 15.8198 7.79172 15.8036 7.72797 15.8034H1.94329C1.27951 15.8034 0.758647 15.2811 0.758647 14.6165V1.94551C0.758647 1.28093 1.27951 0.758647 1.94329 0.758647ZM10.9678 2.47523C9.53932 2.47523 8.37252 3.63907 8.37252 5.06752C8.37252 5.94505 8.81285 6.72422 9.48382 7.19454C7.97716 7.79601 6.91302 9.26818 6.91302 10.99V13.4934C6.91342 13.5936 6.95346 13.6896 7.02439 13.7604C7.09532 13.8312 7.19138 13.871 7.2916 13.8712H14.7062C14.8068 13.8716 14.9034 13.832 14.9748 13.7612C15.0462 13.6903 15.0866 13.594 15.087 13.4934V10.99C15.087 9.25292 14.0025 7.77019 12.474 7.17899C13.1313 6.70711 13.5608 5.93512 13.5608 5.06752C13.5608 3.63907 12.3962 2.47523 10.9678 2.47523ZM15.8486 3.20054C15.7985 3.20034 15.7489 3.21006 15.7026 3.22913C15.6563 3.2482 15.6143 3.27624 15.5789 3.31164C15.5435 3.34704 15.5154 3.38909 15.4964 3.43538C15.4773 3.48167 15.4676 3.53128 15.4678 3.58134V4.4689H14.5802C14.4801 4.46929 14.3843 4.50922 14.3135 4.58C14.2427 4.65077 14.2028 4.74665 14.2024 4.84674C14.2022 4.89656 14.2118 4.94592 14.2307 4.99202C14.2496 5.03811 14.2774 5.08004 14.3124 5.1154C14.3475 5.15076 14.3892 5.17886 14.4352 5.19811C14.4811 5.21735 14.5304 5.22735 14.5802 5.22755H15.4678V6.11214C15.4676 6.1622 15.4773 6.21181 15.4964 6.2581C15.5154 6.30439 15.5435 6.34645 15.5789 6.38184C15.6143 6.41724 15.6563 6.44529 15.7026 6.46436C15.7489 6.48342 15.7985 6.49314 15.8486 6.49294C15.8984 6.49275 15.9477 6.48274 15.9936 6.4635C16.0396 6.44426 16.0813 6.41616 16.1164 6.3808C16.1515 6.34543 16.1792 6.30351 16.1981 6.25741C16.217 6.21132 16.2266 6.16195 16.2264 6.11214V5.22755H17.114C17.1638 5.22735 17.2131 5.21735 17.259 5.19811C17.305 5.17886 17.3467 5.15076 17.3818 5.1154C17.4169 5.08004 17.4446 5.03811 17.4635 4.99202C17.4824 4.94592 17.492 4.89656 17.4918 4.84674C17.4914 4.74665 17.4515 4.65077 17.3807 4.58C17.31 4.50922 17.2141 4.46929 17.114 4.4689H16.2264V3.58134C16.2266 3.53153 16.217 3.48217 16.1981 3.43607C16.1792 3.38997 16.1515 3.34805 16.1164 3.31269C16.0813 3.27733 16.0396 3.24922 15.9936 3.22998C15.9477 3.21074 15.8984 3.20073 15.8486 3.20054ZM10.9678 3.23387C11.9862 3.23387 12.8022 4.04907 12.8022 5.06751C12.8022 6.08596 11.9862 6.90486 10.9678 6.90486C9.94933 6.90486 9.13117 6.08596 9.13117 5.06751C9.13117 4.04907 9.94933 3.23387 10.9678 3.23387ZM10.9989 7.6635C12.8487 7.6635 14.3283 9.14015 14.3283 10.99V13.1126H7.67241V10.99C7.67241 9.14005 9.14905 7.6635 10.9989 7.6635Z" fill="black"/>
</g>
</g>
</svg>
