<svg width="15" height="18" viewBox="0 0 15 18" fill="none" xmlns="http://www.w3.org/2000/svg">
<circle cx="7.5" cy="8.5" r="7" stroke="#A8A8A6"/>
<path d="M7.29102 10.6387V10.252C7.29102 9.98633 7.35742 9.72461 7.49023 9.4668C7.62695 9.20898 7.79102 8.97852 7.98242 8.77539C8.17383 8.57227 8.36523 8.37305 8.55664 8.17773C8.74805 7.97852 8.91016 7.76562 9.04297 7.53906C9.17969 7.30859 9.24805 7.08008 9.24805 6.85352C9.24805 6.49805 9.11328 6.20703 8.84375 5.98047C8.57422 5.75 8.23242 5.63477 7.81836 5.63477C7.43555 5.63477 7.07031 5.73438 6.72266 5.93359C6.375 6.13281 6.08008 6.4082 5.83789 6.75977L5.11719 6.05078C5.42969 5.58984 5.83008 5.22852 6.31836 4.9668C6.80664 4.70508 7.32812 4.57422 7.88281 4.57422C8.59375 4.57422 9.18359 4.78516 9.65234 5.20703C10.125 5.62891 10.3613 6.15039 10.3613 6.77148C10.3613 6.99805 10.3242 7.21875 10.25 7.43359C10.1758 7.64844 10.0801 7.83984 9.96289 8.00781C9.84961 8.17578 9.7207 8.33984 9.57617 8.5C9.43555 8.66016 9.29297 8.8125 9.14844 8.95703C9.00781 9.10156 8.87891 9.24219 8.76172 9.37891C8.64844 9.51562 8.55469 9.66016 8.48047 9.8125C8.40625 9.96094 8.36914 10.1074 8.36914 10.252V10.6387H7.29102ZM8.36914 12.8711C8.22461 13.0117 8.04492 13.082 7.83008 13.082C7.61523 13.082 7.43555 13.0117 7.29102 12.8711C7.14648 12.7266 7.07422 12.5488 7.07422 12.3379C7.07422 12.123 7.14648 11.9434 7.29102 11.7988C7.43555 11.6543 7.61523 11.582 7.83008 11.582C8.04492 11.582 8.22461 11.6543 8.36914 11.7988C8.51367 11.9434 8.58594 12.123 8.58594 12.3379C8.58594 12.5488 8.51367 12.7266 8.36914 12.8711Z" fill="#A8A8A6"/>
</svg>
