<svg width="22" height="24" viewBox="0 0 22 24" fill="none" xmlns="http://www.w3.org/2000/svg">
<g id="Group 5420">
<path id="Vector" fill-rule="evenodd" clip-rule="evenodd" d="M19.1378 20.3349C19.1649 20.5511 19.011 20.7481 18.7936 20.7753C18.5774 20.8024 18.3804 20.6474 18.3533 20.4311L18.3046 20.0338C16.7333 22.7122 13.7604 24.2134 10.6722 23.8702C8.46696 23.6246 6.45987 22.4495 5.16704 20.6438C5.04025 20.4661 5.081 20.2204 5.25761 20.0925C5.43534 19.9657 5.68098 20.0065 5.80891 20.1842C6.97152 21.8076 8.77595 22.8649 10.7594 23.0858C13.6009 23.4005 16.2849 22.008 17.6638 19.5695L17.1996 19.7688C16.9992 19.8548 16.7672 19.762 16.6811 19.5616C16.5951 19.3612 16.6879 19.1292 16.8883 19.0431L18.3905 18.3978C18.6316 18.2937 18.9067 18.451 18.9384 18.7125L19.1378 20.3349ZM20.6298 16.0536C20.6298 16.4159 20.3344 16.7113 19.9721 16.7113H17.7714C18.0102 16.4713 18.0736 16.1204 17.9321 15.8113C17.7849 15.4909 17.4555 15.3042 17.1125 15.3472L13.7887 15.7671L13.7898 15.0008C13.791 14.2559 13.4344 13.9864 13.1355 13.8902C12.6216 13.7261 12.0702 14.0113 11.9061 14.5264L11.5914 15.5147L11.5925 12.0507C11.5925 11.8707 11.5835 11.6907 11.5676 11.5141H11.5982C11.5982 9.19107 13.3608 7.2733 15.6193 7.02552L14.4589 12.371C14.4329 12.4899 14.4634 12.6133 14.5404 12.7061L15.8106 14.2434C15.9679 14.4336 16.2611 14.4336 16.4196 14.2434L17.6898 12.7061C17.7668 12.6133 17.7973 12.4887 17.7713 12.371L16.6109 7.02552C18.8683 7.27344 20.632 9.19116 20.632 11.5141L20.6298 16.0536ZM15.4156 17.2887C16.1945 17.129 16.782 16.5664 17.211 16.1555C17.2235 16.143 17.2065 16.1283 17.2065 16.1283L13.4425 16.6071C13.2059 16.6366 12.9976 16.452 12.9987 16.2154L13.001 15.0007C13.001 14.8796 12.9874 14.6736 12.8969 14.6441C12.7995 14.6136 12.6908 14.669 12.6591 14.7675L12.109 16.495C12.0818 16.5822 12.0241 16.6569 11.9471 16.7067C11.775 16.8188 11.5848 16.9026 11.3833 16.9569C10.6316 17.1607 8.16819 17.1233 5.49443 17.0633C4.8401 17.0486 4.27408 17.035 3.93332 17.035C3.31635 17.035 2.81484 16.5335 2.81484 15.9165V15.8215L0.790712 15.8203V17.9452C0.790712 18.3731 1.13599 18.7965 1.56731 18.758C2.87709 18.6425 4.15407 18.5475 5.38929 18.4557C8.89421 18.1965 12.2032 17.9497 15.416 17.2886L15.4156 17.2887ZM0.790478 12.0507C0.790478 10.5111 1.4901 9.13117 2.58705 8.2119C2.73195 8.39077 2.8146 8.61491 2.8146 8.84812L2.81573 15.0314H0.790469L0.790478 12.0507ZM3.35461 3.56368C3.35461 2.07955 4.56139 0.872765 6.04552 0.872765C7.52966 0.872765 8.73644 2.07955 8.73644 3.56368C8.73644 5.04782 7.52966 6.2546 6.04552 6.2546C4.56139 6.2546 3.35461 5.04782 3.35461 3.56368ZM6.33527 8.15423L7.30546 12.6248L6.33527 13.7987L5.36509 12.6248L6.33527 8.15423ZM10.8035 12.0507V15.6608C10.8035 15.9076 10.6824 16.1385 10.482 16.2812C9.26392 16.3582 6.99186 16.3072 5.51326 16.2733C4.85329 16.2585 4.28384 16.245 3.93405 16.245C3.75292 16.245 3.60462 16.0978 3.60462 15.9155V8.84684C3.60462 8.44836 3.46991 8.06459 3.23216 7.75328C3.97479 7.30837 4.84195 7.05027 5.76798 7.04462L4.55328 12.6437C4.52724 12.7626 4.55781 12.8848 4.63479 12.9788L6.03174 14.6689C6.1891 14.8591 6.48231 14.8591 6.6408 14.6689L8.03776 12.9788C8.11474 12.8848 8.1453 12.7614 8.11927 12.6437L6.93059 7.17358C9.14603 7.68865 10.8033 9.67882 10.8033 12.0505L10.8035 12.0507ZM14.2099 4.30414C14.2099 3.25472 15.0646 2.40002 16.114 2.40002C17.1646 2.40002 18.0182 3.25472 18.0182 4.30414C18.0182 5.35469 17.1635 6.20939 16.114 6.20939C15.0646 6.20826 14.2099 5.35356 14.2099 4.30414ZM16.114 8.46432L15.2706 12.3518L16.114 13.3718L16.9574 12.3518L16.114 8.46432ZM17.7283 6.45944C18.3838 5.96813 18.8083 5.18362 18.8083 4.304C18.8083 2.81873 17.5993 1.61082 16.114 1.61082C14.6288 1.61082 13.4197 2.81873 13.4197 4.304C13.4197 5.18475 13.8442 5.96813 14.4997 6.45944C12.9228 6.96434 11.6639 8.18695 11.1125 9.74237C10.4774 8.2843 9.25815 7.13637 7.75243 6.5942C8.80976 5.99647 9.52524 4.86214 9.52524 3.56252C9.52524 1.64255 7.96413 0.0813599 6.04408 0.0813599C4.12523 0.0813599 2.56291 1.64246 2.56291 3.56252C2.56291 4.78855 3.20138 5.86852 4.1625 6.489C1.75913 7.1954 0 9.42098 0 12.0498V17.9457C0 18.8388 0.73698 19.6245 1.63582 19.5452C6.30113 19.1343 11.1621 18.9679 15.5738 18.0622C16.064 17.9615 16.484 17.7464 16.8417 17.5007H19.9719C20.77 17.5007 21.4198 16.8509 21.4198 16.0528V11.5145C21.4198 9.15073 19.8666 7.14359 17.7283 6.45993L17.7283 6.45944Z" fill="black"/>
</g>
</svg>
