<svg width="16" height="15" viewBox="0 0 16 15" fill="none" xmlns="http://www.w3.org/2000/svg">
<g id="Group 5414">
<g id="Group">
<path id="Vector" fill-rule="evenodd" clip-rule="evenodd" d="M7.54133 1C3.93122 0.999997 1 3.93939 1 7.55736C0.999998 11.1753 3.93122 14.1147 7.54133 14.1147C10.5362 14.1147 13.1516 12.0727 13.8847 9.16264C13.8925 9.13177 13.8941 9.09966 13.8895 9.06816C13.8848 9.03666 13.874 9.00638 13.8576 8.97908C13.8412 8.95178 13.8196 8.92799 13.794 8.90909C13.7684 8.89018 13.7393 8.87653 13.7083 8.86893C13.6462 8.85355 13.5805 8.86349 13.5257 8.89655C13.4708 8.92962 13.4314 8.98311 13.416 9.04525C12.7363 11.7438 10.317 13.6315 7.54133 13.6315C4.19277 13.6315 1.48276 10.9151 1.48276 7.55736C1.48276 4.19965 4.19277 1.48323 7.54133 1.48323C10.1767 1.48323 12.4901 3.18607 13.2991 5.6678L11.4506 4.88661C11.3917 4.86196 11.3255 4.86162 11.2664 4.88565C11.2073 4.90968 11.1601 4.95613 11.1352 5.01484C11.1228 5.04406 11.1162 5.07544 11.1159 5.10719C11.1157 5.13894 11.1217 5.17043 11.1336 5.19985C11.1455 5.22928 11.1631 5.25607 11.1854 5.27869C11.2076 5.30131 11.2342 5.31931 11.2634 5.33166L13.6513 6.34055C13.7101 6.36519 13.7763 6.36554 13.8354 6.34151C13.8945 6.31748 13.9417 6.27103 13.9667 6.21232L14.9803 3.82256C14.9928 3.79343 14.9995 3.76211 15 3.7304C15.0004 3.69869 14.9946 3.6672 14.9829 3.63773C14.9711 3.60826 14.9537 3.5814 14.9316 3.55867C14.9095 3.53594 14.8831 3.5178 14.8539 3.50527C14.8247 3.49279 14.7932 3.48622 14.7614 3.48594C14.7296 3.48566 14.698 3.49167 14.6685 3.50363C14.639 3.51559 14.6122 3.53327 14.5896 3.55564C14.567 3.57801 14.549 3.60463 14.5367 3.63398L13.7498 5.49006C12.8689 2.82794 10.3753 1 7.54133 1ZM7.4164 3.65849C6.51609 3.65849 5.7932 4.41512 5.7932 5.33543V6.23872H5.16052C5.0965 6.23898 5.03521 6.26465 4.99012 6.31009C4.94503 6.35554 4.91984 6.41703 4.92008 6.48105V10.3031C4.92021 10.3668 4.94557 10.428 4.99062 10.4731C5.03567 10.5182 5.09675 10.5437 5.16052 10.544H9.7312C9.79497 10.5437 9.85605 10.5182 9.9011 10.4731C9.94615 10.428 9.97151 10.3668 9.97164 10.3031V6.48105C9.97188 6.41703 9.94669 6.35554 9.9016 6.31009C9.85651 6.26465 9.79522 6.23898 9.7312 6.23872H9.04006L9.04147 5.33543C9.04147 4.41513 8.31673 3.65849 7.4164 3.65849ZM7.4164 4.13984C8.04751 4.13984 8.55871 4.66448 8.55871 5.33543V6.23872H6.27597V5.33543C6.27597 4.66448 6.78532 4.13984 7.4164 4.13984ZM5.40284 6.72148H9.48888V10.0607H5.40284V6.72148Z" fill="black" stroke="black" stroke-width="0.2"/>
</g>
</g>
</svg>
