<svg width="16" height="15" viewBox="0 0 16 15" fill="none" xmlns="http://www.w3.org/2000/svg">
<g id="Group 5416">
<path id="Vector" d="M1.36364 12.6091H8.52727V12.0273H4.23636C4.13636 12.0273 4.05455 11.9455 4.05455 11.8455V6.10909H1.36364V12.6091ZM8.52727 12.9727H1.36364V14.0364H8.52727V12.9727ZM4.41818 10.2364H11.5818V9.65455H7.29091C7.19091 9.65455 7.10909 9.57273 7.10909 9.47273V3.73636H4.41818V10.2364ZM11.5818 10.6H4.41818V11.6636C6.80606 11.6636 9.19394 11.6636 11.5818 11.6636V10.6ZM7.47273 7.86364H14.6364V1.36364H7.47273V7.86364ZM14.6364 8.22727H7.47273V9.29091C9.86061 9.29091 12.2485 9.29091 14.6364 9.29091V8.22727ZM10.0727 2.51818C10.0727 2.41818 10.1545 2.33636 10.2545 2.33636C10.3545 2.33636 10.4364 2.41818 10.4364 2.51818V3.97273C10.4364 4.07273 10.3545 4.15455 10.2545 4.15455C10.1545 4.15455 10.0727 4.07273 10.0727 3.97273V2.51818ZM9.3 2.51818C9.3 2.41818 9.38182 2.33636 9.48182 2.33636C9.58182 2.33636 9.66364 2.41818 9.66364 2.51818V3.97273C9.66364 4.07273 9.58182 4.15455 9.48182 4.15455C9.38182 4.15455 9.3 4.07273 9.3 3.97273V2.51818ZM8.52727 2.51818C8.52727 2.41818 8.60909 2.33636 8.70909 2.33636C8.80909 2.33636 8.89091 2.41818 8.89091 2.51818V3.97273C8.89091 4.07273 8.80909 4.15455 8.70909 4.15455C8.60909 4.15455 8.52727 4.07273 8.52727 3.97273V2.51818ZM7.29091 1H14.8182C14.9182 1 15 1.08182 15 1.18182V9.47273C15 9.57273 14.9182 9.65455 14.8182 9.65455H11.9455V11.8455C11.9455 11.9455 11.8636 12.0273 11.7636 12.0273H8.89091V14.2182C8.89091 14.3182 8.80909 14.4 8.70909 14.4H1.18182C1.08182 14.4 1 14.3182 1 14.2182V5.92727C1 5.82727 1.08182 5.74545 1.18182 5.74545H4.05455V3.55455C4.05455 3.45455 4.13636 3.37273 4.23636 3.37273H7.10909V1.18182C7.10909 1.08182 7.19091 1 7.29091 1ZM6.24545 4.89091C6.24545 4.79091 6.32727 4.70909 6.42727 4.70909C6.52727 4.70909 6.60909 4.79091 6.60909 4.89091V6.34545C6.60909 6.44545 6.52727 6.52727 6.42727 6.52727C6.32727 6.52727 6.24545 6.44545 6.24545 6.34545V4.89091ZM5.47273 4.89091C5.47273 4.79091 5.55455 4.70909 5.65455 4.70909C5.75455 4.70909 5.83636 4.79091 5.83636 4.89091V6.34545C5.83636 6.44545 5.75455 6.52727 5.65455 6.52727C5.55455 6.52727 5.47273 6.44545 5.47273 6.34545V4.89091ZM2.41818 7.26364C2.41818 7.16364 2.5 7.08182 2.6 7.08182C2.7 7.08182 2.78182 7.16364 2.78182 7.26364V8.71818C2.78182 8.81818 2.7 8.9 2.6 8.9C2.5 8.9 2.41818 8.81818 2.41818 8.71818V7.26364Z" fill="black" stroke="black" stroke-width="0.2"/>
</g>
</svg>
