<svg width="24" height="22" viewBox="0 0 24 22" fill="none" xmlns="http://www.w3.org/2000/svg">
<g id="Group 5422">
<g id="Group">
<path id="Vector" d="M6.22677 11.9933V3.71017C6.22677 3.5701 6.34074 3.45614 6.4808 3.45614H9.52285L9.7115 1.7742C9.7268 1.63534 9.85246 1.53487 9.99133 1.55016L13.2181 1.91216L12.857 0.564337L0.564337 3.85802L5.10118 20.7895L6.22677 20.4881V17.393C5.81048 17.2505 5.43769 17.0148 5.13327 16.7104C4.61711 16.1942 4.2977 15.481 4.2977 14.6931C4.2977 13.9052 4.61711 13.192 5.13327 12.6759C5.43769 12.3715 5.81048 12.1357 6.22677 11.9933ZM10.4691 19.1067C10.329 19.1067 10.2151 18.9927 10.2151 18.8527C10.2151 18.7126 10.329 18.5986 10.4691 18.5986H17.611C17.7511 18.5986 17.865 18.7126 17.865 18.8527C17.865 18.9927 17.7511 19.1067 17.611 19.1067H10.4691ZM10.4691 17.9658C10.329 17.9658 10.2151 17.8519 10.2151 17.7118C10.2151 17.5717 10.329 17.4578 10.4691 17.4578H17.611C17.7511 17.4578 17.865 17.5717 17.865 17.7118C17.865 17.8519 17.7511 17.9658 17.611 17.9658H10.4691ZM13.0979 16.4167C12.9578 16.4167 12.8438 16.3028 12.8438 16.1627C12.8438 16.0227 12.9578 15.9087 13.0979 15.9087H17.611C17.7511 15.9087 17.865 16.0227 17.865 16.1627C17.865 16.3028 17.7511 16.4167 17.611 16.4167H13.0979ZM13.0979 15.1898C12.9578 15.1898 12.8438 15.0758 12.8438 14.9358C12.8438 14.7957 12.9578 14.6817 13.0979 14.6817H17.611C17.7511 14.6817 17.865 14.7957 17.865 14.9358C17.865 15.0758 17.7511 15.1898 17.611 15.1898H13.0979ZM13.0979 13.9628C12.9578 13.9628 12.8438 13.8489 12.8438 13.7088C12.8438 13.5687 12.9578 13.4548 13.0979 13.4548H17.611C17.7511 13.4548 17.865 13.5687 17.865 13.7088C17.865 13.8489 17.7511 13.9628 17.611 13.9628H13.0979ZM11.3616 16.4173C11.2216 16.4173 11.1076 16.3034 11.1076 16.1633C11.1076 16.0233 11.2216 15.9093 11.3616 15.9093H12.056C12.196 15.9093 12.31 16.0233 12.31 16.1633C12.31 16.3034 12.196 16.4173 12.056 16.4173H11.3616ZM11.3616 15.1904C11.2216 15.1904 11.1076 15.0764 11.1076 14.9364C11.1076 14.7963 11.2216 14.6823 11.3616 14.6823H12.056C12.196 14.6823 12.31 14.7963 12.31 14.9364C12.31 15.0764 12.196 15.1904 12.056 15.1904H11.3616ZM11.3616 13.9634C11.2216 13.9634 11.1076 13.8495 11.1076 13.7094C11.1076 13.5693 11.2216 13.4554 11.3616 13.4554H12.056C12.196 13.4554 12.31 13.5693 12.31 13.7094C12.31 13.8495 12.196 13.9634 12.056 13.9634H11.3616ZM13.0979 12.7359C12.9578 12.7359 12.8438 12.6219 12.8438 12.4818C12.8438 12.3418 12.9578 12.2278 13.0979 12.2278H17.611C17.7511 12.2278 17.865 12.3418 17.865 12.4818C17.865 12.6219 17.7511 12.7359 17.611 12.7359H13.0979ZM11.3616 12.7365C11.2216 12.7365 11.1076 12.6225 11.1076 12.4824C11.1076 12.3424 11.2216 12.2284 11.3616 12.2284H12.056C12.196 12.2284 12.31 12.3424 12.31 12.4824C12.31 12.6225 12.196 12.7365 12.056 12.7365H11.3616ZM8.58442 10.8257C8.44435 10.8257 8.33039 10.7117 8.33039 10.5717C8.33039 10.4316 8.44435 10.3176 8.58442 10.3176H17.611C17.7511 10.3176 17.865 10.4316 17.865 10.5717C17.865 10.7117 17.7511 10.8257 17.611 10.8257H8.58442ZM8.58442 9.50306C8.44435 9.50306 8.33039 9.38909 8.33039 9.24903C8.33039 9.10897 8.44435 8.995 8.58442 8.995H17.611C17.7511 8.995 17.865 9.10897 17.865 9.24903C17.865 9.38909 17.7511 9.50306 17.611 9.50306H8.58442ZM8.58442 8.18043C8.44435 8.18043 8.33039 8.06646 8.33039 7.9264C8.33039 7.78634 8.44435 7.67237 8.58442 7.67237H17.611C17.7511 7.67237 17.865 7.78634 17.865 7.9264C17.865 8.06646 17.7511 8.18043 17.611 8.18043H8.58442ZM11.99 6.34973C12.13 6.34973 12.244 6.4637 12.244 6.60376C12.244 6.74383 12.13 6.85779 11.99 6.85779H8.58442C8.44435 6.85779 8.33039 6.74383 8.33039 6.60376C8.33039 6.4637 8.44435 6.34973 8.58442 6.34973H11.99ZM7.40454 16.0601V16.202C7.40454 16.3421 7.29057 16.456 7.15051 16.456C7.01045 16.456 6.89648 16.3421 6.89648 16.202V16.0601C6.79181 16.0218 6.69764 15.9597 6.62056 15.8811C6.4859 15.7437 6.40252 15.5551 6.40252 15.3475C6.40252 15.2075 6.51649 15.0935 6.65655 15.0935C6.79661 15.0935 6.91058 15.2075 6.91058 15.3475C6.91058 15.418 6.93787 15.4813 6.98166 15.526C7.02425 15.5695 7.08453 15.5971 7.15051 15.5971C7.21619 15.5971 7.27618 15.5698 7.31907 15.526C7.36285 15.4813 7.39045 15.418 7.39045 15.3475C7.39045 15.1541 7.2009 15.029 7.01165 14.9043C6.70724 14.7036 6.40252 14.5027 6.40252 14.039C6.40252 13.8315 6.4862 13.6422 6.62056 13.5055C6.69764 13.4269 6.79181 13.3648 6.89648 13.3264V13.1845C6.89648 13.0445 7.01045 12.9305 7.15051 12.9305C7.29057 12.9305 7.40454 13.0445 7.40454 13.1845V13.3264C7.50921 13.3648 7.60339 13.4269 7.68047 13.5055C7.81513 13.6428 7.8985 13.8315 7.8985 14.039C7.8985 14.1791 7.78454 14.293 7.64448 14.293C7.50441 14.293 7.39045 14.1791 7.39045 14.039C7.39045 13.9685 7.36315 13.9052 7.31937 13.8606C7.27648 13.8168 7.21649 13.7895 7.15051 13.7895C7.08453 13.7895 7.02425 13.8171 6.98166 13.8606C6.93817 13.9049 6.91058 13.9685 6.91058 14.039C6.91058 14.2322 7.10013 14.3575 7.28937 14.482C7.59349 14.6826 7.8985 14.8839 7.8985 15.3475C7.8985 15.5548 7.81513 15.744 7.68016 15.8811C7.60309 15.9597 7.50921 16.0218 7.40454 16.0601ZM7.15051 17.0379C7.79773 17.0379 8.38437 16.7751 8.80845 16.3511C9.23254 15.927 9.49526 15.3403 9.49526 14.6931C9.49526 14.0459 9.23254 13.4593 8.80845 13.0352C8.38437 12.6111 7.79773 12.3484 7.15051 12.3484C6.50329 12.3484 5.91665 12.6111 5.49257 13.0352C5.06849 13.4593 4.80576 14.0459 4.80576 14.6931C4.80576 15.3403 5.06849 15.927 5.49257 16.3511C5.93615 16.7946 6.52938 17.0379 7.15051 17.0379ZM6.73483 17.5159V21.4919H19.4606V3.9642H6.73483V11.8703C6.87039 11.8505 7.00925 11.8403 7.15051 11.8403C7.93839 11.8403 8.6516 12.1597 9.16775 12.6759C9.68391 13.192 10.0033 13.9052 10.0033 14.6931C10.0033 15.481 9.68391 16.1942 9.16775 16.7104C8.6516 17.2265 7.93839 17.5459 7.15051 17.5459C7.00925 17.5459 6.87039 17.5357 6.73483 17.5159ZM10.033 3.45614H19.7146C19.8547 3.45614 19.9687 3.5701 19.9687 3.71017V20.8183L20.8804 20.9206L22.8344 3.50082C18.6181 3.02785 14.4028 2.55489 10.1872 2.08222L10.033 3.45614ZM19.9687 21.3285V21.746C19.9687 21.886 19.8547 22 19.7146 22H6.4808C6.34074 22 6.22677 21.886 6.22677 21.746V21.013L4.98721 21.3453C4.85195 21.3813 4.71279 21.3009 4.6768 21.1656L0.00859076 3.74406C-0.0273993 3.60879 0.0529784 3.46963 0.188241 3.43364L12.971 0.00859075C13.1063 -0.0273993 13.2454 0.0529785 13.2814 0.188241L13.7598 1.97275L23.1424 3.02516C23.2812 3.04045 23.3817 3.16612 23.3664 3.30498L21.3561 21.2286C21.3408 21.3675 21.2151 21.4679 21.0763 21.4527L19.9687 21.3285Z" fill="black"/>
</g>
</g>
</svg>
