<svg width="32" height="32" viewBox="0 0 32 32" fill="none" xmlns="http://www.w3.org/2000/svg">
<g clip-path="url(#clip0_1427_2072)">
<path d="M15.7322 30.4878C23.8729 30.4878 30.4722 23.8885 30.4722 15.7478C30.4722 7.60714 23.8729 1.00781 15.7322 1.00781C7.59152 1.00781 0.992188 7.60714 0.992188 15.7478C0.992188 23.8885 7.59152 30.4878 15.7322 30.4878Z" fill="#FDDE00"/>
<path d="M8.55914 11.4303C8.55914 11.4303 7.79911 12.3919 8.05245 16.739C8.05245 16.739 6.38844 20.9998 6.95271 23.1762C7.51698 25.3469 9.71646 25.2375 9.71646 25.2375C9.71646 25.2375 13.246 28.341 15.9522 25.606C18.6641 22.8653 13.6951 12.2537 13.6951 12.2537L13.0733 8.58594C13.0733 8.58594 12.3938 9.12141 12.4802 12.651C12.5666 16.1805 11.0983 13.6931 11.0983 13.6931L8.55914 11.4303Z" fill="#3C2D0C"/>
<path d="M8.84121 15.271L7.90845 17.8965L7.56873 19.7333C7.56873 19.7333 6.41141 23.8271 11.1846 23.7695C11.1846 23.7695 14.91 27.1033 17.3397 24.8693L17.9904 24.1611L19.1189 22.4107L20.9844 16.8486C20.9844 16.8486 20.3914 13.0369 16.6373 11.4593C16.6373 11.4593 16.3264 11.2923 15.7621 11.5169C15.7621 11.5169 14.2075 8.01613 13.2229 8.44221C13.2229 8.44221 12.3765 8.89132 13.1078 12.3403L11.7835 12.9333C11.7835 12.9333 10.3325 10.1811 8.99091 10.7338C7.74147 11.2348 8.84121 15.271 8.84121 15.271Z" fill="#E78C19"/>
<path d="M13.665 10.1568L13.7801 11.6826C13.7801 11.6826 13.8665 12.5578 14.7935 12.2469C15.0584 12.1605 15.2887 11.9763 15.2657 11.6769C15.2484 11.4523 15.0929 11.245 14.9893 11.055C14.7993 10.6923 14.6438 10.3065 14.4193 9.95528C14.3041 9.77679 14.068 9.3795 13.8089 9.42556C13.8089 9.42556 13.6132 9.36798 13.665 10.1568Z" fill="#EFB99D"/>
<path d="M9.58763 11.8803C9.6049 11.8688 9.98491 11.3909 10.7737 12.554C11.5626 13.7171 11.4819 13.5674 11.4819 13.5674C11.4819 13.5674 11.908 14.0337 11.0386 14.6325C10.8486 14.7707 10.6413 14.8859 10.4225 14.978C10.2843 15.0298 10.1404 15.0586 9.99643 15.0586C9.82945 15.0529 9.7546 14.9665 9.7143 14.811C9.58187 14.3044 9.43216 13.7977 9.35731 13.2795C9.29973 12.8764 9.18458 12.1394 9.58763 11.8803Z" fill="#EFB99D"/>
<path d="M18.7533 14.2164C18.7533 14.4928 18.3502 14.7174 17.8493 14.7174C17.3484 14.7174 16.9453 14.4928 16.9453 14.2164C16.9453 13.9401 17.3599 13.5312 17.855 13.5312C18.3502 13.5312 18.7533 13.9401 18.7533 14.2164Z" fill="#FBFBFB"/>
<path d="M13.5483 16.3763C13.8161 15.9031 13.7864 15.3798 13.482 15.2075C13.1775 15.0353 12.7137 15.2792 12.4458 15.7525C12.178 16.2257 12.2077 16.749 12.5122 16.9213C12.8166 17.0936 13.2805 16.8496 13.5483 16.3763Z" fill="#FBFBFB"/>
<path d="M14.8233 18.668L17.2935 17.384C17.2935 17.384 20.3681 15.7775 21.1166 17.0155C21.8652 18.2534 21.1166 20.1477 21.1166 20.1477C21.1166 20.1477 20.7942 22.3645 18.5314 22.5602L17.3165 22.7272L15.7619 22.7675C15.7619 22.7675 13.263 22.9115 11.4262 21.5526L10.8447 20.8444C10.8447 20.8444 9.67586 19.238 10.4935 18.0807C11.3111 16.9233 14.1094 18.714 14.1094 18.714C14.1094 18.714 14.5009 18.9271 14.8233 18.668Z" fill="#FBFBFB"/>
<path d="M20.4212 12.2642C20.7487 12.2642 21.0142 11.9987 21.0142 11.6712C21.0142 11.3436 20.7487 11.0781 20.4212 11.0781C20.0936 11.0781 19.8281 11.3436 19.8281 11.6712C19.8281 11.9987 20.0936 12.2642 20.4212 12.2642Z" fill="#E72D36"/>
<path d="M19.1165 10.8111C19.444 10.8111 19.7095 10.5456 19.7095 10.2181C19.7095 9.89052 19.444 9.625 19.1165 9.625C18.789 9.625 18.5234 9.89052 18.5234 10.2181C18.5234 10.5456 18.789 10.8111 19.1165 10.8111Z" fill="#E72D36"/>
<path d="M17.0071 10.3424C17.3347 10.3424 17.6002 10.0768 17.6002 9.74931C17.6002 9.42177 17.3347 9.15625 17.0071 9.15625C16.6796 9.15625 16.4141 9.42177 16.4141 9.74931C16.4141 10.0768 16.6796 10.3424 17.0071 10.3424Z" fill="#E72D36"/>
<path d="M17.4728 5.54293C17.5995 7.29331 17.3461 8.87671 16.92 8.87671C16.494 8.87671 15.9297 7.16663 15.9297 5.54293C15.9297 4.87502 16.2809 4.76562 16.707 4.76562C17.1388 4.76563 17.4267 4.87502 17.4728 5.54293Z" fill="#E72D36"/>
<path d="M21.4033 6.64107C20.7584 8.27053 19.8429 9.58907 19.4629 9.40482C19.0829 9.22057 19.3132 7.43565 20.0214 5.97316C20.3151 5.36859 20.6778 5.42617 21.0578 5.61042C21.4379 5.80043 21.6509 6.01922 21.4033 6.64107Z" fill="#E72D36"/>
<path d="M24.2113 9.80653C22.7891 10.8372 21.3151 11.459 21.0905 11.0963C20.866 10.7335 22.0233 9.35742 23.3994 8.49951C23.9694 8.14828 24.2458 8.39011 24.4704 8.74709C24.6892 9.10983 24.7525 9.40924 24.2113 9.80653Z" fill="#E72D36"/>
<path d="M14.7017 16.9503C14.6499 16.956 14.5981 16.9618 14.5463 16.9675C14.552 16.9848 14.5578 17.0021 14.5578 17.0251C14.5578 17.2036 14.2757 17.3533 13.9244 17.3648C13.9244 17.3821 13.9187 17.3936 13.9244 17.4109C13.9417 17.6297 14.3217 17.7794 14.7651 17.7448C15.2142 17.7103 15.5654 17.503 15.5481 17.2842C15.5251 17.0654 15.1508 16.9157 14.7017 16.9503Z" fill="black"/>
<path d="M17.8267 16.1768C17.7749 16.1826 17.7231 16.1883 17.6713 16.1941C17.677 16.2114 17.6828 16.2287 17.6828 16.2517C17.6828 16.4302 17.4007 16.5799 17.0494 16.5914C17.0494 16.6087 17.0437 16.6202 17.0494 16.6375C17.0667 16.8563 17.4467 17.006 17.8901 16.9714C18.3392 16.9369 18.6904 16.7296 18.6731 16.5108C18.6559 16.292 18.2758 16.1423 17.8267 16.1768Z" fill="black"/>
<path d="M18.8538 17.0889C18.8538 17.0889 17.6159 17.4517 17.6908 18.1484C17.7656 18.845 19.2569 19.2078 19.2569 19.2078C19.2569 19.2078 19.6599 19.369 19.8902 18.9832C20.1206 18.6032 20.4603 18.085 20.3681 17.3423C20.3681 17.3423 20.3394 16.7895 18.8538 17.0889Z" fill="black"/>
</g>
<defs>
<clipPath id="clip0_1427_2072">
<rect width="29.48" height="29.48" fill="white" transform="translate(1 1)"/>
</clipPath>
</defs>
</svg>
