<svg width="148" height="150" viewBox="0 0 148 150" fill="none" xmlns="http://www.w3.org/2000/svg">
<g clip-path="url(#clip0_5_2)">
<path d="M74 150C114.869 150 148 116.421 148 75C148 33.5786 114.869 0 74 0C33.1309 0 0 33.5786 0 75C0 116.421 33.1309 150 74 150Z" fill="#988430"/>
<path d="M74.0002 147.598C113.56 147.598 145.63 115.094 145.63 74.9999C145.63 34.9054 113.56 2.40234 74.0002 2.40234C34.4403 2.40234 2.37061 34.9054 2.37061 74.9999C2.37061 115.094 34.4403 147.598 74.0002 147.598Z" fill="#7A6A2A"/>
<path d="M73.9998 146.068C112.726 146.068 144.12 114.25 144.12 75C144.12 35.7502 112.726 3.93201 73.9998 3.93201C35.2734 3.93201 3.87939 35.7502 3.87939 75C3.87939 114.25 35.2734 146.068 73.9998 146.068Z" fill="#BA9F33"/>
<path fill-rule="evenodd" clip-rule="evenodd" d="M32.3541 66.9904C31.935 66.6024 31.4922 66.2136 31.0849 65.8256C30.6776 65.4376 30.2593 65.0488 29.8401 64.6608L28.5946 63.4608C28.3909 63.2544 28.1754 63.0728 27.9718 62.8656C27.7681 62.684 27.5289 62.4776 27.3253 62.2952C25.6724 60.7056 24.0101 59.116 22.3801 57.5256C24.0685 59.0912 25.7214 60.6456 27.4098 62.2344L27.9962 62.8296C28.1999 63.0352 28.4154 63.2176 28.619 63.424L29.8638 64.5888C30.2829 64.9768 30.6902 65.3656 31.1094 65.7888C31.5285 66.212 31.9358 66.6016 32.3549 66.9888L32.3541 66.9904ZM10.4178 66.7504C10.4178 66.7504 16.4286 67.3808 19.3625 67.8056C22.0802 68.1944 30.5821 69.5168 30.5821 69.5168L10.4178 66.7504ZM10.4178 66.7504C12.1062 66.896 13.7945 67.0776 15.4829 67.26C16.3449 67.3448 17.1713 67.4416 17.9977 67.5264L19.2662 67.6728C19.6853 67.7328 20.0926 67.7936 20.5118 67.8544L25.5414 68.6672L28.0554 69.092C28.8819 69.2376 29.7083 69.396 30.5703 69.5416C29.7438 69.4568 28.8819 69.3352 28.0554 69.2136L25.5414 68.8496L20.5118 68.0976C20.0926 68.0368 19.6853 67.9512 19.2662 67.8912L17.997 67.7432C17.1705 67.6584 16.3086 67.5368 15.4821 67.4392C13.7938 67.2336 12.1054 67.0144 10.417 66.748L10.4178 66.7504ZM29.9838 71.104C29.9838 71.104 23.5657 72.7552 21.3982 73.3864C19.267 73.9808 12.8126 75.9712 12.8126 75.9712L29.983 71.1048L29.9838 71.104Z" fill="#CFB66C"/>
<path fill-rule="evenodd" clip-rule="evenodd" d="M29.9831 71.104C28.5583 71.5288 27.1415 71.9416 25.6962 72.3304L21.4093 73.4952C19.9846 73.92 18.5677 74.3328 17.1469 74.7576L15.0157 75.352C14.3093 75.5584 13.591 75.74 12.8608 75.9472C13.5665 75.7072 14.2856 75.4616 14.992 75.2552L17.1232 74.564C18.548 74.1144 19.9648 73.6896 21.3856 73.2408C22.8341 72.8768 24.2596 72.488 25.708 72.136C27.0846 71.784 28.5338 71.4328 29.9831 71.1048V71.104ZM13.711 79.976C14.4166 79.7088 22.5594 75.8624 24.4514 74.964C25.3986 74.5144 28.1518 73.524 28.1518 73.524L13.711 79.976Z" fill="#CFB66C"/>
<path fill-rule="evenodd" clip-rule="evenodd" d="M13.7107 79.976C14.3327 79.736 14.92 79.4424 15.5183 79.1632L17.2904 78.3256L20.8471 76.5904C22.0311 76.02 23.182 75.3904 24.4031 74.8544C25.0258 74.588 25.6486 74.3696 26.2706 74.1632L27.2178 73.86C27.5407 73.7752 27.8406 73.6776 28.165 73.5928C26.981 74.1632 25.7347 74.6488 24.5491 75.2064C23.3651 75.8016 22.1542 76.2872 20.9324 76.8208L17.3164 78.4344C16.1024 78.9328 14.9184 79.4664 13.71 79.976H13.7107ZM14.5001 83.336C14.5001 83.336 21.8756 78.9552 24.4141 77.5472C25.7433 76.7952 30.0421 74.6344 30.0421 74.6344L14.5001 83.336Z" fill="#CFB66C"/>
<path fill-rule="evenodd" clip-rule="evenodd" d="M14.501 83.3377C15.7458 82.5609 17.015 81.7721 18.2843 80.9713L20.1787 79.8057C20.8251 79.4177 21.4479 79.0537 22.107 78.6657C22.7535 78.2769 23.3762 77.8889 24.0345 77.5249C24.3479 77.3287 24.6763 77.1583 25.0165 77.0153L26.0221 76.5057C27.3513 75.8505 28.6806 75.1825 30.0816 74.6121C28.8124 75.4257 27.5068 76.1177 26.2021 76.8329C25.5556 77.1969 24.8965 77.5249 24.25 77.8889C23.6036 78.2529 22.9808 78.6417 22.3217 78.9937C21.6752 79.3817 21.0524 79.7457 20.3941 80.0977L18.4421 81.1777L14.5026 83.3377H14.501ZM29.983 75.5945C29.983 75.5945 25.3969 79.1625 23.9122 80.3033C22.4275 81.4441 18.0569 84.6481 18.0569 84.6481L29.983 75.5945Z" fill="#CFB66C"/>
<path fill-rule="evenodd" clip-rule="evenodd" d="M56.3023 104.369L53.9556 99.8664L55.3203 94.2352L65.0552 90.4248L60.912 81.8088L62.9595 73.1072L66.8035 65.3152L78.6822 63.4224L87.4107 54.988L106.258 56.432L109.958 76.8568L102.833 102.573L98.7747 115.886L82.3218 116.518L74.6827 111.154L65.7379 107.366L56.3023 104.369Z" fill="#E2CC85"/>
<path fill-rule="evenodd" clip-rule="evenodd" d="M85.1605 104.223C85.1605 104.223 82.8849 105.279 79.0037 105.036C77.8805 103.507 70.014 102.791 70.014 102.791C70.014 102.791 69.0321 102.488 67.2956 103.216C65.548 103.936 63.8951 103.847 62.3504 104.235C60.8057 104.623 59.272 102.585 58.088 102.16C56.904 101.711 55.334 100.631 55.334 100.631L52.0188 100.303L45.3616 97.4512L34.7853 86.772L31.9113 91.332L31.0249 96.9752L34.2225 103.662L42.8318 111.611L59.6193 115.931L69.5696 112.96L82.0348 107.62L85.1605 104.222V104.223Z" fill="#F1D789"/>
<path fill-rule="evenodd" clip-rule="evenodd" d="M25.5167 66.4809L27.6479 59.94L30.1872 55.716L38.3647 55.024L35.9099 62.2817L29.0735 74.6121L31.9111 85.6193L26.8823 88.1672L25.3367 85.7649L24.092 80.2553L24.0083 74.0657L25.5167 66.4809Z" fill="#F4ECB4"/>
<path fill-rule="evenodd" clip-rule="evenodd" d="M34.6889 103.774L33.1205 101.554C33.1205 101.554 32.7014 100.498 32.9414 99.5753C33.1782 98.6409 33.1442 98.5801 33.025 98.2281C32.9058 97.8761 31.8994 96.6625 31.9594 95.6185C32.0186 94.5625 31.8758 94.2105 32.6414 93.3737C33.4434 92.5609 33.2042 91.1529 33.2042 91.1529L34.2461 91.8081L34.4829 91.4441C34.4829 91.4441 34.8657 91.7473 34.8657 92.2209C34.9494 91.5657 34.6021 88.5313 35.3922 87.8401C36.1824 87.1489 37.5834 91.0801 37.5834 91.0801L36.7215 85.3761L34.5058 79.5273L30.5662 74.1873L30.3294 68.3009V67.7913C30.3294 67.7913 28.5211 70.6073 28.0183 72.8313C27.6591 74.3601 28.5211 76.2169 28.3419 78.4137C28.1975 80.5985 28.0183 80.4281 28.5448 81.2937C29.0713 82.1593 30.3531 83.9393 29.8503 85.2257C29.4075 86.3305 27.8983 85.5537 27.8983 85.5537C27.8983 85.5537 27.5991 86.4513 27.1918 86.7793C27.0482 86.2457 26.8927 85.9057 26.6054 85.5793C26.5809 85.7857 26.5217 86.0649 26.5217 86.0649C26.5217 86.0649 26.2581 85.2273 25.9944 84.1713C25.6361 82.7641 25.2525 80.9073 24.9051 79.9121C24.7615 80.4825 24.4023 82.2177 24.4023 82.2177L24.606 84.8881L25.5879 88.5529L26.5351 90.9529L27.4571 93.8897L28.2582 95.8625L28.9047 97.3673L29.4675 100.754L32.1852 103.666L33.6344 104.322L34.6874 103.775L34.6889 103.774Z" fill="#F3E19D"/>
<path fill-rule="evenodd" clip-rule="evenodd" d="M26.9416 61.1408C26.9416 61.1408 24.9896 64.5008 24.4276 67.888C23.8656 71.2752 23.362 74.8544 23.7172 79.4656C24.0763 84.1144 24.7591 86.9656 25.31 89.0048C26.2572 92.3912 28.7105 97.1 28.7105 97.1L28.7942 96.9176C28.3818 96.1254 28.0527 95.2915 27.8122 94.4296C27.4886 93.1432 27.3686 91.6144 27.0695 90.9224C26.8058 90.2312 26.363 89.636 26.1475 88.7864C25.9439 87.9736 25.9107 86.6872 25.2856 85.7288C25.0219 85.34 24.6983 84.3208 24.6028 83.3016C24.4828 81.772 24.6628 80.0608 24.5191 78.6536C24.2555 76.3112 24.0763 74.7216 24.3155 73.4952C24.5547 72.2688 25.801 68.7872 26.5675 66.02C27.0703 64.248 26.7703 62.7552 27.6923 61.2136C28.6142 59.6848 29.1778 58.3376 29.3806 57.4032C29.6174 56.5536 26.9384 61.1408 26.9384 61.1408H26.9416Z" fill="#F2E8B0"/>
<path fill-rule="evenodd" clip-rule="evenodd" d="M36.1982 59.7936C36.1982 59.7936 35.1926 60.0976 34.7135 60.6312C34.2343 61.1408 34.0307 61.5656 33.3842 62.4272C32.7378 63.2888 32.7014 63.9928 32.1742 65.0728C31.6477 66.1288 30.4858 67.7184 30.3421 68.2888C30.1985 68.8592 29.9593 71.5288 29.6601 72.7912C29.3965 74.0536 29.9593 75.6072 29.9593 75.6072L30.6413 75.4608C30.6413 75.4608 30.6413 76.3592 31.3241 76.9664C32.006 77.5608 32.126 74.9512 32.126 74.9512L34.6764 66.2256L38.5196 63.58L38.9388 61.444L36.1966 59.7936H36.1982Z" fill="#F5EEC0"/>
<path fill-rule="evenodd" clip-rule="evenodd" d="M38.0655 63.7504C38.0655 63.7504 36.2572 63.8712 35.3715 64.5272C35.0124 64.7936 34.8687 65.012 34.4859 65.34C33.7794 65.9344 33.0604 66.4808 32.7138 67.26C32.3302 68.036 31.9111 69.2136 31.6238 71.4344C31.5038 72.3688 31.5038 73.2304 31.4201 73.9832C31.3001 75.0024 31.121 75.8152 31.2165 76.3832C31.3364 77.548 32.522 78.1552 32.6373 79.4776L35.0921 78.216L37.4033 68.98L42.3129 65.86L39.5345 62.7048L38.0624 63.7448L38.0655 63.7504Z" fill="#E6DB9D"/>
<path fill-rule="evenodd" clip-rule="evenodd" d="M25.115 125.943C25.1253 125.852 25.1356 125.761 25.1458 125.667C25.5042 122.547 25.565 120.182 25.8278 118.702C26.2106 116.602 26.4743 115.822 26.4143 115.036C26.3306 113.774 26.2351 112.852 26.3551 111.881C26.5343 110.594 27.7798 109.066 27.7443 108.01C27.7198 107.172 27.3007 106.626 26.9416 106.117C26.5824 105.607 26.2951 105.182 26.2951 105.182C26.2951 105.182 28.7499 103.471 28.7262 96.5776C28.7764 96.5919 28.8246 96.6123 28.8699 96.6384L30.0792 100.121L30.9056 101.14L34.0787 107.135L38.1619 111.153L44.1964 115.266L47.9805 119.44L48.3633 130.569L43.4181 137.074L42.6083 138.56C36.1742 135.286 30.2741 131.031 25.1143 125.942L25.115 125.943Z" fill="#E5CB7A"/>
<path fill-rule="evenodd" clip-rule="evenodd" d="M40.2212 136.59C40.2212 136.59 40.3049 135.206 41.4305 134.308C41.6104 134.611 41.7296 134.903 41.6941 135.121C41.8977 134.758 43.3225 132.427 46.5437 131.82C49.765 131.226 50.5433 128.847 50.5433 128.847L57.3797 122.549L65.1989 115.255L74.7064 111.869L79.1495 110.764C79.1495 110.764 79.2332 111.092 79.0659 111.82C79.8915 111.76 81.7235 111.335 83.6274 110.655C84.3939 110.352 85.1129 110.23 85.4958 110.631C86.0586 111.165 86.1422 112.427 86.1778 113.179C87.0997 112.973 88.1653 112.075 89.0194 112.16C90.3849 112.306 91.5942 113.932 92.9834 113.932C94.8154 113.932 95.6411 112.791 96.923 111.893C97.6894 111.359 98.7905 110.693 99.4133 110.242C100.898 109.138 116.608 104.271 116.608 104.271L122.116 104.635L123.003 110.63L122.529 126.302C122.471 126.359 122.412 126.418 122.353 126.475L97.3089 139.732L62.5941 145.126C54.8178 143.838 47.3136 141.222 40.4012 137.389L40.2236 136.589L40.2212 136.59Z" fill="#D8C173"/>
<path fill-rule="evenodd" clip-rule="evenodd" d="M27.2202 127.937C27.7135 126.891 28.1572 126.017 28.2353 125.704C28.2969 126.334 28.4097 127.718 28.6371 129.188C28.1598 128.777 27.6875 128.359 27.2202 127.936V127.937Z" fill="#F1D789"/>
<path fill-rule="evenodd" clip-rule="evenodd" d="M52.5793 142.686L57.069 141.42L57.4518 141.542C57.4518 141.542 57.6555 141.663 57.6555 142.075C58.2183 141.748 58.6974 141.808 59.0447 141.59C59.2239 141.978 59.403 143.265 60.194 143.422C61.0196 143.605 61.906 143.058 62.8043 142.367C63.6899 141.651 64.6987 140.753 65.462 140.389C65.742 140.911 65.9901 141.45 66.2047 142.002C67.2103 141.19 68.9587 137.889 71.4491 137.949C72.1689 136.225 73.3714 134.752 74.9079 133.714C77.2191 132.124 78.6675 132.002 80.4759 132.148C81.1941 131.202 82.0792 130.4 83.0862 129.782C83.3854 129.903 84.2118 130.413 85.2419 129.927C86.2838 129.442 87.4567 127.561 89.0015 127.318C89.8339 127.202 90.6803 127.382 91.3963 127.828C91.3963 127.828 95.8955 123.301 98.9999 121.796C98.88 121.432 98.6408 120.061 102.28 117.026C102.484 117.209 102.34 117.718 102.484 117.746C102.543 117.746 103.431 117.358 104.555 116.484C105.945 115.429 107.608 114.324 108.614 114.021C110.508 113.45 112.518 114.615 112.518 114.615C112.689 114.494 112.879 114.403 113.081 114.348C113.559 114.263 113.907 114.202 114.17 114.108C114.146 114.739 114.494 115.819 114.17 116.754C114.545 116.967 114.942 117.138 115.354 117.263C115.151 117.712 114.708 118.853 113.966 119.399C114.588 119.702 114.671 120.054 115.558 120.359C115.199 120.869 114.611 121.743 114.349 122.279C114.085 122.85 113.138 125.216 112.719 126.114C112.277 127.012 111.678 128.662 111.39 128.994C111.102 129.325 110.061 130.729 109.259 131.42C109.969 131.153 112.876 130.255 114.109 129.915C113.742 130.461 111.881 133.258 110.092 135.949C101.529 141.151 91.969 144.444 82.0509 145.608C72.1328 146.771 62.0839 145.779 52.5737 142.698L52.5793 142.686Z" fill="#E0CD81"/>
<path fill-rule="evenodd" clip-rule="evenodd" d="M38.3614 63.4224C38.3614 63.4224 37.3202 63.4224 37.1166 63.568C36.9129 63.7136 38.1585 64.0176 38.5413 64.1632C38.9242 64.3088 39.7506 64.976 39.9661 65.5104C40.1697 66.02 47.4497 68.9928 47.4497 68.9928L52.5986 68.7256L54.3738 66.24L50.997 63.2424L53.365 56.1672L50.2282 56.6768L42.6845 61.2368L38.9005 62.7056L38.3614 63.4224Z" fill="#DFC57C"/>
<path fill-rule="evenodd" clip-rule="evenodd" d="M49.6686 65.7648C49.7431 65.8869 49.8479 65.9871 49.9726 66.0552C50.0973 66.1233 50.2374 66.1569 50.379 66.1528C51.4446 66.1528 52.4258 66.42 52.8331 66.9656C53.5158 67.84 55.4079 70.6312 55.4079 70.6312L59.9339 72.2816L60.226 66.88L55.2808 63.3976L49.6528 65.4968V65.764H49.6655L49.6686 65.7648Z" fill="#E5CC7C"/>
<path fill-rule="evenodd" clip-rule="evenodd" d="M48.7809 67.7672C48.7809 67.7672 49.6066 67.828 50.6485 67.4392C51.6904 67.0504 53.4025 66.2136 54.1452 66.5416C55.1864 66.9904 54.9709 68.3984 56.0973 69.6616C56.7792 70.4384 58.0248 70.4144 58.7313 71.252C59.4377 72.0896 61.8681 71.7008 61.8681 71.7008L62.79 76.7408L59.0904 81.5472L57.8804 87.5176H52.8776L48.3073 85.68L46.0562 80.16L47.1817 74.5776L48.7809 67.7672Z" fill="#D2C281"/>
<path fill-rule="evenodd" clip-rule="evenodd" d="M58.4582 68.0096C58.5822 68.0483 58.7112 68.0688 58.841 68.0704C58.6973 68.192 58.3974 68.4584 58.5174 69.1504C58.6374 69.8424 59.0202 70.716 58.6973 71.2496C58.9551 71.5352 59.1473 71.875 59.2601 72.2448C59.4638 72.84 59.5238 73.3856 60.8522 73.4712C60.6605 73.5908 60.4837 73.7334 60.3257 73.896C60.3257 73.896 61.2477 74.7088 61.715 75.4608C62.1933 75.44 63.4626 75.04 63.4626 75.04L63.7262 75.2224L64.289 74.9824C64.289 74.9824 63.7625 74.776 64.1453 73.4776C64.5045 72.3368 64.8281 72.3976 64.8557 72.3128C64.8834 72.228 65.1194 71.0264 65.1194 70.5408C65.2985 69.9104 65.4422 67.9928 65.4422 67.9928L65.0594 63.7576L62.9045 62.4344L61.1522 60.72L59.4993 63.8752L58.4108 64.9752L58.3271 67.7056L58.4582 68.0096Z" fill="#E2C270"/>
<path fill-rule="evenodd" clip-rule="evenodd" d="M63.6426 64.4664C63.6426 64.4664 64.0254 65.5704 64.1699 66.42C64.2208 66.2549 64.2489 66.0834 64.2535 65.9104C64.2535 65.9104 64.5527 67.5856 64.6119 68.2776C64.7319 68.2528 64.8487 68.2168 64.8755 68.3376C64.9024 68.4584 65.1755 69.8064 65.1123 70.5584C65.6109 69.7247 66.3009 69.0254 67.1235 68.52C67.6027 68.216 68.1655 67.8888 68.7527 67.864C69.6747 67.84 70.3448 68.4592 71.4467 68.4592C74.1044 68.4592 76.5119 66.4808 78.2839 65.8744C79.5887 65.4248 80.7143 65.0976 81.5044 64.3688C81.888 64.0416 82.5708 63.3136 83.1928 62.2328C84.0192 60.7928 84.8812 59.5392 85.7439 59.3816C85.3536 59.4543 84.9565 59.4828 84.5599 59.4664C84.5599 59.4664 84.8235 59.1992 85.2703 58.8352C85.7171 58.4712 86.2522 58.0225 87.0179 58.0225C88.3834 58.0225 89.0654 58.228 89.8319 58.228C90.5983 58.204 91.0411 58.0225 91.0411 58.0225C91.0411 58.0225 91.8439 58.5928 93.6514 58.5928C95.4598 58.6168 96.6691 58.7744 97.6155 58.86C98.5619 58.9456 101.734 58.5928 102.644 58.62C103.238 58.6432 103.82 58.7877 104.357 59.0448L101.423 50.4048L90.884 41.0688L84.6096 45.5712L74.9577 55.3528L65.6183 58.86L63.6663 61.0808V64.4664H63.6426Z" fill="#CCB360"/>
<path fill-rule="evenodd" clip-rule="evenodd" d="M84.5977 59.5145C84.5977 59.5145 84.8613 59.2481 85.3034 58.8841C85.7454 58.5201 86.2861 58.0705 87.0517 58.0705C88.4165 58.0705 89.0993 58.2769 89.8657 58.2769C90.6322 58.2529 91.075 58.0705 91.075 58.0705C91.075 58.0705 91.8785 58.6401 93.6853 58.6401C95.4937 58.6641 96.7029 58.8217 97.6493 58.9065C98.5957 58.9913 101.768 58.6401 102.678 58.6665C103.271 58.6891 103.854 58.8336 104.39 59.0913L103.061 55.1953L101.517 52.2225L97.1102 47.3313C97.1102 47.3313 91.8217 44.1761 91.7814 44.1521C91.7578 44.1281 89.9494 43.6425 89.9494 43.6425L85.1597 46.5793L80.8136 57.9753L80.73 60.3753L83.5432 61.7225C84.2496 60.5225 85.0287 59.5625 85.7588 59.4409C85.0997 59.5137 84.5969 59.5137 84.5969 59.5137L84.5977 59.5145Z" fill="#D5B457"/>
<path fill-rule="evenodd" clip-rule="evenodd" d="M84.5374 60.3279C84.1182 60.3519 83.7717 60.2671 83.6754 59.9639C83.3163 58.9447 83.029 58.7991 82.7282 58.7991C82.4275 58.7991 82.0218 59.4543 81.781 59.5143C81.5403 59.5743 81.2545 58.7623 81.2545 58.7623L80.9909 58.6407C80.9909 58.6407 79.4462 59.6599 78.3569 60.8615C77.2676 62.0631 75.4829 64.1023 74.681 64.4655C73.879 64.8287 71.1242 64.9511 70.1818 65.1575C69.2393 65.3639 68.1942 66.0559 68.0506 66.2135C67.9069 66.3711 68.4705 66.5407 68.5542 66.6983C68.6378 66.8439 67.6314 66.7831 67.5478 66.9383C67.4886 67.0599 67.7846 67.7511 67.9314 68.1031C68.1883 67.9737 68.4702 67.9032 68.757 67.8967C69.679 67.8727 70.3499 68.4919 71.451 68.4919C74.1095 68.4919 76.5162 66.5135 78.2882 65.9063C79.5938 65.4575 80.7194 65.1295 81.5095 64.4015C81.8923 64.0743 82.5751 63.3455 83.1979 62.2655C83.6525 61.5255 84.0961 60.8335 84.5397 60.3239L84.5374 60.3279Z" fill="#D2B257"/>
<path fill-rule="evenodd" clip-rule="evenodd" d="M46.4128 120.389C46.4128 120.389 46.176 119.49 43.9816 117.173C43.3588 116.518 42.976 115.973 42.5569 115.583C41.5149 114.587 40.904 114.321 40.162 113.75C38.5336 112.525 36.7616 112.525 35.3968 111.02C34.0321 109.515 32.4416 106.64 31.3365 103.702C30.2472 100.765 29.9473 99.8304 29.9473 99.7456C29.9473 99.6608 30.2472 99.0904 30.63 99.1752C31.0129 99.26 31.0129 100.012 31.1092 100.194C31.2999 100.492 31.5162 100.772 31.7556 101.031C32.3184 101.687 33.1204 102.471 33.5277 103.641C33.444 102.646 33.1085 101.542 33.1085 101.542C33.1085 101.542 35.2161 102.889 37.0118 104.296C38.8202 105.704 39.5621 106.19 40.0902 107.087C40.6183 107.985 41.8623 110.352 42.4582 111.044C43.0541 111.736 51.2198 114.345 51.2198 114.345L55.1041 117.28L57.0324 121.564L55.5232 123.964L52.6256 124.595L47.9196 122.459L46.4128 120.388V120.389Z" fill="#D2B159"/>
<path fill-rule="evenodd" clip-rule="evenodd" d="M35.958 105.631C35.958 105.631 36.9399 107.221 39.3348 108.726C41.4904 110.049 44.9027 111.25 47.9448 111.966C49.6924 112.391 51.4408 112.718 53.0092 112.743C57.2361 112.803 60.1456 111.578 63.7504 111.178C65.7025 110.971 68.0973 110.814 70.5876 110.218C73.7844 109.441 75.6765 108.566 78.2513 107.338C80.1188 106.464 81.8317 105.809 83.2201 104.971C85.1722 103.806 86.5969 102.508 88.2498 102.12C88.0461 102.69 87.8306 103.71 86.2022 104.766C87.0642 104.741 88.2498 104.681 88.2498 104.681C88.2498 104.681 87.1005 105.372 85.0766 106.926C83.8311 107.886 82.179 109.51 80.4906 110.59C79.4005 111.282 78.215 111.79 77.4367 112.205C75.5423 113.261 74.7782 113.794 73.5334 115.085C73.9763 115.061 74.0126 115.085 74.0126 115.085C74.0126 115.085 72.4434 115.291 71.3186 115.898C71.0818 115.898 70.6713 115.813 69.953 116.019C69.3902 116.201 68.6475 116.614 67.8818 116.832C66.7917 117.16 66.4334 117.014 66.4334 117.014L66.6126 117.378C66.6126 117.378 65.1918 117.354 64.7182 117.402C64.8018 117.426 64.7781 117.463 64.7781 117.463C64.695 117.477 64.6148 117.506 64.5413 117.548C64.3134 117.698 64.0628 117.808 63.7994 117.875C63.6557 117.899 63.5357 117.899 63.3558 117.936C63.4158 118.082 63.883 118.896 64.0985 119.376C63.9194 119.498 61.2246 121.561 61.2246 121.561C61.3081 121.694 61.3765 121.837 61.4282 121.986C61.5119 122.252 61.5482 122.641 61.6319 122.822C61.8347 123.186 61.9547 123.247 61.9547 123.247C61.9547 123.247 61.6319 123.308 61.0683 123.454C60.5899 123.575 60.0027 123.781 59.1739 123.902C58.9196 123.936 58.6638 123.956 58.4074 123.963C58.5274 124.23 59.0539 125.25 58.0838 126.426C57.1137 127.603 56.8146 127.774 56.5154 128.526C56.3648 128.411 56.2045 128.309 56.0363 128.222C55.7134 128.077 55.2698 127.859 55.1143 127.567C55.0237 127.956 54.9036 128.338 54.7552 128.708C54.456 129.521 54.0132 130.322 53.9295 130.929C53.6059 130.565 53.0076 129.849 52.1812 129.994C51.3547 130.14 50.6964 131.281 50.5528 131.609C50.5528 131.402 50.4091 131.245 50.3736 131.487C50.3491 131.754 49.8945 134.545 47.356 136.802C47.3323 136.232 47.3323 134.97 47.2723 134.558C47.0355 134.798 46.7458 135.152 45.0211 135.905C43.3328 136.657 43.6003 137.41 43.6003 137.41C43.6003 137.41 43.4567 136.21 44.3668 134.946C45.2887 133.684 45.8515 133.089 45.8515 132.992C45.8366 132.893 45.7951 132.801 45.7315 132.725C45.6116 132.603 45.3724 132.458 45.3724 132.361C45.516 132.301 46.9408 131.609 46.8571 130.176C46.7735 128.89 46.2351 128.222 45.8515 127.75C45.7923 127.689 46.4151 127.24 46.3306 127.094C46.2707 127.01 45.505 126.438 45.4087 126.134C45.4313 125.953 45.4715 125.774 45.5287 125.601C45.6123 125.334 45.6723 125.151 45.6487 124.97C45.5887 124.666 45.265 123.829 45.1695 123.744C45.2532 123.768 45.8515 123.744 45.8515 123.744C45.8515 123.744 45.3732 122.967 45.2887 122.603C45.2043 122.239 45.0251 121.28 44.9296 121.098C45.1332 121.122 45.636 121.158 45.636 121.098C45.6605 120.916 45.1932 120.613 45.3992 120.378C45.5429 120.402 45.8184 120.524 46.0812 120.864C45.9375 120.475 45.6984 119.723 45.1948 119.42C45.4316 119.335 46.2367 119.116 46.9432 119.541C47.6496 119.966 47.8904 120.56 47.8904 120.56C47.8904 120.56 48.3095 120.888 48.9567 121.374C49.6987 121.968 50.6443 122.814 52.1535 123.412C52.4772 123.594 53.3028 123.594 53.9019 123.473C54.1628 123.41 54.4129 123.308 54.6439 123.17C54.7273 123.12 54.8157 123.079 54.9075 123.048C54.7788 122.786 54.6308 122.534 54.4647 122.295C54.6684 122.295 54.9075 122.32 54.9075 122.32C54.9075 122.32 55.0512 121.992 54.4047 121.36C54.5484 121.214 54.7284 121.12 54.7284 120.874C54.5247 120.85 54.1656 120.547 54.0819 120.426C54.2011 120.341 54.3811 120.062 54.5847 119.977C54.4047 119.831 53.9619 119.224 53.7583 119.164C53.9528 119.091 54.141 119.001 54.3211 118.897C54.3211 118.897 53.3154 118.63 52.9918 118.411C52.6682 118.171 52.1899 117.756 51.9025 117.634C51.6026 117.513 51.0761 117.453 50.8606 117.21C51.0635 117.27 51.3871 117.21 51.6271 117.21C51.8062 117.21 51.8907 117.234 51.9499 117.234C51.9262 117.149 51.9262 116.966 52.3935 116.906C52.6183 116.872 52.8364 116.802 53.04 116.7C53.04 116.7 52.5964 116.676 52.0928 116.19C51.5892 115.705 51.1708 115.317 50.8835 115.256C50.5844 115.195 50.0216 115.462 49.6743 115.438C49.1951 115.378 48.9915 115.134 48.9915 115.134C48.9915 115.134 47.3994 115.28 43.8671 113.096C40.8132 111.202 39.484 109.528 39.484 109.528C39.1982 109.423 38.9219 109.293 38.6583 109.139C37.509 108.533 35.9162 107.27 35.9643 105.619L35.958 105.631Z" fill="#C2A44D"/>
<path fill-rule="evenodd" clip-rule="evenodd" d="M80.0108 32.7913C80.2878 32.8825 80.534 33.0507 80.7212 33.2769C81.284 33.9321 81.6432 35.1697 80.3621 36.4929C80.8649 36.6745 81.0725 36.7329 81.5113 36.6745C81.0685 37.2089 80.0629 38.3497 80.0029 39.3449C79.9429 40.1577 80.4457 40.4009 80.4457 40.4009C80.4457 40.4009 79.6793 41.2985 79.6438 42.8009C80.0057 42.3872 80.4018 42.0055 80.8278 41.6601C81.7142 40.9441 82.9353 40.1313 83.7617 39.6217C83.7505 39.8352 83.7789 40.0491 83.8454 40.2521C83.8454 40.2521 85.3893 38.9657 86.687 39.5369C87.2735 39.8041 87.0098 40.6409 87.0098 40.6409C87.0098 40.6409 87.8126 40.3377 88.3754 40.9081C88.9382 41.4785 89.7338 42.9497 90.1419 43.5201C90.3211 43.7873 90.7884 44.2969 91.2667 45.0857C91.9202 46.19 92.4658 47.3563 92.8959 48.5681C92.9196 47.9369 93.0751 46.9545 94.8479 47.5729C96.62 48.2041 98.6312 49.5273 100.32 52.1329C102.008 54.7385 102.426 57.6801 103.276 58.8001C104.138 59.8801 105.025 61.6761 105.085 62.4289C105.145 63.1817 104.821 65.6081 106.593 72.1737C107.096 70.1353 107.862 65.6081 107.862 65.6081L108.282 61.6153L108.761 49.2609L96.0319 38.5433L86.0816 31.2249L79.6035 31.8561L80.01 32.7905L80.0108 32.7913Z" fill="#CAA13E"/>
<path fill-rule="evenodd" clip-rule="evenodd" d="M103.66 51.1768C103.66 51.1768 103.48 49.9768 100.487 47.9368C97.493 45.9224 95.1582 45.9224 93.0033 44.2112C91.3504 42.864 89.6265 39.7688 88.5041 38.7496C87.414 37.7424 87.2349 34.8296 87.2349 34.8296L90.9108 31.7096L96.3777 23.7008L100.999 18.5432L103.214 21.6632L106.293 25.328L108.005 32.6824L108.627 43.4472L103.655 51.1776L103.66 51.1768Z" fill="#B59544"/>
<path fill-rule="evenodd" clip-rule="evenodd" d="M107.36 64.08C107.451 62.4475 107.252 60.8117 106.773 59.2504C105.984 56.7624 104.259 52.3448 103.458 50.6904C103.134 48.8576 103.374 48.712 103.721 48.5056C104.069 48.2992 105.374 47.5456 106.089 44.9016C106.805 42.2576 109.023 42.1712 109.023 42.1712L110.388 41.152L112.46 46.4064L114.268 51.152L114.831 54.7808L115.25 57.8752L114.268 64.4168L109.419 68.8584L107.36 64.08H107.36Z" fill="#C89D3A"/>
<path fill-rule="evenodd" clip-rule="evenodd" d="M39.6948 136.991V136.857C39.7956 136.793 39.8845 136.712 39.9577 136.617C40.0413 136.495 40.1021 136.35 40.1613 136.314C40.2813 136.253 40.8441 136.074 41.1432 136.131C41.4424 136.189 42.2333 136.519 42.6525 136.495C43.5144 136.471 44.52 135.803 46.1129 136.107C48.5077 136.556 49.0705 138.206 50.4598 139.141C51.407 139.797 52.3873 139.505 52.531 139.505H52.8538C52.9138 139.505 53.3566 138.995 53.5966 139.02C54.0757 139.044 54.123 139.445 54.4222 139.469C55.1287 139.554 56.4942 139.105 57.177 139.287C57.3794 139.352 57.5636 139.464 57.7136 139.616C57.8637 139.768 57.9753 139.955 58.0389 140.16C58.1826 140.609 58.0626 141.179 57.7153 141.507C56.9733 142.198 56.2669 142.854 56.1232 143.427C56.3059 143.568 56.4814 143.719 56.6489 143.878C50.7243 142.349 45.0241 140.035 39.6948 136.998V136.991Z" fill="#CEB052"/>
<path fill-rule="evenodd" clip-rule="evenodd" d="M103.457 112.743C103.457 112.743 105.324 110.219 105.971 108.969C106.618 107.68 103.924 91.3599 103.924 91.3599L109.336 73.3871L109.192 67.5375C109.192 67.5375 109.455 62.1367 110.078 59.7943C110.821 61.1415 113.132 62.7679 113.635 63.6295C113.872 61.9783 114.676 58.4959 114.557 54.7823C115 55.4735 116.065 62.4279 116.065 62.4279L117.131 67.1119L118.52 72.0879L120.065 77.3431L120.987 80.9719L121.513 81.8455L121.957 83.3743L122.376 85.0255L123.585 88.8967L124.296 92.0759L124.859 97.8407C124.981 98.2822 125.069 98.7326 125.122 99.1879C125.146 99.8191 125.038 100.183 125.038 100.293C125.038 100.402 125.242 101.676 125.158 102.635C125.038 103.595 125.038 104.346 124.296 105.035C123.553 105.724 123.086 109.841 123.086 109.841L121.757 108.943C121.757 108.943 122.021 107.717 121.398 106.601C120.775 105.485 119.566 105.254 118.883 105.436C118.201 105.582 116.837 105.799 116.393 106.188C115.974 106.576 114.944 107.778 113.998 108.324C112.814 109.044 110.885 109.101 109.856 109.343C108.814 109.583 107.664 110.303 106.454 111.139C105.506 111.762 104.504 112.297 103.461 112.739L103.457 112.743Z" fill="#CCA847"/>
<path fill-rule="evenodd" clip-rule="evenodd" d="M103.457 139.26C103.457 139.26 103.535 139.312 103.688 139.397C112.195 135.357 119.817 129.631 126.105 122.557C126.036 120.101 125.947 117.583 125.849 116.65C125.646 114.672 125.79 112.658 125.73 111.493C125.67 110.328 125.023 105.582 124.724 104.357C124.401 103.131 123.777 102.524 123.682 102.524C123.599 102.549 123.095 104.83 123.095 105.404C123.095 105.978 122.975 107.358 122.975 107.71C122.892 107.686 122.856 107.47 122.856 107.382C122.736 107.686 122.592 108.22 122.532 108.281C122.472 108.342 122.616 107.771 122.532 107.65C122.449 107.528 122.296 107.589 122.329 107.286C122.343 107.106 122.371 106.927 122.412 106.752C122.412 106.752 122.053 107.286 121.79 108.645C121.527 109.992 121.527 110.029 121.431 110.15C121.348 110.296 120.868 110.781 120.844 110.963C120.82 111.29 121.288 111.618 121.323 111.8C121.347 112.104 120.904 113.511 120.76 114.2C120.617 114.889 120.677 116.238 120.524 116.93C120.404 117.562 120.287 117.926 119.877 118.192C120.176 118.253 120.464 118.338 120.464 118.338C120.464 118.338 120.883 120.134 119.817 121.663C119.434 122.197 119.339 122.44 118.931 122.926C118.129 123.823 117.506 124.846 117.446 125.51C117.404 125.314 117.377 125.115 117.362 124.915C117.362 124.915 116.117 126.384 115.59 127.222C114.908 128.302 113.962 128.241 113.696 128.508C113.43 128.775 113.372 129.26 113.459 129.649C113.222 129.709 112.777 129.794 112.477 130.729C112.333 131.214 111.974 131.689 111.411 132.015C110.849 132.342 110.166 132.44 109.819 132.525C110.118 132.61 110.238 132.61 110.381 132.706C110.202 133.01 109.376 133.483 108.454 134.09C107.532 134.661 107.088 135.498 106.861 136.044C106.624 136.554 106.274 136.882 105.712 136.942C105.948 137.088 106.299 137.427 106.478 137.537C106.214 137.598 105.768 137.598 104.97 138.29C104.131 138.994 103.844 139.2 103.46 139.261L103.457 139.26Z" fill="#C39D3C"/>
<path fill-rule="evenodd" clip-rule="evenodd" d="M86.795 144.884C87.2535 144.558 87.7501 144.291 88.2734 144.09C90.1409 143.338 92.1166 143.192 92.8949 142.95C93.6377 142.71 94.2242 142.378 95.1461 142.197C95.1216 142.41 95.1011 142.61 95.079 142.798C92.3609 143.664 89.5931 144.361 86.791 144.884H86.795Z" fill="#D2BA6B"/>
<path fill-rule="evenodd" clip-rule="evenodd" d="M121.241 95.0975C121.241 95.0975 120.859 97.1967 120.176 98.5199C119.493 99.8431 118.755 101.675 118.755 101.675C118.759 101.262 118.808 100.851 118.899 100.449C118.037 100.958 115.941 102.185 115.347 102.73C114.784 103.24 113.837 104.138 113.598 104.563C114.161 102.889 114.748 101.384 114.844 100.692C113.982 101.323 109.958 104.685 107.863 106.906L101.337 112.258C100.584 112.669 99.8081 113.037 99.0138 113.36C97.889 113.845 96.5597 114.258 95.5778 114.646C95.8414 113.93 96.2598 113.298 96.8471 112.692C97.4698 112.098 99.3374 110.046 99.6247 109.092C99.8884 108.097 99.9483 107.502 99.601 106.665C99.2774 106.75 98.5354 106.786 98.0326 106.932C97.5298 107.078 96.9907 107.623 96.9907 107.623C96.9907 107.623 97.3735 105.402 98.2 103.303C97.5772 103.327 96.5116 103.509 96.5116 103.509C96.5116 103.509 97.9963 100.985 100.537 99.2255C99.759 99.3934 98.9976 99.6328 98.2623 99.9407C96.7776 100.572 95.1492 101.506 93.9399 102.016C94.6219 101.056 99.4116 94.1279 102.262 87.6711C105.103 81.2271 106.165 79.5767 106.788 76.1183C107.111 74.4071 107.025 71.8783 107.111 69.6135C107.194 67.3679 107.47 65.3535 107.291 64.0063C108.033 64.9407 110.811 67.5743 110.907 73.4607C110.99 79.3463 108.249 87.2959 105.339 91.5791C106.049 91.7855 107.89 92.0287 109.781 88.6991C111.672 85.3695 111.649 84.4399 112.332 83.0559C112.416 83.7479 112.391 83.9903 112.391 83.9903C112.391 83.9903 115.146 80.6047 116.451 76.3447C116.715 78.1775 117.493 79.7919 116.271 83.1535C115.182 86.1871 113.757 86.9279 113.757 86.9279C113.757 86.9279 114.463 86.8063 115.505 86.1751C115.684 86.6239 115.649 87.1351 115.948 87.3159C116.247 87.4967 116.655 87.8015 116.715 88.0927C117.037 87.6071 117.54 86.9879 117.697 86.5271C117.577 87.4871 117.493 91.6847 117.933 93.8207C118.856 93.7359 119.802 93.6751 120.448 91.9879C120.005 93.6391 120.005 94.6335 120.304 96.0415C120.795 95.7023 121.238 95.0951 121.238 95.0951L121.241 95.0975Z" fill="#C0993A"/>
<path fill-rule="evenodd" clip-rule="evenodd" d="M90.1291 28.2039C90.1291 28.2039 89.2071 28.5919 87.6387 28.5919C86.274 28.5919 86.6568 28.0583 84.5256 28.0583C81.2451 28.0583 69.7856 29.9783 67.7736 29.9511C66.468 29.9271 72.1796 30.5215 72.1796 30.5215L86.7768 30.7279L89.71 30.4879L90.8 28.2399L90.1291 28.2039Z" fill="#A88F33"/>
<path fill-rule="evenodd" clip-rule="evenodd" d="M52.2792 57.124C52.2792 57.124 50.4108 58.568 49.6207 59.6728C48.8306 60.7776 48.4114 61.5048 47.5132 62.4032C47.724 62.4114 47.9347 62.3827 48.136 62.3184C48.136 62.3184 48.136 62.5584 47.9923 62.6216C48.1164 62.6075 48.2421 62.6218 48.3601 62.6633C48.4781 62.7049 48.5855 62.7726 48.6743 62.8616C48.4107 63.0072 47.6924 63.736 48.2552 64.5976C48.6743 65.2528 49.5607 65.3128 49.5607 65.3128C49.5607 65.3128 49.3571 65.908 50.2072 65.8472C52.0392 65.7624 54.0868 64.9488 55.0324 65.1552C55.9796 65.3952 56.5179 65.4832 57.188 66.6608C57.8984 67.8256 58.5173 68.008 58.5173 68.008C58.5173 68.008 58.9364 66.9272 58.8409 65.3136C59.1846 64.4438 59.375 63.5197 59.4037 62.5832L58.7809 57.9352L56.0632 54.452L52.5428 56.4304L52.2792 57.1216V57.124Z" fill="#E3C571"/>
<path fill-rule="evenodd" clip-rule="evenodd" d="M55.6196 56.432C55.6196 56.432 55.8833 57.0631 56.9852 57.1231C56.8652 57.3903 56.8652 57.4271 56.9015 57.6327C56.9252 57.8391 56.9607 58.1424 56.9607 58.1424C57.082 58.0829 57.1917 58.0015 57.2843 57.9024C57.3443 58.1696 57.2243 58.5935 57.2843 58.8975C57.3213 59.0824 57.3816 59.2618 57.4635 59.4312C57.481 59.3896 57.501 59.3493 57.5235 59.3104C57.5472 59.2496 57.7603 59.9656 58.3499 60.5104C58.3494 60.4266 58.3698 60.344 58.4091 60.2704C58.4182 60.4225 58.4678 60.5694 58.5528 60.6952C58.5087 60.6738 58.4684 60.6452 58.4336 60.6104C58.4336 60.6104 58.4928 62.5303 58.8164 63.5231C58.8705 63.459 58.9186 63.3899 58.9601 63.3168C58.9601 63.2568 58.9364 63.8512 58.8764 64.2768C58.7927 64.7016 58.8527 65.296 58.8527 65.296C59.0686 65.1237 59.3059 64.9809 59.5584 64.8712C59.9175 64.7248 60.5056 64.276 60.864 63.2808C61.0719 62.7171 61.2321 62.1367 61.3431 61.5456C61.4589 61.7715 61.5388 62.0144 61.5799 62.2656C61.6044 62.5688 62.1671 62.4112 62.1671 62.4112L62.2871 61.0879L62.9975 58.0904L63.644 56.2335L66.7571 51.3192L72.3819 46.9287L77.2916 48.0696L81.434 42.3656L74.2976 38.0208L67.5441 38.7368L61.4149 47.3408L56.506 55.1448L55.6196 56.4312V56.432Z" fill="#D8B65B"/>
<path fill-rule="evenodd" clip-rule="evenodd" d="M90.9914 43.9808C90.9914 43.9808 90.5723 44.0656 89.363 44.7008C88.1537 45.336 87.3155 45.5376 86.8482 46.472C86.3809 47.4064 86.3454 48.1472 86.3454 48.1472C86.3454 48.1472 87.1718 47.7832 87.6509 47.6616C88.1537 47.5408 88.7165 47.5768 88.6565 47.7832C88.599 47.9247 88.519 48.0558 88.4197 48.1712C88.4197 48.1712 89.3669 48.1472 89.3417 48.6208C89.3164 49.0944 89.1625 49.616 88.9833 49.8464C88.8034 50.0864 88.0614 50.4416 87.9777 50.7208C87.7741 51.2912 88.0614 51.3152 87.9532 51.776C87.8696 52.2256 87.4749 53.0992 86.1812 54.628C84.852 56.1576 84.2868 57.2376 84.2868 57.2376C84.2868 57.2376 83.6403 56.012 83.3049 54.956C83.0681 55.0768 81.7964 55.7928 81.7964 55.7928L78.8507 45.3928L78.9099 44.7008C78.9099 44.7008 79.1735 44.3736 79.2335 43.7664C78.7907 43.6208 78.7307 43.4992 78.1434 42.9296C77.5561 42.36 77.0778 41.6672 76.0967 41.1936C75.953 40.9264 75.773 40.5632 75.0548 40.4168C74.3365 40.2704 73.9055 40.1504 73.9055 40.1504C73.9055 40.1504 74.2883 40.004 74.4683 39.7008C74.0247 39.7616 73.6663 39.9072 72.6962 39.8832C71.7143 39.8584 71.6062 39.8224 71.0678 39.9072C70.5295 39.992 69.8838 40.2352 69.6431 39.3976C69.3794 39.1912 68.8167 39.3736 68.3375 40.0888C67.8584 40.804 67.6911 41.3752 66.7691 41.6544C66.7043 42.0663 66.562 42.4617 66.35 42.8192C66.0863 43.2688 65.6672 43.7176 65.1044 44.3848C64.218 45.4408 64.3617 47.176 62.9487 48.4992C61.524 49.8216 63.1855 44.8336 63.1855 44.8336L65.4604 39.3136L71.9385 32.8936L81.9969 32.2024L82.9789 37.4824L87.8885 39.1936L90.9898 43.9872L90.9914 43.9808Z" fill="#D3AE4D"/>
<path fill-rule="evenodd" clip-rule="evenodd" d="M92.5843 45.1456L88.3574 38.9688L85.3998 36.6624C85.3998 36.6624 83.2923 32.7312 83.1486 32.6096C83.0286 32.5248 81.0411 32.3064 79.7718 32.2216L80.0086 32.816C80.2857 32.9072 80.5318 33.0754 80.719 33.3016C81.2818 33.9568 81.641 35.1944 80.3599 36.5176C80.8627 36.6992 81.0703 36.7576 81.5092 36.6992C81.0664 37.2336 80.0607 38.3744 80.0008 39.3696C79.9408 40.1824 80.4436 40.4248 80.4436 40.4248C80.4436 40.4248 79.6771 41.3232 79.6416 42.8248C80.0036 42.4111 80.3997 42.0294 80.8256 41.684C81.712 40.964 82.9331 40.1544 83.7596 39.6448C83.7483 39.8586 83.7767 40.0727 83.8432 40.276C83.8432 40.276 85.3872 38.9896 86.6848 39.56C87.2713 39.8272 87.0077 40.6648 87.0077 40.6648C87.0077 40.6648 87.8104 40.3616 88.3732 40.932C88.936 41.5024 89.738 42.9704 90.1453 43.5416C90.3244 43.8088 90.7917 44.3184 91.2701 45.1064C91.9237 46.2109 92.4694 47.3775 92.8993 48.5896C92.9229 48.104 93.0192 47.4248 93.8465 47.4248L92.589 45.1432L92.5843 45.1456Z" fill="#CAA13E"/>
<path fill-rule="evenodd" clip-rule="evenodd" d="M29.2169 62.6944C29.2169 62.6944 28.9178 61.9416 29.2169 60.4736C29.5161 59.0056 29.9834 58.3136 30.1389 56.1536C30.2944 53.9936 31.6836 51.2992 31.6836 51.2992L35.5269 49.528L38.2453 50.28L39.0473 53.9696L35.6105 55.8896C35.6105 55.8896 35.4314 56.7024 34.4613 57.3576C33.4912 58.0128 32.1501 58.5224 31.8273 59.1904C31.6343 59.5994 31.4934 60.0317 31.4081 60.4768C31.4081 60.4768 30.4262 60.2704 29.8397 60.9256C29.2169 61.5936 29.2406 62.188 29.2169 62.6976V62.6944Z" fill="#F4EFC8"/>
<path fill-rule="evenodd" clip-rule="evenodd" d="M36.9762 61.7112C36.9762 61.7112 36.6526 61.9176 36.4134 62.4312C36.1766 62.0432 35.6107 59.7368 35.587 57.6616C35.5633 55.5864 35.441 55.072 35.9146 54.3568C36.3882 53.6416 38.2455 52.888 37.9818 51.6C37.7182 50.3744 36.6163 49.8648 35.2634 50.2168C34.3162 50.4568 33.6113 52.4984 32.6294 53.5176C31.8866 54.2944 31.001 54.1728 30.7618 54.5976C30.4382 55.168 30.7373 55.7384 30.6418 56.1024C30.6173 56.224 30.3182 56.8792 29.7791 57.668C28.6898 59.2576 26.8459 61.5032 26.606 63.5176C26.6896 62.3768 26.6304 62.3528 26.9296 61.0904L26.7496 60.7872L27.9336 56.8552L28.7001 53.6152L30.4129 48.1896L33.4297 42.644L36.3637 39.3184L39.4168 39.5248L39.776 44.1728L41.5244 52.8992L45.2003 57.4864L39.3087 61.5048L36.9739 61.7112H36.9762Z" fill="#EBCC73"/>
<path fill-rule="evenodd" clip-rule="evenodd" d="M38.8084 63.36C38.8084 63.36 38.3056 63.4816 38.1256 63.3848C37.9457 63.288 37.7673 63.1784 37.8265 63.0568C37.8857 62.9352 38.2093 62.7296 38.2093 62.632C38.216 62.5438 38.1884 62.4565 38.1326 62.3885C38.0767 62.3205 37.9969 62.2773 37.9101 62.268C37.6347 62.232 37.551 62.4136 37.551 62.4136C37.551 62.4136 37.2874 62.208 37.0727 62.1736C37.1997 62.1578 37.3275 62.1495 37.4555 62.1488C37.1246 61.9969 36.7736 61.8947 36.4136 61.8456C36.7127 61.664 37.3 61.1296 37.6828 61.1296C38.0656 61.1296 38.3056 61.0696 38.2456 60.8632C38.1856 60.6568 37.8865 60.3536 37.5636 60.232C37.6828 60.0864 37.7673 59.868 37.48 59.272C37.18 58.6776 37.3 58.2768 37.3963 58.132C37.48 57.9496 37.7791 57.6224 37.9228 57.416C38.0664 57.2096 38.1864 56.9304 38.4256 56.7848C38.5456 56.7 38.9284 56.5448 39.312 56.3968C39.7311 56.2512 40.0784 56.0688 40.3176 56.2512C40.5813 56.4328 40.4613 56.676 40.4613 56.676C40.4613 56.676 41.2877 56.372 42.0297 56.7608C42.7724 57.124 44.5808 57.3552 44.5808 57.3552L45.2288 58.6784L40.942 62.404L39.1699 63.3024L38.8108 63.3624L38.8084 63.36Z" fill="#E5C66B"/>
<path fill-rule="evenodd" clip-rule="evenodd" d="M44.759 57.2696C44.759 57.2696 43.4298 58.168 43.1306 58.4952C43.3098 58.52 43.609 58.6416 43.489 58.8232C43.3453 59.0048 42.4834 59.636 42.0042 60.2312C41.5014 60.8256 41.0223 61.5784 40.855 61.9424C40.6758 62.2696 39.3102 63.2288 38.8438 63.3496C39.8257 63.3496 41.8014 62.124 42.5434 62.124C42.5197 62.488 42.747 62.9008 43.1661 62.9368C43.5853 62.9728 44.7945 63.204 46.4229 62.1848C48.0513 61.1896 47.513 60.4488 48.195 59.964C49.5005 59.0896 50.027 58.3128 50.7453 57.828C51.4636 57.3432 51.8354 57.2328 51.8354 57.2328C51.8354 57.2328 51.8591 56.8688 52.0722 56.9056C52.1305 56.9123 52.1859 56.9351 52.2324 56.9715C52.2789 57.0079 52.3146 57.0565 52.3358 57.112C52.3358 57.112 53.5814 56.2136 55.1774 55.9712C55.1402 55.9543 55.1104 55.9241 55.0938 55.8864C55.0938 55.8864 55.2129 55.8256 55.2374 55.7648C55.2374 55.7648 55.3211 55.6432 55.3811 55.704C55.4411 55.7648 55.5247 56.2136 55.6447 56.396C55.9084 56.2744 56.4112 55.1336 56.4112 55.1336L57.6212 51.6264V48.4224L56.674 48.6048L49.57 51.6624L45.2587 56.1896L44.7559 57.2696H44.759Z" fill="#E6BD62"/>
<path fill-rule="evenodd" clip-rule="evenodd" d="M65.2106 41.5536C65.5949 41.4591 65.9633 41.3076 66.3039 41.104C66.1602 41.4928 66.1602 41.9176 65.5374 42.84C64.9146 43.7624 64.891 43.896 64.3882 44.8544C63.8854 45.8496 63.8254 47.2816 63.3462 47.912C63.561 47.8062 63.7914 47.7368 64.0282 47.7064C64.0282 47.7064 63.5499 48.1312 63.3462 48.58C63.1426 49.0288 62.7834 49.9632 61.8978 50.5344C61.0122 51.1056 59.8858 51.4688 58.6765 52.816C57.4665 54.1384 56.2217 55.8136 55.5981 56.416C55.9218 55.8456 56.3646 54.7048 56.4846 53.9528C56.6045 53.2008 56.4601 52.3016 56.6637 51.3072C56.8674 50.3128 56.8674 49.596 57.8477 47.86C58.8281 46.124 60.5062 40.0928 60.5062 40.0928L64.1222 38.928L65.2122 41.5496L65.2106 41.5536Z" fill="#B6933F"/>
<path fill-rule="evenodd" clip-rule="evenodd" d="M62.6007 39.3328C62.6007 39.3328 61.5114 40.9224 61.2122 42.3304C60.9131 43.7384 61.1878 43.6168 61.0086 44.3088C60.9014 44.7307 60.9014 45.1733 61.0086 45.5952C61.3859 44.9792 61.9024 44.4631 62.5154 44.0896C63.5455 43.4592 64.3838 43.0096 64.8834 42.476C65.3862 41.9056 65.8054 40.9712 66.8947 40.2552C66.4518 40.1944 65.8291 39.988 65.7107 40.0152C66.1543 39.5056 67.4827 38.7288 68.8238 37.7944C70.153 36.8344 70.0694 36.4472 72.225 35.4888C71.5186 35.6104 71.1831 35.428 70.5958 35.4888C70.8326 34.9792 71.6614 34.736 72.4902 33.8992C73.319 33.0624 71.9638 31.824 71.9638 31.824L65.6491 35.6952L62.596 39.336L62.6007 39.3328Z" fill="#C49937"/>
<path fill-rule="evenodd" clip-rule="evenodd" d="M45.4658 36.4439L45.6095 35.2791L47.4178 32.3423L49.3099 27.1847V20.1335L49.1662 16.0559L49.4654 13.3855L49.6927 12.5367L49.9327 12.2087L51.4766 13.0215L53.6086 15.9583L53.8122 21.6263L51.7402 30.5703L45.825 37.1119L45.4658 36.4439Z" fill="#DFC068"/>
<path fill-rule="evenodd" clip-rule="evenodd" d="M50.1714 11.8808C50.1714 11.8808 49.2242 11.9056 49.0222 15.8984C48.8201 19.8912 48.7222 21.9904 48.5786 23.9688C48.4349 25.9472 48.1002 27.148 47.9321 28.3136C47.764 29.4792 47.6685 31.068 47.1301 32.0392C46.8933 32.488 46.3874 33.896 45.2018 34.952C43.8725 36.1168 41.8866 36.9304 41.5859 36.9912C41.0586 37.112 38.3883 37.3792 37.299 37.9864C36.9162 38.1928 36.2571 38.4352 35.5269 39.1272C34.0777 40.4496 32.1502 42.816 30.7609 45.668C28.6297 49.928 26.4985 61.9544 26.4985 61.9544L26.9777 61.1416C26.9777 61.1416 27.0377 60.0616 28.1033 58.168C29.1452 56.2752 28.846 54.1512 30.2944 50.5224C30.8572 49.1392 31.5637 47.3432 32.4256 45.8136C33.7912 43.3256 35.4433 41.1896 37.108 40.0248C39.8256 38.132 42.8196 37.7192 42.8196 37.7192L46.0408 35.5592C46.0408 35.5592 46.6036 34.4552 47.3464 33.1928C48.3875 31.4216 49.7144 29.4432 50.0041 26.5672C50.4477 22.3072 49.3813 19.516 49.4413 16.992C49.5013 14.468 49.525 12.6112 50.0286 12.1616C50.5322 11.712 50.1722 11.8824 50.1722 11.8824L50.1714 11.8808Z" fill="#A88F33"/>
<path fill-rule="evenodd" clip-rule="evenodd" d="M50.1715 30.9343C50.1715 30.9343 51.5923 27.3903 52.2427 24.2471C52.3627 23.6159 52.6018 22.9855 52.6618 22.4759C52.961 19.5023 53.0447 18.2767 52.6618 16.6503C52.3627 15.4503 51.2134 14.3687 50.6143 13.5303C50.0278 12.6559 49.7524 12.3303 49.8723 12.1463C49.9923 11.9623 50.4588 11.6615 50.9135 11.6975C51.3968 11.7118 51.8721 11.8255 52.3107 12.0318C52.7493 12.2381 53.1419 12.5327 53.4646 12.8975C54.3865 13.9775 55.1167 17.6431 55.1167 17.6431L55.8847 22.4799L57.8367 28.5719L50.1731 30.9391L50.1715 30.9343Z" fill="#C99E3D"/>
<path fill-rule="evenodd" clip-rule="evenodd" d="M63.5222 27.2456C63.5222 27.2456 63.2585 27.3664 62.7802 27.2456C62.8006 27.4437 62.7667 27.6437 62.6821 27.8235C62.5976 28.0033 62.4657 28.156 62.3011 28.2648C61.7983 28.0584 57.0915 28.4712 57.0915 28.4712C57.0915 28.4712 54.9003 28.0824 54.2175 25.1456C53.7392 23.1912 54.5767 20.4976 54.3012 18.7256C53.8821 16.116 53.2956 15.6056 53.2356 14.7936C53.1756 13.9816 53.1156 13.7744 53.1156 13.2648C52.852 13.204 52.6965 13.1192 52.4336 13.1192C52.3736 12.8792 52.4928 12.6696 52.23 12.2448C52.3736 12.3056 53.3556 12.4272 54.5048 13.5312C55.452 14.4296 55.452 14.7568 55.5949 14.9392C55.7741 15.1208 57.2233 16.3792 57.8461 17.6336C58.4689 18.888 59.6781 22.888 59.9536 23.5432C60.0373 23.8104 60.2172 24.0776 60.664 24.684C61.3586 25.5584 62.3761 27.004 63.5253 27.244L63.5222 27.2456Z" fill="#B58634"/>
<path fill-rule="evenodd" clip-rule="evenodd" d="M55.7642 15C56.4895 16.1876 57.1412 17.4199 57.7154 18.6896C58.4218 20.3032 58.841 21.6264 59.7274 22.7064C59.2483 21.2992 58.3982 18.532 57.8954 17.5488C57.3326 16.5088 56.1833 15.3888 55.7642 15.0008V15Z" fill="#A88F33"/>
<path fill-rule="evenodd" clip-rule="evenodd" d="M47.6214 34.952C47.6214 34.952 46.4121 35.2552 44.1609 36.4568C43.4182 36.8448 42.7125 37.172 42.0297 37.476C40.2561 38.2888 38.3538 39.04 36.8446 39.4544C36.9646 39.6 37.0238 39.66 37.0238 39.66C37.0238 39.66 37.0238 40.2552 37.3474 40.5944C37.1682 40.7768 34.7726 42.4272 35.4798 47.9488C35.9582 47.7672 36.521 47.524 36.6046 47.524C36.7491 47.5488 36.7846 47.9488 36.9638 47.9488C37.143 47.9488 37.7302 47.7088 38.353 46.8928C38.3293 47.2208 37.9702 50.5216 39.8977 52.7424C40.2569 52.3176 41.167 50.9096 41.167 50.9096L41.1907 50.4608C41.1907 50.4608 41.2743 48.8952 41.7779 47.4632C42.2815 46.0312 43.2627 44.9752 43.2627 44.9752L48.3862 37.56L47.6198 34.9512L47.6214 34.952Z" fill="#E6C367"/>
<path fill-rule="evenodd" clip-rule="evenodd" d="M42.8317 45.84C42.5971 46.008 42.3386 46.1388 42.0652 46.228C41.9815 45.9248 41.8616 44.8808 42.568 43.8616C43.3945 42.6352 45.202 41.0456 45.7048 39.7816C46.0285 38.968 45.8848 36.9296 48.7588 34.32C51.6327 31.7104 52.7575 30.8128 52.7575 30.8128L57.4035 28.4464L63.1152 30.728L60.2775 42L58.0745 47.28L49.3129 45.6056L42.8309 45.84H42.8317Z" fill="#DCBA5A"/>
<path fill-rule="evenodd" clip-rule="evenodd" d="M46.1758 42.7792L47.2659 41.396V40.4128C47.2659 40.4128 48.4751 40.0848 49.7799 38.7376C51.0846 37.3904 52.893 34.8056 54.4859 34.9632C56.0788 35.1456 56.2343 38.4704 56.2942 39.4056C56.3542 40.3408 56.5579 42.4632 56.8807 43.6048C57.2399 44.7456 53.0011 49.0656 53.0011 49.0656L50.1224 51.2864L46.1758 42.7792Z" fill="#E9CE77"/>
<path fill-rule="evenodd" clip-rule="evenodd" d="M49.5488 54.2961C49.5488 54.2961 50.4352 52.8881 49.7856 52.5849C50.1685 51.7113 50.8749 50.7889 50.8749 50.7889C50.8749 50.7889 51.3777 49.5273 53.0061 47.9737C54.6345 46.4201 55.6409 45.3881 55.9045 44.3449C56.0671 43.665 56.1555 42.9691 56.1682 42.2697C56.3442 42.4154 56.5325 42.5452 56.731 42.6577C56.9946 42.7793 58.2394 43.8225 58.0602 45.9225C57.881 48.0225 57.113 48.8961 57.113 48.8961C57.113 48.8961 56.371 49.6481 55.8446 50.0369C55.281 50.4249 55.0781 50.8737 54.1317 50.9105C54.229 50.8321 54.3383 50.7704 54.4553 50.7281C54.4553 50.7281 53.4734 50.6073 52.9461 51.0921C52.4188 51.5769 51.298 53.0705 50.7352 53.5201C50.1724 53.8841 49.5512 54.2969 49.5512 54.2969L49.5488 54.2961Z" fill="#CDAE50"/>
<path fill-rule="evenodd" clip-rule="evenodd" d="M89.3629 30.6912C87.9482 30.1686 86.4615 29.8739 84.9568 29.8176C82.442 29.7328 78.7661 29.8784 75.162 29.9024C71.2824 29.9264 67.762 28.5552 62.8768 28.3128C62.0749 27.8272 60.0352 25.7032 53.6685 30.2056C54.0513 30.1816 58.2908 29.2104 59.7629 31.08C61.2476 32.9368 60.8285 36.092 60.6256 36.844C60.242 38.5192 58.9965 40.9584 58.4944 42.6696C57.9924 44.3808 58.1108 45.28 57.7517 46.48C57.3925 47.68 56.6024 48.276 57.0689 49.6592C57.6917 49.2712 58.0161 49.2712 59.0564 46.9048C60.0968 44.5384 59.8829 42.8512 61.6076 40.8488C63.296 38.8344 66.1068 36.0792 67.1755 35.3872C68.2443 34.6952 76.7304 30.2296 85.6159 34.4896C87.759 34.2592 89.3637 30.6904 89.3637 30.6904L89.3629 30.6912Z" fill="#D2A83E"/>
<path fill-rule="evenodd" clip-rule="evenodd" d="M57.2479 29.04C57.2391 28.9488 57.2192 28.8591 57.1887 28.7728C57.1056 28.5953 56.9965 28.4316 56.865 28.2872C56.865 28.2872 54.7575 27.8992 53.6919 28.02C51.8236 28.2264 50.1352 30.5688 49.3451 31.7704C48.5549 32.972 47.573 34.828 46.5074 35.7872C46.5191 35.6938 46.4978 35.5991 46.4474 35.52C46.4474 35.52 46.5074 35.6048 46.3882 35.7264C46.269 35.848 46.2682 35.908 46.3282 35.9664L46.5082 36.148C46.5674 36.148 48.2203 35.3952 50.4714 33.268C52.8663 31.0472 54.6983 29.908 55.6566 29.5176C56.1676 29.2975 56.7018 29.1373 57.2487 29.04H57.2479Z" fill="#C29637"/>
<path fill-rule="evenodd" clip-rule="evenodd" d="M98.1284 19.9152C98.1284 19.9152 97.7447 20.4 97.2656 20.9344C96.2 22.0752 94.8108 23.3608 93.6252 24.684C92.5004 25.9464 91.2312 26.9296 89.8056 28.58C88.3801 30.2304 86.7272 32.0624 86.3089 32.5968C85.9261 33.1312 85.6269 34.0048 85.6269 34.4536C85.4233 34.308 85.1841 34.1504 85.1841 34.1504C85.2848 34.3409 85.4052 34.52 85.5432 34.6848C85.8424 35.1096 86.3089 35.6448 86.5488 35.9712C86.8432 36.3867 87.0545 36.8566 87.1708 37.3544C87.3145 37.3784 88.2364 37.5608 89.3865 35.6432C90.5366 33.7256 92.0442 31.6264 92.0442 31.6264L94.439 28.0216L95.9482 24.964L97.8426 21.5416L98.1307 19.9152H98.1284Z" fill="#AC8132"/>
<path fill-rule="evenodd" clip-rule="evenodd" d="M100.583 17.464C100.583 17.464 99.134 18.664 98.5712 19.384C98.0084 20.104 96.6768 21.9936 96.6768 21.9936L97.1559 21.9328L99.587 19.7488L100.534 18.0376L100.582 17.4672L100.583 17.464Z" fill="#A88F33"/>
<path fill-rule="evenodd" clip-rule="evenodd" d="M100.14 113.908C100.14 113.908 100.116 112.913 100.667 112.318C101.23 111.723 102.654 110.85 104.044 107.573C105.433 104.296 105.588 103.556 105.588 103.556C105.588 103.556 103.097 105.716 101.562 106.226C101.921 105.473 102.125 104.939 102.305 104.55C102.101 104.369 101.239 104.162 101.155 104.066C101.634 103.58 101.897 102.39 102.868 101.602C104.113 100.642 106.388 98.992 108.156 97.5216C109.924 96.0512 113.4 92.6312 113.844 91.636C114.108 92.024 114.167 92.2664 114.167 92.2664C114.167 92.2664 112.419 94.5728 111.509 96.0408C110.706 97.3032 110.766 98.0192 110.766 98.0192L112.419 97.2992C112.419 97.2992 112.898 99.0952 110.731 101.826C111.678 101.462 112.06 101.681 112.598 101.377C111.712 101.948 110.491 102.725 109.342 104.86C108.216 106.996 106.683 109.484 104.097 111.037C101.583 112.675 100.133 113.901 100.133 113.901L100.14 113.908Z" fill="#A67A2E"/>
<path fill-rule="evenodd" clip-rule="evenodd" d="M93.6494 31.9544C93.6494 31.9544 92.6675 34.0288 92.5239 35.6432C92.5002 36.032 92.4039 36.3352 92.4039 36.784C92.3802 38.228 92.4876 39.8424 92.1671 40.5944C92.0471 40.2912 91.9871 40.0848 91.8671 39.964C91.688 40.4736 91.3643 42.0632 91.1007 42.6576C90.9815 42.2696 90.7179 40.9224 90.7423 39.3328C90.7668 37.7432 90.8015 37.4392 90.8015 37.112C90.7423 37.5968 90.4187 38.2528 90.2987 38.6408C90.1196 38.3136 89.9159 37.8888 89.6759 37.5368C89.5323 37.7768 89.3531 38.1312 89.1976 38.3136C89.1731 38.168 89.1139 37.7792 89.0776 37.2336C89.054 36.6024 89.0176 35.7896 89.0539 35.6192C89.1131 35.292 89.6167 34.0056 90.6823 32.828C91.9516 31.42 93.2571 28.7144 93.64 27.8768C94.0228 27.0392 95.6512 23.5568 95.6512 23.5568H96.8968L95.0884 27.7312C95.0884 27.7312 93.9991 30.0128 93.4363 30.8512C92.8735 31.6896 91.688 34.092 91.1607 35.0264C91.5435 34.5168 91.8671 34.2496 92.2507 33.764C92.6217 33.424 93.651 31.956 93.651 31.956L93.6494 31.9544Z" fill="#8C6228"/>
<path fill-rule="evenodd" clip-rule="evenodd" d="M100.607 17.3055C100.403 17.9402 100.082 18.5295 99.6597 19.0415C98.9169 19.9399 97.324 21.1407 96.5465 22.0991C95.8361 23.0335 94.4153 25.5823 95.061 28.6039C95.2978 27.9487 95.7438 26.6503 96.9294 25.1815C98.1149 23.7127 99.3842 22.0263 100.008 20.7159C100.63 19.3927 100.713 18.3495 100.713 18.3495L100.95 18.0463L100.807 17.3543L100.603 17.3055H100.607Z" fill="#CBA94C"/>
<path fill-rule="evenodd" clip-rule="evenodd" d="M124.854 97.8032C124.854 97.8032 124.375 96.4807 124.232 95.2791C124.088 94.0775 124.468 93.8392 124.028 92.464C123.764 91.6264 123.286 91.7439 123.166 91.6263C123.046 91.5087 122.962 90.2432 122.986 89.5512C123.01 88.8592 122.962 87.9616 122.842 87.5728C122.663 87.4272 122.543 87.3055 122.28 86.4079C121.981 85.5095 121.837 85.0608 121.693 84.7944C121.55 84.528 121.13 84.2847 121.13 84.0175C121.13 83.4831 121.609 83.2047 121.609 83.0575C121.585 82.7543 121.226 82.9976 121.13 82.912C121.01 82.7664 121.43 81.8928 121.274 81.7712C121.214 81.7112 120.795 82.2207 120.687 82.0751C120.567 81.9287 120.423 80.4847 120.208 79.5263C120.005 78.5919 119.789 77.9127 119.765 77.6335C119.741 77.3663 118.112 72.6575 117.717 71.5167C117.399 70.5528 117.132 69.5725 116.915 68.5799C116.795 68.0095 116.712 66.8439 116.652 66.9655C116.592 67.0871 116.628 67.6815 116.532 67.6575C116.448 67.6327 116.149 65.5583 116.053 65.2303C115.97 64.9023 115.466 63.7903 115.343 62.9855C115.223 62.1719 114.96 60.0479 114.78 58.6039C114.6 57.1599 114.517 56.5655 114.517 56.2039C114.546 55.3195 114.498 54.4342 114.373 53.5583C114.136 52.0287 113.663 50.1719 113.247 49.0927C112.445 47.0535 110.313 41.8351 109.932 40.5367C109.932 40.2087 110.351 40.3912 110.351 40.3912C110.351 40.3912 111.392 43.0367 112.159 45.0751C112.902 47.1143 113.608 48.9103 113.788 49.0927C113.932 49.2743 115.057 51.2767 115.56 54.5535C116.063 57.8303 116.242 60.8519 116.542 62.8663C116.686 63.8263 116.806 64.8447 117.105 65.8639C117.428 66.9687 117.93 68.1095 118.59 69.8567C119.152 71.3255 119.571 72.5512 119.799 73.6072C120.062 74.9544 120.062 75.9735 120.218 76.6415C120.362 77.2119 120.577 78.3519 121.081 80.0015C121.584 81.6511 122.325 83.7759 122.828 85.0983C123.811 87.7439 124.249 89.9528 124.397 91.1304C124.528 92.344 124.972 96.5432 124.852 97.8048L124.854 97.8032Z" fill="#A88F33"/>
<path fill-rule="evenodd" clip-rule="evenodd" d="M100.667 17.16L100.607 17.3056C100.607 17.3056 100.786 17.3664 100.751 17.6096C100.753 17.9424 100.733 18.2749 100.691 18.6048C100.631 19.0296 100.512 19.3568 100.488 19.624C100.488 20.1944 100.572 20.8496 99.7774 22.476C99.5406 22.9248 99.3946 23.3128 99.2746 23.58C98.9755 24.2352 98.9155 24.3328 98.6519 24.636C99.071 24.396 100.58 23.436 101.346 23.58C100.819 23.8832 100.017 24.4784 99.5138 25.2552C99.6338 25.2792 100.137 25.3768 100.935 25.2552C102.264 25.0488 103.749 24.5632 105.053 24.66C106.479 24.7448 105.916 22.9248 105.916 22.9248L104.271 19.26L101.158 17.04L100.667 17.1608V17.16Z" fill="#BE9C44"/>
<path fill-rule="evenodd" clip-rule="evenodd" d="M108.785 44.612C108.785 44.612 107.396 43.204 106.833 38.372C106.27 33.5176 106.39 26.372 106.39 26.372L105.265 23.5808C105.265 23.5808 105.028 21.724 104.438 21.0328C103.849 20.3416 102.691 19.176 102.163 18.6056C101.636 18.0352 101.038 17.2584 100.679 17.1368C100.858 16.8336 101.661 15.1224 104.737 15.0984C107.814 15.0744 108.763 16.8096 109.084 17.4408C109.406 18.072 110.856 20.8008 111.395 26.0008C111.898 31.1944 111.922 31.5832 111.838 33.3792C111.778 34.3744 111.455 36.68 110.891 39.1432C110.376 41.2312 109.814 43.5616 108.784 44.6168L108.785 44.612Z" fill="#A17C34"/>
<path fill-rule="evenodd" clip-rule="evenodd" d="M104.429 48.7504C104.892 48.7842 105.354 48.6785 105.758 48.4464C106.201 48.4224 107.806 48.6288 109.039 47.0392C109.122 47.4024 109.339 48.3864 108.775 49.26C109.075 48.956 109.518 48.8352 109.578 48.7504C109.601 49.1992 110.021 50.5824 108.249 53.944C108.727 53.4104 109.29 53.4344 109.792 53.3736C109.817 54.0048 110.152 56.128 109.266 57.2696C108.679 58.0464 107.721 57.8032 107.721 57.8032C107.735 57.6336 107.735 57.4632 107.721 57.2936C107.698 56.9656 107.578 56.6384 107.662 56.42C107.199 56.2056 106.777 55.9096 106.416 55.5456C105.375 54.5504 104.022 52.852 103.926 51.5896C103.806 50.1816 105.052 49.8784 105.052 49.8784C104.947 49.7838 104.858 49.6731 104.788 49.5504C104.728 49.3448 104.668 49.0168 104.429 48.7504Z" fill="#8C6228"/>
<path fill-rule="evenodd" clip-rule="evenodd" d="M95.1934 33.4832C95.1934 33.4832 95.1334 33.3984 94.8105 33.7864C94.8705 33.3984 94.9305 33.0336 94.9542 32.6816C95.107 32.3557 95.3047 32.0534 95.5415 31.784C95.3615 32.1472 95.2415 32.4752 95.2415 32.4752C95.2415 32.4752 95.6851 31.6376 96.3316 31.128C96.7744 30.764 97.3372 30.5944 97.5764 30.2544C97.84 29.8904 97.78 29.8296 97.84 29.7688C97.84 29.7688 98.4273 29.3808 99.3255 28.2392C99.4447 28.0936 99.6247 27.936 99.7447 27.7904C99.9475 27.7056 100.427 27.4872 100.989 27.1952C101.577 26.868 102.235 26.4192 102.642 26.2352C103.444 25.8712 104.295 25.908 104.69 25.3368C104.989 25.252 105.312 24.3416 105.253 23.5656C105.695 23.7472 107.97 25.1792 108.749 28.3104C109.312 30.5312 108.306 33.9536 107.887 35.6048C107.468 37.256 107.408 38.4808 106.821 39.2328C106.078 40.2288 103.684 41.6328 103.097 42.328C102.594 42.8984 101.086 44.3424 101.145 45.3856C101.205 46.1624 102.151 46.5856 102.355 46.7328C102.559 46.88 102.558 47.0608 102.941 46.9728C103.325 46.8848 103.468 46.7056 103.624 46.7056C103.803 46.7296 103.803 46.7664 103.887 46.7664C103.948 46.7645 104.008 46.7562 104.067 46.7416C104.067 46.7416 104.007 47.8464 101.457 48.1816C101.277 48.2064 101.098 48.2664 100.869 48.3032C101.169 48.1576 101.349 48.1576 101.672 47.7088C101.313 47.648 100.283 47.5872 100.019 47.5024C100.103 47.3568 100.378 46.968 100.606 46.7864C100.809 46.6048 100.582 46.5464 100.403 46.6408C100.094 46.8535 99.7985 47.0843 99.5166 47.332C99.2174 47.5992 98.9538 47.9632 98.4746 48.292C98.331 47.8064 98.3546 46.884 98.9182 46.2168C98.7738 46.2408 98.4983 46.6656 98.2355 46.5808C98.1879 46.1381 98.2162 45.6904 98.3191 45.2576C98.4628 44.7112 99.2411 43.7528 99.2411 43.7528L103.001 36.944L103.803 31.7864L95.1934 33.4816V33.4832Z" fill="#92723A"/>
<path fill-rule="evenodd" clip-rule="evenodd" d="M94.9908 33.7744C94.9908 33.7744 94.7872 33.92 95.1945 34.1992C95.1345 34.284 94.9908 34.5872 94.8108 34.7936C94.608 35.0336 94.3917 35.1824 94.308 35.3888C94.1289 35.8136 93.9852 36.1048 93.9852 36.2872C93.9852 36.4696 93.9252 37.6344 93.4224 38.3864C93.2424 38.6536 93.0388 39.1024 92.8951 39.4056C92.596 39.9392 92.3323 40.3656 92.2724 40.6056C92.1532 41.0304 92.0695 42.1952 92.0695 42.1952C92.0695 42.1952 92.3331 41.8672 92.4286 41.7464C92.2842 42.0496 92.1287 42.3768 91.9014 42.62C92.045 42.4984 92.4642 42.1952 93.1706 41.564C94.1525 40.7272 95.6854 39.3192 97.5538 38.204C96.9902 38.4104 96.5119 38.4104 96.129 38.4712C96.4282 38.168 99.1222 34.964 100.535 34.6608C100.621 34.5505 100.664 34.4121 100.655 34.272L99.445 34.1512L96.9902 34.6848L96.6318 32.7648L94.9908 33.772V33.7744Z" fill="#B18E3E"/>
<path fill-rule="evenodd" clip-rule="evenodd" d="M98.8946 44.6968C98.8946 44.6968 98.571 45.024 98.2718 45.8376C98.0415 45.5938 97.8441 45.3203 97.6846 45.024C97.2418 44.272 96.5598 43.3128 94.9669 43.8592C94.9432 43.3496 94.9069 43.0824 94.9669 42.7184C95.2305 42.6584 96.0325 42.0032 96.8345 41.044C97.3981 40.3888 97.9245 39.636 98.2837 38.6776C98.5205 38.4952 98.9302 38.192 99.4677 37.84C100.234 37.3064 101.156 36.5776 101.3 35.7648C100.941 35.9104 100.174 36.2744 99.0241 36.2144C99.4677 36.008 100.15 35.7896 100.066 34.8912C100.246 34.7696 100.39 34.6848 100.39 34.6848C100.255 34.6392 100.113 34.6186 99.9705 34.624C99.946 34.5392 99.9105 34.4184 99.7069 34.4784C99.5032 34.5384 99.4701 34.5392 99.4432 34.624C99.3595 34.6488 99.0841 34.624 98.8804 34.7704C98.6768 34.9168 98.114 35.4008 97.8985 35.4856C97.9822 35.34 98.1014 35.1224 98.1014 35.1224C98.1014 35.1224 97.5149 35.1824 97.0957 35.3624C96.3293 35.6296 95.4437 36.1152 94.5454 36.588C94.6291 36.4424 94.6654 36.348 94.7246 36.3208C94.7838 36.2936 94.9282 36.2608 94.9282 36.236C94.9282 36.2112 94.869 35.996 94.9046 35.9088C95.1731 35.3322 95.49 34.78 95.8518 34.2584C96.2709 33.6872 96.3546 32.8744 96.3546 32.8744L98.1866 31.94L103.335 30.74L106.677 30.9464L106.258 33.2888L104.284 37.3784L102.596 41.104L100.667 43.3864L98.8954 44.6968H98.8946Z" fill="#543E26"/>
<path fill-rule="evenodd" clip-rule="evenodd" d="M107.24 34.56C107.24 34.56 105.228 37.084 104.666 37.4728C105.025 36.696 107.24 32.072 108.042 30.7856C107.863 30.64 107.623 30.64 108.186 28.3856C107.708 29.5256 107.54 30.1208 107.145 30.424C106.75 30.7272 106.701 30.6304 106.434 30.6304C106.485 30.5381 106.506 30.4321 106.494 30.3272C106.494 30.3272 104.805 30.1208 103.652 30.1208C102.499 30.1208 100.216 30.752 98.946 31.2616C97.9404 31.6864 97.3776 31.6864 97.0185 31.9528C96.6593 32.256 96.4557 32.584 96.2757 32.6688C96.1321 32.7536 95.4501 32.972 95.2938 33.2024C95.1501 33.4424 94.911 33.712 94.911 33.7728C94.911 33.8336 94.851 33.9192 95.0309 33.8576C95.0901 33.8336 95.5338 33.5904 96.0366 33.2872C96.7185 32.8992 97.545 32.4504 98.1441 32.1832C99.8561 31.4912 100.395 31.6128 101.161 31.4672C101.963 31.3216 103.113 30.9816 103.879 30.9816C104.645 30.9576 106.094 30.9816 106.43 31.0424C106.286 31.164 106.166 31.3096 106.226 31.8192C106.226 31.9648 106.106 32.1224 105.989 32.4744C105.631 33.4696 104.948 35.12 104.568 35.9576C104.042 37.0976 103.444 38.0568 103.148 38.6512C102.852 39.2456 102.2 40.8112 101.556 41.6488C100.911 42.4864 100.574 42.996 100.372 43.1784C100.17 43.3608 98.7187 44.44 98.8268 44.8288C99.0905 44.744 100.755 44.1088 101.964 42.7296C103.172 41.3504 103.413 40.5088 104.358 39.756C105.304 39.0032 106.047 37.7416 106.49 36.6984C106.861 35.7272 106.777 35.424 107.244 34.5624L107.24 34.56Z" fill="#806031"/>
<path fill-rule="evenodd" clip-rule="evenodd" d="M63.8822 53.3984C63.8822 53.3984 63.6185 54.5024 63.0194 55.0488C62.433 55.5832 61.391 56.044 61.2718 56.9424C61.1282 57.84 62.3138 58.2896 62.3138 58.2896C62.3138 58.2896 61.6665 59.3696 61.6665 60.1824C61.6665 61.02 61.6428 61.1776 61.7265 61.9784C61.6315 62.0403 61.5508 62.1222 61.4897 62.2184C61.4897 62.2184 61.5489 62.9952 62.1362 63.48C62.7234 63.9648 63.2254 64.2568 63.5246 64.1352C63.5703 64.2341 63.6103 64.3356 63.6446 64.4392C63.6446 64.4392 64.0882 63.2984 64.3873 62.3032C64.6865 61.284 64.9501 61.4288 65.0693 60.0576C65.1885 58.6864 66.4901 56.332 66.4901 56.332L67.3781 54.32L65.9297 53.1792L63.8822 53.3976V53.3984Z" fill="#B6903C"/>
<path fill-rule="evenodd" clip-rule="evenodd" d="M66.5761 55.376C66.2775 55.6867 66.0018 56.0194 65.7513 56.3712C65.3685 56.9056 65.0693 57.3904 64.5065 57.5976C63.9437 57.8048 63.5846 57.8032 63.6201 58.3744C63.6556 58.9456 64.1829 59.1872 64.482 59.4784C64.8057 59.7816 65.0693 60.2912 64.9256 60.8624C65.1048 60.7776 65.4285 60.68 65.7276 60.0248C66.0268 59.3696 68.1193 55.3768 68.1193 55.3768H66.5761V55.376Z" fill="#685026"/>
<path fill-rule="evenodd" clip-rule="evenodd" d="M74.8287 46.1648C74.8287 46.1648 75.0079 45.68 74.8287 45.328C74.6487 44.964 73.5595 44.8424 73.0203 44.4296C72.4576 44.0048 71.7748 43.7096 71.212 43.896C71.2957 43.6896 71.6311 43.24 71.3556 43.1432C71.092 43.0584 70.1109 43.5072 69.8472 43.7136C69.5836 43.92 68.9845 44.1624 68.8653 44.3088C68.7461 44.4552 68.5417 44.7336 68.4217 44.612C68.3017 44.5272 68.2425 44.3088 68.0389 44.4296C67.8352 44.5504 66.8549 45.364 66.6741 45.8376C66.4933 46.3112 66.0868 47.3672 64.8657 48.568C63.6446 49.7688 63.1174 50.5464 63.4765 50.9952C63.8357 51.444 64.0038 51.1168 64.0638 51.5048C64.1099 51.8857 64.0896 52.2719 64.0038 52.6456C63.8601 53.2768 63.621 53.8712 63.9438 53.9928C64.7702 54.26 65.573 53.7528 65.7522 53.908C66.1113 54.2352 65.5485 55.4128 66.3986 55.6432C67.2614 55.8832 68.1115 55.4368 68.1115 55.4368L71.2483 53.7256L74.2659 52.112L75.8098 49.0168L74.9818 46.432L74.824 46.1648H74.8287Z" fill="#D4B968"/>
<path fill-rule="evenodd" clip-rule="evenodd" d="M71.869 53.556C71.869 53.556 71.3417 52.7432 71.9889 52.0264C72.6362 51.3096 73.5574 51.0072 73.9165 50.5584C73.8481 50.4729 73.7564 50.4098 73.6529 50.3768C73.8913 49.9444 74.255 49.5968 74.6948 49.3808C74.5156 49.1992 74.2756 49.0536 74.0128 49.0536C73.4255 49.0536 73.0656 49.4176 72.5273 49.4176C72.0008 49.4176 71.9408 49.1504 71.9408 49.1504C71.9408 49.1504 72.8272 49.0656 72.7428 48.6648C72.6591 48.24 72.506 48.24 72.506 48.24C72.506 48.24 74.218 47.52 74.5172 47.136C74.8163 46.752 74.7808 46.2984 74.8408 46.1168C75.0437 46.1168 76.2292 45.4856 76.7084 45.7528C77.1875 46.02 76.852 46.748 76.852 46.748C76.852 46.748 78.302 45.6432 79.0409 44.56C79.6873 44.6208 79.9881 44.1112 80.4617 44.1112C81.0489 44.1112 81.9709 44.924 82.15 46.6592C82.27 47.6544 82.4492 48.2248 82.27 49.9848C82.1863 50.98 82.21 53.1048 82.5068 54.1592C82.7097 54.9968 83.1888 54.912 83.1888 54.912C83.1153 55.1672 82.9696 55.395 82.7697 55.5672C82.446 55.8704 82.4105 56.672 82.446 56.9752C82.4938 57.1969 82.5538 57.4156 82.626 57.6304C82.626 57.6304 82.2432 58.0792 82.1469 58.3832C82.0632 58.6864 81.6685 58.8928 81.3804 58.8928C81.0923 58.8928 81.2368 58.868 80.8539 58.8928C80.4711 58.9176 80.3511 58.9776 80.1112 58.8928C79.8712 58.808 79.6921 58.7104 79.7884 57.9328C79.872 57.156 76.8307 55.348 76.8307 55.348L71.8579 53.552L71.869 53.556Z" fill="#CCA849"/>
<path fill-rule="evenodd" clip-rule="evenodd" d="M66.1573 61.2256C66.1573 61.2256 67.2465 62.6944 71.7252 62.6944C73.8564 62.6944 74.5992 62.488 75.0404 62.3664C75.5195 62.2448 77.3153 61.5295 79.1236 59.3687C80.752 57.4151 80.3929 56.6144 80.3929 56.6144L79.4457 56.4688L76.3673 56.8935L67.2584 60.8256L66.1533 61.2256H66.1573Z" fill="#585136"/>
<path fill-rule="evenodd" clip-rule="evenodd" d="M69.4977 61.5896C69.4977 61.5896 65.6182 62.464 65.6182 59.976C65.6182 57.5488 68.013 55 68.6121 54.5512C69.2349 54.1016 70.7196 53.5912 70.7196 53.5912H74.3L74.982 55.424L74.6829 59.38L69.4977 61.5888V61.5896Z" fill="#252211"/>
<path fill-rule="evenodd" clip-rule="evenodd" d="M73.078 54.3328C73.078 54.3328 72.336 53.6408 70.6476 54.5728C68.9592 55.5048 67.5937 57.4528 67.51 59.2216C67.4264 60.7864 68.7793 61.952 70.8868 62.0128C72.4552 62.0728 73.4016 61.8912 73.8807 61.7728C73.7607 61.6272 73.138 60.8384 73.138 60.8384L73.0788 54.3336L73.078 54.3328Z" fill="#C3B378"/>
<path fill-rule="evenodd" clip-rule="evenodd" d="M72.348 54.72C72.348 54.72 72.1689 54.5744 71.6376 54.8656C71.1948 55.1056 70.5484 55.74 70.0456 56.1888C69.7219 56.456 69.5183 56.5768 69.3352 56.7832C68.5924 57.6816 67.9696 59.1504 68.3295 59.8784C68.6895 60.6064 69.8743 61.444 72.8919 60.8736L72.3394 54.7208L72.348 54.72Z" fill="#E6D89C"/>
<path fill-rule="evenodd" clip-rule="evenodd" d="M71.366 56.2256C71.366 56.2256 70.8868 56.9784 70.8868 58.18C70.8868 59.4056 71.5696 61.3592 74.0844 61.5048C76.012 61.6264 77.3049 58.6896 78.706 57.5488C79.7716 56.6752 80.418 56.6504 80.418 56.6504C80.418 56.6504 79.3288 55.4504 76.4193 53.896C73.5453 52.3304 70.3241 52.124 68.5757 54.5272C69.4021 54.4664 72.0724 53.7744 72.0724 53.7744L73.378 54.1992L71.366 56.2264V56.2256Z" fill="#252211"/>
<path fill-rule="evenodd" clip-rule="evenodd" d="M75.1254 57.8152C75.0418 57.6336 74.9818 57.3904 75.3291 57.3304C75.6764 57.2704 75.8319 57.3056 75.9519 57.5704C76.0718 57.8352 76.1887 58.056 76.0111 58.1656C75.8319 58.2624 75.3646 58.1656 75.1246 57.8136L75.1254 57.8152ZM74.5626 56.104C74.5626 56.104 74.4426 56.1888 74.5026 56.0192C74.5263 55.8136 74.6826 55.4488 75.0654 55.5344C75.4483 55.62 75.3654 56.044 75.3022 56.1656C75.2391 56.2872 74.9194 56.4928 74.6794 56.4056C74.649 56.3977 74.6209 56.3827 74.5973 56.3617C74.5737 56.3407 74.5553 56.3144 74.5436 56.2848C74.5319 56.2553 74.5272 56.2234 74.53 56.1917C74.5328 56.16 74.5429 56.1294 74.5595 56.1024L74.5626 56.104Z" fill="#6F674D"/>
<path fill-rule="evenodd" clip-rule="evenodd" d="M42.1504 56.88C42.1504 56.88 43.0976 57.6 44.1979 57.572C45.2872 57.5472 46.6883 56.4072 47.3347 55.6784C47.7176 55.2536 48.0451 54.8048 48.4003 54.4528C48.7003 54.1496 48.9031 54.004 49.0468 53.7976C49.2504 53.5576 49.4659 53.1064 49.5741 52.96C49.3104 53.1664 48.9276 53.5312 48.5321 53.7736C48.1493 54.0136 47.3229 54.4648 46.9874 54.5864C46.6646 54.708 43.3115 56.5064 43.3115 56.5064L42.1504 56.88Z" fill="#AC924C"/>
<path fill-rule="evenodd" clip-rule="evenodd" d="M43.5981 47.9128C43.5981 47.9128 44.1246 47.5488 45.1429 47.3176C46.1248 47.0776 48.1005 46.8928 48.1005 46.8928L49.7289 47.6128L50.3754 50.1008L49.1914 52.6864L47.6829 53.6464L45.9701 50.8552L43.6021 47.9176L43.5981 47.9128Z" fill="#9F8E57"/>
<path fill-rule="evenodd" clip-rule="evenodd" d="M41.4669 50.1336L40.9033 50.56C40.9033 50.56 41.0478 50.2928 41.167 49.48C41.2861 48.6672 41.9097 46.6888 42.8198 45.548C43.7299 44.4072 43.7062 44.468 43.7062 44.468C43.6225 44.4525 43.5364 44.4552 43.4538 44.476C43.3712 44.4969 43.2939 44.5353 43.2271 44.5888C43.3471 44.32 44.1135 43.36 44.88 42.88C45.6464 42.4 45.9456 42.2488 46.7475 42.64C47.5495 43.0312 47.7532 43.2344 48.3404 43.2104C48.9277 43.1864 49.4297 42.5552 49.4297 42.5552C49.4297 42.5552 49.5497 42.9432 49.1069 43.8416C48.664 44.74 46.9157 46.572 46.9157 46.572L43.2753 49.096L41.4669 50.136V50.1336Z" fill="#EAC970"/>
<path fill-rule="evenodd" clip-rule="evenodd" d="M44.1599 47.6096C44.1599 47.6096 46.7947 47.9736 47.5967 47.2216C47.6203 47.3064 47.7166 47.3064 47.7166 47.3672C47.7102 47.413 47.6891 47.4554 47.6566 47.488C47.7439 47.4739 47.832 47.4659 47.9203 47.464C48.0257 47.4958 48.1342 47.5162 48.2439 47.5248C48.3323 47.5229 48.4204 47.5146 48.5075 47.5C48.4992 47.5603 48.479 47.6183 48.4481 47.6706C48.4172 47.7228 48.3762 47.7682 48.3276 47.804C48.4476 47.804 48.5644 47.828 48.5644 47.9248C48.5644 48.0216 48.5881 48.3136 48.4444 48.3744C48.3254 48.4078 48.1987 48.399 48.0853 48.3496C48.0947 48.5794 48.1563 48.8038 48.2652 49.0056C48.502 49.4544 49.0072 49.9656 49.686 49.8184C49.686 49.8184 50.0444 50.692 48.536 52.6336C48.3331 52.9008 48.1168 53.2648 47.854 53.568C47.7501 53.7974 47.6707 54.0375 47.6172 54.284C47.6172 54.284 50.1683 53.2888 50.8984 51.0192C51.6412 48.7376 51.7849 46.4928 51.6412 44.3936C51.6167 43.7984 51.5212 43.3744 51.3776 43.0704C51.0184 42.3176 50.012 42.4392 49.6055 42.864C49.0182 43.4592 48.0363 44.9392 46.6716 45.9584C45.2823 46.9776 45.2231 47.1584 44.1567 47.6096H44.1599Z" fill="#D7BC6B"/>
<path fill-rule="evenodd" clip-rule="evenodd" d="M40.9994 50.8864C40.9994 50.8864 40.4966 51.1896 40.233 52.3264C39.9694 53.4912 40.4698 54.9112 40.7595 55.36C41.0492 55.8088 41.7067 57.0352 43.0706 57.096C43.4083 57.0942 43.7421 57.024 44.0526 56.8896C44.5287 56.6683 44.9754 56.3869 45.3818 56.052C45.9691 55.6032 46.4474 55.2152 46.3874 55.1784C46.2438 55.1176 42.7715 52.2048 42.7715 52.2048L41.4659 50.728L40.9986 50.888L40.9994 50.8864Z" fill="#585136"/>
<path fill-rule="evenodd" clip-rule="evenodd" d="M44.2814 55.716C44.2814 55.716 44.9878 55.656 45.407 55.3888C45.8261 55.1216 42.9521 52.2336 42.9521 52.2336L43.1558 55.3536L44.2814 55.716Z" fill="#453A25"/>
<path fill-rule="evenodd" clip-rule="evenodd" d="M41.227 50.6672C41.227 50.6672 40.8678 51.3592 40.8678 51.5416C40.8078 52.136 40.9878 54.0048 41.1315 54.5992C41.2751 55.2304 42.0534 56.1888 43.0598 56.1888C43.6818 56.1888 44.5445 55.8008 44.5445 55.704C44.5445 55.5824 43.6581 55.464 43.4189 55.012C43.2753 54.772 43.2153 54.1752 43.1821 53.572C43.1585 53.184 43.1585 52.7592 43.3021 52.612C43.6257 52.248 43.6849 51.204 43.6849 51.204L44.8342 49.04H43.3226L41.5143 50.1808L41.227 50.6672Z" fill="#84754B"/>
<path fill-rule="evenodd" clip-rule="evenodd" d="M40.7842 51.3353C40.7842 51.3353 41.9682 49.7457 43.0354 49.3809C44.1025 49.0161 44.5801 49.2353 44.5801 49.2353L43.9573 50.8497L43.0709 51.8449L43.1309 52.3545C43.1309 52.3545 42.9864 53.7017 43.8728 54.6361C44.7593 55.5705 45.4176 55.5345 45.8012 55.5345C46.1848 55.5345 47.2859 55.2065 47.8487 53.8593C48.3515 52.5977 48.7707 50.9793 47.765 49.3569C46.7823 47.7425 45.0466 47.6801 44.7111 47.6801C44.3756 47.6801 41.7416 47.8137 40.7842 51.3329V51.3353Z" fill="#252211"/>
<path fill-rule="evenodd" clip-rule="evenodd" d="M71.186 56.7352C70.7432 56.5288 71.1623 55.2672 71.6051 54.8784C72.048 54.4896 72.6107 54.0416 73.5935 53.98C73.9518 53.956 74.2991 54.1864 74.2399 54.4296C74.1563 54.8784 73.5335 55.5096 72.9707 55.9584C72.1924 56.5776 71.6888 56.9656 71.186 56.7352Z" fill="#F7F7E7"/>
<path fill-rule="evenodd" clip-rule="evenodd" d="M47.2376 49.8544C47.5613 49.8304 47.9804 50.0944 48.0641 50.4496C48.1477 50.8376 47.8604 51.6144 47.2376 51.6144C46.7348 51.6144 46.4712 50.9832 46.4712 50.8016C46.4769 50.6523 46.518 50.5066 46.5912 50.3768C46.6149 50.34 46.6748 49.9152 47.2376 49.8544Z" fill="#F8F6DE"/>
<path fill-rule="evenodd" clip-rule="evenodd" d="M42.5682 50.1335C42.5682 50.1335 41.7417 50.5215 41.3589 51.3335C41.0854 51.9332 41.0026 52.6041 41.1221 53.2535C41.1821 53.5567 41.4812 54.3087 41.6849 54.5759C41.8885 54.8431 42.164 55.0255 42.3677 55.0007C42.5713 54.9759 42.9897 54.4303 42.9897 54.1031C42.9897 53.7759 43.0141 52.3919 43.4088 51.6391C43.7561 50.8871 42.5705 50.1343 42.5705 50.1343L42.5682 50.1335Z" fill="#D4C38B"/>
<path fill-rule="evenodd" clip-rule="evenodd" d="M42.6878 50.0728C42.5442 50.1576 42.305 50.2792 42.3642 50.4368C42.4242 50.5824 42.927 50.6768 43.107 51.032C43.3106 51.396 43.3106 51.784 43.2506 51.9664C43.407 51.891 43.549 51.7881 43.6698 51.6624C43.9334 51.3592 44.2562 50.9472 44.5317 50.9472C44.7117 50.9472 44.8909 51.032 45.059 51.032C45.3226 51.032 45.5855 50.9472 45.6218 50.668C45.681 50.304 45.119 49.976 44.7954 50.0368C44.8554 49.7968 44.939 49.4424 44.6754 49.1992C44.4117 48.956 43.5861 49.3816 43.4061 49.5032C43.2262 49.6248 42.6878 50.0736 42.6878 50.0736V50.0728Z" fill="#E2D59D"/>
<path fill-rule="evenodd" clip-rule="evenodd" d="M61.7148 75.5704L63.4868 75.04L63.9896 75.404C63.9896 75.404 64.348 76.1808 64.9116 76.2776C64.7316 76.6656 64.2643 76.9976 64.2888 77.2728C64.3132 77.548 64.5524 77.7584 64.5524 77.7584C64.5524 77.7584 62.9595 80.428 66.0971 83.1184C65.3544 83.4216 64.4088 83.8384 63.906 84.0784C64.2643 84.1632 65.0307 84.3184 65.3544 84.6128C65.678 84.9072 65.678 85.0008 65.9772 85.1832C66.2763 85.3656 66.4555 85.608 66.3963 85.7168C66.1926 85.5952 65.5099 85.232 65.3907 85.5712C65.2715 85.9104 62.4331 85.7776 62.4331 85.7776L57.6434 86.712C57.6434 86.712 57.8226 86.2264 57.3198 85.7776C56.7333 85.244 56.015 85.8016 55.2485 85.2072C54.2429 84.4304 54.2066 83.532 53.8838 83.1928C54.2066 82.9864 54.8657 82.6832 56.4341 82.4728C56.3741 82.3512 56.1705 81.9872 56.2905 81.66C56.4341 81.2352 57.0324 80.968 56.8533 80.46C57.1169 80.3992 57.2361 80.3992 57.8952 79.5616C58.518 78.724 58.9008 78.5424 59.3799 78.4816C59.859 78.4208 60.1464 78.4816 61.0328 77.644C61.6548 77.0496 61.4519 76.54 61.4519 76.54C61.4519 76.54 61.8584 76.4064 61.7156 75.5688L61.7148 75.5704Z" fill="#CBAC5A"/>
<path fill-rule="evenodd" clip-rule="evenodd" d="M56.4823 75.8401C56.5059 75.7185 56.6022 75.6577 57.2487 75.7185C57.8952 75.7793 61.9902 75.3305 63.104 75.2697C64.2296 75.1849 68.1928 75.2448 70.1212 75.6576C72.0495 76.0704 74.0007 76.5561 74.9463 76.7985C75.8935 77.0657 76.1919 77.1617 76.1556 77.2833C76.1319 77.4049 75.9188 77.5233 75.7965 77.4897C75.6773 77.4657 72.5397 76.4945 71.5704 76.2897C70.6011 76.0849 67.2472 75.5369 65.4136 75.5697C63.7015 75.5945 63.0187 75.5457 61.5703 75.7153C60.1211 75.8977 57.7263 76.1401 57.008 76.0433C56.2976 75.9585 56.4444 75.9585 56.4807 75.8369L56.4823 75.8401Z" fill="#D6BC6F"/>
<path fill-rule="evenodd" clip-rule="evenodd" d="M66.121 85.352C66.121 85.352 68.5759 86.6992 69.4623 88.3496C70.1088 89.5752 69.0795 90.1824 69.0795 90.1824C69.0795 90.1824 70.4687 90.1824 70.2887 90.9592C70.205 91.444 67.8939 92.7544 66.3492 93.4464C64.7808 94.1384 64.8407 94.1024 64.0743 94.2232C63.3315 94.3448 61.2958 93.9832 60.8767 94.5872C60.4576 95.1912 60.6399 95.8136 60.7567 95.9104C60.8767 95.9952 61.8468 96.1168 61.8468 96.1168C61.8468 96.1168 61.6431 96.6872 59.6319 96.748C57.6207 96.8088 57.1171 96.9536 56.9971 97.1728C56.8772 97.3784 57.38 97.2576 58.3027 97.4128C59.2246 97.5584 60.5176 97.6528 60.5176 97.6528C60.5176 97.6528 60.0984 98.0168 59.0091 98.308C57.7636 98.6352 55.8116 98.9392 55.2251 99.3032C55.5242 99.5096 55.9678 99.8128 56.1723 99.8368C55.6695 99.9584 54.9622 100.226 54.843 100.322C55.0222 100.444 55.2622 100.59 55.2622 100.59C55.2622 100.59 54.2558 101.815 53.6693 102.119C53.0828 102.423 49.7061 104.012 48.5442 103.709C45.6465 102.932 45.2874 99.716 44.5809 99.4736C43.5153 99.1096 43.0125 99.8368 42.0661 99.3272C42.4852 99.024 42.7134 98.8424 43.1562 98.636C42.677 98.396 40.1985 96.8032 40.1985 96.8032C39.9394 96.2306 39.6517 95.6718 39.3366 95.1288C38.8575 94.2912 38.1526 93.1744 37.6237 92.1912C36.4745 90.0312 36.4145 89.036 35.3726 87.8104C35.5525 87.5704 36.1745 87.604 36.1745 87.604L44.9045 90.5168L60.3842 90.9712L64.4098 85.1464L66.1218 85.3528L66.121 85.352Z" fill="#DFC677"/>
<path fill-rule="evenodd" clip-rule="evenodd" d="M43.1909 94.2352C43.2843 94.3406 43.3932 94.4307 43.5138 94.5024C43.8137 94.7088 44.2565 94.952 44.5557 95.3152C44.6757 95.1336 44.9748 94.8056 45.5029 95.3152C46.0309 95.8248 46.6869 95.4616 47.095 95.5824C47.5141 95.7288 47.5378 95.7888 47.5378 95.7888C47.5378 95.7888 47.7746 95.5824 48.3042 95.364C48.6278 95.2424 49.0107 95.1576 49.4298 95.0368C49.8126 94.952 50.2318 94.8304 50.5199 94.8304C50.7835 95.012 51.7291 96.0304 55.525 94.5272C59.1055 93.1192 59.9311 92.9616 60.5302 93.1792C60.5902 93.0336 60.6502 92.7544 61.5721 92.7912C61.5721 92.4032 60.8057 91.08 60.8057 91.08L56.5788 89.612H54.2668L47.3341 90.8984L43.4924 93.12L43.1933 94.24L43.1909 94.2352Z" fill="#C4A859"/>
<path fill-rule="evenodd" clip-rule="evenodd" d="M40.8794 91.772C40.8794 91.772 40.9631 92.4272 41.9213 93.1192C42.8685 93.8104 43.1661 94.2232 43.1661 94.2232C43.1661 94.2232 43.3461 93.9832 43.4897 93.7384C43.6334 93.4712 43.7534 93.168 43.9925 93.0832C44.4717 92.8768 45.5609 93.2648 45.8009 93.204C46.0045 93.144 45.9445 92.7192 46.16 92.7192C46.6628 92.6944 46.9857 93.0464 47.1656 93.0464C47.3456 93.0464 47.7876 93.0224 47.8476 92.9256C47.9076 92.8288 47.9313 91.8208 48.6141 91.3352C49.3568 90.8016 50.2669 91.032 50.5085 91.1536C50.5085 91.3352 50.5322 91.7848 51.0113 91.8088C51.4904 91.8328 51.5378 91.748 51.9585 91.8936C52.3792 92.0392 52.8804 91.8696 53.1077 92.5848C53.3114 92.5248 53.7905 92.464 53.6705 91.772C53.9073 91.5904 54.1141 91.4688 54.6177 90.7528C54.7377 90.5712 54.9406 90.3648 55.0969 90.0976C55.516 90.0976 56.0188 90.0128 56.6889 90.6072C56.4853 90.7528 56.3653 90.8472 56.3061 90.9952C56.4814 91.1711 56.6414 91.362 56.7845 91.5656C56.9644 91.8056 57.0844 92.1 57.3117 92.1608C57.8145 92.3064 58.641 92.1 59.5629 92.1608C60.4493 92.2216 61.1913 92.5488 61.5149 92.7552C61.6349 92.6952 61.6349 92.6704 61.9341 92.7312C62.2332 92.792 62.4606 92.816 62.1377 92.428C62.3169 92.5128 62.5205 92.6952 62.7005 92.5128C62.8805 92.3304 63.0233 92.064 63.5262 92.0032C64.029 91.9424 64.2089 92.0272 64.4126 91.4936C64.6762 90.8384 63.7661 90.8384 63.7661 90.8384C63.7661 90.8384 64.1852 90.4496 64.6525 89.94C65.2153 89.4064 65.8618 88.7144 66.0173 87.8648C66.2809 86.2992 64.7725 86.0936 64.7725 86.0936L57.4562 88.3752L48.5115 87.9256L40.8841 91.7728L40.8794 91.772Z" fill="#927D49"/>
<path fill-rule="evenodd" clip-rule="evenodd" d="M34.3058 70.352C34.3058 70.352 34.069 70.6552 33.923 71.3712C33.7769 72.0872 33.8393 72.0024 33.7193 72.512C33.5993 73.0216 32.1256 78.0944 32.6782 79.8056C33.2307 81.5168 34.1874 82.148 34.7857 83.5312C34.9057 83.8344 35.0225 84.0168 35.0849 84.284C35.2885 85.1816 35.1093 85.8736 35.3485 86.772C35.4322 87.0752 35.6484 87.4272 35.9713 87.7912C36.6817 88.5432 37.8396 89.2592 38.3393 89.7688C39.0449 90.5216 40.0513 92.0512 41.3324 92.196C42.0152 92.2808 42.9853 91.9896 43.7873 91.5048C44.4977 91.0552 44.9365 90.4248 45.6817 90.0648C46.2081 89.7976 46.7709 89.7008 47.2737 89.5792C48.3157 89.3728 49.2621 89.3392 49.8249 89.4576C50.6868 89.64 52.7225 90.2712 53.8505 90.2712C54.7319 90.2568 55.6083 90.1346 56.4608 89.9072C58.1729 89.3976 60.2441 88.5232 61.6096 88.1352C62.4116 87.8952 63.058 87.832 63.7171 87.6864C64.8427 87.4192 65.7883 87.0552 66.3275 86.3632C65.9683 85.9384 65.5255 85.2832 63.1299 85.3072C60.4122 85.368 57.2746 86.8968 55.7299 87.14C54.1851 87.3832 53.515 87.5888 51.7903 86.9576C50.0996 86.32 50.0435 85.8984 50.0435 85.8984C50.0435 85.8984 48.2683 84.64 47.5255 81.432C46.7828 78.224 47.5255 75.8864 49.4539 73.6648C49.9567 73.0944 49.8367 72.5848 49.8367 72.5848C49.8367 72.5848 51.106 70.8496 50.7586 69.2248C50.3758 67.6104 47.921 67.9384 47.921 67.9384L34.3066 70.352H34.3058Z" fill="#6E6342"/>
<path fill-rule="evenodd" clip-rule="evenodd" d="M36.3533 75.7528C36.2477 75.954 36.1981 76.1805 36.2097 76.408C36.2333 76.7352 36.3296 77.16 37.2989 78.1192C38.1254 78.956 37.9454 79.8904 37.9454 79.8904C37.9454 79.8904 38.3614 79.9752 39.4901 79.44C40.3765 79.0152 40.6741 79.768 40.6741 79.768C40.9322 79.6309 41.2118 79.5404 41.5006 79.5008C41.7621 79.4764 42.0153 79.3945 42.2425 79.2608C42.2425 79.2608 43.2844 80.3408 44.1945 80.8504C45.021 81.3 45.5001 81.6032 45.9074 81.3C46.2902 81.0328 46.2902 80.4864 46.2658 80.244C46.1708 80.0203 46.0505 79.8085 45.9074 79.6128C45.6438 79.2248 45.2246 78.7752 45.197 78.4128C45.137 77.576 45.8198 76.58 45.6753 76.3376C45.5309 76.0952 44.9934 76.0344 43.6641 76.52C42.2875 76.9808 36.3478 75.7552 36.3478 75.7552L36.3533 75.7528Z" fill="#39331F"/>
<path fill-rule="evenodd" clip-rule="evenodd" d="M39.4903 81.1777C39.4903 81.1777 38.8083 80.5225 39.0474 77.3425C39.337 77.3382 39.6261 77.3666 39.9094 77.4273C39.9094 77.4273 40.2812 79.8913 39.4903 81.1777Z" fill="#292311"/>
<path fill-rule="evenodd" clip-rule="evenodd" d="M34.6296 67.9248C34.7248 67.8534 34.813 67.7731 34.8932 67.6848C34.6564 68.1336 33.5632 69.9296 34.4496 72.7576C35.3361 75.5728 37.5628 77.672 40.3049 77.7696C43.0471 77.8672 44.4884 76.5072 46.1365 74.4688C46.783 73.656 47.5257 72.636 48.184 71.9448C49.166 70.864 49.9324 70.5608 49.9324 69.5176C49.9324 67.3816 47.7767 66.4224 44.6036 65.464C41.4305 64.5056 38.5684 64.624 37.0836 65.28C35.6352 65.9952 35.0124 66.748 34.6288 67.9256L34.6296 67.9248Z" fill="#252211"/>
<path fill-rule="evenodd" clip-rule="evenodd" d="M44.8193 82.136L45.0561 82.0144C45.0561 82.0144 45.1153 81.0544 45.4989 81.08C45.8817 81.1408 46.0617 81.6512 46.0254 81.8328C46.0017 82.0144 45.9062 82.3184 45.5226 82.2816C45.0197 82.2936 44.8169 82.136 44.8169 82.136H44.8193Z" fill="#3F3824"/>
<path fill-rule="evenodd" clip-rule="evenodd" d="M43.7534 78.0584C43.7534 78.0584 43.9902 77.9736 44.2799 78.2648C44.5167 78.2648 45.5491 78.1432 45.8728 78.3496C46.1964 78.556 46.2919 78.7376 46.2919 78.7376C46.2919 78.7376 45.0827 79.0048 44.4236 78.7376C43.7534 78.5072 43.7534 78.0584 43.7534 78.0584Z" fill="#2D2815"/>
<path fill-rule="evenodd" clip-rule="evenodd" d="M49.0824 78.24C49.0824 78.1792 48.436 77.7304 47.7532 77.584C47.6332 77.56 47.6087 77.6448 47.5164 77.6448C47.4564 77.6208 47.4327 77.4384 47.4327 77.4384L47.0444 77.6456C47.0444 77.6456 46.9844 77.7304 47.188 77.8856C47.3672 78.0312 47.6672 78.1528 47.7508 78.3952C47.8345 78.6376 47.8345 78.7224 47.8708 78.7592C47.8945 78.7832 48.3136 78.7592 48.5173 78.6376C48.7209 78.516 49.1045 78.3176 49.0801 78.2376L49.0824 78.24Z" fill="#82764F"/>
<path fill-rule="evenodd" clip-rule="evenodd" d="M43.0352 80.704C43.0352 80.704 43.1543 79.8672 43.9571 79.8304C44.7827 79.7696 44.939 80.5824 44.939 80.5824L44.4599 81.068C44.4599 81.056 44.1008 80.5464 43.0391 80.704H43.0352Z" fill="#2D2816"/>
<path fill-rule="evenodd" clip-rule="evenodd" d="M48.244 77.0992C48.244 77.0992 47.8004 77.5848 46.8192 77.7304C46.7355 77.6088 46.5556 77.3664 46.8192 76.9784C47.0829 76.5904 47.382 76.4688 47.6812 76.5896C47.8132 76.6113 47.9363 76.6708 48.036 76.7611C48.1357 76.8514 48.2079 76.9687 48.244 77.0992Z" fill="#574F35"/>
<path fill-rule="evenodd" clip-rule="evenodd" d="M50.0515 77.6945C50.076 77.5729 49.9923 77.5489 50.0515 77.4881C50.1107 77.4273 50.4351 77.3065 50.4951 77.3665C50.5188 77.3913 50.4951 77.4881 50.4951 77.6065C50.4951 77.7249 50.4951 77.8465 50.4351 77.9337C50.3514 78.0553 50.1123 78.1161 49.9923 78.0801C49.8723 78.0441 49.8486 77.8737 49.8486 77.8401C49.9078 77.8161 50.0515 77.7553 50.0515 77.6945ZM52.0959 76.3841C52.0959 76.3233 52.2995 76.2017 52.4195 76.2017C52.5987 76.2017 52.5987 76.3473 52.6231 76.3841C52.6823 76.4081 52.6823 76.3593 52.7423 76.4689C52.8023 76.5785 52.8868 76.7721 52.826 76.8937C52.7652 77.0153 52.5268 77.0993 52.4676 77.0753C52.384 77.0145 52.1203 76.4689 52.0959 76.3841Z" fill="#82764F"/>
<path fill-rule="evenodd" clip-rule="evenodd" d="M47.9805 77.9736C47.9805 77.9736 48.2441 78.0336 48.6033 78.3376C48.4833 78.4224 48.3033 78.5192 48.3033 78.5192C48.3033 78.5192 48.2796 78.24 47.9805 77.9728V77.9736Z" fill="#6E6342"/>
<path fill-rule="evenodd" clip-rule="evenodd" d="M47.3937 75.3032C47.3338 75.2432 47.5729 75.0976 47.7166 75.1216C47.8602 75.1456 47.9202 75.2432 48.0757 75.2672C48.2312 75.2912 48.2557 75.2064 48.3125 75.1456C48.3694 75.0848 48.5762 75.1216 48.6117 75.1456C48.6338 75.1722 48.6539 75.2006 48.6717 75.2304C48.6742 75.1842 48.6861 75.1391 48.7066 75.0978C48.7271 75.0565 48.7558 75.0199 48.7909 74.9904C48.8368 74.9562 48.8898 74.9329 48.9458 74.9224C49.0018 74.9119 49.0595 74.9143 49.1145 74.9296C49.1382 75.0144 49.2581 75.3176 49.2345 75.3784C49.2108 75.4392 48.8516 75.5248 48.7909 75.4632C48.8509 75.6096 49.1145 75.9128 49.15 75.9728C49.1855 76.0328 48.8864 76.1792 48.7672 76.1552C48.5998 76.1432 47.5698 75.536 47.3906 75.3056L47.3937 75.3032ZM48.9621 73.2888C48.94 73.2276 48.8976 73.1762 48.8422 73.1432C48.7585 73.1192 48.483 73.1432 48.483 73.2888C48.483 73.4344 48.7198 74.2488 48.9858 74.6728C49.2858 75.0976 49.4886 75.4488 49.6923 75.5464C49.7562 75.5759 49.8288 75.5797 49.8955 75.5572C49.9621 75.5346 50.0178 75.4873 50.0514 75.4248C50.0751 75.364 50.1351 74.9152 50.1114 73.8592C50.0877 72.8032 50.0514 71.784 49.9914 71.7232C49.9315 71.6624 49.6923 71.6632 49.6086 71.784C49.5249 71.9048 48.9858 73.1072 48.9614 73.2888H48.9621Z" fill="#585136"/>
<path fill-rule="evenodd" clip-rule="evenodd" d="M47.8968 79.5024C47.8968 79.5024 47.4777 79.2352 47.0704 79.4176C46.6875 79.6 46.7112 80.316 46.7112 80.316C46.7973 80.3502 46.8904 80.3625 46.9823 80.3519C47.0742 80.3413 47.1622 80.3081 47.2385 80.2552C47.5021 80.0736 47.8368 79.7704 47.8968 79.5032V79.5024Z" fill="#574F35"/>
<path fill-rule="evenodd" clip-rule="evenodd" d="M48.687 80.4616C48.6633 80.2216 48.4502 80.2216 48.4502 80.0976C48.4649 80.0384 48.4988 79.9858 48.5464 79.9484C48.5941 79.911 48.6528 79.8908 48.713 79.8912C48.833 79.8912 48.9498 80.0368 49.0967 80.1312C49.2403 80.216 49.4558 80.3712 49.4795 80.556C49.5032 80.7408 49.2427 81.2472 48.953 81.2472C48.6633 81.2472 48.7494 80.7008 48.6894 80.4584L48.687 80.4616ZM50.9982 80.1336C50.9982 80.1336 50.519 80.2792 50.5546 80.1336C50.5901 79.988 50.699 79.952 50.8545 79.952C50.9335 79.8682 51.0398 79.8162 51.1537 79.8056C51.2188 79.8024 51.2828 79.8241 51.3328 79.8664C51.3328 79.8664 51.6565 79.7208 51.752 79.8056C51.8475 79.8904 51.7764 79.8904 51.8356 79.988C51.911 80.0964 51.9605 80.221 51.9801 80.352C51.9801 80.4488 51.6209 80.6552 51.3328 80.6192C50.9982 80.5464 51.0574 80.1944 50.9982 80.1336ZM53.7877 79.5872C53.7877 79.5872 53.9313 79.672 53.8121 79.7696C53.7285 79.8544 53.3093 80.0096 52.9494 80.0368C52.5902 80.0368 52.2674 80.0968 52.2674 79.976C52.2674 79.8552 52.5666 79.612 52.7457 79.5512C52.7817 79.5056 52.8273 79.4688 52.8793 79.4436C52.9312 79.4184 52.9881 79.4054 53.0457 79.4056C53.1894 79.4056 53.7514 79.3448 53.9076 79.3208C54.0513 79.296 54.1713 79.3808 54.0868 79.5024C54.0513 79.5872 53.7877 79.5872 53.7877 79.5872ZM54.6141 75.84C54.6141 75.84 54.4341 76.228 54.2313 76.228C54.0276 76.204 54.0276 76.1432 54.0276 76.0824C54.0276 75.9976 54.2313 75.7792 54.2068 75.7184C54.1476 75.7184 54.0032 75.7184 54.0276 75.5728C54.0276 75.4512 54.2313 75.3056 54.4105 75.3328C54.5458 75.2201 54.7144 75.1562 54.8896 75.1512C55.0932 75.1512 55.2724 75.2112 55.2724 75.3328C55.2724 75.4544 55.0356 75.7208 54.9488 75.7824C54.8533 75.8792 54.7333 75.9424 54.6141 75.8424V75.84ZM51.8838 83.012C51.8838 83.012 51.647 83.0368 51.647 83.1576C51.647 83.2184 51.7062 83.2184 51.7907 83.1824C51.8393 83.1797 51.8875 83.1713 51.9343 83.1576C51.958 83.1824 51.958 83.3032 52.138 83.3032C52.2857 83.283 52.4282 83.2336 52.5571 83.1576C52.7008 83.0976 52.8207 83.036 52.8207 82.9176C52.7607 82.7112 52.6408 82.6136 52.4616 82.6136C52.3698 82.6078 52.2782 82.6289 52.1979 82.6744C52.1979 82.6744 52.138 82.5528 51.9343 82.6744C51.7307 82.796 51.7543 82.796 51.8143 82.8568C51.9217 82.9536 51.8862 83.0168 51.8862 83.0168L51.8838 83.012ZM50.5309 84.2744C50.5309 84.2136 50.83 84.092 50.9137 84.1288C50.9974 84.1528 51.2365 84.6136 51.2365 84.6624C51.2365 84.7232 50.9374 84.8688 50.8174 84.8688C50.6974 84.8688 50.4946 84.6624 50.4946 84.6288C50.4946 84.6048 50.6382 84.5688 50.6382 84.544C50.6737 84.484 50.5309 84.3376 50.5309 84.2768V84.2744ZM49.5837 82.5024C49.6437 82.4784 49.6437 82.4176 49.7273 82.3568C49.7535 82.3392 49.7834 82.3278 49.8146 82.3237C49.8458 82.3195 49.8775 82.3227 49.9073 82.3328C49.9284 82.2947 49.9576 82.2617 49.9929 82.2364C50.0281 82.2111 50.0684 82.194 50.111 82.1864C50.2546 82.1624 50.3746 82.1864 50.3478 82.2472C50.3478 82.4296 50.4677 82.5504 50.4677 82.696C50.4677 82.8416 50.3841 83.024 50.0849 83.1456C49.7857 83.2304 49.3785 83.2304 49.3185 83.2064C49.2585 83.1824 49.1985 82.9392 49.2585 82.8176C49.3185 82.696 49.4858 82.5632 49.5821 82.5024H49.5837Z" fill="#82764F"/>
<path fill-rule="evenodd" clip-rule="evenodd" d="M49.965 82.5848C49.965 82.5848 49.7614 82.7064 49.7614 82.7672C49.7433 82.826 49.7353 82.8874 49.7377 82.9488C49.7377 82.9848 50.0014 82.9248 50.0369 82.888C50.0487 82.864 49.965 82.648 49.965 82.5848Z" fill="#6E6342"/>
<path fill-rule="evenodd" clip-rule="evenodd" d="M48.1843 82.0144C48.3035 82.0392 48.5071 82.0144 48.6626 82.0752C48.7826 82.136 48.8663 82.2576 48.7463 82.4032C48.6263 82.5488 48.5095 82.7672 48.2435 82.7304C47.9443 82.7064 47.657 82.5488 47.657 82.4272C47.652 82.3503 47.6621 82.2731 47.6868 82.2002C47.7114 82.1272 47.7501 82.06 47.8007 82.0024C47.9207 81.9056 47.9799 81.9664 48.1835 82.0144H48.1843Z" fill="#585136"/>
<path fill-rule="evenodd" clip-rule="evenodd" d="M48.0402 82.136C48.0402 82.136 47.6573 82.4392 47.561 82.5856C47.4411 82.7312 46.8546 83.4832 46.6754 83.6408C46.7349 83.5344 46.8028 83.433 46.8783 83.3376C46.6415 83.4911 46.4639 83.7224 46.3755 83.9928C46.2318 84.4424 47.1782 84.6848 47.8002 84.8672C48.4222 85.0496 48.663 85.1072 48.663 85.1072C48.434 84.7584 48.2374 84.3888 48.0757 84.0032C47.8389 83.4328 47.7165 83.372 47.872 83.1048C47.992 82.8376 48.172 82.656 48.172 82.4496C48.1002 82.2576 48.0402 82.136 48.0402 82.136Z" fill="#574F35"/>
<path fill-rule="evenodd" clip-rule="evenodd" d="M34.3898 83.0952C34.4769 83.1114 34.5662 83.1114 34.6534 83.0952C34.8326 83.0704 36.7009 82.3752 38.653 82.5C40.1143 82.5895 41.5626 82.8307 42.9753 83.22C45.4302 83.8752 48.4833 85.1736 50.459 85.9144C50.9855 86.12 51.5009 86.4848 51.8798 86.6296C53.389 87.2248 53.4482 87.2248 54.3346 87.3824C55.3766 87.528 56.4422 87.176 57.5559 86.9336C58.9207 86.6296 61.2555 86.484 63.303 86.1808C63.9651 86.0878 64.6182 85.9376 65.2551 85.732C65.2551 85.732 63.6267 87.3824 59.7226 87.9768C58.1446 88.2196 56.541 88.2401 54.9574 88.0376C53.7119 87.916 52.8862 87.7336 52.2634 87.552C51.557 87.3456 50.1078 86.7992 48.3239 86.352C47.0783 86.024 45.6891 85.7816 44.097 85.4784C40.1693 84.7496 35.9069 83.9128 34.3882 83.1L34.3898 83.0952Z" fill="#252211"/>
<path fill-rule="evenodd" clip-rule="evenodd" d="M29.9827 75.5952C29.0355 76.408 28.0306 77.1848 27.0495 77.9368L24.0919 80.24C23.0863 80.992 22.1043 81.7688 21.0979 82.5216C20.0915 83.2744 19.0867 83.9896 18.0195 84.6816C18.9667 83.8688 19.9716 83.116 20.9772 82.376C21.9828 81.636 23.0255 80.9104 23.9956 80.16L26.9532 77.8536C27.9707 77.1016 28.9526 76.3248 29.9827 75.5968V75.5952ZM24.7502 84.0904C24.7502 84.0904 25.8158 83.192 27.145 81.9304C28.7971 80.3656 30.8209 78.3624 31.4674 77.9992L24.7494 84.0912L24.7502 84.0904Z" fill="#CFB66C"/>
<path fill-rule="evenodd" clip-rule="evenodd" d="M24.7505 84.0896C25.2778 83.556 25.8406 83.0344 26.4034 82.524L27.2653 81.772C27.5289 81.532 27.8289 81.2624 28.0917 80.9952C28.6182 80.4616 29.1337 79.8904 29.6601 79.3448C29.9211 79.0704 30.197 78.8111 30.4866 78.568C30.6313 78.4381 30.7921 78.3279 30.9649 78.24C31.1094 78.1552 31.2649 78 31.4677 77.9728C31.3485 78.1552 31.2049 78.24 31.0849 78.3976C30.9412 78.5192 30.8213 78.6648 30.7021 78.7856C30.4384 79.0528 30.1393 79.2952 29.8756 79.5384C29.3128 80.024 28.7264 80.4984 28.1636 81.0064C27.6008 81.5144 27.0743 82.0624 26.5107 82.572C25.9005 83.0944 25.3378 83.604 24.7505 84.092V84.0896ZM31.9113 79.2352C31.9113 79.2352 28.0081 83.1072 27.2053 83.7376L31.9113 79.2352Z" fill="#CFB66C"/>
<path fill-rule="evenodd" clip-rule="evenodd" d="M31.9111 79.2352C31.56 79.6472 31.1835 80.0362 30.7839 80.4L29.5999 81.5408C29.2171 81.9288 28.8572 82.3176 28.4506 82.7056C28.0315 83.0696 27.6487 83.4256 27.2051 83.7616L28.3543 82.6208C28.738 82.2328 29.1571 81.9056 29.5644 81.5168L30.7137 80.376C31.1083 79.976 31.4919 79.5872 31.9111 79.2352ZM32.0903 81.3344C31.7305 82.3522 31.3065 83.3454 30.821 84.308C29.8154 86.3472 28.307 88.8952 27.6479 90.1944L32.0903 81.3344Z" fill="#CFB66C"/>
<path fill-rule="evenodd" clip-rule="evenodd" d="M32.0902 81.3352C32.0902 81.784 31.9702 82.1728 31.8266 82.5608C31.6865 82.9491 31.5269 83.3299 31.3482 83.7016C31.1683 84.0656 30.9646 84.4544 30.761 84.8064C30.5573 85.1584 30.3181 85.5216 30.1382 85.8864L28.9289 88.0464C28.5098 88.7664 28.1025 89.4904 27.6597 90.1824C27.9588 89.4056 28.3661 88.6776 28.7497 87.9616C29.1689 87.2416 29.5517 86.5216 29.9337 85.7768C30.1203 85.4057 30.2881 85.0252 30.4365 84.6368C30.6157 84.248 30.7949 83.884 30.9393 83.532C31.1185 83.144 31.2622 82.7792 31.4422 82.428C31.645 82.0512 31.8131 81.6872 32.0886 81.3352H32.0902Z" fill="#CFB66C"/>
<path fill-rule="evenodd" clip-rule="evenodd" d="M36.3537 91.2864C36.3537 91.2864 35.1697 92.876 35.2881 94.8904C35.6109 93.8352 36.0182 92.2208 36.3537 91.2864ZM37.4793 92.88C37.4793 92.88 37.0602 97.2 36.7129 99.324C37.2038 96.8688 37.2993 97.0752 37.4793 92.88ZM45.3221 99.5792C45.3221 99.5792 43.5501 104.859 43.5138 106.326C43.8974 104.818 44.6393 101.735 45.3221 99.5752V99.5792Z" fill="#DEC270"/>
<path fill-rule="evenodd" clip-rule="evenodd" d="M49.4653 90.96C49.4653 90.96 52.3393 95.7656 54.495 99.8672C53.9116 97.8032 52.5698 94.0176 49.4653 90.96Z" fill="#CBAF59"/>
<path fill-rule="evenodd" clip-rule="evenodd" d="M57.189 98.0344C58.7669 100.861 60.1899 103.774 61.4514 106.76C61.2122 104.697 60.5649 101.166 57.189 98.0344Z" fill="#E3C677"/>
<path fill-rule="evenodd" clip-rule="evenodd" d="M79.8914 105.12C80.3697 104.817 81.3162 103.166 82.1426 102.754C82.9682 102.329 83.591 102.244 84.3338 101.406C85.0757 100.532 85.281 99.9985 86.9078 99.3073C89.1834 98.3113 87.6182 97.0249 87.6182 97.0249C87.8689 96.7753 88.1369 96.5443 88.4201 96.3337C89.0074 95.8849 89.6894 95.3385 89.6302 94.3793C89.5465 92.7657 89.2474 90.4233 87.9418 89.0641C89.2111 88.7969 91.6414 88.6153 93.1514 88.2273C94.899 87.7777 95.7017 87.1465 95.7017 87.1465C95.7017 87.1465 94.6961 85.4113 96.3245 83.6641C97.9529 81.9169 99.2822 80.8729 100.264 78.9185C99.1385 78.7729 97.4225 78.1665 93.0433 79.8529C93.2797 79.9656 93.5078 80.0952 93.726 80.2409C93.726 80.2409 91.0321 80.9937 90.0501 81.8313C88.3373 83.2993 88.1218 84.5009 86.2661 85.3993C84.4103 86.2977 82.542 86.0545 80.998 86.7825C79.4541 87.5105 79.226 88.1297 78.6624 88.3969C78.7824 88.5425 78.6387 88.7849 78.8661 88.9913C78.7224 89.1977 77.8841 90.5809 77.034 90.5809C77.1177 90.9089 77.836 91.1513 77.836 91.1513C77.836 91.1513 77.3095 91.5401 75.9684 91.6369C76.6504 92.3569 77.2977 93.1417 79.0815 94.2825C78.9379 94.5857 78.3388 95.0352 78.5787 95.6056C78.8424 96.176 79.5259 96.9529 82.2547 97.5841C80.8654 97.6441 79.2378 97.9721 77.0451 97.6689C74.8539 97.4017 74.4947 97.2441 73.1418 97.5841C73.2855 97.7297 73.6683 97.7297 74.0038 98.1177C73.6446 98.1417 71.3934 97.8505 70.627 98.8705C69.825 99.9257 69.4777 101.662 69.5377 102.826C69.1186 103.033 68.7113 103.397 68.9149 104.15C69.1186 104.902 70.1842 105.145 70.867 105.618C71.5489 106.127 71.6089 106.309 72.2562 106.188C72.9382 106.042 73.9438 105.351 74.531 105.351C75.1183 105.351 75.5366 105.8 75.5366 105.8C75.5366 105.8 77.1295 105.023 77.285 105.169C77.4287 105.314 77.3087 106.249 77.4642 106.394C77.6221 106.504 79.4162 105.424 79.8953 105.12H79.8914Z" fill="#ECD592"/>
<path fill-rule="evenodd" clip-rule="evenodd" d="M114.7 56.5536C107.217 36.9664 88.7163 33.3376 88.7163 33.3376H35.9344L36.138 53.2888H46.6496V97.84H35.9336V117.755H87.2553C99.6241 117.755 109.539 105.158 109.539 105.158C125.416 82.3184 114.7 56.5536 114.7 56.5536H114.7ZM87.5307 91.7352C87.5307 91.7352 83.5051 97.6216 79.1251 97.6216H70.3635L70.1559 53.3376H81.4C81.4 53.3376 86.6096 54.4416 90.2492 64.8904C90.2492 64.8904 95.0744 79.8504 87.5307 91.7352Z" fill="white" fill-opacity="0.8"/>
</g>
<defs>
<clipPath id="clip0_5_2">
<rect width="148" height="150" fill="white"/>
</clipPath>
</defs>
</svg>
