<svg width="32" height="32" viewBox="0 0 32 32" fill="none" xmlns="http://www.w3.org/2000/svg">
<circle cx="15.5" cy="16.5" r="15.5" fill="white"/>
<g clip-path="url(#clip0_1427_2069)">
<path d="M15.3544 9.06503C17.7593 9.06503 19.7088 7.93118 19.7088 6.53251C19.7088 5.13384 17.7593 4 15.3544 4C12.9495 4 11 5.13384 11 6.53251C11 7.93118 12.9495 9.06503 15.3544 9.06503Z" fill="#E6007A"/>
<path d="M15.3544 28.151C17.7593 28.151 19.7088 27.0171 19.7088 25.6185C19.7088 24.2198 17.7593 23.0859 15.3544 23.0859C12.9495 23.0859 11 24.2198 11 25.6185C11 27.0171 12.9495 28.151 15.3544 28.151Z" fill="#E6007A"/>
<path d="M9.28524 12.5758C10.4877 10.4932 10.4799 8.23757 9.2678 7.53777C8.05574 6.83796 6.0984 7.95895 4.89596 10.0416C3.69352 12.1242 3.70132 14.3798 4.91339 15.0796C6.12545 15.7794 8.0828 14.6584 9.28524 12.5758Z" fill="#E6007A"/>
<path d="M25.8057 22.1132C27.0081 20.0305 27.001 17.7753 25.7898 17.076C24.5785 16.3766 22.6218 17.498 21.4194 19.5806C20.217 21.6633 20.2241 23.9185 21.4353 24.6178C22.6466 25.3172 24.6033 24.1958 25.8057 22.1132Z" fill="#E6007A"/>
<path d="M9.2678 24.6185C10.4799 23.9187 10.4877 21.6631 9.28524 19.5804C8.0828 17.4978 6.12545 16.3768 4.91339 17.0766C3.70132 17.7764 3.69352 20.032 4.89596 22.1147C6.0984 24.1973 8.05574 25.3183 9.2678 24.6185Z" fill="#E6007A"/>
<path d="M25.7976 15.0803C27.0088 14.3809 27.016 12.1257 25.8135 10.0431C24.6111 7.96047 22.6544 6.8391 21.4432 7.53843C20.2319 8.23777 20.2248 10.493 21.4272 12.5756C22.6296 14.6582 24.5863 15.7796 25.7976 15.0803Z" fill="#E6007A"/>
</g>
<defs>
<clipPath id="clip0_1427_2069">
<rect width="22.707" height="24.1488" fill="white" transform="translate(4 4)"/>
</clipPath>
</defs>
</svg>
