<svg width="32" height="32" viewBox="0 0 32 32" fill="none" xmlns="http://www.w3.org/2000/svg">
<g clip-path="url(#clip0_1427_2073)">
<path d="M16.26 31.0122C24.4074 31.0122 31.0122 24.4074 31.0122 16.26C31.0122 8.11259 24.4074 1.50781 16.26 1.50781C8.11259 1.50781 1.50781 8.11259 1.50781 16.26C1.50781 24.4074 8.11259 31.0122 16.26 31.0122Z" fill="#3D8130"/>
<path d="M21.8812 21.0687L21.875 21.0625L21.8812 21.0687Z" fill="#3D8130"/>
<path d="M10.2646 13.2062L9.60195 14.497L8.9162 15.8512L8.43215 17.119L8.10944 18.4674L7.90775 19.9426L7.78674 21.2161L7.64844 22.0517L7.78674 22.7029L8.023 23.2619L8.46096 24.034L9.47517 24.6679L10.2243 24.9618C10.4087 25.0194 10.6046 25.0771 10.7717 25.1289L11.6592 25.2903L12.927 25.3479H13.9757C14.0968 25.3479 15.1571 25.2903 15.1628 25.2845L16.5113 25.3076L17.8136 25.1462L18.3783 24.91L18.7644 24.4489L18.7817 23.8381C18.7587 23.7863 18.6838 23.5903 18.6607 23.5154C18.6434 23.4635 18.3841 23.1581 18.1478 22.8931L18.1421 22.8873C18.0383 22.7375 17.8712 22.4781 17.8712 22.3917C17.8712 22.3053 17.975 22.0517 17.998 22.0056L18.0095 21.9826L18.5512 21.827L18.9085 22.0863L19.2312 21.9077L19.5942 21.5446L20.2281 21.0778L20.8044 20.7494L21.2596 20.6629L21.8589 21.0721L21.8186 21.026L22.0664 20.807L22.2969 20.4267V20.0291L22.2508 19.9138L21.9569 20.1501L21.4325 20.2999H21.421L20.6142 20.2826L19.4444 20.4036L19.0756 20.444L18.7932 20.4036L18.0383 20.2999L17.1855 20.1385L15.8082 19.9138H15.8025L14.4828 19.3664L13.3246 18.6979L12.6158 18.2196L12.5466 17.8796L12.6388 17.5627L12.9212 17.3552L13.5781 17.5051L15.013 17.9488C15.716 18.0928 16.7879 18.306 16.857 18.3118C16.8916 18.3118 17.0299 18.3349 17.3757 18.3925C17.7445 18.4501 18.2516 18.5366 18.3553 18.5366C18.5339 18.5366 19.9112 18.6115 19.9919 18.6172C20.0668 18.6172 21.1847 18.5942 21.3057 18.5942C21.3864 18.5942 21.8186 18.4501 22.0779 18.3579L22.4698 17.8911L22.8443 17.24C22.8674 17.0498 22.8443 16.8596 22.7752 16.681C22.683 16.439 22.5101 16.2315 22.2911 16.0932C22.1759 16.3122 22.026 16.4505 21.8532 16.5139C21.7898 16.5369 21.7149 16.5485 21.6457 16.5485C21.542 16.5485 21.4383 16.5254 21.3518 16.4793L21.4095 16.3756C21.5362 16.439 21.6803 16.4505 21.8186 16.4044C21.9742 16.3468 22.1067 16.2085 22.2104 15.9953C22.0837 16.0414 21.9454 16.0702 21.8071 16.0702C21.7206 16.0702 21.6342 16.0644 21.5478 16.0414L21.5593 15.9837L21.5708 15.9261C21.5766 15.9261 22.0203 16.0356 22.3545 15.7763C22.5908 15.5976 22.7233 15.2749 22.7464 14.8312L22.3603 15.2865L21.8935 15.4997C21.6861 15.5515 20.9945 15.7244 20.9312 15.7244C20.9081 15.7244 20.8159 15.7129 20.5912 15.6726C20.3088 15.6265 19.8881 15.5631 19.7786 15.5631C19.5827 15.5631 19.3061 15.3499 19.2773 15.3268L19.2427 15.3037L19.4617 14.6641L20.0668 13.9784L20.7064 13.5231H21.5017L22.2508 13.6038L22.5735 13.9726L22.7291 14.2031V13.5807L22.1067 13.356C22.0376 13.3445 21.421 13.258 21.2711 13.258C21.1271 13.258 20.5739 13.3445 20.4817 13.356L19.6807 13.8746L19.6173 13.7767L20.4356 13.2465H20.4471C20.4759 13.2408 21.0983 13.1428 21.2654 13.1428C21.4267 13.1428 22.0952 13.2408 22.124 13.2465L22.1355 13.2523L22.8098 13.5001L22.8731 13.5346L22.8789 13.4885L22.562 13.2119L21.9915 12.9353L21.3 12.8777L20.5047 13.016L20.1878 13.1543L20.1417 13.0448L20.4759 12.9008L21.2942 12.7567L22.0203 12.8201L22.0491 12.8374L21.8301 12.4974L21.2135 11.9557L21.2193 11.9499L18.8221 12.0191C18.8221 12.0191 18.5109 12.0594 18.1536 12.1055L18.4936 12.5953L18.6665 12.9008L18.58 13.2062L18.4648 13.1716L18.5397 12.9123L18.3899 12.653L18.0268 12.1286L18.0499 12.1113C17.6004 12.1689 17.1221 12.2265 17.0933 12.2265C17.0414 12.2265 15.1167 12.3706 15.0361 12.3706C14.8747 12.3591 14.7133 12.3418 14.5578 12.3072C14.5289 12.2899 13.2439 11.8232 13.1978 11.7943C13.1517 11.7655 12.7022 11.3333 12.7022 11.3333L11.8263 11.0625L11.0599 12.0076L10.2646 13.2062ZM19.6173 15.8512C19.7325 15.9031 19.8363 15.9664 19.9458 16.0298L20.6027 16.1047L20.9773 16.0241L21.0003 16.1393L20.6085 16.22L20.1532 16.1681C20.3491 16.3122 20.5278 16.4736 20.6891 16.658C20.8044 16.7905 20.9081 16.9346 20.9945 17.0844L20.8908 17.142C20.7871 16.9691 20.6661 16.802 20.522 16.658C20.3319 16.462 20.1186 16.2834 19.8881 16.1393L19.5539 15.9492L19.6173 15.8512ZM13.0307 13.696L13.5551 13.1947L14.0103 12.8201L14.6615 12.6933L15.3472 12.6703H16.0791L16.6841 12.6933L17.9116 12.7164L18.2977 12.9526L18.7702 13.3848L19.041 13.719L19.1678 14.399L19.0526 14.4221L18.9315 13.7709L18.6838 13.4597L18.2285 13.0448L17.8828 12.8316L16.9204 12.8143L17.3411 13.0448C17.5658 13.1601 17.9519 13.3675 17.9922 13.454C18.0211 13.5001 18.3265 13.7997 18.6088 14.0648L18.6146 14.0706L19.0468 14.6295L19.1102 15.0905L18.9949 15.1078L18.9373 14.6814L18.5282 14.1512C18.3841 14.0187 17.9346 13.5923 17.8943 13.5116C17.8597 13.4655 17.5601 13.2926 17.295 13.1543L16.6784 12.8143L16.0848 12.797H15.3588L14.6788 12.8143L14.0737 12.9296L13.6415 13.2811L13.1517 13.7536L13.0998 14.0648L13.2036 14.157L13.4629 14.0187L13.8893 13.4885L14.6615 13.1947L15.6642 13.0909L16.5113 13.1716L17.6119 13.7421L18.0672 14.0129L18.5051 14.595L18.7068 15.2288L19.0007 15.419V15.6783L18.7299 15.9261L18.2458 16.1278L18.0383 16.3007L17.8194 16.658L17.7099 16.8366L17.6984 16.8424C17.5543 16.9173 17.3007 17.0498 17.2316 17.0498C17.1797 17.0613 16.857 17.2054 16.5689 17.3495L16.5401 17.3552C16.517 17.361 16.0099 17.5166 15.8831 17.5396L15.8659 17.4244C15.9753 17.4071 16.4536 17.263 16.4997 17.2457C16.7879 17.1074 17.1452 16.9403 17.2085 16.9403C17.3468 16.8885 17.4794 16.8251 17.6119 16.7502L17.6638 16.6637L17.9289 16.2315L17.9922 16.1797C17.8078 16.1624 17.5658 16.1336 17.5024 16.099C17.4736 16.0875 17.3007 16.0644 16.396 16.0644C16.1713 16.0644 15.6411 15.9434 15.5662 15.9203C15.5086 15.9031 14.9669 15.7417 14.9611 15.7417L14.9496 15.7359L14.9381 15.7244C14.9323 15.7187 14.431 15.2404 14.0622 15.0271L14.1198 14.9234C14.4771 15.1309 14.9323 15.5573 15.013 15.6322C15.0994 15.6553 15.5489 15.7936 15.6065 15.8109C15.6699 15.8339 16.1886 15.9492 16.396 15.9492C17.4851 15.9492 17.5312 15.978 17.5601 16.001C17.6004 16.0241 17.8597 16.0529 18.0787 16.0702L18.0729 16.1105L18.1594 16.0356L18.6434 15.8339L18.8566 15.638V15.4939L18.7068 15.396L18.7126 15.4132L18.2112 15.5976L17.5197 15.6783C17.4851 15.6783 17.3353 15.6841 17.1682 15.6841C16.9723 15.6841 16.7591 15.6783 16.6957 15.6553C16.6035 15.6265 16.0214 15.4997 15.7333 15.4363H15.7276L15.7218 15.4305C15.3588 15.2346 14.9093 14.9868 14.8747 14.9234C14.8459 14.8888 14.6211 14.7736 14.431 14.6814H14.4252L13.7856 14.3068L13.6991 14.3241L13.6876 14.2492L13.4859 14.1339L13.1747 14.3011L12.9558 14.1109L13.0307 13.696ZM13.2958 16.4563L13.3246 16.5715L12.9327 16.6637L12.7368 16.7098L12.7253 16.6637L12.708 16.5946L13.2958 16.4563ZM13.5435 17.0037L13.5147 17.119C13.3822 17.0901 13.2439 17.0959 13.1114 17.119C12.8924 17.1593 12.5697 17.2861 12.2585 17.6434L12.1721 17.5684C12.8117 16.8193 13.5147 16.9922 13.5435 17.0037Z" fill="#3D8130"/>
<path d="M14.3351 14.0868C14.3696 14.0811 15.1879 13.9831 15.2917 13.9831C15.332 13.9831 15.4472 13.9946 15.5971 14.0062C15.7988 14.0235 16.1388 14.0523 16.1906 14.0465C16.2713 14.0235 17.0781 13.9543 17.1703 13.9428L17.6485 13.9082L17.5506 13.8506L16.473 13.2916L15.6605 13.2109L14.6808 13.3089L13.9547 13.5855L13.5859 14.0465L13.8222 14.1848L14.3351 14.0868Z" fill="#3D8130"/>
<path d="M17.1806 14.061C16.8233 14.0955 16.2758 14.1474 16.2182 14.1589C16.1663 14.1704 15.9819 14.1589 15.5901 14.1243C15.4575 14.1128 15.3308 14.1013 15.2962 14.1013C15.2155 14.1013 14.5932 14.1762 14.3569 14.1993L13.9766 14.2684L14.4952 14.5738C14.6565 14.6487 14.9331 14.787 14.9793 14.8562C15.0254 14.9023 15.4172 15.127 15.7802 15.323C15.8724 15.3402 16.6331 15.5074 16.7484 15.5477C16.829 15.5765 17.2728 15.5707 17.5321 15.565L18.2121 15.4843L18.6212 15.3287L18.5981 15.3172L18.3907 14.6603L17.9815 14.1128L17.7395 13.9688L17.7453 14.0264L17.1806 14.061Z" fill="#3D8130"/>
<path d="M22.5045 14.0206L22.2163 13.6979L21.5133 13.6172H20.7642L20.1591 14.0494L19.5828 14.7005L19.3984 15.2365C19.4906 15.3056 19.675 15.4209 19.7961 15.4209C19.9171 15.4209 20.3089 15.4843 20.6259 15.5361C20.7757 15.5592 20.9255 15.5822 20.9486 15.5822C21.0004 15.5765 21.5421 15.4439 21.8763 15.3632L22.3028 15.1673L22.6428 14.7755L22.614 14.5911L21.5652 14.1646L20.2225 14.1243L20.2282 14.009L21.594 14.0494L22.7234 14.5104L22.7695 14.8043C22.7695 14.787 22.7695 14.7697 22.7695 14.7524V14.4297L22.5045 14.0206Z" fill="#3D8130"/>
<path d="M21.2484 20.7734L20.8566 20.8484L20.3034 21.1653L19.681 21.6263L19.5081 21.7992L19.9 22.0758L19.9288 22.2948L19.6637 22.5598L19.583 22.4792L19.8078 22.2544L19.7963 22.1449L19.4275 21.8856L19.318 21.9951L19.0875 22.1219L19.0241 22.4331L19.3468 22.7154L19.8135 22.6981C19.9 22.6347 20.044 22.5425 20.1132 22.5368C20.1824 22.4964 20.2515 22.4503 20.3149 22.3985C20.4705 22.2775 20.5339 22.2371 20.58 22.2371C20.7183 22.168 20.8508 22.0931 20.9776 22.0066L20.9949 21.9951L21.5596 22.0585L21.7555 22.2544L21.7152 22.2948C21.5942 22.4273 21.4559 22.6002 21.4501 22.6405C21.4501 22.6693 21.4444 22.6981 21.4328 22.7212L21.5654 22.6463L22.1877 22.2026L22.2569 22.3005L21.623 22.75L21.3291 22.9114C21.3176 22.9286 21.3061 22.9459 21.3003 22.9517L21.2772 22.9344L20.8278 23.1822L20.5166 23.6317L20.4071 23.8968L20.6318 24.2137L20.8796 24.4961L21.1735 24.5306L21.4444 24.473L21.4386 24.4154L21.7382 23.9429L22.303 23.3954L22.3837 23.4818L21.8247 24.0235L21.5538 24.4442L21.5711 24.7611L21.8593 24.9571L22.2396 24.9974L22.4528 24.934L22.4125 24.8706L22.4413 24.836C22.4528 24.8188 22.764 24.4672 22.8274 24.4096C22.8735 24.3635 23.1385 24.0581 23.2711 23.9083L23.3575 23.9832C23.3402 24.0005 22.9714 24.4327 22.908 24.4903C22.8619 24.5364 22.6372 24.7842 22.5565 24.8764L22.7582 25.176H23.0982L23.3921 25.0435L23.6341 24.6862L23.9568 24.3405L24.0433 24.4211L23.7206 24.7611L23.4728 25.1357L23.1213 25.2913H22.6948L22.5162 25.0262L22.2454 25.1069L21.8132 25.0666L21.4559 24.8188L21.4444 24.5883L21.1735 24.6459L20.8162 24.5998L20.5454 24.2886L20.142 24.0466L19.7213 23.5798L19.6176 22.8537L19.7329 22.8364L19.8193 23.4588L20.3207 23.0612L20.8623 22.5425L21.1735 22.1161L21.0237 22.0988C20.8566 22.2083 20.6606 22.3293 20.5915 22.3409C20.5223 22.3812 20.4532 22.4273 20.3898 22.4792C20.2285 22.6002 20.1651 22.6405 20.1247 22.6405C20.0383 22.6808 19.9518 22.7327 19.8769 22.7903L19.8596 22.8019L19.3122 22.8249L18.9031 22.4619L18.9607 22.1853L18.9203 22.2083L18.5515 21.9432L18.1194 22.07C18.0732 22.1737 18.0387 22.2775 18.0156 22.387C18.0214 22.4331 18.1482 22.6463 18.2634 22.8134C18.419 22.9863 18.7763 23.3954 18.7993 23.4818C18.8166 23.5452 18.8915 23.7296 18.9203 23.7988L18.9261 23.8103L18.9088 24.594L19.1336 24.9282C19.2488 24.9974 20.0959 25.493 20.1939 25.5506C20.263 25.5909 20.8739 25.7638 21.2484 25.8675L22.5104 25.9886L23.5246 25.8503L24.3948 25.4526L24.8673 24.9974L24.7578 24.594L24.1758 23.5107L23.7551 22.871L23.0233 22.0758L21.9457 21.4822L21.7843 21.1365L21.2484 20.7734Z" fill="#3D8130"/>
<path d="M22.1649 18.45L22.1476 18.4558C22.0323 18.4961 21.4446 18.7036 21.3178 18.7036C21.1968 18.7036 20.0154 18.7208 20.0039 18.7266C19.9866 18.7266 18.546 18.6459 18.3673 18.6459C18.2521 18.6459 17.7853 18.571 17.3704 18.5019C17.1399 18.4615 16.9037 18.427 16.8691 18.427C16.7884 18.427 15.2959 18.1215 14.9962 18.0639H14.9905L13.5556 17.6202L12.9563 17.4877L12.7488 17.6432L12.6797 17.891L12.7316 18.1561L13.4 18.6056L14.5468 19.2683L15.8491 19.81L17.2148 20.0289L18.0677 20.1903L19.0877 20.3286L20.6205 20.1672H20.6263L21.4273 20.1845L21.9113 20.0462L22.3205 19.7178L22.6547 19.2049L22.7296 18.9686L22.6201 18.7036C22.1361 19.1415 22.0842 19.1588 22.0554 19.1646L21.5598 19.2856L20.1826 19.349H20.1768L18.7361 19.2683L17.307 19.009L16.1545 19.032H16.1488L14.9501 18.7266L13.8898 18.3578L13.3251 18.012L13.3885 17.9141L13.9475 18.2541L14.9905 18.6171L16.1718 18.9168L17.3243 18.8937H17.3301L18.7592 19.153L20.1883 19.2337L21.554 19.1761L22.0323 19.0551C22.0612 19.0435 22.2225 18.9168 22.5625 18.6056C22.6086 18.5653 22.6374 18.5364 22.6489 18.5249L23.0869 17.9256L23.2367 17.6432C23.2137 17.5453 23.1906 17.4531 23.1791 17.3551C23.1215 17.2629 23.0581 17.1822 22.9832 17.1016C22.9832 17.1534 22.9832 17.2053 22.9716 17.2572V17.2687L22.574 17.9544L22.1649 18.45Z" fill="#983B1F"/>
<path d="M24.8457 24.5606L24.2579 23.4657L23.8315 22.8145L23.0939 21.9905L22.0278 21.4085L21.8722 21.0742L21.8434 21.0915C21.8434 21.0915 21.9414 21.4488 22.0105 21.4834C22.0797 21.518 23.0017 21.9905 23.0478 22.0135C23.0939 22.0366 23.8949 22.9932 23.8949 22.9932L24.5403 24.1169L24.9264 24.9813C24.9264 24.9813 24.4308 25.4884 24.402 25.4941C24.3732 25.4999 23.4166 25.9667 23.3878 25.9667C23.359 25.9667 22.4312 26.0704 22.3793 26.0589C22.3275 26.0416 21.1865 25.9436 21.1001 25.9379C21.0078 25.9321 19.9533 25.5114 19.9533 25.5114L19.0428 24.964L18.7835 24.5606L18.4205 24.9697C18.4205 24.9697 17.9076 25.2291 17.8384 25.2291C17.7693 25.2291 16.513 25.3962 16.4151 25.3962H13.8853C13.8853 25.3962 11.3844 25.3501 11.2749 25.2982C11.2403 25.2809 11.0386 25.2175 10.7735 25.1311L10.5603 25.0908L10.2261 24.964C9.81694 24.8372 9.44814 24.7277 9.44814 24.7277L8.41664 24.0593C8.41664 24.0593 7.98444 23.3101 7.96716 23.2698C7.94987 23.2294 7.68479 22.6013 7.68479 22.5725C7.68479 22.5437 7.59259 22.0424 7.59259 22.0424L7.77699 20.8956L7.85767 19.6912L8.05359 18.3774C8.05359 18.3774 8.38206 17.0577 8.38782 17.0001C8.39359 16.9367 8.92374 15.6344 8.92374 15.6344L9.48271 14.6259L10.2203 13.1046L11.0328 11.9579L11.8223 11.0186L11.8742 11.0359L11.782 10.9609L11.0156 11.9118L10.1627 13.1507L9.49424 14.4531L8.80849 15.8015L8.31867 17.0808L7.99021 18.4408L7.78852 19.9275L7.6675 21.201L7.52344 22.0596L7.6675 22.7396L7.91529 23.3159L8.37053 24.1226L9.41356 24.7796L10.5142 25.2118L11.6379 25.4192L12.923 25.4826H13.9718C14.0928 25.4826 15.1012 25.425 15.1646 25.4192L16.5188 25.4423H16.5246L17.8442 25.2809H17.85L18.455 25.0274L18.7662 24.6528L19.0255 25.0389L19.037 25.0447C19.0486 25.0504 20.0109 25.6094 20.1089 25.6728C20.2126 25.7362 21.0943 25.9782 21.198 26.0012L22.4888 26.1223L23.5261 25.9782H23.5319L24.4308 25.569L24.4423 25.5633L24.9783 25.0447L24.8457 24.5606Z" fill="black"/>
<path d="M11.0418 11.9627L10.2293 13.1095L9.49169 14.6308L8.93272 15.6393C8.93272 15.6393 8.40256 16.9416 8.3968 17.005C8.39103 17.0684 8.06257 18.3822 8.06257 18.3822L7.86664 19.6961L7.78596 20.9005L7.60156 22.0472C7.60156 22.0472 7.69376 22.5486 7.69376 22.5774C7.69376 22.6062 7.95884 23.2343 7.97613 23.2747C7.99342 23.315 8.42561 24.0641 8.42561 24.0641L9.45711 24.7326C9.45711 24.7326 9.82591 24.8421 10.2351 24.9689L9.48592 24.675L8.47171 24.0411L8.03376 23.2689L7.79749 22.7099L7.65919 22.0588L7.79749 21.2232L7.9185 19.9497L8.12019 18.4744L8.4429 17.126L8.92695 15.8582L9.6127 14.504L10.2754 13.2132L11.1225 11.9858L11.8889 11.0407L11.8371 11.0234L11.0418 11.9627Z" fill="black"/>
<path d="M21.2769 20.6562L20.8217 20.7427L20.2454 21.0712L19.6116 21.5379L19.2485 21.901L18.9258 22.0796L18.5685 21.8203L18.0268 21.9759L18.0153 21.9989C17.9923 22.0508 17.8885 22.2986 17.8885 22.385C17.8885 22.4715 18.0614 22.7365 18.1594 22.8806L18.1652 22.8864C18.4014 23.1514 18.6607 23.4569 18.678 23.5087C18.6953 23.5836 18.776 23.7796 18.799 23.8314L18.7817 24.4423L18.3957 24.9033L17.8309 25.1395L16.5286 25.3009L15.1801 25.2778C15.1686 25.2778 14.1083 25.3412 13.9931 25.3412H12.9443L11.6765 25.2836L10.7891 25.1222C11.0484 25.2029 11.2558 25.2721 11.2904 25.2894C11.3941 25.3412 13.9008 25.3873 13.9008 25.3873H16.4306C16.5286 25.3873 17.7906 25.2202 17.854 25.2202C17.9231 25.2202 18.436 24.9609 18.436 24.9609L18.799 24.5517L19.0583 24.9551L19.9688 25.5026C19.9688 25.5026 21.0234 25.9175 21.1156 25.929C21.2078 25.9348 22.343 26.0327 22.3949 26.05C22.4467 26.0673 23.3745 25.9578 23.4033 25.9578C23.4321 25.9578 24.3887 25.4968 24.4175 25.4853C24.4464 25.4795 24.9419 24.9724 24.9419 24.9724L24.5558 24.108L23.9104 22.9843C23.9104 22.9843 23.1094 22.0277 23.0633 22.0047C23.0172 21.9816 22.0952 21.5091 22.0261 21.4745C21.9569 21.44 21.859 21.0827 21.859 21.0827L21.8878 21.0654V21.0596L21.2769 20.6562ZM21.9454 21.4861L23.023 22.0796L23.7433 22.8748L24.164 23.5145L24.746 24.5978L24.8555 25.0012L24.383 25.4565L23.5128 25.8541L22.4986 25.9924L21.2366 25.8714C20.862 25.7676 20.2512 25.5948 20.182 25.5544C20.0841 25.4968 19.237 25.0012 19.1217 24.9321L18.897 24.5978L18.9143 23.8141V23.8084C18.8855 23.7392 18.8106 23.5548 18.7933 23.4914C18.7702 23.405 18.4129 22.9959 18.2574 22.823C18.1421 22.6501 18.0096 22.4369 18.0096 22.3965C18.0326 22.2871 18.0672 22.1833 18.1133 22.0796L18.5455 21.9528L18.9143 22.2179L18.9546 22.1949L18.897 22.4715L19.3061 22.8345L19.8536 22.8115L19.8709 22.7999C19.9458 22.7423 20.0322 22.6904 20.1187 22.6501C20.1648 22.6501 20.2224 22.6098 20.3837 22.4887C20.4471 22.4369 20.5163 22.3908 20.5854 22.3504C20.6546 22.3447 20.8563 22.2179 21.0176 22.1084L21.1674 22.1257L20.8563 22.5521L20.3146 23.0708L19.8132 23.4684L19.7268 22.846L19.6116 22.8633L19.7153 23.5894L20.1359 24.0562L20.5393 24.2982L20.8102 24.6094L21.1674 24.6555L21.4383 24.5978L21.4498 24.8284L21.8071 25.0761L22.2393 25.1165L22.5101 25.0358L22.6888 25.3009H23.1152L23.4667 25.1453L23.7145 24.7707L24.0372 24.4307L23.9508 24.3501L23.6281 24.6958L23.386 25.0531L23.0921 25.1856H22.7522L22.5505 24.886C22.6311 24.7938 22.8559 24.546 22.902 24.4999C22.9654 24.4365 23.3342 24.0101 23.3515 23.9928L23.265 23.9179C23.1325 24.0735 22.8674 24.3731 22.8213 24.4192C22.7579 24.4826 22.4467 24.8341 22.4352 24.8456L22.4064 24.8802L22.4467 24.9436L22.2335 25.007L21.8532 24.9667L21.5651 24.7707L21.5478 24.4538L21.8186 24.0331L22.3776 23.4914L22.2969 23.405L21.7322 23.9524L21.4325 24.425L21.4383 24.4826L21.1674 24.5402L20.8736 24.5056L20.6258 24.2233L20.401 23.9063L20.5105 23.6413L20.8217 23.1918L21.2712 22.944L21.2942 22.9613C21.3 22.9498 21.3115 22.9382 21.323 22.9209L21.6169 22.7596L22.2508 22.3101L22.1817 22.2121L21.5593 22.6559L21.4268 22.7308C21.4383 22.7077 21.4441 22.6789 21.4441 22.6501C21.4498 22.604 21.5881 22.4369 21.7091 22.3043L21.7495 22.264L21.5535 22.0681L20.9888 22.0047L20.9715 22.0162C20.8447 22.1027 20.7122 22.1833 20.5739 22.2467C20.5278 22.2467 20.4644 22.2928 20.3088 22.4081C20.2454 22.4599 20.1763 22.506 20.1071 22.5464C20.038 22.5521 19.8997 22.6443 19.8075 22.7077L19.3407 22.725L19.018 22.4426L19.0814 22.1315L19.3119 22.0047L19.4214 21.8952L19.7902 22.1545L19.8017 22.264L19.577 22.4887L19.6577 22.5694L19.9227 22.3043L19.8939 22.0854L19.5021 21.8088L19.6749 21.6359L20.2973 21.1749L20.8505 20.8579L21.2424 20.783L21.7725 21.1461L21.9454 21.4861ZM20.3665 24.0619L20.2109 23.9697L19.8651 23.5894L20.3953 23.1745L20.9427 22.6443L21.3 22.1488L21.5017 22.1718L21.5881 22.2582C21.4786 22.3793 21.3288 22.5579 21.3288 22.6386C21.3115 22.7077 21.2769 22.7711 21.2366 22.823L20.7353 23.0996L20.401 23.5779L20.2627 23.9236L20.3665 24.0619Z" fill="black"/>
<path d="M21.7727 12.3179L22.0666 12.704C22.0666 12.704 22.2107 12.9288 22.2626 12.9461C22.3144 12.9634 22.7927 13.24 22.7927 13.24L22.9886 13.4589L22.9483 13.5857L22.7985 13.5396L22.8215 14.283H22.8676V13.6145L23.0002 13.6894L23.0347 13.4071L22.6602 13.0786L22.2568 12.8827L22.2741 12.8711L21.9629 12.3813L21.3348 11.8281L21.2656 11.9088H21.329L21.7727 12.3179Z" fill="black"/>
<path d="M22.7464 15.3551C22.7464 15.3551 22.5331 15.7816 22.5101 15.7931C22.487 15.8104 22.2969 15.8911 22.2969 15.8911L22.3142 15.9948C22.4006 16.0582 22.487 16.1273 22.562 16.2022C22.5735 16.2195 22.7003 16.4731 22.804 16.6632H22.9077C22.8097 16.3751 22.6138 16.1273 22.3545 15.9717C22.366 15.9487 22.3776 15.9199 22.3891 15.8968C22.4064 15.8853 22.4294 15.8738 22.4467 15.8565C22.7291 15.6433 22.8731 15.2745 22.8904 14.7558V14.3928L22.8213 14.2891L22.8386 14.848L22.7464 15.3551Z" fill="black"/>
<path d="M21.8765 12.4714L22.0954 12.8114L22.0666 12.7941L21.3405 12.7307L20.5223 12.8747L20.188 13.0188L20.2341 13.1283L20.5511 12.99L21.3463 12.8517L22.0378 12.9093L22.6083 13.1859L22.9252 13.4625L22.9195 13.5086L22.8561 13.4741L22.1819 13.2263L22.1703 13.2205C22.1415 13.2147 21.4788 13.1168 21.3117 13.1168C21.1446 13.1168 20.5223 13.2147 20.4934 13.2205H20.4819L19.6636 13.7507L19.727 13.8486L20.528 13.33C20.6202 13.3185 21.1734 13.232 21.3175 13.232C21.4673 13.232 22.0839 13.3242 22.1531 13.33L22.7754 13.5547V14.1886L22.6198 13.9581L22.2971 13.5893L21.548 13.5086H20.7528L20.1131 13.9639L19.508 14.6496L19.2891 15.2893L19.3236 15.3123C19.3525 15.3354 19.6291 15.5486 19.825 15.5486C19.9345 15.5486 20.3609 15.6177 20.6375 15.6581C20.8622 15.6926 20.9544 15.7099 20.9775 15.7099C21.0409 15.7099 21.7324 15.5371 21.9398 15.4852L22.4066 15.272L22.7927 14.8167C22.7697 15.2605 22.6371 15.5832 22.4008 15.7618C22.0609 16.0211 21.6171 15.9116 21.6171 15.9116L21.6056 15.9692L21.5941 16.0269C21.6805 16.0442 21.767 16.0557 21.8534 16.0557C21.9917 16.0557 22.13 16.0326 22.2568 15.9808C22.1531 16.194 22.0205 16.3323 21.8649 16.3899C21.7324 16.436 21.5826 16.4245 21.4558 16.3611L21.3982 16.4648C21.4904 16.5109 21.5941 16.534 21.6921 16.534C21.7612 16.534 21.8304 16.5225 21.8995 16.4994C22.0724 16.436 22.2164 16.2977 22.3375 16.0787C22.5564 16.217 22.7293 16.4245 22.8215 16.6665H22.8388C22.7408 16.4764 22.6083 16.2228 22.5968 16.2055C22.5161 16.1306 22.4354 16.0614 22.349 15.9981L22.3317 15.8943C22.3317 15.8943 22.5219 15.8137 22.5449 15.7964C22.568 15.7791 22.7812 15.3584 22.7812 15.3584L22.8734 14.8571L22.8561 14.2981L22.833 13.5547L22.9829 13.6008L23.0232 13.4741L22.8273 13.2551C22.8273 13.2551 22.349 12.9727 22.2971 12.9612C22.2453 12.9439 22.1012 12.7192 22.1012 12.7192L21.8073 12.3331L21.3578 11.9297H21.2944L21.2887 11.9354L21.8765 12.4714ZM22.7754 14.8052L22.7293 14.5113L21.5999 14.0503L20.2341 14.01L20.2284 14.1252L21.571 14.1656L22.6198 14.592L22.6486 14.7764L22.3086 15.1683L21.8822 15.3642C21.548 15.4449 21.0063 15.5774 20.9544 15.5832C20.9314 15.5832 20.7816 15.5601 20.6317 15.5371C20.3148 15.4852 19.9229 15.4218 19.8019 15.4218C19.6867 15.4218 19.5023 15.3066 19.4043 15.2374L19.5887 14.7015L20.165 14.0503L20.77 13.6181H21.5192L22.2222 13.6988L22.5103 14.0215L22.7812 14.4306V14.7533C22.7754 14.7706 22.7754 14.7879 22.7754 14.8052Z" fill="black"/>
<path d="M19.0949 20.431L19.4637 20.3906H18.8125L19.0949 20.431Z" fill="black"/>
<path d="M22.3763 20.4137C22.3591 20.4425 22.0248 20.9842 22.0248 20.9842L21.875 21.0648L21.9096 21.1052L22.1747 20.8747L22.4282 20.4483V20.3906H22.3763C22.3821 20.4022 22.3821 20.4079 22.3763 20.4137Z" fill="black"/>
<path d="M22.3719 20.4137C22.3719 20.4079 22.3776 20.3964 22.3776 20.3906H22.3142V20.4137L22.0837 20.794L21.8359 21.013L21.8763 21.0591L21.882 21.0648L22.0319 20.9842C22.0261 20.9842 22.3603 20.4483 22.3719 20.4137Z" fill="black"/>
<path d="M22.9199 16.883L22.9718 16.958C22.9603 16.86 22.943 16.762 22.9084 16.6641H22.8047C22.8681 16.7851 22.9199 16.883 22.9199 16.883Z" fill="black"/>
<path d="M23.2955 17.5232C23.2897 17.552 23.2205 17.7825 23.2033 17.8171C23.186 17.8575 22.6443 18.6008 22.6443 18.6008L22.7711 18.8601C22.7711 18.8601 22.7941 19.0445 22.7768 19.0734C22.7595 19.1022 22.2812 19.8455 22.2812 19.8455L22.3562 20.053C22.3562 20.053 22.3735 20.3123 22.3677 20.393H22.4196V19.9954L22.3562 19.8225L22.408 19.7822L22.7595 19.2405L22.8517 18.9466L22.7134 18.6066C22.725 18.5951 22.7307 18.5893 22.7307 18.5893L23.1802 17.9727L23.3588 17.6442L23.3531 17.6212C23.33 17.529 23.307 17.431 23.2955 17.3331C23.2955 17.31 23.2955 17.2466 22.9958 16.9297L22.9728 16.9527L23.1514 17.2063C23.1514 17.2063 23.3012 17.4944 23.2955 17.5232Z" fill="black"/>
<path d="M22.8141 16.6641H22.7968C22.866 16.8427 22.889 17.0329 22.866 17.223L22.4856 17.8742L22.0938 18.341C21.8287 18.4332 21.3965 18.5772 21.3216 18.5772C21.2006 18.5772 20.0827 18.5945 20.0077 18.6003C19.9213 18.5945 18.5498 18.5196 18.3712 18.5196C18.2674 18.5196 17.7603 18.4389 17.3915 18.3755C17.0515 18.3179 16.9075 18.2949 16.8729 18.2949C16.798 18.2891 15.7319 18.0759 15.0289 17.9318L13.594 17.4881L12.9371 17.3383L12.6547 17.5457L12.5625 17.8627L12.6317 18.2027L13.3404 18.681L14.4987 19.3494L15.8184 19.8969H15.8241L17.2014 20.1216L18.0542 20.283L18.8091 20.3867H19.4661L20.6359 20.2657L21.4426 20.283H21.4541L21.9785 20.1331L22.2724 19.8969L22.3185 20.0121V20.3867H22.3819C22.3877 20.306 22.3704 20.0467 22.3704 20.0467L22.2955 19.8392C22.2955 19.8392 22.7738 19.0959 22.7911 19.0671C22.8083 19.0382 22.7853 18.8538 22.7853 18.8538L22.6585 18.5945C22.6585 18.5945 23.206 17.8512 23.2175 17.8108C23.2348 17.7705 23.2982 17.5457 23.3097 17.5169C23.3155 17.4881 23.1656 17.2 23.1656 17.2L22.987 16.9464L22.9351 16.8715C22.9294 16.883 22.8775 16.7851 22.8141 16.6641ZM22.9812 17.2518C22.987 17.2 22.9927 17.1481 22.9927 17.0963C23.0677 17.1712 23.1311 17.2576 23.1887 17.3498C23.2002 17.4478 23.2175 17.5457 23.2463 17.6379L23.0965 17.9203L22.6585 18.5196C22.647 18.5311 22.6124 18.5599 22.5721 18.6003C22.2321 18.9115 22.0765 19.0325 22.0419 19.0498L21.5636 19.1708L20.1979 19.2284L18.7688 19.1477L17.3397 18.8884H17.3339L16.1814 18.9115L15.0001 18.6118L13.957 18.2488L13.3981 17.9088L13.3347 18.0067L13.8994 18.3525L14.9597 18.7213L16.1583 19.0267H16.1641L17.3166 19.0037L18.7457 19.263L20.1864 19.3437H20.1921L21.5694 19.2803L22.065 19.1593C22.088 19.1535 22.1457 19.1362 22.6297 18.6982L22.7392 18.9633L22.6643 19.1996L22.3301 19.7125L21.9209 20.0409L21.4369 20.1792L20.6359 20.1619H20.6301L19.0973 20.3233L18.0773 20.185L17.2244 20.0236L15.8587 19.8047L14.5563 19.263L13.4096 18.6003L12.7411 18.1508L12.6893 17.8857L12.7584 17.6379L12.9659 17.4823L13.5652 17.6149L15.0001 18.0586H15.0058C15.3055 18.122 16.7922 18.4216 16.8787 18.4216C16.9075 18.4216 17.1495 18.462 17.38 18.4966C17.7949 18.5657 18.2617 18.6406 18.3769 18.6406C18.5556 18.6406 19.9962 18.7213 20.0135 18.7213C20.025 18.7213 21.2064 18.6982 21.3274 18.6982C21.4541 18.6982 22.0419 18.4908 22.1572 18.4505L22.1745 18.4447L22.5894 17.9491L22.987 17.2634L22.9812 17.2518Z" fill="black"/>
<path d="M13.119 17.1223C13.2515 17.0934 13.3898 17.0934 13.5224 17.1223L13.5512 17.007C13.5224 17.0012 12.8193 16.8226 12.1797 17.5717L12.2661 17.6466C12.5773 17.2836 12.9 17.1626 13.119 17.1223Z" fill="black"/>
<path d="M12.9299 16.6606L13.3218 16.5684L13.2987 16.4531L12.7109 16.5914L12.7282 16.6606H12.9299Z" fill="black"/>
<path d="M12.7381 16.7102L12.9283 16.6641H12.7266L12.7381 16.7102Z" fill="black"/>
<path d="M19.8988 16.1475C20.1293 16.2973 20.3425 16.4702 20.5327 16.6661H20.694C20.5327 16.4817 20.354 16.3204 20.1581 16.1763L20.6133 16.2282L21.0052 16.1475L20.9821 16.0323L20.6076 16.1129L19.9506 16.038C19.8469 15.9689 19.7374 15.9112 19.6222 15.8594L19.5703 15.9631L19.8988 16.1475Z" fill="black"/>
<path d="M20.9021 17.1481L21.0058 17.0905C20.9194 16.9407 20.8157 16.7966 20.7004 16.6641H20.5391C20.6774 16.8139 20.7984 16.9752 20.9021 17.1481Z" fill="black"/>
<path d="M13.4948 14.1376L13.6965 14.2529L13.708 14.3278L13.7945 14.3105L14.4341 14.6851H14.4399C14.63 14.7773 14.8548 14.8925 14.8836 14.9271C14.9239 14.9847 15.3676 15.2325 15.7307 15.4342L15.7364 15.44H15.7422C16.0361 15.5033 16.6124 15.6301 16.7046 15.6589C16.7737 15.682 16.9869 15.6877 17.1771 15.6877C17.3442 15.6877 17.4998 15.682 17.5286 15.682L18.2201 15.6013L18.7215 15.4169L18.7157 15.3996L18.8655 15.4976V15.6416L18.6523 15.8376L18.1682 16.0393L18.0818 16.1142L18.0876 16.0738C17.8686 16.0566 17.6093 16.022 17.5689 16.0047C17.5401 15.9874 17.494 15.9528 16.4049 15.9528C16.1975 15.9528 15.6788 15.8376 15.6154 15.8145C15.5578 15.7972 15.1083 15.6589 15.0219 15.6359C14.947 15.561 14.4917 15.1403 14.1287 14.9271L14.0711 15.0308C14.4456 15.2498 14.947 15.7223 14.947 15.7281L14.9585 15.7396L14.97 15.7454C14.9758 15.7454 15.5175 15.9067 15.5751 15.924C15.6442 15.9471 16.1744 16.0681 16.4049 16.0681C17.3096 16.0681 17.4767 16.0911 17.5113 16.1027C17.5747 16.1372 17.8167 16.166 18.0011 16.1833L17.9377 16.2352L17.6727 16.6674H17.811L18.0299 16.3101L18.2374 16.1372L18.7215 15.9355L18.9923 15.6877V15.4284L18.6984 15.2383L18.4967 14.6044L18.0588 14.0224L17.6035 13.7515L16.5029 13.181L15.6558 13.1004L14.6531 13.2041L13.8809 13.498L13.4545 14.0281L13.1952 14.1664L13.0914 14.0742L13.1433 13.7631L13.6331 13.2905L14.0653 12.939L14.6704 12.8238L15.3504 12.8065H16.0764L16.67 12.8238L17.2866 13.1637C17.5517 13.302 17.8571 13.4749 17.8859 13.521C17.9262 13.6017 18.3757 14.0281 18.5198 14.1607L18.9289 14.6908L18.9865 15.1173L19.1018 15.1L19.0384 14.639L18.6062 14.08L18.6004 14.0742C18.3181 13.8149 18.0127 13.5153 17.9838 13.4634C17.9435 13.377 17.5574 13.1695 17.3327 13.0543L16.912 12.8238L17.8744 12.841L18.2201 13.0543L18.6754 13.4692L18.9231 13.7803L19.0442 14.4315L19.1594 14.4085L19.0326 13.7285L18.7618 13.3942L18.2893 12.9621L17.9032 12.7258L16.6757 12.7027L16.0707 12.6797H15.3388L14.6531 12.7027L14.0019 12.8295L13.5467 13.2041L13.0223 13.7054L12.9531 14.1203L13.1721 14.3105L13.4948 14.1376ZM17.9896 14.1146L18.3988 14.662L18.6062 15.3189L18.6293 15.3305L18.2201 15.4861L17.5401 15.5667C17.2808 15.5725 16.8371 15.5783 16.7564 15.5494C16.6412 15.5091 15.8805 15.3478 15.7883 15.3247C15.4253 15.1288 15.0276 14.904 14.9873 14.8579C14.9412 14.7946 14.6646 14.6562 14.5033 14.5756L13.9846 14.2702L14.365 14.201C14.6012 14.1722 15.2236 14.103 15.3043 14.103C15.3388 14.103 15.4656 14.1146 15.5981 14.1261C15.99 14.1607 16.1744 14.1722 16.2263 14.1607C16.2839 14.1491 16.8313 14.0915 17.1886 14.0627L17.7533 14.0224L17.7476 13.9647L17.9896 14.1146ZM13.9558 13.5959L14.6819 13.3193L15.6615 13.2214L16.4741 13.302L17.5517 13.861L17.6496 13.9186L17.1713 13.9532C17.0791 13.959 16.2724 14.0339 16.1917 14.0569C16.1398 14.0685 15.8056 14.0339 15.5981 14.0166C15.4483 14.0051 15.3331 13.9936 15.2927 13.9936C15.189 13.9936 14.3707 14.0915 14.3361 14.0973L13.8175 14.1952L13.5812 14.0569L13.9558 13.5959Z" fill="black"/>
<path d="M17.6211 16.7485C17.4885 16.8234 17.356 16.881 17.2177 16.9386C17.1543 16.9386 16.797 17.1057 16.5089 17.244C16.457 17.2613 15.9845 17.4054 15.875 17.4227L15.8923 17.5379C16.0133 17.5149 16.5262 17.3593 16.5492 17.3535L16.555 17.3478C16.8431 17.2095 17.1716 17.0596 17.2177 17.0481C17.2868 17.0423 17.5404 16.9156 17.6844 16.8407L17.696 16.8349L17.8055 16.6562H17.6672L17.6211 16.7485Z" fill="black"/>
<path d="M18.1687 12.0312L18.0938 12.0831C18.1283 12.0774 18.1629 12.0774 18.1975 12.0716L18.1687 12.0312Z" fill="black"/>
<path d="M18.4412 12.6256L18.591 12.8849L18.5161 13.1442L18.6313 13.1788L18.7178 12.8734L18.5449 12.5679L18.2049 12.0781C18.1703 12.0839 18.1358 12.0839 18.1012 12.0897L18.0781 12.1069L18.4412 12.6256Z" fill="black"/>
<path d="M21.9716 12.489L22.4845 12.4371C22.4845 12.4371 23.7637 12.8174 23.8156 12.8693C23.8675 12.9212 24.5129 13.2035 24.5129 13.2035L24.8932 13.2381L24.9451 12.8924L24.6627 12.489L23.8502 11.8897L22.9224 11.4402L22.3404 11.2385L22.1329 8.29958L21.6431 7.56774L20.9113 6.96843L19.9662 6.50166L18.9866 6.48438L17.1426 6.71488L15.4484 7.04911L15.3504 6.76098C15.2179 6.7264 15.0853 6.70335 14.9528 6.68606C14.8548 6.68606 13.9559 6.96267 13.9559 6.96267L13.4084 7.2508L13.2932 7.58503L12.5095 8.01722L11.8756 8.81245L11.5125 9.57887C11.5125 9.57887 11.3281 10.3453 11.3281 10.3914C11.3281 10.4375 11.4261 10.8582 11.4952 10.887C11.5644 10.9158 12.0773 11.0541 12.0773 11.0541L12.7515 11.3883L13.7254 11.9531L14.9355 12.3507C14.9355 12.3507 16.0822 12.27 16.1975 12.27C16.3127 12.27 18.0415 12.0856 18.1395 12.0856C18.2374 12.0856 20.1333 11.9358 20.1852 11.9358C20.2371 11.9358 21.3665 11.9185 21.3665 11.9185L21.816 12.3161L21.9716 12.489Z" fill="#C82727"/>
<path d="M21.5195 14.121L21.6693 14.438L21.7615 14.801L21.7154 15.0315L21.5195 15.5328L20.8971 15.6366L19.8945 15.4579L19.7734 15.1064L19.8195 14.7895L19.9233 14.2881L20.1826 14L20.3497 14.0922L21.4561 14.121" fill="black"/>
<path d="M16.9549 14.072L17.1393 14.4235L17.1566 14.8499L17.0644 15.2303L16.8685 15.5357L16.5515 15.553L15.3356 15.1899L14.8516 14.7635L14.915 14.4926L15.0821 14.2333L15.3068 14.0547L16.1597 14.0777C16.1481 14.072 16.9203 14.1354 16.9549 14.072Z" fill="black"/>
<path d="M24.7846 12.5397L24.3121 12.1248L23.6321 11.6695L22.5142 11.2604L22.3586 11.197L22.3125 10.2346C22.2548 9.76212 22.1742 9.04756 22.1742 8.98993C22.1742 8.90925 22.1338 8.32147 22.1338 8.29842V8.2869L21.7996 7.68183L21.2406 7.10557L20.382 6.61575L19.6675 6.41406H18.6878L17.7255 6.53508C17.3394 6.59846 16.7343 6.69643 16.6652 6.69643C16.5614 6.69643 15.7547 6.88083 15.6625 6.89812L15.3801 6.97303L15.4262 6.94998L15.334 6.76558L15.0343 6.65033L14.5964 6.69067L13.8934 6.86354L13.3632 7.20353L13.2537 7.4859L13.3286 7.51471L13.0347 7.58963H13.0232L12.4009 7.98148L11.9687 8.4713L11.5768 9.12823L11.2656 10.2001V10.5862L11.4673 10.9434L12.7293 11.3929L13.15 11.7733L14.0893 12.1997L14.9191 12.4071L16.4692 12.3034L18.7109 12.0614L20.3071 11.9404L21.6325 11.9577L23.0328 12.1593L24.1392 12.6837L24.1911 12.58L23.0731 12.0499L21.6498 11.8482L20.3071 11.8251L18.7051 11.9461L16.4635 12.1882L14.9364 12.2861L14.1411 12.0902L13.2249 11.6695L12.7985 11.2834L11.5538 10.8397L11.3924 10.5516V10.2116L11.6921 9.17433L12.0724 8.54045L12.4873 8.06792L13.0808 7.69335L15.697 7.00761C16.037 6.93269 16.6075 6.80592 16.6767 6.80592C16.7804 6.80592 17.6563 6.66185 17.7543 6.64457L18.6993 6.52355H19.6559L20.3301 6.71948L21.1657 7.19777L21.7016 7.75098L22.0128 8.32147C22.0243 8.53469 22.0532 8.93231 22.0532 8.98993C22.0532 9.07061 22.1799 10.1309 22.1972 10.2462L22.2433 11.1509L21.5633 10.8916L20.2207 10.7475L19.2064 10.6438L18.2095 10.7245L17.057 10.8455L15.7143 11.1509L14.7059 11.3929L14.0317 11.4333L13.1673 11.2604L13.6052 11.5773L13.9625 11.7848L14.7808 11.9865L15.5818 12.0095H15.5876L16.3021 11.9288L17.3106 11.7675L18.296 11.6061L19.4024 11.5255L20.1688 11.4851L21.0908 11.5427L22.3413 11.7041L23.9548 12.0095L24.2372 12.1939L24.6866 12.5858L24.8134 12.8797L24.7846 13.0986L24.5426 13.1159L24.0701 12.897L23.1999 12.5512L22.5142 12.3437L21.9149 12.4071L21.9264 12.5224L22.5026 12.4648L23.1538 12.6607L24.0182 13.0007L24.5195 13.2312L24.8826 13.2081L24.9344 12.8624L24.7846 12.5397ZM13.3747 7.49743L13.4612 7.27845L13.9395 6.97303L14.6137 6.81168L15.0228 6.77134L15.2533 6.85778L15.3167 6.98456L13.3747 7.49743ZM22.3586 11.6119L21.0966 11.4505L20.163 11.3872L19.3908 11.4275L18.2787 11.5082L17.2817 11.6695L16.2733 11.8309L15.5703 11.9116L14.7923 11.8943L13.9971 11.6983L13.6629 11.5024H13.6571L14.0086 11.5716L14.7059 11.5312L15.7259 11.2892L17.057 10.9895L18.2038 10.8685L19.1892 10.7879L20.1918 10.8858L21.5172 11.0241L22.4623 11.3872L23.5687 11.7905L23.6955 11.877L22.3586 11.6119Z" fill="black"/>
<path d="M16.5768 15.0289C16.769 14.9717 16.8858 14.7943 16.8377 14.6326C16.7896 14.4709 16.5948 14.3862 16.4027 14.4434C16.2105 14.5005 16.0937 14.6779 16.1418 14.8396C16.1899 15.0013 16.3846 15.086 16.5768 15.0289Z" fill="white"/>
<path d="M15.6342 14.995C15.7169 14.995 15.784 14.9279 15.784 14.8451C15.784 14.7624 15.7169 14.6953 15.6342 14.6953C15.5515 14.6953 15.4844 14.7624 15.4844 14.8451C15.4844 14.9279 15.5515 14.995 15.6342 14.995Z" fill="white"/>
<path d="M15.5483 14.534C15.631 14.534 15.6981 14.4669 15.6981 14.3842C15.6981 14.3015 15.631 14.2344 15.5483 14.2344C15.4655 14.2344 15.3984 14.3015 15.3984 14.3842C15.3984 14.4669 15.4655 14.534 15.5483 14.534Z" fill="white"/>
<path d="M20.4196 15.1829C20.4959 15.1829 20.5579 15.1209 20.5579 15.0446C20.5579 14.9682 20.4959 14.9062 20.4196 14.9062C20.3432 14.9062 20.2812 14.9682 20.2812 15.0446C20.2812 15.1209 20.3432 15.1829 20.4196 15.1829Z" fill="white"/>
<path d="M20.4076 14.659C20.4904 14.659 20.5575 14.5919 20.5575 14.5092C20.5575 14.4265 20.4904 14.3594 20.4076 14.3594C20.3249 14.3594 20.2578 14.4265 20.2578 14.5092C20.2578 14.5919 20.3249 14.659 20.4076 14.659Z" fill="white"/>
<path d="M21.224 15.0886C21.3735 15.0886 21.4948 14.9673 21.4948 14.8177C21.4948 14.6681 21.3735 14.5469 21.224 14.5469C21.0744 14.5469 20.9531 14.6681 20.9531 14.8177C20.9531 14.9673 21.0744 15.0886 21.224 15.0886Z" fill="white"/>
</g>
<defs>
<clipPath id="clip0_1427_2073">
<rect width="29.5044" height="29.5044" fill="white" transform="translate(1.5 1.5)"/>
</clipPath>
</defs>
</svg>
