<svg width="44" height="44" viewBox="0 0 44 44" fill="none" xmlns="http://www.w3.org/2000/svg">
<g clip-path="url(#clip0_321_2593)">
<g clip-path="url(#clip1_321_2593)">
<path d="M2.64871 27.181C2.64871 27.5472 2.62573 27.8628 2.65323 28.1746C2.71142 28.8344 3.233 29.2522 3.97998 29.2527C6.88735 29.2552 9.79423 29.2535 12.7012 29.2535C17.5655 29.2535 22.4298 29.2535 27.2948 29.2535C27.8276 29.2535 28.1122 29.4296 28.192 29.8075C28.2894 30.2659 27.945 30.6324 27.3975 30.6331C25.541 30.6369 23.6848 30.6348 21.8282 30.6348C21.6707 30.6348 21.5142 30.6348 21.3267 30.6348C21.3267 32.4761 21.3267 34.2938 21.3267 36.1627C21.4818 36.1627 21.6348 36.1627 21.7878 36.1627C23.659 36.162 25.53 36.15 27.3999 36.1785C27.6421 36.1822 27.9505 36.3591 28.0976 36.553C28.2053 36.6953 28.1821 37.0598 28.0685 37.2153C27.9406 37.3901 27.6441 37.5304 27.4202 37.5314C21.7356 37.5488 16.0507 37.5457 10.3659 37.5433C9.8584 37.5433 9.55025 37.2714 9.55074 36.8525C9.55159 36.4325 9.86244 36.1629 10.3675 36.1623C12.1662 36.1601 13.9658 36.1621 15.7643 36.1623C15.9779 36.1623 16.1909 36.1623 16.432 36.1623C16.432 34.3153 16.432 32.4978 16.432 30.6373C16.1799 30.6373 15.9394 30.6373 15.6984 30.6373C11.7984 30.6365 7.89848 30.6354 3.99782 30.635C2.35535 30.6345 1.25828 29.5444 1.25792 27.9097C1.25694 21.6492 1.25731 15.3888 1.25804 9.12861C1.25828 7.5805 2.37784 6.45374 3.9202 6.45349C13.8645 6.45276 23.8093 6.45312 33.7538 6.45459C35.3993 6.45471 36.4908 7.54102 36.4944 9.17849C36.4964 10.0707 36.4981 10.9632 36.4918 11.8552C36.4892 12.3657 36.2243 12.67 35.8024 12.6704C35.3813 12.6711 35.1154 12.3641 35.1127 11.8552C35.1089 10.9629 35.1137 10.0706 35.1105 9.17849C35.108 8.32003 34.6312 7.83646 33.7782 7.83646C23.8489 7.83585 13.9177 7.83622 3.98829 7.83817C3.13753 7.83817 2.64358 8.30463 2.64297 9.1192C2.6393 14.588 2.64052 20.0565 2.64052 25.5253C2.64052 25.5959 2.64761 25.6668 2.65311 25.7783C2.79686 25.786 2.93487 25.7981 3.07262 25.7981C11.1321 25.7988 19.1917 25.7971 27.2512 25.8051C27.4714 25.8051 27.7208 25.8373 27.9066 25.9433C28.179 26.0986 28.2693 26.3876 28.1671 26.6953C28.061 27.0167 27.8216 27.1802 27.4788 27.1802C26.3557 27.181 25.2343 27.1814 24.1101 27.1814C17.0873 27.1814 10.0641 27.181 3.04109 27.1807C2.93071 27.181 2.81703 27.181 2.64871 27.181ZM17.875 30.6511C17.875 32.5147 17.875 34.331 17.875 36.1402C18.5651 36.1402 19.2211 36.1402 19.8876 36.1402C19.8876 34.3002 19.8876 32.4834 19.8876 30.6511C19.2053 30.6511 18.5497 30.6511 17.875 30.6511Z" fill="url(#paint0_linear_321_2593)"/>
<path d="M42.713 25.8433C42.714 29.0094 42.7153 32.1757 42.7127 35.3423C42.7114 36.6669 41.8448 37.5421 40.5326 37.5438C37.6097 37.5471 34.6881 37.5471 31.7672 37.5438C30.4717 37.5416 29.5884 36.6688 29.5882 35.3841C29.5853 28.9944 29.5853 22.6038 29.5877 16.2136C29.5884 14.945 30.4663 14.0578 31.7243 14.0558C34.6752 14.0507 37.6247 14.0507 40.5756 14.0558C41.8319 14.0582 42.7099 14.9471 42.7118 16.2144C42.7157 19.424 42.713 22.6336 42.713 25.8433ZM41.303 32.6863C41.303 27.8453 41.303 23.0352 41.303 18.2318C37.8446 18.2318 34.416 18.2318 30.9899 18.2318C30.9899 23.0646 30.9899 27.8642 30.9899 32.6863C34.4307 32.6863 37.8486 32.6863 41.303 32.6863ZM30.9689 34.106C30.9689 34.5754 30.9598 35.005 30.9714 35.433C30.9836 35.888 31.2474 36.1477 31.7048 36.1602C32.1204 36.171 32.5376 36.1628 32.9552 36.1628C35.4568 36.1628 37.9579 36.1637 40.4599 36.1628C40.9769 36.1628 41.2871 35.9711 41.3153 35.5707C41.3514 35.0893 41.3237 34.6043 41.3237 34.106C37.8623 34.106 34.4452 34.106 30.9689 34.106ZM41.332 16.8026C41.332 16.6594 41.3312 16.5601 41.332 16.4607C41.3388 15.635 41.1445 15.4362 40.3312 15.4357C39.684 15.4353 39.0374 15.4353 38.3901 15.4353C36.1901 15.4353 33.9901 15.4342 31.7908 15.4369C31.2603 15.4376 30.9912 15.6799 30.9696 16.1637C30.9615 16.3725 30.9681 16.5824 30.9681 16.803C34.4431 16.8026 37.8606 16.8026 41.332 16.8026Z" fill="url(#paint1_linear_321_2593)"/>
<path d="M27.5141 16.8429C27.5218 20.9695 24.084 24.4179 19.9643 24.4179C15.7478 24.4179 12.3185 21.0291 12.313 16.8572C12.307 12.6374 15.7133 9.2201 19.9286 9.21656C24.1036 9.21301 27.5072 12.6338 27.5141 16.8429ZM26.1305 16.8192C26.1373 13.3943 23.3419 10.6063 19.8938 10.6C16.5181 10.5944 13.6994 13.4019 13.6963 16.7733C13.6933 20.2082 16.462 23.0255 19.8483 23.0351C23.3253 23.0435 26.1241 20.275 26.1305 16.8192Z" fill="url(#paint2_linear_321_2593)"/>
<path d="M36.1483 29.9451C33.6637 29.9437 31.6633 27.9372 31.6587 25.442C31.6555 22.9882 33.6792 20.96 36.1282 20.9631C38.6418 20.9672 40.6501 22.981 40.6403 25.4891C40.6314 27.9451 38.614 29.9462 36.1483 29.9451ZM39.2595 25.4711C39.2663 23.7595 37.8789 22.3523 36.1786 22.3466C34.4377 22.3413 33.0461 23.7213 33.0431 25.4563C33.0402 27.1623 34.4344 28.5606 36.1423 28.5623C37.8493 28.5656 39.2516 27.1738 39.2595 25.4711Z" fill="url(#paint3_linear_321_2593)"/>
<path d="M18.5274 19.2793C20.1282 17.6825 21.6859 16.1288 23.244 14.575C23.3353 14.4839 23.4239 14.3889 23.5191 14.3014C23.863 13.9854 24.2698 13.9717 24.5546 14.2642C24.8375 14.5557 24.816 14.9504 24.4887 15.2972C24.3008 15.4962 24.1029 15.6854 23.9106 15.8783C22.3547 17.4345 20.7984 18.991 19.2415 20.547C18.6678 21.1206 18.4005 21.1237 17.8383 20.5624C17.0238 19.7493 16.2092 18.9369 15.3979 18.1209C15.0143 17.7351 14.9745 17.3341 15.2771 17.0256C15.5819 16.7153 15.9894 16.7501 16.3721 17.1293C17.0845 17.8358 17.7936 18.5465 18.5274 19.2793Z" fill="url(#paint4_linear_321_2593)"/>
<path d="M35.5861 25.5469C36.1735 25.0197 36.7499 24.5007 37.3282 23.9839C37.7238 23.6307 38.1451 23.6172 38.4266 23.9418C38.6975 24.2552 38.6386 24.6602 38.2636 25.0001C37.5592 25.6369 36.8535 26.2731 36.1439 26.9041C35.7186 27.2833 35.4394 27.2833 35.0093 26.9098C34.6846 26.6271 34.3608 26.3397 34.0458 26.0444C33.7015 25.721 33.6691 25.317 33.9485 25.014C34.2183 24.7228 34.5993 24.7159 34.9518 25.0016C35.063 25.0917 35.1654 25.195 35.2741 25.2892C35.3714 25.3728 35.4716 25.4527 35.5861 25.5469Z" fill="url(#paint5_linear_321_2593)"/>
</g>
</g>
<defs>
<linearGradient id="paint0_linear_321_2593" x1="18.8768" y1="6.45312" x2="18.8768" y2="37.5452" gradientUnits="userSpaceOnUse">
<stop stop-color="#1CDEF8"/>
<stop offset="1" stop-color="#00A4D8"/>
</linearGradient>
<linearGradient id="paint1_linear_321_2593" x1="36.1501" y1="14.052" x2="36.1501" y2="37.5463" gradientUnits="userSpaceOnUse">
<stop stop-color="#1CDEF8"/>
<stop offset="1" stop-color="#00A4D8"/>
</linearGradient>
<linearGradient id="paint2_linear_321_2593" x1="19.9135" y1="9.21655" x2="19.9135" y2="24.4179" gradientUnits="userSpaceOnUse">
<stop stop-color="#1CDEF8"/>
<stop offset="1" stop-color="#00A4D8"/>
</linearGradient>
<linearGradient id="paint3_linear_321_2593" x1="36.1495" y1="20.9631" x2="36.1495" y2="29.9451" gradientUnits="userSpaceOnUse">
<stop stop-color="#1CDEF8"/>
<stop offset="1" stop-color="#00A4D8"/>
</linearGradient>
<linearGradient id="paint4_linear_321_2593" x1="19.9142" y1="14.0542" x2="19.9142" y2="20.9803" gradientUnits="userSpaceOnUse">
<stop stop-color="#1CDEF8"/>
<stop offset="1" stop-color="#00A4D8"/>
</linearGradient>
<linearGradient id="paint5_linear_321_2593" x1="36.1776" y1="23.7083" x2="36.1776" y2="27.1892" gradientUnits="userSpaceOnUse">
<stop stop-color="#1CDEF8"/>
<stop offset="1" stop-color="#00A4D8"/>
</linearGradient>
<clipPath id="clip0_321_2593">
<rect width="42.7824" height="42.7824" fill="white" transform="translate(0.594727 0.595703)"/>
</clipPath>
<clipPath id="clip1_321_2593">
<rect width="42.7824" height="42.7824" fill="white" transform="translate(0.594727 0.595703)"/>
</clipPath>
</defs>
</svg>
