<svg width="109" height="26" viewBox="0 0 109 26" fill="none" xmlns="http://www.w3.org/2000/svg">
<g clip-path="url(#clip0_157_789)">
<path d="M3.83833 2.78907L0.388672 4.81126V20.2751L3.95728 22.2973L7.52589 24.3195L11.0945 22.2973L14.6631 20.2751V4.81126L10.9755 2.90802C9.07228 1.83745 7.52589 0.885834 7.40693 0.885834C7.40693 0.885834 5.74158 1.7185 3.83833 2.78907ZM9.90496 3.85964C11.8082 4.93021 12.284 5.28707 12.284 5.40602C11.9272 5.52498 7.52589 8.02298 7.40693 8.02298C7.16902 8.02298 2.41088 5.40602 2.41088 5.28707C2.41088 5.16812 7.16902 2.43221 7.28798 2.43221C7.40693 2.43221 8.47751 3.02698 9.90496 3.85964ZM25.25 6.4766C25.25 6.4766 25.131 9.2125 25.131 12.5432V18.6097H27.748V13.3758H34.6473V10.8778H27.748V8.9746H36.0747V6.35764H30.7218C27.748 6.35764 25.25 6.35764 25.25 6.4766ZM41.5466 6.59555C41.4277 6.7145 36.9074 17.4202 36.5506 18.3718C36.5506 18.4908 36.7885 18.4908 37.978 18.4908H39.4054L40.1192 16.9444L40.8329 15.398H45.8289L46.5427 16.9444L47.2564 18.4908H48.5649C49.6354 18.4908 49.8734 18.4908 49.8734 18.3718C49.8734 18.2529 48.6838 15.517 47.2564 12.3053L44.6394 6.35764H43.212C41.6656 6.35764 41.6656 6.35764 41.5466 6.59555ZM51.7766 12.4242V18.4908H54.3936V11.1157L57.3674 14.8033L60.3413 18.4908H63.1962V6.35764H60.5792V13.7327L57.6053 10.0452L54.6315 6.35764H51.7766V12.4242ZM66.17 7.66612V8.9746H70.2144V18.4908H72.8314V8.9746H76.9948V6.35764H66.051V7.66612H66.17ZM81.1581 6.4766C80.5634 6.59555 80.0876 6.9524 79.8496 7.54717C79.6117 8.02298 79.6117 8.26088 79.6117 12.5432C79.6117 16.9444 79.6117 17.1823 79.8496 17.5392C79.9686 17.7771 80.3255 18.1339 80.5634 18.2529L81.0392 18.4908H84.8457C87.3437 18.4908 88.8901 18.4908 89.128 18.3718C89.6038 18.2529 90.1986 17.7771 90.4365 17.3013V7.54717L90.0797 7.19031C89.4849 6.4766 89.4849 6.4766 85.3215 6.35764C83.2993 6.35764 81.396 6.4766 81.1581 6.4766ZM93.7672 12.4242V18.4908H96.3842V10.6399L98.5254 13.2569C99.7149 14.6843 100.667 15.9928 100.785 15.9928C100.904 16.1117 101.499 15.398 103.165 13.3758L105.306 10.6399V18.7287H107.923V6.35764H106.614C105.9 6.35764 105.306 6.35764 105.187 6.4766C105.068 6.4766 104.116 7.78507 102.927 9.2125C101.737 10.6399 100.785 11.9484 100.667 11.9484C100.667 11.9484 99.5959 10.7589 98.4064 9.2125L96.3842 6.4766H93.7672V12.4242ZM4.19519 7.90402C5.14681 8.37983 5.86054 8.85564 5.86054 8.85564C5.86054 8.85564 3.00565 10.6399 1.69716 11.2347C1.69716 11.2347 1.57821 10.1641 1.57821 8.85564V6.4766L2.05402 6.7145C2.41088 6.83345 3.36251 7.42822 4.19519 7.90402ZM13.1167 10.1641V11.3536L10.9755 10.1641L8.83437 8.9746L9.5481 8.49879C9.90496 8.26088 10.8566 7.66612 11.6893 7.30926L13.1167 6.4766V10.1641ZM87.9385 12.4242V15.9928H82.2287V8.85564H87.9385V12.4242ZM43.9257 11.7105L44.6394 13.3758H41.3087L42.0224 11.7105C42.3793 10.7589 42.7361 9.92622 42.8551 9.80726L42.974 9.56936L43.093 9.80726C43.212 9.80726 43.5688 10.7589 43.9257 11.7105ZM6.57426 12.6621V15.0412C6.4553 15.0412 2.52984 12.6621 2.52984 12.6621C2.52984 12.5432 6.33635 10.2831 6.57426 10.2831V12.6621ZM10.3808 11.4726C11.4514 12.0674 12.403 12.6621 12.403 12.6621C12.403 12.6621 8.47751 14.9222 8.23961 15.0412C8.12065 15.1601 8.0017 14.9222 8.0017 12.6621C8.0017 10.402 8.0017 10.2831 8.23961 10.2831C8.35856 10.2831 9.31019 10.8778 10.3808 11.4726ZM5.02786 15.7549L7.40693 17.1823L10.0239 15.6359C11.4514 14.8033 12.7598 14.0895 12.8788 13.9706L13.1167 13.8516V19.5614L10.2618 21.2267L7.40693 22.892L4.55205 21.2267L1.69716 19.5614V13.8516L2.17298 14.0895C2.41088 14.2085 3.71937 14.9222 5.02786 15.7549Z" fill="black"/>
</g>
<defs>
<clipPath id="clip0_157_789">
<rect width="108.31" height="24.98" fill="white" transform="translate(0 0.409943)"/>
</clipPath>
</defs>
</svg>
