<svg width="87" height="26" viewBox="0 0 87 26" fill="none" xmlns="http://www.w3.org/2000/svg">
<g clip-path="url(#clip0_157_798)">
<path d="M23.6598 6.00994V20.2099H20.8598V6.00994H23.6598ZM35.1598 10.6099V20.2099C35.1598 23.2099 32.8598 25.0099 30.1598 25.0099C27.4598 25.0099 25.5598 23.3099 25.3598 20.9099H28.1598C28.2598 21.9099 29.1598 22.4099 30.2598 22.4099C31.3598 22.4099 32.3598 21.8099 32.3598 20.2099V19.0099C31.6598 19.5099 30.7598 19.8099 29.6598 19.8099C27.0598 19.8099 25.0598 17.7099 25.0598 15.2099C25.0598 12.3099 27.1598 10.4099 29.6598 10.4099C30.6598 10.4099 31.5598 10.7099 32.3598 11.2099V10.7099L35.1598 10.6099ZM32.3598 16.2099V13.9099C31.7598 13.0099 30.9598 12.8099 30.1598 12.8099C28.7598 12.8099 27.8598 13.8099 27.8598 15.2099C27.8598 16.3099 28.8598 17.4099 30.1598 17.4099C30.9598 17.4099 31.7598 17.1099 32.3598 16.2099ZM46.3598 15.2099C46.3598 18.1099 44.2598 20.2099 41.3598 20.2099C38.4598 20.2099 36.3598 18.1099 36.3598 15.2099C36.3598 12.3099 38.4598 10.1099 41.3598 10.1099C44.2598 10.2099 46.3598 12.3099 46.3598 15.2099ZM43.6598 15.2099C43.6598 13.8099 42.7598 12.7099 41.3598 12.7099C39.9598 12.7099 39.0598 13.8099 39.0598 15.2099C39.0598 16.6099 39.9598 17.7099 41.3598 17.7099C42.7598 17.7099 43.6598 16.7099 43.6598 15.2099ZM63.8598 10.6099V20.1099H61.0598V19.6099C60.3598 20.1099 59.4598 20.4099 58.3598 20.4099C55.7598 20.4099 53.7598 18.2099 53.7598 15.4099C53.7598 12.6099 55.8598 10.4099 58.3598 10.4099C59.3598 10.4099 60.2598 10.7099 61.0598 11.2099V10.7099L63.8598 10.6099ZM61.0598 16.8099V13.9099C60.4598 13.0099 59.6598 12.8099 58.8598 12.8099C57.4598 12.8099 56.4598 14.0099 56.4598 15.4099C56.4598 16.8099 57.4598 17.9099 58.8598 17.9099C59.6598 17.9099 60.4598 17.7099 61.0598 16.8099ZM75.1598 15.0099V20.2099H72.4598V15.4099C72.4598 13.8099 71.6598 13.0099 70.3598 13.0099C69.6598 13.0099 68.8598 13.4099 68.2598 14.2099V20.2099H65.4598V10.7099H68.2598V11.4099C69.0598 10.8099 69.8598 10.4099 70.9598 10.4099C73.3598 10.4099 75.1598 12.2099 75.1598 15.0099ZM19.5598 20.1099H16.6598L14.7598 13.0099L10.7598 20.1099H7.65977L13.8598 9.10994L12.8598 5.30994L4.45977 20.1099H1.25977L11.8598 1.30994H14.6598L15.8598 6.00994H18.7598L16.7598 9.50994L19.5598 20.1099ZM86.3598 6.00994V20.2099H83.5598V19.7099C82.8598 20.2099 81.9598 20.5099 80.8598 20.5099C78.2598 20.5099 76.2598 18.3099 76.2598 15.5099C76.2598 12.7099 78.3598 10.5099 80.8598 10.5099C81.8598 10.5099 82.7598 10.8099 83.5598 11.3099V6.00994H86.3598ZM83.5598 16.8099V13.9099C82.9598 13.0099 82.1598 12.8099 81.3598 12.8099C79.9598 12.8099 78.9598 14.0099 78.9598 15.4099C78.9598 16.8099 79.9598 18.0099 81.3598 18.0099C82.1598 17.9099 82.9598 17.7099 83.5598 16.8099ZM53.2598 13.0099C52.6598 13.1099 51.2598 13.2099 50.3598 14.3099V20.1099H47.5598V10.6099H50.3598V11.3099C50.9598 10.7099 51.9598 10.4099 53.2598 10.5099" fill="black"/>
</g>
<defs>
<clipPath id="clip0_157_798">
<rect width="86" height="25" fill="white" transform="translate(0.560547 0.409943)"/>
</clipPath>
</defs>
</svg>
