<svg width="79" height="26" viewBox="0 0 79 26" fill="none" xmlns="http://www.w3.org/2000/svg">
<g clip-path="url(#clip0_157_813)">
<path d="M5.63522 4.91235L2.89892 8.71882L1.70923 14.3096C1.11438 17.4023 0.519531 19.9003 0.519531 19.9003C0.519531 19.9003 2.30407 20.9709 4.5645 22.2794L8.60946 24.6584L12.6544 22.2794C16.1045 20.2572 16.6994 19.9003 16.6994 19.9003C16.6994 19.9003 16.1045 17.4023 15.5097 14.3096L14.32 8.71882L11.2268 4.91235C9.79916 2.89016 8.49049 1.22482 8.49049 1.22482C8.49049 1.22482 7.18183 2.89016 5.63522 4.91235ZM10.6319 5.98292C11.8216 7.5293 12.7734 8.83778 12.7734 8.83778V8.95673L10.6319 15.3802C9.44225 18.8298 8.49049 21.8036 8.49049 21.8036L6.34904 15.3802L4.08862 8.95673L4.20759 8.83778C4.20759 8.71882 5.27831 7.41035 6.34904 5.98292C7.53873 4.43654 8.49049 3.24701 8.49049 3.24701C8.49049 3.12806 9.44225 4.43654 10.6319 5.98292ZM5.63522 16.9265C6.70595 20.2572 7.6577 22.8742 7.6577 22.8742L1.8282 19.4245C1.8282 19.4245 2.1851 17.5213 2.66098 15.1423C3.13686 12.7632 3.49377 10.86 3.49377 10.86C3.61274 10.9789 4.44553 13.5959 5.63522 16.9265ZM14.201 15.1423C14.6769 17.5213 15.0338 19.4245 15.0338 19.4245L9.20431 22.8742C9.20431 22.8742 10.7509 18.354 13.0113 11.4547C13.1303 11.2168 13.1303 10.9789 13.2493 10.9789C13.3682 10.86 13.7252 12.7632 14.201 15.1423ZM38.9467 20.0193H29.6671V5.74501H38.9467V7.29139H31.4516V11.9305H38.8277V13.4769H31.4516V18.4729H38.9467V20.0193ZM53.6989 20.2572C51.5575 20.2572 49.8919 19.5435 48.5832 18.1161C47.2746 16.6886 46.6797 15.0233 46.6797 12.8822C46.6797 10.741 47.2746 8.95673 48.5832 7.64825C49.8919 6.22082 51.5575 5.50711 53.6989 5.50711C55.7214 5.50711 57.5059 6.22082 58.8146 7.64825C60.1233 9.07568 60.8371 10.741 60.8371 12.8822C60.8371 15.0233 60.1233 16.8076 58.8146 18.1161C57.5059 19.5435 55.8404 20.2572 53.6989 20.2572ZM53.6989 18.7108C55.2455 18.7108 56.5542 18.1161 57.5059 17.0455C58.4577 15.9749 58.9336 14.5475 58.9336 12.8822C58.9336 11.2168 58.4577 9.78939 57.5059 8.71882C56.5542 7.64825 55.2455 7.05349 53.6989 7.05349C52.1523 7.05349 50.8437 7.64825 49.8919 8.71882C48.9401 9.78939 48.4643 11.2168 48.4643 12.8822C48.4643 14.5475 48.9401 15.9749 49.8919 17.0455C50.9626 18.1161 52.1523 18.7108 53.6989 18.7108ZM73.5668 20.2572C71.3064 20.2572 69.4029 19.5435 68.0942 17.9971L69.165 16.6886C70.3547 17.9971 71.9013 18.7108 73.6858 18.7108C74.8755 18.7108 75.7083 18.4729 76.1842 17.9971C76.779 17.5213 77.017 16.9265 77.017 16.2128C77.017 15.737 76.898 15.2612 76.5411 14.9043C76.1842 14.5475 75.8273 14.3096 75.3514 14.0717C74.8755 13.8338 74.2806 13.7148 73.6858 13.5959C73.091 13.4769 72.4961 13.239 71.9013 13.1201C71.3064 12.8822 70.7116 12.6443 70.2357 12.4063C69.7598 12.1684 69.4029 11.8116 69.046 11.2168C68.6891 10.741 68.5701 10.1463 68.5701 9.43254C68.5701 8.24301 69.046 7.29139 69.9977 6.57768C70.9495 5.86397 72.1392 5.50711 73.4479 5.50711C75.5893 5.50711 77.2549 6.22082 78.4446 7.5293L77.3739 8.83778C76.3031 7.64825 74.9945 7.17244 73.2099 7.17244C72.3771 7.17244 71.6633 7.41035 71.0685 7.7672C70.4736 8.12406 70.2357 8.71882 70.2357 9.43254C70.2357 9.90835 70.4736 10.3842 70.8305 10.6221C71.3064 10.9789 71.7823 11.2168 72.3771 11.3358C72.972 11.4547 73.6858 11.6926 74.3996 11.9305C75.1134 12.1684 75.8273 12.4063 76.4221 12.6443C77.017 12.8822 77.6118 13.358 77.9687 13.9527C78.4446 14.5475 78.5636 15.2612 78.5636 16.0939C78.5636 17.2834 78.0877 18.235 77.2549 19.0677C76.66 19.9003 75.3514 20.2572 73.5668 20.2572Z" fill="black"/>
</g>
<defs>
<clipPath id="clip0_157_813">
<rect width="78.56" height="24.98" fill="white" transform="translate(0.380859 0.629944)"/>
</clipPath>
</defs>
</svg>
