<svg width="120" height="26" viewBox="0 0 120 26" fill="none" xmlns="http://www.w3.org/2000/svg">
<g clip-path="url(#clip0_157_819)">
<path d="M34.0269 9.5777H35.2684L38.8685 17.2688H37.2546L36.5098 15.5321H32.9096L32.1648 17.2688H30.5509L34.0269 9.5777ZM35.8891 14.2916L34.6476 11.1903L33.4062 14.2916H35.8891ZM43.5859 17.2688H44.8273L48.1792 9.5777H46.6895L44.3308 15.408L42.0962 9.5777H40.3582L43.5859 17.2688ZM53.3932 9.5777H54.6346L58.2347 17.2688H56.6209L55.876 15.5321H52.2759L51.531 17.2688H49.9172L53.3932 9.5777ZM55.2553 14.2916L54.0139 11.1903L52.7725 14.2916H55.2553ZM61.4624 17.2688H66.4281V16.0283H62.9522V9.5777H61.4624V17.2688ZM72.5111 9.5777H73.7526L77.3527 17.2688H75.7388L74.994 15.5321H71.3939L70.649 17.2688H69.0351L72.5111 9.5777ZM74.3733 14.2916L73.1318 11.1903L71.8904 14.2916H74.3733ZM80.5804 17.2688H82.0701V11.3144L86.1668 17.1447H88.029V9.5777H86.5392V15.284L82.5667 9.5777H80.5804V17.2688ZM98.8294 10.5701C98.4569 10.0739 97.9604 9.8258 97.4638 9.70175C96.9672 9.45365 96.4706 9.45365 95.9741 9.45365C95.3534 9.45365 94.7327 9.5777 94.2361 9.70175C93.7395 9.94985 93.2429 10.1979 92.8705 10.5701C92.4981 10.9422 92.2498 11.3144 92.0015 11.8106C91.7532 12.3068 91.6291 12.803 91.6291 13.4232C91.6291 14.0435 91.7532 14.5397 92.0015 15.0359C92.2498 15.5321 92.4981 15.9042 92.8705 16.2764C93.2429 16.6485 93.7395 16.8966 94.2361 17.1447C94.7327 17.3928 95.3534 17.3928 95.9741 17.3928C96.5948 17.3928 97.0914 17.2688 97.7121 17.0207C98.2086 16.7726 98.7052 16.4004 99.0776 16.0283L97.8362 15.284C97.5879 15.6561 97.2155 15.9042 96.9672 16.0283C96.7189 16.1523 96.3465 16.2764 95.9741 16.2764C95.6017 16.2764 95.1051 16.1523 94.8568 16.0283C94.4844 15.9042 94.2361 15.6561 93.9878 15.408C93.7395 15.1599 93.4912 14.9118 93.3671 14.5397C93.2429 14.1676 93.1188 13.7954 93.1188 13.4232C93.1188 13.0511 93.2429 12.6789 93.3671 12.3068C93.4912 11.9346 93.7395 11.6866 93.9878 11.4384C94.2361 11.1903 94.4844 10.9423 94.8568 10.8182C95.2292 10.6941 95.6017 10.5701 95.9741 10.5701C96.2224 10.5701 96.5948 10.5701 96.8431 10.6941C97.0914 10.8182 97.4638 10.9422 97.7121 11.3144L98.8294 10.5701ZM102.429 17.2688H103.795V13.9194H107.643V17.2688H109.133V9.5777H107.643V12.679H103.795V9.5777H102.305V17.2688H102.429ZM113.354 17.2688H119.065V16.0283H114.844V13.9194H118.568V12.679H114.844V10.8182H118.692V9.5777H113.23V17.2688H113.354ZM12.6744 1.01825C6.21899 1.01825 0.880859 6.3524 0.880859 12.803C0.880859 19.3776 6.09485 24.5877 12.6744 24.5877C19.1298 24.5877 24.468 19.2536 24.468 12.803C24.468 6.3524 19.1298 1.01825 12.6744 1.01825ZM11.6813 16.1523C11.433 16.6485 11.3088 16.8967 11.0606 17.0207C10.8123 17.2688 10.564 17.3928 10.3157 17.3928C10.0674 17.5169 9.81913 17.5169 9.32256 17.5169H7.08799C6.59142 17.5169 6.34313 17.5169 6.21899 17.3928C6.09485 17.2688 5.97071 17.1447 5.97071 16.8966C5.97071 16.7726 6.09485 16.5245 6.34313 16.1523L11.9295 6.22835C12.1778 5.8562 12.302 5.6081 12.4261 5.48405C12.5503 5.36 12.7985 5.36 12.9227 5.48405C13.0468 5.6081 13.171 5.73215 13.4193 6.22835L14.6607 8.21315C14.909 8.70935 15.0331 8.95745 15.1573 9.0815C15.2814 9.3296 15.2814 9.5777 15.1573 9.8258C15.1573 10.0739 14.909 10.322 14.6607 10.8182L11.6813 16.1523ZM19.254 17.3928C19.1298 17.5169 18.8815 17.5169 18.385 17.5169H15.1573C14.6607 17.5169 14.4124 17.5169 14.2883 17.3928C14.1641 17.2688 14.04 17.1447 14.04 16.8966C14.04 16.7726 14.1641 16.5245 14.4124 16.1523L16.0263 13.2992C16.2745 12.927 16.3987 12.6789 16.5228 12.5549C16.647 12.4308 16.8953 12.4308 17.0194 12.5549C17.1435 12.6789 17.2677 12.803 17.516 13.1751L19.1298 16.0283C19.3781 16.4004 19.5022 16.6485 19.5022 16.7726C19.5022 17.1447 19.3781 17.2688 19.254 17.3928Z" fill="black"/>
</g>
<defs>
<clipPath id="clip0_157_819">
<rect width="119.19" height="24.81" fill="white" transform="translate(0.75 0.769958)"/>
</clipPath>
</defs>
</svg>
