<svg width="106" height="26" viewBox="0 0 106 26" fill="none" xmlns="http://www.w3.org/2000/svg">
<g clip-path="url(#clip0_157_808)">
<path d="M1.18945 1.00494C1.18945 1.12994 10.6895 25.1299 10.8145 25.1299C10.8145 25.1299 13.8145 21.5049 17.5645 17.0049L24.3145 8.87994L24.1895 8.75494C24.1895 8.75494 23.1895 7.75494 21.9395 6.62994C20.8145 5.50494 19.8145 4.62994 19.6895 4.50494L19.5645 4.37994L10.4395 2.62994C5.43945 1.62994 1.31445 0.879944 1.18945 1.00494C1.18945 0.879944 1.18945 0.879944 1.18945 1.00494ZM11.3145 4.00494C14.8145 4.62994 17.8145 5.25494 17.8145 5.25494C17.8145 5.25494 12.8145 9.50494 12.6895 9.50494C12.6895 9.50494 5.43945 3.50494 4.81445 3.00494L4.56445 2.75494H4.68945C4.81445 2.87994 7.68945 3.37994 11.3145 4.00494ZM8.18945 7.37994C10.3145 9.12994 12.0645 10.6299 12.0645 10.7549C12.0645 10.8799 10.8145 21.5049 10.8145 21.5049C10.8145 21.5049 3.81445 3.87994 3.81445 3.75494C3.81445 3.75494 3.93945 3.75494 4.06445 3.87994C4.06445 4.00494 5.93945 5.62994 8.18945 7.37994ZM20.4395 7.00494C21.1895 7.62994 21.8145 8.25494 21.8145 8.25494L21.9395 8.37994C21.9395 8.37994 21.4395 8.50494 20.8145 8.62994C20.1895 8.75494 18.5645 9.00494 17.0645 9.25494C15.5645 9.50494 14.4395 9.75494 14.4395 9.75494L19.1895 5.75494C19.1895 5.75494 19.8145 6.25494 20.4395 7.00494ZM21.6895 9.75494C21.6895 9.87994 12.0645 21.5049 12.0645 21.5049C12.0645 21.5049 13.1895 11.6299 13.3145 11.3799V11.2549L17.4395 10.5049C22.3145 9.62994 21.8145 9.75494 21.6895 9.75494ZM89.9395 21.5049V3.37994C89.9395 3.37994 92.9395 6.62994 96.4395 10.6299L102.939 17.8799V4.62994H104.814V13.6299C104.814 19.0049 104.814 22.6299 104.689 22.6299C104.689 22.6299 101.689 19.3799 98.1895 15.3799L91.6894 8.25494V21.6299H89.9395V21.5049ZM32.4395 5.37994V4.50494H47.4395V6.37994H32.4395V5.37994ZM51.1895 21.5049V4.50494H56.4395C61.4395 4.50494 61.6895 4.50494 62.1895 4.62994C63.0645 4.87994 63.8145 5.25494 64.5645 6.00494C65.0645 6.50494 65.3145 6.75494 65.5645 7.37994C65.9395 8.25494 66.0645 8.75494 66.0645 9.75494C66.0645 10.6299 65.9395 11.2549 65.5645 12.0049C65.0645 13.0049 64.1895 14.0049 63.1895 14.5049L62.5645 14.7549L64.3145 18.1299C65.3145 20.0049 66.0645 21.5049 66.0645 21.5049C66.0645 21.6299 65.8145 21.6299 65.0645 21.6299C64.3145 21.6299 64.0645 21.6299 63.9395 21.5049C63.9395 21.5049 63.0645 20.0049 62.1895 18.2549L60.4395 15.0049H56.1895V21.6299H54.4395V13.1299H57.9395C61.4395 13.1299 61.4395 13.1299 61.9395 13.0049C62.8145 12.6299 63.6895 11.8799 63.9395 11.0049C64.1895 10.3799 64.1895 9.50494 64.0645 8.87994C63.6895 7.50494 62.5645 6.50494 61.1895 6.37994C60.8145 6.37994 59.0645 6.25494 56.6895 6.37994H52.8145V21.6299H51.1895V21.5049ZM37.3145 21.5049V9.50494H39.1895V21.5049H37.3145ZM40.6895 21.5049V9.50494H42.5645V21.5049H40.6895Z" fill="black"/>
<path d="M93.3145 21.5049V12.2549L93.4394 12.3799C93.5644 12.5049 93.9395 12.8799 94.3145 13.3799L95.0645 14.2549V21.5049H93.3145ZM77.4395 6.12994C73.5645 6.12994 70.4395 9.25494 70.4395 13.1299C70.4395 17.0049 73.5645 20.1299 77.4395 20.1299C81.3145 20.1299 84.4395 17.0049 84.4395 13.1299C84.4395 9.25494 81.3145 6.12994 77.4395 6.12994ZM68.8145 13.0049C68.8145 8.25494 72.6895 4.25494 77.5645 4.25494C82.4395 4.25494 86.3145 8.12994 86.3145 13.0049C86.3145 17.7549 82.4395 21.7549 77.5645 21.7549C72.6895 21.7549 68.8145 17.8799 68.8145 13.0049Z" fill="black"/>
<path d="M78.6895 13.0049C78.6895 13.6299 78.1895 14.2549 77.4395 14.2549C76.6895 14.2549 76.1895 13.7549 76.1895 13.0049C76.1895 12.3799 76.6895 11.7549 77.4395 11.7549C78.1895 11.7549 78.6895 12.3799 78.6895 13.0049Z" fill="black"/>
</g>
<defs>
<clipPath id="clip0_157_808">
<rect width="105" height="25" fill="white" transform="translate(0.189453 0.629944)"/>
</clipPath>
</defs>
</svg>
