<svg width="22" height="26" viewBox="0 0 22 26" fill="none" xmlns="http://www.w3.org/2000/svg">
<g clip-path="url(#clip0_12_2353)">
<path d="M17.8656 14.0325C17.878 13.074 18.1327 12.1341 18.6058 11.3004C19.079 10.4667 19.7553 9.76621 20.572 9.26415C20.0532 8.52323 19.3689 7.91348 18.5732 7.48334C17.7776 7.0532 16.8925 6.8145 15.9884 6.78622C14.06 6.58379 12.1904 7.94018 11.2077 7.94018C10.2059 7.94018 8.6929 6.80632 7.06359 6.83984C6.00971 6.87389 4.98263 7.18035 4.08239 7.72936C3.18217 8.27837 2.43951 9.05121 1.92678 9.9726C-0.294279 13.818 1.36243 19.4695 3.49001 22.5778C4.55448 24.0999 5.79855 25.8 7.42639 25.7398C9.01932 25.6737 9.61426 24.7241 11.5371 24.7241C13.442 24.7241 14.0002 25.7398 15.6611 25.7014C17.3704 25.6737 18.4473 24.1726 19.4744 22.6362C20.2392 21.5516 20.8278 20.353 21.2182 19.0846C20.2252 18.6646 19.3777 17.9616 18.7816 17.0631C18.1853 16.1648 17.8668 15.1107 17.8656 14.0325Z" fill="white"/>
<path d="M14.7277 4.74163C15.6597 3.62282 16.1188 2.18479 16.0076 0.73291C14.5837 0.882459 13.2685 1.56297 12.324 2.63885C11.8621 3.16444 11.5084 3.7759 11.2831 4.43829C11.0577 5.10066 10.9651 5.80097 11.0105 6.49915C11.7227 6.50649 12.4273 6.35212 13.0712 6.04769C13.715 5.74326 14.2814 5.29669 14.7277 4.74163Z" fill="white"/>
</g>
<defs>
<clipPath id="clip0_12_2353">
<rect width="20.3461" height="25.1335" fill="white" transform="translate(0.87207 0.73291)"/>
</clipPath>
</defs>
</svg>
