<svg width="25" height="25" viewBox="0 0 25 25" fill="none" xmlns="http://www.w3.org/2000/svg">
<g clip-path="url(#clip0_12_1994)">
<path d="M24.0601 12.74C24.0601 6.38872 18.9113 1.23999 12.5601 1.23999C6.20878 1.23999 1.06006 6.38872 1.06006 12.74C1.06006 19.0913 6.20878 24.24 12.5601 24.24C18.9113 24.24 24.0601 19.0913 24.0601 12.74Z" stroke="#121212"/>
<path d="M9.20651 15.3864C9.01124 15.5817 9.01124 15.8983 9.20651 16.0936C9.40177 16.2888 9.71835 16.2888 9.91361 16.0936L9.20651 15.3864ZM16.0601 9.73999C16.0601 9.46385 15.8362 9.23999 15.5601 9.23999H11.0601C10.784 9.23999 10.5601 9.46385 10.5601 9.73999C10.5601 10.0161 10.784 10.24 11.0601 10.24H15.0601V14.24C15.0601 14.5161 15.284 14.74 15.5601 14.74C15.8362 14.74 16.0601 14.5161 16.0601 14.24V9.73999ZM9.91361 16.0936L15.9137 10.0935L15.2065 9.38644L9.20651 15.3864L9.91361 16.0936Z" fill="#121212"/>
</g>
<defs>
<clipPath id="clip0_12_1994">
<rect width="24" height="24" fill="white" transform="translate(0.560059 0.73999)"/>
</clipPath>
</defs>
</svg>
