<svg width="25" height="25" viewBox="0 0 25 25" fill="none" xmlns="http://www.w3.org/2000/svg">
<g clip-path="url(#clip0_12_2491)">
<g clip-path="url(#clip1_12_2491)">
<path fill-rule="evenodd" clip-rule="evenodd" d="M21.7862 4.91197C22.8195 5.18856 23.6315 6.00055 23.9081 7.0338C24.4079 8.90472 24.4099 12.8106 24.4099 12.8106C24.4099 12.8106 24.4099 16.7164 23.9081 18.5874C23.6315 19.6206 22.8195 20.4326 21.7862 20.7091C19.9154 21.211 12.4099 21.211 12.4099 21.211C12.4099 21.211 4.90447 21.211 3.03355 20.7091C2.0003 20.4326 1.18831 19.6206 0.911723 18.5874C0.409912 16.7164 0.409912 12.8106 0.409912 12.8106C0.409912 12.8106 0.409912 8.90472 0.911723 7.0338C1.18831 6.00055 2.0003 5.18856 3.03355 4.91197C4.90447 4.41016 12.4099 4.41016 12.4099 4.41016C12.4099 4.41016 19.9154 4.41016 21.7862 4.91197ZM16.2427 12.8111L10.0076 16.4107V9.21143L16.2427 12.8111Z" fill="#CFD9F0"/>
</g>
</g>
<defs>
<clipPath id="clip0_12_2491">
<rect width="24" height="24" fill="white" transform="translate(0.409912 0.410156)"/>
</clipPath>
<clipPath id="clip1_12_2491">
<rect width="24" height="24" fill="white" transform="translate(0.409912 0.410156)"/>
</clipPath>
</defs>
</svg>
