<svg width="25" height="25" viewBox="0 0 25 25" fill="none" xmlns="http://www.w3.org/2000/svg">
<g clip-path="url(#clip0_12_2471)">
<g clip-path="url(#clip1_12_2471)">
<mask id="mask0_12_2471" style="mask-type:luminance" maskUnits="userSpaceOnUse" x="0" y="0" width="25" height="25">
<path d="M24.4099 0.410156H0.409912V24.4102H24.4099V0.410156Z" fill="white"/>
</mask>
<g mask="url(#mask0_12_2471)">
<path d="M19.4099 0.410156H5.40991C2.64891 0.410156 0.409912 2.64916 0.409912 5.41016V19.4102C0.409912 22.1712 2.64891 24.4102 5.40991 24.4102H19.4099C22.1719 24.4102 24.4099 22.1712 24.4099 19.4102V5.41016C24.4099 2.64916 22.1719 0.410156 19.4099 0.410156ZM8.40991 19.4102H5.40991V8.41016H8.40991V19.4102ZM6.90991 7.14216C5.94391 7.14216 5.15991 6.35216 5.15991 5.37816C5.15991 4.40416 5.94391 3.61416 6.90991 3.61416C7.87591 3.61416 8.65991 4.40416 8.65991 5.37816C8.65991 6.35216 7.87691 7.14216 6.90991 7.14216ZM20.4099 19.4102H17.4099V13.8062C17.4099 10.4382 13.4099 10.6932 13.4099 13.8062V19.4102H10.4099V8.41016H13.4099V10.1752C14.8059 7.58916 20.4099 7.39816 20.4099 12.6512V19.4102Z" fill="#CFD9F0"/>
</g>
</g>
</g>
<defs>
<clipPath id="clip0_12_2471">
<rect width="24" height="24" fill="white" transform="translate(0.409912 0.410156)"/>
</clipPath>
<clipPath id="clip1_12_2471">
<rect width="24" height="24" fill="white" transform="translate(0.409912 0.410156)"/>
</clipPath>
</defs>
</svg>
