<svg width="22" height="26" viewBox="0 0 18 20" fill="none" xmlns="http://www.w3.org/2000/svg">
<g clip-path="url(#clip0_12_2359)">
<path d="M8.60172 10.3486L1.47266 17.9128C1.55053 18.1989 1.69313 18.4632 1.88944 18.6855C2.08575 18.9077 2.33051 19.0819 2.60483 19.1945C2.87914 19.307 3.17566 19.355 3.47147 19.3348C3.76729 19.3144 4.05449 19.2265 4.31089 19.0776L12.3437 14.4453L8.60172 10.3486Z" fill="white" stroke="#121212" stroke-width="0.384856"/>
<path d="M15.8109 9.06361L12.3433 7.05542L8.44751 10.5296L12.3568 14.4455L15.8042 12.4373C16.1106 12.2733 16.3669 12.0291 16.5454 11.7308C16.724 11.4325 16.8183 11.0914 16.8183 10.7438C16.8183 10.3962 16.724 10.055 16.5454 9.75679C16.3669 9.45854 16.1106 9.21434 15.8042 9.05022L15.8109 9.06361Z" fill="white" stroke="#121212" stroke-width="0.384856"/>
<path d="M1.47162 3.56104C1.43622 3.71916 1.42048 3.88103 1.42476 4.04301V17.4309C1.42593 17.5982 1.44842 17.7647 1.4917 17.9263L8.85507 10.5629L1.47162 3.56104Z" fill="white" stroke="#121212" stroke-width="0.384856"/>
<path d="M8.65413 10.7364L12.3425 7.048L4.30974 2.40239C4.00796 2.22299 3.66343 2.12818 3.31234 2.12793C2.88885 2.12914 2.47746 2.26928 2.14131 2.52685C1.80514 2.78441 1.56278 3.14516 1.45142 3.55375L8.65413 10.7364Z" fill="white" stroke="#121212" stroke-width="0.384856"/>
</g>
<defs>
<clipPath id="clip0_12_2359">
<rect width="17.5934" height="18.693" fill="white" transform="translate(0.324463 0.953369)"/>
</clipPath>
</defs>
</svg>
