<svg width="150" height="148" viewBox="0 0 150 148" fill="none" xmlns="http://www.w3.org/2000/svg">
<g clip-path="url(#clip0_73_2)">
<path d="M75 148C116.421 148 150 114.869 150 74C150 33.1309 116.421 0 75 0C33.5786 0 0 33.1309 0 74C0 114.869 33.5786 148 75 148Z" fill="#13B5EC"/>
<path fill-rule="evenodd" clip-rule="evenodd" d="M80.625 59.6625L97.5 49.95V69.375L80.625 59.6625ZM97.5 101.287L75 114.238L52.5 101.287V78.625L75 91.575L97.5 78.625V101.287ZM52.5 49.95L69.375 59.6625L52.5 69.375V49.95ZM77.8125 64.2875L94.6875 74L77.8125 83.7125V64.2875ZM72.1875 83.7125L55.3125 74L72.1875 64.2875V83.7125ZM94.6875 45.325L75 56.425L55.3125 45.325L75 33.7625L94.6875 45.325ZM46.875 43.475V104.062L75 119.787L103.125 104.062V43.475L75 27.75L46.875 43.475Z" fill="white"/>
</g>
<defs>
<clipPath id="clip0_73_2">
<rect width="150" height="148" fill="white"/>
</clipPath>
</defs>
</svg>
