<svg width="149" height="150" viewBox="0 0 149 150" fill="none" xmlns="http://www.w3.org/2000/svg">
<g clip-path="url(#clip0_1_2)">
<path d="M108.594 13.1965C104.735 17.0563 101.198 21.2397 98.0551 25.7004L97.0613 25.3768C91.3294 23.5047 85.3895 22.3491 79.4034 21.9562C77.6006 21.8175 70.8749 21.8175 68.6792 21.9562C62.0459 22.3953 56.9612 23.3891 51.183 25.3999C50.9519 25.4924 50.7439 25.5617 50.5359 25.6311C47.277 21.1935 43.6484 17.0332 39.6499 13.2197C58.8333 3.39685 81.2755 2.21811 101.36 9.96079C103.51 10.7697 105.613 11.7173 107.67 12.7343L108.594 13.1965Z" fill="#F00500"/>
<path d="M144.373 100.862C141.46 109.16 137.092 116.856 131.43 123.559C128.356 127.164 124.958 130.469 121.306 133.474C112.755 140.361 102.77 145.284 92.1152 147.873C80.3279 150.716 68.032 150.716 56.2447 147.873C45.5667 145.284 35.6052 140.361 27.0536 133.474C23.4018 130.469 20.0043 127.164 16.9303 123.559C0.636042 104.306 -4.31003 77.8653 3.98735 54.0363C5.559 49.6218 7.52356 45.3691 9.88103 41.3244C10.9673 39.4754 12.3079 37.3953 12.955 36.5401C15.1738 46.0856 17.9011 54.4754 18.918 57.5032C18.8487 57.6649 18.7562 57.8499 18.6638 58.0116C13.2786 68.9207 10.3664 79.4369 9.67303 90.6233C9.67303 90.762 9.64991 90.9238 9.64991 91.0625C9.46501 94.4138 9.55746 96.0086 10.1122 98.1118C11.8456 104.699 17.1846 111.956 25.5513 119.075C39.257 130.724 57.8394 139.136 71.9149 140.107C86.5914 141.101 108.248 132.526 122.67 119.999C124.935 117.989 127.061 115.862 129.049 113.597C130.482 111.933 132.608 109.067 132.447 109.067C132.4 109.067 132.447 109.021 132.539 108.975C132.608 108.928 132.678 108.859 132.631 108.813C132.608 108.79 132.655 108.72 132.724 108.697C132.793 108.674 132.839 108.628 132.816 108.582C132.793 108.536 132.816 108.489 132.909 108.466C132.978 108.443 133.001 108.374 132.978 108.328C132.955 108.281 132.978 108.235 133.024 108.235C133.071 108.235 133.117 108.166 133.117 108.119C133.117 108.073 133.163 108.004 133.209 108.004C133.255 108.004 133.302 107.958 133.302 107.911C133.371 107.727 133.487 107.542 133.602 107.38C133.949 106.848 135.336 104.375 135.52 103.959C136.838 100.978 137.67 98.3198 138.063 95.6619C138.248 94.3907 138.363 92.0563 138.271 91.5016C138.248 91.4092 138.248 91.2474 138.225 90.9932C138.178 90.5309 138.155 89.8375 138.109 89.1442C138.063 88.1041 137.97 86.648 137.901 85.9315C136.907 75.4384 134.226 66.8637 129.141 57.7805C128.933 57.4338 128.749 57.0871 128.633 56.8098C128.587 56.7404 128.564 56.6711 128.541 56.6249C129.257 54.4754 132.192 45.4847 134.527 35.1996L134.573 35.2458L134.92 35.7081C135.52 36.517 137.115 38.9207 137.832 40.0764C141.091 45.3922 143.633 51.101 145.436 57.064C149.619 71.4169 149.272 86.7173 144.373 100.862Z" fill="#F00500"/>
<path d="M114.373 73.2428C114.303 73.6126 113.217 74.722 112.131 75.5309C108.941 77.8653 103.232 80.0378 97.4311 81.0779C94.126 81.6788 90.8209 81.7713 89.8271 81.2859C89.18 80.9623 89.0875 80.7081 89.3186 79.876C89.804 78.1426 91.3757 76.2474 93.8256 74.4677C95.0737 73.5663 100.135 70.4924 102.493 69.1981C106.376 67.0717 109.519 65.8006 111.645 65.5001C112.316 65.4076 113.124 65.3845 113.379 65.5001C113.795 65.6619 114.257 66.8868 114.442 68.366C114.534 69.1519 114.488 72.6187 114.373 73.2428Z" fill="black"/>
<path d="M59.9195 80.893C59.7809 81.1703 59.0875 81.4708 58.3017 81.5864C57.5158 81.7019 55.1121 81.6326 53.7485 81.4708C48.8487 80.8237 43.6484 79.3213 39.8579 77.4724C37.7316 76.4323 36.2061 75.3922 35.0736 74.2597L34.4265 73.5895L34.3571 72.7112C34.2416 71.1857 34.2647 68.7821 34.4496 67.9269C34.5652 67.2104 34.8194 66.517 35.1661 65.893C35.351 65.6619 35.351 65.6619 36.183 65.6619C37.2 65.6619 38.0551 65.8237 39.4419 66.2628C42.2847 67.1411 46.5143 69.2674 51.6684 72.3645C55.9211 74.9069 57.5158 76.1549 58.7408 77.8653C59.5728 78.9284 60.1275 80.4307 59.9195 80.893Z" fill="black"/>
<path d="M92.6468 113.066C92.6468 113.135 92.3695 114.244 92.0228 115.562C91.6761 116.879 91.3988 117.942 91.3988 117.989C91.1445 118.012 90.9134 118.035 90.6591 118.012H89.9196L88.9026 120.415C88.3479 121.733 87.8394 122.958 87.7701 123.143L87.6314 123.466L87.1461 122.68L86.6607 121.895V115.492L86.4758 115.539C86.0829 115.631 83.2863 116.001 82.0613 116.116C76.9997 116.625 71.9149 116.509 66.8764 115.793C66.0675 115.677 65.3741 115.585 65.351 115.608C65.3279 115.631 65.351 117.11 65.3972 118.936L65.4665 122.218L65.0736 122.819C64.8656 123.143 64.6576 123.42 64.6576 123.443C64.5883 123.512 64.3571 123.143 63.8256 122.079C63.2477 120.97 62.8317 119.791 62.5313 118.566L62.3695 117.896L61.653 117.942L60.9365 118.012L60.7516 117.156C60.6591 116.694 60.5436 115.978 60.4974 115.585L60.428 114.845L59.8271 114.314C59.4804 114.013 59.1337 113.713 59.0644 113.666C58.9488 113.574 58.9026 113.412 58.9026 113.274V112.996L61.7916 113.019L64.6807 113.042L64.7732 113.343L64.8656 113.643L65.8595 113.69C66.4142 113.713 68.1707 113.759 69.7423 113.805L72.6314 113.875L73.371 112.719L74.1337 111.563H75.1045L75.0813 109.16L75.0582 106.756L73.787 106.201C69.6961 104.398 67.2924 102.341 66.391 99.8452C66.2061 99.3368 66.2061 99.1519 66.1599 96.8406C66.1368 94.5525 66.1368 94.3445 66.2986 93.836C66.6222 92.6804 67.5236 91.779 68.6792 91.4785C69.0721 91.3629 70.1122 91.3629 75.5667 91.3629L81.992 91.3861L82.7084 91.7328C83.5636 92.1488 83.9565 92.4492 84.4419 93.0964C84.9966 93.836 85.1584 94.4138 85.1584 95.8237C85.1584 97.8344 85.0197 99.5679 84.8117 100.261C84.5112 101.209 84.049 102.11 83.4712 102.919C82.3155 104.398 80.2123 105.878 78.294 106.548L77.7393 106.756L77.7624 109.183L77.7855 111.609L78.294 111.656L78.8025 111.702L79.4958 112.742L80.1661 113.782H83.2631C84.9735 113.782 86.4758 113.805 86.6145 113.828C86.8456 113.875 86.8918 113.851 87.1229 113.458L87.4003 113.042H90.0582C92.0459 112.95 92.6468 112.996 92.6468 113.066Z" fill="black"/>
<path d="M80.4434 119.699C80.0043 119.953 79.7038 120.069 79.6345 120.022C79.5652 119.999 79.2416 119.722 78.8949 119.468L78.2709 118.959L77.6237 119.653C76.2138 121.178 76.1676 121.247 75.7516 121.271C75.1044 121.34 74.9658 121.224 74.18 120.046C73.7639 119.445 73.4403 118.936 73.4403 118.936C73.4403 118.936 73.1399 118.89 72.7932 118.867L72.1461 118.797L71.8456 119.422L71.5451 120.046L71.0135 119.884C70.5975 119.745 70.1815 119.583 69.7886 119.398L69.0952 119.052V117.734L75.2431 117.757L81.391 117.781L81.4142 118.405C81.4373 119.144 81.4604 119.121 80.4434 119.699Z" fill="black"/>
<path d="M138.225 91.5016C138.202 91.4092 138.202 91.2474 138.178 90.9931C132.631 90.3922 116.799 90.0224 102.1 102.156C102.1 102.156 97.3618 80.4307 75.1738 80.4307C52.9858 80.4307 44.7578 102.156 44.7578 102.156C32.3232 88.7743 15.6823 89.7451 9.67302 90.6233C9.67302 90.762 9.6499 90.9238 9.6499 91.0625C9.465 94.4138 9.55745 96.0086 10.1121 98.1118C11.8456 104.699 17.1846 111.956 25.5513 119.075C39.257 130.724 57.8394 139.136 71.9149 140.107C86.5913 141.101 108.248 132.526 122.67 119.999C124.935 117.989 127.061 115.862 129.049 113.597C130.482 111.933 132.608 109.067 132.447 109.067C132.4 109.067 132.447 109.021 132.539 108.975C132.608 108.928 132.678 108.859 132.631 108.813C132.608 108.79 132.655 108.72 132.724 108.697C132.793 108.674 132.839 108.628 132.816 108.582C132.793 108.536 132.816 108.489 132.909 108.466C132.978 108.443 133.001 108.374 132.978 108.328C132.955 108.281 132.978 108.235 133.024 108.235C133.071 108.235 133.117 108.166 133.117 108.119C133.117 108.073 133.163 108.004 133.209 108.004C133.255 108.004 133.302 107.958 133.302 107.911C133.371 107.727 133.487 107.542 133.602 107.38C133.949 106.848 135.336 104.375 135.52 103.959C136.838 100.978 137.67 98.3198 138.063 95.6619C138.202 94.3907 138.317 92.0563 138.225 91.5016ZM80.4434 119.699C80.0043 119.953 79.7038 120.069 79.6345 120.022C79.5652 119.999 79.2416 119.722 78.8949 119.468L78.2709 118.959L77.6237 119.653C76.2138 121.178 76.1676 121.247 75.7516 121.27C75.1044 121.34 74.9658 121.224 74.18 120.046C73.7639 119.445 73.4403 118.936 73.4403 118.936C73.4403 118.936 73.1399 118.89 72.7932 118.867L72.146 118.797L71.8456 119.421L71.5451 120.046L71.0135 119.884C70.5975 119.745 70.1815 119.583 69.7886 119.398L69.0952 119.052V117.734L75.2431 117.757L81.391 117.781L81.4141 118.405C81.4373 119.144 81.4604 119.121 80.4434 119.699ZM91.9997 115.539C91.653 116.856 91.3756 117.919 91.3756 117.965C91.1214 117.989 90.8903 118.012 90.636 117.989H89.8964L88.9026 120.415C88.3479 121.733 87.8394 122.958 87.7701 123.143L87.6314 123.466L87.1461 122.68L86.6607 121.895V115.492L86.4758 115.539C86.0829 115.631 83.2863 116.001 82.0613 116.116C76.9997 116.625 71.9149 116.509 66.8764 115.793C66.0675 115.677 65.3741 115.585 65.351 115.608C65.3279 115.631 65.351 117.11 65.3972 118.936L65.4665 122.218L65.0736 122.819C64.8656 123.143 64.6576 123.42 64.6576 123.443C64.5883 123.512 64.3571 123.143 63.8256 122.079C63.2477 120.97 62.8317 119.791 62.5313 118.566L62.3695 117.896L61.653 117.942L60.9365 118.012L60.7516 117.156C60.6591 116.694 60.5436 115.978 60.4974 115.585L60.428 114.845L59.8271 114.314C59.4804 114.013 59.1337 113.713 59.0644 113.666C58.9488 113.574 58.9026 113.412 58.9026 113.274V112.996L61.7916 113.019L64.6807 113.042L64.7732 113.343L64.8656 113.643L65.8595 113.69C66.4142 113.713 68.1707 113.759 69.7423 113.805L72.6314 113.875L73.371 112.719L74.1337 111.563H75.1045L75.0813 109.16L75.0582 106.756L73.787 106.201C69.6961 104.398 67.2924 102.341 66.391 99.8452C66.2061 99.3367 66.2061 99.1518 66.1599 96.8406C66.1368 94.5525 66.1368 94.3445 66.2986 93.836C66.6222 92.6804 67.5236 91.779 68.6792 91.4785C69.0721 91.3629 70.1122 91.3629 75.5667 91.3629L81.992 91.3861L82.7084 91.7327C83.5636 92.1488 83.9565 92.4492 84.4419 93.0964C84.9966 93.836 85.1584 94.4138 85.1584 95.8236C85.1584 97.8344 85.0197 99.5679 84.8117 100.261C84.5112 101.209 84.049 102.11 83.4712 102.919C82.3155 104.398 80.2123 105.878 78.294 106.548L77.7393 106.756L77.7624 109.183L77.7855 111.609L78.294 111.656L78.8025 111.702L79.4958 112.742L80.1661 113.782H83.2631C84.9735 113.782 86.4758 113.805 86.6145 113.828C86.8456 113.874 86.8918 113.851 87.1229 113.458L87.4003 113.042H90.0582C92.1152 113.042 92.7162 113.066 92.7162 113.135C92.6468 113.112 92.3464 114.244 91.9997 115.539Z" fill="white"/>
<path d="M138.04 89.1441C137.994 88.1041 137.901 86.648 137.832 85.9315C136.838 75.4384 134.157 66.8637 129.072 57.7805C128.864 57.4338 128.679 57.0871 128.564 56.8098C128.517 56.7404 128.494 56.6711 128.471 56.6249C129.188 54.4754 132.123 45.4847 134.457 35.1996C137.624 21.2397 139.635 4.92227 133.487 0.0224238C133.487 0.0224238 122.855 -0.763401 108.618 13.1965C104.758 17.0563 101.222 21.2397 98.0783 25.7004L97.0844 25.3768C91.3525 23.5047 85.4126 22.3491 79.4265 21.9562C77.6237 21.8175 70.898 21.8175 68.7023 21.9562C62.069 22.3953 56.9843 23.3891 51.2062 25.3999C50.975 25.4924 50.767 25.5617 50.559 25.631C47.3001 21.1935 43.6715 17.0332 39.673 13.2197C24.8579 -0.809624 13.8333 -0.000690106 13.8333 -0.000690106C7.31555 5.06094 9.53435 22.118 12.9088 36.5401C15.1276 46.0856 17.8548 54.4754 18.8718 57.5032C18.8025 57.6649 18.71 57.8498 18.6176 58.0116C13.2324 68.9207 10.3202 79.4369 9.6268 90.6233C15.6592 89.7451 32.277 88.7512 44.7347 102.156C44.7347 102.156 52.9627 80.4307 75.1507 80.4307C97.3387 80.4307 102.077 102.156 102.077 102.156C116.776 90.0224 132.608 90.4153 138.155 90.9931C138.132 90.5309 138.086 89.8375 138.04 89.1441ZM23.2401 48.7898C23.2401 48.7898 14.596 27.1796 16.8148 14.8375C17.1846 12.7574 17.878 10.9315 18.9642 9.54476C18.9642 9.54476 28.7639 10.5155 44.5729 28.081C44.5729 28.081 41.5683 29.5371 37.5467 32.6341C37.5467 32.6341 37.5236 32.6572 37.5004 32.6572C33.1322 36.0086 27.539 41.3244 23.2401 48.7898ZM59.9196 80.893C59.7809 81.1703 59.0875 81.4708 58.3017 81.5864C57.5159 81.7019 55.1122 81.6326 53.7485 81.4708C48.8487 80.8237 43.6484 79.3213 39.8579 77.4723C37.7316 76.4323 36.2061 75.3922 35.0736 74.2597L34.4265 73.5895L34.3572 72.7112C34.2416 71.1857 34.2647 68.7821 34.4496 67.9269C34.5652 67.2104 34.8194 66.517 35.1661 65.893C35.351 65.6619 35.351 65.6619 36.183 65.6619C37.2 65.6619 38.0552 65.8237 39.4419 66.2628C42.2847 67.1411 46.5143 69.2674 51.6684 72.3645C55.9211 74.9069 57.5159 76.1549 58.7408 77.8653C59.5729 78.9284 60.1276 80.4307 59.9196 80.893ZM114.373 73.2428C114.303 73.6126 113.217 74.722 112.131 75.5309C108.941 77.8653 103.232 80.0378 97.4311 81.0779C94.126 81.6788 90.8209 81.7713 89.8271 81.2859C89.18 80.9623 89.0875 80.7081 89.3186 79.876C89.804 78.1426 91.3757 76.2474 93.8256 74.4677C95.0737 73.5663 100.135 70.4924 102.493 69.1981C106.376 67.0717 109.519 65.8005 111.645 65.5001C112.316 65.4076 113.124 65.3845 113.379 65.5001C113.795 65.6619 114.257 66.8868 114.442 68.366C114.534 69.1518 114.488 72.6187 114.373 73.2428ZM110.536 32.6341L110.49 32.611C106.607 29.5139 103.695 28.0579 103.695 28.0579C118.972 10.4924 128.425 9.52165 128.425 9.52165C129.465 10.9315 130.135 12.7343 130.505 14.8144C132.655 27.1565 124.311 48.7898 124.311 48.7898C120.821 42.5725 116.129 37.0717 110.536 32.6341Z" fill="#FFA409"/>
<path d="M130.528 14.8144C128.725 14.5833 120.197 14.5371 110.536 32.6341L110.49 32.611C106.607 29.5139 103.695 28.0579 103.695 28.0579C118.972 10.4924 128.425 9.52165 128.425 9.52165C129.488 10.9315 130.158 12.7343 130.528 14.8144Z" fill="#FF9300"/>
<path d="M124.334 48.7898C120.821 42.5494 116.152 37.0717 110.536 32.6341C120.197 14.5371 128.702 14.5833 130.528 14.8144C132.678 27.1796 124.334 48.7898 124.334 48.7898Z" fill="#FF8300"/>
<path d="M130.875 14.8837C130.759 14.8606 130.644 14.8375 130.528 14.8144L130.875 14.8837Z" fill="#FF8300"/>
<path d="M44.5728 28.0579C44.5728 28.0579 41.5682 29.5139 37.5467 32.611C37.5467 32.611 37.5235 32.6341 37.5004 32.6341C27.4927 14.5139 18.6869 14.5833 16.7917 14.8144C17.1615 12.7343 17.8548 10.9084 18.9411 9.52165C18.9642 9.52165 28.7639 10.4924 44.5728 28.0579Z" fill="#FF9300"/>
<path d="M37.5235 32.6341C33.1322 36.0086 27.539 41.3013 23.2401 48.7898C23.2401 48.7898 14.596 27.1796 16.8148 14.8144C18.6869 14.5833 27.5158 14.5371 37.5235 32.6341Z" fill="#FF8300"/>
<path d="M16.8148 14.8144C16.6992 14.8375 16.5605 14.8606 16.445 14.8837L16.8148 14.8144Z" fill="#FF8300"/>
<path d="M100.944 60.7851C100.944 60.7851 93.5482 61.2474 94.4727 55.4693C95.3972 49.6911 101.175 48.9978 102.793 49.2289C104.411 49.46 110.883 51.7713 109.727 56.6249C108.571 61.4785 106.953 60.554 106.029 60.7851C105.104 61.0163 100.944 60.7851 100.944 60.7851Z" fill="white"/>
<path d="M46.3987 60.7851C46.3987 60.7851 39.0027 61.2474 39.9272 55.4693C40.8517 49.6911 46.6299 48.9978 48.2477 49.2289C49.8656 49.46 56.3371 51.7713 55.1815 56.6249C54.0258 61.4785 52.408 60.554 51.4835 60.7851C50.559 61.0163 46.3987 60.7851 46.3987 60.7851Z" fill="white"/>
</g>
<defs>
<clipPath id="clip0_1_2">
<rect width="148.313" height="150" fill="white"/>
</clipPath>
</defs>
</svg>
