<svg width="17" height="17" viewBox="0 0 14 13" fill="none" xmlns="http://www.w3.org/2000/svg">
<path d="M12.95 7.54999H1.05C0.47236 7.54999 0 8.02235 0 8.59999V11.4C0 11.9776 0.47236 12.45 1.05 12.45H12.95C13.5276 12.45 14 11.9776 14 11.4V8.59999C14 8.02235 13.5276 7.54999 12.95 7.54999ZM13.3 11.4C13.3 11.5928 13.1428 11.75 12.95 11.75H1.05C0.85722 11.75 0.7 11.5928 0.7 11.4V8.59999C0.7 8.40721 0.857227 8.24999 1.05 8.24999H12.95C13.1428 8.24999 13.3 8.40721 13.3 8.59999V11.4ZM6.54465 9.54464L6.09005 9.99992L6.54533 10.4552C6.68547 10.5953 6.68547 10.8052 6.54533 10.9453C6.47492 11.0151 6.38742 11.0499 6.29993 11.0499C6.21244 11.0499 6.12493 11.0151 6.05521 10.9447L5.59993 10.4901L5.14465 10.9453C5.07492 11.0151 4.98742 11.0499 4.89993 11.0499C4.81244 11.0499 4.72493 11.0151 4.65521 10.9447C4.51507 10.8045 4.51507 10.5947 4.65521 10.4545L5.11049 9.99923L4.65521 9.54395C4.51507 9.40382 4.51507 9.19396 4.65521 9.05381C4.79535 8.91368 5.00521 8.91368 5.14535 9.05381L5.60063 9.5091L6.05591 9.05381C6.19605 8.91368 6.40591 8.91368 6.54605 9.05381C6.68482 9.19464 6.68479 9.40518 6.54465 9.54464ZM3.74465 9.54464L3.29005 9.99992L3.74533 10.4552C3.88547 10.5953 3.88547 10.8052 3.74533 10.9453C3.67492 11.0151 3.58742 11.0499 3.49993 11.0499C3.41244 11.0499 3.32493 11.0151 3.25521 10.9447L2.79993 10.4901L2.34465 10.9453C2.27492 11.0151 2.18742 11.0499 2.09993 11.0499C2.01244 11.0499 1.92493 11.0151 1.85521 10.9447C1.71507 10.8045 1.71507 10.5947 1.85521 10.4545L2.31049 9.99923L1.85521 9.54395C1.71507 9.40382 1.71507 9.19396 1.85521 9.05381C1.99535 8.91368 2.20521 8.91368 2.34535 9.05381L2.80063 9.5091L3.25591 9.05381C3.39605 8.91368 3.60591 8.91368 3.74605 9.05381C3.88482 9.19464 3.88479 9.40518 3.74465 9.54464ZM9.34465 9.54464L8.89005 9.99992L9.34533 10.4552C9.48547 10.5953 9.48547 10.8052 9.34533 10.9453C9.27492 11.0151 9.18742 11.0499 9.09993 11.0499C9.01244 11.0499 8.92493 11.0151 8.85521 10.9447L8.39993 10.4901L7.94465 10.9453C7.87492 11.0151 7.78742 11.0499 7.69993 11.0499C7.61244 11.0499 7.52493 11.0151 7.45521 10.9447C7.31507 10.8045 7.31507 10.5947 7.45521 10.4545L7.91049 9.99923L7.45521 9.54395C7.31507 9.40382 7.31507 9.19396 7.45521 9.05381C7.59535 8.91368 7.80521 8.91368 7.94535 9.05381L8.40063 9.5091L8.85591 9.05381C8.99605 8.91368 9.20591 8.91368 9.34605 9.05381C9.48482 9.19464 9.48479 9.40518 9.34465 9.54464ZM12.1447 9.54464L11.6901 9.99992L12.1453 10.4552C12.2855 10.5953 12.2855 10.8052 12.1453 10.9453C12.0749 11.0151 11.9874 11.0499 11.8999 11.0499C11.8124 11.0499 11.7249 11.0151 11.6552 10.9447L11.1999 10.4901L10.7446 10.9453C10.6749 11.0151 10.5874 11.0499 10.4999 11.0499C10.4124 11.0499 10.3249 11.0151 10.2552 10.9447C10.1151 10.8045 10.1151 10.5947 10.2552 10.4545L10.7105 9.99923L10.2552 9.54395C10.1151 9.40382 10.1151 9.19396 10.2552 9.05381C10.3953 8.91368 10.6052 8.91368 10.7453 9.05381L11.2006 9.5091L11.6559 9.05381C11.796 8.91368 12.0059 8.91368 12.146 9.05381C12.2848 9.19464 12.2848 9.40518 12.1447 9.54464ZM4.9 6.84999H9.1C9.29278 6.84999 9.45 6.69276 9.45 6.49999V3.34999C9.45 3.15721 9.29277 2.99999 9.1 2.99999H8.75V2.29999C8.75 1.33749 7.9625 0.549988 7 0.549988C6.0375 0.549988 5.25 1.33749 5.25 2.29999V2.99999H4.9C4.70722 2.99999 4.55 3.15721 4.55 3.34999V6.49999C4.55 6.69277 4.70723 6.84999 4.9 6.84999ZM5.95 2.29999C5.95 1.72235 6.42236 1.24999 7 1.24999C7.57764 1.24999 8.05 1.72235 8.05 2.29999V2.99999H5.95V2.29999ZM5.25 3.69999H8.75V6.14999H5.25V3.69999Z" fill="black" fill-opacity="0.5"/>
</svg>
