<svg width="17" height="17" viewBox="0 0 13 15" fill="none" xmlns="http://www.w3.org/2000/svg">
<path d="M1.24898 11.0435C1.31577 11.0435 1.38005 11.017 1.42731 10.9697C1.47457 10.9225 1.50104 10.8582 1.50104 10.7914V6.9961C1.50167 6.85684 1.61446 6.74405 1.75309 6.74405H10.8265C10.9657 6.74405 11.0785 6.85684 11.0785 6.9961V10.7914C11.0785 10.9307 11.192 11.0434 11.3306 11.0434C11.4699 11.0434 11.5827 10.9307 11.5827 10.7914V6.9961C11.5827 6.57833 11.2443 6.24056 10.8265 6.23993H10.5751V4.72759C10.5751 3.19698 9.75839 1.78228 8.43261 1.01668C7.10679 0.251684 5.47343 0.251684 4.14774 1.01668C2.82191 1.7823 2.0053 3.19703 2.0053 4.72759V6.23993H1.75324C1.33609 6.24056 0.997699 6.57833 0.99707 6.9961V10.7914C0.99707 10.8582 1.02417 10.9225 1.07143 10.9697C1.11869 11.017 1.18218 11.0435 1.24898 11.0435ZM9.06281 6.23994H3.51757V4.7276C3.51757 3.73702 4.04625 2.82213 4.90388 2.32673C5.76151 1.83144 6.81887 1.83144 7.67659 2.32673C8.53421 2.82202 9.06291 3.73699 9.06291 4.7276L9.06281 6.23994ZM2.50934 4.7276C2.50934 3.37658 3.23023 2.12896 4.3998 1.45337C5.56938 0.777773 7.01054 0.777854 8.18073 1.45337C9.35027 2.12888 10.0712 3.37722 10.0712 4.7276V6.23994H9.56708V4.7276C9.56708 3.5568 8.94261 2.47546 7.92876 1.89005C6.91485 1.30465 5.66597 1.30465 4.6521 1.89005C3.6382 2.47545 3.01378 3.55677 3.01378 4.7276V6.23994H2.50966L2.50934 4.7276Z" fill="black" fill-opacity="0.5"/>
<path d="M7.04648 10.7761V10.5234C7.48002 10.1976 7.65709 9.63177 7.48507 9.11693C7.31367 8.60274 6.83224 8.25616 6.29033 8.25616C5.74842 8.25616 5.26697 8.60274 5.09494 9.11693C4.92354 9.63176 5.10061 10.1976 5.53416 10.5234V10.7761C5.53668 10.9135 5.64884 11.0238 5.78621 11.0238C5.92358 11.0238 6.03575 10.9135 6.03827 10.7761C6.02062 10.6009 6.10695 10.267 5.91161 10.1693V10.1699C5.61608 9.99851 5.47177 9.65003 5.56062 9.31985C5.64947 8.98965 5.94815 8.76028 6.29032 8.76028C6.63185 8.76028 6.93118 8.98965 7.02001 9.31985C7.10885 9.65005 6.96456 9.99851 6.66839 10.1699C6.47368 10.2676 6.55938 10.6016 6.54173 10.7767L6.54236 10.7761C6.54488 10.9135 6.65705 11.0238 6.79442 11.0238C6.93179 11.0238 7.04396 10.9135 7.04648 10.7761Z" fill="black" fill-opacity="0.5"/>
<path d="M11.0783 11.5324H1.50079C-0.498083 11.6024 -0.502439 14.4853 1.50079 14.5571H11.0783C11.9139 14.5571 12.5906 13.8803 12.5906 13.0447C12.5906 12.2098 11.9139 11.5324 11.0783 11.5324ZM11.0783 14.053H1.50079C0.948148 14.0479 0.502012 13.598 0.502012 13.0447C0.502012 12.4915 0.948148 12.0416 1.50079 12.0365H11.0783C11.6316 12.0416 12.0777 12.4915 12.0777 13.0447C12.0777 13.598 11.6316 14.0479 11.0783 14.053Z" fill="black" fill-opacity="0.5"/>
<path d="M2.18377 12.6143C2.12012 12.5582 2.03442 12.5343 1.95125 12.5488C1.86744 12.5626 1.79497 12.6143 1.75337 12.6887C1.46036 12.3093 1.018 12.7517 1.39672 13.0453C1.01737 13.3383 1.45973 13.7807 1.75337 13.402C2.04639 13.7813 2.48875 13.3389 2.11003 13.0453V13.0447C2.18439 13.0037 2.23543 12.9306 2.24992 12.8474C2.26441 12.7636 2.23985 12.6779 2.18377 12.6143Z" fill="black" fill-opacity="0.5"/>
<path d="M4.45232 12.6143C4.38868 12.5582 4.30298 12.5343 4.21917 12.5488C4.13599 12.5626 4.06353 12.6143 4.02193 12.6887C3.72891 12.3093 3.28655 12.7517 3.66528 13.0453C3.28592 13.3383 3.72829 13.7807 4.02193 13.402C4.31494 13.7813 4.75731 13.3389 4.37858 13.0453V13.0447C4.45231 13.0037 4.50398 12.9306 4.51848 12.8474C4.53234 12.7636 4.5084 12.6779 4.45232 12.6143Z" fill="black" fill-opacity="0.5"/>
<path d="M6.72088 12.6143C6.65723 12.5582 6.57153 12.5343 6.48773 12.5488C6.40455 12.5626 6.33145 12.6143 6.29048 12.6887C5.99747 12.3093 5.55511 12.7517 5.93383 13.0453C5.55448 13.3383 5.99684 13.7807 6.29048 13.402C6.5835 13.7813 7.02586 13.3389 6.64714 13.0453V13.0447C6.72086 13.0037 6.77254 12.9306 6.7864 12.8474C6.80089 12.7636 6.77696 12.6779 6.72088 12.6143Z" fill="black" fill-opacity="0.5"/>
<path d="M8.81086 12.7926H8.30674C8.16748 12.7926 8.05469 12.9054 8.05469 13.0447C8.05469 13.1839 8.16748 13.2967 8.30674 13.2967H8.81086C8.94823 13.2942 9.05786 13.182 9.05786 13.0447C9.05786 12.9073 8.94822 12.7951 8.81086 12.7926Z" fill="black" fill-opacity="0.5"/>
<path d="M11.0788 12.7926H10.5753C10.436 12.7926 10.3232 12.9054 10.3232 13.0447C10.3232 13.1839 10.436 13.2967 10.5753 13.2967H11.0794H11.0788C11.2162 13.2942 11.3264 13.182 11.3264 13.0447C11.3264 12.9073 11.2162 12.7951 11.0788 12.7926Z" fill="black" fill-opacity="0.5"/>
</svg>
