<?xml version="1.0" encoding="utf-8"?>
<!-- Generator: Adobe Illustrator 25.3.0, SVG Export Plug-In . SVG Version: 6.00 Build 0)  -->
<svg version="1.1" id="Layer_1" xmlns="http://www.w3.org/2000/svg" xmlns:xlink="http://www.w3.org/1999/xlink" x="0px" y="0px"
	 viewBox="0 0 350 350" style="enable-background:new 0 0 350 350;" xml:space="preserve">
<style type="text/css">
	.st0{fill:#f8be49;}
	.st1{display:none;}
	.st2{display:inline;fill:#f8be49;}
</style>
<g>
	<path class="st0" d="M16.8,217.5c0,3-0.2,5.6,0,8.1c0.5,5.4,4.7,8.8,10.9,8.8c23.8,0,47.6,0,71.3,0c39.8,0,79.6,0,119.4,0
		c4.4,0,6.7,1.4,7.3,4.5c0.8,3.8-2,6.7-6.5,6.8c-15.2,0-30.4,0-45.6,0c-1.3,0-2.6,0-4.1,0c0,15.1,0,29.9,0,45.2c1.3,0,2.5,0,3.8,0
		c15.3,0,30.6-0.1,45.9,0.1c2,0,4.5,1.5,5.7,3.1c0.9,1.2,0.7,4.1-0.2,5.4c-1,1.4-3.5,2.6-5.3,2.6c-46.5,0.1-93,0.1-139.5,0.1
		c-4.2,0-6.7-2.2-6.7-5.7c0-3.4,2.6-5.6,6.7-5.6c14.7,0,29.4,0,44.2,0c1.7,0,3.5,0,5.5,0c0-15.1,0-30,0-45.2c-2.1,0-4,0-6,0
		c-31.9,0-63.8,0-95.7,0c-13.4,0-22.4-8.9-22.4-22.3c0-51.2,0-102.4,0-153.6c0-12.7,9.2-21.9,21.8-21.9c81.4,0,162.7,0,244.1,0
		c13.5,0,22.4,8.9,22.4,22.3c0,7.3,0,14.6,0,21.9c0,4.2-2.2,6.7-5.6,6.7c-3.4,0-5.6-2.5-5.6-6.7c0-7.3,0-14.6,0-21.9
		c0-7-3.9-11-10.9-11c-81.2,0-162.5,0-243.7,0c-7,0-11,3.8-11,10.5c0,44.7,0,89.5,0,134.2c0,0.6,0.1,1.2,0.1,2.1
		c1.2,0.1,2.3,0.2,3.4,0.2c65.9,0,131.9,0,197.8,0.1c1.8,0,3.8,0.3,5.4,1.1c2.2,1.3,3,3.6,2.1,6.2c-0.9,2.6-2.8,4-5.6,4
		c-9.2,0-18.4,0-27.6,0c-57.5,0-114.9,0-172.4,0C19.1,217.5,18.2,217.5,16.8,217.5z M141.4,245.9c0,15.2,0,30.1,0,44.9
		c5.6,0,11,0,16.5,0c0-15.1,0-29.9,0-44.9C152.3,245.9,146.9,245.9,141.4,245.9z"/>
	<path class="st0" d="M344.6,206.5c0,25.9,0,51.8,0,77.7c0,10.8-7.1,18-17.8,18c-23.9,0-47.8,0-71.7,0c-10.6,0-17.8-7.2-17.8-17.7
		c0-52.3,0-104.6,0-156.8c0-10.4,7.2-17.6,17.5-17.7c24.1,0,48.3,0,72.4,0c10.3,0,17.5,7.3,17.5,17.7
		C344.6,154,344.6,180.3,344.6,206.5z M333,262.5c0-39.6,0-79,0-118.3c-28.3,0-56.3,0-84.4,0c0,39.5,0,78.8,0,118.3
		C276.8,262.5,304.8,262.5,333,262.5z M248.5,274.1c0,3.8-0.1,7.4,0,10.9c0.1,3.7,2.3,5.8,6,5.9c3.4,0.1,6.8,0,10.2,0
		c20.5,0,40.9,0,61.4,0c4.2,0,6.8-1.6,7-4.8c0.3-3.9,0.1-7.9,0.1-12C304.9,274.1,276.9,274.1,248.5,274.1z M333.3,132.6
		c0-1.2,0-2,0-2.8c0.1-6.8-1.5-8.4-8.2-8.4c-5.3,0-10.6,0-15.9,0c-18,0-36,0-54,0c-4.3,0-6.5,2-6.7,5.9c-0.1,1.7,0,3.4,0,5.2
		C276.9,132.6,304.9,132.6,333.3,132.6z"/>
	<path class="st0" d="M220.2,132.9c0.1,33.8-28.1,62-61.8,62c-34.5,0-62.6-27.7-62.6-61.9c0-34.5,27.8-62.5,62.3-62.5
		C192.3,70.5,220.2,98.5,220.2,132.9z M208.9,132.7c0.1-28-22.8-50.8-51-50.9c-27.6,0-50.7,22.9-50.7,50.5
		c0,28.1,22.6,51.1,50.3,51.2C186,183.6,208.9,161,208.9,132.7z"/>
	<path class="st0" d="M290.9,240.1c-20.3,0-36.7-16.4-36.7-36.8c0-20.1,16.5-36.7,36.6-36.6c20.6,0,37,16.5,36.9,37
		C327.5,223.7,311,240.1,290.9,240.1z M316.3,203.5c0.1-14-11.3-25.5-25.2-25.6c-14.2,0-25.6,11.2-25.7,25.4
		c0,14,11.4,25.4,25.4,25.4C304.8,228.8,316.2,217.4,316.3,203.5z"/>
	<path class="st0" d="M146.7,152.8c13.1-13.1,25.8-25.8,38.6-38.5c0.7-0.7,1.5-1.5,2.3-2.2c2.8-2.6,6.1-2.7,8.5-0.3
		c2.3,2.4,2.1,5.6-0.5,8.5c-1.5,1.6-3.2,3.2-4.7,4.8c-12.7,12.7-25.5,25.5-38.2,38.2c-4.7,4.7-6.9,4.7-11.5,0.1
		c-6.7-6.7-13.3-13.3-20-20c-3.1-3.2-3.5-6.4-1-9c2.5-2.5,5.8-2.3,9,0.8C134.9,141,140.7,146.9,146.7,152.8z"/>
	<path class="st0" d="M286.3,204.1c4.8-4.3,9.5-8.6,14.3-12.8c3.2-2.9,6.7-3,9-0.3c2.2,2.6,1.7,5.9-1.3,8.7
		c-5.8,5.2-11.5,10.4-17.3,15.6c-3.5,3.1-5.8,3.1-9.3,0c-2.7-2.3-5.3-4.7-7.9-7.1c-2.8-2.6-3.1-6-0.8-8.4c2.2-2.4,5.3-2.4,8.2-0.1
		c0.9,0.7,1.7,1.6,2.6,2.4C284.5,202.7,285.3,203.4,286.3,204.1z"/>
</g>
<g class="st1">
	<path class="st2" d="M101.2,276.2c-7.3,1-16.2,2.1-25,3.3c-7.6,1-15.1,2.2-22.7,3.1c-9.2,1.1-17.3-4.6-18.7-13.8
		c-2.4-15.2-4.3-30.5-6.3-45.7c-3.4-25.3-6.8-50.5-10.3-75.8c-3.2-23.5-6.3-47-9.5-70.5c-1.5-11.1-3-22.1-4.4-33.2
		C2.9,33.7,8.8,25.4,18.7,24c21.4-3,42.8-5.8,64.3-8.7c23.5-3.2,47-6.3,70.5-9.5c9.2-1.2,18.4-2.6,27.6-3.7
		c9.4-1.1,17.6,5.5,18.6,15.2c0.4,4,2.1,4.9,5.7,5.1c19.8,1.3,39.6,2.7,59.4,4.3c9.2,0.7,15.9,9.1,15.2,18.4
		c-2.1,27.9-4.1,55.8-6.2,83.7c-2.2,30-4.6,60-6.8,90c-1.3,17.1-2.5,34.2-3.7,51.4c-0.7,10.2-8.4,17.4-18.5,16.7
		c-26.7-1.9-53.5-4-80.2-6C144,279.3,123.4,277.8,101.2,276.2z M52.3,268.8c0.7-0.1,1.4-0.1,2.1-0.2c28.1-3.9,56.3-7.8,84.4-11.6
		c24.5-3.4,49.1-6.7,73.6-9.9c3-0.4,4.1-1.8,3.7-4.7c-1.5-10.8-3-21.6-4.4-32.4c-2.3-16.6-4.5-33.2-6.8-49.9
		c-2.2-16.5-4.4-33-6.6-49.5c-2.2-16.6-4.5-33.2-6.8-49.9c-1.8-13.6-3.6-27.2-5.4-40.8c-0.4-3.2-2-4.2-5-3.8
		c-14.4,2-28.9,3.9-43.3,5.9c-21.8,3-43.5,5.9-65.3,8.8c-16.6,2.2-33.3,4.5-49.9,6.8c-4.8,0.7-5.1,1.4-4.4,6
		c0.6,4.3,1.1,8.6,1.7,12.9c3.1,23.3,6.3,46.6,9.4,69.9c3.2,23.7,6.4,47.5,9.6,71.2c3.1,22.6,6.1,45.2,9.2,67.8
		C48.4,267.8,49.6,269.1,52.3,268.8z M202.5,36c0.1,1.6,0.2,2.5,0.3,3.4c1.3,9.5,2.7,19,3.9,28.6c2.4,18.2,4.8,36.5,7.3,54.8
		c2.7,20,5.5,40,8.2,59.9c2.6,18.8,5,37.7,7.7,56.5c1.6,10.9-4,20-13.7,21.5c-9,1.4-18.1,2.4-27.2,3.6c-5.7,0.8-11.4,1.6-17.1,2.4
		c2,0.9,3.9,1.1,5.9,1.3c8.2,0.6,16.4,1.2,24.6,1.8c14.1,1,28.1,2.1,42.2,3.1c3.3,0.3,4.6-1,4.9-4.3c1-14.4,2.2-28.8,3.3-43.2
		c2-27.1,3.9-54.1,5.9-81.2c2.4-32.9,4.9-65.9,7.5-98.8c0.2-3.2-0.8-4.8-4.2-5c-11.7-0.8-23.4-1.7-35.1-2.6
		C218.9,37.2,210.9,36.6,202.5,36z"/>
	<path class="st2" d="M98.4,167.5c-16.5-14.5-14-34.3-4.6-44.9c10.4-11.8,27.8-14,40.6-5.3c11.7,7.9,19.3,26,7.4,44.3
		c0.9,0.5,1.8,0.9,2.7,1.3c19.6,8.2,30.2,23.1,32.5,44.1c0.5,4.6,1.1,9.5,0.3,14c-2.1,11-10.6,17.9-22.2,19.4
		c-17.1,2.2-34.2,4.5-51.3,6.9c-10.5,1.5-22.6-5.7-25.7-16.7c-3-10.6-4-21.5-1.3-32.4c2.8-11.2,8.7-20.4,17.7-27.7
		C95.8,169.5,97,168.5,98.4,167.5z M88.6,210.3c0.5,3.9,1,7.9,1.6,11.8c1.3,9,5.9,12.5,14.8,11.3c16.6-2.3,33.2-4.6,49.8-6.9
		c6.4-0.9,10.6-6.4,9.7-12.7c-0.4-2.7-0.8-5.3-1.1-8c-2.4-19.1-18.5-33.5-37.4-32.9C104.6,173.5,88.8,189.8,88.6,210.3z
		 M134.4,142.8c0-9.4-7.7-17.4-17.1-17.5c-9.4-0.1-17.7,8-17.6,17.4c0,9,7.9,17.2,16.6,17.4C126.2,160.2,134.4,152.4,134.4,142.8z"
		/>
	<path class="st2" d="M42.5,62.6c0-3.7,2.3-6.4,6.1-7c13.9-1.9,27.9-3.8,41.9-5.7c21.7-2.9,43.5-5.9,65.2-8.8
		c1.7-0.2,3.5-0.5,5.2-0.5c3.8-0.1,6.7,2.4,7,6c0.4,3.7-1.7,6.8-5.5,7.4c-6.5,1.1-13,1.9-19.5,2.8c-23.8,3.2-47.7,6.5-71.5,9.7
		c-7,0.9-14,1.9-20.9,2.8C46.2,69.9,42.6,66.9,42.5,62.6z"/>
	<path class="st2" d="M129.5,73.2c4.2,0,7.1,2.7,7.4,6.4c0.3,3.8-2.4,6.9-6.9,7.5c-7.1,1-14.2,1.9-21.3,2.9
		c-6.3,0.8-12.6,1.6-18.9,2.5c-4.6,0.6-8.1-1.7-8.6-5.7c-0.5-4.3,1.9-7.3,6.6-7.9c13.3-1.9,26.5-3.7,39.8-5.5
		C128.4,73.3,129.1,73.3,129.5,73.2z"/>
</g>
</svg>
