<?xml version="1.0" encoding="utf-8"?>
<!-- Generator: Adobe Illustrator 25.3.0, SVG Export Plug-In . SVG Version: 6.00 Build 0)  -->
<svg version="1.1" id="Layer_1" xmlns="http://www.w3.org/2000/svg" xmlns:xlink="http://www.w3.org/1999/xlink" x="0px" y="0px"
	 viewBox="0 0 80 70" style="enable-background:new 0 0 80 70;" xml:space="preserve">
<style type="text/css">
	.st0{fill:#0099A9;}
</style>
<g>
	<path class="st0" d="M46.8,20.3c0.3,0,0.5,0,0.7,0c6.2,0,12.4,0,18.6,0c2.4,0,3.7,1.3,3.7,3.7c0,11.8,0,23.7,0,35.5
		c0,2.3-1.3,3.7-3.7,3.7c-17,0-33.9,0-50.9,0c-1.9,0-3.2-0.8-3.6-2.4c-0.1-0.4-0.1-0.8-0.1-1.2c0-11.9,0-23.8,0-35.7
		c0-2.3,1.4-3.6,3.6-3.6c6.2,0,12.4,0,18.6,0c0.2,0,0.5,0,0.8,0c0-0.2,0-0.5,0-0.7c0-2.4,0-4.8,0-7.2c0.1-4.6,4.8-7.6,8.9-5.6
		c2.2,1.1,3.3,3,3.4,5.4c0.1,2.4,0,4.9,0,7.3C46.8,19.8,46.8,20,46.8,20.3z M34.5,22.1c-0.3,0-0.5,0-0.7,0c-6.2,0-12.4,0-18.6,0
		c-1.4,0-1.9,0.5-1.9,1.9c0,11.8,0,23.7,0,35.5c0,1.4,0.5,1.9,1.9,1.9c3.2,0,6.3,0,9.5,0c13.8,0,27.6,0,41.4,0
		c1.4,0,1.9-0.5,1.9-1.9c0-11.8,0-23.7,0-35.5c0-1.3-0.6-1.8-1.9-1.8c-6.2,0-12.5,0-18.7,0c-0.2,0-0.5,0-0.7,0c0,1.2,0,2.3,0,3.4
		c0,0.9-0.3,1.2-1.2,1.2c-3.3,0-6.7,0-10,0c-0.9,0-1.2-0.3-1.2-1.2C34.5,24.4,34.5,23.3,34.5,22.1z M45,25c0-0.1,0.1-0.1,0.1-0.2
		c0-4.2,0-8.4,0-12.6c0-2.8-2.7-4.7-5.4-4c-2,0.5-3.3,2.2-3.3,4.5c0,3.9,0,7.8,0,11.7c0,0.2,0,0.4,0,0.6C39.3,25,42.1,25,45,25z"/>
	<path class="st0" d="M40.7,58.8c-7.3,0-14.6,0-21.9,0c-1.2,0-1.4-0.2-1.4-1.4c0-2.4,0-4.7,0-7.1c0-1,0.2-1.2,1.2-1.2
		c14.7,0,29.5,0,44.2,0c1,0,1.3,0.3,1.3,1.3c0,2.4,0,4.8,0,7.2c0,1-0.2,1.3-1.3,1.3C55.4,58.8,48.1,58.8,40.7,58.8z M19.2,57
		c14.4,0,28.7,0,43.1,0c0-2.1,0-4.1,0-6.1c-14.4,0-28.7,0-43.1,0c0,1.9,0,3.8,0,5.7C19.2,56.7,19.2,56.8,19.2,57z"/>
	<path class="st0" d="M28.3,36.2c0.9,0.1,1.8,0,2.6,0.2c3,0.5,5.2,3.1,5.4,6.1c0,0.8,0,1.5,0,2.3c0,1-0.2,1.2-1.2,1.2
		c-4,0-8.1,0-12.1,0c-1.8,0-3.5,0-5.3,0c-1,0-1.2-0.2-1.2-1.2c0-1.1,0-2.2,0.1-3.2c0.5-3,3.1-5.2,6.2-5.3c0.5,0,1.1,0,1.6,0
		c-1.8-0.7-3.1-1.9-3.8-3.7c-0.5-1.3-0.5-2.6-0.1-3.9c0.9-2.6,3.4-4.4,6.1-4.2c2.8,0.2,5.1,2.2,5.7,4.8
		C32.9,31.8,31.6,34.9,28.3,36.2z M34.5,44.2c0-0.6,0-1.1,0-1.6c-0.1-2.5-2.1-4.5-4.6-4.5c-2.4,0-4.8-0.1-7.2,0
		c-0.8,0-1.6,0.3-2.2,0.6c-1.9,1-2.7,3-2.4,5.5C23.6,44.2,29,44.2,34.5,44.2z M30.6,30.5c0-2.4-1.9-4.4-4.3-4.4C24,26,22,28,22,30.4
		c0,2.4,1.9,4.4,4.3,4.4C28.7,34.8,30.6,32.9,30.6,30.5z"/>
	<path class="st0" d="M52,39.1c-3.7,0-7.3,0-11,0c-0.8,0-1.2-0.3-1.1-1c0-0.5,0.3-0.8,1-0.8c1.8,0,3.5,0,5.3,0c5.5,0,11.1,0,16.6,0
		c0.2,0,0.4,0,0.6,0c0.5,0.1,0.7,0.4,0.7,0.9c0,0.4-0.2,0.7-0.7,0.8c-0.2,0-0.4,0-0.6,0C59.2,39.1,55.6,39.1,52,39.1z"/>
	<path class="st0" d="M52,43.7c3.6,0,7.2,0,10.7,0c0.2,0,0.4,0,0.5,0c0.5,0.1,0.8,0.5,0.8,0.9c0,0.5-0.3,0.8-0.8,0.8
		c-0.1,0-0.2,0-0.4,0c-7.3,0-14.6,0-21.8,0c-0.1,0-0.3,0-0.4,0c-0.5-0.1-0.8-0.4-0.8-0.9c0-0.5,0.3-0.8,0.8-0.9c0.4,0,0.9,0,1.3,0
		C45.3,43.7,48.7,43.7,52,43.7z"/>
	<path class="st0" d="M52,31c3.6,0,7.2,0,10.7,0c0.2,0,0.5,0,0.7,0.1c0.5,0.1,0.7,0.5,0.6,0.9c0,0.4-0.3,0.7-0.7,0.8
		c-0.2,0-0.4,0-0.6,0c-7.2,0-14.3,0-21.5,0c-0.2,0-0.4,0-0.6,0c-0.5-0.1-0.7-0.4-0.7-0.8c0-0.4,0.2-0.8,0.6-0.9
		c0.2,0,0.5-0.1,0.7-0.1C44.8,31,48.4,31,52,31z"/>
	<path class="st0" d="M40.7,9.5c1.8,0,3.2,1.4,3.2,3.2c0,1.8-1.4,3.2-3.1,3.2c-1.8,0-3.2-1.4-3.2-3.2C37.6,10.9,39,9.5,40.7,9.5z
		 M40.8,11.2c-0.8,0-1.4,0.6-1.4,1.4c0,0.8,0.6,1.4,1.4,1.4c0.8,0,1.4-0.6,1.4-1.4C42.2,11.9,41.6,11.2,40.8,11.2z"/>
	<path class="st0" d="M24.5,53c0.6,0,1.2,0,1.8,0c0.6,0,0.9,0.3,0.9,0.8c0,0.5-0.3,0.9-0.9,0.9c-1.2,0-2.4,0-3.6,0
		c-0.6,0-0.9-0.4-0.9-0.9c0-0.5,0.4-0.8,1-0.9C23.3,53,23.9,53,24.5,53z"/>
	<path class="st0" d="M48.8,53c0.6,0,1.2,0,1.8,0c0.6,0,0.9,0.3,0.9,0.9c0,0.5-0.3,0.9-0.9,0.9c-1.2,0-2.5,0-3.7,0
		c-0.6,0-0.9-0.4-0.9-0.9c0-0.5,0.3-0.9,0.9-0.9C47.5,53,48.2,53,48.8,53z"/>
	<path class="st0" d="M40.6,53c0.6,0,1.2,0,1.8,0c0.6,0,1,0.3,1,0.9c0,0.5-0.3,0.9-0.9,0.9c-1.2,0-2.5,0-3.7,0
		c-0.6,0-0.9-0.4-0.9-0.9c0-0.5,0.3-0.9,0.9-0.9C39.4,53,40,53.1,40.6,53z"/>
	<path class="st0" d="M56.7,54.8c-0.6,0-1.2,0-1.8,0c-0.6,0-0.9-0.4-0.9-0.9c0-0.5,0.3-0.9,1-0.9c1.2,0,2.4,0,3.6,0
		c0.6,0,0.9,0.3,0.9,0.9c0,0.5-0.3,0.9-1,0.9C57.9,54.8,57.3,54.8,56.7,54.8z"/>
	<path class="st0" d="M32.6,53c0.6,0,1.2,0,1.8,0c0.6,0,0.9,0.3,0.9,0.8c0,0.6-0.3,0.9-0.9,0.9c-1.2,0-2.4,0-3.6,0
		c-0.6,0-1-0.4-1-0.9c0-0.5,0.3-0.8,1-0.8C31.4,53,32,53,32.6,53z"/>
</g>
</svg>
