<?xml version="1.0" encoding="utf-8"?>
<!-- Generator: Adobe Illustrator 16.0.0, SVG Export Plug-In . SVG Version: 6.00 Build 0)  -->
<!DOCTYPE svg PUBLIC "-//W3C//DTD SVG 1.1//EN" "http://www.w3.org/Graphics/SVG/1.1/DTD/svg11.dtd">
<svg version="1.1" id="Layer_1" xmlns="http://www.w3.org/2000/svg" xmlns:xlink="http://www.w3.org/1999/xlink" x="0px" y="0px"
	 width="80px" height="70px" viewBox="20 12.5 80 70" enable-background="new 20 12.5 80 70" xml:space="preserve">
<g>
	<path fill-rule="evenodd" clip-rule="evenodd" fill="#3B4551" d="M41.239,76.256c-0.563-0.328-1.2-0.159-1.799-0.25
		c-2.499-0.379-3.461-1.377-3.732-3.887c-0.164-1.521-0.17-3.044-0.172-4.566c-0.012-8.574-0.027-17.147,0.01-25.721
		c0.009-2.1-0.148-4.208,0.153-6.301c0.296-2.056,1.304-3.044,3.369-3.334c0.679-0.096,1.357-0.138,2.042-0.138
		c17.331,0.002,34.662,0.002,51.994,0c1.116,0,2.206,0.122,3.207,0.65c1.001,0.529,1.648,1.359,1.944,2.457
		c-0.012,0.235-0.034,0.472-0.034,0.707c-0.002,12.186-0.002,24.373,0,36.559c0,0.184,0.017,0.366,0.025,0.55
		c-0.552,1.773-1.794,2.765-3.596,2.959c-2.457,0.266-4.933,0.078-7.398,0.104c-1.539,0.018-2.351-0.793-2.796-2.307
		c-0.722-2.45-2.479-3.459-5.008-2.876c-1.357,0.311-2.214,1.127-2.541,2.489c-0.499,2.063-1.316,2.721-3.417,2.716
		c-2.339-0.006-4.678-0.048-7.018-0.048c-2.472,0.001-4.942,0.054-7.412,0.044c-1.793-0.007-2.592-0.672-3.005-2.382
		c-0.472-1.951-1.625-2.912-3.54-2.951c-2.106-0.043-3.46,0.916-3.997,2.834c-0.519,1.855-1.188,2.399-3.105,2.503
		c-0.446,0.025-0.896-0.007-1.34,0.038c-0.367,0.037-0.774-0.183-1.101,0.15C42.397,76.256,41.818,76.256,41.239,76.256z
		 M66.624,35.191c-8.679,0-17.358,0-26.037,0c-1.679,0-2.214,0.535-2.214,2.215c-0.001,11.1-0.001,22.201,0.001,33.3
		c0,0.445-0.021,0.891,0.146,1.323c0.168,0.436,0.446,0.699,0.924,0.725c1.128,0.063,2.255,0.142,3.384,0.182
		c1.668,0.059,2.934-0.663,3.835-2.053c0.157-0.243,0.311-0.487,0.485-0.717c2.716-3.558,7.871-3.771,10.19-0.015
		c1.212,1.963,3.137,2.782,5.428,2.792c2.364,0.009,4.733-0.249,7.092-0.015c2.385,0.237,4.233-0.495,5.46-2.609
		c0.092-0.158,0.22-0.297,0.345-0.432c1.616-1.732,3.556-2.654,5.973-2.347c1.725,0.22,3.033,1.115,3.99,2.535
		c0.971,1.438,2.237,2.418,3.982,2.701c1.12,0.182,2.249,0.218,3.381,0.161c1.714-0.085,2.452-0.833,2.553-2.556
		c0.017-0.288,0.023-0.578,0.021-0.867c-0.033-3.602-0.099-7.203-0.098-10.805c0.003-6.232,0.047-12.465,0.072-18.698
		c0.004-0.841,0.044-1.685-0.013-2.522c-0.098-1.435-0.876-2.185-2.317-2.28c-0.599-0.04-1.203-0.02-1.806-0.02
		C83.142,35.191,74.884,35.191,66.624,35.191z"/>
	<path fill-rule="evenodd" clip-rule="evenodd" fill="#3B4551" d="M80.699,18.328c0.071,0.212,0.255,0.127,0.396,0.15
		c1.833,0.288,3.335,1.73,3.682,3.538c0.185,0.969-0.248,1.695-1.158,1.942c-0.754,0.205-1.313-0.126-1.653-1.047
		c-0.396-1.067-1.184-1.462-2.267-1.456c-3.234,0.017-6.47,0.026-9.705,0.028c-8.68,0.003-17.359,0.004-26.04,0
		c-4.682-0.002-9.363-0.008-14.045-0.032c-0.998-0.005-1.993-0.081-2.99,0.03c-1.371,0.152-2.07,0.818-2.287,2.177
		c-0.183,1.152-0.056,2.307-0.051,3.46c0.027,5.917,0.051,11.834,0.054,17.751c0.002,3.84-0.018,7.68-0.057,11.519
		c-0.015,1.475,0.295,2.683,1.858,3.282c0.706,0.271,0.868,0.92,0.611,1.654c-0.257,0.735-0.824,1.121-1.582,0.989
		c-1.537-0.268-2.753-0.988-3.366-2.515c-0.061-0.153-0.039-0.384-0.276-0.435c0-11.312,0-22.623,0-33.936
		c0.253-1.157,0.263-2.314,0-3.473c0-0.158,0-0.315,0-0.473c0.214-0.033,0.187-0.229,0.223-0.362c0.39-1.405,1.371-2.143,2.729-2.5
		c0.331-0.087,0.725,0.006,0.994-0.294C44.081,18.328,62.391,18.328,80.699,18.328z"/>
	<path fill-rule="evenodd" clip-rule="evenodd" fill="#3B4551" d="M98.378,72.941l-0.054,0.058l-0.076-0.018
		c-0.009-0.184-0.025-0.366-0.025-0.55c-0.002-12.187-0.002-24.373,0-36.559c0-0.235,0.022-0.472,0.034-0.707
		c0.04,0.017,0.08,0.035,0.121,0.051C98.378,47.791,98.378,60.366,98.378,72.941z"/>
	<path fill-rule="evenodd" clip-rule="evenodd" fill="#3B4551" d="M21.825,21.958c0.263,1.158,0.253,2.315,0,3.473
		C21.825,24.273,21.825,23.116,21.825,21.958z"/>
	<path fill-rule="evenodd" clip-rule="evenodd" fill="#3B4551" d="M59.865,25.353c8.838,0,17.678,0,26.517,0
		c0.71,0,1.414,0.05,2.107,0.224c1.761,0.439,2.685,1.644,3.046,3.342c0.162,0.758-0.325,1.481-1.074,1.702
		c-0.697,0.207-1.229-0.023-1.567-0.813c-0.513-1.197-1.428-1.691-2.671-1.692c-4.944-0.002-9.89-0.001-14.835-0.001
		c-8.075,0-16.151,0.003-24.227-0.001c-4.156-0.002-8.312-0.019-12.468-0.023c-2.518-0.003-3.431,0.877-3.47,3.395
		c-0.019,1.234,0.044,2.47,0.044,3.705c0.004,9.285,0.013,18.571-0.009,27.857c-0.003,1.51,0.306,2.741,1.86,3.384
		c0.63,0.26,0.855,0.853,0.644,1.517c-0.222,0.701-0.714,1.07-1.48,1.05c-1.821-0.049-3.404-1.464-3.666-3.305
		c-0.052-0.364-0.079-0.733-0.08-1.101c-0.022-9.284-0.047-18.569-0.051-27.854c-0.001-2.392,0.053-4.783,0.103-7.174
		c0.055-2.598,1.366-3.977,3.976-4.123c1.468-0.082,2.942-0.083,4.414-0.084C44.608,25.349,52.237,25.353,59.865,25.353z"/>
	<path fill-rule="evenodd" clip-rule="evenodd" fill="#3B4551" d="M44.87,61.915c0.002-0.874,0.096-1.739,0.368-2.565
		c0.338-1.027,1.003-1.734,2.082-2.075c0.996-0.314,1.95-0.763,2.934-1.12c1.512-0.548,2.869-0.313,4.082,0.801
		c1.005,0.924,1.592,0.945,2.608,0.052c1.212-1.067,2.552-1.273,4.031-0.766c1.063,0.366,2.113,0.774,3.164,1.179
		c0.656,0.254,1.068,0.758,1.264,1.418c0.369,1.24,0.59,2.503,0.449,3.806c-0.106,0.971-0.582,1.444-1.5,1.509
		c-0.817,0.057-1.239-0.304-1.469-1.305c-0.165-0.715-0.277-1.441-0.585-2.117c-0.775-1.705-2.155-2.104-3.714-1.052
		c-0.411,0.278-0.774,0.627-1.159,0.945c-1.266,1.049-2.16,1.079-3.459,0.083c-0.625-0.479-1.217-1.001-1.949-1.32
		c-1.258-0.548-2.354-0.268-3.217,0.814c-0.62,0.776-0.947,1.688-1.218,2.622c-0.334,1.153-0.677,1.497-1.453,1.398
		c-0.93-0.117-1.27-0.615-1.259-1.835C44.871,62.23,44.87,62.072,44.87,61.915z"/>
	<path fill-rule="evenodd" clip-rule="evenodd" fill="#3B4551" d="M50.113,47.197c0-0.394-0.043-0.793,0.007-1.18
		c0.354-2.714,1.866-4.087,4.612-4.19c0.68-0.025,1.36-0.03,2.036,0.121c2.029,0.45,3.313,1.683,3.721,3.7
		c0.59,2.907-0.096,5.533-2.104,7.733c-1.976,2.163-4.602,2.004-6.404-0.312C50.747,51.481,50.078,49.42,50.113,47.197z
		 M57.801,47.354c0.038-1.518-0.752-2.527-2.007-2.674c-1.523-0.176-2.493,0.496-2.85,1.951c-0.307,1.251,0.223,2.367,0.571,3.501
		c0.258,0.843,0.846,1.367,1.798,1.371c0.944,0.005,1.512-0.376,1.912-1.332C57.616,49.238,57.67,48.237,57.801,47.354z"/>
	<path fill-rule="evenodd" clip-rule="evenodd" fill="#3B4551" d="M80.029,55.607c-2.336,0-4.672,0.016-7.008-0.006
		c-1.236-0.013-1.878-0.666-1.759-1.711c0.082-0.71,0.475-1.162,1.17-1.301c0.46-0.09,0.938-0.139,1.405-0.139
		c4.124-0.011,8.246-0.009,12.369,0c0.418,0,0.839,0.049,1.25,0.121c0.873,0.154,1.297,0.664,1.295,1.506
		c-0.002,0.812-0.467,1.37-1.323,1.483c-0.622,0.081-1.255,0.093-1.885,0.097c-1.838,0.012-3.676,0.004-5.515,0.004
		C80.029,55.645,80.029,55.626,80.029,55.607z"/>
	<path fill-rule="evenodd" clip-rule="evenodd" fill="#3B4551" d="M79.799,59.547c2.127,0,4.255-0.007,6.382,0.006
		c0.471,0.002,0.946,0.035,1.41,0.112c0.727,0.121,1.106,0.6,1.079,1.313c-0.027,0.697-0.388,1.131-1.089,1.227
		c-0.414,0.057-0.835,0.085-1.254,0.085c-4.202,0.006-8.404,0.005-12.607,0.001c-0.34,0-0.681-0.021-1.019-0.061
		c-0.999-0.118-1.423-0.566-1.398-1.447c0.023-0.84,0.418-1.209,1.483-1.226c1.995-0.03,3.992-0.009,5.988-0.01
		C79.115,59.547,79.457,59.547,79.799,59.547z"/>
	<path fill-rule="evenodd" clip-rule="evenodd" fill="#3B4551" d="M79.842,48.504c-2.419-0.001-4.836,0.01-7.254-0.008
		c-0.855-0.006-1.236-0.359-1.283-1.07c-0.057-0.871,0.361-1.455,1.228-1.524c1.046-0.084,2.101-0.08,3.15-0.082
		c3.63-0.009,7.26-0.008,10.89,0.002c0.391,0.001,0.788,0.049,1.171,0.129c0.631,0.134,0.908,0.584,0.929,1.201
		c0.021,0.63-0.282,1.046-0.88,1.245c-0.383,0.127-0.778,0.107-1.172,0.107C84.36,48.506,82.101,48.504,79.842,48.504z"/>
</g>
</svg>
