<?xml version="1.0" encoding="utf-8"?>
<!-- Generator: Adobe Illustrator 25.3.0, SVG Export Plug-In . SVG Version: 6.00 Build 0)  -->
<svg version="1.1" id="Layer_1" xmlns="http://www.w3.org/2000/svg" xmlns:xlink="http://www.w3.org/1999/xlink" x="0px" y="0px"
	 viewBox="0 0 80 70" style="enable-background:new 0 0 80 70;" xml:space="preserve">
<style type="text/css">
	.st0{fill:#0099A9;}
</style>
<path class="st0" d="M27.6,12.6c0-0.7,0-1.4,0-2c0-1.9,1.3-3.5,3.2-3.7c1.7-0.2,3.4-0.2,5.1,0c1.9,0.2,3.2,1.8,3.2,3.8
	c0,0.6,0,1.2,0,1.9c0.3,0,0.5,0,0.7,0c3.3,0,6.7,0,10,0c2.9,0,4.8,1.9,4.8,4.8c0,1.2,0,2.4,0,3.6c0,0.7,0.2,1.1,0.8,1.5
	c3.2,2.5,6.4,5,9.6,7.5c0.4,0.3,0.7,0.6,1.1,0.9c2,1.6,2.5,3.8,2,6.2c-0.7,3.8-1.3,7.6-1.5,11.4c-0.2,2.7-0.3,5.4-0.4,8.1
	c0,0.2,0,0.3,0,0.5c0.2,0,0.4,0.1,0.6,0.1c0.9,0.2,1.5,0.9,1.5,1.8c0,1.3,0,2.6,0,3.9c0,1.2-0.9,1.9-2.1,1.9c-4.9,0-9.7,0-14.6,0
	c-0.2,0-0.5,0-0.7,0c-1-0.1-1.8-0.8-1.9-1.9c0-1.3,0-2.6,0-3.9c0-0.9,0.6-1.5,1.4-1.8c0.2,0,0.3-0.1,0.5-0.1c0-0.4,0-0.8,0-1.2
	c0-0.2-0.1-0.4-0.3-0.5c-3-1.9-3.8-4.8-3.5-8.2c0-0.3,0.1-0.8,0-0.9c-0.4-0.4-1-0.8-1.5-0.8c-1.4-0.1-2.8,0-4.2,0
	c-8.2,0-16.3,0-24.5,0c-3,0-4.9-1.8-4.9-4.8c0-7.7,0-15.5,0-23.2c0-3.1,1.8-4.9,4.9-4.9c3.3,0,6.6,0,9.9,0
	C27.1,12.6,27.3,12.6,27.6,12.6z M27.6,14.5c-0.2,0-0.4,0-0.5,0c-3.5,0-7,0-10.4,0c-1.5,0-2.6,1.1-2.6,2.6c0,8,0,15.9,0,23.9
	c0,1.5,1.1,2.6,2.6,2.6c8.7,0,17.4,0,26.1,0c0.2,0,0.3,0,0.6-0.1c-0.8-0.6-1.5-1.1-2.2-1.6c-1.4-1.1-2.1-2.5-1.8-4.2
	c0.5-3.5,4.2-5,7.1-2.9c1.8,1.3,3.6,2.6,5.5,3.9c0.3,0.2,0.6,0.3,0.9,0.5c0-0.3,0-0.4,0-0.6c0-7.2,0-14.4,0-21.7
	c0-1.5-1.1-2.6-2.7-2.6c-3.5,0-6.9,0-10.4,0c-0.2,0-0.4,0-0.6,0c0,0.7,0,1.3,0,2c0.3,0,0.6,0,0.9,0c0.6,0,0.9,0.4,0.9,0.9
	c0,0.5-0.4,0.9-0.9,1c-0.2,0-0.4,0-0.5,0c-3.6,0-7.3,0-10.9,0c-0.7,0-1.4,0-2.1,0c-0.6,0-1-0.4-1-0.9c0-0.5,0.4-0.9,1-1
	c0.3,0,0.6,0,0.9,0C27.6,15.8,27.6,15.1,27.6,14.5z M54.7,24.3c0,2.1,0,4.1,0,6c0,0.2,0.2,0.4,0.3,0.5c0.7,0.5,1.5,1,2.1,1.6
	c2.6,2.1,2.4,6.1-0.3,8.1c-1.8,1.3-4.2,1.2-6.2-0.2c-1.8-1.3-3.6-2.6-5.4-3.9c-0.7-0.5-1.4-0.7-2.3-0.5c-1,0.3-1.7,0.9-1.9,2
	c-0.2,1.1,0.2,2,1.1,2.6c2.1,1.5,4.2,3.1,6.4,4.6c0.6,0.4,0.7,0.8,0.5,1.5c-0.9,3.5,0.2,6.4,3.2,7.8c0.2,0.1,0.3,0.4,0.3,0.6
	c0,0.7,0,1.5,0,2.2c3.9,0,7.7,0,11.5,0c0-0.2,0-0.4,0.1-0.6c0.1-2,0.1-3.9,0.2-5.9c0.3-4.6,0.8-9.2,1.7-13.7c0.4-2,0-3.6-1.6-4.9
	c-2.7-2.1-5.4-4.3-8.2-6.5C55.9,25.2,55.4,24.8,54.7,24.3z M58.6,63c2.3,0,4.6,0,6.8,0c0.7,0,0.9-0.2,0.9-0.9c0-0.7,0-1.4,0-2.1
	c0-0.6-0.2-0.9-0.8-0.9c-4.6,0-9.3,0-13.9,0c-0.5,0-0.8,0.3-0.8,0.8c0,0.7,0,1.4,0,2.1c0,0.8,0.2,1,1,1C54.1,63,56.4,63,58.6,63z
	 M37.3,16.4c0-2,0-3.9,0-5.8c0-1.2-0.8-2-2-2c-1.3,0-2.5,0-3.8,0c-1.2,0-2,0.8-2,2.1c0,1.5,0,3,0,4.5c0,0.4,0,0.8,0,1.2
	C32.1,16.4,34.7,16.4,37.3,16.4z M54.8,33c0,2.2,0,4.3,0,6.4c1.2-0.2,2.2-1.2,2.4-2.6C57.4,35.3,56.6,33.9,54.8,33z"/>
<path class="st0" d="M21,25.4c0-0.7-0.1-1.4,0-2c0.2-1.2,0.8-1.8,2-2c0.3,0,0.6,0,0.8-0.1c0.2,0,0.4-0.2,0.4-0.3
	c0.2-0.5,0.5-0.7,1-0.7c1.5,0.1,2.8,0.5,3.9,1.5c1.1,1,1.2,2.2,0.9,3.6c0.6,0.1,0.9,0.5,0.8,1.1c-0.1,0.7-0.1,1.5-1,1.8
	c-0.2,0.1-0.3,0.2-0.4,0.4c-0.2,0.3-0.4,0.7-0.6,1c-0.3,0.4-0.4,0.8-0.4,1.3c-0.1,1,0.4,1.6,1.2,1.9c0.9,0.4,1.8,0.7,2.7,1
	c2.1,0.7,2.9,1.8,2.9,4c0,0.5,0,1,0,1.5c0,1.5-0.7,2.2-2.2,2.2c-4.6,0-9.1,0-13.7,0c-0.4,0-0.9,0-1.3,0c-1.3,0-2.1-0.8-2.1-2.1
	c0-0.6,0-1.3,0-1.9c0-1.8,0.8-2.9,2.4-3.5c0.5-0.2,1-0.3,1.6-0.5c0.6-0.2,1.2-0.4,1.7-0.7c1.3-0.7,1.5-2,0.6-3.1
	c-0.2-0.2-0.4-0.4-0.5-0.7c-0.2-0.4-0.3-0.6-0.8-0.7c-0.6-0.2-1.1-1.9-0.7-2.4C20.5,25.7,20.8,25.6,21,25.4z M28.5,26.1
	c0-0.3,0.1-0.5,0.1-0.8c0.2-1.7-0.9-3.1-2.6-3.2c-0.1,0-0.4,0-0.4,0.1c-0.3,0.7-1,0.5-1.5,0.6c-1,0.1-1.4,0.5-1.5,1.4
	c0,0.4,0,0.7,0,1.1c0,0.3,0,0.5,0,0.8c0,0-0.1-0.1-0.1-0.1c-0.3,0.2-0.6,0.3-0.7,0.5c-0.2,0.5,0.2,1,0.8,1.1c0.2,0,0.5,0.2,0.6,0.4
	c0.5,0.8,1.1,1.4,1.9,1.8c0.3,0.1,0.9,0.2,1.1,0c0.7-0.5,1.3-1.2,1.9-1.8c0.1-0.1,0.3-0.3,0.5-0.3c0.7,0,0.8-0.5,0.8-1
	C29.5,26.1,28.9,26.3,28.5,26.1z M21.2,39.8C21.2,39.8,21.2,39.8,21.2,39.8c0.9,0,1.8,0,2.7,0c0.4,0,0.5-0.1,0.6-0.5
	c0.1-0.7,0.3-1.5,0.3-2.2c0-0.2,0-0.5-0.2-0.7c-0.5-0.6-1-1.2-1.5-1.7c-0.1-0.1-0.3-0.2-0.4-0.2c-1.3,0.5-2.5,0.9-3.8,1.5
	c-0.7,0.3-1.1,0.8-1,1.6c0,0.6,0,1.1,0,1.7c0,0.5,0.2,0.6,0.6,0.6C19.4,39.8,20.3,39.8,21.2,39.8z M30.1,39.7
	C30.1,39.7,30.1,39.7,30.1,39.7c0.5,0,0.9,0,1.4,0c0.5,0,0.9,0,1.4,0c0.4,0,0.6-0.2,0.6-0.6c0-0.4,0-0.9,0-1.3
	c0-1.4-0.3-1.7-1.6-2.2c-1-0.4-2.1-0.8-3.1-1.2c-0.2-0.1-0.5,0-0.6,0.2c-0.5,0.5-1,1.1-1.4,1.6c-0.1,0.2-0.2,0.5-0.2,0.8
	c0.1,0.7,0.2,1.5,0.3,2.2c0.1,0.4,0.2,0.5,0.6,0.5C28.3,39.7,29.2,39.7,30.1,39.7z M24.6,31.8c-0.1,0.2-0.1,0.5-0.2,0.8
	c-0.3,0.8,0.1,1.4,0.9,1.3c0.3,0,0.6,0,0.8,0c0.3,0,1-0.6,0.9-0.9c-0.1-0.5-0.3-0.9-0.5-1.3C25.9,31.8,25.3,31.8,24.6,31.8z"/>
<path class="st0" d="M42.2,22.3c1.9,0,3.7,0,5.6,0c0.7,0,1.1,0.3,1.1,0.9c0.1,0.6-0.4,1-1.2,1c-2.1,0-4.2,0-6.4,0
	c-1.6,0-3.2,0-4.8,0c-0.8,0-1.2-0.4-1.2-1c0-0.6,0.5-0.9,1.2-0.9C38.4,22.3,40.3,22.3,42.2,22.3z"/>
<path class="st0" d="M42.1,28c-1.8,0-3.6,0-5.5,0c-0.8,0-1.3-0.4-1.3-1c0-0.6,0.5-0.9,1.2-0.9c3.7,0,7.3,0,11,0c0.1,0,0.1,0,0.2,0
	c0.6,0,1.1,0.4,1.1,0.9c0,0.5-0.4,1-1.1,1C45.9,28,44,28,42.1,28z"/>
<path class="st0" d="M40.2,30c1.2,0,2.4,0,3.6,0c0.7,0,1.2,0.4,1.2,0.9c0,0.6-0.5,1-1.2,1c-2.4,0-4.8,0-7.2,0c-0.8,0-1.2-0.4-1.2-1
	c0-0.6,0.5-0.9,1.2-0.9C37.8,30,39,30,40.2,30z"/>
<path class="st0" d="M35.3,12.6c0,1-0.9,1.9-2,1.9c-1,0-1.9-0.9-1.9-1.9c0-1,0.9-1.9,2-1.9C34.5,10.7,35.3,11.5,35.3,12.6z"/>
</svg>
