<?xml version="1.0" encoding="utf-8"?>
<!-- Generator: Adobe Illustrator 16.0.0, SVG Export Plug-In . SVG Version: 6.00 Build 0)  -->
<!DOCTYPE svg PUBLIC "-//W3C//DTD SVG 1.1//EN" "http://www.w3.org/Graphics/SVG/1.1/DTD/svg11.dtd">
<svg version="1.1" id="Layer_1" xmlns="http://www.w3.org/2000/svg" xmlns:xlink="http://www.w3.org/1999/xlink" x="0px" y="0px"
	 width="100px" height="100px" viewBox="0 0 100 100" enable-background="new 0 0 100 100" xml:space="preserve">
<title></title>
<g>
	<path fill="#D6D6D6" d="M31.995,1.997H7.994c-3.312-0.002-5.999,2.682-6,5.994c0,0.002,0,0.005,0,0.007v24.001c0,3.313,2.687,6,6,6
		s6-2.688,6-6V13.998h18.001c3.313,0,6-2.688,6-6C37.995,4.684,35.308,1.997,31.995,1.997z"/>
	<path fill="#D6D6D6" d="M92,1.997H67.998c-3.313,0-6.001,2.688-6.001,6s2.688,6,6.001,6h18.001v18.001c0,3.313,2.688,6,6.001,6
		s6-2.687,6-6V7.997c0.001-3.313-2.682-5.999-5.993-6C92.003,1.997,92.002,1.997,92,1.997z"/>
	<path fill="#D6D6D6" d="M31.995,86.002H13.994v-18c0-3.314-2.688-6.002-6-6.002c-3.313,0-6,2.688-6,6.002v24.002
		c-0.002,3.313,2.681,5.998,5.994,6c0.002,0,0.005,0,0.007,0h24.001c3.313,0,6-2.688,6-6C37.995,88.688,35.308,86.002,31.995,86.002
		z"/>
	<path fill="#D6D6D6" d="M92,62c-3.313,0-6,2.682-6.001,5.994c0,0.004,0,0.004,0,0.008v18H67.998c-3.313,0-6.001,2.688-6.001,6.002
		c0,3.313,2.688,6,6.001,6H92c3.313,0,5.999-2.682,6-5.994c0-0.004,0-0.004,0-0.006V68.002c0.001-3.314-2.682-6-5.993-6.002
		C92.003,62,92.002,62,92,62z"/>
</g>
</svg>
