<svg width="898" height="350" viewBox="0 0 898 350" fill="none" xmlns="http://www.w3.org/2000/svg">
<g clip-path="url(#clip0_132_2)">
<mask id="mask0_132_2" style="mask-type:luminance" maskUnits="userSpaceOnUse" x="-7" y="54" width="901" height="252">
<path d="M893.556 54.3024H-6.89319V305.075H893.556V54.3024Z" fill="white"/>
</mask>
<g mask="url(#mask0_132_2)">
<path d="M-5.14368 303.325V159.553C5.68158 159.553 14.9604 100.208 25.7856 100.208C36.6109 100.208 45.8897 186.047 56.715 186.047C67.5402 186.047 76.819 253.164 87.6443 253.164C98.4695 253.164 107.748 180.748 118.574 180.748C129.399 180.748 138.678 88.9039 149.503 88.9039C160.328 88.9039 169.607 198.058 180.432 198.058C191.257 198.058 200.536 250.691 211.362 250.691C222.187 250.691 231.466 261.289 242.291 261.289C253.116 261.289 262.395 163.086 273.22 163.086C284.045 163.086 293.324 75.4804 304.15 75.4804C314.975 75.4804 324.254 77.2467 335.079 77.2467C345.904 77.2467 355.183 144.011 366.008 144.011C376.833 144.011 386.112 185.341 396.937 185.341C407.763 185.341 417.042 81.4857 427.867 81.4857C438.692 81.4857 447.971 128.821 458.796 128.821C469.621 128.821 478.9 177.922 489.725 177.922C500.551 177.922 509.829 162.733 520.655 162.733C531.48 162.733 540.759 181.102 551.584 181.102C562.409 181.102 571.688 177.569 582.513 177.569C593.339 177.569 602.617 211.834 613.443 211.834C624.268 211.834 633.547 128.821 644.372 128.821C655.197 128.821 664.476 246.806 675.301 246.806C686.127 246.806 695.405 196.291 706.231 196.291C717.056 196.291 726.335 154.961 737.16 154.961C747.985 154.961 757.264 149.663 768.089 149.663C778.915 149.663 788.193 75.1272 799.019 75.1272C809.844 75.1272 819.123 209.715 829.948 209.715C840.773 209.715 850.052 125.995 860.877 125.995C871.703 125.995 880.981 156.021 891.807 156.021C891.807 156.021 891.807 156.021 891.807 303.325" fill="url(#paint0_linear_132_2)"/>
</g>
<mask id="mask1_132_2" style="mask-type:luminance" maskUnits="userSpaceOnUse" x="-7" y="54" width="901" height="252">
<path d="M893.556 54.3024H-6.89319V305.075H893.556V54.3024Z" fill="white"/>
</mask>
<g mask="url(#mask1_132_2)">
<path d="M-5.14368 159.553C5.68158 159.553 14.9604 100.208 25.7856 100.208C36.6109 100.208 45.8897 186.047 56.715 186.047C67.5402 186.047 76.819 253.164 87.6443 253.164C98.4695 253.164 107.748 180.748 118.574 180.748C129.399 180.748 138.678 88.9039 149.503 88.9039C160.328 88.9039 169.607 198.058 180.432 198.058C191.257 198.058 200.536 250.691 211.362 250.691C222.187 250.691 231.466 261.289 242.291 261.289C253.116 261.289 262.395 163.086 273.22 163.086C284.045 163.086 293.324 75.4804 304.15 75.4804C314.975 75.4804 324.254 77.2467 335.079 77.2467C345.904 77.2467 355.183 144.011 366.008 144.011C376.833 144.011 386.112 185.341 396.937 185.341C407.763 185.341 417.042 81.4857 427.867 81.4857C438.692 81.4857 447.971 128.821 458.796 128.821C469.621 128.821 478.9 177.922 489.725 177.922C500.551 177.922 509.829 162.733 520.655 162.733C531.48 162.733 540.759 181.102 551.584 181.102C562.409 181.102 571.688 177.569 582.513 177.569C593.339 177.569 602.617 211.834 613.443 211.834C624.268 211.834 633.547 128.821 644.372 128.821C655.197 128.821 664.476 246.806 675.301 246.806C686.127 246.806 695.405 196.291 706.231 196.291C717.056 196.291 726.335 154.961 737.16 154.961C747.985 154.961 757.264 149.663 768.089 149.663C778.915 149.663 788.193 75.1272 799.019 75.1272C809.844 75.1272 819.123 209.715 829.948 209.715C840.773 209.715 850.052 125.995 860.877 125.995C871.703 125.995 880.981 156.021 891.807 156.021" stroke="#02FFFD" stroke-width="3.49916"/>
</g>
</g>
<defs>
<linearGradient id="paint0_linear_132_2" x1="-5.14368" y1="75.1272" x2="-5.14368" y2="303.325" gradientUnits="userSpaceOnUse">
<stop stop-color="#9CFDFE"/>
<stop offset="1" stop-color="#9CFDFF" stop-opacity="0"/>
</linearGradient>
<clipPath id="clip0_132_2">
<rect width="896.95" height="349.916" fill="white" transform="translate(0.688232 0.0654297)"/>
</clipPath>
</defs>
</svg>
