<svg width="126" height="50" viewBox="0 0 126 50" fill="none" xmlns="http://www.w3.org/2000/svg">
<mask id="mask0_70_744" style="mask-type:alpha" maskUnits="userSpaceOnUse" x="0" y="0" width="126" height="50">
<rect width="126" height="50" fill="url(#paint0_linear_70_744)"/>
</mask>
<g mask="url(#mask0_70_744)">
<path d="M12.713 24.8696C7.96682 26.274 2.26009 26.0399 0 25.7474V48.2752H63H126V10.0949C113.57 -6.0549 100.292 0.732704 95.2063 6.14523L86.4485 15.0686C82.5875 19.3596 70.6843 26.508 53.9597 20.7737C37.235 15.0393 27.9686 17.3116 25.426 19.1646C23.1659 20.4811 17.4592 23.4653 12.713 24.8696Z" fill="url(#paint1_linear_70_744)" fill-opacity="0.5"/>
<path d="M1.33594 25.6655C3.54743 25.9571 9.13143 26.1904 13.7756 24.7905C18.4197 23.3907 24.0037 20.416 26.2152 19.1036C28.7031 17.2566 37.7702 14.9915 54.1352 20.7076C70.5002 26.4237 82.1474 19.298 85.9254 15.0207L94.4949 6.12569C99.4707 0.730374 112.463 -6.03564 124.626 10.0628" stroke="url(#paint2_linear_70_744)" stroke-width="0.847756" stroke-linecap="round"/>
</g>
<defs>
<linearGradient id="paint0_linear_70_744" x1="82.586" y1="25" x2="-1.32135" y2="25" gradientUnits="userSpaceOnUse">
<stop stop-color="#D9D9D9"/>
<stop offset="0.928839" stop-color="#D9D9D9" stop-opacity="0"/>
</linearGradient>
<linearGradient id="paint1_linear_70_744" x1="50.8065" y1="-35.6817" x2="51.6112" y2="57.3071" gradientUnits="userSpaceOnUse">
<stop offset="0.600872" stop-color="#E4B36F"/>
<stop offset="0.899838" stop-color="#DAAA69" stop-opacity="0"/>
</linearGradient>
<linearGradient id="paint2_linear_70_744" x1="-34.3343" y1="25.8867" x2="120.747" y2="4.31782" gradientUnits="userSpaceOnUse">
<stop stop-color="#A3743C"/>
<stop offset="0.492708" stop-color="#FAC579" stop-opacity="0.9"/>
<stop offset="1" stop-color="#A3743C"/>
</linearGradient>
</defs>
</svg>
