<?xml version="1.0" encoding="utf-8"?>
<!-- Generator: Adobe Illustrator 25.3.0, SVG Export Plug-In . SVG Version: 6.00 Build 0)  -->
<svg version="1.1" id="Layer_1" xmlns="http://www.w3.org/2000/svg" xmlns:xlink="http://www.w3.org/1999/xlink" x="0px" y="0px"
	 viewBox="0 0 350 350" style="enable-background:new 0 0 350 350;" xml:space="preserve">
<style type="text/css">
	.st0{fill:#f8be49;}
</style>
<g>
	<path class="st0" d="M126.4,331.1c-8.7,1.1-19.2,2.5-29.8,3.9c-9,1.2-18,2.6-27,3.7c-10.9,1.3-20.6-5.5-22.2-16.4
		c-2.8-18.1-5.1-36.2-7.5-54.4c-4.1-30-8.1-60.1-12.2-90.1c-3.8-28-7.5-55.9-11.3-83.9c-1.8-13.2-3.5-26.3-5.3-39.5
		c-1.6-11.7,5.4-21.5,17.2-23.2c25.5-3.6,51-6.9,76.4-10.3c28-3.8,55.9-7.5,83.9-11.3c10.9-1.5,21.9-3.1,32.8-4.4
		c11.1-1.3,20.9,6.5,22.1,18.1c0.5,4.8,2.4,5.8,6.8,6.1c23.6,1.5,47.1,3.2,70.7,5.1c11,0.9,19,10.9,18.1,21.8
		c-2.5,33.2-4.9,66.4-7.4,99.6c-2.7,35.7-5.4,71.4-8.1,107.1c-1.5,20.4-3,40.7-4.4,61.1c-0.8,12.1-9.9,20.7-22,19.8
		c-31.8-2.2-63.6-4.8-95.4-7.1C177.3,334.8,152.8,333.1,126.4,331.1z M68.2,322.3c0.8-0.1,1.7-0.2,2.5-0.3
		c33.5-4.6,66.9-9.3,100.4-13.9c29.2-4,58.3-7.9,87.5-11.8c3.6-0.5,4.9-2.2,4.4-5.6c-1.8-12.9-3.5-25.7-5.3-38.6
		c-2.7-19.8-5.4-39.5-8.1-59.3c-2.7-19.6-5.3-39.3-7.9-58.9c-2.7-19.8-5.4-39.5-8.1-59.3c-2.2-16.2-4.3-32.4-6.4-48.6
		c-0.5-3.8-2.4-5-6-4.5c-17.2,2.4-34.3,4.7-51.5,7c-25.9,3.5-51.8,7-77.7,10.5c-19.8,2.7-39.6,5.3-59.4,8c-5.7,0.8-6.1,1.6-5.3,7.1
		c0.7,5.1,1.3,10.3,2,15.4c3.7,27.7,7.5,55.4,11.2,83.1c3.8,28.2,7.6,56.5,11.5,84.7c3.6,26.9,7.3,53.7,10.9,80.6
		C63.6,321.1,65.1,322.7,68.2,322.3z M246.9,45.5c0.2,1.9,0.2,3,0.4,4.1c1.6,11.3,3.2,22.7,4.7,34c2.9,21.7,5.7,43.4,8.7,65.1
		c3.2,23.8,6.5,47.5,9.8,71.3c3,22.4,5.9,44.8,9.1,67.2c1.8,13-4.8,23.8-16.3,25.6c-10.8,1.6-21.6,2.9-32.4,4.3
		c-6.8,0.9-13.5,1.9-20.3,2.9c2.3,1.1,4.6,1.3,6.9,1.5c9.8,0.7,19.5,1.5,29.3,2.2c16.7,1.2,33.5,2.4,50.2,3.7
		c3.9,0.3,5.5-1.1,5.8-5.1c1.2-17.1,2.6-34.3,3.9-51.4c2.4-32.2,4.6-64.4,7-96.6c2.9-39.2,5.9-78.3,8.9-117.5c0.3-3.8-1-5.7-5-6
		c-13.9-0.9-27.9-2.1-41.8-3.1C266.4,46.9,256.9,46.2,246.9,45.5z"/>
	<path class="st0" d="M123.1,201.8c-19.6-17.3-16.6-40.8-5.4-53.5c12.4-14,33-16.7,48.3-6.3c13.9,9.4,23,31,8.8,52.7
		c1.1,0.5,2.2,1.1,3.2,1.6c23.3,9.8,35.9,27.5,38.7,52.4c0.6,5.5,1.3,11.3,0.3,16.6c-2.5,13.1-12.7,21.3-26.4,23.1
		c-20.3,2.6-40.7,5.4-61,8.3c-12.5,1.8-26.9-6.8-30.5-19.9c-3.5-12.6-4.8-25.6-1.6-38.5c3.3-13.3,10.4-24.3,21.1-32.9
		C120,204.2,121.4,203.1,123.1,201.8z M111.4,252.8c0.6,4.7,1.2,9.4,1.9,14.1c1.5,10.7,7,14.9,17.6,13.4c19.8-2.7,39.5-5.5,59.3-8.2
		c7.6-1,12.6-7.6,11.6-15.1c-0.5-3.2-1-6.3-1.4-9.5c-2.9-22.8-22-39.8-44.5-39.2C130.4,209,111.7,228.4,111.4,252.8z M165.9,172.5
		c0-11.2-9.2-20.7-20.3-20.9c-11.2-0.1-21,9.6-21,20.7c0,10.7,9.4,20.5,19.8,20.7C156.1,193.2,165.9,183.9,165.9,172.5z"/>
	<path class="st0" d="M56.6,77.1c-0.1-4.3,2.7-7.6,7.3-8.3c16.6-2.3,33.2-4.5,49.8-6.8c25.9-3.5,51.7-7,77.6-10.5
		c2.1-0.3,4.2-0.6,6.2-0.6c4.6-0.1,7.9,2.9,8.4,7.1c0.4,4.4-2,8.1-6.5,8.8c-7.7,1.3-15.5,2.3-23.2,3.3c-28.4,3.9-56.7,7.7-85.1,11.5
		c-8.3,1.1-16.6,2.3-24.9,3.3C60.9,85.7,56.7,82.1,56.6,77.1z"/>
	<path class="st0" d="M160,89.7c5,0,8.5,3.2,8.8,7.6c0.4,4.5-2.9,8.2-8.2,8.9c-8.4,1.2-16.9,2.3-25.3,3.4c-7.5,1-15,1.9-22.4,2.9
		c-5.5,0.7-9.6-2-10.2-6.7c-0.6-5.1,2.3-8.6,7.8-9.4c15.8-2.2,31.5-4.4,47.3-6.5C158.7,89.8,159.5,89.8,160,89.7z"/>
</g>
</svg>
