<?xml version="1.0" encoding="utf-8"?>
<!-- Generator: Adobe Illustrator 16.0.0, SVG Export Plug-In . SVG Version: 6.00 Build 0)  -->
<!DOCTYPE svg PUBLIC "-//W3C//DTD SVG 1.1//EN" "http://www.w3.org/Graphics/SVG/1.1/DTD/svg11.dtd">
<svg version="1.1" id="Isolation_Mode" xmlns="http://www.w3.org/2000/svg" xmlns:xlink="http://www.w3.org/1999/xlink" x="0px"
	 y="0px" width="250px" height="202.667px" viewBox="0 0 250 202.667" enable-background="new 0 0 250 202.667"
	 xml:space="preserve">
<path fill="#1A1A1A" d="M124.601,117.017c-33.608,0-67.216,0.025-100.825-0.016c-9.204-0.012-14.901-3.696-16.624-10.467
	c-2.498-9.813,4.162-17.933,15.164-17.995c23.938-0.136,47.88-0.055,71.82-0.054c43.965,0,87.932,0.007,131.898,0.011
	c0.921,0.001,1.844-0.027,2.762,0.019c8.692,0.427,14.642,6.181,14.694,14.196c0.053,7.959-5.838,13.922-14.615,14.227
	c-8.277,0.286-16.57,0.104-24.857,0.105c-26.473,0.006-52.944,0.002-79.417,0.002C124.601,117.039,124.601,117.028,124.601,117.017z
	"/>
<path fill="#1A1A1A" d="M156.971,17.866c24.371,0.009,48.743-0.018,73.113,0.024c8.779,0.016,13.282,4.712,13.413,13.745
	c0.136,9.438-4.347,14.419-13.415,14.431c-48.973,0.066-97.945,0.08-146.917,0.039c-8.817-0.006-13.824-5.5-13.592-14.472
	c0.228-8.815,5.001-13.742,13.595-13.759C107.77,17.826,132.371,17.857,156.971,17.866z"/>
<path fill="#1A1A1A" d="M156.325,186.478c-24.144,0.007-48.287,0.008-72.431,0.007c-9.359-0.001-14.48-5.161-14.332-14.433
	c0.143-9.004,5.035-13.846,14.221-13.848c48.518-0.018,97.037-0.013,145.554,0.032c9.752,0.011,14.286,4.718,14.162,14.386
	c-0.12,9.289-4.692,13.832-14.054,13.84C205.073,186.484,180.7,186.47,156.325,186.478z"/>
</svg>
