<?xml version="1.0" encoding="utf-8"?>
<!-- Generator: Adobe Illustrator 16.0.0, SVG Export Plug-In . SVG Version: 6.00 Build 0)  -->
<!DOCTYPE svg PUBLIC "-//W3C//DTD SVG 1.1//EN" "http://www.w3.org/Graphics/SVG/1.1/DTD/svg11.dtd">
<svg version="1.1" id="Layer_1" xmlns="http://www.w3.org/2000/svg" xmlns:xlink="http://www.w3.org/1999/xlink" x="0px" y="0px"
	 width="80px" height="70px" viewBox="0 0 80 70" enable-background="new 0 0 80 70" xml:space="preserve">
<g>
	<text transform="matrix(1 0 0 1 -911.1855 168.834)" fill="#3B4551" font-family="'OpenSans-Bold'" font-size="35">Today Date : DD/MM/YY</text>
	
		<text transform="matrix(1 0 0 1 -749.1992 223.2334)" fill="#3B4551" font-family="'OpenSans-Bold'" font-size="35" letter-spacing="2">ID : XXX</text>
	<path fill-rule="evenodd" clip-rule="evenodd" fill="#3B4551" d="M-691.465,266.709c-75.486,0.007-150.974,0.006-226.46,0.008
		c-19.232,0.001-30.087-10.791-30.087-29.95c-0.003-96.483-0.003-192.967,0-289.45c0-19.233,10.747-29.993,30.013-29.995
		c150.14-0.012,300.28-0.012,450.421-0.025c4.173,0,8.342,0.017,12.383,1.209c11.771,3.473,19.187,13.714,19.194,26.74
		c0.032,53.823,0.014,107.647,0.014,161.472c0,43.493,0.007,86.985-0.003,130.478c-0.004,18.514-10.962,29.496-29.516,29.5
		C-540.825,266.713-616.145,266.702-691.465,266.709z M-691.913,254.912c75.479,0,150.959,0.001,226.438-0.001
		c12.011-0.001,17.634-5.654,17.635-17.783c0.01-96.64,0.013-193.28,0.011-289.92c-0.001-12.665-5.51-18.105-18.328-18.106
		c-150.459-0.004-300.918-0.004-451.376,0.001c-13.416,0.001-18.635,5.261-18.636,18.783c-0.007,96.307-0.007,192.613-0.001,288.92
		c0.001,12.676,5.517,18.114,18.319,18.114C-842.538,254.922-767.226,254.921-691.913,254.912z"/>
	<path fill-rule="evenodd" clip-rule="evenodd" fill="#3B4551" d="M-695.452-32.506c65.276,0,130.553-0.021,195.83,0.044
		c4.726,0.007,10.198-2.328,12.761,8c2.845,11.453-2.495,16.52-6.071,22.958c-7.47,13.448-16.668,23.663-22.988,39.26
		c7.577,12.569,15.139,25.171,22.734,37.702c3.774,6.228,8.81,11.555,6.342,22.934c-2.337,10.778-7.856,8.372-12.565,8.374
		c-130.878,0.06-261.756,0.045-392.634,0.054c-5.173,0-10.951,1.669-13.088-9.901c-1.979-10.711,3.293-15.182,6.631-21.113
		c7.52-13.366,16.67-23.678,22.989-39.291c-7.591-12.562-15.212-25.074-22.765-37.715c-3.661-6.131-9.15-11.034-6.516-22.628
		c2.596-11.429,8.512-8.604,13.509-8.611C-826.006-32.537-760.729-32.506-695.452-32.506z M-514.691-3.505
		c-121.596,0-241.285,0-362.173,0c5.914,9.44,10.813,17.034,15.567,24.904c8.237,13.628,8.172,18.062-0.328,32.03
		c-4.819,7.922-9.708,15.708-15.049,24.333c121.143,0,240.853,0,361.999,0c-6.549-10.558-11.8-19.185-17.149-27.606
		c-5.672-8.933-5.46-17.429,0.15-26.2C-526.33,15.605-521.138,6.942-514.691-3.505z"/>
	<text transform="matrix(1 0 0 1 -774.3442 50.6582)" fill="#3B4551" font-family="'OpenSans-Bold'" font-size="48">gcccoin</text>
</g>
<g enable-background="new    ">
	<path fill="#3B4551" d="M9.284,40.464H8.481v-3.119H7.452v-0.668h2.86v0.668H9.284V40.464z"/>
	<path fill="#3B4551" d="M13.603,39.011c0,0.472-0.124,0.841-0.372,1.106c-0.249,0.266-0.595,0.399-1.039,0.399
		c-0.279,0-0.524-0.062-0.736-0.183c-0.212-0.122-0.375-0.298-0.489-0.524c-0.114-0.229-0.171-0.494-0.171-0.799
		c0-0.474,0.124-0.841,0.371-1.104s0.594-0.393,1.042-0.393c0.278,0,0.523,0.059,0.736,0.18s0.375,0.295,0.49,0.521
		C13.547,38.441,13.603,38.707,13.603,39.011z M11.601,39.011c0,0.287,0.047,0.505,0.141,0.65c0.095,0.146,0.248,0.221,0.46,0.221
		c0.21,0,0.362-0.073,0.455-0.22c0.092-0.145,0.138-0.362,0.138-0.651c0-0.287-0.046-0.501-0.139-0.645
		c-0.094-0.144-0.247-0.215-0.459-0.215c-0.21,0-0.363,0.071-0.456,0.213C11.647,38.507,11.601,38.723,11.601,39.011z"/>
	<path fill="#3B4551" d="M15.312,40.517c-0.34,0-0.607-0.132-0.802-0.397c-0.194-0.264-0.292-0.63-0.292-1.098
		c0-0.475,0.099-0.846,0.297-1.11c0.198-0.266,0.47-0.396,0.817-0.396c0.365,0,0.643,0.142,0.834,0.425h0.026
		c-0.04-0.217-0.06-0.41-0.06-0.578v-0.929h0.793v4.031h-0.606l-0.153-0.375h-0.034C15.953,40.374,15.679,40.517,15.312,40.517z
		 M15.589,39.887c0.202,0,0.35-0.059,0.444-0.177c0.094-0.117,0.146-0.317,0.154-0.598v-0.086c0-0.311-0.048-0.533-0.144-0.668
		c-0.096-0.135-0.252-0.202-0.468-0.202c-0.176,0-0.313,0.075-0.411,0.224c-0.098,0.149-0.146,0.366-0.146,0.652
		c0,0.284,0.049,0.498,0.147,0.641C15.265,39.814,15.406,39.887,15.589,39.887z"/>
	<path fill="#3B4551" d="M19.73,40.464l-0.153-0.394h-0.021c-0.133,0.168-0.269,0.284-0.41,0.349
		c-0.141,0.064-0.324,0.098-0.551,0.098c-0.278,0-0.497-0.08-0.657-0.239c-0.16-0.159-0.24-0.385-0.24-0.678
		c0-0.309,0.107-0.535,0.323-0.681c0.214-0.146,0.539-0.227,0.973-0.242l0.502-0.016v-0.127c0-0.294-0.15-0.44-0.45-0.44
		c-0.232,0-0.504,0.07-0.816,0.21l-0.262-0.534c0.333-0.173,0.703-0.262,1.109-0.262c0.388,0,0.686,0.085,0.893,0.255
		c0.208,0.168,0.311,0.426,0.311,0.771v1.93H19.73z M19.496,39.122l-0.306,0.011c-0.23,0.007-0.4,0.048-0.513,0.124
		c-0.112,0.077-0.168,0.192-0.168,0.348c0,0.223,0.127,0.334,0.384,0.334c0.183,0,0.329-0.053,0.439-0.157
		c0.109-0.106,0.164-0.247,0.164-0.42V39.122z"/>
	<path fill="#3B4551" d="M20.818,37.567h0.866l0.546,1.63c0.047,0.142,0.079,0.309,0.096,0.503h0.016
		c0.019-0.178,0.057-0.345,0.112-0.503l0.536-1.63h0.847l-1.226,3.268c-0.112,0.303-0.272,0.528-0.481,0.679
		c-0.208,0.15-0.451,0.227-0.729,0.227c-0.137,0-0.271-0.016-0.402-0.046v-0.627c0.095,0.022,0.199,0.034,0.311,0.034
		c0.14,0,0.262-0.042,0.367-0.128c0.105-0.086,0.187-0.215,0.245-0.387l0.047-0.144L20.818,37.567z"/>
	<path fill="#3B4551" d="M29.11,38.534c0,0.624-0.177,1.101-0.532,1.433s-0.868,0.497-1.538,0.497h-1.073v-3.787h1.189
		c0.619,0,1.099,0.163,1.441,0.489S29.11,37.948,29.11,38.534z M28.276,38.555c0-0.813-0.358-1.22-1.077-1.22h-0.428v2.467h0.344
		C27.89,39.802,28.276,39.386,28.276,38.555z"/>
	<path fill="#3B4551" d="M31.811,40.464l-0.153-0.394h-0.021c-0.133,0.168-0.27,0.284-0.41,0.349
		c-0.142,0.064-0.325,0.098-0.551,0.098c-0.278,0-0.497-0.08-0.656-0.239c-0.161-0.159-0.24-0.385-0.24-0.678
		c0-0.309,0.108-0.535,0.322-0.681c0.215-0.146,0.539-0.227,0.973-0.242l0.503-0.016v-0.127c0-0.294-0.151-0.44-0.451-0.44
		c-0.232,0-0.505,0.07-0.817,0.21l-0.262-0.534c0.334-0.173,0.704-0.262,1.109-0.262c0.389,0,0.687,0.085,0.894,0.255
		c0.207,0.168,0.311,0.426,0.311,0.771v1.93H31.811z M31.578,39.122l-0.306,0.011c-0.23,0.007-0.401,0.048-0.514,0.124
		c-0.111,0.077-0.168,0.192-0.168,0.348c0,0.223,0.128,0.334,0.383,0.334c0.184,0,0.33-0.053,0.44-0.157
		c0.109-0.106,0.164-0.247,0.164-0.42V39.122z"/>
	<path fill="#3B4551" d="M34.534,39.887c0.139,0,0.304-0.03,0.498-0.092v0.59c-0.197,0.088-0.439,0.132-0.726,0.132
		c-0.317,0-0.547-0.081-0.691-0.24c-0.144-0.16-0.216-0.399-0.216-0.719v-1.396h-0.378v-0.334l0.436-0.265l0.227-0.611h0.506v0.616
		h0.811v0.594H34.19v1.396c0,0.112,0.031,0.195,0.094,0.249S34.431,39.887,34.534,39.887z"/>
	<path fill="#3B4551" d="M37.067,40.517c-0.467,0-0.832-0.129-1.094-0.387s-0.393-0.621-0.393-1.093
		c0-0.485,0.121-0.861,0.363-1.126c0.244-0.266,0.579-0.396,1.007-0.396c0.409,0,0.728,0.115,0.956,0.349
		c0.227,0.232,0.342,0.555,0.342,0.967v0.384H36.38c0.009,0.225,0.075,0.398,0.2,0.525c0.124,0.126,0.299,0.189,0.523,0.189
		c0.174,0,0.339-0.019,0.494-0.055c0.156-0.037,0.318-0.094,0.488-0.174v0.611c-0.138,0.069-0.286,0.121-0.443,0.154
		S37.293,40.517,37.067,40.517z M36.956,38.075c-0.168,0-0.299,0.054-0.394,0.159c-0.096,0.106-0.15,0.258-0.164,0.453h1.109
		c-0.003-0.195-0.054-0.347-0.152-0.453C37.255,38.129,37.123,38.075,36.956,38.075z"/>
	<path fill="#3B4551" d="M40.433,37.953c0-0.145,0.039-0.254,0.117-0.328s0.19-0.11,0.34-0.11c0.144,0,0.254,0.036,0.333,0.112
		c0.078,0.077,0.117,0.185,0.117,0.326c0,0.141-0.04,0.25-0.12,0.326s-0.19,0.115-0.33,0.115c-0.146,0-0.258-0.039-0.338-0.114
		C40.474,38.205,40.433,38.095,40.433,37.953z M40.433,40.094c0-0.145,0.039-0.254,0.117-0.329c0.078-0.074,0.19-0.111,0.34-0.111
		c0.144,0,0.254,0.038,0.333,0.114c0.078,0.076,0.117,0.185,0.117,0.326c0,0.137-0.039,0.244-0.119,0.322
		c-0.08,0.079-0.189,0.119-0.331,0.119c-0.146,0-0.258-0.04-0.338-0.116C40.474,40.342,40.433,40.234,40.433,40.094z"/>
	<path fill="#3B4551" d="M46.917,38.534c0,0.624-0.177,1.101-0.533,1.433c-0.354,0.332-0.868,0.497-1.537,0.497h-1.072v-3.787h1.189
		c0.618,0,1.098,0.163,1.439,0.489C46.746,37.492,46.917,37.948,46.917,38.534z M46.083,38.555c0-0.813-0.359-1.22-1.078-1.22
		h-0.427v2.467h0.344C45.695,39.802,46.083,39.386,46.083,38.555z"/>
	<path fill="#3B4551" d="M50.983,38.534c0,0.624-0.179,1.101-0.534,1.433c-0.354,0.332-0.866,0.497-1.537,0.497H47.84v-3.787h1.189
		c0.619,0,1.099,0.163,1.44,0.489S50.983,37.948,50.983,38.534z M50.148,38.555c0-0.813-0.358-1.22-1.078-1.22h-0.428v2.467h0.345
		C49.761,39.802,50.148,39.386,50.148,38.555z"/>
	<path fill="#3B4551" d="M53.596,36.677l-1.413,3.787h-0.718l1.413-3.787H53.596z"/>
	<path fill="#3B4551" d="M55.839,40.464l-0.911-2.972h-0.023c0.031,0.604,0.049,1.008,0.049,1.21v1.762h-0.717v-3.787h1.093
		l0.896,2.896h0.016l0.95-2.896h1.094v3.787h-0.749v-1.792c0-0.085,0.001-0.183,0.004-0.294c0.003-0.109,0.015-0.403,0.035-0.88
		h-0.023l-0.978,2.966H55.839z"/>
	<path fill="#3B4551" d="M60.979,40.464l-0.911-2.972h-0.023c0.032,0.604,0.049,1.008,0.049,1.21v1.762h-0.717v-3.787h1.093
		l0.896,2.896h0.017l0.95-2.896h1.094v3.787h-0.748v-1.792c0-0.085,0-0.183,0.004-0.294c0.003-0.109,0.014-0.403,0.034-0.88h-0.023
		l-0.977,2.966H60.979z"/>
	<path fill="#3B4551" d="M66.206,36.677l-1.411,3.787h-0.717l1.411-3.787H66.206z"/>
	<path fill="#3B4551" d="M68.026,38.236l0.79-1.56h0.865l-1.256,2.314v1.473h-0.799v-1.447l-1.256-2.34h0.87L68.026,38.236z"/>
	<path fill="#3B4551" d="M71.476,38.236l0.79-1.56h0.866l-1.258,2.314v1.473h-0.798v-1.447l-1.256-2.34h0.87L71.476,38.236z"/>
</g>
<g enable-background="new    ">
	<path fill="#3B4551" d="M32.38,52.711v-3.787h0.803v3.787H32.38z"/>
	<path fill="#3B4551" d="M37.677,50.781c0,0.623-0.177,1.101-0.531,1.434c-0.356,0.331-0.868,0.496-1.538,0.496h-1.073v-3.787h1.19
		c0.618,0,1.098,0.163,1.44,0.489C37.507,49.739,37.677,50.196,37.677,50.781z M36.843,50.802c0-0.813-0.359-1.22-1.078-1.22h-0.427
		v2.466h0.344C36.457,52.048,36.843,51.633,36.843,50.802z"/>
	<path fill="#3B4551" d="M40.463,50.2c0-0.145,0.039-0.254,0.116-0.328c0.078-0.075,0.191-0.112,0.341-0.112
		c0.143,0,0.255,0.038,0.332,0.114c0.078,0.076,0.118,0.185,0.118,0.326c0,0.141-0.04,0.249-0.121,0.325
		c-0.08,0.077-0.189,0.116-0.329,0.116c-0.146,0-0.259-0.038-0.338-0.114C40.503,50.452,40.463,50.342,40.463,50.2z M40.463,52.341
		c0-0.145,0.039-0.254,0.116-0.329c0.078-0.074,0.191-0.112,0.341-0.112c0.143,0,0.255,0.039,0.332,0.115
		c0.078,0.076,0.118,0.185,0.118,0.326c0,0.137-0.04,0.244-0.119,0.322c-0.08,0.079-0.189,0.118-0.331,0.118
		c-0.146,0-0.259-0.038-0.338-0.115S40.463,52.481,40.463,52.341z"/>
	<path fill="#3B4551" d="M47.387,52.711H46.47l-0.881-1.432l-0.882,1.432h-0.859l1.256-1.953l-1.176-1.834h0.887l0.815,1.362
		l0.802-1.362h0.864l-1.188,1.878L47.387,52.711z"/>
	<path fill="#3B4551" d="M51.323,52.711h-0.917l-0.88-1.432l-0.882,1.432h-0.859l1.257-1.953l-1.176-1.834h0.885l0.816,1.362
		l0.8-1.362h0.865l-1.188,1.878L51.323,52.711z"/>
	<path fill="#3B4551" d="M55.261,52.711h-0.917l-0.881-1.432l-0.882,1.432h-0.86l1.258-1.953l-1.177-1.834h0.887l0.816,1.362
		l0.8-1.362h0.865l-1.189,1.878L55.261,52.711z"/>
</g>
<path fill-rule="evenodd" clip-rule="evenodd" fill="#3B4551" d="M40.656,62.302c-11.444,0.002-22.888,0.002-34.332,0.003
	c-2.916,0-4.561-1.637-4.561-4.542c0-14.627,0-29.253,0-43.881c0-2.916,1.629-4.547,4.55-4.547
	C29.075,9.332,51.836,9.332,74.599,9.33c0.632,0,1.265,0.003,1.877,0.184c1.784,0.527,2.908,2.08,2.91,4.054
	c0.004,8.16,0.001,16.32,0.001,24.479c0,6.595,0.002,13.188,0,19.78c0,2.808-1.661,4.472-4.475,4.473
	C63.494,62.304,52.075,62.301,40.656,62.302z M40.589,60.514c11.442,0,22.886,0,34.328,0c1.821,0,2.673-0.856,2.674-2.695
	c0.002-14.651,0.002-29.302,0.002-43.953c0-1.92-0.836-2.745-2.779-2.745c-22.811-0.001-45.621-0.001-68.43,0
	c-2.034,0-2.825,0.798-2.825,2.848c-0.001,14.601-0.001,29.201,0,43.801c0,1.922,0.836,2.747,2.777,2.747
	C17.753,60.516,29.17,60.516,40.589,60.514z"/>
<line fill="none" stroke="#8C8C8C" stroke-width="0.5" stroke-miterlimit="10" x1="7.882" y1="30.125" x2="73" y2="30.125"/>
<g>
	<g enable-background="new    ">
		<path fill="#3B4551" d="M22.674,17.845v0.69l-0.779,0.2c0.144,0.222,0.215,0.471,0.215,0.748c0,0.534-0.187,0.95-0.559,1.248
			c-0.373,0.298-0.89,0.448-1.55,0.448l-0.245-0.014l-0.2-0.023c-0.139,0.106-0.209,0.226-0.209,0.356
			c0,0.196,0.25,0.294,0.747,0.294h0.846c0.546,0,0.961,0.117,1.25,0.351c0.285,0.235,0.427,0.578,0.427,1.033
			c0,0.581-0.242,1.032-0.726,1.351c-0.484,0.321-1.182,0.481-2.09,0.481c-0.693,0-1.224-0.12-1.59-0.362
			c-0.367-0.242-0.549-0.581-0.549-1.018c0-0.299,0.094-0.55,0.28-0.751c0.187-0.201,0.462-0.346,0.824-0.432
			c-0.14-0.06-0.261-0.157-0.364-0.291c-0.104-0.135-0.157-0.278-0.157-0.429c0-0.19,0.055-0.349,0.165-0.473
			c0.11-0.127,0.268-0.251,0.478-0.373c-0.263-0.113-0.468-0.293-0.621-0.543c-0.153-0.249-0.229-0.542-0.229-0.88
			c0-0.543,0.175-0.963,0.529-1.259c0.353-0.296,0.857-0.445,1.513-0.445c0.139,0,0.304,0.012,0.497,0.037
			c0.19,0.025,0.313,0.044,0.366,0.056H22.674z M18.836,23.522c0,0.188,0.088,0.333,0.269,0.44c0.179,0.106,0.431,0.161,0.754,0.161
			c0.486,0,0.868-0.068,1.143-0.201c0.277-0.134,0.414-0.315,0.414-0.547c0-0.187-0.083-0.317-0.244-0.388
			c-0.165-0.071-0.415-0.107-0.756-0.107h-0.704c-0.25,0-0.457,0.059-0.624,0.176C18.918,23.174,18.836,23.33,18.836,23.522z
			 M19.329,19.474c0,0.27,0.062,0.483,0.184,0.641c0.124,0.157,0.311,0.236,0.564,0.236c0.255,0,0.442-0.079,0.561-0.236
			c0.119-0.158,0.177-0.371,0.177-0.641c0-0.599-0.245-0.898-0.738-0.898C19.579,18.575,19.329,18.875,19.329,19.474z"/>
		<path fill="#3B4551" d="M25.512,22.908c-1.547,0-2.322-0.849-2.322-2.548c0-0.846,0.211-1.492,0.631-1.938
			c0.421-0.446,1.025-0.669,1.811-0.669c0.575,0,1.092,0.113,1.549,0.338l-0.401,1.049c-0.213-0.087-0.412-0.156-0.596-0.21
			c-0.184-0.056-0.367-0.084-0.552-0.084c-0.706,0-1.059,0.502-1.059,1.505c0,0.973,0.354,1.459,1.059,1.459
			c0.262,0,0.504-0.035,0.725-0.105c0.224-0.07,0.445-0.179,0.667-0.328v1.161c-0.219,0.14-0.44,0.236-0.665,0.291
			C26.137,22.881,25.853,22.908,25.512,22.908z"/>
		<path fill="#3B4551" d="M30.198,22.908c-1.549,0-2.322-0.849-2.322-2.548c0-0.846,0.21-1.492,0.631-1.938
			c0.421-0.446,1.025-0.669,1.811-0.669c0.576,0,1.092,0.113,1.548,0.338l-0.399,1.049c-0.213-0.087-0.414-0.156-0.596-0.21
			c-0.185-0.056-0.367-0.084-0.552-0.084c-0.706,0-1.059,0.502-1.059,1.505c0,0.973,0.353,1.459,1.059,1.459
			c0.262,0,0.504-0.035,0.726-0.105c0.222-0.07,0.446-0.179,0.667-0.328v1.161c-0.219,0.14-0.441,0.236-0.664,0.291
			C30.821,22.881,30.539,22.908,30.198,22.908z"/>
		<path fill="#3B4551" d="M34.882,22.908c-1.549,0-2.322-0.849-2.322-2.548c0-0.846,0.21-1.492,0.633-1.938
			c0.42-0.446,1.023-0.669,1.811-0.669c0.574,0,1.091,0.113,1.546,0.338L36.15,19.14c-0.212-0.087-0.411-0.156-0.597-0.21
			c-0.184-0.056-0.366-0.084-0.55-0.084c-0.707,0-1.059,0.502-1.059,1.505c0,0.973,0.352,1.459,1.059,1.459
			c0.261,0,0.502-0.035,0.724-0.105c0.223-0.07,0.445-0.179,0.669-0.328v1.161c-0.22,0.14-0.442,0.236-0.668,0.291
			C35.505,22.881,35.223,22.908,34.882,22.908z"/>
		<path fill="#3B4551" d="M42.066,20.324c0,0.81-0.213,1.442-0.641,1.899c-0.426,0.457-1.021,0.685-1.783,0.685
			c-0.479,0-0.899-0.104-1.264-0.313c-0.364-0.209-0.645-0.509-0.841-0.901c-0.195-0.391-0.295-0.848-0.295-1.37
			c0-0.813,0.214-1.444,0.637-1.896c0.425-0.45,1.021-0.676,1.789-0.676c0.479,0,0.901,0.104,1.262,0.312
			c0.365,0.207,0.645,0.505,0.842,0.894C41.971,19.347,42.066,19.802,42.066,20.324z M38.629,20.324c0,0.492,0.08,0.865,0.24,1.116
			c0.163,0.252,0.426,0.378,0.791,0.378c0.362,0,0.621-0.125,0.781-0.375c0.16-0.25,0.238-0.624,0.238-1.119
			c0-0.493-0.08-0.862-0.242-1.108c-0.159-0.246-0.422-0.37-0.787-0.37c-0.361,0-0.621,0.123-0.782,0.368
			C38.708,19.458,38.629,19.829,38.629,20.324z"/>
		<path fill="#3B4551" d="M43.131,16.56c0-0.442,0.246-0.664,0.738-0.664s0.736,0.222,0.736,0.664c0,0.21-0.059,0.374-0.184,0.491
			c-0.121,0.117-0.307,0.177-0.553,0.177C43.377,17.228,43.131,17.005,43.131,16.56z M44.547,22.819h-1.359v-4.974h1.359V22.819z"/>
		<path fill="#3B4551" d="M50.561,22.819h-1.357v-2.906c0-0.359-0.064-0.627-0.191-0.807c-0.129-0.179-0.33-0.269-0.607-0.269
			c-0.381,0-0.656,0.126-0.822,0.38c-0.172,0.254-0.256,0.674-0.256,1.261v2.34h-1.357v-4.974h1.037l0.182,0.638h0.076
			c0.15-0.241,0.359-0.423,0.627-0.546c0.264-0.124,0.564-0.185,0.904-0.185c0.578,0,1.018,0.156,1.316,0.469
			c0.299,0.313,0.449,0.765,0.449,1.355V22.819z"/>
	</g>
	<path fill="#3B4551" d="M56.06,22.908c-1.549,0-2.322-0.849-2.322-2.548c0-0.846,0.21-1.492,0.633-1.938
		c0.42-0.446,1.023-0.669,1.811-0.669c0.574,0,1.091,0.113,1.546,0.338l-0.399,1.049c-0.212-0.087-0.411-0.156-0.597-0.21
		c-0.184-0.056-0.366-0.084-0.55-0.084c-0.707,0-1.059,0.502-1.059,1.505c0,0.973,0.352,1.459,1.059,1.459
		c0.261,0,0.502-0.035,0.724-0.105c0.223-0.07,0.445-0.179,0.669-0.328v1.161c-0.22,0.14-0.442,0.236-0.668,0.291
		C56.683,22.881,56.4,22.908,56.06,22.908z"/>
	<path fill="#3B4551" d="M63.244,20.324c0,0.81-0.214,1.442-0.641,1.899c-0.427,0.457-1.021,0.685-1.783,0.685
		c-0.479,0-0.899-0.104-1.264-0.313c-0.364-0.209-0.645-0.509-0.841-0.901c-0.195-0.391-0.295-0.848-0.295-1.37
		c0-0.813,0.214-1.444,0.637-1.896c0.425-0.45,1.021-0.676,1.789-0.676c0.479,0,0.9,0.104,1.263,0.312
		c0.364,0.207,0.645,0.505,0.842,0.894C63.147,19.347,63.244,19.802,63.244,20.324z M59.807,20.324c0,0.492,0.08,0.865,0.24,1.116
		c0.163,0.252,0.426,0.378,0.791,0.378c0.362,0,0.621-0.125,0.781-0.375c0.159-0.25,0.237-0.624,0.237-1.119
		c0-0.493-0.08-0.862-0.241-1.108c-0.159-0.246-0.422-0.37-0.787-0.37c-0.361,0-0.621,0.123-0.782,0.368
		C59.886,19.458,59.807,19.829,59.807,20.324z"/>
	<path fill="#3B4551" d="M51.785,22.378c0-0.442,0.246-0.664,0.738-0.664c0.491,0,0.736,0.222,0.736,0.664
		c0,0.21-0.06,0.374-0.184,0.491c-0.122,0.117-0.307,0.177-0.553,0.177C52.031,23.046,51.785,22.823,51.785,22.378z"/>
</g>
</svg>
