<svg width="60" height="60" viewBox="0 0 60 60" fill="none" xmlns="http://www.w3.org/2000/svg">
<path d="M0 30C0 13.4314 13.4314 0 30 0C46.5686 0 60 13.4314 60 30C60 46.5686 46.5686 60 30 60C13.4314 60 0 46.5686 0 30Z" fill="#F9D549"/>
<g clip-path="url(#clip0_2696_404)">
<path d="M32.6235 19.0811C32.6657 18.4417 32.6616 17.8963 32.7421 17.3646C32.9807 15.8118 34.3849 14.7444 35.969 14.8766C37.6636 15.017 38.8279 16.2127 38.8402 17.835C38.847 18.7675 38.8538 19.6986 38.8361 20.6311C38.8211 21.3905 38.4325 21.9781 37.71 22.0435C35.1101 22.2794 34.1763 24.6065 34.3085 26.6774C34.5471 30.3992 36.3344 33.1163 39.8449 34.5601C40.4175 34.7959 41.0746 34.8723 41.7004 34.9227C42.7665 35.0086 43.1741 35.4544 43.4113 36.4878C43.5368 37.0304 43.973 37.543 44.3752 37.9697C45.0446 38.6773 45.8476 39.258 46.5088 39.9724C48.1393 41.7324 48.3929 44.2014 47.1822 45.9164C46.2852 47.187 44.9641 47.6628 43.5054 47.8605C39.4387 48.4099 35.905 47.1857 32.7012 44.7099C29.7251 42.41 27.1375 39.697 24.4204 37.1204C21.7511 34.5887 19.1363 31.9957 16.3946 29.5472C14.3565 27.7272 12.8337 25.629 11.9993 23.036C11.8126 22.4552 11.6531 21.8608 11.5358 21.261C11.319 20.1499 11.7539 19.4696 12.831 19.141C13.8289 18.8357 14.8296 18.5344 15.818 18.2004C16.0593 18.1186 16.3728 17.9727 16.4655 17.7696C17.2344 16.0859 18.7218 15.1356 20.1301 14.1036C20.9181 13.5269 21.7388 12.9952 22.5159 12.4049C23.1049 11.9578 23.7265 11.8964 24.3795 12.1459C26.3073 12.8807 27.7197 14.1036 28.2554 16.199C28.6576 17.7709 29.8737 18.4785 31.3338 18.8575C31.7237 18.9584 32.13 18.9965 32.6235 19.0811ZM26.8621 30.9323C27.3052 31.1286 27.7346 31.3726 28.1954 31.5103C28.8757 31.7135 29.4224 31.2731 29.2902 30.5778C29.2125 30.1661 28.9357 29.7503 28.6453 29.4299C27.6419 28.3188 26.5513 27.2854 25.5779 26.1498C24.9221 25.3864 24.978 24.3693 25.5452 23.8554C26.1369 23.3182 26.918 23.3973 27.7742 24.0149C28.2104 24.3298 28.6808 24.6393 29.1825 24.8165C30.2677 25.1996 31.1784 24.5057 31.1634 23.3768C31.1511 22.4811 30.6317 21.8049 29.6992 21.4628C28.0946 20.8738 26.7544 19.9318 25.8874 18.4335C25.5738 17.8909 25.4579 17.2338 25.1375 16.6966C24.8349 16.1908 24.4341 15.7 23.9637 15.3619C23.8138 15.2542 23.2916 15.6428 22.9508 15.8268C22.7327 15.9441 22.5254 16.0913 22.3305 16.244C21.5098 16.8861 20.6727 17.5119 19.8861 18.1949C19.4812 18.5466 19.3285 18.9529 19.8275 19.4601C20.4928 20.1376 21.0613 20.9093 21.6638 21.6482C22.276 22.4007 22.2228 23.2228 21.537 23.8186C20.9113 24.3625 19.9392 24.2725 19.3394 23.5991C18.8868 23.0905 18.4478 22.5698 18.0143 22.0463C17.0477 20.8779 17.0572 20.8956 15.6107 21.3741C15.0259 21.5677 14.91 21.8377 15.0927 22.4266C15.7307 24.4743 17.0381 25.993 18.5868 27.4327C23.0435 31.5744 27.3911 35.8348 31.8246 40.0038C33.5437 41.6193 35.3583 43.1435 37.5314 44.1455C38.1449 44.4291 38.8047 44.609 39.4441 44.838C39.4673 44.7822 39.4905 44.7249 39.515 44.669C34.5662 40.7618 30.145 36.3746 26.8621 30.9323ZM44.8646 43.5034C44.7733 43.1571 44.7746 42.7386 44.5729 42.4768C44.1066 41.8756 43.5804 41.3071 43.0078 40.8054C42.138 40.0433 41.2055 39.3535 40.6834 38.2751C40.6329 38.1715 40.5034 38.0624 40.393 38.0406C39.7209 37.9056 38.8892 38.5614 38.8565 39.2621C38.817 40.1115 39.1006 40.8654 39.6213 41.532C40.697 42.9103 42.1953 43.6438 43.7781 44.2491C44.641 44.579 44.8155 44.4536 44.8646 43.5034Z" fill="black"/>
<path d="M38.8387 27.8812C38.033 27.873 37.3609 27.3317 37.23 26.586C37.1087 25.8989 37.5858 25.2404 38.367 24.9391C38.5524 24.8669 38.7365 24.6692 38.821 24.4838C39.1727 23.7135 39.9907 23.2909 40.7801 23.5158C41.5381 23.7312 41.9989 24.5002 41.868 25.3331C41.6458 26.7551 40.2893 27.8962 38.8387 27.8812Z" fill="black"/>
<path d="M43.369 29.3631C43.3704 30.9459 41.7426 32.3828 40.1734 32.1824C39.3773 32.0815 38.8292 31.5662 38.7597 30.8532C38.6888 30.1211 39.1019 29.584 39.8721 29.2649C40.0943 29.1736 40.2729 28.9023 40.4011 28.6746C40.7951 27.9725 41.4658 27.6426 42.2197 27.8253C42.9805 28.0093 43.369 28.5288 43.369 29.3631Z" fill="black"/>
</g>
<defs>
<clipPath id="clip0_2696_404">
<rect width="36.4576" height="35.99" fill="white" transform="translate(11.4812 12)"/>
</clipPath>
</defs>
</svg>
