<svg width="60" height="60" viewBox="0 0 60 60" fill="none" xmlns="http://www.w3.org/2000/svg">
<circle cx="30" cy="30" r="30" fill="#2892F8"/>
<path d="M40.955 17.5422C37.8318 15.0042 34.1082 13.554 30.2643 13.554C26.0602 13.554 21.976 15.1251 18.8529 18.1465C15.7298 21.1678 13.928 25.0352 13.6878 29.3859V29.8695H15.6097V29.5069C16.0902 21.7721 22.5767 15.7294 30.2643 15.7294C33.7478 15.7294 36.9911 16.9379 39.6336 19.1133L39.7538 19.2342L41.1952 17.7839L40.955 17.5422Z" fill="white"/>
<path d="M39.0331 36.7583C36.9911 39.538 33.7477 41.2299 30.2643 41.2299C24.2583 41.2299 19.4535 36.3957 19.4535 30.3529C19.4535 24.4311 24.2583 19.5968 30.2643 19.5968C33.7477 19.5968 36.9911 21.2888 39.0331 24.0685L39.1532 24.3102L40.5946 22.8599L40.4745 22.739C38.0721 19.4759 34.2282 17.6631 30.2643 17.6631C23.1772 17.5423 17.5316 23.3433 17.5316 30.3529C17.5316 37.4834 23.2973 43.1636 30.2643 43.1636C34.2282 43.1636 38.0721 41.2299 40.4745 38.0877L40.5946 37.9667L39.1532 36.5166L39.0331 36.7583Z" fill="white"/>
<path d="M43.2372 19.9593C42.877 19.5967 42.6367 19.1133 42.2763 18.7507L42.1561 18.6299L40.7147 20.0802L40.8349 20.201C41.1952 20.5636 41.5556 20.9261 41.7958 21.4096L41.9159 21.6513L43.3574 20.201L43.2372 19.9593Z" fill="white"/>
<path d="M39.6337 41.7129L39.5137 41.8339C36.871 44.0092 33.6278 45.2178 30.1443 45.2178C22.4566 45.2178 15.9701 39.175 15.4896 31.4402V30.9568H13.5677V31.4402C13.8079 35.6701 15.7299 39.6584 18.7329 42.6798C21.856 45.5803 25.9401 47.2722 30.1443 47.2722C34.1082 47.2722 37.8319 45.822 40.835 43.284L40.955 43.1632L39.6337 41.7129Z" fill="white"/>
<path d="M41.9159 39.296L41.7958 39.5377C41.5556 39.9003 41.1952 40.2629 40.8349 40.7463L40.7147 40.8671L42.1561 42.3174L42.2763 42.1966C42.6367 41.834 42.997 41.3506 43.2372 40.988L43.3574 40.8671L41.9159 39.296Z" fill="white"/>
<path d="M44.4384 42.1965C40.955 46.4265 35.7898 48.9644 30.2643 48.9644C20.0541 48.9644 11.886 40.6253 11.886 30.3527C11.886 20.08 20.0541 11.8618 30.2643 11.8618C35.7898 11.8618 40.955 14.2789 44.4384 18.6297L44.5586 18.8714L46 17.4211L45.88 17.3003C42.0361 12.5869 36.2703 9.9281 30.2643 9.9281C18.973 9.9281 9.84393 19.1131 9.84393 30.4735C9.84393 41.8339 18.973 51.019 30.2643 51.019C36.2703 51.019 42.0361 48.3601 45.88 43.6468L46 43.5259L44.5586 42.0756L44.4384 42.1965Z" fill="white"/>
</svg>
