<svg width="21" height="24" viewBox="0 0 21 24" fill="none" xmlns="http://www.w3.org/2000/svg">
<path d="M1.60207 11.455C1.26007 11.455 0.354065 10.517 0.354065 10.135L0.978058 2.63899C0.978058 2.25699 1.25807 1.94499 1.60207 1.94499H5.69406L19.8761 1.05499C20.1551 1.05499 20.9251 2.21699 20.9251 2.59499V10.769C20.9251 11.146 20.6971 11.455 20.4191 11.455H1.60207Z" fill="#65656C"/>
<path d="M18.8581 10.723H0.952057C0.622057 10.723 0.354065 10.411 0.354065 10.028V1.908C0.354065 1.526 0.623057 1.213 0.952057 1.213H13.6221L13.6271 1.238L19.7071 1.213C19.9731 1.213 20.1901 1.521 20.1901 1.896V10.04C20.1901 10.416 19.9731 10.723 19.7071 10.723H18.8581Z" fill="#D9D9D9" stroke="#65656C" stroke-width="0.5"/>
<path d="M13.0741 3.24299C13.1821 2.30599 14.0141 1.58199 15.0341 1.58199C16.1281 1.58199 17.0071 2.41399 17.0071 3.45199C17.0071 4.38499 16.2931 5.15199 15.3501 5.29499V8.70399C15.3501 8.95399 15.1321 9.15899 14.8681 9.15899H5.21407C4.94907 9.15899 4.73206 8.95399 4.73206 8.70399V3.69799C4.73206 3.44799 4.94907 3.24299 5.21407 3.24299H13.0741ZM14.6641 5.28599C13.8911 5.14799 13.2811 4.58799 13.1101 3.86599H6.34206C6.34206 4.33299 5.92506 4.71499 5.41606 4.71499V7.68699C5.92506 7.68699 6.34106 8.06899 6.34106 8.53599H13.7411H13.7391C13.7391 8.06899 14.1551 7.68599 14.6641 7.68599V5.28599ZM10.0411 7.44599C9.31506 7.44599 8.72606 6.88799 8.72606 6.20099C8.72606 5.51299 9.31506 4.95599 10.0411 4.95599C10.7671 4.95599 11.3561 5.51299 11.3561 6.20099C11.3561 6.88799 10.7671 7.44599 10.0411 7.44599Z" fill="#65656C"/>
<path fill-rule="evenodd" clip-rule="evenodd" d="M16.173 2.86399C16.209 2.82999 16.209 2.77899 16.173 2.75399L16.048 2.63399C16.0312 2.6175 16.0086 2.60826 15.985 2.60826C15.9615 2.60826 15.9388 2.6175 15.922 2.63399H15.913L14.712 3.81599C14.7036 3.82423 14.6923 3.82885 14.6805 3.82885C14.6687 3.82885 14.6574 3.82423 14.649 3.81599L14.155 3.31599L14.147 3.30599C14.1302 3.2895 14.1076 3.28026 14.084 3.28026C14.0605 3.28026 14.0378 3.2895 14.021 3.30599L13.896 3.42599C13.8798 3.44186 13.8701 3.4633 13.869 3.48599C13.8704 3.50833 13.88 3.52936 13.896 3.54499L13.913 3.56199L14.613 4.27499C14.622 4.29199 14.649 4.29999 14.676 4.29999C14.6875 4.30047 14.699 4.29849 14.7097 4.29418C14.7204 4.28987 14.7301 4.28333 14.738 4.27499L16.173 2.86399Z" fill="white"/>
<path d="M14.176 20.127H8.04002L5.01303 17.157C4.94225 17.0875 4.88602 17.0047 4.84764 16.9133C4.80926 16.8218 4.78949 16.7237 4.78949 16.6245C4.78949 16.5253 4.80926 16.4272 4.84764 16.3357C4.88602 16.2443 4.94225 16.1614 5.01303 16.092L5.33203 15.779C5.47751 15.6382 5.67205 15.5594 5.87453 15.5594C6.077 15.5594 6.27156 15.6382 6.41704 15.779L7.27103 16.616V10.444C7.2734 10.2426 7.35542 10.0503 7.49915 9.90922C7.64287 9.76812 7.83662 9.68966 8.03802 9.691H8.34503C8.54644 9.68966 8.74018 9.76812 8.88391 9.90922C9.02764 10.0503 9.10966 10.2426 9.11203 10.444V13.376C9.18397 13.2813 9.27681 13.2045 9.38332 13.1516C9.48982 13.0987 9.60711 13.0711 9.72603 13.071H10.032C10.1757 13.0708 10.3165 13.1108 10.4386 13.1864C10.5607 13.262 10.6592 13.3703 10.723 13.499C10.7868 13.3705 10.8851 13.2623 11.007 13.1867C11.1289 13.111 11.2696 13.071 11.413 13.071H11.72C11.8637 13.0708 12.0045 13.1108 12.1266 13.1864C12.2487 13.262 12.3472 13.3703 12.411 13.499C12.4747 13.3705 12.5731 13.2623 12.695 13.1867C12.817 13.111 12.9576 13.071 13.101 13.071H13.409C13.6106 13.0697 13.8045 13.1483 13.9483 13.2896C14.092 13.4309 14.1739 13.6234 14.176 13.825V20.127ZM14.685 23.423C14.6842 23.4902 14.6569 23.5543 14.6089 23.6014C14.5609 23.6484 14.4962 23.6745 14.429 23.674H7.67703C7.61018 23.6743 7.54592 23.6482 7.49818 23.6014C7.45045 23.5546 7.42308 23.4908 7.42203 23.424V21.374C7.42203 21.234 7.53603 21.122 7.67703 21.122H14.429C14.569 21.122 14.685 21.235 14.685 21.373V23.423Z" fill="#65656C"/>
</svg>
