<svg width="20" height="23" viewBox="0 0 20 23" fill="none" xmlns="http://www.w3.org/2000/svg">
<path d="M11.883 15.245C11.883 13.299 13.523 11.678 15.558 11.678H18.774V9.79701C18.774 8.82401 17.986 8.04501 17.002 8.04501H1.97403C0.72703 8.04501 0.0710449 7.07201 0.0710449 7.07201V21.408C0.727045 22.575 1.90802 22.575 1.90802 22.575H17.002C17.986 22.575 18.774 21.797 18.774 20.824V18.813H15.558C13.524 18.813 11.883 17.191 11.883 15.245Z" fill="#65656C"/>
<path d="M18.9051 12.456H15.4931C13.9181 12.456 12.6711 13.689 12.6711 15.181C12.6711 16.672 13.9181 17.905 15.4931 17.905H18.8391C19.029 17.9045 19.2112 17.8294 19.3462 17.6958C19.4813 17.5622 19.5585 17.3809 19.5611 17.191V13.17C19.6271 12.78 19.2991 12.456 18.9051 12.456ZM16.2151 16.283C16.0775 16.2857 15.9407 16.2607 15.8129 16.2097C15.6851 16.1586 15.5688 16.0825 15.4709 15.9857C15.373 15.8889 15.2956 15.7735 15.243 15.6463C15.1905 15.5191 15.164 15.3826 15.1651 15.245C15.1651 14.662 15.6241 14.208 16.2151 14.208C16.8051 14.208 17.2651 14.662 17.2651 15.245C17.2662 15.3826 17.2397 15.5191 17.1871 15.6463C17.1346 15.7735 17.0571 15.8889 16.9592 15.9857C16.8614 16.0825 16.7451 16.1586 16.6173 16.2097C16.4894 16.2607 16.3527 16.2857 16.2151 16.283ZM6.04307 5.905C6.30507 6.359 6.69906 6.748 7.15806 7.072H1.51408C0.858079 6.942 0.989058 5.905 3.02406 5.905H6.04307ZM13.3931 5.905H16.6741C17.5931 5.905 18.3801 6.618 18.3801 7.526V7.721C18.0521 7.202 17.1991 7.072 17.1991 7.072H12.2771C12.7371 6.748 13.1301 6.359 13.3931 5.905Z" fill="#65656C"/>
<path d="M9.77606 7.297C7.74106 7.297 6.10107 5.676 6.10107 3.665C6.10107 1.654 7.74106 0.0970001 9.77606 0.0970001C11.8101 0.0970001 13.451 1.719 13.451 3.665C13.451 5.611 11.8111 7.297 9.77606 7.297ZM10.1041 3.211V2.757H11.1541V2.107H8.33206V2.757H9.38205V3.211C8.52905 3.276 7.87207 3.405 7.87207 3.6C7.87207 3.794 8.52907 3.989 9.31607 3.989V5.416H10.0381V3.989C10.9571 3.989 11.5481 3.794 11.5481 3.599C11.5481 3.405 10.9571 3.276 10.1041 3.211ZM10.1041 3.859H9.31607C8.59407 3.859 8.00406 3.729 8.00406 3.535C8.00406 3.405 8.52907 3.275 9.31607 3.211V3.73H10.1041V3.276C10.8261 3.276 11.416 3.406 11.416 3.6C11.416 3.73 10.8261 3.859 10.1041 3.859Z" fill="#65656C"/>
</svg>
