<svg version="1.1" id="Ebene_1" xmlns="http://www.w3.org/2000/svg" xmlns:xlink="http://www.w3.org/1999/xlink" x="0px" y="0px"
	 viewBox="0 0 32 32" style="enable-background:new 0 0 32 32;" xml:space="preserve">
<style type="text/css">
	.st0{fill:#4F6587;}
</style>
<g>
	<path class="st0" d="M10.8,7.6c-1.5,2-2.6,4.3-3.2,6.8c2.8-4,6.5-6.5,11.4-7c4.8-0.5,8.9,0.9,12.4,4.2c-1.5-5.2-5.5-9.3-10.7-10.9
		c-0.1,0-0.2,0-0.2,0.1C16.5,2,13.3,4.3,10.8,7.6z"/>
	<path class="st0" d="M32,16.1c-0.1-0.2-0.2-0.5-0.4-0.7c-2.9-4-6.8-6.1-11.8-5.8C10,10.2,4.4,21.2,9.7,29.5c0.5,0.7,1,1.4,1.6,1.8
		c1.5,0.5,3.1,0.7,4.7,0.7C24.8,32,32,24.9,32,16.1z"/>
	<path class="st0" d="M7,29.2c-0.2-0.4-0.3-0.7-0.4-1c-1.2-2.6-1.9-5.3-2-8.2C4.4,13.1,7,7.2,12.4,2.6c1.2-1,2.6-1.8,3.9-2.6
		c-0.1,0-0.2,0-0.3,0C7.2,0,0,7.2,0,16C0,21.5,2.8,26.4,7,29.2z"/>
</g>
</svg>