<svg width="800" height="800" viewBox="0 0 800 800" fill="none" xmlns="http://www.w3.org/2000/svg">
<rect width="800" height="800" rx="400" fill="#FAC579" fill-opacity="0.9"/>
<path d="M550.775 243.429C557.526 243.429 563 237.936 563 231.161V190.268C563 183.493 557.526 178 550.775 178H249.225C242.474 178 237 183.493 237 190.268V236.015C237 242.79 242.474 248.283 249.225 248.283H336.104C363.924 248.283 385.27 258.463 398.217 276.143H249.225C242.474 276.143 237 281.636 237 288.411V329.304C237 336.079 242.474 341.571 249.225 341.571H410.959C404.625 378.463 377.38 401.512 334.8 401.512H249.225C242.474 401.512 237 407.005 237 413.78V467.975C237 471.399 238.426 474.667 240.933 476.99L409.08 632.747C411.338 634.839 414.299 636 417.372 636H501.482C512.611 636 517.951 622.293 509.773 614.717L356.062 472.332C433.996 469.94 489.665 417.746 496.974 341.571H550.775C557.526 341.571 563 336.079 563 329.304V288.411C563 281.636 557.526 276.143 550.775 276.143H490.985C487.433 264.344 482.549 253.4 476.465 243.429H550.775Z" fill="#3045FF"/>
</svg>
