<svg width="605" height="605" viewBox="0 0 605 605" fill="none" xmlns="http://www.w3.org/2000/svg">
<path d="M262.582 292.419C262.765 286.673 259.151 282.459 256.456 277.902C237.748 245.705 218.979 213.545 198.36 178.151C230.998 180.037 260.842 173.434 290.735 179.939C299.311 181.814 305.511 187.829 309.995 195.474C338.099 243.434 366.237 291.378 394.407 339.305C388.391 352.304 398.78 360.623 403.754 370.228C413.556 389.23 427.547 406.027 434.677 426.584C414.095 426.584 393.5 425.996 372.954 426.866C352.409 427.736 337.879 419.515 328.396 401.445C324.096 393.248 319.024 385.518 313.168 375.582C304.114 391.19 295.795 405.095 287.967 419.283C285.075 424.526 281.841 427.05 275.421 426.927C253.969 426.486 232.443 425.776 211.04 426.927C189.429 428.153 175.511 418.572 165.318 400.746C143.608 362.914 121.482 325.314 99.5278 287.629C80.7424 255.334 61.9569 223.028 43.1715 190.708C41.248 187.388 38.1606 184.387 38.6384 178.69C66.6206 179.339 94.517 175.1 122.524 178.592C135.179 180.172 143.131 187.915 149.33 198.5C174.551 241.56 199.92 284.521 225.435 327.385C227.886 331.428 228.964 336.769 234.55 338.264C230.875 342.454 227.751 347.11 230.985 352.672C244.964 376.697 259.163 400.575 273.608 425.028C282.453 414.259 308.671 370.914 307.373 367.447C301.48 351.52 291.029 338.044 283.054 323.121C282 321.149 280.971 319.164 279.746 317.314C274.196 308.861 271.672 298.386 262.582 292.419Z" fill="#3487ED"/>
<path d="M434.726 426.548C427.596 406.027 413.654 389.23 403.804 370.191C398.829 360.586 388.44 352.268 394.456 339.269C407.013 325.792 413.053 308.395 421.948 292.714C426.052 285.51 430.401 282.912 438.671 283.378C463.615 284.811 488.608 285.363 513.564 286.269C513.098 290.312 511.113 293.62 509.141 297.161C485.202 340.449 461.373 383.786 437.654 427.173L434.726 426.548Z" fill="#3B4669"/>
<path d="M262.582 292.419C271.672 298.386 274.196 308.861 279.734 317.253C280.959 319.103 281.988 321.088 283.041 323.06C291.017 337.921 301.419 351.459 307.36 367.386C308.659 370.914 282.441 414.26 273.596 424.967C259.163 400.464 244.952 376.636 230.973 352.611C227.739 347.048 230.887 342.393 234.538 338.203C243.947 323.036 248.762 305.002 262.582 292.419Z" fill="#3B4669"/>
<path d="M528.4 264.829H437.739C445.85 248.902 452.331 233.931 462.365 221.018C469.115 212.357 479.59 210.213 490.2 210.323C512.105 210.556 533.998 211.082 555.892 211.487L528.4 264.829Z" fill="#3B4669"/>
<path d="M437.654 427.258C461.447 383.897 485.275 340.559 509.141 297.247C511.089 293.718 513.098 290.398 513.564 286.355C522.238 284.701 525.815 286.282 520.474 295.556C497.114 336.467 473.914 377.469 450.874 418.56C447.896 423.865 444.38 427.859 437.654 427.258Z" fill="#3487ED"/>
<path d="M528.399 264.829L555.916 211.487C563.487 210.2 568.866 210.262 562.936 220.197C555.303 233.025 548.087 246.121 540.982 259.255C538.078 264.597 534.709 267.696 528.399 264.829Z" fill="#3487ED"/>
</svg>
